<svg id="Group_2698" data-name="Group 2698" xmlns="http://www.w3.org/2000/svg" width="261.074" height="49.505" viewBox="0 0 261.074 49.505">
  <g id="Group_2694" data-name="Group 2694">
    <g id="Group_2600" data-name="Group 2600" transform="translate(204.403)">
      <path id="Path_8308" data-name="Path 8308" d="M-516.831-85.51c-8.478,0-15.378-9.092-15.378-20.271s6.9-20.268,15.378-20.268a12.3,12.3,0,0,1,6.386,1.822,1.789,1.789,0,0,1,.617,2.451,1.791,1.791,0,0,1-2.451.615,8.777,8.777,0,0,0-4.552-1.315c-6.508,0-11.805,7.489-11.805,16.7s5.3,16.7,11.805,16.7a8.746,8.746,0,0,0,4.55-1.32,1.794,1.794,0,0,1,2.453.615,1.791,1.791,0,0,1-.615,2.453A12.308,12.308,0,0,1-516.831-85.51Z" transform="translate(539.619 130.484)" fill="#fff"/>
      <path id="Path_8309" data-name="Path 8309" d="M-520.569-95.832a1.777,1.777,0,0,1-.972-.288,1.788,1.788,0,0,1-.524-2.473,20.273,20.273,0,0,0,3.413-11,20.074,20.074,0,0,0-3.4-10.929,1.786,1.786,0,0,1,.517-2.473,1.787,1.787,0,0,1,2.475.519,23.621,23.621,0,0,1,3.983,12.882,23.818,23.818,0,0,1-3.99,12.941A1.782,1.782,0,0,1-520.569-95.832Z" transform="translate(553.24 134.309)" fill="#fff"/>
      <path id="Path_8310" data-name="Path 8310" d="M-517.84-85.565a1.776,1.776,0,0,1-1.081-.367,1.784,1.784,0,0,1-.333-2.5,29.028,29.028,0,0,0,6.208-17.391,28.687,28.687,0,0,0-6.208-17.305,1.786,1.786,0,0,1,.321-2.506,1.784,1.784,0,0,1,2.506.324,32.253,32.253,0,0,1,6.953,19.487,32.592,32.592,0,0,1-6.944,19.559A1.778,1.778,0,0,1-517.84-85.565Z" transform="translate(557.007 130.537)" fill="#fff"/>
      <path id="Path_8311" data-name="Path 8311" d="M-514.826-78.406a1.793,1.793,0,0,1-1.122-.4,1.789,1.789,0,0,1-.269-2.513,35.312,35.312,0,0,0,8.151-21.9A34.909,34.909,0,0,0-516.22-125a1.79,1.79,0,0,1,.257-2.515,1.788,1.788,0,0,1,2.515.26,38.488,38.488,0,0,1,8.954,24.042,38.893,38.893,0,0,1-8.942,24.137A1.781,1.781,0,0,1-514.826-78.406Z" transform="translate(561.163 127.911)" fill="#fff"/>
      <path id="Path_8312" data-name="Path 8312" d="M-522.238-121.486h-7.925a4.41,4.41,0,0,0-4.407,4.411v11.86a4.408,4.408,0,0,0,4.407,4.409h7.925a4.406,4.406,0,0,0,4.407-4.409v-11.86a4.408,4.408,0,0,0-4.407-4.411" transform="translate(536.356 136.791)" fill="#e86230"/>
      <path id="Path_8313" data-name="Path 8313" d="M-521.2-97.98h-7.927a6.2,6.2,0,0,1-6.193-6.2v-11.86a6.2,6.2,0,0,1,6.193-6.2h7.927a6.2,6.2,0,0,1,6.191,6.2v11.86A6.2,6.2,0,0,1-521.2-97.98Zm-7.927-20.683a2.626,2.626,0,0,0-2.62,2.625v11.86a2.626,2.626,0,0,0,2.62,2.625h7.927a2.624,2.624,0,0,0,2.618-2.625v-11.86a2.624,2.624,0,0,0-2.618-2.625Z" transform="translate(535.32 135.754)" fill="#fff"/>
    </g>
    <g id="Group_2602" data-name="Group 2602" transform="translate(0 5.276)">
      <g id="Group_2601" data-name="Group 2601">
        <path id="Path_8314" data-name="Path 8314" d="M-606.805-121.2c1.262-3.018,2.854-4.5,7.575-4.5,3.456,0,5.981.767,7.518,4.5l14.38,34.358H-587.7l-3.461-8.782h-16.188l-3.459,8.782h-10.319Zm1.865,18.11h11.362l-4.885-12.184c-.219-.6-.384-1.208-.767-1.208s-.6.605-.824,1.208Z" transform="translate(621.131 125.696)" fill="#fff"/>
        <path id="Path_8315" data-name="Path 8315" d="M-598.945-86.838v-22.777h-4.171v-6.312h4.171c.274-8.342,7.025-9.769,14.764-9.769.6,0,1.208,0,1.813.055v5.707c-.658-.055-.989-.055-1.429-.055-3.511,0-6.584.219-6.584,4.061h8.013v6.312h-8.013v22.777Z" transform="translate(646.028 125.696)" fill="#fff"/>
        <path id="Path_8316" data-name="Path 8316" d="M-592.657-119.255v-6.257h8.563v6.257Zm0,3.073h8.563v29.089h-8.563Z" transform="translate(660.482 125.95)" fill="#fff"/>
        <path id="Path_8317" data-name="Path 8317" d="M-573.618-121.635c.879-2.087,1.922-4.061,4.281-4.061,2.251,0,3.4,2.032,4.283,4.061l14.707,34.8h-3.182l-4.667-11.2h-22.281l-4.664,11.2h-3.185Zm-5.71,20.964h19.98l-8.4-20.087c-.383-.822-.772-2.194-1.593-2.194s-1.208,1.372-1.591,2.194Z" transform="translate(666.467 125.696)" fill="#fff"/>
        <path id="Path_8318" data-name="Path 8318" d="M-559.493-92.506c-9.878,0-12.294-5.214-12.294-14.544,0-8.78,2.415-14.544,12.294-14.544h9.771v2.58h-9.771c-7.682,0-9.33,4.283-9.33,11.965,0,8.232,1.648,11.965,9.33,11.965h10.429v2.58Z" transform="translate(689.325 131.364)" fill="#fff"/>
        <path id="Path_8319" data-name="Path 8319" d="M-548.96-87.093c-7.906,0-7.906-4.612-7.906-9.221V-113.6h-4.555v-2.58h4.555v-9.33h2.856v9.33h7.791v2.58h-7.791v18.11c0,4.554,1.208,5.819,5.707,5.819h2.084v2.58Z" transform="translate(703.651 125.95)" fill="#fff"/>
        <path id="Path_8320" data-name="Path 8320" d="M-548.059-87.093v-38.419h2.963v38.419Z" transform="translate(722.117 125.95)" fill="#fff"/>
        <path id="Path_8321" data-name="Path 8321" d="M-543.591-87.093v-38.419h2.966v38.419Z" transform="translate(728.292 125.95)" fill="#fff"/>
      </g>
    </g>
  </g>
</svg>
