<svg id="a2998c7c-1334-4b4f-9b39-07ade6f378a7" data-name="Group 2706" xmlns="http://www.w3.org/2000/svg" width="275.78" height="49.5" viewBox="0 0 275.78 49.5"><path id="f3137777-2729-4a65-89e7-3d5aa191cae3" data-name="Path 8322" d="M257.44,22.57a1.81,1.81,0,0,1-1-.29,16.47,16.47,0,0,0-18.43,0,1.78,1.78,0,0,1-2.47-.52h0a1.79,1.79,0,0,1,.51-2.48,20.11,20.11,0,0,1,22.35,0,1.79,1.79,0,0,1-1,3.29Z" transform="translate(0)" style="fill:#009bd9"/><path id="b8348982-4d39-4bcb-908e-b6972af67991" data-name="Path 8323" d="M231.5,17a1.79,1.79,0,0,1-1.1-3.21,27.85,27.85,0,0,1,16.81-6,28.14,28.14,0,0,1,16.87,6,1.8,1.8,0,0,1,.33,2.51,1.78,1.78,0,0,1-2.51.33h0a24.56,24.56,0,0,0-14.69-5.25,24.26,24.26,0,0,0-14.61,5.25A1.77,1.77,0,0,1,231.5,17Z" transform="translate(0)" style="fill:#009bd9"/><path id="f6adbac4-4a07-41b6-86c0-588193fefa10" data-name="Path 8324" d="M227.64,10.9a1.85,1.85,0,0,1-1.4-.66,1.79,1.79,0,0,1,.27-2.52A33.1,33.1,0,0,1,247.21,0,33.46,33.46,0,0,1,268,7.7a1.79,1.79,0,0,1-2.24,2.79,29.88,29.88,0,0,0-18.53-6.91,29.57,29.57,0,0,0-18.44,6.91A1.8,1.8,0,0,1,227.64,10.9Z" transform="translate(0)" style="fill:#009bd9"/><path id="a41cb10b-5aad-4e1f-952e-b63981786cdf" data-name="Path 8325" d="M256.07,42.14a1.79,1.79,0,0,1-.47-3.51C265.23,36,271.7,29,271.7,21.24a14.52,14.52,0,0,0-1.39-6.11,1.79,1.79,0,1,1,3.24-1.51,18,18,0,0,1,1.73,7.62c0,9.37-7.53,17.75-18.73,20.84A1.91,1.91,0,0,1,256.07,42.14Z" transform="translate(0)" style="stroke:#fff;stroke-miterlimit:10"/><path id="aed1ab57-1e2a-4ad3-86a0-27bd26b55dfa" data-name="Path 8326" d="M238.42,42.14a1.91,1.91,0,0,1-.48-.06c-11.2-3.1-18.73-11.47-18.73-20.84a18,18,0,0,1,1.7-7.56,1.82,1.82,0,0,1,2.38-.88,1.79,1.79,0,0,1,.87,2.38h0a14.45,14.45,0,0,0-1.36,6.06c0,7.74,6.46,14.72,16.1,17.38a1.79,1.79,0,0,1-.48,3.52Z" transform="translate(0)" style="stroke:#fff;stroke-miterlimit:10"/><path id="ae16bf51-1f3b-49a4-a8ac-b746ca3e6ca0" data-name="Path 8327" d="M254.27,47.71h-14a1.8,1.8,0,0,1-1.81-1.8h0V35.27a1.81,1.81,0,0,1,1.81-1.81h14a1.81,1.81,0,0,1,1.81,1.81V45.9a1.81,1.81,0,0,1-1.81,1.81h0" transform="translate(0)" style="fill:#009bd9"/><path id="f936acdc-9f6e-443a-a290-1018d6860388" data-name="Path 8328" d="M254.26,49.5h-14a3.6,3.6,0,0,1-3.6-3.6V35.27a3.61,3.61,0,0,1,3.6-3.6h14a3.61,3.61,0,0,1,3.6,3.6V45.9a3.59,3.59,0,0,1-3.59,3.6Zm-14-14.25,0,10.65,14,0s0,0,0,0V35.27Z" transform="translate(0)"/><path id="b31b7de3-f6c1-4e89-a1f2-74a9b98862ad" data-name="Path 8329" d="M14.36,9.84c1.27-3,2.86-4.51,7.59-4.51,3.47,0,6,.77,7.54,4.51L43.91,44.28H33.51L30,35.48H13.81l-3.47,8.8H0ZM16.23,28H27.62l-4.9-12.21c-.22-.6-.38-1.22-.77-1.22s-.6.61-.83,1.22Z" transform="translate(0)"/><path id="f83f0d28-680c-40ef-90b6-59eda47949c5" data-name="Path 8330" d="M47.2,44.29V21.46H43V15.13H47.2c.27-8.36,7-9.79,14.8-9.79.6,0,1.21,0,1.82,0v5.72a13.86,13.86,0,0,0-1.44,0c-3.52,0-6.6.22-6.6,4.07h8v6.33h-8V44.29Z" transform="translate(0)"/><path id="a0e0d821-45e5-49ce-a1ec-232e74dc2ba0" data-name="Path 8331" d="M68,12V5.77h8.58V12Zm0,3.08h8.58V44.28H68Z" transform="translate(0)"/><path id="eab47b5e-5b47-49a9-a1c4-e9749567f79e" data-name="Path 8332" d="M97.42,44.29c-12.49,0-15.78-8.8-15.78-19.26S84.77,5.77,98,5.77h14.37V8.41H98c-9.9,0-13.14,6.17-13.14,16.62s3,16.62,12.65,16.62h15.46v2.64Z" transform="translate(0)"/><path id="f3f1fb65-7848-468b-ba36-de9a0773a464" data-name="Path 8333" d="M143.74,29.65c0,10.45-4,15-14.41,15s-14.42-4.52-14.42-15,4-14.85,14.42-14.85S143.74,19.2,143.74,29.65ZM129.33,42c8.25,0,11.44-3,11.44-12.38s-3.19-12.27-11.44-12.27-11.45,2.92-11.45,12.27S121.07,42,129.33,42Z" transform="translate(0)"/><path id="a3012a90-503a-4b72-8127-c42e11910e42" data-name="Path 8334" d="M148.69,5.77h2.86V44.29h-2.86Z" transform="translate(0)"/><path id="b8ad4cc1-dd3b-4976-a48b-b8a0bc6269a0" data-name="Path 8335" d="M157.49,5.77h2.86V44.29h-2.86Z" transform="translate(0)"/><path id="fb48202b-c027-4381-8d2e-be9970d57d1a" data-name="Path 8336" d="M181.64,15.12c4.84,0,7,2.7,7,7.32v18c0,2.59-.71,3.86-4.23,3.86H173.17c-5.78,0-7.87-2.76-7.87-8.8s2.14-8.64,7.87-8.64h12.6V22c0-2.2-1.05-4.24-4.13-4.24H167.5V15.12ZM172.4,29.43c-3.52,0-4.13,2.53-4.13,6s.61,6.22,4.13,6.22h12a1.25,1.25,0,0,0,1.37-1.12.67.67,0,0,0,0-.2v-11Z" transform="translate(0)"/><path id="ed374c86-378f-462a-9abc-0191957ee6e1" data-name="Path 8337" d="M194.56,25.14c0-6.6,3.14-10,9.74-10h2v2.59h-2c-5,0-6.88,2.59-6.88,8.09V44.29h-2.86Z" transform="translate(0)"/></svg>