<svg id="ab420110-eb66-4923-bdaa-e4744a4e1024" data-name="Group 2698" xmlns="http://www.w3.org/2000/svg" width="261.07" height="49.51" viewBox="0 0 261.07 49.51"><path id="eed0bfa7-38d8-4996-b14f-f67b2f6c90fb" data-name="Path 8308" d="M227.19,45c-8.48,0-15.38-9.09-15.38-20.27s6.9-20.27,15.38-20.27a12.41,12.41,0,0,1,6.39,1.83,1.79,1.79,0,0,1-1.84,3.06A8.81,8.81,0,0,0,227.19,8c-6.51,0-11.8,7.49-11.8,16.7s5.3,16.7,11.8,16.7a8.82,8.82,0,0,0,4.55-1.32,1.79,1.79,0,0,1,1.84,3.07A12.3,12.3,0,0,1,227.19,45Z" transform="translate(0 0)"/><path id="ae8fa303-2ce3-41fd-b519-8b24a52052af" data-name="Path 8309" d="M237.07,38.48a1.79,1.79,0,0,1-1.49-2.76,20.24,20.24,0,0,0,3.41-11,20.06,20.06,0,0,0-3.4-10.93,1.79,1.79,0,0,1,.52-2.48h0a1.79,1.79,0,0,1,2.47.52h0a23.68,23.68,0,0,1,4,12.88,23.89,23.89,0,0,1-4,12.95A1.8,1.8,0,0,1,237.07,38.48Z" transform="translate(0 0)" style="fill:#e86230"/><path id="aba93e05-d6d4-403d-8339-7af2804eaa20" data-name="Path 8310" d="M243.57,45a1.82,1.82,0,0,1-1.08-.36,1.78,1.78,0,0,1-.33-2.5,29.09,29.09,0,0,0,6.2-17.4,28.65,28.65,0,0,0-6.2-17.3,1.79,1.79,0,0,1,.32-2.51h0a1.78,1.78,0,0,1,2.5.32h0a32.23,32.23,0,0,1,7,19.48A32.6,32.6,0,0,1,245,44.27,1.76,1.76,0,0,1,243.57,45Z" transform="translate(0 0)" style="fill:#e86230"/><path id="e7eafcb7-150a-4ef1-8834-43b1300ee174" data-name="Path 8311" d="M250.74,49.51a1.89,1.89,0,0,1-1.12-.4,1.79,1.79,0,0,1-.27-2.52,35.29,35.29,0,0,0,8.15-21.9,35,35,0,0,0-8.15-21.78A1.78,1.78,0,1,1,252.12.66a38.53,38.53,0,0,1,8.95,24,38.89,38.89,0,0,1-8.94,24.14A1.83,1.83,0,0,1,250.74,49.51Z" transform="translate(0 0)" style="fill:#e86230"/><path id="a27e78ab-6cf4-4648-a90d-448bcd6d086f" data-name="Path 8312" d="M218.52,15.31H210.6a4.4,4.4,0,0,0-4.41,4.41V31.58A4.42,4.42,0,0,0,210.6,36h7.92a4.42,4.42,0,0,0,4.41-4.41h0V19.72a4.4,4.4,0,0,0-4.41-4.41h0" transform="translate(0 0)" style="fill:#e86230"/><path id="ab126d5f-1edf-40e9-af40-e19259307964" data-name="Path 8313" d="M218.52,37.77H210.6a6.19,6.19,0,0,1-6.2-6.2V19.71a6.21,6.21,0,0,1,6.2-6.2h7.92a6.2,6.2,0,0,1,6.19,6.2V31.57A6.2,6.2,0,0,1,218.52,37.77ZM210.6,17.09A2.62,2.62,0,0,0,208,19.72V31.58a2.62,2.62,0,0,0,2.62,2.62h7.92a2.62,2.62,0,0,0,2.62-2.62V19.72a2.62,2.62,0,0,0-2.62-2.63Z" transform="translate(0 0)"/><g id="a1cbbfa3-b1fc-4133-9d33-57bfe40b409f" data-name="Group 2602"><g id="b0f85532-1213-42cc-a0d6-e8fa99c35ea5" data-name="Group 2601"><path id="b8010825-8cd2-4de7-93e3-1baf1b8d11c9" data-name="Path 8314" d="M14.33,9.77c1.26-3,2.85-4.5,7.57-4.5,3.46,0,6,.77,7.52,4.5L43.8,44.13H33.43L30,35.35H13.78l-3.46,8.78H0Zm1.86,18.11H27.55L22.67,15.7c-.22-.6-.39-1.21-.77-1.21s-.6.61-.82,1.21Z" transform="translate(0 0)"/><path id="b0f7407b-7e5d-4b0b-8e3f-9a0c3bf84b6a" data-name="Path 8315" d="M47.08,44.13V21.36H42.91V15.05h4.17c.28-8.35,7-9.77,14.77-9.77.6,0,1.2,0,1.81,0V11A13.29,13.29,0,0,0,62.23,11c-3.51,0-6.58.22-6.58,4.06h8v6.32h-8V44.13Z" transform="translate(0 0)"/><path id="b6055d00-e42e-4a21-89c5-9283bc739c70" data-name="Path 8316" d="M67.83,12V5.71h8.56V12Zm0,3.07h8.56V44.13H67.83Z" transform="translate(0 0)"/><path id="bdd58324-f64e-40be-bf77-28b3aa091a67" data-name="Path 8317" d="M92.85,9.34c.88-2.09,1.92-4.06,4.28-4.06s3.4,2,4.28,4.06l14.71,34.8h-3.18l-4.67-11.2H86l-4.66,11.2H78.14Zm-5.71,21h20l-8.4-20.09C98.34,9.39,98,8,97.13,8s-1.21,1.37-1.6,2.19Z" transform="translate(0 0)"/><path id="f71aa67d-eba3-41bc-a24f-379efa2effc7" data-name="Path 8318" d="M129.83,44.13c-9.88,0-12.29-5.21-12.29-14.54,0-8.78,2.41-14.54,12.29-14.54h9.77v2.58h-9.77c-7.68,0-9.33,4.28-9.33,12,0,8.23,1.65,12,9.33,12h10.43v2.58Z" transform="translate(0 0)"/><path id="e35f991a-d2cf-4ffb-b4f4-9926d213e0c7" data-name="Path 8319" d="M154.69,44.13c-7.91,0-7.91-4.61-7.91-9.22V17.63h-4.55V15.05h4.55V5.72h2.86v9.33h7.79v2.58h-7.79V35.74c0,4.55,1.21,5.81,5.71,5.81h2.08v2.59Z" transform="translate(0 0)"/><path id="b00bf4d5-4df0-497a-9f61-a1db67d2a02f" data-name="Path 8320" d="M174.06,44.13V5.71h3V44.13Z" transform="translate(0 0)"/><path id="ab826f98-cc63-40fa-aaab-eb3591201feb" data-name="Path 8321" d="M184.7,44.13V5.71h3V44.13Z" transform="translate(0 0)"/></g></g></svg>