<svg id="Group_2706" data-name="Group 2706" xmlns="http://www.w3.org/2000/svg" width="275.28" height="49.505" viewBox="0 0 275.28 49.505">
  <path id="Path_8322" data-name="Path 8322" d="M-663.776-114.549a1.8,1.8,0,0,1-.977-.289,16.471,16.471,0,0,0-18.43-.012,1.788,1.788,0,0,1-2.478-.521,1.791,1.791,0,0,1,.518-2.479,20.12,20.12,0,0,1,22.346.007,1.793,1.793,0,0,1,.523,2.479A1.783,1.783,0,0,1-663.776-114.549Z" transform="translate(921.217 137.119)" fill="#fff"/>
  <path id="Path_8323" data-name="Path 8323" d="M-686.487-115.409a1.79,1.79,0,0,1-1.418-.695,1.793,1.793,0,0,1,.32-2.512,27.813,27.813,0,0,1,16.806-6,28.1,28.1,0,0,1,16.866,5.989,1.794,1.794,0,0,1,.334,2.512,1.791,1.791,0,0,1-2.512.332,24.5,24.5,0,0,0-14.688-5.251,24.2,24.2,0,0,0-14.614,5.251A1.772,1.772,0,0,1-686.487-115.409Z" transform="translate(917.99 132.427)" fill="#fff"/>
  <path id="Path_8324" data-name="Path 8324" d="M-688.107-116.99a1.8,1.8,0,0,1-1.39-.659,1.793,1.793,0,0,1,.26-2.522,33.126,33.126,0,0,1,20.7-7.715,33.477,33.477,0,0,1,20.779,7.7,1.793,1.793,0,0,1,.27,2.519,1.8,1.8,0,0,1-2.519.27,29.876,29.876,0,0,0-18.53-6.91,29.544,29.544,0,0,0-18.437,6.913A1.794,1.794,0,0,1-688.107-116.99Z" transform="translate(915.742 127.886)" fill="#fff"/>
  <path id="Path_8325" data-name="Path 8325" d="M-676.2-93.058a1.788,1.788,0,0,1-1.724-1.316,1.789,1.789,0,0,1,1.249-2.2c9.628-2.658,16.1-9.642,16.1-17.381a14.367,14.367,0,0,0-1.392-6.113,1.794,1.794,0,0,1,.867-2.381,1.8,1.8,0,0,1,2.381.867,17.921,17.921,0,0,1,1.726,7.627c0,9.37-7.526,17.744-18.728,20.834A1.837,1.837,0,0,1-676.2-93.058Z" transform="translate(932.273 135.199)" fill="#fff"/>
  <path id="Path_8326" data-name="Path 8326" d="M-673.472-93.094a1.84,1.84,0,0,1-.478-.064c-11.2-3.095-18.725-11.466-18.725-20.832a17.917,17.917,0,0,1,1.7-7.565,1.8,1.8,0,0,1,2.376-.874,1.789,1.789,0,0,1,.874,2.376,14.409,14.409,0,0,0-1.368,6.063c0,7.732,6.468,14.716,16.1,17.379a1.792,1.792,0,0,1,1.246,2.2A1.789,1.789,0,0,1-673.472-93.094Z" transform="translate(911.889 135.234)" fill="#fff"/>
  <path id="Path_8327" data-name="Path 8327" d="M-668.785-99.62h-14.039a1.809,1.809,0,0,1-1.81-1.81v-10.631a1.811,1.811,0,0,1,1.81-1.812h14.039a1.811,1.811,0,0,1,1.81,1.812v10.631a1.809,1.809,0,0,1-1.81,1.81" transform="translate(923.05 147.334)" fill="#009bd9"/>
  <path id="Path_8328" data-name="Path 8328" d="M-667.744-96.788h-14.038a3.606,3.606,0,0,1-3.6-3.6V-111.02a3.607,3.607,0,0,1,3.6-3.6h14.038a3.606,3.606,0,0,1,3.6,3.6v10.631A3.6,3.6,0,0,1-667.744-96.788Zm-14.038-14.253-.019,10.652,14.057.019a.02.02,0,0,0,.019-.019V-111.02Z" transform="translate(922.009 146.293)" fill="#fff"/>
  <path id="Path_8329" data-name="Path 8329" d="M-770.117-121.141c1.266-3.025,2.861-4.511,7.591-4.511,3.467,0,6,.769,7.538,4.511l14.416,34.44h-10.4l-3.467-8.8h-16.23l-3.465,8.8h-10.344Zm1.87,18.155h11.388l-4.9-12.214c-.22-.6-.384-1.211-.771-1.211s-.6.607-.824,1.211Z" transform="translate(784.478 130.986)" fill="#fff"/>
  <path id="Path_8330" data-name="Path 8330" d="M-762.282-86.7v-22.83h-4.181v-6.33h4.181c.275-8.36,7.042-9.79,14.8-9.79.606,0,1.211,0,1.817.053v5.724a13.953,13.953,0,0,0-1.433-.057c-3.522,0-6.6.222-6.6,4.071h8.035v6.33H-753.7V-86.7Z" transform="translate(809.48 130.986)" fill="#fff"/>
  <path id="Path_8331" data-name="Path 8331" d="M-756-119.2v-6.273h8.582v6.273Zm0,3.08h8.582v29.16H-756Z" transform="translate(823.996 131.24)" fill="#fff"/>
  <path id="Path_8332" data-name="Path 8332" d="M-734.5-86.955c-12.491,0-15.789-8.8-15.789-19.256s3.135-19.258,16.338-19.258h14.361v2.643h-14.361c-9.9,0-13.147,6.161-13.147,16.615s3.025,16.617,12.653,16.617h15.461v2.639Z" transform="translate(831.925 131.24)" fill="#fff"/>
  <path id="Path_8333" data-name="Path 8333" d="M-707.524-106.837c0,10.454-3.961,14.967-14.416,14.967s-14.415-4.513-14.415-14.967,3.961-14.852,14.415-14.852S-707.524-117.288-707.524-106.837ZM-721.94-94.456c8.253,0,11.443-3.028,11.443-12.381s-3.19-12.266-11.443-12.266-11.445,2.913-11.445,12.266S-730.192-94.456-721.94-94.456Z" transform="translate(851.266 136.486)" fill="#fff"/>
  <path id="Path_8334" data-name="Path 8334" d="M-722.21-125.469h2.861v38.514h-2.861Z" transform="translate(870.897 131.24)" fill="#fff"/>
  <path id="Path_8335" data-name="Path 8335" d="M-718.525-125.469h2.861v38.514h-2.861Z" transform="translate(876.012 131.24)" fill="#fff"/>
  <path id="Path_8336" data-name="Path 8336" d="M-698.914-121.552c4.843,0,6.987,2.7,6.987,7.319v17.99c0,2.586-.716,3.852-4.236,3.852h-11.223c-5.776,0-7.868-2.751-7.868-8.8s2.147-8.637,7.868-8.637h12.6v-4.9c0-2.2-1.046-4.238-4.126-4.238h-14.138v-2.586Zm-9.243,14.308c-3.52,0-4.126,2.529-4.126,6.051s.606,6.216,4.126,6.216h11.994a1.252,1.252,0,0,0,1.375-1.318v-10.948Z" transform="translate(880.552 136.677)" fill="#fff"/>
  <path id="Path_8337" data-name="Path 8337" d="M-703-111.537c0-6.6,3.135-10.015,9.738-10.015h1.982v2.586h-1.982c-4.953,0-6.877,2.586-6.877,8.088v18.487H-703Z" transform="translate(897.562 136.677)" fill="#fff"/>
</svg>
