<?xml version="1.0" encoding="utf-8"?>
<!-- Generator: Adobe Illustrator 21.1.0, SVG Export Plug-In . SVG Version: 6.00 Build 0)  -->
<svg version="1.1" id="Layer_1" xmlns="http://www.w3.org/2000/svg" xmlns:xlink="http://www.w3.org/1999/xlink" x="0px" y="0px"
	 width="490.7px" height="390.9px" viewBox="0 0 490.7 390.9" style="enable-background:new 0 0 490.7 390.9;" xml:space="preserve"
	>
<g>
	<path id="page-second-station-2-motion-path-01" style="fill:#FFFFFF;" d="M452.8,197.1c0,0-7.2-4-10-1.1c-1.7,1.7-2,5.2-0.5,6.9
		c2.2,2.5,7.8,1.2,11.1-1.1c3-2,2.6-3.8,5.7-5.7c2.2-1.3,6.8-3.1,8.9-1c2.2,1.5,2,6.4-0.4,7c-2.1,1.6-8.4,0-8.4,0L452.8,197.1z"/>
	<path id="page-second-station-2-motion-path-02" style="fill:#FFFFFF;" d="M396.5,224.8c0,0-7.2-4-10-1.1c-1.7,1.7-2,5.2-0.5,6.9
		c2.2,2.5,7.8,1.2,11.1-1.1c3-2,2.6-3.8,5.7-5.7c2.2-1.3,6.8-3.1,8.9-1c2.2,1.5,2,6.4-0.4,7c-2.1,1.6-8.4,0-8.4,0L396.5,224.8z"/>
	<g id="page-second-station-2-screen-01">
		<g>
			<path id="XMLID_1_" style="opacity:0.8;fill:#EAECF1;" d="M484.8,264.1l-71.5-37.7c-2.3-1.4-3.8-3.9-3.8-6.6l-0.6-124.3
				c0-2.9,3.1-4.8,5.7-3.5l71.6,34.5c2.7,1.4,4.3,4.2,4.2,7.2l0.4,127.2C490.6,263.9,487.3,265.7,484.8,264.1z"/>
			<path style="fill:#B5B5B5;" d="M480.2,207.5c-0.2,0-0.4-0.1-0.6-0.2l-63.9-30.4c-0.7-0.3-0.9-1.1-0.6-1.8
				c0.3-0.7,1.1-0.9,1.8-0.6l63.9,30.3c0.7,0.4,1.1,1.2,0.8,1.9C481.3,207.3,480.8,207.5,480.2,207.5z"/>
			<path style="fill:#B5B5B5;" d="M480.3,241.2c-0.2,0-0.5-0.1-0.7-0.2l-65.2-34.3c-0.7-0.4-0.9-1.2-0.6-1.8
				c0.3-0.7,1.1-0.9,1.8-0.6l65.2,34.2c0.8,0.4,1.1,1.3,0.8,2C481.3,240.9,480.8,241.2,480.3,241.2z"/>
			<path style="fill:#B5B5B5;" d="M443.3,200.7c-0.2,0-0.4-0.1-0.6-0.2l-28.4-14.4c-0.7-0.3-0.9-1.1-0.6-1.8
				c0.3-0.7,1.1-0.9,1.8-0.6l28.4,14.3c0.7,0.3,1,1.2,0.7,1.9C444.3,200.4,443.8,200.7,443.3,200.7z"/>
			<path style="fill:#B5B5B5;" d="M453.9,237.2c-0.2,0-0.4-0.1-0.7-0.2l-38.9-20.8c-0.7-0.4-0.9-1.2-0.6-1.9
				c0.3-0.7,1.2-0.9,1.8-0.6l38.9,20.7c0.7,0.4,1,1.3,0.7,2C455,237,454.5,237.2,453.9,237.2z"/>
			<path style="fill:#B5B5B5;" d="M481,219.8c-0.2,0-0.4-0.1-0.7-0.2l-30.3-15.4c-0.7-0.4-1-1.2-0.7-1.9c0.3-0.7,1.2-0.9,1.9-0.6
				l30.3,15.3c0.7,0.4,1.1,1.3,0.7,2C482.1,219.6,481.6,219.8,481,219.8z"/>
			<path style="fill:#B5B5B5;" d="M433.2,206.3c-0.2,0-0.4-0.1-0.6-0.2l-18-9.3c-0.7-0.3-0.9-1.2-0.6-1.8c0.3-0.7,1.1-0.9,1.8-0.6
				l18,9.3c0.7,0.4,1,1.2,0.6,1.9C434.2,206,433.8,206.3,433.2,206.3z"/>
			<path style="fill:#B5B5B5;" d="M456.2,218.1c-0.2,0-0.4-0.1-0.6-0.2l-18.8-9.7c-0.7-0.4-1-1.2-0.6-1.9c0.3-0.7,1.2-0.9,1.9-0.6
				l18.8,9.7c0.7,0.4,1,1.2,0.7,1.9C457.2,217.9,456.7,218.2,456.2,218.1z"/>
			<path style="fill:#B5B5B5;" d="M480.1,250.8c-0.2,0-0.5-0.1-0.7-0.2L459.6,240c-0.7-0.4-1-1.3-0.7-2c0.3-0.7,1.2-1,1.9-0.6
				l19.8,10.5c0.8,0.4,1.1,1.3,0.8,2C481.1,250.6,480.6,250.9,480.1,250.8z"/>
			<path style="fill:#B5B5B5;" d="M480.4,230.7c-0.2,0-0.5-0.1-0.7-0.2l-19.6-10.1c-0.7-0.4-1-1.2-0.7-1.9c0.3-0.7,1.2-1,1.9-0.6
				l19.6,10.1c0.7,0.4,1.1,1.3,0.7,2C481.4,230.4,480.9,230.7,480.4,230.7z"/>
		</g>
		<g>
			<polygon style="fill:#B7B8B8;" points="433.1,118.1 433.1,164.6 464,179.8 464,178.9 464.9,132.3 			"/>
			<path style="fill:#FFFFFF;" d="M444.1,162.1c-0.1,0-0.3,0-0.4-0.1c-0.3-0.2-0.5-0.4-0.8-0.9c-0.2-0.4-0.4-0.8-0.6-1.4
				c-0.3-0.8-0.5-2-0.9-3.6l-0.3-1.6c-0.3-1.5-0.6-3-1-4.4c-0.3-1-0.5-1.8-0.8-2.4c-0.2-0.4-0.4-0.6-0.5-0.9
				c-0.2-0.2-0.4-0.4-0.6-0.5c-0.1-0.1-0.2-0.1-0.3,0c-0.2,0.1-0.5,0.3-0.7,0.7c-0.4,0.7-0.9,1.9-1.3,3.5c-0.4,1.6-0.9,3.6-1.3,5.9
				c-0.1,0.3-0.4,0.5-0.6,0.5c-0.3-0.1-0.5-0.3-0.5-0.6c0.4-2.4,0.9-4.4,1.3-6c0.5-1.8,1-3,1.5-3.8c0.3-0.4,0.7-1,1.4-1.2
				c0.4-0.1,0.7-0.1,1.1,0.1c0.3,0.2,0.6,0.4,0.9,0.8c0.2,0.3,0.5,0.7,0.7,1.1c0.3,0.7,0.6,1.5,0.9,2.6c0.4,1.4,0.7,3,1,4.5l0.3,1.6
				c0.3,1.6,0.6,2.7,0.8,3.5c0.2,0.5,0.3,0.9,0.5,1.2c0.1,0.1,0.1,0.2,0.1,0.2c0-0.1,0.1-0.2,0.2-0.4c0.3-0.7,0.7-1.9,1-3.5
				c0.5-2.3,1-5.2,1.5-8c0.2-1,0.4-2.1,0.6-3.1c0.4-2.3,0.9-4.8,1.4-6.8c0.3-1.2,0.6-2,0.9-2.6c0.2-0.4,0.5-0.7,0.7-0.9
				c0.4-0.3,0.9-0.4,1.4-0.2c0.5,0.2,0.9,0.7,1.2,1.1c0.3,0.4,0.5,0.9,0.7,1.6c0.4,1,0.7,2.2,1,3.9c0.3,1.8,0.7,4,1,6
				c0.2,1.2,0.4,2.5,0.5,3.6c0.4,2.4,0.7,4.1,1.1,5.2c0.2,0.7,0.4,1.1,0.5,1.3c0,0,0,0,0.1-0.1c0.1-0.2,0.4-0.7,0.7-1.9
				c0.3-1.3,0.5-2.9,0.8-4.5c0.1-0.8,0.2-1.6,0.4-2.3c0.2-1.5,0.5-2.9,1-4c0.2-0.5,0.6-1.2,1.2-1.4c0.1,0,0.3-0.1,0.4-0.1
				c0.3,0,0.6,0.2,0.6,0.5c0,0.3-0.2,0.6-0.5,0.6c-0.1,0-0.1,0-0.1,0c-0.2,0.1-0.4,0.4-0.6,0.8c-0.4,0.9-0.7,2.4-0.9,3.7
				c-0.1,0.7-0.2,1.5-0.4,2.3c-0.2,1.6-0.5,3.3-0.8,4.6c-0.2,1.1-0.5,1.8-0.8,2.3c-0.2,0.3-0.4,0.5-0.6,0.6c-0.3,0.1-0.6,0.1-0.8,0
				c-0.2-0.1-0.3-0.2-0.4-0.4c-0.2-0.3-0.5-0.9-0.7-1.6c-0.4-1.2-0.7-2.9-1.1-5.3c-0.2-1.2-0.4-2.4-0.5-3.6c-0.3-2-0.6-4.1-0.9-6
				c-0.3-1.7-0.6-2.8-0.9-3.8c-0.2-0.6-0.4-1-0.6-1.4c-0.2-0.3-0.5-0.6-0.7-0.7c-0.1,0-0.1-0.1-0.3,0c-0.1,0.1-0.3,0.3-0.4,0.6
				c-0.3,0.5-0.6,1.3-0.9,2.4c-0.5,1.9-1,4.5-1.4,6.7c-0.2,1-0.4,2.1-0.6,3.1c-0.5,2.8-1,5.8-1.5,8.1c-0.4,1.7-0.7,2.9-1.1,3.7
				c-0.2,0.4-0.4,0.8-0.6,1c-0.1,0.1-0.3,0.2-0.4,0.2C444.2,162.1,444.2,162.1,444.1,162.1z"/>
			<g>
				<path style="fill:#FFFFFF;" d="M439.1,164.4c-0.2,0-0.3-0.1-0.3-0.3l-0.1-40c0-0.2,0.1-0.3,0.3-0.3l0,0c0.2,0,0.3,0.1,0.3,0.3
					l0.1,40C439.4,164.2,439.2,164.4,439.1,164.4L439.1,164.4z"/>
				<path style="fill:#FFFFFF;" d="M444.9,167.6c-0.2,0-0.3-0.1-0.3-0.3l-0.2-40.7c0-0.2,0.1-0.3,0.3-0.3h0c0.2,0,0.3,0.1,0.3,0.3
					l0.2,40.7C445.2,167.5,445.1,167.6,444.9,167.6L444.9,167.6z"/>
				<path style="fill:#FFFFFF;" d="M450.9,171c-0.2,0-0.3-0.1-0.3-0.3l-0.4-41.4c0-0.2,0.1-0.3,0.3-0.3h0c0.2,0,0.3,0.1,0.3,0.3
					l0.4,41.4C451.2,170.9,451.1,171,450.9,171L450.9,171z"/>
				<path style="fill:#FFFFFF;" d="M457.1,174.4c-0.2,0-0.3-0.1-0.3-0.3l-0.5-42.2c0-0.2,0.1-0.3,0.3-0.3c0,0,0,0,0,0
					c0.2,0,0.3,0.1,0.3,0.3l0.5,42.2C457.4,174.3,457.3,174.4,457.1,174.4L457.1,174.4z"/>
			</g>
			<g>
				<path style="fill:#FFFFFF;" d="M462.3,142.4c0,0-0.1,0-0.1,0L434,129.2c-0.1-0.1-0.2-0.2-0.1-0.4c0.1-0.1,0.2-0.2,0.4-0.1
					l28.2,13.2c0.1,0.1,0.2,0.2,0.1,0.4C462.5,142.4,462.4,142.4,462.3,142.4z"/>
				<path style="fill:#FFFFFF;" d="M462.5,151.4c0,0-0.1,0-0.1,0L434,137.4c-0.1-0.1-0.2-0.2-0.1-0.4c0.1-0.1,0.2-0.2,0.4-0.1
					l28.3,13.9c0.1,0.1,0.2,0.2,0.1,0.4C462.7,151.3,462.6,151.4,462.5,151.4z"/>
				<path style="fill:#FFFFFF;" d="M462.6,160.4c0,0-0.1,0-0.1,0L434,145.7c-0.1-0.1-0.2-0.2-0.1-0.4c0.1-0.1,0.2-0.2,0.4-0.1
					l28.5,14.7c0.1,0.1,0.2,0.2,0.1,0.4C462.8,160.4,462.7,160.4,462.6,160.4z"/>
				<path style="fill:#FFFFFF;" d="M462.8,169.6c0,0-0.1,0-0.1,0L434,154.1c-0.1-0.1-0.2-0.2-0.1-0.4c0.1-0.1,0.2-0.2,0.4-0.1
					l28.6,15.4c0.1,0.1,0.2,0.2,0.1,0.4C463,169.5,462.9,169.6,462.8,169.6z"/>
			</g>
		</g>
	</g>
	<g>
		<g>
			<path style="fill:#D1EAA2;" d="M182.4,223.4C179.6,224.7,190.7,223.5,182.4,223.4"/>
		</g>
		<g>
			<path style="fill:#D1EAA2;" d="M153.9,235.6c-15.3,6.6-32,9.9-48.2,13.9c-13.1,3.2-26.2,6.3-39.2,9.8c-9.9,2.7-20.1,5.4-29.8,9
				c-7.8,3.5-15.4,7.3-22.8,11.7c-3.6,2.7-6.9,5.9-9.6,9.5c-4.1,11.1-1.1,22.5,2.5,33.3c0.1,0.4,0.1,0.7,0.1,1
				c0.1,0.3,0.3,0.7,0.4,1c0,0.1,0.1,0.3,0.1,0.4c1.7,3.2,2.5,6.7,1.9,10.5c-0.5,2.8-1.7,5.4-2.5,8.1c-2.6,9.2,0.7,19.3,6.8,26.6
				c6.2,7.3,14.9,11.9,23.9,15c42.8,14.5,89.4-4.5,134.6-2.3c14.2,0.7,28.9,3.5,42.5-0.8c6.9-2.2,13.3-6.3,17.1-12.3
				c5.5-8.7,4.8-19.9,8-29.7c7.1-21.5,30.8-31.9,51.9-39.8c34.1-12.8,68.2-25.6,102.3-38.4c8.6-3.2,17.6-6.7,23.8-13.6
				c12.3-13.7,8.4-36.5-3.9-50.1c-12.4-13.6-30.8-19.7-48.8-23.7c-29-6.5-60.2-8.5-87.8,2.7c-11.9,4.9-23,12.1-35.6,14.5
				c-6.4,1.2-12.9,1.1-19.4,0.3c-0.2,0.3-0.3,0.7-0.5,1c-3.6,6.5-9.6,12-15.8,15.8C193.6,216.6,167.3,229.8,153.9,235.6z"/>
		</g>
		<g>
			<path style="fill:none;stroke:#FFFFFF;stroke-width:0.1612;stroke-miterlimit:10;" d="M227.7,302.6c0,0-0.7-2,0.5-1.4
				c1.2,0.6,1.2,0.5,1.2,0.5l1.2-5.3c0,0,1.8,5.4,1.9,6.1c0,0.6,4.4-11.4,4.4-17.7c-0.1-6.4,0,17.5,0,17.5l2.7-2.9
				c0,0,0.6,1.3,1.1,2.9c0.6,1.8,2.6-7.2,2.5-8.8c-0.1-1.5,0.9,8.3,0.7,9.3c-0.2,1,5.9-5.1,7.2-5.1c1.3,0-5.1,4.6-2.9,5.1"/>
			
				<path style="fill:none;stroke:#FFFFFF;stroke-width:0.1612;stroke-linecap:round;stroke-linejoin:round;stroke-miterlimit:10;" d="
				M227.7,302.6c0,0-0.7-2,0.5-1.4c1.2,0.6,1.2,0.5,1.2,0.5l1.2-5.3c0,0,1.8,5.4,1.9,6.1c0,0.6,4.4-11.4,4.4-17.7
				c-0.1-6.4,0,17.5,0,17.5l2.7-2.9c0,0,0.6,1.3,1.1,2.9c0.6,1.8,2.6-7.2,2.5-8.8c-0.1-1.5,0.9,8.3,0.7,9.3c-0.2,1,5.9-5.1,7.2-5.1
				c1.3,0-5.1,4.6-2.9,5.1"/>
		</g>
		<g>
			<path style="fill:none;stroke:#FFFFFF;stroke-width:0.1612;stroke-miterlimit:10;" d="M366.5,205.6c0,0-0.7-2,0.5-1.4
				c1.2,0.6,1.2,0.5,1.2,0.5l1.2-5.3c0,0,1.8,5.4,1.9,6.1c0,0.6,4.4-11.4,4.4-17.7s0,17.5,0,17.5l2.7-2.9c0,0,0.6,1.3,1.1,2.9
				c0.6,1.8,2.6-7.2,2.5-8.8c-0.1-1.5,0.9,8.3,0.7,9.3c-0.2,1,5.9-5.1,7.2-5.1c1.3,0-5.1,4.6-2.9,5.1"/>
			
				<path style="fill:none;stroke:#FFFFFF;stroke-width:0.1612;stroke-linecap:round;stroke-linejoin:round;stroke-miterlimit:10;" d="
				M366.5,205.6c0,0-0.7-2,0.5-1.4c1.2,0.6,1.2,0.5,1.2,0.5l1.2-5.3c0,0,1.8,5.4,1.9,6.1c0,0.6,4.4-11.4,4.4-17.7s0,17.5,0,17.5
				l2.7-2.9c0,0,0.6,1.3,1.1,2.9c0.6,1.8,2.6-7.2,2.5-8.8c-0.1-1.5,0.9,8.3,0.7,9.3c-0.2,1,5.9-5.1,7.2-5.1c1.3,0-5.1,4.6-2.9,5.1"
				/>
		</g>
		<g>
			<path style="fill:none;stroke:#FFFFFF;stroke-width:0.1612;stroke-miterlimit:10;" d="M184.1,286.8c0,0-0.7-2,0.5-1.4
				c1.2,0.6,1.2,0.5,1.2,0.5l1.2-5.3c0,0,1.8,5.4,1.9,6.1c0,0.6,4.4-11.4,4.4-17.7c-0.1-6.4,0,17.5,0,17.5l2.7-2.9
				c0,0,0.6,1.3,1.1,2.9c0.6,1.8,2.6-7.2,2.5-8.8c-0.1-1.5,0.9,8.3,0.7,9.3c-0.2,1,5.9-5.1,7.2-5.1c1.3,0-5.1,4.6-2.9,5.1"/>
			
				<path style="fill:none;stroke:#FFFFFF;stroke-width:0.1612;stroke-linecap:round;stroke-linejoin:round;stroke-miterlimit:10;" d="
				M184.1,286.8c0,0-0.7-2,0.5-1.4c1.2,0.6,1.2,0.5,1.2,0.5l1.2-5.3c0,0,1.8,5.4,1.9,6.1c0,0.6,4.4-11.4,4.4-17.7
				c-0.1-6.4,0,17.5,0,17.5l2.7-2.9c0,0,0.6,1.3,1.1,2.9c0.6,1.8,2.6-7.2,2.5-8.8c-0.1-1.5,0.9,8.3,0.7,9.3c-0.2,1,5.9-5.1,7.2-5.1
				c1.3,0-5.1,4.6-2.9,5.1"/>
		</g>
		<g>
			<path style="fill:none;stroke:#FFFFFF;stroke-width:0.1612;stroke-miterlimit:10;" d="M49.5,292.8c0,0-0.5-1.3,0.3-0.9
				c0.7,0.4,0.7,0.3,0.7,0.3l0.8-3.4c0,0,1.2,3.5,1.2,3.9c0,0.4,2.9-7.3,2.8-11.4c-0.1-4.1,0,11.2,0,11.2l1.7-1.9
				c0,0,0.4,0.8,0.7,1.9c0.4,1.2,1.6-4.6,1.6-5.6c0-1,0.6,5.3,0.5,6c-0.1,0.7,3.8-3.2,4.6-3.3c0.8,0-3.2,3-1.8,3.3"/>
			
				<path style="fill:none;stroke:#FFFFFF;stroke-width:0.1612;stroke-linecap:round;stroke-linejoin:round;stroke-miterlimit:10;" d="
				M49.5,292.8c0,0-0.5-1.3,0.3-0.9c0.7,0.4,0.7,0.3,0.7,0.3l0.8-3.4c0,0,1.2,3.5,1.2,3.9c0,0.4,2.9-7.3,2.8-11.4
				c-0.1-4.1,0,11.2,0,11.2l1.7-1.9c0,0,0.4,0.8,0.7,1.9c0.4,1.2,1.6-4.6,1.6-5.6c0-1,0.6,5.3,0.5,6c-0.1,0.7,3.8-3.2,4.6-3.3
				c0.8,0-3.2,3-1.8,3.3"/>
		</g>
		<g>
			<path style="fill:none;stroke:#FFFFFF;stroke-width:0.1612;stroke-miterlimit:10;" d="M209.2,253.1c0,0-0.5-1.3,0.3-0.9
				c0.7,0.4,0.7,0.3,0.7,0.3l0.8-3.4c0,0,1.2,3.5,1.2,3.9c0,0.4,2.9-7.3,2.8-11.4s0,11.2,0,11.2l1.7-1.9c0,0,0.4,0.8,0.7,1.9
				c0.4,1.2,1.6-4.6,1.6-5.6c0-1,0.6,5.3,0.5,6c-0.1,0.7,3.8-3.2,4.6-3.3c0.8,0-3.2,3-1.8,3.3"/>
			
				<path style="fill:none;stroke:#FFFFFF;stroke-width:0.1612;stroke-linecap:round;stroke-linejoin:round;stroke-miterlimit:10;" d="
				M209.2,253.1c0,0-0.5-1.3,0.3-0.9c0.7,0.4,0.7,0.3,0.7,0.3l0.8-3.4c0,0,1.2,3.5,1.2,3.9c0,0.4,2.9-7.3,2.8-11.4s0,11.2,0,11.2
				l1.7-1.9c0,0,0.4,0.8,0.7,1.9c0.4,1.2,1.6-4.6,1.6-5.6c0-1,0.6,5.3,0.5,6c-0.1,0.7,3.8-3.2,4.6-3.3c0.8,0-3.2,3-1.8,3.3"/>
		</g>
		<g>
			<path style="fill:none;stroke:#FFFFFF;stroke-width:0.1612;stroke-miterlimit:10;" d="M351.3,251.8c0,0-0.5-1.3,0.3-0.9
				c0.7,0.4,0.7,0.3,0.7,0.3l0.8-3.4c0,0,1.2,3.5,1.2,3.9c0,0.4,2.9-7.3,2.8-11.4c-0.1-4.1,0,11.2,0,11.2l1.7-1.9
				c0,0,0.4,0.8,0.7,1.9c0.4,1.2,1.6-4.6,1.6-5.6c0-1,0.6,5.3,0.5,6c-0.1,0.7,3.8-3.2,4.6-3.3c0.8,0-3.2,3-1.8,3.3"/>
			
				<path style="fill:none;stroke:#FFFFFF;stroke-width:0.1612;stroke-linecap:round;stroke-linejoin:round;stroke-miterlimit:10;" d="
				M351.3,251.8c0,0-0.5-1.3,0.3-0.9c0.7,0.4,0.7,0.3,0.7,0.3l0.8-3.4c0,0,1.2,3.5,1.2,3.9c0,0.4,2.9-7.3,2.8-11.4
				c-0.1-4.1,0,11.2,0,11.2l1.7-1.9c0,0,0.4,0.8,0.7,1.9c0.4,1.2,1.6-4.6,1.6-5.6c0-1,0.6,5.3,0.5,6c-0.1,0.7,3.8-3.2,4.6-3.3
				c0.8,0-3.2,3-1.8,3.3"/>
		</g>
		<g>
			<path style="fill:none;stroke:#FFFFFF;stroke-width:0.1612;stroke-miterlimit:10;" d="M185.6,347.2c0,0-0.5-1.3,0.3-0.9
				c0.7,0.4,0.7,0.3,0.7,0.3l0.8-3.4c0,0,1.2,3.5,1.2,3.9c0,0.4,2.9-7.3,2.8-11.4s0,11.2,0,11.2l1.7-1.9c0,0,0.4,0.8,0.7,1.9
				c0.4,1.2,1.6-4.6,1.6-5.6c0-1,0.6,5.3,0.5,6c-0.1,0.7,3.8-3.2,4.6-3.3c0.8,0-3.2,3-1.8,3.3"/>
			
				<path style="fill:none;stroke:#FFFFFF;stroke-width:0.1612;stroke-linecap:round;stroke-linejoin:round;stroke-miterlimit:10;" d="
				M185.6,347.2c0,0-0.5-1.3,0.3-0.9c0.7,0.4,0.7,0.3,0.7,0.3l0.8-3.4c0,0,1.2,3.5,1.2,3.9c0,0.4,2.9-7.3,2.8-11.4s0,11.2,0,11.2
				l1.7-1.9c0,0,0.4,0.8,0.7,1.9c0.4,1.2,1.6-4.6,1.6-5.6c0-1,0.6,5.3,0.5,6c-0.1,0.7,3.8-3.2,4.6-3.3c0.8,0-3.2,3-1.8,3.3"/>
		</g>
		<g>
			<path style="fill:none;stroke:#FFFFFF;stroke-width:0.1612;stroke-miterlimit:10;" d="M49.1,352.4c0,0,0.6-1.7-0.4-1.2
				c-1,0.5-1,0.4-1,0.4l-1-4.5c0,0-1.6,4.6-1.6,5.2c0,0.5-3.8-9.7-3.7-15.2s0,14.9,0,14.9l-2.3-2.5c0,0-0.5,1.1-1,2.5
				c-0.5,1.6-2.2-6.2-2.1-7.5c0-1.3-0.8,7.1-0.6,7.9c0.2,0.9-5.1-4.3-6.2-4.4c-1.1,0,4.3,4,2.5,4.3"/>
			
				<path style="fill:none;stroke:#FFFFFF;stroke-width:0.1612;stroke-linecap:round;stroke-linejoin:round;stroke-miterlimit:10;" d="
				M49.1,352.4c0,0,0.6-1.7-0.4-1.2c-1,0.5-1,0.4-1,0.4l-1-4.5c0,0-1.6,4.6-1.6,5.2c0,0.5-3.8-9.7-3.7-15.2s0,14.9,0,14.9l-2.3-2.5
				c0,0-0.5,1.1-1,2.5c-0.5,1.6-2.2-6.2-2.1-7.5c0-1.3-0.8,7.1-0.6,7.9c0.2,0.9-5.1-4.3-6.2-4.4c-1.1,0,4.3,4,2.5,4.3"/>
		</g>
		<g>
			<path style="fill:none;stroke:#FFFFFF;stroke-width:0.1612;stroke-miterlimit:10;" d="M129.6,381.5c0,0,0.6-1.7-0.4-1.2
				c-1,0.5-1,0.4-1,0.4l-1-4.5c0,0-1.6,4.6-1.6,5.2c0,0.5-3.8-9.7-3.7-15.2c0.1-5.4,0,14.9,0,14.9l-2.3-2.5c0,0-0.5,1.1-1,2.5
				c-0.5,1.6-2.2-6.2-2.1-7.5c0-1.3-0.8,7.1-0.6,7.9c0.2,0.9-5.1-4.3-6.2-4.4c-1.1,0,4.3,4,2.5,4.3"/>
			
				<path style="fill:none;stroke:#FFFFFF;stroke-width:0.1612;stroke-linecap:round;stroke-linejoin:round;stroke-miterlimit:10;" d="
				M129.6,381.5c0,0,0.6-1.7-0.4-1.2c-1,0.5-1,0.4-1,0.4l-1-4.5c0,0-1.6,4.6-1.6,5.2c0,0.5-3.8-9.7-3.7-15.2c0.1-5.4,0,14.9,0,14.9
				l-2.3-2.5c0,0-0.5,1.1-1,2.5c-0.5,1.6-2.2-6.2-2.1-7.5c0-1.3-0.8,7.1-0.6,7.9c0.2,0.9-5.1-4.3-6.2-4.4c-1.1,0,4.3,4,2.5,4.3"/>
		</g>
		<g>
			<path style="fill:none;stroke:#FFFFFF;stroke-width:0.1612;stroke-miterlimit:10;" d="M394.8,239.7c0,0,0.6-1.7-0.4-1.2
				c-1,0.5-1,0.4-1,0.4l-1-4.5c0,0-1.6,4.6-1.6,5.2c0,0.5-3.8-9.7-3.7-15.2s0,14.9,0,14.9l-2.3-2.5c0,0-0.5,1.1-1,2.5
				c-0.5,1.6-2.2-6.2-2.1-7.5c0-1.3-0.8,7.1-0.6,7.9c0.2,0.9-5.1-4.3-6.2-4.4c-1.1,0,4.3,4,2.5,4.3"/>
			
				<path style="fill:none;stroke:#FFFFFF;stroke-width:0.1612;stroke-linecap:round;stroke-linejoin:round;stroke-miterlimit:10;" d="
				M394.8,239.7c0,0,0.6-1.7-0.4-1.2c-1,0.5-1,0.4-1,0.4l-1-4.5c0,0-1.6,4.6-1.6,5.2c0,0.5-3.8-9.7-3.7-15.2s0,14.9,0,14.9l-2.3-2.5
				c0,0-0.5,1.1-1,2.5c-0.5,1.6-2.2-6.2-2.1-7.5c0-1.3-0.8,7.1-0.6,7.9c0.2,0.9-5.1-4.3-6.2-4.4c-1.1,0,4.3,4,2.5,4.3"/>
		</g>
	</g>
	<g>
		<defs>
			
				<ellipse id="SVGID_1_" transform="matrix(0.9982 -5.954012e-02 5.954012e-02 0.9982 -11.3756 14.2346)" cx="233.2" cy="198" rx="227.2" ry="191.3"/>
		</defs>
		<clipPath id="SVGID_2_">
			<use xlink:href="#SVGID_1_"  style="overflow:visible;"/>
		</clipPath>
		<g style="clip-path:url(#SVGID_2_);">
			<g>
				<g>
					<g>
						<path style="fill:#FFFFFF;stroke:#000000;stroke-width:0.5;stroke-linejoin:round;stroke-miterlimit:10;" d="M319.7,148.6
							c-6.5-1.9-13.5,0-20.1-1.9c-25.6-7.4-37.2-35.6-40.6-59.5c-1.8-12.3-1.4-24.8-2.6-37.1c-7.6-72.6-34.9-93.8-34.9-93.8
							l-29.5,14.5c0,0,29.8,13.8,44.6,43.3c0.2,0.3,0.4,0.6,0.5,1c4.9,10,8,21.9,7.7,35.5c-0.8,31.5,2.9,54.7,10.7,72.2
							c1.2,3.5,15.2,42.8,43.9,49.4c17.5,4,23.1-1.6,22.2,5C320.6,183.8,348.2,156.8,319.7,148.6z"/>
						<g>
							<g>
								<path style="fill:#FFFFFF;stroke:#000000;stroke-width:0.5;stroke-linejoin:round;stroke-miterlimit:10;" d="M226.4,194.2
									c0,0,0.1-0.1,0.1-0.1c-9.5,12.5-11,17.8-19.3,37.3c-8.7,20.2-18.1,55.8-24.4,61.7c-6.8,6.4-23.4,3.3-27,2.4
									c-0.7-0.2,6.4-10.6,6.4-10.6s-7.1,5.7-12.3,7.6c0,0,10.9-20.2,11.1-20.2c1.8-2.8,3.9-6.9,5.8-13.3
									c0.9-2.9,3.5-10.6,3.5-10.6c1.9-6.1,6.2-30.7,6.6-41.3c0.4-29-2.5-21.4-4.4-31.8c-4.6-27.2-2.7-40.7-2.7-40.7
									s4.2-15.4,27.2-19.3c23-3.9,30.2,16.1,30.2,16.1c-8.4,27.3-6,19.3,1.2,52.2C229.9,188.9,231.5,188.4,226.4,194.2z"/>
								<g>
									<path style="fill:#FFFFFF;stroke:#000000;stroke-width:0.5;stroke-linejoin:round;stroke-miterlimit:10;" d="M190.5,278.6
										c-2-1.1-1.1-0.2-13.7,0.1c-9.4,0.2-16.4-5.2-16.4-5.2"/>
								</g>
							</g>
							<g>
								<path style="fill:#FFFFFF;stroke:#000000;stroke-width:0.5;stroke-linejoin:round;stroke-miterlimit:10;" d="M180.6,151.4
									c-1,8.7-5.5,17-6.9,21.2c-1.7,4.9-3.2,8.4-4.5,11.3c-2.9,6.6-4.5,9.8-3.3,17.9c0,0,3.1,11.9-7.8,10.7
									c-5.4-0.6-6.1-8-9.5-11.6c-6.8,2.1-14.4-0.4-14.5-0.5c0.5,3.3,1.5,9.4-0.2,12.3c-0.6,1-1.5,1.3-1.5,1.4
									c-6.3,1.9-8.9-7.5-11.3-15c-1.7-5.3-10.6-7.4-15-9.4c-7-3.3-14.6-7.5-19.5-13.6c-13.2-16.5,11.3-26.6,23.6-31.7
									C133.7,134.7,159.5,136.3,180.6,151.4z"/>
							</g>
							<g>
								<path style="fill:#FFFFFF;stroke:#000000;stroke-width:0.5;stroke-linejoin:round;stroke-miterlimit:10;" d="M245.5,158.3
									c-4-2.9-3.5-7.8-12.9-19.5c-8.6-10.7,5.4-48.4,7.2-116.7c1-29.7-0.4-61.1-31.1-73.7c-16.4-6.8-16.6-5.9-47.4-0.1
									c-14.3,2.7-51.7-20.9-125.5,1.2c-0.7,0.2-2.3,0.9-3.1,1.1c-10.6,2.8-43.9,4.9-46.1,4.8c-77.2,7.2-70.2-5.6-132-9.7
									c-12.6-0.9-41.7,3.2-45.7,4.7c-18.6,0.7-29.4,4.8-39.3,8.6c-10.8,4-11.8,3.7-20,3.9c-82.8,1.9-84.6-12.4-108.1-12.5
									c-5.1-0.1-7.9,0.5-7.9,0.5c-7.4,1.9-7.2,5.8-24,17.1c-0.1,0.1-2,1.3-2.1,1.4c-4.9,4.2-17,44.8-17.2,45.3
									c-7,15.6-25.1,24.6-34.8,38.1c-0.6,0.8-1.5,2.1-1.5,3.1c-0.2,6.4,3.1,10.4,4.6,12.4c1.1,3.7,6.1,6.5,9.6,8.2
									c0.1,0,2.6,1.2,2.7,1.2c3.3,3.4,7.9,5.6,13.6,5.5c12.2,2.5,16.3-4.4,24.1-4.2c0.2,0,23.2-13.1,43.9-12.8
									c0.4,0,0.9,0,1.3,0.1c13.7,1,26.6,13.5,28.3,14.6c5.5,3.6,15.4,8.1,15.5,8.2c3.8,2.5,8.9,5.6,13.9,5.9
									c10.2,5.1,12.2,9.9,15.8,20.6c4.3,12.8,7.4,21.8,19.3,29.2c12.1,7.5,24.2,15.1,36.3,22.6c6.5,4.1,24.7,10.9,28.3,17.5
									c0.3,0.6,7.4,16.5,9.7,23.7c11.6,17.6,8.5,38.4,4.1,58.3c0,0,0,0.1-0.1,0.2c0,0.1-0.1,0.2-0.1,0.3
									c-5.9,17.6-11.5,35.1-11.4,35.1c5.5-0.2,10.2-7,10.2-7s-5.3,9.6-5.1,9.8c4.7,4.4,22.4,8.7,29.5,0.8c10.9-12,5-38,5-43.3
									c0.1-17.3,7.4-38.8,13.4-59.6c4.9-17,8.2-35,11.1-36.3c17.1-0.5,24.3-11,30.2-9.4c35.1,9.1,52.3,18.3,60.6,21.8
									c12.4,5.1,58.2,6.1,68.9,2.7c27.5-2.2,107.4-44.4,127.5-32.2c0.9,1.3,12.4,29.5,31.9,52.1c23.3,37.5-1.7,99.8-1.6,99.7
									c2.8,0.8,9.8-8,9.8-8s-5.4,12.1-4.8,12.4c10.3,5.3,20.2-2.3,23.7-7.7c4.4-6.7,4.1-23.1,7.1-60.5c-0.4-0.3,5.1-30.9,5.2-31.4
									C239,188.4,253.7,164.7,245.5,158.3z"/>
								<g>
									<path style="fill:none;stroke:#000000;stroke-width:0.5;stroke-linejoin:round;stroke-miterlimit:10;" d="M-68-43
										c1.4,13.5,13.8,22.4,18.2,34.7c7.7,21.4-15.5,28.7-25.8,42.2c-4.1,5.3-6.4,12.5-4.3,18.9C-76.7,62.4-65.7,64-57.3,66
										c11.8,2.8,21.7,8.7,31,16.2c15.9,12.9,30.8,28.6,52.1,31.6c5.9,0.8,12.4,0.5,17.2-3.1c9.2-6.9,7-21.7,17.9-27.2
										c11.4-5.8,26.5,0.7,38.1,2.7c6.9,1.2,14.8,0.3,19.3-4.9c12.7-14.7-10.8-33.6,2-48.7c12-14.2,31.8-18,46.8-27.9
										c4.5-3,9-6.8,10.2-12.1c1.8-7.8-4.1-13.4-6.3-20.2c-2.7-8.4-0.9-17.7,1.7-25.9"/>
									<path style="fill:none;stroke:#000000;stroke-width:0.5;stroke-linejoin:round;stroke-miterlimit:10;" d="M208.3-51.4
										c0.8,16.1-0.9,32.4-6.4,47.6c-5.4,14.8-14.7,25-24.3,37.1c-1.6,2-3.2,4.2-4,6.6c-4,12.9,16.1,13.2,18.9,23.1
										c1,3.6-0.5,7.4-2.7,10.4c-3.7,5.1-12.4,11-10.6,18.4c0.8,3.1,3.6,5.4,6.7,6.3c5.2,1.6,11.5,0.8,17,0.9
										c11.3,0.2,19.6,0.4,29.1,7.6"/>
								</g>
							</g>
							<g>
								<path style="fill:#FFFFFF;stroke:#000000;stroke-width:0.5;stroke-linejoin:round;stroke-miterlimit:10;" d="M228.3,280.7
									c-11.9,3.5-17.9,7-26.8,0.9"/>
							</g>
						</g>
					</g>
				</g>
				<path style="fill:#FFFFFF;stroke:#000000;stroke-width:0.5;stroke-linejoin:round;stroke-miterlimit:10;" d="M158.4,119.3
					c0,0,1.8,21.3,7.4,32.1"/>
			</g>
			<g id="wave-05">
				<path style="fill:#0096CF;" d="M267.6,276.7c-0.4-0.1-0.9-0.2-1.2-0.6c-0.8-0.8-0.8-2.1,0-2.9c19.3-19.2,19.4-50.6,0.1-69.9
					c-0.8-0.8-0.8-2.1,0-2.9c0.8-0.8,2.1-0.8,2.9,0c20.9,20.9,20.8,54.9-0.1,75.8C268.8,276.5,268.2,276.7,267.6,276.7z"/>
				<path style="fill:#0096CF;" d="M256.4,270.9c-0.4-0.1-0.9-0.2-1.2-0.6c-0.8-0.8-0.8-2.1,0-2.9c16-16,16.1-42,0.1-58
					c-0.8-0.8-0.8-2.1,0-2.9c0.8-0.8,2.1-0.8,2.9,0c17.6,17.6,17.5,46.3-0.1,63.9C257.6,270.7,257,270.9,256.4,270.9z"/>
				<path style="fill:#0096CF;" d="M245.9,264.5c-0.4-0.1-0.9-0.2-1.2-0.6c-0.8-0.8-0.8-2,0-2.8c12.7-12.2,12.7-32.2-0.1-44.6
					c-0.8-0.8-0.8-2.1,0-2.8c0.8-0.8,2.1-0.8,2.9,0c14.4,13.9,14.4,36.5,0.1,50.3C247.2,264.4,246.5,264.5,245.9,264.5z"/>
			</g>
			<path style="fill:#0095CE;stroke:#020202;stroke-width:0.75;stroke-miterlimit:10;" d="M218.5,265.9l-1.4-0.1
				c-4-0.3-7-3.8-6.7-7.8l1.4-17.9c0.3-4,3.8-7,7.8-6.7l1.4,0.1c4,0.3,7,3.8,6.7,7.8l-1.4,17.9C225.9,263.2,222.4,266.2,218.5,265.9
				z"/>
			<polygon style="fill:#E7612E;stroke:#020202;stroke-width:0.75;stroke-miterlimit:10;" points="211.6,240.6 207.1,241.3 
				206,257.1 210.5,256.9 			"/>
			<polygon style="fill:#E7612E;stroke:#020202;stroke-width:0.75;stroke-miterlimit:10;" points="227.6,240.9 230.8,241.3 
				229.3,257.8 226.3,257.4 			"/>
		</g>
	</g>
	<g id="page-second-station-2-screen-02">
		<g>
			<path id="XMLID_2693_" style="opacity:0.8;fill:#EAECF1;" d="M443.5,317.2l-125.9-66.4c-4.1-2.5-6.6-6.9-6.6-11.7l-0.6-134.3
				c0-5.2,5.4-8.5,10-6.1l126,60.8c4.7,2.4,7.6,7.3,7.4,12.6l0.1,139.3C453.7,316.8,448,319.9,443.5,317.2z"/>
		</g>
		<g>
			<path id="XMLID_342_" style="opacity:0.8;fill:#FFFFFF;" d="M432.4,300.8l-106.1-56c-3.5-2.1-5.6-5.8-5.6-9.8l-0.5-96.5
				c0-4.3,4.6-7.2,8.4-5.2l106.2,51.3c4,2,6.4,6.2,6.3,10.6l0.1,100.8C441,300.5,436.2,303.1,432.4,300.8z"/>
		</g>
		<g>
			<path style="fill:#009BD9;" d="M395.6,164.9c0.1,10.5-7.2,15.3-16.2,10.9c-8.9-4.4-16.2-16.3-16.3-26.7c-0.1-10.3,7.1-15.3,16-11
				C388.1,142.5,395.5,154.4,395.6,164.9z"/>
			<path style="fill:none;stroke:#FFFFFF;stroke-width:0.5;stroke-linejoin:round;stroke-miterlimit:10;" d="M378.7,168
				c0.4,0.2,1.1,0.5,1.5,0.6c0.8,0.3,1.8,0.7,2.3,0.2c0,0,0,0,0,0c0.8-0.8,0.5-1.4,0.4-3.2c-0.1-1.6,0.3-1,1.1-2.6
				c0.7-1.4,0.3-3.7,0.3-3.7s2.1,1.5,3.4,1.5c1.4,0,2.8-2,2.7-2.2c-0.2-0.2-0.7-1.2-2.6-2.2c-1.9-0.9-3.1,0.2-3.2-0.4
				c-0.2-1.1-1.2-2.6-1.2-2.6s1-0.6,1.6-1.2c0.6-0.6,0.5-1.3,0.5-1.3s-3.8,0.6-4.4,0c-0.9-0.9-2.3-1.6-2.3-1.6s-1.5-0.7-2.4-0.7
				c-0.6,0-4.4-4.3-4.4-4.3s0,0.6,0.6,1.8c0.6,1.1,1.6,2.7,1.6,2.7s-1,0.6-1.2,1.5c-0.1,0.4-1.3-1.8-3.2-2.8
				c-1.9-0.9-2.4-0.4-2.6-0.3c-0.1,0.1,1.3,3.5,2.7,4.8c1.3,1.2,3.4,1.8,3.4,1.8s-0.4,1.9,0.3,4c0.8,2.3,1.2,2.1,1.1,3.6
				c-0.1,1.7-0.4,2,0.4,3.5c0.5,0.9,1.4,1.5,2.2,2C377.6,167.4,378.4,167.9,378.7,168z"/>
			<g>
				<path d="M354.4,179.8l-0.1-10.7l-1.6,1.3l-0.5-0.9l2.3-1.7l0.8,0.4l0.1,12.1L354.4,179.8z"/>
				<path d="M358.6,181.9l0-0.9c3.5-1.6,5.9-2.8,5.9-5.1c0-1.8-1.3-3.1-2.4-3.7c-1.3-0.6-2.3-0.5-2.8,0.2l-0.6-1
					c0.7-0.8,2-0.9,3.4-0.2c1.5,0.8,3.3,2.6,3.3,5c0,2.7-2.4,3.9-5.4,5.3l5.5,2.7l0,0.9L358.6,181.9z"/>
				<path d="M372.2,188.7l0-3.3l-5-2.5l0-0.9l4.6-5.6l1.2,0.6l0.1,7.9l1.5,0.8l0,1l-1.5-0.8l0,3.3L372.2,188.7z M372.1,177.5l-4,4.9
					l4,2L372.1,177.5z"/>
				<path d="M379.6,192.3l-0.1-10.8l-1.7,1.3l-0.6-1l2.3-1.7l0.8,0.4l0.1,12.2L379.6,192.3z"/>
				<path style="fill:#B5B5B5;" d="M386.3,199.3c-1.4-3.1-2.1-6.2-2.2-9.2c0-3,0.7-5.4,2.1-7.1l0.5,0.6c-1,1.9-1.6,3.7-1.6,6.9
					c0,3.2,0.7,5.7,1.7,8.5L386.3,199.3z"/>
				<path style="fill:#B5B5B5;" d="M391.3,198.2l-0.1-10.8l-1.7,1.3l-0.6-1l2.3-1.7l0.8,0.4l0.1,12.3L391.3,198.2z"/>
				<path style="fill:#B5B5B5;" d="M400.2,202.6l-0.1-10.9l-1.7,1.3l-0.6-1l2.3-1.7l0.8,0.4l0.1,12.3L400.2,202.6z"/>
				<path style="fill:#B5B5B5;" d="M404.1,207.8c1-1.9,1.7-3.7,1.6-6.9c0-3.2-0.7-5.7-1.8-8.6l0.5-0.2c1.4,3.1,2.2,6.3,2.2,9.2
					c0,3-0.7,5.4-2.1,7.1L404.1,207.8z"/>
				<polygon style="fill:#D7D7D7;" points="441.2,269.2 320.3,208 320.1,180.6 441,240.7 				"/>
				
					<line style="fill:none;stroke:#009BD9;stroke-width:2;stroke-linecap:round;stroke-miterlimit:10;" x1="353.8" y1="189.5" x2="404.2" y2="214.7"/>
				
					<line style="fill:none;stroke:#B5B5B5;stroke-width:2;stroke-linecap:round;stroke-miterlimit:10;" x1="345.3" y1="211.6" x2="371.2" y2="224.8"/>
				
					<line style="fill:none;stroke:#B5B5B5;stroke-width:2;stroke-linecap:round;stroke-miterlimit:10;" x1="345.2" y1="204.8" x2="362.3" y2="213.5"/>
				
					<line style="fill:none;stroke:#B5B5B5;stroke-width:2;stroke-linecap:round;stroke-miterlimit:10;" x1="374.8" y1="254.2" x2="401.2" y2="267.9"/>
				
					<line style="fill:none;stroke:#B5B5B5;stroke-width:2;stroke-linecap:round;stroke-miterlimit:10;" x1="374.7" y1="247.4" x2="392.1" y2="256.4"/>
				
					<line style="fill:none;stroke:#B5B5B5;stroke-width:2;stroke-linecap:round;stroke-miterlimit:10;" x1="403.5" y1="241.2" x2="430.5" y2="255"/>
				
					<line style="fill:none;stroke:#B5B5B5;stroke-width:2;stroke-linecap:round;stroke-miterlimit:10;" x1="403.5" y1="234.4" x2="421.2" y2="243.4"/>
				<path style="fill:#B5B5B5;" d="M341.8,204.1c0,4.4-3,6.4-6.7,4.5c-3.7-1.9-6.8-7-6.8-11.4c0-4.4,3-6.4,6.7-4.6
					C338.7,194.6,341.7,199.7,341.8,204.1z"/>
				<path style="fill:#B5B5B5;" d="M369.8,247.1c0,4.5-3,6.5-6.9,4.5c-3.8-2-6.9-7.2-6.9-11.6c0-4.4,3-6.5,6.8-4.5
					C366.6,237.4,369.8,242.6,369.8,247.1z"/>
				<path style="fill:#B5B5B5;" d="M398.8,233c0,4.5-3.1,6.5-7,4.6c-3.9-2-7-7.2-7.1-11.7c0-4.5,3.1-6.5,7-4.6
					C395.6,223.3,398.8,228.5,398.8,233z"/>
			</g>
		</g>
	</g>
</g>
</svg>
