<svg id="Layer_1" data-name="Layer 1" xmlns="http://www.w3.org/2000/svg" xmlns:xlink="http://www.w3.org/1999/xlink" width="528.12" height="270.77" viewBox="0 0 528.12 270.77"><defs><clipPath id="clip-path"><rect x="-749.55" y="-1139.21" width="1256.29" height="3501.14" style="fill:none"/></clipPath><clipPath id="clip-path-2"><rect x="-749.55" y="-1139.22" width="1256.29" height="3501.14" style="fill:none"/></clipPath><clipPath id="clip-path-3"><path d="M118.54,56.5l9.6-1.1c-.31-2.28-2.07-16.7-2.46-18.93L117.12,36c.67,3.48,1.08,16.64,1.42,20.46" style="fill:none"/></clipPath><clipPath id="clip-path-4"><path d="M119,69.12c-1.4,17.76-8.56,39.81-14.45,49.91l-.07.11q0,.31,0,.61a.09.09,0,0,0,0,.07l.1.12a.1.1,0,0,0,.09,0H105l1.23,0,1,0,.75,0,.6,0,1,0,.64,0,.95,0c.26,0,.52,0,.78,0l.23-.34a8.27,8.27,0,0,0,.45-.72c7.55-11.85,13.46-29.18,15-50.65Z" style="fill:none"/></clipPath></defs><title>collar-mob-image-03</title><g style="clip-path:url(#clip-path)"><g style="clip-path:url(#clip-path-2)"><path d="M498.47,152.62c-4-1.16-8.42,0-12.56-1.2-16-4.64-23.16-22.19-25.33-37.1-1.12-7.65-.85-15.44-1.64-23.11-4.71-45.27-21.75-58.48-21.75-58.48l-18.41,9s18.57,8.63,27.81,27a4.24,4.24,0,0,1,.3.6,47.24,47.24,0,0,1,4.79,22.15c-.49,19.62,1.82,34.07,6.68,45,.74,2.16,9.5,26.7,27.39,30.81,10.9,2.5,14.38-1,13.83,3.14s16.63-12.72-1.1-17.81" style="fill:#fff"/><path d="M498.47,152.62c-4-1.16-8.42,0-12.56-1.2-16-4.64-23.16-22.19-25.33-37.1-1.12-7.65-.85-15.44-1.64-23.11-4.71-45.27-21.75-58.48-21.75-58.48l-18.41,9s18.57,8.63,27.81,27a4.24,4.24,0,0,1,.3.6,47.24,47.24,0,0,1,4.79,22.15c-.49,19.62,1.82,34.07,6.68,45,.74,2.16,9.5,26.7,27.39,30.81,10.9,2.5,14.38-1,13.83,3.14S516.2,157.71,498.47,152.62Z" style="fill:none;stroke:#000;stroke-linejoin:round;stroke-width:0.4350000023841858px"/><path d="M440.33,181l.08-.06c-5.9,7.79-6.85,11.12-12,23.22C423,216.8,417.12,239,413.23,242.65c-4.23,4-14.58,2-16.82,1.51-.45-.1,4-6.61,4-6.61s-4.4,3.54-7.65,4.74c0,0,6.82-12.59,6.93-12.61a30.66,30.66,0,0,0,3.61-8.26c.58-1.82,2.2-6.58,2.2-6.6,1.19-3.82,3.87-19.11,4.11-25.76.24-18.06-1.53-13.31-2.75-19.82-2.87-17-1.69-25.39-1.69-25.39s2.64-9.6,17-12A16.6,16.6,0,0,1,441,141.88c-5.26,17-3.74,12,.74,32.51.75,3.37,1.76,3-1.41,6.65" style="fill:#fff"/><path d="M440.33,181l.08-.06c-5.9,7.79-6.85,11.12-12,23.22C423,216.8,417.12,239,413.23,242.65c-4.23,4-14.58,2-16.82,1.51-.45-.1,4-6.61,4-6.61s-4.4,3.54-7.65,4.74c0,0,6.82-12.59,6.93-12.61a30.66,30.66,0,0,0,3.61-8.26c.58-1.82,2.2-6.58,2.2-6.6,1.19-3.82,3.87-19.11,4.11-25.76.24-18.06-1.53-13.31-2.75-19.82-2.87-17-1.69-25.39-1.69-25.39s2.64-9.6,17-12A16.6,16.6,0,0,1,441,141.88c-5.26,17-3.74,12,.74,32.51C442.49,177.76,443.5,177.42,440.33,181Z" style="fill:none;stroke:#000;stroke-linejoin:round;stroke-width:0.4350000023841858px"/><path d="M417.9,233.62c-1.23-.71-.67-.15-8.52,0a17.77,17.77,0,0,1-10.24-3.22" style="fill:#fff"/><path d="M417.9,233.62c-1.23-.71-.67-.15-8.52,0a17.77,17.77,0,0,1-10.24-3.22" style="fill:none;stroke:#000;stroke-linejoin:round;stroke-width:0.4350000023841858px"/><path d="M209.1,176.14l.08-.06c-5.9,7.79-6.85,11.12-12,23.22-4,9.33-6.59,19.24-9.92,28.81-1.28,3.67-2.4,8.07-5.1,11-3.83,4.15-11.61,2.54-16.87-.3-.23-.12,3.18-5.26,3.18-5.26s-3,3.72-6.51,3.68c0,0,6.43-12.43,6.53-12.45a30.7,30.7,0,0,0,3.61-8.26c.58-1.82,2.2-6.58,2.2-6.6,1.18-3.82,3.87-19.11,4.11-25.76.24-18.06-1.53-13.32-2.74-19.82-2.87-17-1.69-25.39-1.69-25.39s2.64-9.6,17-12A16.6,16.6,0,0,1,209.77,137c-5.25,17.07-3.75,12,.74,32.51.75,3.37,1.76,3-1.41,6.65" style="fill:#fff"/><path d="M209.1,176.14l.08-.06c-5.9,7.79-6.85,11.12-12,23.22-4,9.33-6.59,19.24-9.92,28.81-1.28,3.67-2.4,8.07-5.1,11-3.83,4.15-11.61,2.54-16.87-.3-.23-.12,3.18-5.26,3.18-5.26s-3,3.72-6.51,3.68c0,0,6.43-12.43,6.53-12.45a30.7,30.7,0,0,0,3.61-8.26c.58-1.82,2.2-6.58,2.2-6.6,1.18-3.82,3.87-19.11,4.11-25.76.24-18.06-1.53-13.32-2.74-19.82-2.87-17-1.69-25.39-1.69-25.39s2.64-9.6,17-12A16.6,16.6,0,0,1,209.77,137c-5.25,17.07-3.75,12,.74,32.51C211.25,172.87,212.27,172.53,209.1,176.14Z" style="fill:none;stroke:#000;stroke-linejoin:round;stroke-width:0.4350000023841858px"/><path d="M187,228.78a56.32,56.32,0,0,1-8.23-.67,15.38,15.38,0,0,1-9.22-4.85" style="fill:#fff"/><path d="M187,228.78a56.32,56.32,0,0,1-8.23-.67,15.38,15.38,0,0,1-9.22-4.85" style="fill:none;stroke:#000;stroke-linejoin:round;stroke-width:0.4350000023841858px"/><path d="M100.91,35.52l.33,0a28.08,28.08,0,0,0-.83-8.92c-1.3-4.14-4.19-4.64-6.9-3.11s-3.4,2.94-8.86,4.77a29,29,0,0,0-3.52,1.3" style="fill:#fff"/><path d="M100.91,35.52l.33,0a28.08,28.08,0,0,0-.83-8.92c-1.3-4.14-4.19-4.64-6.9-3.11s-3.4,2.94-8.86,4.77a29,29,0,0,0-3.52,1.3" style="fill:none;stroke:#000;stroke-linejoin:round;stroke-width:0.4350000023841858px"/><path d="M411.76,154.34c-.62,5.45-3.44,10.57-4.3,13.22-1,3-2,5.26-2.78,7.06-1.83,4.13-2.83,6.11-2.06,11.13,0,0,1.95,7.4-4.88,6.68-3.38-.36-3.83-5-5.92-7.25-4.25,1.34-9-.26-9.05-.28.34,2,.94,5.88-.14,7.64a2.14,2.14,0,0,1-.94.86c-3.94,1.19-5.52-4.67-7.06-9.33-1.08-3.28-6.63-4.59-9.36-5.85-4.39-2-9.1-4.67-12.18-8.51-8.23-10.27,7-16.59,14.73-19.73,14.74-6,30.81-5,43.95,4.35" style="fill:#fff"/><path d="M411.76,154.34c-.62,5.45-3.44,10.57-4.3,13.22-1,3-2,5.26-2.78,7.06-1.83,4.13-2.83,6.11-2.06,11.13,0,0,1.95,7.4-4.88,6.68-3.38-.36-3.83-5-5.92-7.25-4.25,1.34-9-.26-9.05-.28.34,2,.94,5.88-.14,7.64a2.14,2.14,0,0,1-.94.86c-3.94,1.19-5.52-4.67-7.06-9.33-1.08-3.28-6.63-4.59-9.36-5.85-4.39-2-9.1-4.67-12.18-8.51-8.23-10.27,7-16.59,14.73-19.73C382.55,144,398.62,145,411.76,154.34Z" style="fill:none;stroke:#000;stroke-linejoin:round;stroke-width:0.4350000023841858px"/><path d="M449.72,195.75c-.05.31-1.62,12-1.39,12.16-1.87,23.28-3.72,35.46-6.47,39.65-2.19,3.34-11.4,6.53-17.84,3.23-.43-.22,3-7.74,3-7.74s-4.35,5.49-6.09,5c0,0,15.55-38.76,1-62.16-12.15-14.08-19.28-31.64-19.86-32.48-12.58-7.58-62.33,18.73-79.5,20.09-6.63,2.09-35.21,1.47-42.92-1.7-5.22-2.15-15.89-7.87-37.79-13.56-3.68-1-8.19,5.54-18.83,5.86-1.84.85-3.88,12.05-6.93,22.65-3.71,12.91-8.31,26.34-8.35,37.13,0,3.29,3.61,19.49-3.15,27-4.42,4.91-15.49,2.26-18.41-.5-.12-.11,3.18-6.1,3.18-6.1s-2.93,4.26-6.34,4.38c-.05,0,3.43-10.91,7.12-21.87a1.36,1.36,0,0,0,.07-.21.43.43,0,0,0,0-.12C193,214,194.9,201,187.69,190.07c-1.44-4.47-5.88-14.4-6.08-14.76-2.28-4.12-13.59-8.41-17.64-10.93l-22.62-14.1c-7.42-4.62-9.35-10.28-12-18.23-2.21-6.72-3.49-9.68-9.84-12.87-3.14-.21-6.27-2.1-8.66-3.69a105,105,0,0,1-9.65-5.08c-1.05-.64-9.07-8.44-17.63-9.08-.28,0-.55,0-.83,0-12.93-.22-27.25,8-27.37,8-4.84-.1-7.42,4.2-15,2.63a11,11,0,0,1-8.49-3.42c-.07,0-1.64-.7-1.71-.73-2.2-1-5.29-2.77-6-5.09a11.61,11.61,0,0,1-2.9-7.75,4.21,4.21,0,0,1,1-1.94c6.07-8.41,17.35-14,21.7-23.73C44,68.92,51.58,43.64,54.62,41c.07-.06,1.21-.81,1.29-.87,10.48-7.09,10.32-9.46,15-10.67a19.56,19.56,0,0,1,4.89-.33c14.66,0,15.77,8.94,67.39,7.78,5.11-.14,5.73.07,12.44-2.43,6.17-2.33,12.91-4.89,24.48-5.34,2.49-.92,20.59-3.45,28.46-2.92,38.56,2.56,34.18,10.56,82.29,6,1.4,0,22.16-1.28,28.75-3,.51-.12,1.51-.58,1.94-.7,46-13.8,69.32.93,78.25-.76,19.16-3.6,19.34-4.18,29.54.08,19.17,7.88,20,27.41,19.4,45.94-1.15,42.52-9.84,66.06-4.51,72.71,5.88,7.26,8.44,13.65,10.9,15.44,5.14,4-3.69,22.47-5.36,33.77" style="fill:#fff"/><path d="M449.72,195.75c-.05.31-1.62,12-1.39,12.16-1.87,23.28-3.72,35.46-6.47,39.65-2.19,3.34-11.4,6.53-17.84,3.23-.43-.22,3-7.74,3-7.74s-4.35,5.49-6.09,5c0,0,15.55-38.76,1-62.16-12.15-14.08-19.28-31.64-19.86-32.48-12.58-7.58-62.33,18.73-79.5,20.09-6.63,2.09-35.21,1.47-42.92-1.7-5.22-2.15-15.89-7.87-37.79-13.56-3.68-1-8.19,5.54-18.83,5.86-1.84.85-3.88,12.05-6.93,22.65-3.71,12.91-8.31,26.34-8.35,37.13,0,3.29,3.61,19.49-3.15,27-4.42,4.91-15.49,2.26-18.41-.5-.12-.11,3.18-6.1,3.18-6.1s-2.93,4.26-6.34,4.38c-.05,0,3.43-10.91,7.12-21.87a1.36,1.36,0,0,0,.07-.21.43.43,0,0,0,0-.12C193,214,194.9,201,187.69,190.07c-1.44-4.47-5.88-14.4-6.08-14.76-2.28-4.12-13.59-8.41-17.64-10.93l-22.62-14.1c-7.42-4.62-9.35-10.28-12-18.23-2.21-6.72-3.49-9.68-9.84-12.87-3.14-.21-6.27-2.1-8.66-3.69a105,105,0,0,1-9.65-5.08c-1.05-.64-9.07-8.44-17.63-9.08-.28,0-.55,0-.83,0-12.93-.22-27.25,8-27.37,8-4.84-.1-7.42,4.2-15,2.63a11,11,0,0,1-8.49-3.42c-.07,0-1.64-.7-1.71-.73-2.2-1-5.29-2.77-6-5.09a11.61,11.61,0,0,1-2.9-7.75,4.21,4.21,0,0,1,1-1.94c6.07-8.41,17.35-14,21.7-23.73C44,68.92,51.58,43.64,54.62,41c.07-.06,1.21-.81,1.29-.87,10.48-7.09,10.32-9.46,15-10.67a19.56,19.56,0,0,1,4.89-.33c14.66,0,15.77,8.94,67.39,7.78,5.11-.14,5.73.07,12.44-2.43,6.17-2.33,12.91-4.89,24.48-5.34,2.49-.92,20.59-3.45,28.46-2.92,38.56,2.56,34.18,10.56,82.29,6,1.4,0,22.16-1.28,28.75-3,.51-.12,1.51-.58,1.94-.7,46-13.8,69.32.93,78.25-.76,19.16-3.6,19.34-4.18,29.54.08,19.17,7.88,20,27.41,19.4,45.94-1.15,42.52-9.84,66.06-4.51,72.71,5.88,7.26,8.44,13.65,10.9,15.44C460.22,165.95,451.39,184.44,449.72,195.75Z" style="fill:none;stroke:#000;stroke-linejoin:round;stroke-width:0.4350000023841858px"/><path d="M217.91,122c-1-6.7,3.34-12.33,4.26-19.3,1.33-10.13-10.71-17-19.57-15.89-5.39.65-10.54,4.73-11.27,10.11s2.86,10.58,2.65,16c-.14,3.86-2.17,7.43-2.54,11.27-.72,7.51,6,10.77,7.36,17.41,1.7,8.42,5.27,19,13.55,7.12l7.8-11.21a9.43,9.43,0,0,0,1.77-3.51c.52-2.76-1.44-5.29-2.67-7.82a14.44,14.44,0,0,1-1.33-4.21" style="fill:#fff"/><path d="M217.91,122c-1-6.7,3.34-12.33,4.26-19.3,1.33-10.13-10.71-17-19.57-15.89-5.39.65-10.54,4.73-11.27,10.11s2.86,10.58,2.65,16c-.14,3.86-2.17,7.43-2.54,11.27-.72,7.51,6,10.77,7.36,17.41,1.7,8.42,5.27,19,13.55,7.12l7.8-11.21a9.43,9.43,0,0,0,1.77-3.51c.52-2.76-1.44-5.29-2.67-7.82A14.44,14.44,0,0,1,217.91,122Z" style="fill:none;stroke:#000;stroke-linejoin:round;stroke-width:0.4350000023841858px"/><path d="M256.79,33.21c.88,8.42,8.6,14,11.36,21.64,4.81,13.34-9.66,17.86-16.08,26.29-2.54,3.33-4,7.79-2.65,11.76,2,6,8.82,7,14,8.26,7.33,1.74,13.51,5.42,19.35,10.13,9.93,8,19.22,17.82,32.49,19.73,3.68.53,7.72.29,10.7-1.94,5.76-4.33,4.39-13.55,11.13-17,7.09-3.61,16.51.47,23.73,1.71,4.28.74,9.22.21,12.06-3.08,7.93-9.18-6.74-20.95,1.22-30.35C381.61,71.54,394,69.18,403.29,63c2.8-1.86,5.6-4.25,6.34-7.53,1.09-4.84-2.56-8.35-3.91-12.62-1.66-5.23-.56-11,1-16.11" style="fill:none;stroke:#000;stroke-linejoin:round;stroke-width:0.4350000023841858px"/><path d="M429,27.94c.48,10-.53,20.21-4,29.66-3.39,9.2-9.13,15.6-15.17,23.11a12.92,12.92,0,0,0-2.47,4.14c-2.49,8.06,10,8.2,11.76,14.39.64,2.23-.32,4.64-1.68,6.51-2.32,3.17-7.72,6.87-6.6,11.47a5.93,5.93,0,0,0,4.15,3.94c3.27,1,7.19.48,10.58.53,7,.11,12.2.25,18.15,4.72" style="fill:none;stroke:#000;stroke-linejoin:round;stroke-width:0.4350000023841858px"/><path d="M83.5,40.48c4.63-5.81,4-5.6,9.72-5.65s10.1,0,13.15-.62,2.4-.41,2.34,3.94-2.71,12-5.58,15.31-8.73,3.64-12.86,3.37a24.94,24.94,0,0,1-7.48-1.71s-3.92-8.84.71-14.65" style="fill:#fff"/><path d="M83.5,40.48c4.63-5.81,4-5.6,9.72-5.65s10.1,0,13.15-.62,2.4-.41,2.34,3.94-2.71,12-5.58,15.31-8.73,3.64-12.86,3.37a24.94,24.94,0,0,1-7.48-1.71S78.87,46.29,83.5,40.48Z" style="fill:none;stroke:#000;stroke-linejoin:round;stroke-width:0.4350000023841858px"/><path d="M100.76,42.56c.87-6.14-8.32-.54-10,.37s-4.25,2.62-4.32,4.9a46.1,46.1,0,0,0,.45,5.29s6.18.08,8.69-1.67a13.9,13.9,0,0,0,5.2-8.89" style="fill:#fff"/><path d="M100.76,42.56c.87-6.14-8.32-.54-10,.37s-4.25,2.62-4.32,4.9a46.1,46.1,0,0,0,.45,5.29s6.18.08,8.69-1.67A13.9,13.9,0,0,0,100.76,42.56Z" style="fill:none;stroke:#000;stroke-linejoin:round;stroke-width:0.4350000023841858px"/><path d="M57.29,62.22c-1.76,2.11-1.14,4.17-1.85,5.77-.3.68,3-.3,3.49-.37,4.1-.59,5.76-4,5.53-5.8-.13-1.08-5.17-2-7.18.4" style="fill:#fff"/><path d="M57.29,62.22c-1.76,2.11-1.14,4.17-1.85,5.77-.3.68,3-.3,3.49-.37,4.1-.59,5.76-4,5.53-5.8C64.33,60.74,59.3,59.81,57.29,62.22Z" style="fill:none;stroke:#000;stroke-linejoin:round;stroke-width:0.4350000023841858px"/><path d="M208.52,236.19c-7.39,2.2-15.88,3.93-21.45.1" style="fill:#fff"/><path d="M208.52,236.19c-7.39,2.2-15.88,3.93-21.45.1" style="fill:none;stroke:#000;stroke-linejoin:round;stroke-width:0.4350000023841858px"/><path d="M445.82,234.35c-7.39,2.2-15.52,5-21.09,1.15" style="fill:#fff"/><path d="M445.82,234.35c-7.39,2.2-15.52,5-21.09,1.15" style="fill:none;stroke:#000;stroke-linejoin:round;stroke-width:0.4350000023841858px"/><path d="M45.66,100.78c-3.61-1.8-6.72,2.48-8.24-.54s3.63-9.6-5.29-10.84c-2.51-.35-3.8-.45-6.06.85-3,1.72-5.11,3.26-5,5.52.26,5.35,7.13,12.55,11,12.13,2,5.16,14.72,4.54,16.36.43a6.37,6.37,0,0,0-2.73-7.56" style="fill:#fff"/><path d="M45.66,100.78c-3.61-1.8-6.72,2.48-8.24-.54s3.63-9.6-5.29-10.84c-2.51-.35-3.8-.45-6.06.85-3,1.72-5.11,3.26-5,5.52.26,5.35,7.13,12.55,11,12.13,2,5.16,14.72,4.54,16.36.43A6.37,6.37,0,0,0,45.66,100.78Z" style="fill:none;stroke:#000;stroke-linejoin:round;stroke-width:0.4350000023841858px"/><path d="M30.57,93.36c-2.52-.12-4.47,1.88-2.93,5.57s-1.48,3.72-.53,4.46c1.3-.1,4-.52,5-1.27,4.09-3.18,2.28-8.57-1.52-8.76" style="fill:#fff"/><path d="M30.57,93.36c-2.52-.12-4.47,1.88-2.93,5.57s-1.48,3.72-.53,4.46c1.3-.1,4-.52,5-1.27C36.18,98.94,34.37,93.55,30.57,93.36Z" style="fill:none;stroke:#000;stroke-linejoin:round;stroke-width:0.4350000023841858px"/><path d="M56.16,64.44c-.1,3.12,3.65,3.19,5.95,1.94" style="fill:#fff"/><path d="M56.16,64.44c-.1,3.12,3.65,3.19,5.95,1.94" style="fill:none;stroke:#000;stroke-linejoin:round;stroke-width:0.4350000023841858px"/><line x1="173.21" y1="156.06" x2="182.98" y2="178.45" style="fill:#fff"/><line x1="173.21" y1="156.06" x2="182.98" y2="178.45" style="fill:none;stroke:#000;stroke-linejoin:round;stroke-width:0.4350000023841858px"/><path d="M397.89,134.33s1.14,13.3,4.64,20" style="fill:#fff"/><path d="M397.89,134.33s1.14,13.3,4.64,20" style="fill:none;stroke:#000;stroke-linejoin:round;stroke-width:0.4350000023841858px"/><line x1="225.43" y1="153.5" x2="221.03" y2="168.11" style="fill:#fff"/><line x1="225.43" y1="153.5" x2="221.03" y2="168.11" style="fill:none;stroke:#000;stroke-linejoin:round;stroke-width:0.4350000023841858px"/><path d="M101.29,125.09c2.42-5.18,2.59-14.06,2.59-14.06l7.4,3.7-.88,11.68s-10.09.76-9.11-1.33" style="fill:#231f20"/><path d="M106.88,116.45h1.38l.6,0,.51,0,.58,0,.74.08.73.12a3.93,3.93,0,0,1,.67.18c.24.09.48.18.7.29a2.62,2.62,0,0,1,.81.65,4.14,4.14,0,0,1,.64,1.07,8,8,0,0,1,.29.81,3.51,3.51,0,0,1,.09.41,1.12,1.12,0,0,0,0,.15s0,.06,0,.09c0,.2.09.4.12.6s0,.19,0,.28,0,.2,0,.3,0,.1,0,.16,0,.24,0,.36a1.25,1.25,0,0,0,0,.14.63.63,0,0,1,0,.11c0,.09,0,.18,0,.27s0,.29,0,.44,0,.14,0,.21a.7.7,0,0,0,0,.17,1,1,0,0,1,0,.16c0,.1,0,.21,0,.31a.23.23,0,0,1,0,0c0,.1,0,.21,0,.31a.32.32,0,0,1,0,.07s0,.08,0,.13,0,.38,0,.56a1,1,0,0,1,0,.21c0,.1,0,.2,0,.3a1.38,1.38,0,0,0,0,.16c0,.06,0,.12,0,.18a.3.3,0,0,0,0,.12.2.2,0,0,1,0,.09c0,.06,0,.13,0,.19l0,.09c0,.06,0,.12,0,.18s0,0,0,.06,0,.11-.05.17a1.57,1.57,0,0,1-.06.16c0,.1-.09.19-.12.3a.29.29,0,0,0-.07.12,2.29,2.29,0,0,1-.17.31l-.09.17L114,128l-.09.11c-.05.08-.12.14-.18.22a2.22,2.22,0,0,1-.25.26c-.08.07-.15.15-.23.21l-.17.14-.28.2-.28.17a3.28,3.28,0,0,1-.35.19l-.27.12c-.14.07-.29.11-.43.17l-.29.1-.17.05-.29.07-.3.07-.11,0-.15,0-.12,0-.3,0-.27,0a.85.85,0,0,0-.17,0h-2.06l-.41,0-.29,0-.22,0h-.13l-.42-.07c-.19,0-.37-.08-.55-.12l-.61-.18-.46-.17-.32-.14-.46-.24-.28-.18-.19-.14a4.14,4.14,0,0,1-.38-.31l-.24-.23-.11-.13a4.1,4.1,0,0,1-.26-.32l-.09-.14c0-.07-.09-.14-.13-.21a2.26,2.26,0,0,1-.12-.23c0-.09-.08-.18-.12-.27s-.09-.24-.14-.37-.06-.23-.1-.34a5.87,5.87,0,0,1-.14-.68c0-.18,0-.36-.06-.54a.67.67,0,0,1,0-.11s0-.09,0-.14,0-.17,0-.26,0-.18,0-.27a.69.69,0,0,1,0-.16,1,1,0,0,0,0-.24c0-.26,0-.53,0-.79,0-.1,0-.21,0-.31s0-.06,0-.1a.57.57,0,0,1,0-.18.19.19,0,0,0,0-.11s0,0,0,0,0-.09,0-.14a.33.33,0,0,0,0-.07.8.8,0,0,1,0-.22.27.27,0,0,0,0,0,.25.25,0,0,1,0-.11.07.07,0,0,0,0-.07.07.07,0,0,1,0-.06.12.12,0,0,0,0-.06s0-.07,0-.1a.5.5,0,0,0,0-.18c0-.05,0-.09,0-.14s0,0,0,0a1.33,1.33,0,0,1,.05-.28c0-.09,0-.18.05-.28s0-.19.07-.29.07-.27.11-.41.11-.41.18-.61.11-.3.18-.45a6.07,6.07,0,0,1,.37-.7,3.33,3.33,0,0,1,.29-.42,3.6,3.6,0,0,1,.33-.35,2.65,2.65,0,0,1,.63-.43c.14-.07.28-.12.43-.17s.41-.13.62-.19a2.55,2.55,0,0,1,.43-.08l.58-.06.62,0,.6,0h0Zm1.35,2.72H108l-.89,0-1.35,0-1.17,0s0,0-.05,0c0,.22,0,.44,0,.66a.09.09,0,0,0,0,.07l.1.11a.09.09,0,0,0,.08,0H105l1.2,0,1,0,.73,0,.59,0,1,0,.63,0,.93,0c.26,0,.52,0,.79,0a.07.07,0,0,0,.06,0,1,1,0,0,1,.1-.13.18.18,0,0,0,0-.16c0-.18,0-.35,0-.52s0-.06-.07-.07l-.75,0-.91,0-.89,0-1.1,0" style="fill:#059ad6"/><path d="M128.14,55.4c-.31-2.28-2.07-16.7-2.46-18.93L117.12,36c.67,3.48,1.08,16.64,1.42,20.46Z" style="fill:#094791"/><path d="M104.57,119.18l-.07.11c0,.2,0,.41,0,.61a.09.09,0,0,0,0,.07l.1.12a.09.09,0,0,0,.08,0H105l1.23,0,1,0,.75,0,.6,0,1,0,.64,0,.95,0c.26,0,.52,0,.78,0l.23-.34a8.31,8.31,0,0,0,.45-.72c7.55-11.85,13.46-29.18,15-50.65l-8.6.65c-1.39,17.76-8.56,39.81-14.44,49.91" style="fill:#094791"/></g><g style="clip-path:url(#clip-path-3)"><path d="M119,35.62s1.51,11.28,2,27c.59,19-5.26,40.87-15.34,58" style="fill:none;stroke:#f16522;stroke-miterlimit:10;stroke-width:0.5799999833106995px"/><path d="M124,35.81s9.79,46.69-14.52,86" style="fill:none;stroke:#f16522;stroke-miterlimit:10;stroke-width:0.5799999833106995px"/></g><g style="clip-path:url(#clip-path-4)"><path d="M119,35.46s1.51,11.28,2,27c.59,19-5.26,40.87-15.34,58" style="fill:none;stroke:#f16522;stroke-miterlimit:10;stroke-width:0.5799999833106995px"/><path d="M124,35.65s9.79,46.69-14.52,86" style="fill:none;stroke:#f16522;stroke-miterlimit:10;stroke-width:0.5799999833106995px"/></g><g style="clip-path:url(#clip-path-2)"><path d="M124.41,49.33c-5.52-.11-7.35.83-8.06,4.36a47.61,47.61,0,0,0,.23,9.4c.15,1.18,1.08,8,1.89,9.52a4.39,4.39,0,0,0,1.42,1.89c.46.33,4.14,1.94,7.3,0,.76-.46,2.17-2.43,2.66-6.32a111.45,111.45,0,0,0,.3-13.5,5.44,5.44,0,0,0-5.74-5.37m-5.52,3,8.77-.52.19,3.21-8.77.52Z" style="fill:#059ad6"/></g></g></svg>