<svg id="Layer_1" data-name="Layer 1" xmlns="http://www.w3.org/2000/svg" xmlns:xlink="http://www.w3.org/1999/xlink" width="632.51" height="454.9" viewBox="0 0 632.51 454.9"><defs><clipPath id="clip-path"><rect x="-635.67" y="-1940.24" width="1256.29" height="3501.14" style="fill:none"/></clipPath><clipPath id="clip-path-2"><rect x="-635.67" y="-1940.24" width="1256.29" height="3501.14" style="fill:none"/></clipPath><clipPath id="clip-path-3"><path d="M458.66,235.81c.06.1.19.29.36.51l.19.24c.19,0,.38,0,.57,0l.69-.05.47,0,.73-.06.44,0,.55,0,.72-.06.9-.07.22,0a.07.07,0,0,0,.06,0l.07-.09a.06.06,0,0,0,0-.05l-.05-.45-.05-.08c-4.71-7.18-10.82-23.08-12.53-36.06l-6.34-.15c2,15.69,7,28.18,13,36.58" style="fill:none"/></clipPath><clipPath id="clip-path-5"><path d="M273.77,244.06c3.31,19.22,10.16,34.34,18,44.36.08.13.25.35.47.61l.24.29c.24,0,.47-.06.7-.09l.85-.11.58-.07.89-.11.54-.07.67-.08.89-.11,1.1-.14.27,0a.09.09,0,0,0,.07,0l.08-.11a.09.09,0,0,0,0-.07l-.09-.55-.07-.1c-6.19-8.59-14.59-27.85-17.4-43.74Z" style="fill:none"/></clipPath><clipPath id="clip-path-7"><path d="M213.1,291.08a9.2,9.2,0,0,0,.53.78l.28.37c.29,0,.58,0,.87-.06l1.06-.07.72-.05,1.11-.07.67,0,.84-.06,1.1-.08,1.38-.1.33,0a.11.11,0,0,0,.09-.05l.1-.14a.1.1,0,0,0,0-.08l-.07-.68-.08-.12c-7.07-11.05-16.12-35.46-18.5-55.32l-9.68-.34c2.77,24,10.2,43.18,19.21,56.13" style="fill:none"/></clipPath><clipPath id="clip-path-9"><path d="M546.56,127.4c.06.1.19.29.36.51l.19.24c.19,0,.38,0,.57,0l.69-.05.47,0,.73-.06.44,0,.55,0,.72-.06.9-.07h.21a.07.07,0,0,0,.06,0l.07-.09a.07.07,0,0,0,0-.05c0-.15,0-.3-.05-.45l-.06-.08c-4.71-7.18-10.82-23.08-12.53-36.06l-6.33-.15c2,15.69,7,28.18,13,36.58" style="fill:none"/></clipPath></defs><title>collar-mob-image-05</title><g style="clip-path:url(#clip-path)"><g style="clip-path:url(#clip-path-2)"><path d="M427.06,152.17s-5.95,9.43-8.41,13.23-2.15,2.67-4.41,9.33c-.74,2.2-1.34,6.38-2.33,8.48-1.46,3.08-.89,6.52-1,9.91-.05,1.61.13,3.19.17,4.79,0,.49.29,3.49.29,3.48-1.09-.64-2-5.54-2-5.54l.43,5.48s-7.3.73-9.77-1c-.89-.63,1.69-8.77,1.69-8.77a81.94,81.94,0,0,0,.77-8.77c.2-5.23,1.23-9.61.41-11.87a41.08,41.08,0,0,0-1.64-3.9s.92-3,1.85-5.23.72-6.56.72-6.56" style="fill:#fff"/><path d="M427.06,152.17s-5.95,9.43-8.41,13.23-2.15,2.67-4.41,9.33c-.74,2.2-1.34,6.38-2.33,8.48-1.46,3.08-.89,6.52-1,9.91-.05,1.61.13,3.19.17,4.79,0,.49.29,3.49.29,3.48-1.09-.64-2-5.54-2-5.54l.43,5.48s-7.3.73-9.77-1c-.89-.63,1.69-8.77,1.69-8.77a81.94,81.94,0,0,0,.77-8.77c.2-5.23,1.23-9.61.41-11.87a41.08,41.08,0,0,0-1.64-3.9s.92-3,1.85-5.23.72-6.56.72-6.56" style="fill:none;stroke:#000;stroke-linejoin:round;stroke-width:0.5820000171661377px"/><line x1="574.99" y1="96.65" x2="574.99" y2="96.64" style="fill:none;stroke:#000;stroke-linejoin:round;stroke-width:0.5820000171661377px"/><path d="M562.57,53.8c-8.45-.07-18.08-.14-21.49-1.71a18.2,18.2,0,0,1-5.64-3.78s-7.18-4.92-12.92-5.75-10.25,2.26-14.76,2.67-7,0-13.94,1-16.41,4.51-21.33,5.94-40.45-.42-45.37.2-10.86.41-15,2.67-7,1.64-7,1.64-7.8,1.64-9.44,1.43-3.69,3.9-8,6.77S382.41,70,382,74.54,380.62,94,381.84,100s-.82,13.33,0,16.2,3.09,10-.82,15.59c-3.45,4.89-11.28,10.46-10.46,12.1s3,23.17,3,23.17.49,1.39,1.12,3.77v0A86.22,86.22,0,0,1,377,183.54s0,.07,0,.1,0,.14,0,.21c.07.62.13,1.2.19,1.76.13,1.34.23,2.51.3,3.52.12,1.44.19,2.57.22,3.45a16.6,16.6,0,0,1,0,2.86,32.87,32.87,0,0,0-.16,4.74,4.76,4.76,0,0,0,.68,2.64c1.91,2,10.55.21,10.55.21l-.51-5.79c0-.14,0-.21,0-.21" style="fill:#fff"/><path d="M562.57,53.8c-8.45-.07-18.08-.14-21.49-1.71a18.2,18.2,0,0,1-5.64-3.78s-7.18-4.92-12.92-5.75-10.25,2.26-14.76,2.67-7,0-13.94,1-16.41,4.51-21.33,5.94-40.45-.42-45.37.2-10.86.41-15,2.67-7,1.64-7,1.64-7.8,1.64-9.44,1.43-3.69,3.9-8,6.77S382.41,70,382,74.54,380.62,94,381.84,100s-.82,13.33,0,16.2,3.09,10-.82,15.59c-3.45,4.89-11.28,10.46-10.46,12.1s3,23.17,3,23.17.49,1.39,1.12,3.77v0A86.22,86.22,0,0,1,377,183.54s0,.07,0,.1,0,.14,0,.21c.07.62.13,1.2.19,1.76.13,1.34.23,2.51.3,3.52.12,1.44.19,2.57.22,3.45a16.6,16.6,0,0,1,0,2.86,32.87,32.87,0,0,0-.16,4.74,4.76,4.76,0,0,0,.68,2.64c1.91,2,10.55.21,10.55.21l-.51-5.79c0-.14,0-.21,0-.21" style="fill:none;stroke:#000;stroke-linejoin:round;stroke-width:0.5820000171661377px"/><path d="M547.76,111.37h0a19.38,19.38,0,0,0-5.84,8.1c-2.26,5.54-2,3.54-3,9s-3.28,7.65-4.66,10.46c-1.93,3.92-2.62,14.19-3.13,17.28s-.21,11.27-.81,15-1.64,14.56-.83,20.41c.3,2.09.69,4,1.09,5.61.59,2.41,1.23,4.32,1.69,5.76h0c.1.33.2.63.28.91a40.93,40.93,0,0,1,.89,4.14c.48,2.66.86,5.43.81,5.41-1.22-.13-2.38-2.74-3-4.26-.24-.64-.38-1.09-.38-1.09l.29,1.15,1.2,4.82a26.89,26.89,0,0,1-5.18.59,21.44,21.44,0,0,1-5.54-.31,11.64,11.64,0,0,1-1.65-.43s.91-8.45,1-11.57c0-.4,0-.71,0-.91-.1-1.75.21-11.07.1-13.33a52.5,52.5,0,0,0-.72-8.71c-.62-2.56-4.1-6.36-4.1-7.29a81.65,81.65,0,0,0,.92-10.56c.06-3.56-.26-20.55-.26-20.55s-1.9,1.28-7,1.28c-3.4,0-5.59,0-6.33,0h-.28v.62c0,1.19,0,3.89,0,6.51.1,3.49,1.64,16.92,1.23,21.33-.13,1.34-.41,3.63-.72,6.34s-.63,5.61-.87,8.5a52.28,52.28,0,0,0-.15,10c.83,5.44,2.56,12.31,2.56,12.31l.37,2.67.76,5.33h0c-1.09-.76-2.12-3.35-2.49-4.38L504,211l0,.49.47,5a34.47,34.47,0,0,1-8.61.86c-1-.09-1.77-.12-2.37-.19-1.59-.15-2-.52-1.93-2.69.11-3,.41-8.3.41-8.3a93.33,93.33,0,0,0,1.34-10.56c0-1.13.06-3.22.12-5.55.1-4,.21-8.76.08-10.44-.15-2-2.91-6.24-4.23-8.15l-.69-1-3.73-25.64-.07-.45h-.08l-1,.08a34.88,34.88,0,0,0-4.59.69A103.58,103.58,0,0,1,464.89,147c-1.45.06-4.17.07-7.18,0-6.42,0-14.19-.2-14.19-.2s-2.43,0-4.38.21l-.38,0a6.64,6.64,0,0,0-1.59.35c-1.43.62-3,2.67-3.95,4.46a8.08,8.08,0,0,0-.92,3.39c-.1.36-.3.47-.92.41s-.41-1.22-.41-1.22.2-3.28-1-3.34a6.57,6.57,0,0,0-3,1c-.71.37-1.56.85-2.56,1.42a14.52,14.52,0,0,1-6,1.75l-.06,4.35s.26.57-.71.57a1.39,1.39,0,0,1-1.28-.57v-4.31s-.21.32-2.56.42l-4.41.2v3.43s-.15,1-1,1-1.07-1-1.07-1v-3.38a9.52,9.52,0,0,1-3.54-.81,15.22,15.22,0,0,1-3.48-2,20.47,20.47,0,0,1-7-10,35.54,35.54,0,0,0-4.31,4.1,40.87,40.87,0,0,0-3.64,7.23,77.87,77.87,0,0,0-.82,13.48l0,.51h0c.16,2.33.69,5.7,1.29,9.09.37,2,.77,4.1,1.13,5.9a2,2,0,0,0,.06.29c0,.09,0,.18,0,.26.39,2,.73,3.61.92,4.54s.5,2.35.79,3.63c0,0,0,0,0,0,.15.61.29,1.21.43,1.78.48,2,.89,3.6.89,3.6l.15,5c-1.26-.72-1.87-4.45-2-5.37" style="fill:#fff"/><path d="M547.76,111.37h0a19.38,19.38,0,0,0-5.84,8.1c-2.26,5.54-2,3.54-3,9s-3.28,7.65-4.66,10.46c-1.93,3.92-2.62,14.19-3.13,17.28s-.21,11.27-.81,15-1.64,14.56-.83,20.41c.3,2.09.69,4,1.09,5.61.59,2.41,1.23,4.32,1.69,5.76h0c.1.33.2.63.28.91a40.93,40.93,0,0,1,.89,4.14c.48,2.66.86,5.43.81,5.41-1.22-.13-2.38-2.74-3-4.26-.24-.64-.38-1.09-.38-1.09l.29,1.15,1.2,4.82a26.89,26.89,0,0,1-5.18.59,21.44,21.44,0,0,1-5.54-.31,11.64,11.64,0,0,1-1.65-.43s.91-8.45,1-11.57c0-.4,0-.71,0-.91-.1-1.75.21-11.07.1-13.33a52.5,52.5,0,0,0-.72-8.71c-.62-2.56-4.1-6.36-4.1-7.29a81.65,81.65,0,0,0,.92-10.56c.06-3.56-.26-20.55-.26-20.55s-1.9,1.28-7,1.28c-3.4,0-5.59,0-6.33,0h-.28v.62c0,1.19,0,3.89,0,6.51.1,3.49,1.64,16.92,1.23,21.33-.13,1.34-.41,3.63-.72,6.34s-.63,5.61-.87,8.5a52.28,52.28,0,0,0-.15,10c.83,5.44,2.56,12.31,2.56,12.31l.37,2.67.76,5.33h0c-1.09-.76-2.12-3.35-2.49-4.38L504,211l0,.49.47,5a34.47,34.47,0,0,1-8.61.86c-1-.09-1.77-.12-2.37-.19-1.59-.15-2-.52-1.93-2.69.11-3,.41-8.3.41-8.3a93.33,93.33,0,0,0,1.34-10.56c0-1.13.06-3.22.12-5.55.1-4,.21-8.76.08-10.44-.15-2-2.91-6.24-4.23-8.15l-.69-1-3.73-25.64-.07-.45h-.08l-1,.08a34.88,34.88,0,0,0-4.59.69A103.58,103.58,0,0,1,464.89,147c-1.45.06-4.17.07-7.18,0-6.42,0-14.19-.2-14.19-.2s-2.43,0-4.38.21l-.38,0a6.64,6.64,0,0,0-1.59.35c-1.43.62-3,2.67-3.95,4.46a8.08,8.08,0,0,0-.92,3.39c-.1.36-.3.47-.92.41s-.41-1.22-.41-1.22.2-3.28-1-3.34a6.57,6.57,0,0,0-3,1c-.71.37-1.56.85-2.56,1.42a14.52,14.52,0,0,1-6,1.75l-.06,4.35s.26.57-.71.57a1.39,1.39,0,0,1-1.28-.57v-4.31s-.21.32-2.56.42l-4.41.2v3.43s-.15,1-1,1-1.07-1-1.07-1v-3.38a9.52,9.52,0,0,1-3.54-.81,15.22,15.22,0,0,1-3.48-2,20.47,20.47,0,0,1-7-10,35.54,35.54,0,0,0-4.31,4.1,40.87,40.87,0,0,0-3.64,7.23,77.87,77.87,0,0,0-.82,13.48l0,.51h0c.16,2.33.69,5.7,1.29,9.09.37,2,.77,4.1,1.13,5.9a2,2,0,0,0,.06.29c0,.09,0,.18,0,.26.39,2,.73,3.61.92,4.54s.5,2.35.79,3.63c0,0,0,0,0,0,.15.61.29,1.21.43,1.78.48,2,.89,3.6.89,3.6l.15,5c-1.26-.72-1.87-4.45-2-5.37" style="fill:none;stroke:#000;stroke-linejoin:round;stroke-width:0.5820000171661377px"/><path d="M393.33,143.2s5.74-2.2,9.84-9.38,9.43-14.46,9.43-14.46" style="fill:#fff"/><path d="M393.33,143.2s5.74-2.2,9.84-9.38,9.43-14.46,9.43-14.46" style="fill:none;stroke:#000;stroke-linejoin:round;stroke-width:0.5820000171661377px"/><path d="M484.89,145a20.33,20.33,0,0,0-4.15-9.61c-3.69-4.72-5-7.13-6.15-15.46-1.23-8.69-1.38-10.61-1.38-10.61" style="fill:#fff"/><path d="M484.89,145a20.33,20.33,0,0,0-4.15-9.61c-3.69-4.72-5-7.13-6.15-15.46-1.23-8.69-1.38-10.61-1.38-10.61" style="fill:none;stroke:#000;stroke-linejoin:round;stroke-width:0.5820000171661377px"/><path d="M507.14,120.69c-2.46,3.49-4.23,10.54-4,13.82s.31,9.38.31,9.38" style="fill:#fff"/><path d="M507.14,120.69c-2.46,3.49-4.23,10.54-4,13.82s.31,9.38.31,9.38" style="fill:none;stroke:#000;stroke-linejoin:round;stroke-width:0.5820000171661377px"/><path d="M417.88,53.63c-3.64,4.3-7.67,8.66-9.8,14-.86,2.14-2,6.54-.56,8.64,1.77,2.51,4.1,1,6.47.71,3-.42,4.54,0,6.66,2.4a40.74,40.74,0,0,1,7,10.35c2.11,4.69,1.56,9.76,1.1,14.72-.3,3.25-1.77,11.21,1.48,13.56,1.53,1.11,3.69-.24,4.71-1.84,1.79-2.82,3.28-3.79,6.32-4.8a18.1,18.1,0,0,0,7.35-4.75c2.48-2.44,2.66-10.4,7.3-10.32,1.93,0,3.26,2,3.89,3.78s1,3.87,2.33,5.23c2.39,2.39,6,1,7.88-1.23,3.43-4,4.48-10.33,5.18-15.4s-1.22-6.5-3.89-10.13a7.33,7.33,0,0,1-1.17-3.57c-1.65-14.59,11-19.76,20.13-27.85" style="fill:none;stroke:#000;stroke-linejoin:round;stroke-width:0.5820000171661377px"/><path d="M545.95,58.22S552.1,64,552.1,69.07s.62,4.38.69,8.77-2.15,9.84-2.15,11.46.46,2.23-.08,3.61-2.38,4.46-3.15,7.77a23.36,23.36,0,0,1-2.38,6" style="fill:#fff"/><path d="M545.95,58.22S552.1,64,552.1,69.07s.62,4.38.69,8.77-2.15,9.84-2.15,11.46.46,2.23-.08,3.61-2.38,4.46-3.15,7.77a23.36,23.36,0,0,1-2.38,6" style="fill:none;stroke:#000;stroke-linejoin:round;stroke-width:0.5820000171661377px"/><path d="M439.21,147.1s-10.31,1.64-25.69-3.43-13.69-5.23-13.69-5.23" style="fill:#fff"/><path d="M439.21,147.1s-10.31,1.64-25.69-3.43-13.69-5.23-13.69-5.23" style="fill:none;stroke:#000;stroke-linejoin:round;stroke-width:0.5820000171661377px"/><path d="M377.74,192.57a9.79,9.79,0,0,0,4.92,1.08,26.7,26.7,0,0,0,6.2-1.38" style="fill:#fff"/><path d="M377.74,192.57a9.79,9.79,0,0,0,4.92,1.08,26.7,26.7,0,0,0,6.2-1.38" style="fill:none;stroke:#000;stroke-linejoin:round;stroke-width:0.5820000171661377px"/><path d="M401.68,191.57s.87.69,3.79.85a20.93,20.93,0,0,0,5.43-.46" style="fill:#fff"/><path d="M401.68,191.57s.87.69,3.79.85a20.93,20.93,0,0,0,5.43-.46" style="fill:none;stroke:#000;stroke-linejoin:round;stroke-width:0.5820000171661377px"/><path d="M492,206.1c.61.26,1.95.92,6.56.46s6.2-1.44,6.2-1.44" style="fill:#fff"/><path d="M492,206.1c.61.26,1.95.92,6.56.46s6.2-1.44,6.2-1.44" style="fill:none;stroke:#000;stroke-linejoin:round;stroke-width:0.5820000171661377px"/><path d="M521.19,203.95s.58.57,4,.62a18.7,18.7,0,0,0,7.13-1.64" style="fill:#fff"/><path d="M521.19,203.95s.58.57,4,.62a18.7,18.7,0,0,0,7.13-1.64" style="fill:none;stroke:#000;stroke-linejoin:round;stroke-width:0.5820000171661377px"/><path d="M324.39,258.41A56.5,56.5,0,0,1,333.2,260c1.78.5,3.6,1.22,4.34,3.07a4.06,4.06,0,0,1-2,5,5.94,5.94,0,0,1-3.14.89c-.36,0-1.34,0-1.61-.32-.09-.1-.08-.49-.1-.62a16,16,0,0,0-.43-1.91,7.55,7.55,0,0,0-2.4-4.08,7.82,7.82,0,0,0-3-1c-1.61-.38-3.22-.72-4.84-1.05-5.28-1.07-10.66-1.79-15.78-3.5a48,48,0,0,1-12.64-6.34c-8-5.67-14.13-14.4-14.87-24.37a32.1,32.1,0,0,1,4.61-18.43,53.48,53.48,0,0,1,5.51-7.67c1.46-1.72,3.48-4.81,5.93-5.07" style="fill:#fff"/><path d="M324.39,258.41A56.5,56.5,0,0,1,333.2,260c1.78.5,3.6,1.22,4.34,3.07a4.06,4.06,0,0,1-2,5,5.94,5.94,0,0,1-3.14.89c-.36,0-1.34,0-1.61-.32-.09-.1-.08-.49-.1-.62a16,16,0,0,0-.43-1.91,7.55,7.55,0,0,0-2.4-4.08,7.82,7.82,0,0,0-3-1c-1.61-.38-3.22-.72-4.84-1.05-5.28-1.07-10.66-1.79-15.78-3.5a48,48,0,0,1-12.64-6.34c-8-5.67-14.13-14.4-14.87-24.37a32.1,32.1,0,0,1,4.61-18.43,53.48,53.48,0,0,1,5.51-7.67c1.46-1.72,3.48-4.81,5.93-5.07" style="fill:none;stroke:#000;stroke-linejoin:round;stroke-width:0.5820000171661377px"/><path d="M479.78,231.9c.47-12.17-.87-25.17-9.12-34.78a40,40,0,0,0-13.77-9.94c-7.84-3.63-17.61-3.15-25.94-1.78-1.81.3-3.58.73-5.37,1.1s-3.33-.1-5.12-.33a86.28,86.28,0,0,0-11.92-.32,75.7,75.7,0,0,1-11.55-1q-6.4-.88-12.86-1.13c-7-.27-13.94.38-20.95.81a25.82,25.82,0,0,1-4.66,0c-1.67-.2-3.32-.74-5-1.08-4-.83-8-1.47-12-1.93-3.63-.41-7.35-.86-11-.27a42.12,42.12,0,0,0-9.64,3c-1.77.75-3.44,1.79-5.21,2.49a62.56,62.56,0,0,1-8.17,2.35c-4.37,1.07-9.59,1-13.1,4.23a22.35,22.35,0,0,0-4,5.34,103.12,103.12,0,0,0-5,10.13c-.58,1.31-1.92,2.34-2.69,3.6a21.07,21.07,0,0,0-2,4.33,23.68,23.68,0,0,0-1.28,8.79c.18,3,1.72,5.44,3.12,8.06a83.35,83.35,0,0,0,6,9.9,26.51,26.51,0,0,0,7.28,7.2,18.25,18.25,0,0,0,4.42,1.45c6.79,2,13.6,3.94,20.49,5.56,3.31.78,6.19,1.17,9.53.15,2.26-.69,4.29-1.6,6.67-1.76,4.83-.33,9.67-.5,14.51-.39a52.68,52.68,0,0,1,7.89.65,14.35,14.35,0,0,1,2.81.73c1,.4,1.37,1.11,2,2s1,1.33,2.07,1.42a12.55,12.55,0,0,0,3.24-.29,57.72,57.72,0,0,0,7.35-2,7.73,7.73,0,0,0,1.81-.61c1-.68-.07-1.84-.38-2.62l7.19.27a23.11,23.11,0,0,1,3.34.13,8.56,8.56,0,0,1,1.81.83,19.77,19.77,0,0,0,4,1.3,51.92,51.92,0,0,0,8.24.86,70.89,70.89,0,0,1,8.54,1.11,79,79,0,0,0,8.85,1.27c3.25.2,6.54.14,9.8.07s6.3-.2,9.45-.35a48,48,0,0,0,8-.83,17.77,17.77,0,0,0,3.78-1.24c.2-.09.62-.42.83-.42s.87.49,1.11.61a11.36,11.36,0,0,0,2.23.8,13,13,0,0,0,7.36-.52,16.62,16.62,0,0,0,2.86-1.34c.39-.23.77-.57,1.18-.77s.21-.27.57-.16a3.54,3.54,0,0,1,.49.39,8.69,8.69,0,0,0,4.86,1.19,31,31,0,0,0,9.33-1.59c.56-.17.5-.11.81-.62a19,19,0,0,0,1.74-4.85,24.3,24.3,0,0,0,.81-8.56c-.39-4-2.09-8.46-5.73-10.6" style="fill:#fff"/><path d="M479.78,231.9c.47-12.17-.87-25.17-9.12-34.78a40,40,0,0,0-13.77-9.94c-7.84-3.63-17.61-3.15-25.94-1.78-1.81.3-3.58.73-5.37,1.1s-3.33-.1-5.12-.33a86.28,86.28,0,0,0-11.92-.32,75.7,75.7,0,0,1-11.55-1q-6.4-.88-12.86-1.13c-7-.27-13.94.38-20.95.81a25.82,25.82,0,0,1-4.66,0c-1.67-.2-3.32-.74-5-1.08-4-.83-8-1.47-12-1.93-3.63-.41-7.35-.86-11-.27a42.12,42.12,0,0,0-9.64,3c-1.77.75-3.44,1.79-5.21,2.49a62.56,62.56,0,0,1-8.17,2.35c-4.37,1.07-9.59,1-13.1,4.23a22.35,22.35,0,0,0-4,5.34,103.12,103.12,0,0,0-5,10.13c-.58,1.31-1.92,2.34-2.69,3.6a21.07,21.07,0,0,0-2,4.33,23.68,23.68,0,0,0-1.28,8.79c.18,3,1.72,5.44,3.12,8.06a83.35,83.35,0,0,0,6,9.9,26.51,26.51,0,0,0,7.28,7.2,18.25,18.25,0,0,0,4.42,1.45c6.79,2,13.6,3.94,20.49,5.56,3.31.78,6.19,1.17,9.53.15,2.26-.69,4.29-1.6,6.67-1.76,4.83-.33,9.67-.5,14.51-.39a52.68,52.68,0,0,1,7.89.65,14.35,14.35,0,0,1,2.81.73c1,.4,1.37,1.11,2,2s1,1.33,2.07,1.42a12.55,12.55,0,0,0,3.24-.29,57.72,57.72,0,0,0,7.35-2,7.73,7.73,0,0,0,1.81-.61c1-.68-.07-1.84-.38-2.62l7.19.27a23.11,23.11,0,0,1,3.34.13,8.56,8.56,0,0,1,1.81.83,19.77,19.77,0,0,0,4,1.3,51.92,51.92,0,0,0,8.24.86,70.89,70.89,0,0,1,8.54,1.11,79,79,0,0,0,8.85,1.27c3.25.2,6.54.14,9.8.07s6.3-.2,9.45-.35a48,48,0,0,0,8-.83,17.77,17.77,0,0,0,3.78-1.24c.2-.09.62-.42.83-.42s.87.49,1.11.61a11.36,11.36,0,0,0,2.23.8,13,13,0,0,0,7.36-.52,16.62,16.62,0,0,0,2.86-1.34c.39-.23.77-.57,1.18-.77s.21-.27.57-.16a3.54,3.54,0,0,1,.49.39,8.69,8.69,0,0,0,4.86,1.19,31,31,0,0,0,9.33-1.59c.56-.17.5-.11.81-.62a19,19,0,0,0,1.74-4.85,24.3,24.3,0,0,0,.81-8.56C485.13,238.48,483.43,234,479.78,231.9Z" style="fill:none;stroke:#000;stroke-linejoin:round;stroke-width:0.5820000171661377px"/><path d="M429.56,199.6c-.12,1.47.12,3.23-1.16,4.28s-2.73,1.08-3.85,2c-1.36,1.15-1.54,3-2.27,4.53-.9,1.9-2.46,2.55-4.43,2.86a54.24,54.24,0,0,0-5.62,1.53c-2.09.56-3.93-.29-5.84-1a19.61,19.61,0,0,0-6.55-1.44,16.51,16.51,0,0,0-6.45,1.4c-2,.75-4.22,1.42-6.31.58-1.69-.69-2.86-2.5-4.71-2.8s-3.14,1.11-4.54,1.93a5.44,5.44,0,0,1-5.63-.17c-1.48-.85-2.63-2.17-4.11-3-1.85-1.06-4-.9-6-1.52a4.51,4.51,0,0,1-3.51-3.73,15.74,15.74,0,0,1,.72-5.51,18.14,18.14,0,0,1,2.34-5.41,13.8,13.8,0,0,1,4.57-4,5.22,5.22,0,0,0,2.55-3.19c.1-.28,1-2.84.19-2.78,5-.42,10-.71,15-.63q4.54.07,9.06.51c3.27.31,6.49,1,9.76,1.3,5.91.57,11.85-.28,17.76.39,1.71.19,3.42.73,5.14.53a31.87,31.87,0,0,0,3.63-.65c1.57-.37,4.15-1.31,4.8.82.59,2-.24,4.45-.93,6.29-.92,2.42-3.36,4.35-3.57,7" style="fill:#fff"/><path d="M429.56,199.6c-.12,1.47.12,3.23-1.16,4.28s-2.73,1.08-3.85,2c-1.36,1.15-1.54,3-2.27,4.53-.9,1.9-2.46,2.55-4.43,2.86a54.24,54.24,0,0,0-5.62,1.53c-2.09.56-3.93-.29-5.84-1a19.61,19.61,0,0,0-6.55-1.44,16.51,16.51,0,0,0-6.45,1.4c-2,.75-4.22,1.42-6.31.58-1.69-.69-2.86-2.5-4.71-2.8s-3.14,1.11-4.54,1.93a5.44,5.44,0,0,1-5.63-.17c-1.48-.85-2.63-2.17-4.11-3-1.85-1.06-4-.9-6-1.52a4.51,4.51,0,0,1-3.51-3.73,15.74,15.74,0,0,1,.72-5.51,18.14,18.14,0,0,1,2.34-5.41,13.8,13.8,0,0,1,4.57-4,5.22,5.22,0,0,0,2.55-3.19c.1-.28,1-2.84.19-2.78,5-.42,10-.71,15-.63q4.54.07,9.06.51c3.27.31,6.49,1,9.76,1.3,5.91.57,11.85-.28,17.76.39,1.71.19,3.42.73,5.14.53a31.87,31.87,0,0,0,3.63-.65c1.57-.37,4.15-1.31,4.8.82.59,2-.24,4.45-.93,6.29C432.22,195.05,429.77,197,429.56,199.6Z" style="fill:none;stroke:#000;stroke-linejoin:round;stroke-width:0.5820000171661377px"/><path d="M356.94,255.87c2.75,0,5.63-1.2,8.08-2.29,2.25-1,6.84-3,6.79-6.1l11.93,12.07a5.39,5.39,0,0,1-1.4-.22,5.33,5.33,0,0,1-1.21-.51c-.19-.11-1-.88-1.09-.86s.67,1.61.7,1.7c.35.87.72,1.28-.35,1.46a48.37,48.37,0,0,1-10.64.82,16.09,16.09,0,0,1-4.65-.84c-1.36-.5-2.16-1.5-3.25-2.38a19.84,19.84,0,0,0-4.92-2.85" style="fill:#fff"/><path d="M356.94,255.87c2.75,0,5.63-1.2,8.08-2.29,2.25-1,6.84-3,6.79-6.1l11.93,12.07a5.39,5.39,0,0,1-1.4-.22,5.33,5.33,0,0,1-1.21-.51c-.19-.11-1-.88-1.09-.86s.67,1.61.7,1.7c.35.87.72,1.28-.35,1.46a48.37,48.37,0,0,1-10.64.82,16.09,16.09,0,0,1-4.65-.84c-1.36-.5-2.16-1.5-3.25-2.38A19.84,19.84,0,0,0,356.94,255.87Z" style="fill:none;stroke:#000;stroke-linejoin:round;stroke-width:0.5820000171661377px"/><polygon points="464.88 236.28 474.61 209.47 467.15 211.7 459.12 236.87 464.88 236.28" style="fill:#1c4075"/><polygon points="464.61 234.71 470.91 215.84 469.58 216.04 463.29 234.92 464.61 234.71" style="fill:#ef6623"/><polygon points="461.83 234.01 468.12 215.13 466.8 215.34 460.51 234.22 461.83 234.01" style="fill:#ef6623"/><path d="M462.74,233.64h.94l.43,0a1.91,1.91,0,0,1,.32,0c.16,0,.31.07.46.12l.32.11a1.94,1.94,0,0,1,.48.29,2.49,2.49,0,0,1,.49.54,4.28,4.28,0,0,1,.3.5c.05.1.1.21.15.32s.11.29.16.44.06.2.1.3a2.06,2.06,0,0,1,.06.21l.05.2a1,1,0,0,1,.05.2v0s0,.07,0,.1a.37.37,0,0,0,0,.13l0,.07a.08.08,0,0,0,0,0,0,0,0,0,1,0,0,.06.06,0,0,0,0,0,.17.17,0,0,1,0,.08.15.15,0,0,0,0,0,.6.6,0,0,1,0,.16v0s0,.07,0,.1h0a.15.15,0,0,0,0,.08.41.41,0,0,1,0,.13s0,0,0,.07,0,.15,0,.23.05.39.06.58a.72.72,0,0,0,0,.18.49.49,0,0,1,0,.12c0,.07,0,.13,0,.2s0,.13,0,.19a.85.85,0,0,0,0,.1.55.55,0,0,1,0,.08c0,.13,0,.27,0,.4a4.32,4.32,0,0,1-.07.51c0,.08,0,.17-.06.26s-.05.19-.09.28,0,.14-.08.2-.05.12-.08.18a1.57,1.57,0,0,0-.09.16l-.06.1a2.88,2.88,0,0,1-.18.25l-.08.1-.17.18a3.18,3.18,0,0,1-.26.24l-.14.11-.2.14-.32.19-.23.11-.33.14-.44.15-.4.11-.3.07-.1,0-.16,0-.21,0-.3,0h-.16l-.18,0h-1.49l-.22,0h-.09l-.11,0h-.08l-.22,0-.21,0-.13,0-.22-.06-.32-.11-.2-.08-.27-.12-.21-.12-.21-.14-.13-.1-.18-.15a1.78,1.78,0,0,1-.2-.18l-.14-.15-.07-.08-.07-.08-.07-.12a1.82,1.82,0,0,1-.14-.22.2.2,0,0,0-.06-.08c0-.07-.07-.14-.1-.21a1,1,0,0,1-.05-.12s0-.08,0-.12,0,0,0,0,0-.09,0-.13l0-.06s0-.09,0-.14a.13.13,0,0,1,0-.06.25.25,0,0,0,0-.09,1.26,1.26,0,0,1,0-.13.8.8,0,0,0,0-.12c0-.07,0-.15,0-.22a.83.83,0,0,1,0-.15l0-.41a.6.6,0,0,0,0-.09.27.27,0,0,1,0-.05c0-.08,0-.15,0-.23a.13.13,0,0,1,0,0c0-.08,0-.15,0-.23a.69.69,0,0,1,0-.11.49.49,0,0,0,0-.13c0-.05,0-.1,0-.16s0-.22,0-.32,0-.13,0-.2a.39.39,0,0,1,0-.08s0-.07,0-.1,0-.18,0-.27,0-.08,0-.11,0-.15,0-.22,0-.14,0-.21,0-.3.06-.44,0,0,0-.06a.86.86,0,0,0,0-.11,2.43,2.43,0,0,1,.05-.31,5.68,5.68,0,0,1,.18-.6,3.06,3.06,0,0,1,.43-.81,1.92,1.92,0,0,1,.57-.51c.16-.09.34-.17.51-.24a2.91,2.91,0,0,1,.48-.16l.53-.12.54-.09.43-.05.37,0,.44,0,.35,0h.3l.36,0ZM461,235.75l-.65.06-.66.06-.55,0s0,0,0,.05,0,.26,0,.39a.13.13,0,0,0,0,.11l.08.09a0,0,0,0,0,0,0c.19,0,.38,0,.58,0l.68-.05.46,0,.71-.06.43,0,.54,0,.71-.06.88-.07.21,0a.07.07,0,0,0,.06,0l.07-.09a.06.06,0,0,0,0-.05l-.06-.48s0,0,0,0l-.86.07-1,.08-.65.06h-.18l-.81.07" style="fill:#0099d6"/><path d="M464.54,235.55l.05.08.05.44a.07.07,0,0,1,0,.05l-.07.09a.07.07,0,0,1-.06,0l-.21,0-.9.07-.72.06-.55,0-.44,0-.73.06-.47,0-.69.05c-.19,0-.38,0-.57,0l-.18-.24a6.15,6.15,0,0,1-.36-.51c-6-8.4-11-20.89-13-36.58l6.34.15c1.71,13,7.82,28.88,12.53,36.06" style="fill:#16498e"/><path d="M464.54,235.44s0,0,0,0v0l-.05-.08h0" style="fill:#0099d6"/></g><g style="clip-path:url(#clip-path-3)"><path d="M463.26,236.89l1.12-.74c-8.08-12.24-13.09-27.8-13.39-41.63-.25-11.35.42-19.7.42-19.78l-1.33-.11c0,.08-.67,8.5-.42,19.92.31,14.07,5.39,29.9,13.61,42.34" style="fill:#ef6623"/><path d="M460.49,237.91l1.1-.76c-19-27.33-13.92-61.69-13.86-62l-1.32-.2c-.06.35-5.2,35.22,14.09,63" style="fill:#ef6623"/></g><g style="clip-path:url(#clip-path-2)"><path d="M443.27,189.23a82.21,82.21,0,0,0,.74,9.9c.51,2.83,1.62,4.22,2.19,4.53a5.71,5.71,0,0,0,5.36-.3,3.22,3.22,0,0,0,1-1.44c.53-1.11,1-6.19,1-7.06a34.89,34.89,0,0,0-.2-6.9c-.66-2.57-2-3.19-6.08-2.89a4,4,0,0,0-4,4.16m8.16.19-6.45,0,0-2.36,6.45,0Z" style="fill:#0099d6"/><path d="M481.94,183.55a8.9,8.9,0,0,0-1.9-4.47c-2.09-2.8-1.45-7.09-4.42-10.69-1.86-2.27-4.07-2.46-5.92-3.52-2.69-3.17-2.87-1.62-5.38-2-4.68-2.49-4.4,1.36-7,1.41-3.52,0-7.1,3-8.27,6.28-1.2,5.77-2.31,5.44-4,8.43-2.61,4.64-2.56,9.52.19,13,1.46,1.87.62,5.5,1.37,7.19,3.41,7.7,3.67,7,3.51,11.33a7.63,7.63,0,0,0,3.44,6.76c4.64,3.23,12.48,3.39,16.77.34a7.37,7.37,0,0,0,2.64-4.15c1.22-4.52,4.47-11.36,4.75-12.37,1.26-4.62.7-7.44,1.68-8.95,2.5-3.87,2.77-6.45,2.58-8.66" style="fill:#fff"/><path d="M481.94,183.55a8.9,8.9,0,0,0-1.9-4.47c-2.09-2.8-1.45-7.09-4.42-10.69-1.86-2.27-4.07-2.46-5.92-3.52-2.69-3.17-2.87-1.62-5.38-2-4.68-2.49-4.4,1.36-7,1.41-3.52,0-7.1,3-8.27,6.28-1.2,5.77-2.31,5.44-4,8.43-2.61,4.64-2.56,9.52.19,13,1.46,1.87.62,5.5,1.37,7.19,3.41,7.7,3.67,7,3.51,11.33a7.63,7.63,0,0,0,3.44,6.76c4.64,3.23,12.48,3.39,16.77.34a7.37,7.37,0,0,0,2.64-4.15c1.22-4.52,4.47-11.36,4.75-12.37,1.26-4.62.7-7.44,1.68-8.95C481.86,188.34,482.13,185.76,481.94,183.55Z" style="fill:none;stroke:#000;stroke-linejoin:round;stroke-width:0.5820000171661377px"/><path d="M502.3,175.81c-2.32-2.19-5.31-2.65-10.95-4a10.54,10.54,0,0,0-2.27-.31c-3.24-.08-5.8,4.29-9.59,5.47-1.08-2.6-1.58-5.78-3.88-8.57l0,0c3.68,4.67-2.6,10.7-5.78,16.36-1.71,3.05-2,13.72-.92,17.17.36,1.21,2.89,2.35,3.37,6.73a14.41,14.41,0,0,1-.07,5.13,15.31,15.31,0,0,1-1.9,3.92,6.87,6.87,0,0,0,2.79-3.84c1.22-4.52,4.6-11.74,4.88-12.75,1.26-4.62.42-7.37,1.4-8.88a23.59,23.59,0,0,0,2.38-4.59c3,1.73,6.23,4.85,12.94,2a20,20,0,0,0,8.46-4.09c2.65-1.76,3.59-7.42-.84-9.71" style="fill:#fff"/><path d="M502.3,175.81c-2.32-2.19-5.31-2.65-10.95-4a10.54,10.54,0,0,0-2.27-.31c-3.24-.08-5.8,4.29-9.59,5.47-1.08-2.6-1.58-5.78-3.88-8.57l0,0c3.68,4.67-2.6,10.7-5.78,16.36-1.71,3.05-2,13.72-.92,17.17.36,1.21,2.89,2.35,3.37,6.73a14.41,14.41,0,0,1-.07,5.13,15.31,15.31,0,0,1-1.9,3.92,6.87,6.87,0,0,0,2.79-3.84c1.22-4.52,4.6-11.74,4.88-12.75,1.26-4.62.42-7.37,1.4-8.88a23.59,23.59,0,0,0,2.38-4.59c3,1.73,6.23,4.85,12.94,2a20,20,0,0,0,8.46-4.09C505.79,183.77,506.74,178.11,502.3,175.81Z" style="fill:none;stroke:#000;stroke-linejoin:round;stroke-width:0.5820000171661377px"/><path d="M449.66,169.46c-2.85,3.51,3.66,10.19,5.14,15.29,1.39,4.75,1.45,14.58.84,16.16-.32.83-1.51,1.72-2.56,3.29a10.76,10.76,0,0,0-1.73,6.34c0,4.53.79,5.38,2.17,6.8a8,8,0,0,1-3.73-6.86c.17-4.29-.17-3.57-3.57-11.27-.75-1.7.44-5.29-1-7.16a10.73,10.73,0,0,1-2-4.34,24.61,24.61,0,0,0-8-.07c-2.31.38-6.62.62-8-1.5-4.11-1.72-3.15-4.87-3.89-7-.17-.29-1.55-2.77-2-3.73a4.18,4.18,0,0,1,.13-2.34c.52-1.38,1.82-2.35,3.87-2.86a55.66,55.66,0,0,1,7.5-1.54c6.06-1.78,7.53,3.59,13.85,7.7.87-1.11,1.67-2.42,2.37-5.8,1.16-3.32,4.3-6.65,7.81-6.67,2.64-.05,3-4,7.67-1.5,2.51.35,2.63-1.16,5.32,2,1.82,1,3.86,1.68,5.69,3.85" style="fill:#fff"/><path d="M449.66,169.46c-2.85,3.51,3.66,10.19,5.14,15.29,1.39,4.75,1.45,14.58.84,16.16-.32.83-1.51,1.72-2.56,3.29a10.76,10.76,0,0,0-1.73,6.34c0,4.53.79,5.38,2.17,6.8a8,8,0,0,1-3.73-6.86c.17-4.29-.17-3.57-3.57-11.27-.75-1.7.44-5.29-1-7.16a10.73,10.73,0,0,1-2-4.34,24.61,24.61,0,0,0-8-.07c-2.31.38-6.62.62-8-1.5-4.11-1.72-3.15-4.87-3.89-7-.17-.29-1.55-2.77-2-3.73a4.18,4.18,0,0,1,.13-2.34c.52-1.38,1.82-2.35,3.87-2.86a55.66,55.66,0,0,1,7.5-1.54c6.06-1.78,7.53,3.59,13.85,7.7.87-1.11,1.67-2.42,2.37-5.8,1.16-3.32,4.3-6.65,7.81-6.67,2.64-.05,3-4,7.67-1.5,2.51.35,2.63-1.16,5.32,2,1.82,1,3.86,1.68,5.69,3.85" style="fill:none;stroke:#000;stroke-linejoin:round;stroke-width:0.5820000171661377px"/><path d="M475.51,168.27l.08.09-.06-.09Z" style="fill:#fff"/><path d="M475.51,168.27l.08.09-.06-.09Z" style="fill:none;stroke:#000;stroke-linejoin:round;stroke-width:0.5820000171661377px"/><path d="M454.74,213.33c.53-1-3.25-4.17-.42-8.09a4.49,4.49,0,0,1,4-1.8c1.3.15,8.41.07,9.66.69,2.26,1.12,3.55,4.66,2.28,6.74-1.44,2.35-1.24,1.83-1.37,2.59s.16,3.31-5.8,3.73c-5.31.37-9.19-2.17-8.33-3.85" style="fill:#fff"/><path d="M454.74,213.33c.53-1-3.25-4.17-.42-8.09a4.49,4.49,0,0,1,4-1.8c1.3.15,8.41.07,9.66.69,2.26,1.12,3.55,4.66,2.28,6.74-1.44,2.35-1.24,1.83-1.37,2.59s.16,3.31-5.8,3.73C457.76,217.55,453.88,215,454.74,213.33Z" style="fill:none;stroke:#000;stroke-linejoin:round;stroke-width:0.5820000171661377px"/><path d="M468.5,206.89a4,4,0,0,1-1,1c-.8.48-2.17,1.37-.78,2.4.91.68,1.87-.48,2.18-1.58.35-1.26-.29-1.95-.39-1.83" style="fill:#fff"/><path d="M468.5,206.89a4,4,0,0,1-1,1c-.8.48-2.17,1.37-.78,2.4.91.68,1.87-.48,2.18-1.58C469.25,207.47,468.61,206.78,468.5,206.89Z" style="fill:none;stroke:#000;stroke-linejoin:round;stroke-width:0.5820000171661377px"/><path d="M455.25,206.54c-.14,0-.79.46-.32,1.88a1.67,1.67,0,0,0,1.92,1.35c.72-.18,1.3-.83.43-1.44-1.85-1.3-1.78-1.82-2-1.79" style="fill:#fff"/><path d="M455.25,206.54c-.14,0-.79.46-.32,1.88a1.67,1.67,0,0,0,1.92,1.35c.72-.18,1.3-.83.43-1.44C455.43,207,455.49,206.51,455.25,206.54Z" style="fill:none;stroke:#000;stroke-linejoin:round;stroke-width:0.5820000171661377px"/><path d="M472.92,189.24c-.47-.21.12-2.68,1.44-3.78s2.64-.8,4.11-.44c.8.19-.14.46-.14.92a3.31,3.31,0,0,1-1.23,2.28,4.82,4.82,0,0,1-2.74.69c-.78,0-1,.54-1.44.33" style="fill:#fff"/><path d="M472.92,189.24c-.47-.21.12-2.68,1.44-3.78s2.64-.8,4.11-.44c.8.19-.14.46-.14.92a3.31,3.31,0,0,1-1.23,2.28,4.82,4.82,0,0,1-2.74.69C473.58,188.92,473.38,189.45,472.92,189.24Z" style="fill:none;stroke:#000;stroke-linejoin:round;stroke-width:0.5820000171661377px"/><path d="M452,189.25c.49-.15.49-2.51-.69-3.76a4.18,4.18,0,0,0-4-1.19c-.81.1-.23.57-.27,1a3.31,3.31,0,0,0,1,2.41,4.81,4.81,0,0,0,2.64,1c.77.1.9.65,1.39.5" style="fill:#fff"/><path d="M452,189.25c.49-.15.49-2.51-.69-3.76a4.18,4.18,0,0,0-4-1.19c-.81.1-.23.57-.27,1a3.31,3.31,0,0,0,1,2.41,4.81,4.81,0,0,0,2.64,1C451.42,188.86,451.55,189.41,452,189.25Z" style="fill:none;stroke:#000;stroke-linejoin:round;stroke-width:0.5820000171661377px"/><path d="M371.82,247.8c0-.53-.81-1.19-1.17-1.46a13.76,13.76,0,0,0-4.29-1.8,18.59,18.59,0,0,0-4.67-1.38c-3.6-.24-7.24.78-10.77,1.3-4.26.63-8.55,1-12.85,1.27a44.78,44.78,0,0,1-10.07-.14" style="fill:#fff"/><path d="M371.82,247.8c0-.53-.81-1.19-1.17-1.46a13.76,13.76,0,0,0-4.29-1.8,18.59,18.59,0,0,0-4.67-1.38c-3.6-.24-7.24.78-10.77,1.3-4.26.63-8.55,1-12.85,1.27a44.78,44.78,0,0,1-10.07-.14" style="fill:none;stroke:#000;stroke-linejoin:round;stroke-width:0.5820000171661377px"/><path d="M452.27,258c1.82-1.72,2.06-4.61,1.92-7a19.66,19.66,0,0,0-2.37-8.33,10.17,10.17,0,0,0-2.23-2.86c-1.28-1.08-3-1.58-4.54-2.29a111.22,111.22,0,0,1-10.71-5.74c-2.91-1.78-5.72-3.7-8.53-5.64" style="fill:#fff"/><path d="M452.27,258c1.82-1.72,2.06-4.61,1.92-7a19.66,19.66,0,0,0-2.37-8.33,10.17,10.17,0,0,0-2.23-2.86c-1.28-1.08-3-1.58-4.54-2.29a111.22,111.22,0,0,1-10.71-5.74c-2.91-1.78-5.72-3.7-8.53-5.64" style="fill:none;stroke:#000;stroke-linejoin:round;stroke-width:0.5820000171661377px"/><path d="M429.36,250.05a4.61,4.61,0,0,1,2.12,1.24" style="fill:#fff"/><path d="M429.36,250.05a4.61,4.61,0,0,1,2.12,1.24" style="fill:none;stroke:#000;stroke-linejoin:round;stroke-width:0.5820000171661377px"/><path d="M389.77,224.56c-.31.22-.47,1-.59,1.28-.37,1-.69,2-1,3a56.17,56.17,0,0,0-1.84,9,25.79,25.79,0,0,0,.52,9.31c.43,1.77.78,3.57,1.27,5.33a8.42,8.42,0,0,0,1.58,3.42,3.72,3.72,0,0,0,3.33,1,54.55,54.55,0,0,0,5.91-.66,32.64,32.64,0,0,0,7.45-2.19c1.64-.71,3.22-1.57,4.92-2.14a24.73,24.73,0,0,1,5.45-.84c3.58-.37,7.12-.7,10.71-.91,1.71-.1,3.55-.77,5.22-.71" style="fill:#fff"/><path d="M389.77,224.56c-.31.22-.47,1-.59,1.28-.37,1-.69,2-1,3a56.17,56.17,0,0,0-1.84,9,25.79,25.79,0,0,0,.52,9.31c.43,1.77.78,3.57,1.27,5.33a8.42,8.42,0,0,0,1.58,3.42,3.72,3.72,0,0,0,3.33,1,54.55,54.55,0,0,0,5.91-.66,32.64,32.64,0,0,0,7.45-2.19c1.64-.71,3.22-1.57,4.92-2.14a24.73,24.73,0,0,1,5.45-.84c3.58-.37,7.12-.7,10.71-.91,1.71-.1,3.55-.77,5.22-.71" style="fill:none;stroke:#000;stroke-linejoin:round;stroke-width:0.5820000171661377px"/><path d="M480.1,231.82c-.06,1.52-.93,3-1.49,4.38-1.2,2.91-1.93,6-3.22,8.86a43.7,43.7,0,0,1-7.78,11.45" style="fill:#fff"/><path d="M480.1,231.82c-.06,1.52-.93,3-1.49,4.38-1.2,2.91-1.93,6-3.22,8.86a43.7,43.7,0,0,1-7.78,11.45" style="fill:none;stroke:#000;stroke-linejoin:round;stroke-width:0.5820000171661377px"/><path d="M428,223.46a13.11,13.11,0,0,0,3.39,5.71,16.27,16.27,0,0,0,4.08,3.33" style="fill:#fff"/><path d="M428,223.46a13.11,13.11,0,0,0,3.39,5.71,16.27,16.27,0,0,0,4.08,3.33" style="fill:none;stroke:#000;stroke-linejoin:round;stroke-width:0.5820000171661377px"/><path d="M109.61,144.86c5.1-5.5,23.8-10.29,25.38-10.62a37.69,37.69,0,0,0-14.5.92A33.45,33.45,0,0,0,104.66,144c-5.46,6.88-8.48,12.22-10,17.29-2.37,7.71-1.33,14.79-.34,25.66a124.41,124.41,0,0,1,.3,17.29c-.26,5.39-.64,11.05-.74,16.56,0,2.27-2.15,15.45,2.85,14.59,4-.69,2.26-9.19,2.64-11.85A62.17,62.17,0,0,0,99.7,209c-.83-9.77-6.32-30.77.06-49.11,1.83-5.26,5.68-10.57,9.85-15.06" style="fill:#fff"/><path d="M109.61,144.86c5.1-5.5,23.8-10.29,25.38-10.62a37.69,37.69,0,0,0-14.5.92A33.45,33.45,0,0,0,104.66,144c-5.46,6.88-8.48,12.22-10,17.29-2.37,7.71-1.33,14.79-.34,25.66a124.41,124.41,0,0,1,.3,17.29c-.26,5.39-.64,11.05-.74,16.56,0,2.27-2.15,15.45,2.85,14.59,4-.69,2.26-9.19,2.64-11.85A62.17,62.17,0,0,0,99.7,209c-.83-9.77-6.32-30.77.06-49.11C101.59,154.66,105.45,149.35,109.61,144.86Z" style="fill:none;stroke:#000;stroke-linejoin:round;stroke-width:0.5820000171661377px"/><path d="M120.17,258.12c3-15,2.88-24,4.56-34.8s9.56-34.72,5.28-35.75c-4.95-1.19-9.62,1.68-14,1.12a23.54,23.54,0,0,1-8.1-2.42.24.24,0,0,0-.3,0c-1,.86,1.49,11.77,1,21.91-.53,11.47-5.36,22.64-5.36,22.91-1.53,3.06-3,1.58-2.43,5.33,1.1,7.87,11.16,5.37,9.57,37-.11,2.26,1.86,7.34,2.15,10.78.13,1.64,12.07.2,10.32-1.9-1.17-1.4-3.94-18.25-2.73-24.24" style="fill:#fff"/><path d="M120.17,258.12c3-15,2.88-24,4.56-34.8s9.56-34.72,5.28-35.75c-4.95-1.19-9.62,1.68-14,1.12a23.54,23.54,0,0,1-8.1-2.42.24.24,0,0,0-.3,0c-1,.86,1.49,11.77,1,21.91-.53,11.47-5.36,22.64-5.36,22.91-1.53,3.06-3,1.58-2.43,5.33,1.1,7.87,11.16,5.37,9.57,37-.11,2.26,1.86,7.34,2.15,10.78.13,1.64,12.07.2,10.32-1.9C121.73,281,119,264.11,120.17,258.12Z" style="fill:none;stroke:#000;stroke-linejoin:round;stroke-width:0.5820000171661377px"/><path d="M264.78,266.18c-2.56-12.62-3.7-22.82-2.8-28s2.88-14.91-3.78-16.73c-5.83-1.59-11.81-.79-14.45,3-3,4.38,0,15.68,2.27,20.66.09,2.58.59,1.76,1.48,6.27,1.17,5.9-1.25,6,1.95,9.67,2.08,2.39,2.18,3.29,3.25,6.72,1.29,4.15.53,13.69,1.85,16.67a49.12,49.12,0,0,1,1.92,7.2c.58,2.4,18.27-1.73,17.62-2.71-3.61-5.42-7.85-15.67-9.3-22.82" style="fill:#fff"/><path d="M264.78,266.18c-2.56-12.62-3.7-22.82-2.8-28s2.88-14.91-3.78-16.73c-5.83-1.59-11.81-.79-14.45,3-3,4.38,0,15.68,2.27,20.66.09,2.58.59,1.76,1.48,6.27,1.17,5.9-1.25,6,1.95,9.67,2.08,2.39,2.18,3.29,3.25,6.72,1.29,4.15.53,13.69,1.85,16.67a49.12,49.12,0,0,1,1.92,7.2c.58,2.4,18.27-1.73,17.62-2.71C270.46,283.58,266.23,273.33,264.78,266.18Z" style="fill:none;stroke:#000;stroke-linejoin:round;stroke-width:0.5820000171661377px"/><path d="M256,295.89c2.85.14,14.63-.36,14.63-.36s-1.77-5.43-1.43-4.77a46.44,46.44,0,0,0,2.65,4.53l4.6-.29A36.55,36.55,0,0,0,272,285c-1.33-1.72-.77-1.73-4.2-1.79a75.63,75.63,0,0,0-13.07,1.43Z" style="fill:#fff"/><path d="M256,295.89c2.85.14,14.63-.36,14.63-.36s-1.77-5.43-1.43-4.77a46.44,46.44,0,0,0,2.65,4.53l4.6-.29A36.55,36.55,0,0,0,272,285c-1.33-1.72-.77-1.73-4.2-1.79a75.63,75.63,0,0,0-13.07,1.43Z" style="fill:none;stroke:#000;stroke-linejoin:round;stroke-width:0.5820000171661377px"/><path d="M120.37,228.54c.51,3.55,2.94,6.88,3.67,8.61a46.17,46.17,0,0,0,2.38,4.6c1.57,2.68,2.43,4,1.74,7.25,0,0-1.72,4.83,4.21,4.34,2.94-.25,3.34-3.27,5.17-4.75a18.9,18.9,0,0,0,7.86-.22c-.3,1.34-.84,3.84.09,5a1.8,1.8,0,0,0,.82.55,3.16,3.16,0,0,0,1.83,0c2-.67,3.15-3.41,4.34-6.08,1.38-3.09,6.26-3.23,9-4.21a32.69,32.69,0,0,0,10.29-6c1.08-.93,2.18-2.1,2.17-3.53,0-5.05-9.79-6.66-13.33-7.87-10.12-3.46-21.2-4.34-31.54-1.27a46.1,46.1,0,0,0-8.71,3.6" style="fill:#fff"/><path d="M120.37,228.54c.51,3.55,2.94,6.88,3.67,8.61a46.17,46.17,0,0,0,2.38,4.6c1.57,2.68,2.43,4,1.74,7.25,0,0-1.72,4.83,4.21,4.34,2.94-.25,3.34-3.27,5.17-4.75a18.9,18.9,0,0,0,7.86-.22c-.3,1.34-.84,3.84.09,5a1.8,1.8,0,0,0,.82.55,3.16,3.16,0,0,0,1.83,0c2-.67,3.15-3.41,4.34-6.08,1.38-3.09,6.26-3.23,9-4.21a32.69,32.69,0,0,0,10.29-6c1.08-.93,2.18-2.1,2.17-3.53,0-5.05-9.79-6.66-13.33-7.87-10.12-3.46-21.2-4.34-31.54-1.27A46.1,46.1,0,0,0,120.37,228.54Z" style="fill:none;stroke:#000;stroke-linejoin:round;stroke-width:0.5820000171661377px"/><path d="M288.78,168.32c-3-9.55-10.67-18.61-14.63-19.92-4.54-2.83-4.48-3.46-6.13-3.92h0c-5.25-1.45-19.29,2.17-44.36-7-7-2.57-13.49.18-20.17-1.68-21.29-5.92-44.12,2.13-55.47.84-5-.55-28.82-9.29-40.34,8-4,6.06-8.25,18.54-4.68,30.4.48,1.59,12.55,37,13.62,41.44,1.23,5,.27,11-.95,15.93-.36,1.45-.93,3.17-1.45,5h0c-.84,2.89-1.56,6-1,8.69,0,0,16.33,30.72,17.82,45.21,0,0,16.69-.76,14.84-5.42-3.46-8.73-15.37-26.7-6.23-40.47a58.36,58.36,0,0,0,6.69-16c4.32,4.07,24.78,5.72,27.51,6.54,15.74,4.81,33.84,1.47,44.48-1.3,5.15-1.35,8.56-2.55,9.08-2.64-.16.81-.84,8.39-1.09,16.79h0c-.22,7.13-.13,14.83.84,19.44.48,2.29-2.82,12.6-3.75,16.81-.32,1.41,1.78,3.42,3.15,3.42.2.81.39,4.82,1.52,5.63,3.12,2.17,12,2,13.71.77,3.39-2.53-3-7-2.18-18.1.09-1.18,7.79-39.68,8.11-39.8h0c.14,0,14.19,2.74,17.14,2,9.24,6.39,18,2.25,27.09-2.25,4.75-2.36,11.78-8,13.58-12.86,6.15-15.64-15.69-52.16-16.74-55.48" style="fill:#fff"/><path d="M288.78,168.32c-3-9.55-10.67-18.61-14.63-19.92-4.54-2.83-4.48-3.46-6.13-3.92h0c-5.25-1.45-19.29,2.17-44.36-7-7-2.57-13.49.18-20.17-1.68-21.29-5.92-44.12,2.13-55.47.84-5-.55-28.82-9.29-40.34,8-4,6.06-8.25,18.54-4.68,30.4.48,1.59,12.55,37,13.62,41.44,1.23,5,.27,11-.95,15.93-.36,1.45-.93,3.17-1.45,5h0c-.84,2.89-1.56,6-1,8.69,0,0,16.33,30.72,17.82,45.21,0,0,16.69-.76,14.84-5.42-3.46-8.73-15.37-26.7-6.23-40.47a58.36,58.36,0,0,0,6.69-16c4.32,4.07,24.78,5.72,27.51,6.54,15.74,4.81,33.84,1.47,44.48-1.3,5.15-1.35,8.56-2.55,9.08-2.64-.16.81-.84,8.39-1.09,16.79h0c-.22,7.13-.13,14.83.84,19.44.48,2.29-2.82,12.6-3.75,16.81-.32,1.41,1.78,3.42,3.15,3.42.2.81.39,4.82,1.52,5.63,3.12,2.17,12,2,13.71.77,3.39-2.53-3-7-2.18-18.1.09-1.18,7.79-39.68,8.11-39.8h0c.14,0,14.19,2.74,17.14,2,9.24,6.39,18,2.25,27.09-2.25,4.75-2.36,11.78-8,13.58-12.86C311.68,208.16,289.84,171.65,288.78,168.32Z" style="fill:none;stroke:#000;stroke-linejoin:round;stroke-width:0.5820000171661377px"/><path d="M153.38,136.61c-.46,5.5-4.93,9.22-7.45,13.8-3.22,5.87-.58,12.15-.54,18.4,0,2.81-.74,6-3.16,7.39-3.64,2.15-9,.51-8.75,6.63.14,3.46,1.84,6.53,1.73,10.06a18.67,18.67,0,0,1-3.16,9.84c-1.47,2.17-3.39,4-4.86,6.16-2.59,3.8-1.9,8.07-2.46,12.42a42.25,42.25,0,0,1-2.95,11.35c-.81,1.87-4.92,9.63-7.55,5.39" style="fill:none;stroke:#000;stroke-linejoin:round;stroke-width:0.5820000171661377px"/><path d="M251.68,143.93c1.87,3.51,7.06,11.07,4,13.94-4.12,3.92-9,8.3-6.64,14.63.68,1.79,1.88,3.35,2.55,5.14a2.79,2.79,0,0,1,.22,1.64c-.27,1.07-1.5,1.56-2.59,1.75-5.9,1-11.15-2.23-15.39-6-3.84-3.39-8-8.22-13.28-9.19a3.55,3.55,0,0,0-1.67,0,5.64,5.64,0,0,0-2,1.39c-3.7,3.31-8.51,4.07-13.31,4.06-7.24,0-15.2,0-22.19,2a40.48,40.48,0,0,0-7.47,3.26c-2,1.06-4.68,2.63-7.06,2a3,3,0,0,1-2-2.81c-.28-4.44,3.71-8.66,5.78-12.24,1.29-2.24,2-5.22.46-7.33s-4.11-2.37-6.26-3.26a9.48,9.48,0,0,1-5.35-5.44,17.21,17.21,0,0,1,0-11.23" style="fill:none;stroke:#000;stroke-linejoin:round;stroke-width:0.5820000171661377px"/><path d="M227.75,299.73c2.54.15,13-.34,13-.34s-1.58-5.44-1.28-4.77a48.35,48.35,0,0,0,2.37,4.53l4.1-.28a38.86,38.86,0,0,0-4.07-10c-1.18-1.72-.68-1.73-3.74-1.79a60.25,60.25,0,0,0-11.64,1.41Z" style="fill:#fff"/><path d="M227.75,299.73c2.54.15,13-.34,13-.34s-1.58-5.44-1.28-4.77a48.35,48.35,0,0,0,2.37,4.53l4.1-.28a38.86,38.86,0,0,0-4.07-10c-1.18-1.72-.68-1.73-3.74-1.79a60.25,60.25,0,0,0-11.64,1.41Z" style="fill:none;stroke:#000;stroke-linejoin:round;stroke-width:0.5820000171661377px"/><path d="M131.51,298.15c2.77.15,14.21-.36,14.21-.36s-1.72-5.43-1.39-4.77a46.78,46.78,0,0,0,2.58,4.53l4.47-.29a37,37,0,0,0-4.42-10c-1.29-1.72-.74-1.73-4.08-1.79a71.5,71.5,0,0,0-12.69,1.43Z" style="fill:#fff"/><path d="M131.51,298.15c2.77.15,14.21-.36,14.21-.36s-1.72-5.43-1.39-4.77a46.78,46.78,0,0,0,2.58,4.53l4.47-.29a37,37,0,0,0-4.42-10c-1.29-1.72-.74-1.73-4.08-1.79a71.5,71.5,0,0,0-12.69,1.43Z" style="fill:none;stroke:#000;stroke-linejoin:round;stroke-width:0.5820000171661377px"/><path d="M308.16,222.53l3.5-.05c-.29-.26-5.07-10.87-16.57-9.94-14.54,1.18-18,11.88-18.25,12.19l4.1-.19A23,23,0,0,1,295.37,218c7.17-.36,12.74,4.47,12.79,4.52" style="fill:#16498e"/><path d="M308.76,222.2a6.64,6.64,0,0,0,1.3-.46,15.57,15.57,0,0,0-14.39-8.07c-7.78.27-14.17,4.46-16.87,10.13l-.07.15-.77.85,1.3.22a6.58,6.58,0,0,1,1.13-1.16l-.12,0c2.6-4.93,8.43-8,15.45-8.81,4.72-.53,11.11,2.89,13.05,7.17" style="fill:#ef6623"/><path d="M307.18,221.81c-1.87-3-6-5.7-11.62-5.42-6.91.36-11.86,5-13,6.06h0a.44.44,0,0,1,0,.06c-.32.36-.61.74-.91,1.12l1.42.24.24-.26a19.66,19.66,0,0,1,12.28-5.55c6-.3,10.5,5,10.54,5Z" style="fill:#ef6623"/><path d="M302.48,292.82c-2.64-4.46-5.21-20.17-5.21-20.17l-5.3,5.52,2.4,16.64s9.16-.2,8.1-2" style="fill:#1c4075"/><path d="M296.68,285.52h0l.55,0,.56,0h.53a2.31,2.31,0,0,1,.4,0c.19,0,.39.07.58.12l.4.12a2.33,2.33,0,0,1,.61.33,3.05,3.05,0,0,1,.63.64,5.69,5.69,0,0,1,.39.6c.07.13.14.26.2.39s.15.35.22.53.09.24.13.36.06.17.09.26l.07.24a1.18,1.18,0,0,1,.07.25v0s0,.08,0,.13a.46.46,0,0,0,0,.16l0,.09a.11.11,0,0,0,0,.05.07.07,0,0,1,0,.06.07.07,0,0,0,0,.06.22.22,0,0,1,0,.1.22.22,0,0,0,0,0,.71.71,0,0,1,0,.19.21.21,0,0,0,0,.06s0,.09,0,.13v0a.17.17,0,0,0,0,.1.52.52,0,0,1,0,.16v.09c0,.09,0,.19.06.28s.08.47.1.71a.92.92,0,0,0,0,.22.59.59,0,0,1,0,.15c0,.08,0,.16,0,.25s0,.16,0,.23,0,.08,0,.13a.56.56,0,0,1,0,.1c0,.16,0,.33,0,.49a5.53,5.53,0,0,1-.06.63c0,.11,0,.21-.06.32s-.05.23-.09.34-.05.17-.09.26a2,2,0,0,1-.09.22c0,.07-.07.13-.1.2l-.07.13a3.53,3.53,0,0,1-.2.31l-.09.13-.19.23a3.87,3.87,0,0,1-.31.31l-.16.14-.24.18-.39.25-.28.15-.4.19-.54.21-.49.16-.37.1-.12,0-.2,0-.26,0-.37.05-.2,0-.22,0-.29,0-.27,0-.17,0-.14,0h-.57a.78.78,0,0,0-.15,0h-.88l-.28,0-.26,0-.16,0-.27-.06-.41-.11-.25-.08-.34-.14-.26-.13-.27-.16-.17-.11-.23-.17a2.12,2.12,0,0,1-.25-.21l-.18-.18-.09-.09-.09-.1-.1-.14a2,2,0,0,1-.18-.26.28.28,0,0,0-.07-.1c0-.09-.09-.17-.13-.26a1.07,1.07,0,0,1-.07-.14c0-.05-.06-.09-.07-.15s0,0,0-.05,0-.11-.06-.16l0-.07c0-.05,0-.12-.06-.17a.19.19,0,0,1,0-.08.27.27,0,0,0,0-.11c0-.05,0-.11,0-.16a1.12,1.12,0,0,0,0-.15c0-.09,0-.18-.06-.27a1,1,0,0,1,0-.19c0-.17-.05-.34-.08-.51a.75.75,0,0,0,0-.12.32.32,0,0,1,0-.07c0-.09,0-.19,0-.28a.27.27,0,0,1,0,0c0-.09,0-.19,0-.28a.86.86,0,0,1,0-.14.63.63,0,0,0,0-.16c0-.06,0-.13,0-.19s0-.27,0-.4,0-.16,0-.24a.74.74,0,0,1,0-.1,1,1,0,0,0,0-.12c0-.11,0-.22,0-.33s0-.1,0-.14,0-.18,0-.27,0-.17,0-.26,0-.37.05-.55a.66.66,0,0,1,0-.08.93.93,0,0,0,0-.14,3,3,0,0,1,0-.38,7,7,0,0,1,.19-.75,3.74,3.74,0,0,1,.48-1,2.34,2.34,0,0,1,.68-.66c.2-.12.4-.22.61-.33a3.54,3.54,0,0,1,.59-.22l.65-.17.66-.14.52-.09.46-.07.54-.07.43,0H296l.25,0,.45,0Zm-2,2.7-.8.1-.81.1-.67.09c-.06,0-.06,0-.05.06s0,.32,0,.48a.16.16,0,0,0,.06.14l.1.11a.06.06,0,0,0,.05,0c.24,0,.47-.06.71-.09l.84-.1.57-.07.88-.11.53-.07.66-.08.87-.11,1.08-.14.26,0a.08.08,0,0,0,.07,0l.08-.11a.08.08,0,0,0,0-.06l-.1-.6s0,0,0,0l-1.06.14-1.22.16-.8.1-.23,0h0l-1,.13" style="fill:#0099d6"/><path d="M299,287.78l.07.1.09.55a.08.08,0,0,1,0,.07l-.08.11a.08.08,0,0,1-.07,0l-.26,0-1.11.14-.89.11-.67.08-.54.07-.89.11-.58.07-.85.1c-.23,0-.46.08-.7.09l-.24-.29c-.21-.26-.39-.48-.47-.61-7.85-10-14.7-25.14-18-44.36l7.81-.16c2.81,15.89,11.21,35.15,17.4,43.74" style="fill:#16498e"/><path d="M299,287.64s0,0,0,0v.06l-.07-.1h0" style="fill:#0099d6"/></g><g style="clip-path:url(#clip-path-5)"><path d="M297.5,289.49l1.34-1C288.21,273.89,281.2,255,280.07,238c-.92-14-.56-24.29-.56-24.39l-1.65-.06c0,.1-.37,10.51.56,24.56,1.15,17.32,8.28,36.54,19.07,51.42" style="fill:#ef6623"/><path d="M294.15,290.9l1.31-1C270.6,257.27,275,214.67,275,214.24l-1.64-.18c0,.43-4.48,43.68,20.79,76.84" style="fill:#ef6623"/></g><g style="clip-path:url(#clip-path-2)"><path d="M270.28,231.87A101.07,101.07,0,0,0,271.73,244c.78,3.46,2.22,5.12,3,5.46a7,7,0,0,0,6.58-.66,4,4,0,0,0,1.12-1.83c.6-1.4.83-7.68.87-8.75a43.15,43.15,0,0,0-.62-8.49c-1-3.13-2.68-3.82-7.65-3.23a4.93,4.93,0,0,0-4.71,5.35m10.06-.21-8,.3-.11-2.91,8-.3Z" style="fill:#0099d6"/><rect x="296.37" y="273.82" width="1.65" height="11.76" transform="translate(-49.5 64.38) rotate(-11.42)" style="fill:#ef6623"/><path d="M341.66,229.61c-4.1-5.78-18.72-3.54-21.56-4.52-1.94-.68-4.32-4.32-9.9-2.7-.79-.35-.86-3.37-7.56-4.86-14.58-3.24-16,4.95-21.77,5.58-3.17.34-5.69.47-8.46,2.34-6.66,4.5-4.68,8.28-10.62,11.7s-6.25,6.11-5.94,7.2c0,0,4.32,6.12,17.35,1.45h.05c2.59-.23,7.45-3.9,7.69-4.14a10.38,10.38,0,0,0-.92,2.09,10.63,10.63,0,0,0-.56,3.33c0,4.19,2.37,3.74,1.94,7.48-.45,4,.32,4.18,2.38,8.69.84,1.85,1.57,3.45,1.69,8,.1,3.55.17,6.22,1,8.38a8.1,8.1,0,0,0,2.62,3.45,4.78,4.78,0,0,0,1.77.93c2.63,2.35,9.52,1.91,10.83.27a11.68,11.68,0,0,0,2.13-.6c2.78-.94,3.33-2.76,3.52-5.49h0c.25-3.92-.26-9.72,4-17.46,2.08-3.8,2.28-11.24,2.29-11.4.15-.58,1-2.36,1.35-3.4a3.49,3.49,0,0,0,.17-.63c.17-1.45-1-3.25-1.07-4.68-.65-4.05,9.32-1.31,10.5-1,7.46,2.1,6.45-1.91,12.24-4.34,2.61-.51,7-2.72,4.82-5.74" style="fill:#fff"/><path d="M341.66,229.61c-4.1-5.78-18.72-3.54-21.56-4.52-1.94-.68-4.32-4.32-9.9-2.7-.79-.35-.86-3.37-7.56-4.86-14.58-3.24-16,4.95-21.77,5.58-3.17.34-5.69.47-8.46,2.34-6.66,4.5-4.68,8.28-10.62,11.7s-6.25,6.11-5.94,7.2c0,0,4.32,6.12,17.35,1.45h.05c2.59-.23,7.45-3.9,7.69-4.14a10.38,10.38,0,0,0-.92,2.09,10.63,10.63,0,0,0-.56,3.33c0,4.19,2.37,3.74,1.94,7.48-.45,4,.32,4.18,2.38,8.69.84,1.85,1.57,3.45,1.69,8,.1,3.55.17,6.22,1,8.38a8.1,8.1,0,0,0,2.62,3.45,4.78,4.78,0,0,0,1.77.93c2.63,2.35,9.52,1.91,10.83.27a11.68,11.68,0,0,0,2.13-.6c2.78-.94,3.33-2.76,3.52-5.49h0c.25-3.92-.26-9.72,4-17.46,2.08-3.8,2.28-11.24,2.29-11.4.15-.58,1-2.36,1.35-3.4a3.49,3.49,0,0,0,.17-.63c.17-1.45-1-3.25-1.07-4.68-.65-4.05,9.32-1.31,10.5-1,7.46,2.1,6.45-1.91,12.24-4.34C339.45,234.83,343.81,232.62,341.66,229.61Z" style="fill:none;stroke:#000;stroke-linejoin:round;stroke-width:0.5820000171661377px"/><path d="M287.35,276.88c1.89-3.69,5.47.93,9.12,1.05s6.32-2.62,8.16-2.58,1.89,1.53,2.25,6.39c.15,2-2.86,2.48-4.95,3.15-3.29,1.06-12.23,1.11-14.85-2.7-.87-1.27-.67-3.46.27-5.31" style="fill:#fff"/><path d="M287.35,276.88c1.89-3.69,5.47.93,9.12,1.05s6.32-2.62,8.16-2.58,1.89,1.53,2.25,6.39c.15,2-2.86,2.48-4.95,3.15-3.29,1.06-12.23,1.11-14.85-2.7C286.21,280.92,286.41,278.73,287.35,276.88Z" style="fill:none;stroke:#000;stroke-linejoin:round;stroke-width:0.5820000171661377px"/><path d="M290.88,281c2.25.06,1.06,2.88,2,4.23a10.39,10.39,0,0,1-2.12-1.14c-1.14-.83-1.29-3.12.12-3.09" style="fill:#fff"/><path d="M290.88,281c2.25.06,1.06,2.88,2,4.23a10.39,10.39,0,0,1-2.12-1.14C289.63,283.28,289.48,281,290.88,281Z" style="fill:none;stroke:#000;stroke-linejoin:round;stroke-width:0.5820000171661377px"/><path d="M303.18,281.06c-1.87-.5-1,3.48-2.07,3.94a20.34,20.34,0,0,0,2-.72c1.34-.65,1.76-2.78.08-3.23" style="fill:#fff"/><path d="M303.18,281.06c-1.87-.5-1,3.48-2.07,3.94a20.34,20.34,0,0,0,2-.72C304.44,283.64,304.86,281.51,303.18,281.06Z" style="fill:none;stroke:#000;stroke-linejoin:round;stroke-width:0.5820000171661377px"/><path d="M305.76,251.62s0,2.08,2.9,2a2.61,2.61,0,0,0,2.24-1.42c.6-1,1.14-1.67.6-2.79-.37,1.3-.44,1.47-2,2.24a3.73,3.73,0,0,1-3.77,0" style="fill:#fff"/><path d="M305.76,251.62s0,2.08,2.9,2a2.61,2.61,0,0,0,2.24-1.42c.6-1,1.14-1.67.6-2.79-.37,1.3-.44,1.47-2,2.24A3.73,3.73,0,0,1,305.76,251.62Z" style="fill:none;stroke:#000;stroke-linejoin:round;stroke-width:0.5820000171661377px"/><path d="M283.07,249.85a5.14,5.14,0,0,0,1,1.5,4.38,4.38,0,0,0,2.9,1.42,1.47,1.47,0,0,0,1.58-1.08,3.54,3.54,0,0,0,.13-.67c-2.78.9-5.57-1.18-5.57-1.18" style="fill:#fff"/><path d="M283.07,249.85a5.14,5.14,0,0,0,1,1.5,4.38,4.38,0,0,0,2.9,1.42,1.47,1.47,0,0,0,1.58-1.08,3.54,3.54,0,0,0,.13-.67C285.86,251.93,283.07,249.85,283.07,249.85Z" style="fill:none;stroke:#000;stroke-linejoin:round;stroke-width:0.5820000171661377px"/><path d="M113.72,295.05c2.54.15,9.24-.34,9.24-.34s-1.59-5.44-1.28-4.77a48.19,48.19,0,0,0,2.37,4.53l4.1-.28a38.82,38.82,0,0,0-4.07-10c-1.18-1.72-.68-1.73-3.74-1.79a17.69,17.69,0,0,0-7.84,1.41Z" style="fill:#fff"/><path d="M113.72,295.05c2.54.15,9.24-.34,9.24-.34s-1.59-5.44-1.28-4.77a48.19,48.19,0,0,0,2.37,4.53l4.1-.28a38.82,38.82,0,0,0-4.07-10c-1.18-1.72-.68-1.73-3.74-1.79a17.69,17.69,0,0,0-7.84,1.41Z" style="fill:none;stroke:#000;stroke-linejoin:round;stroke-width:0.5820000171661377px"/><path d="M541,81.21l-8.52,0c.06-.47,1.59-10.4,3.68-16.52,3-8.81,8.36-12.38,9.39-12.88l9.29,1.55c-1.82.89-8.91,5.23-11.52,13.36-1.4,4.36-1.93,11.56-2.32,14.52" style="fill:#16498e"/><path d="M535.66,81.08h-1.58c0-.08,1.55-10.25,3.74-16.67,2.89-8.47,7.88-11.49,9.62-12.32l1.71.27a22.77,22.77,0,0,0-9.9,12.54c-2.11,6.18-3.58,16.1-3.59,16.18" style="fill:#ef6623"/><path d="M539.37,81.18l-1.81,0,.39-2.91a80.22,80.22,0,0,1,2.68-12.49c3-9.39,9.81-12.93,10.17-13.1l1.68.31a25.77,25.77,0,0,0-10.41,13.26,78.93,78.93,0,0,0-2.62,12.22Z" style="fill:#ef6623"/><path d="M139.6,264.36c.13,7.16-1.44,17.52-1.69,24.68-.17,4.78-1.66,9.3-2.6,14A83.35,83.35,0,0,0,134,316.15c-.15,3.84-2.85,12-.42,15.27,1.91,2.59,3.82,5.17,2,8.64-1.65,3.09-1.48.74-4.77,2a2.47,2.47,0,0,1-1.35.21,2.32,2.32,0,0,1-1.43-1.43,12.48,12.48,0,0,1-1-3.87c-1.14-9.64,1.62-18.75,4-27.94.76-2.91,1.35-5.88,1.83-8.9,5-31.8-2.89-65.59,6.06-80.93,6.4-11,19.31-9.73,20.18-8.81,4.31,4.54-20.51-1.68-19.47,54" style="fill:#fff"/><path d="M139.6,264.36c.13,7.16-1.44,17.52-1.69,24.68-.17,4.78-1.66,9.3-2.6,14A83.35,83.35,0,0,0,134,316.15c-.15,3.84-2.85,12-.42,15.27,1.91,2.59,3.82,5.17,2,8.64-1.65,3.09-1.48.74-4.77,2a2.47,2.47,0,0,1-1.35.21,2.32,2.32,0,0,1-1.43-1.43,12.48,12.48,0,0,1-1-3.87c-1.14-9.64,1.62-18.75,4-27.94.76-2.91,1.35-5.88,1.83-8.9,5-31.8-2.89-65.59,6.06-80.93,6.4-11,19.31-9.73,20.18-8.81C163.39,214.89,138.56,208.68,139.6,264.36Z" style="fill:none;stroke:#000;stroke-linejoin:round;stroke-width:0.5820000171661377px"/><path d="M145.71,215.17c-9.82,6-10.67,26.4-9.42,37.25,1-7.3,2.16-30.71,14-39.73Z" style="fill:#fff"/><path d="M145.71,215.17c-9.82,6-10.67,26.4-9.42,37.25,1-7.3,2.16-30.71,14-39.73Z" style="fill:none;stroke:#000;stroke-linejoin:round;stroke-width:0.5820000171661377px"/><path d="M192.46,353.18a65.38,65.38,0,0,1,1.38,19.4c-.82,15.24-2.68,15.78-1.18,23.07l.42,5.85c1.83,1.17,5.61-4.36,8.38-4.39,2.47,0,2.85,5.33,5,4.13.5-5.63,1.31-4.58.89-14.67-.6-7.1-2-3-2.36-18.5,1.55-11.75,3.43-40.07,3.23-40.15.1-1.46-3.44-2.19-5-2.45-3.41-.56-10.26-1.53-13.43.43-1.11-.08.91,18.87,2.73,27.27" style="fill:#fff"/><path d="M192.46,353.18a65.38,65.38,0,0,1,1.38,19.4c-.82,15.24-2.68,15.78-1.18,23.07l.42,5.85c1.83,1.17,5.61-4.36,8.38-4.39,2.47,0,2.85,5.33,5,4.13.5-5.63,1.31-4.58.89-14.67-.6-7.1-2-3-2.36-18.5,1.55-11.75,3.43-40.07,3.23-40.15.1-1.46-3.44-2.19-5-2.45-3.41-.56-10.26-1.53-13.43.43C188.62,325.83,190.63,344.79,192.46,353.18Z" style="fill:none;stroke:#000;stroke-linejoin:round;stroke-width:0.5820000171661377px"/><path d="M193.22,403.85a54.61,54.61,0,0,0,8,.35c.46-.06,1.26-4.72,1.26-4.72l.68,4.52s4.79.67,4.86-.25a65,65,0,0,0-.25-8.54,17.3,17.3,0,0,0-8-1.38,21.76,21.76,0,0,0-7.06,1.23s0,2.42.15,4.95a36.23,36.23,0,0,0,.38,3.84" style="fill:#fff"/><path d="M193.22,403.85a54.61,54.61,0,0,0,8,.35c.46-.06,1.26-4.72,1.26-4.72l.68,4.52s4.79.67,4.86-.25a65,65,0,0,0-.25-8.54,17.3,17.3,0,0,0-8-1.38,21.76,21.76,0,0,0-7.06,1.23s0,2.42.15,4.95A36.23,36.23,0,0,0,193.22,403.85Z" style="fill:none;stroke:#000;stroke-linejoin:round;stroke-width:0.5820000171661377px"/><path d="M150.72,339.91c5.13,22.85,4.1,16.34,2.74,27,1.36,7.18-.32,10.5-1.91,20.91l-.08,7.12c2.89,3.06,12.27,2.87,13.48,1.53s1.59-1,1.71-4.86c.33-11,2.53-10.93-1.26-20.65-1.33-11.88-1-16.52-.81-18.71a74.33,74.33,0,0,0,0-10c-.15-3.15.57-13.5.73-15.44.23-3,0-6.7-3.24-8-1.94-.8-14.26-4.81-14.37-4.5-1,2.73.73,15.22,3.06,25.6" style="fill:#fff"/><path d="M150.72,339.91c5.13,22.85,4.1,16.34,2.74,27,1.36,7.18-.32,10.5-1.91,20.91l-.08,7.12c2.89,3.06,12.27,2.87,13.48,1.53s1.59-1,1.71-4.86c.33-11,2.53-10.93-1.26-20.65-1.33-11.88-1-16.52-.81-18.71a74.33,74.33,0,0,0,0-10c-.15-3.15.57-13.5.73-15.44.23-3,0-6.7-3.24-8-1.94-.8-14.26-4.81-14.37-4.5C146.69,317,148.4,329.53,150.72,339.91Z" style="fill:none;stroke:#000;stroke-linejoin:round;stroke-width:0.5820000171661377px"/><path d="M151.34,396.93s7.2,2.52,9.25,2.24c.46-.06,1.19-5,1.19-5l.58,5.14s4.51-.66,4.58-1.55a75.77,75.77,0,0,0-.14-8.64,53.45,53.45,0,0,0-8.6-.27c-4.81.23-6.65-.82-6.65-.82Z" style="fill:#fff"/><path d="M151.34,396.93s7.2,2.52,9.25,2.24c.46-.06,1.19-5,1.19-5l.58,5.14s4.51-.66,4.58-1.55a75.77,75.77,0,0,0-.14-8.64,53.45,53.45,0,0,0-8.6-.27c-4.81.23-6.65-.82-6.65-.82Z" style="fill:none;stroke:#000;stroke-linejoin:round;stroke-width:0.5820000171661377px"/><path d="M122.25,274.27a53.11,53.11,0,0,0,1.38,8.29,57.34,57.34,0,0,0,3,9.39c3.7,8.21,22,27.09,32.26,29.12,3.11,1.65,3.43,2.73,3.46,5.64.07,5.56,1.85,8.38,3.78,11.84,0,.09,0,.19-.07.28,1.51,2.86,3,5.76,3.41,8.94a85.1,85.1,0,0,0,2.21,12.13c.4,1,3,31.24,1.57,38.9C172.57,402.57,189,402,189,402c0-.61,1-1.32.82-2.18-1.11-5.36-1.2-7.45-3-14.24a88,88,0,0,1-2-9.38c-1.57-9.27-2.77-40.26-1.79-48,1.27,1.47,9,2.53,12,2.49,3.81-.06,11.37-1.54,12.55-2.23.44,3.69-.45,38.66-.08,40,.93,3.41-.31,5-.86,10.66,1,6.95-.81,14.64-1.29,21.55,1.13,5.58.39.7,2.84,4.55,2,.77,15.44,6.29,16.22,1.95.27-1.45.77-1.82.51-3.31-1.43-7.95-9.27-42.82,3.37-76.82,2.79-8.29,3.28-10.61,5.93-22.78,4.31-7.84,6.83-7.12,10.3-17.27,2.4-7.81,2.48-16.8,1.5-24.69-2.9-24.58-9.45-13.49-5.11-32.61,1.54-6.77-2.8-10.56-8.62-18.76-.49-.52-2.64-9.45-6.31-9.42-.77-2.15-1.64-3.42-3.92-3.51-.1,0-.72-1.93-5.77-1.36h-.15a3.84,3.84,0,0,0-3.91.07c-2,1.22-3,1.16-6.08,2a31.37,31.37,0,0,1-8.1.83,24.61,24.61,0,0,1-7.06-1c-2.23-.67-3.95-2.2-6.13-2.88-4.47-1.39-9,.15-12.94,2.23a44.23,44.23,0,0,1-13.65,4.61,35.64,35.64,0,0,0-5.16,1,23,23,0,0,0-10.83,8c-3.26,4.26-3.79,10.09-6.24,14.82-1.65,3.19-4,5.93-5.73,9.1a68.51,68.51,0,0,0-5.43,13.14,72.27,72.27,0,0,0-2.65,25.72" style="fill:#fff"/><path d="M122.25,274.27a53.11,53.11,0,0,0,1.38,8.29,57.34,57.34,0,0,0,3,9.39c3.7,8.21,22,27.09,32.26,29.12,3.11,1.65,3.43,2.73,3.46,5.64.07,5.56,1.85,8.38,3.78,11.84,0,.09,0,.19-.07.28,1.51,2.86,3,5.76,3.41,8.94a85.1,85.1,0,0,0,2.21,12.13c.4,1,3,31.24,1.57,38.9C172.57,402.57,189,402,189,402c0-.61,1-1.32.82-2.18-1.11-5.36-1.2-7.45-3-14.24a88,88,0,0,1-2-9.38c-1.57-9.27-2.77-40.26-1.79-48,1.27,1.47,9,2.53,12,2.49,3.81-.06,11.37-1.54,12.55-2.23.44,3.69-.45,38.66-.08,40,.93,3.41-.31,5-.86,10.66,1,6.95-.81,14.64-1.29,21.55,1.13,5.58.39.7,2.84,4.55,2,.77,15.44,6.29,16.22,1.95.27-1.45.77-1.82.51-3.31-1.43-7.95-9.27-42.82,3.37-76.82,2.79-8.29,3.28-10.61,5.93-22.78,4.31-7.84,6.83-7.12,10.3-17.27,2.4-7.81,2.48-16.8,1.5-24.69-2.9-24.58-9.45-13.49-5.11-32.61,1.54-6.77-2.8-10.56-8.62-18.76-.49-.52-2.64-9.45-6.31-9.42-.77-2.15-1.64-3.42-3.92-3.51-.1,0-.72-1.93-5.77-1.36h-.15a3.84,3.84,0,0,0-3.91.07c-2,1.22-3,1.16-6.08,2a31.37,31.37,0,0,1-8.1.83,24.61,24.61,0,0,1-7.06-1c-2.23-.67-3.95-2.2-6.13-2.88-4.47-1.39-9,.15-12.94,2.23a44.23,44.23,0,0,1-13.65,4.61,35.64,35.64,0,0,0-5.16,1,23,23,0,0,0-10.83,8c-3.26,4.26-3.79,10.09-6.24,14.82-1.65,3.19-4,5.93-5.73,9.1a68.51,68.51,0,0,0-5.43,13.14A72.27,72.27,0,0,0,122.25,274.27Z" style="fill:none;stroke:#000;stroke-linejoin:round;stroke-width:0.5820000171661377px"/><path d="M134.15,249.85c-1.34-3.72-1.59-8.36,1.21-11.14,2-2,5.19-2.56,7.11-4.67,2.83-3.1,1.89-7.79,2.63-11.58.62-3.18,2-6.62,5.53-7.3a15.22,15.22,0,0,1,11.8,3.19c3,2.49,4.72,6.2,5.74,10s1.43,7.65,2.33,11.43a13.53,13.53,0,0,0,2.23,5.32c2.65,3.39,4.63,6,3.55,10.58-.87,3.72-3.29,6.51-5.47,9.53l-7.57,10.5c-1.1,1.52-2.3,3.12-4.06,3.76s-3.75.16-5.58-.33l-6.06-1.62a14.11,14.11,0,0,1-5.71-2.48,9.44,9.44,0,0,1-2.91-5.61c-.44-2.54,0-5.08-.38-7.61-.61-4.25-2.9-7.88-4.35-11.84l0-.1" style="fill:#fff"/><path d="M134.15,249.85c-1.34-3.72-1.59-8.36,1.21-11.14,2-2,5.19-2.56,7.11-4.67,2.83-3.1,1.89-7.79,2.63-11.58.62-3.18,2-6.62,5.53-7.3a15.22,15.22,0,0,1,11.8,3.19c3,2.49,4.72,6.2,5.74,10s1.43,7.65,2.33,11.43a13.53,13.53,0,0,0,2.23,5.32c2.65,3.39,4.63,6,3.55,10.58-.87,3.72-3.29,6.51-5.47,9.53l-7.57,10.5c-1.1,1.52-2.3,3.12-4.06,3.76s-3.75.16-5.58-.33l-6.06-1.62a14.11,14.11,0,0,1-5.71-2.48,9.44,9.44,0,0,1-2.91-5.61c-.44-2.54,0-5.08-.38-7.61-.61-4.25-2.9-7.88-4.35-11.84Z" style="fill:none;stroke:#000;stroke-linejoin:round;stroke-width:0.5820000171661377px"/><path d="M172.63,407.75s6.08,1,8.13.74c.46-.06,1.07-5.57,1.07-5.57l.68,5.53s8.88-.25,8.71-1.13c-.62-3.38-1.47-8.31-1.91-9.33s-3.52-1.22-8.33-1-7.37.1-7.62,1.22-.74,9.53-.74,9.53" style="fill:#fff"/><path d="M172.63,407.75s6.08,1,8.13.74c.46-.06,1.07-5.57,1.07-5.57l.68,5.53s8.88-.25,8.71-1.13c-.62-3.38-1.47-8.31-1.91-9.33s-3.52-1.22-8.33-1-7.37.1-7.62,1.22S172.63,407.75,172.63,407.75Z" style="fill:none;stroke:#000;stroke-linejoin:round;stroke-width:0.5820000171661377px"/><path d="M226.42,412.26s-4.79.53-5.12-.6-1.64-7-1.64-7,.79,6.68-.08,7.36-13.35.62-13.42-.27c-.25-3.27-1.4-10.23-.74-10.7,1.42-1,7.7-.53,12.51-.31s6-.35,6.24,0c.8,1.33,2.26,11.51,2.26,11.51" style="fill:#fff"/><path d="M226.42,412.26s-4.79.53-5.12-.6-1.64-7-1.64-7,.79,6.68-.08,7.36-13.35.62-13.42-.27c-.25-3.27-1.4-10.23-.74-10.7,1.42-1,7.7-.53,12.51-.31s6-.35,6.24,0C225,402.08,226.42,412.26,226.42,412.26Z" style="fill:none;stroke:#000;stroke-linejoin:round;stroke-width:0.5820000171661377px"/><path d="M214.5,297.48c2.73-5.81,4.07-25.49,4.07-25.49l7.18,6.19-1,20.82s-11.33.83-10.23-1.51" style="fill:#1c4075"/><line x1="223.77" y1="275.3" x2="222.24" y2="289.8" style="fill:none;stroke:#ef6623;stroke-miterlimit:10;stroke-width:2.506999969482422px"/><path d="M219.36,287.82h.73l.7,0,.65,0a3,3,0,0,1,.49.07c.23.06.47.11.71.19s.33.1.49.17a3,3,0,0,1,.73.45,4.12,4.12,0,0,1,.39.38,3.88,3.88,0,0,1,.35.45,6.68,6.68,0,0,1,.45.77c.08.16.15.33.22.49s.16.45.23.67.09.31.14.46.06.21.09.32l.08.31a1.49,1.49,0,0,1,.07.31s0,0,0,0,0,.1,0,.16a.55.55,0,0,0,0,.2s0,.07,0,.11a.14.14,0,0,0,0,.07.08.08,0,0,1,0,.07.08.08,0,0,0,0,.08.28.28,0,0,1,0,.13.25.25,0,0,0,0,.06.86.86,0,0,1,0,.24.3.3,0,0,0,0,.07s0,.11,0,.16,0,0,0,0a.22.22,0,0,0,0,.12.6.6,0,0,1,0,.2s0,.07,0,.11,0,.23.05.35c0,.29.07.59.08.89a1.14,1.14,0,0,0,0,.27.75.75,0,0,1,0,.18q0,.15,0,.31c0,.1,0,.19,0,.29s0,.1,0,.15a.64.64,0,0,1,0,.12c0,.2,0,.41,0,.61a6.54,6.54,0,0,1-.12.78c0,.13-.05.26-.09.39s-.08.28-.14.42-.08.21-.12.31a2.48,2.48,0,0,1-.13.27,2.76,2.76,0,0,0-.14.24,1,1,0,0,1-.09.16,4.41,4.41,0,0,1-.27.37s-.08.11-.12.15l-.26.27a5.07,5.07,0,0,1-.41.37l-.21.16-.31.21-.5.29-.35.17a5.25,5.25,0,0,1-.51.21c-.22.08-.45.16-.68.23s-.41.12-.61.16l-.46.1-.15,0-.25,0-.32,0-.46,0h-.25l-.28,0h-1.78a1,1,0,0,0-.19,0l-.3,0-.34,0-.14,0-.17,0-.12,0-.34-.07-.32-.07-.19-.05-.33-.1c-.16-.06-.33-.1-.5-.17l-.3-.12a3.69,3.69,0,0,1-.41-.2c-.11-.06-.22-.11-.32-.18l-.33-.21-.2-.15c-.1-.07-.18-.15-.27-.23a2.72,2.72,0,0,1-.29-.28c-.07-.08-.14-.15-.21-.23l-.11-.12-.1-.13-.11-.18a2.64,2.64,0,0,1-.21-.34.32.32,0,0,0-.08-.13c0-.11-.1-.21-.15-.33a1.55,1.55,0,0,1-.08-.18c0-.06-.07-.12-.07-.19s0,0,0-.07,0-.13-.06-.2l0-.1c0-.07,0-.14-.06-.21a.23.23,0,0,1,0-.1.35.35,0,0,0,0-.14c0-.07,0-.14,0-.2a1.31,1.31,0,0,0,0-.18c0-.11,0-.23-.06-.34a1.19,1.19,0,0,1,0-.23c0-.21,0-.42-.07-.63,0,0,0-.09,0-.14a.46.46,0,0,1,0-.08c0-.11,0-.23,0-.34a.22.22,0,0,1,0-.05c0-.12,0-.23,0-.35a1.07,1.07,0,0,1,0-.17.79.79,0,0,0,0-.19c0-.08,0-.16,0-.24s0-.33,0-.5,0-.2,0-.3a.78.78,0,0,1,0-.12c0-.05,0-.1,0-.15s0-.27,0-.41,0-.12,0-.18,0-.22,0-.33,0-.21,0-.32.06-.45.1-.68c0,0,0-.07,0-.1a1.14,1.14,0,0,0,0-.17,3.86,3.86,0,0,1,.08-.46,9,9,0,0,1,.29-.92,4.63,4.63,0,0,1,.67-1.23,2.9,2.9,0,0,1,.88-.77c.25-.14.52-.25.78-.36a4.33,4.33,0,0,1,.74-.23c.27-.07.54-.12.81-.17l.83-.12c.22,0,.43-.06.65-.08l.57-.06.67-.05.53,0h.15l.31,0,.55,0Zm-2.62,3.2-1,.07-1,.07-.84.06c-.07,0-.07,0-.07.08s0,.4,0,.59a.2.2,0,0,0,.06.17,1.16,1.16,0,0,1,.12.14.08.08,0,0,0,.07,0c.3,0,.59,0,.88-.06l1-.07.71,0,1.09-.07.66,0,.82-.06,1.08-.08,1.35-.09.32,0a.1.1,0,0,0,.09-.05l.1-.13a.1.1,0,0,0,0-.08c0-.25-.05-.49-.08-.74,0-.05,0-.05-.06-.05l-1.32.1-1.51.11-1,.07-.28,0h0l-1.23.09" style="fill:#0099d6"/><path d="M222.08,290.78l.08.13q0,.34.07.68a.1.1,0,0,1,0,.08l-.11.14a.11.11,0,0,1-.09.05l-.33,0-1.38.09-1.1.08-.84.06-.67,0-1.11.08-.72.05-1.06.07c-.29,0-.58.06-.87.06l-.28-.37a9.26,9.26,0,0,1-.53-.79c-9-12.95-16.44-32.12-19.21-56.13l9.68.34c2.38,19.86,11.43,44.27,18.5,55.32" style="fill:#16498e"/><path d="M222.08,290.6c.05,0,.05,0,.06.05v.08l-.08-.12h0" style="fill:#0099d6"/></g><g style="clip-path:url(#clip-path-7)"><path d="M202.09,197.52s-1.18,12.72-1,30.33c.22,21.3,7.78,45.61,19.88,64.39" style="fill:none;stroke:#ef6623;stroke-miterlimit:10;stroke-width:2.506999969482422px"/><path d="M196.47,198s-8.84,52.83,20.24,95.77" style="fill:none;stroke:#ef6623;stroke-miterlimit:10;stroke-width:2.506999969482422px"/></g><g style="clip-path:url(#clip-path-2)"><path d="M190.41,219.61a125.16,125.16,0,0,0,1,15.14c.73,4.34,2.4,6.48,3.27,7,3.64,2,7.69,0,8.19-.36a4.93,4.93,0,0,0,1.51-2.19c.84-1.69,1.56-9.44,1.68-10.77a53.39,53.39,0,0,0-.18-10.55c-1-3.93-3-4.91-9.24-4.53,0,0-6.06-.06-6.19,6.29m12.46.43-9.86-.18.07-3.61,9.86.18Z" style="fill:#0099d6"/><path d="M222.55,201.22l3.35-1c-.35-.17-7.82-9.1-18.64-5.09-13.68,5.07-14.08,16.29-14.27,16.67l3.89-1.29A23,23,0,0,1,209,200.32c6.8-2.29,13.47.86,13.54.9" style="fill:#16498e"/><path d="M223,200.74s1.19-.73,1.13-.8a15.57,15.57,0,0,0-16-3.88c-7.42,2.37-12.43,8.13-13.51,14.32,0,.07,0,.12,0,.16l-.52,1,1.32-.14a6.56,6.56,0,0,1,.78-1.42H196c1.17-5.45,5.95-10,12.49-12.66,4.4-1.79,11.48-.23,14.51,3.38" style="fill:#ef6623"/><path d="M221.4,200.79c-2.62-2.42-7.34-3.86-12.66-2.08-6.56,2.21-10.08,8-10.88,9.35h0a.49.49,0,0,1,0,.07c-.21.44-.39.88-.57,1.33l1.43-.15.16-.32a19.67,19.67,0,0,1,10.32-8.66c5.72-1.92,11.46,2,11.51,2Z" style="fill:#ef6623"/><path d="M170,220.12c.6,1,3.75,2.78,5.31,3.27,4.92,1.54,1.85,1.12,6.38,6.11s13.6-5.54,16.14-1.57c3.55,5.54.05,13.28,1.25,18.21a69,69,0,0,0,2.9,8.31c.2.51.72,1.85.86,2.38.5,1.78-.4,7.17.16,8.51a13,13,0,0,0,2.28,5.49c2.46,3.27,12,4.5,18.06,3.77l.4,0c3.69-.49,7-1.7,9.11-3.91,1.13-1.21,2.61-2.59,3-4.66,1.27-6.3-1.18-11-.39-13.31s5.28-5.81,4.7-11.69c0,0,0-.07,0-.1-.56-5.84.78-12.22,3.41-13.75,1.19-.7,2.8.47,4,1.43,1.42.34,4.3,2.75,6.73.87,3.33-2.56,6.62-3,9.55-4.67,4-2.4,7.54-4.39,8.88-8.36,1.23-4.36-2.63-7.51-6.11-9.5s-8.09-3.4-11.34-2.65c-2.56.58-13.48,8.94-17.88,5.26-1.19-2.94-2.75-4.2-4.51-6.52a6.72,6.72,0,0,1-1-2.83,11.18,11.18,0,0,0-1.4-3.84c-1.3-2-3.41-3.15-5.55-4.1a14.53,14.53,0,0,0-6.8-1.64,9.72,9.72,0,0,0-4.46,1.81,119.9,119.9,0,0,0-9.79,7.22,18.61,18.61,0,0,0-4.8,5.83c-.81,1.63-.61,6.42-13.35,1.56-5.24-2-12.71.91-15.1,5.54-1.89,2.49-3.08,5.51-.71,7.57" style="fill:#fff"/><path d="M170,220.12c.6,1,3.75,2.78,5.31,3.27,4.92,1.54,1.85,1.12,6.38,6.11s13.6-5.54,16.14-1.57c3.55,5.54.05,13.28,1.25,18.21a69,69,0,0,0,2.9,8.31c.2.51.72,1.85.86,2.38.5,1.78-.4,7.17.16,8.51a13,13,0,0,0,2.28,5.49c2.46,3.27,12,4.5,18.06,3.77l.4,0c3.69-.49,7-1.7,9.11-3.91,1.13-1.21,2.61-2.59,3-4.66,1.27-6.3-1.18-11-.39-13.31s5.28-5.81,4.7-11.69c0,0,0-.07,0-.1-.56-5.84.78-12.22,3.41-13.75,1.19-.7,2.8.47,4,1.43,1.42.34,4.3,2.75,6.73.87,3.33-2.56,6.62-3,9.55-4.67,4-2.4,7.54-4.39,8.88-8.36,1.23-4.36-2.63-7.51-6.11-9.5s-8.09-3.4-11.34-2.65c-2.56.58-13.48,8.94-17.88,5.26-1.19-2.94-2.75-4.2-4.51-6.52a6.72,6.72,0,0,1-1-2.83,11.18,11.18,0,0,0-1.4-3.84c-1.3-2-3.41-3.15-5.55-4.1a14.53,14.53,0,0,0-6.8-1.64,9.72,9.72,0,0,0-4.46,1.81,119.9,119.9,0,0,0-9.79,7.22,18.61,18.61,0,0,0-4.8,5.83c-.81,1.63-.61,6.42-13.35,1.56-5.24-2-12.71.91-15.1,5.54C168.84,215,167.66,218.06,170,220.12Z" style="fill:none;stroke:#000;stroke-linejoin:round;stroke-width:0.5820000171661377px"/><path d="M229.56,265.23c-.29-1.52,4-4.45.18-10.08-1.16-1.7-3.65-3.25-5.71-2.69a15.08,15.08,0,0,1-7.9.32c-2.85-.81-3.89-1.17-5.39.08-1.88,1.56-5.16,6.41-3.45,9.38,1.93,3.36,1.71,1.82,1.88,2.89s-2,5.47,8,6.26c8.17.65,13.1-2.79,12.44-6.16" style="fill:#fff"/><path d="M229.56,265.23c-.29-1.52,4-4.45.18-10.08-1.16-1.7-3.65-3.25-5.71-2.69a15.08,15.08,0,0,1-7.9.32c-2.85-.81-3.89-1.17-5.39.08-1.88,1.56-5.16,6.41-3.45,9.38,1.93,3.36,1.71,1.82,1.88,2.89s-2,5.47,8,6.26C225.28,272,230.21,268.59,229.56,265.23Z" style="fill:none;stroke:#000;stroke-linejoin:round;stroke-width:0.5820000171661377px"/><path d="M210.15,256.74a4.82,4.82,0,0,0,1.19,1.26c1,.6,2.58,1.73.86,2.94-1.12.79-2.25-.64-2.59-2-.39-1.54.41-2.36.54-2.21" style="fill:#fff"/><path d="M210.15,256.74a4.82,4.82,0,0,0,1.19,1.26c1,.6,2.58,1.73.86,2.94-1.12.79-2.25-.64-2.59-2C209.23,257.41,210,256.59,210.15,256.74Z" style="fill:none;stroke:#000;stroke-linejoin:round;stroke-width:0.5820000171661377px"/><path d="M228.09,256.74c.21,0,1.12.7.39,2.74-.57,1.6-1.79,2.17-2.83,1.89s-1.84-1.26-.57-2.1c2.73-1.82,2.65-2.56,3-2.52" style="fill:#fff"/><path d="M228.09,256.74c.21,0,1.12.7.39,2.74-.57,1.6-1.79,2.17-2.83,1.89s-1.84-1.26-.57-2.1C227.81,257.45,227.74,256.7,228.09,256.74Z" style="fill:none;stroke:#000;stroke-linejoin:round;stroke-width:0.5820000171661377px"/><path d="M205.71,229a3.18,3.18,0,0,0-.39-1.07c-.26-.53.07-1.28-.43-2.28-1.15-2.38-3.16-2.94-5.48-1.77.32,0,.19,3.12,2.32,3.89a8.51,8.51,0,0,0,2.39.36c.52.07,1.48,1.48,1.59.86" style="fill:#fff"/><path d="M205.71,229a3.18,3.18,0,0,0-.39-1.07c-.26-.53.07-1.28-.43-2.28-1.15-2.38-3.16-2.94-5.48-1.77.32,0,.19,3.12,2.32,3.89a8.51,8.51,0,0,0,2.39.36C204.65,228.21,205.61,229.62,205.71,229Z" style="fill:none;stroke:#000;stroke-linejoin:round;stroke-width:0.5820000171661377px"/><path d="M233.55,228a1.45,1.45,0,0,0-.16.81c.13.69.86-.44,1.43-.53a11.7,11.7,0,0,0,2.65-.49c2-.89,2.13-4.38,2.47-4.44-2.59-1.24-4.78-.57-6,2.11-.51,1.11-.14,1.94-.41,2.54" style="fill:#fff"/><path d="M233.55,228a1.45,1.45,0,0,0-.16.81c.13.69.86-.44,1.43-.53a11.7,11.7,0,0,0,2.65-.49c2-.89,2.13-4.38,2.47-4.44-2.59-1.24-4.78-.57-6,2.11C233.45,226.58,233.82,227.41,233.55,228Z" style="fill:none;stroke:#000;stroke-linejoin:round;stroke-width:0.5820000171661377px"/><polygon points="552.77 127.87 562.5 101.06 555.05 103.28 547.01 128.45 552.77 127.87" style="fill:#1c4075"/><polygon points="552.51 126.3 558.8 107.42 557.48 107.63 551.19 126.5 552.51 126.3" style="fill:#ef6623"/><polygon points="549.73 125.59 556.02 106.72 554.7 106.92 548.4 125.8 549.73 125.59" style="fill:#ef6623"/><path d="M550.63,125.22h.94l.43,0a1.94,1.94,0,0,1,.32,0c.15,0,.31.07.46.12l.32.11a1.94,1.94,0,0,1,.48.29,2.6,2.6,0,0,1,.26.24,2.55,2.55,0,0,1,.23.3,4.5,4.5,0,0,1,.3.5c.05.1.1.21.15.32s.11.29.16.44.06.2.1.3,0,.14.06.21l.05.2a.94.94,0,0,1,0,.2v0s0,.07,0,.1a.4.4,0,0,0,0,.13l0,.07s0,0,0,0a.06.06,0,0,1,0,0,.05.05,0,0,0,0,0,.17.17,0,0,1,0,.08.24.24,0,0,0,0,0,.56.56,0,0,1,0,.16v0s0,.07,0,.1h0a.15.15,0,0,0,0,.08.41.41,0,0,1,0,.13v.07c0,.08,0,.15,0,.23s0,.39.06.58a.72.72,0,0,0,0,.18.54.54,0,0,1,0,.12c0,.07,0,.13,0,.2s0,.13,0,.19,0,.07,0,.1a.44.44,0,0,1,0,.08c0,.13,0,.27,0,.4a4.11,4.11,0,0,1-.07.51c0,.08,0,.17-.06.26s-.05.19-.09.28l-.08.2c0,.06,0,.12-.08.18l-.09.16-.06.1c-.06.08-.11.17-.18.25l-.08.1-.17.18a3,3,0,0,1-.26.24l-.13.11-.2.14-.33.19-.23.11-.33.14-.44.15-.4.11-.3.07-.1,0-.16,0-.21,0-.3,0h-.16l-.18,0h-1.17a.57.57,0,0,0-.12,0h-.2l-.22,0-.09,0-.11,0h-.08l-.22,0-.21,0-.13,0-.21-.06-.33-.11-.2-.08-.27-.12-.21-.12-.21-.14-.13-.1-.18-.15a1.69,1.69,0,0,1-.2-.18l-.14-.15-.07-.08-.07-.08-.08-.12a1.68,1.68,0,0,1-.14-.22.2.2,0,0,0-.05-.08c0-.08-.07-.14-.1-.21s0-.08-.05-.12,0-.08,0-.12,0,0,0,0,0-.09,0-.13l0-.06s0-.09,0-.14a.15.15,0,0,1,0-.06.24.24,0,0,0,0-.09s0-.09,0-.13a.75.75,0,0,0,0-.12c0-.07,0-.15,0-.22a.84.84,0,0,1,0-.15l0-.41a.6.6,0,0,0,0-.09.24.24,0,0,1,0-.05c0-.08,0-.15,0-.23a.19.19,0,0,1,0,0c0-.08,0-.15,0-.23a.82.82,0,0,1,0-.11.53.53,0,0,0,0-.13c0-.05,0-.1,0-.16s0-.22,0-.32,0-.13,0-.2a.39.39,0,0,1,0-.08s0-.07,0-.1,0-.18,0-.27,0-.08,0-.12,0-.15,0-.22,0-.14,0-.21,0-.3.06-.44,0,0,0-.06a.9.9,0,0,0,0-.11,2.65,2.65,0,0,1,.05-.3,5.62,5.62,0,0,1,.18-.6,3,3,0,0,1,.43-.81,1.91,1.91,0,0,1,.57-.51c.16-.09.34-.17.51-.24a2.81,2.81,0,0,1,.48-.16l.53-.12.54-.09.43-.05.37,0,.44,0,.35,0h.3l.36,0Zm-1.69,2.12-.65.06-.66.06-.55,0s0,0,0,.05,0,.26,0,.39a.13.13,0,0,0,0,.11l.08.09a0,0,0,0,0,0,0c.19,0,.38,0,.58,0l.68-.05.46,0,.71-.06.43,0,.54,0,.71-.06.88-.07.21,0a.07.07,0,0,0,.06,0l.07-.09a.06.06,0,0,0,0-.05l-.06-.49s0,0,0,0l-.86.07-1,.08-.65.05h-.18l-.81.07" style="fill:#0099d6"/><path d="M552.43,127.14l.05.08.05.45a.07.07,0,0,1,0,.05l-.07.09a.07.07,0,0,1-.06,0l-.21,0-.9.07-.72.06-.55,0-.44,0-.73.06-.47,0-.69.05c-.19,0-.38,0-.57,0l-.18-.24a6.15,6.15,0,0,1-.36-.51c-6-8.4-11-20.89-13-36.58l6.34.15c1.71,13,7.82,28.88,12.53,36.06" style="fill:#16498e"/><path d="M552.43,127s0,0,0,0v0l-.05-.08Z" style="fill:#0099d6"/></g><g style="clip-path:url(#clip-path-9)"><path d="M551.15,128.47l1.12-.74c-8.08-12.24-13.09-27.8-13.39-41.63-.25-11.35.41-19.7.42-19.78L538,66.21c0,.08-.67,8.5-.43,19.92.31,14.07,5.39,29.9,13.61,42.34" style="fill:#ef6623"/><path d="M548.39,129.49l1.1-.76c-19-27.33-13.92-61.69-13.86-62l-1.32-.2c-.05.35-5.2,35.22,14.09,63" style="fill:#ef6623"/></g><g style="clip-path:url(#clip-path-2)"><path d="M531.17,80.81a82,82,0,0,0,.74,9.9c.51,2.83,1.62,4.22,2.19,4.53a5.71,5.71,0,0,0,5.36-.3,3.21,3.21,0,0,0,1-1.44c.53-1.11,1-6.19,1-7.06a34.82,34.82,0,0,0-.2-6.9c-.66-2.57-2-3.19-6.08-2.89a4,4,0,0,0-4,4.16m8.16.19-6.45,0,0-2.36,6.45,0Z" style="fill:#0099d6"/><polygon points="187.22 286.79 187.22 297.92 42.05 222.48 41.83 211.36 187.22 286.79" style="fill:#f0ecec"/><polyline points="187.22 286.79 187.22 297.92 42.05 222.48 41.83 211.36 187.22 286.79" style="fill:none;stroke:#000;stroke-linejoin:round;stroke-width:0.5820000171661377px"/><polygon points="187.22 380.45 187.22 391.57 40.95 314.18 41.35 301.76 187.22 380.45" style="fill:#f0ecec"/><polyline points="187.22 380.45 187.22 391.57 40.95 314.18 41.35 301.76 187.22 380.45" style="fill:none;stroke:#000;stroke-linejoin:round;stroke-width:0.5820000171661377px"/><path d="M39.79,368.61h0a4.56,4.56,0,0,0,6.72-4L48,188.91a5.3,5.3,0,1,0-10.6,0V364.6a4.56,4.56,0,0,0,2.4,4" style="fill:#f0ecec"/><path d="M39.79,368.61h0a4.56,4.56,0,0,0,6.72-4L48,188.91a5.3,5.3,0,1,0-10.6,0V364.6A4.56,4.56,0,0,0,39.79,368.61Z" style="fill:none;stroke:#000;stroke-linejoin:round;stroke-width:0.5820000171661377px"/><polyline points="597.54 73.8 551.17 98.11 547.59 99.98 545.13 101.28 507.05 121.23 506.66 121.44 506.65 121.44 481.5 134.62 480.55 135.11 457.71 147.09 433.8 159.62 433.77 159.63 416.54 168.67 403.04 175.75 388.08 183.58 387.56 183.86 387.12 184.08 385.74 184.82 385.73 184.82 384.77 185.32 384.76 185.33 377.52 189.13 359.55 198.55 314.51 222.15 314.5 222.15 308.13 225.49 302.58 228.4 285.13 237.55 281.46 239.47 276.39 242.13 276.38 242.14 266.24 247.46 266.23 247.46 262.12 249.61 247.7 257.17 245.44 258.35 242.91 259.69 236.25 263.18 235.72 263.45 231.45 265.68 229.48 266.72 227.11 267.96 220.53 271.42 220.52 271.42 216.08 273.74 215.03 274.3 215.02 274.3 214.68 274.49 214.67 274.49 193.26 285.71 192.09 286.32 192.09 297.45 193.26 296.84 224.58 280.41 240.44 272.1 246.54 268.9 252.12 265.97 263.6 259.95 280.61 251.02 287.98 247.16 290.73 245.73 312.49 234.3 329.3 225.49 361.58 208.57 377.58 200.18 389.27 194.05 396.53 190.23 396.54 190.23 402.17 187.28 404.95 185.82 405.72 185.42 405.73 185.42 412.4 181.91 422.01 176.87 422.02 176.87 437.34 168.83 483.73 144.51 484.59 144.05 484.72 143.98 503.12 134.34 505.12 133.29 547.89 110.86 574.99 96.65 574.99 96.64 597.63 84.78" style="fill:#f0ecec"/><polyline points="597.54 73.8 551.17 98.11 547.59 99.98 545.13 101.28 507.05 121.23 506.66 121.44 506.65 121.44 481.5 134.62 480.55 135.11 457.71 147.09 433.8 159.62 433.77 159.63 416.54 168.67 403.04 175.75 388.08 183.58 387.56 183.86 387.12 184.08 385.74 184.82 385.73 184.82 384.77 185.32 384.76 185.33 377.52 189.13 359.55 198.55 314.51 222.15 314.5 222.15 308.13 225.49 302.58 228.4 285.13 237.55 281.46 239.47 276.39 242.13 276.38 242.14 266.24 247.46 266.23 247.46 262.12 249.61 247.7 257.17 245.44 258.35 242.91 259.69 236.25 263.18 235.72 263.45 231.45 265.68 229.48 266.72 227.11 267.96 220.53 271.42 220.52 271.42 216.08 273.74 215.03 274.3 215.02 274.3 214.68 274.49 214.67 274.49 193.26 285.71 192.09 286.32 192.09 297.45 193.26 296.84 224.58 280.41 240.44 272.1 246.54 268.9 252.12 265.97 263.6 259.95 280.61 251.02 287.98 247.16 290.73 245.73 312.49 234.3 329.3 225.49 361.58 208.57 377.58 200.18 389.27 194.05 396.53 190.23 396.54 190.23 402.17 187.28 404.95 185.82 405.72 185.42 405.73 185.42 412.4 181.91 422.01 176.87 422.02 176.87 437.34 168.83 483.73 144.51 484.59 144.05 484.72 143.98 503.12 134.34 505.12 133.29 547.89 110.86 574.99 96.65 574.99 96.64 597.63 84.78" style="fill:none;stroke:#000;stroke-linejoin:round;stroke-width:0.5820000171661377px"/><polygon points="192.09 379.98 192.09 391.1 605.38 169.41 604.97 156.99 192.09 379.98" style="fill:#f0ecec"/><polyline points="192.09 379.98 192.09 391.1 605.38 169.41 604.97 156.99 192.09 379.98" style="fill:none;stroke:#000;stroke-linejoin:round;stroke-width:0.5820000171661377px"/><path d="M190.86,427.67h0a4.56,4.56,0,0,1-6.72-4L182.66,248a5.3,5.3,0,1,1,10.6,0V423.66a4.56,4.56,0,0,1-2.4,4" style="fill:#f0ecec"/><path d="M190.86,427.67h0a4.56,4.56,0,0,1-6.72-4L182.66,248a5.3,5.3,0,1,1,10.6,0V423.66A4.56,4.56,0,0,1,190.86,427.67Z" style="fill:none;stroke:#000;stroke-linejoin:round;stroke-width:0.5820000171661377px"/><path d="M605.37,210.53h0a4.56,4.56,0,0,1-6.72-4L597.17,30.83a5.3,5.3,0,1,1,10.6,0V206.52a4.56,4.56,0,0,1-2.4,4" style="fill:#f0ecec"/><path d="M605.37,210.53h0a4.56,4.56,0,0,1-6.72-4L597.17,30.83a5.3,5.3,0,1,1,10.6,0V206.52A4.56,4.56,0,0,1,605.37,210.53Z" style="fill:none;stroke:#000;stroke-linejoin:round;stroke-width:0.5820000171661377px"/><path d="M580.25,36.11a1.05,1.05,0,0,1-.49.51,1.07,1.07,0,0,1-1.43-.47A25.56,25.56,0,0,0,544,24.92a1.07,1.07,0,1,1-1-1.9,27.69,27.69,0,0,1,37.18,12.17,1.06,1.06,0,0,1,0,.93" style="fill:#0096cf"/><path d="M575.61,40.69a1.07,1.07,0,0,1-1.92,0,21.21,21.21,0,0,0-28.48-9.32,1.07,1.07,0,0,1-1-1.9,23.35,23.35,0,0,1,31.34,10.26,1.07,1.07,0,0,1,0,.93" style="fill:#0096cf"/><path d="M570.81,44.79a1.08,1.08,0,0,1-.48.51,1,1,0,0,1-1.39-.45A15.93,15.93,0,0,0,547,37.77a1,1,0,0,1-1.39-.45,1.09,1.09,0,0,1,.47-1.43,18,18,0,0,1,24.69,8,1.08,1.08,0,0,1,0,.92" style="fill:#0096cf"/><path d="M327,194.82a1.07,1.07,0,0,1-1.92,0,25.56,25.56,0,0,0-34.35-11.12,1.07,1.07,0,0,1-1-1.9A27.69,27.69,0,0,1,327,193.9a1.07,1.07,0,0,1,0,.93" style="fill:#0096cf"/><path d="M322.42,199.41a1.07,1.07,0,0,1-1.92,0A21.21,21.21,0,0,0,292,190.23a1.07,1.07,0,1,1-1-1.9,23.35,23.35,0,0,1,31.38,10.16,1.07,1.07,0,0,1,0,.93" style="fill:#0096cf"/><path d="M317.64,203.53a1.09,1.09,0,0,1-.48.51,1,1,0,0,1-1.39-.44,15.93,15.93,0,0,0-21.94-7,1,1,0,0,1-1.39-.44,1.09,1.09,0,0,1,.47-1.43,18,18,0,0,1,24.72,7.9,1.08,1.08,0,0,1,0,.92" style="fill:#0096cf"/><path d="M547.74,111.36c1.8,3.9,6.36,5.13,10.3,5.21a23.74,23.74,0,0,0,7.5-1c1-.32,2-.76,3.09-1.08a6.16,6.16,0,0,0,2.85-1.34,15.6,15.6,0,0,0,3.11-5.84,21.2,21.2,0,0,0,.93-7.72c-.09-1.22-.53-2.39-.61-3.59a9.76,9.76,0,0,1,.94-3.84c.91-2.44,2-4.82,2.79-7.29q.64-1.91,1.19-3.85c.14-.49.21-2,.62-2.37s1.64,0,2.17.09a14.21,14.21,0,0,1,3,1.34,10.38,10.38,0,0,0,6.63,1.2,34.93,34.93,0,0,0,7.08-1.86,26.64,26.64,0,0,0,6.39-3.2c1.52-1.06,3.28-1.92,2.72-4-1.23-4.69-6.3-5.66-10.5-5.84a22.88,22.88,0,0,0-7.59.93c-2.18.65-4.61,1.89-6.93,1.81a2.18,2.18,0,0,1-2.06-1.54,13.35,13.35,0,0,0-2-2.84c-1.51-1.86-2.67-3.91-4.1-5.82-2.58-3.42-6.74-4.75-10.86-5.11s-9-.51-13,.93a16.57,16.57,0,0,0-6.05,4,10.52,10.52,0,0,1-2.09,2c-.89.47-1.83,0-2.65-.43-4.39-2.15-8.18-6.14-13.08-7.19a19.75,19.75,0,0,0-7.28.3c-2.2.37-5,.67-7,1.74-3.62,1.94,1.85,9.05,3.09,11.16,2.26,3.83,5.22,8.39,10.11,8.75a37.79,37.79,0,0,0,7.71-.65c1.93-.25,3.88-.25,5.08,1.52a11.74,11.74,0,0,1,2,6.78c-.27,2.69-.95,5.34-1.24,8a18.09,18.09,0,0,0,.41,7.74,28.91,28.91,0,0,0,3.34,6.59,52.58,52.58,0,0,1,4,6.3" style="fill:#fff"/><path d="M547.74,111.36c1.8,3.9,6.36,5.13,10.3,5.21a23.74,23.74,0,0,0,7.5-1c1-.32,2-.76,3.09-1.08a6.16,6.16,0,0,0,2.85-1.34,15.6,15.6,0,0,0,3.11-5.84,21.2,21.2,0,0,0,.93-7.72c-.09-1.22-.53-2.39-.61-3.59a9.76,9.76,0,0,1,.94-3.84c.91-2.44,2-4.82,2.79-7.29q.64-1.91,1.19-3.85c.14-.49.21-2,.62-2.37s1.64,0,2.17.09a14.21,14.21,0,0,1,3,1.34,10.38,10.38,0,0,0,6.63,1.2,34.93,34.93,0,0,0,7.08-1.86,26.64,26.64,0,0,0,6.39-3.2c1.52-1.06,3.28-1.92,2.72-4-1.23-4.69-6.3-5.66-10.5-5.84a22.88,22.88,0,0,0-7.59.93c-2.18.65-4.61,1.89-6.93,1.81a2.18,2.18,0,0,1-2.06-1.54,13.35,13.35,0,0,0-2-2.84c-1.51-1.86-2.67-3.91-4.1-5.82-2.58-3.42-6.74-4.75-10.86-5.11s-9-.51-13,.93a16.57,16.57,0,0,0-6.05,4,10.52,10.52,0,0,1-2.09,2c-.89.47-1.83,0-2.65-.43-4.39-2.15-8.18-6.14-13.08-7.19a19.75,19.75,0,0,0-7.28.3c-2.2.37-5,.67-7,1.74-3.62,1.94,1.85,9.05,3.09,11.16,2.26,3.83,5.22,8.39,10.11,8.75a37.79,37.79,0,0,0,7.71-.65c1.93-.25,3.88-.25,5.08,1.52a11.74,11.74,0,0,1,2,6.78c-.27,2.69-.95,5.34-1.24,8a18.09,18.09,0,0,0,.41,7.74,28.91,28.91,0,0,0,3.34,6.59A52.58,52.58,0,0,1,547.74,111.36Z" style="fill:none;stroke:#000;stroke-linejoin:round;stroke-width:0.5820000171661377px"/><path d="M545.95,58.22c2.9,2.77,5.89,6.55,6.15,10.7.29,4.5,1,8.91.15,13.39-.39,2.08-1.2,4.07-1.51,6.16a23.81,23.81,0,0,0,.08,3.14,7.5,7.5,0,0,1-1.08,3.09c-1.88,3.87-2.52,8.24-4.7,12" style="fill:#fff"/><path d="M545.95,58.22c2.9,2.77,5.89,6.55,6.15,10.7.29,4.5,1,8.91.15,13.39-.39,2.08-1.2,4.07-1.51,6.16a23.81,23.81,0,0,0,.08,3.14,7.5,7.5,0,0,1-1.08,3.09c-1.88,3.87-2.52,8.24-4.7,12" style="fill:none;stroke:#000;stroke-linejoin:round;stroke-width:0.5820000171661377px"/><path d="M575.71,59.45a3.28,3.28,0,0,0-.89,3.44c.53.92,2.2,1,2.4,2.17s-1.22,2.1-1.85,2.77c-1.17,1.24-1.31,3-1.74,4.58-1.06,3.91-2.34,7.82-2.07,11.92s1.83,7.94,3.26,11.71" style="fill:#fff"/><path d="M575.71,59.45a3.28,3.28,0,0,0-.89,3.44c.53.92,2.2,1,2.4,2.17s-1.22,2.1-1.85,2.77c-1.17,1.24-1.31,3-1.74,4.58-1.06,3.91-2.34,7.82-2.07,11.92s1.83,7.94,3.26,11.71" style="fill:none;stroke:#000;stroke-linejoin:round;stroke-width:0.5820000171661377px"/><path d="M551.83,108.42c.43-.83-.7-2.3-1-3a9,9,0,0,1-.93-3.42,6.89,6.89,0,0,1,2.44-5.47c2-1.65,4.49-1.41,6.92-1.26,2.83.19,5.69,0,8.5.44a6.08,6.08,0,0,1,4.71,3.42,6.73,6.73,0,0,1-.51,7.16,10.13,10.13,0,0,0-1.3,3.35,4.16,4.16,0,0,1-1.89,2.51,13.58,13.58,0,0,1-7.36,1.56,16.8,16.8,0,0,1-6.71-1.48c-1.3-.61-3.76-2-2.83-3.78" style="fill:#fff"/><path d="M551.83,108.42c.43-.83-.7-2.3-1-3a9,9,0,0,1-.93-3.42,6.89,6.89,0,0,1,2.44-5.47c2-1.65,4.49-1.41,6.92-1.26,2.83.19,5.69,0,8.5.44a6.08,6.08,0,0,1,4.71,3.42,6.73,6.73,0,0,1-.51,7.16,10.13,10.13,0,0,0-1.3,3.35,4.16,4.16,0,0,1-1.89,2.51,13.58,13.58,0,0,1-7.36,1.56,16.8,16.8,0,0,1-6.71-1.48C553.36,111.58,550.9,110.22,551.83,108.42Z" style="fill:none;stroke:#000;stroke-linejoin:round;stroke-width:0.5820000171661377px"/><path d="M570.31,99.79a9.18,9.18,0,0,1-1.61,1.51,3.23,3.23,0,0,0-1.21,1.09,1.39,1.39,0,0,0,1.2,2c1,0,1.71-1.09,2-1.95a3.31,3.31,0,0,0,.2-1.83c0-.06-.39-1.09-.59-.87" style="fill:#fff"/><path d="M570.31,99.79a9.18,9.18,0,0,1-1.61,1.51,3.23,3.23,0,0,0-1.21,1.09,1.39,1.39,0,0,0,1.2,2c1,0,1.71-1.09,2-1.95a3.31,3.31,0,0,0,.2-1.83C570.89,100.6,570.51,99.57,570.31,99.79Z" style="fill:none;stroke:#000;stroke-linejoin:round;stroke-width:0.5820000171661377px"/><path d="M552.53,99.31c-1.82.18.1,4.31,1.45,4.55s2.43-.95,1.39-2c-.49-.51-1.15-.83-1.65-1.33-.28-.28-.74-1.24-1.19-1.19" style="fill:#fff"/><path d="M552.53,99.31c-1.82.18.1,4.31,1.45,4.55s2.43-.95,1.39-2c-.49-.51-1.15-.83-1.65-1.33C553.44,100.23,553,99.27,552.53,99.31Z" style="fill:none;stroke:#000;stroke-linejoin:round;stroke-width:0.5820000171661377px"/><path d="M573.89,80c-.73-.33.52-2.59.8-3a3.23,3.23,0,0,1,2.16-1.34,4.2,4.2,0,0,1,2.29.31c.45.34.07.39-.14.87-.35.82-.37,1.53-1.16,2.15a3.79,3.79,0,0,1-2,.63,5.43,5.43,0,0,0-1.14.16c-.28.08-.47.32-.78.18" style="fill:#fff"/><path d="M573.89,80c-.73-.33.52-2.59.8-3a3.23,3.23,0,0,1,2.16-1.34,4.2,4.2,0,0,1,2.29.31c.45.34.07.39-.14.87-.35.82-.37,1.53-1.16,2.15a3.79,3.79,0,0,1-2,.63,5.43,5.43,0,0,0-1.14.16C574.39,79.86,574.2,80.1,573.89,80Z" style="fill:none;stroke:#000;stroke-linejoin:round;stroke-width:0.5820000171661377px"/><path d="M546.73,76c.87-.27,0-2.69-.3-3.09a3.82,3.82,0,0,0-4-1.6c-.75.18-.53.56-.43,1.24a3.49,3.49,0,0,0,.91,2,3.79,3.79,0,0,0,1.95.86,5.45,5.45,0,0,1,1.11.29c.26.12.42.38.75.27" style="fill:#fff"/><path d="M546.73,76c.87-.27,0-2.69-.3-3.09a3.82,3.82,0,0,0-4-1.6c-.75.18-.53.56-.43,1.24a3.49,3.49,0,0,0,.91,2,3.79,3.79,0,0,0,1.95.86,5.45,5.45,0,0,1,1.11.29C546.24,75.85,546.4,76.11,546.73,76Z" style="fill:none;stroke:#000;stroke-linejoin:round;stroke-width:0.5820000171661377px"/><path d="M597,71.36a36.23,36.23,0,0,1,5.25,0c1,.13,3.66.4,4,1.61s-2.21,2.49-3,3a20.54,20.54,0,0,1-4.65,2,21,21,0,0,1-9.9.78,14.21,14.21,0,0,1-5.37-2.13" style="fill:#fff"/><path d="M597,71.36a36.23,36.23,0,0,1,5.25,0c1,.13,3.66.4,4,1.61s-2.21,2.49-3,3a20.54,20.54,0,0,1-4.65,2,21,21,0,0,1-9.9.78,14.21,14.21,0,0,1-5.37-2.13" style="fill:none;stroke:#000;stroke-linejoin:round;stroke-width:0.5820000171661377px"/></g></g></svg>