<svg id="playground-parlor" xmlns="http://www.w3.org/2000/svg" viewBox="0 0 259.55 445.92"><defs><style>.cls-1,.cls-3,.cls-7{fill:#fff;}.cls-1,.cls-5,.cls-6{stroke:#000;stroke-linejoin:round;stroke-width:0.5px;}.cls-2{fill:#e8ded1;}.cls-4{fill:#0195cd;}.cls-5,.cls-6{fill:none;}.cls-6{stroke-linecap:round;}.cls-7{stroke:#e91f27;stroke-miterlimit:10;}.cls-8{fill:#e91f27;}</style></defs><title>playground-parlor_update 02.20</title><path class="cls-1" d="M96.61,264.22a22.31,22.31,0,0,1,14.16,3c10.62,6.46,20.23,13.6,32,17.75a47.45,47.45,0,0,0,15.94,2.85c6.41-.95,6.6-6.95,6.18-9-1.45-7.32-4.46-14.29-6.58-21.43a58.37,58.37,0,0,1-2.19-14.46,90.09,90.09,0,0,1,1.42-17.77l3.54.88a65.78,65.78,0,0,0-1.75,16.81,46.47,46.47,0,0,0,1.65,11.3c1.25,4.36,3.2,8.59,4.68,12.89.73,2.13,1.39,4.28,2,6.45,1,3.42,1.75,9.42-.6,12.77,14.06-5.4,18.83-22.2,19.63-36.41a102.09,102.09,0,0,0-1.28-23.81l3.45-.6A106.87,106.87,0,0,1,190.27,251c-.93,16.47-7.12,35.32-25,39.84-7.27,1.85-15,.67-22.11-1.81a109.85,109.85,0,0,1-17.23-7.8q-4.16-2.33-8.12-4.95c-2.51-1.66-5.6-4-8.14-5.63a19.35,19.35,0,0,0-13.39-2.81Z"/><path class="cls-1" d="M168.94,194.88l-3.15,28.94s-1,2.83-5.54,2.12-5.34-3.12-5.34-3.12l2.42-29"/><path class="cls-1" d="M157.83,92,145.5,162.86l6.35,18.29s1.46,5.58,14.75,6.56c1.28.1,5.78-2,7.22-2,1.16,0,5.88,2.15,6.93,2.08,13.87-.87,15.62-7,15.62-7l6.13-41.38,3.33-43.83Z"/><path class="cls-1" d="M193.69,142c.05,29.28,6.63,64.11,6,67.64-1.49,7.82,2,27.29,3.95,37.11s1.13,25.38.57,30.56-4.24,33.84-.28,35.21,18.91,0,19.76-2.46-9.6-44.75-9.6-51.58,2-13.37,5.08-22.64-3.11-26.2-.28-33.84-.85-31.93,7.05-44.48,11.58-20.2,11-45.3-7.62-41.75-8.75-52.94-.85-19.92-7.9-26.74S200.5,24.37,192,23.82s-11.86-8.18-11.86-8.18a9,9,0,0,0-7-3c-4.8,0-4.39,3-4.39,3s-3.39,7.64-11.86,8.18-21.17,1.91-28.23,8.74-6.77,15.55-7.9,26.74-8.19,27.83-8.75,52.94,3.1,32.74,11,45.3,4.23,36.84,7.06,44.48-3.39,24.56-.29,33.84,5.08,15.82,5.08,22.64-10.44,49.12-9.59,51.58,15.8,3.82,19.76,2.46.28-30-.29-35.21-1.41-20.74.57-30.56,4.8-29.2,3.95-37.11,5.93-51,6.78-60.31,1.12-31.93,1.12-31.93-.36-11.08,4-17.81"/><path class="cls-1" d="M178.36,27.64c-1.08,4.92,4.91,18.56,5.19,30.57s4.63,34.11,6.27,44.75,12.83,49.94,14.74,55.94,5.18,6,10.09,13.65,5.46,10.37,7.36,21.78,3,14,3,14S215.47,202,209.47,193s-6.55-19.65-9.34-28.65-8.13-29.74-11.95-39-19.7-89.74-19.7-89.74a48.25,48.25,0,0,1-2-9.87,15.57,15.57,0,0,1,2.22-10.09"/><path class="cls-1" d="M171,185.82s-1.71-.8-6.71-1.38a29.7,29.7,0,0,0-8.09,0l.3,9.38c1.37,0,3.47-.17,6.54.08a28.91,28.91,0,0,1,6.58,1.21C170.17,195.35,171,185.82,171,185.82Z"/><path class="cls-1" d="M178.16,194.88l3.15,28.94s1,2.83,5.54,2.12,5.34-3.12,5.34-3.12l-2.42-29"/><path class="cls-1" d="M176.1,185.82s1.71-.8,6.71-1.38a29.61,29.61,0,0,1,8.08,0l-.29,9.38c-1.37,0-3.47-.17-6.54.08a28.91,28.91,0,0,0-6.58,1.21C176.93,195.35,176.1,185.82,176.1,185.82Z"/><g id="station-1-milk"><path class="cls-2" d="M83.84,335.79q-1.23,7.18-2.52,14.34c-.5,2.79-1,5.58-1.56,8.35a7.43,7.43,0,0,0-.3,2.3,75.23,75.23,0,0,0-13.31-1.22c-1.57,0-3.13,0-4.7,0a2.7,2.7,0,0,1-2.24-.78c-.63-.81-.33-2.51-.33-3.49,0-7.12,0-14.24,0-21.35,2,.07,4,.06,6-.05,1.64-.09,3.27-.51,4.91-.45a74.3,74.3,0,0,1,12.9,2.1Z"/><path class="cls-2" d="M56,356.23a6.11,6.11,0,0,1-.13,1.86c-.58,1.76-2.51,1.36-4,1.39a161.12,161.12,0,0,0-19.14,1.35c-1.95.28-3.9.6-5.83,1a3.18,3.18,0,0,0,.16-.32,4.06,4.06,0,0,0-.07-2.81c-1.14-4.6-2-9.27-2.93-13.91-.44-2.18-.88-4.35-1.3-6.53.9-.44,1.82-.84,2.75-1.22a25.33,25.33,0,0,1,7.15-2.15A23.75,23.75,0,0,1,35,335a21.44,21.44,0,0,0,3.1-.33c2.63-.41,5.23-1,7.84-1.47,1.67-.3,4.06-1,5.73-.41a15.08,15.08,0,0,0,1.78.65,20.74,20.74,0,0,0,2.49.36Z"/></g><path class="cls-3" d="M202.19,362.32c0,.4,0,.8,0,1.19a268.42,268.42,0,0,1-31.27,2.91,296.83,296.83,0,0,1-39.78-1.11c-5-.47-10-1.05-14.91-1.85h0c0-1.59.08-3.18.12-4.76.12-4,1-8.27,3.5-11.48A7.68,7.68,0,0,1,121,346l.3,0a3.21,3.21,0,0,0,.19.38,28.77,28.77,0,0,0,2,3.28,27.4,27.4,0,0,0,8.71,7.71,25.45,25.45,0,0,0,11.12,3.22c2.16.1,4.33.1,6.49.1h19.87a44.38,44.38,0,0,0,10.55-.79,26.24,26.24,0,0,0,16.67-12.79,7.8,7.8,0,0,0,.64-1.06,12.57,12.57,0,0,1,3.34,5.45,19.08,19.08,0,0,1,.73,2.71A45.87,45.87,0,0,1,202.19,362.32Z"/><path class="cls-3" d="M201.64,374.64l-.24,2.9c-.23,2.95-.38,5.95-.85,8.87l0,.22h0q-6.42-.42-12.85-.71c-5.86-.28-11.75-.58-17.62-.44-1.89,0-3.7.33-5.58.54-3.33.37-6.68.46-10,.51-6.57.11-13.14-.06-19.71-.12-5.58-.05-11.18.1-16.76.22,0-.09,0-.17,0-.26-.19-1.19-.3-2.39-.41-3.59-.5-5.34-1.09-10.76-1.26-16.13,0-.24,0-.49,0-.73,0-.82,0-1.64,0-2.46h0c4.94.8,9.93,1.38,14.91,1.85a296.83,296.83,0,0,0,39.78,1.11,268.42,268.42,0,0,0,31.27-2.91C202.2,367.24,201.94,370.93,201.64,374.64Z"/><path class="cls-3" d="M124.49,398.91c-.07-1.24-.08-2.48-.15-3.7s0-2.44-1.35-2.69c-1.09-.2-2.54.36-3.51-.33-.8-.57-1-1.8-1.09-2.7s-.23-1.59-.35-2.39c0-.16-.05-.31-.07-.47,5.58-.12,11.18-.27,16.76-.22,6.57.06,13.14.23,19.71.12,3.34,0,6.69-.14,10-.51,1.88-.21,3.69-.5,5.58-.54,5.87-.14,11.76.16,17.62.44q6.42.3,12.85.71h0c-.16,1-.29,2-.45,3a4,4,0,0,1-.95,2.45,1,1,0,0,1-.2.16c-1,.63-2.38.08-3.47.29-1.43.27-1.26,1.73-1.32,2.84l-.18,3.44c0,.33,0,.66,0,1a18.79,18.79,0,0,1-.25,2.47,10.45,10.45,0,0,1-1.8,4.5,9.87,9.87,0,0,1-4.57,3.05c-2,.85-4.07,1.59-6.15,2.25a76,76,0,0,1-17.35,3.47,71.3,71.3,0,0,1-32.72-5.77,9.66,9.66,0,0,1-4.49-3.09,10.88,10.88,0,0,1-1.76-4.46v0c0-.14,0-.28-.07-.42A27.31,27.31,0,0,1,124.49,398.91Z"/><path class="cls-3" d="M151,426.05c-.69-.07-1.38-.14-2.07-.23a28,28,0,0,1-9.94-3.17,48.4,48.4,0,0,1-9.16-6.91,16.39,16.39,0,0,1-4.67-8.51,25.29,25.29,0,0,1-.38-5,10.88,10.88,0,0,0,1.76,4.46,9.66,9.66,0,0,0,4.49,3.09,71.3,71.3,0,0,0,32.72,5.77,76,76,0,0,0,17.35-3.47c2.08-.66,4.14-1.4,6.15-2.25a9.87,9.87,0,0,0,4.57-3.05,10.45,10.45,0,0,0,1.8-4.5,24.5,24.5,0,0,1-.51,5.56,18,18,0,0,1-2,4.79,20.17,20.17,0,0,1-4.6,4.89,37.28,37.28,0,0,1-9.93,6.5,29.36,29.36,0,0,1-8.62,2l-.8.06A95.71,95.71,0,0,1,151,426.05Z"/><path class="cls-3" d="M166.57,428a11.81,11.81,0,0,1-2.08.29,20.52,20.52,0,0,1-3.57-.46,7.52,7.52,0,0,0-2.49.29,9,9,0,0,1-3.32.09c-.51-.08-1-.22-1.54-.26a3.38,3.38,0,0,0-1.23.26,1.6,1.6,0,0,1-.45.07c-1.11,0-.87-1.34-.86-2.25a95.71,95.71,0,0,0,16.15,0v0c0,.38.18,1.27,0,1.59A1,1,0,0,1,166.57,428Z"/><path class="cls-3" d="M156.73,432.66a4.64,4.64,0,0,1-3-.73,4.33,4.33,0,0,1-1.81-3.61v0a1.6,1.6,0,0,0,.45-.07,3.38,3.38,0,0,1,1.23-.26c.51,0,1,.18,1.54.26a9,9,0,0,0,3.32-.09,7.52,7.52,0,0,1,2.49-.29,20.52,20.52,0,0,0,3.57.46,11.81,11.81,0,0,0,2.08-.29c.41.71-.44,2.41-.76,2.87a4.13,4.13,0,0,1-3.62,1.76h-5.46Z"/><path class="cls-3" d="M161.61,441.36c0,.28.11.9-.09,1s-.92,0-1.12,0h-1.72c-.29,0-1.77.19-2,0s0-1.45,0-1.73v-8h4.88v8.71Z"/><path class="cls-3" d="M118.2,374.47c0,.16,0,.31.07.47h-6.14V356.1a4.7,4.7,0,0,1,0-1.45c.18-.32.85-.16,1.3-.16h3.06c.17,5.37.76,10.79,1.26,16.13.11,1.2.22,2.4.41,3.59C118.17,374.3,118.19,374.38,118.2,374.47Z"/><path class="cls-3" d="M103.68,266.62a14.83,14.83,0,0,1-2,7.71,17.11,17.11,0,0,0,1.25-2.92,13.51,13.51,0,0,0-.35-9.66A12.32,12.32,0,0,1,103.68,266.62Z"/><path class="cls-3" d="M102.58,261.75a13.51,13.51,0,0,1,.35,9.66,17.11,17.11,0,0,1-1.25,2.92.56.56,0,0,1-.11.2l-.08.13-.14.22-.1.09a1.23,1.23,0,0,1-.39,0c-.26,0-.53,0-.8,0h0l-.4,0H86.5l-12.12-5.13A11.18,11.18,0,0,0,81.51,275a24.44,24.44,0,0,0,5,.07c.66.81.65,2.65.79,3.63.1.73.19,1.46.28,2.2a5.87,5.87,0,0,0,.18,1.57l.07.11-.06.06s-34.5-7.22-72,2.1a5.64,5.64,0,0,0,.18-1.53c.07-.58.15-1.16.23-1.75a2.51,2.51,0,0,1,0-.27c.12-.8.24-1.59.38-2.38h0c.15-.83.3-1.66.47-2.49,0,0,0,0,0-.05l.15-.74c.73-3.7,1.41-7.44,4-10.31a13.19,13.19,0,0,1,2.61-2.28h0a6,6,0,0,1,1-.5l.06,0c1-.39,2.05-.63,3-.93l1.36-.41,1.29-.37c.94-.26,1.88-.5,2.83-.73l1.27-.3,2.08-.44,2-.37h0l.53-.09.78-.13,1.28-.2.17,0c.86-.12,1.73-.23,2.59-.33s1.86-.2,2.8-.29l1.3-.1.57,0a91.13,91.13,0,0,1,15.41.27c2.45.25,4.87.88,7.3,1.11,3,.27,6,.24,9,.31l1.28,0,2.72.1,12.28.42,4.35.15a3.59,3.59,0,0,1,.42,0,.36.36,0,0,1,.21.15l0,0c.12.18.23.37.33.55a1.18,1.18,0,0,1,.11.19l.21.41A3.55,3.55,0,0,1,102.58,261.75Z"/><path class="cls-3" d="M102.37,261.31l-.21-.41A3.17,3.17,0,0,1,102.37,261.31Z"/><path class="cls-3" d="M102.05,260.71c-.1-.18-.21-.37-.33-.55a3.39,3.39,0,0,1,.19.3A2,2,0,0,1,102.05,260.71Z"/><path class="cls-3" d="M101.61,260a1.19,1.19,0,0,1,.09.15.36.36,0,0,0-.21-.15Z"/><path class="cls-3" d="M101.49,274.66l.08-.13a1.23,1.23,0,0,1-.22.35Z"/><path class="cls-3" d="M101.25,275a.12.12,0,0,1-.07,0,2.72,2.72,0,0,1-1.12,0c.27,0,.54,0,.8,0A1.23,1.23,0,0,0,101.25,275Z"/><path class="cls-3" d="M100.67,362.83a17.05,17.05,0,0,1-.15,6.33c-.2.82-.73,3.14-1.65,3.51a5.38,5.38,0,0,1-1.71,0,9.55,9.55,0,0,1-.67-2.35,25.82,25.82,0,0,1-.68-4.8,27.76,27.76,0,0,1,.21-5c.11-.75.24-1.5.41-2.23a14,14,0,0,1,.29-1.39h1.81c.12,0,.38-.06.49,0,.26.11.47,1.14.56,1.43A27.63,27.63,0,0,1,100.67,362.83Z"/><path class="cls-3" d="M99.63,275l.4,0-1.58,0Z"/><path class="cls-3" d="M97.16,372.7h-.23l-3.84,0-9.47.1-4.05,0c-.34,0-.8-.05-1.25-.07a14.46,14.46,0,0,0,6.07-2.58,8.6,8.6,0,0,0,3.24-4.71c.65-2.8,1.19-5.63,1.78-8.45l.89-.12h6.42a14,14,0,0,0-.29,1.39c-.17.73-.3,1.48-.41,2.23a27.76,27.76,0,0,0-.21,5,25.82,25.82,0,0,0,.68,4.8A9.55,9.55,0,0,0,97.16,372.7Z"/><path class="cls-3" d="M96.72,259.82l-12.28-.42-2.72-.1Z"/><path class="cls-4" d="M95,349.26a2.08,2.08,0,0,1,0,.7c-.06.36-.24.43-.56.68s-1.25.75-1.47,1.15a3.17,3.17,0,0,0-.06,1.07c0,.32.13,1.35-.07,1.63s-1,.35-1.3.43-.53.13-.79.24l0-.06a346,346,0,0,0-59.87-.42c-5.06.38-10.11.87-15.14,1.54l-.15,0a4.53,4.53,0,0,0-.15-.61l0,0a0,0,0,0,1,0,0c0-.05,0-.1-.05-.14a2,2,0,0,0-.43-.6.34.34,0,0,0-.08-.09,10.25,10.25,0,0,1-1-1.08c0-.06-.09-.13-.15-.2a.21.21,0,0,1,0-.06c-.16-.24-.32-.5-.47-.75a2.41,2.41,0,0,1-.53-1.68c0-.15,0-.3,0-.46v0c5.48-.67,11-1.17,16.51-1.55A416.57,416.57,0,0,1,95,349.26Z"/><path class="cls-4" d="M94.87,348.5a7.33,7.33,0,0,0,.11.76,416.57,416.57,0,0,0-65.8-.33c-5.51.38-11,.88-16.51,1.55a2.32,2.32,0,0,0,0-.24,19.81,19.81,0,0,1,.27-3.07c5.38-.92,10.79-1.6,16.22-2.12a286.49,286.49,0,0,1,65.51.91h.17C94.9,346.82,94.82,347.72,94.87,348.5Z"/><path class="cls-4" d="M94.86,346h-.17a286.49,286.49,0,0,0-65.51-.91c-5.43.52-10.84,1.2-16.22,2.12a3.86,3.86,0,0,1,1.67-2.55h0a9.84,9.84,0,0,1,1.12-.58.88.88,0,0,0,.21-.12l.2-.11a3.12,3.12,0,0,0,.55-.44l1.1-1.14c4.42-.74,8.87-1.26,13.32-1.68a290.75,290.75,0,0,1,29.36-1.29A226.87,226.87,0,0,1,89.17,341l0,0h0a1.93,1.93,0,0,0,.71.85,7.69,7.69,0,0,0,1.53.31,4.64,4.64,0,0,1,2.42,1.08A3.82,3.82,0,0,1,94.86,346Z"/><path class="cls-3" d="M94.56,321.52c.11,2.89.73,6.2-.16,9a11.57,11.57,0,0,1-2.75,4l-2.73,3.16c-.65.76-.92.73-.47,1.6.21.41.45,1.11.76,1.68l0,0a226.87,226.87,0,0,0-28.66-1.76,290.75,290.75,0,0,0-29.36,1.29c-4.45.42-8.9.94-13.32,1.68l.92-1c.48-.5.81-1.09,1.29-1.6l.36-.36h0a2.71,2.71,0,0,0,.66-.6h0s0,0,0,0c.5-.44,1-.85,1.58-1.24A22.34,22.34,0,0,1,25,335.85a1.86,1.86,0,0,0,.94-1,3.67,3.67,0,0,0,.93-1.07h0l52.58-1a2.63,2.63,0,0,0,.42,1.21,5.46,5.46,0,0,0,2.52,1.87L84.63,337c.46.22.38.28.73,0a10.6,10.6,0,0,0,1.38-1.53l1.68-1.85a6,6,0,0,0,2-3.61c0-.58,0-1.17,0-1.76,0-.35.22-1.78,0-2.07s-1.19-.08-1.53-.08a3.69,3.69,0,0,1-1,0c-.35-.14-.6-1.15-.74-1.54a11,11,0,0,1-.2-7.06,4.88,4.88,0,0,1,.72-1.65c.27-.31.29-.24.78-.24.31,0,1.74.21,1.93,0s0-.68,0-.8c0-2.87.12-5.76,0-8.62a2,2,0,0,0-1.86-2l1-2.81c2.21.1,4.69.9,4.73,3.43,0,2.28.1,4.56.16,6.84C94.35,314.92,94.44,318.22,94.56,321.52Z"/><path class="cls-3" d="M93.43,292.71a2.37,2.37,0,0,1,0,.75c-.31.69-1.58,1-2,1.6a2.06,2.06,0,0,0-.12,1.56c-.82-.92-2.86-1.29-3.8-1.54a67.79,67.79,0,0,0-9.18-1.6c-3.62-.44-7.3-.85-11-1-6.34-.18-12.68-.18-19,.08v-.12l44.83-1.58h.11v0C93.37,291.53,93.4,292.12,93.43,292.71Z"/><path class="cls-3" d="M93.33,290.9h-.11c-1.29-1.5-4-2-5.82-2.48-7.62-1.94-15.69-2.32-23.53-2.44-1.34,0-2.67,0-4,0l-.07-2.54,28-.82.06-.06c.34.4,1.41.59,1.9.81a10.22,10.22,0,0,1,2.1,1.21,3.09,3.09,0,0,1,1.31,1.86C93.31,287.87,93.25,289.42,93.33,290.9Z"/><path class="cls-3" d="M93.22,290.9l-44.83,1.58L10.93,293.8v0s0,0,0,0c1.29-2.37,4.94-3.21,7.32-3.83,3.2-.83,6.49-1.3,9.76-1.81,4.13-.65,8.2-1.18,12.38-1.48s8.11-.48,12.17-.6c2.43-.06,4.87-.1,7.3-.1,1.34,0,2.67,0,4,0,7.84.12,15.91.5,23.53,2.44C89.18,288.87,91.93,289.4,93.22,290.9Z"/><path class="cls-3" d="M91.57,297h-.18c0-.11,0-.23,0-.34A1.27,1.27,0,0,1,91.57,297Z"/><path class="cls-3" d="M91.39,297a2.27,2.27,0,0,1,0,1.19,2.93,2.93,0,0,1-1.3,1.37l-.75.42c.23.24.32.12.32.54a2.64,2.64,0,0,1-.25.87l-1,2.81h-4l-.06.35-.57,3.28-1.18-.21a74.3,74.3,0,0,0-12.9-2.1c-1.64-.06-3.27.36-4.91.45-2,.11-4,.12-6,.05,0-1.06,0-2.11,0-3.17,0-.87,0-1.74,0-2.6a3.65,3.65,0,0,0-.38-1.59,1.34,1.34,0,0,0-1.1-.78v-.06Z"/><path class="cls-3" d="M91.39,297l-34,.82-44.05,1.06a5.6,5.6,0,0,1,2.53-1.64,30.15,30.15,0,0,1,4.46-1.35A106.11,106.11,0,0,1,31.11,294c5.75-.73,11.51-1.18,17.28-1.42,6.33-.26,12.67-.26,19-.08,3.66.11,7.34.52,11,1a67.79,67.79,0,0,1,9.18,1.6c.94.25,3,.62,3.8,1.54C91.36,296.73,91.38,296.85,91.39,297Z"/><path class="cls-4" d="M90.73,355.1l0,.06a.65.65,0,0,0-.34.25,4.81,4.81,0,0,0-.11,1.53l-.89.12c-.59,2.82-1.13,5.65-1.78,8.45a8.6,8.6,0,0,1-3.24,4.71,14.46,14.46,0,0,1-6.07,2.58h0a2.76,2.76,0,0,0-1,.1c-.2.07-.13,0-.23.08v0c-.3.05-.6.08-.9.11,0-.45.15-1.76-.17-2s-.8-.12-1-.15c-1.84-.25-3.69-.41-5.53-.53a169.61,169.61,0,0,0-23.75.27q-4.78.36-9.56.93l-2.29.28c-.36,0-2.2.07-2.35.33a3.79,3.79,0,0,0,0,1.56c-.56,0-1.19,0-1.65,0-.92-.08-1.85-.17-2.76-.34l-.33-.07-.1,0a10.44,10.44,0,0,1-2.06-.63c-2.39-1-3.57-3.22-4.63-5.5a.25.25,0,0,1,0-.07c-.1-.21-.2-.43-.29-.65l-.27-.63c-.08-.18-.16-.37-.22-.55s-.11-.27-.16-.4a1.34,1.34,0,0,1-.07-.18c-.18-.47-.34-.94-.51-1.42-.4-1.22-.74-2.45-1-3.7A12.49,12.49,0,0,0,17,358a1.72,1.72,0,0,0-.2-.67.87.87,0,0,0-.52-.24l-.06,0a1.07,1.07,0,0,1-.47-.26,1.45,1.45,0,0,1-.17-.51l.15,0c5-.67,10.08-1.16,15.14-1.54A346,346,0,0,1,90.73,355.1Z"/><path class="cls-3" d="M90.37,326.17c.22.29,0,1.72,0,2.07,0,.59,0,1.18,0,1.76a6,6,0,0,1-2,3.61l-1.68,1.85A10.6,10.6,0,0,1,85.36,337c-.35.25-.27.19-.73,0l-2.23-1.09A5.46,5.46,0,0,1,79.88,334a2.63,2.63,0,0,1-.42-1.21h0a7.43,7.43,0,0,1,.3-2.3c.58-2.77,1.06-5.56,1.56-8.35q1.29-7.15,2.52-14.34l.57-3.28.06-.35h4a2,2,0,0,1,1.86,2c.12,2.86,0,5.75,0,8.62,0,.12.09.71,0,.8s-1.62,0-1.93,0c-.49,0-.51-.07-.78.24a4.88,4.88,0,0,0-.72,1.65,11,11,0,0,0,.2,7.06c.14.39.39,1.4.74,1.54a3.69,3.69,0,0,0,1,0C89.18,326.09,90.19,325.94,90.37,326.17Z"/><path class="cls-3" d="M87.76,282.59l-28,.82-7.3.21-36.74,1.07C53.26,275.37,87.76,282.59,87.76,282.59Z"/><path class="cls-3" d="M74,259l6.47.23c-3-.07-6,0-9-.31-2.43-.23-4.85-.86-7.3-1.11a91.13,91.13,0,0,0-15.41-.27,79.6,79.6,0,0,1,21.86,1.23A18.68,18.68,0,0,0,74,259Z"/><path class="cls-3" d="M79.51,332.79h0Z"/><path class="cls-3" d="M79.46,332.78h0l-52.58,1c1.93-.39,3.88-.71,5.83-1a161.12,161.12,0,0,1,19.14-1.35c1.48,0,3.41.37,4-1.39a6.11,6.11,0,0,0,.13-1.86V305.79l.87.07c.67.05,1.35.09,2,.12,0,7.11.05,14.23,0,21.35,0,1-.3,2.68.33,3.49a2.7,2.7,0,0,0,2.24.78c1.57,0,3.13-.07,4.7,0A75.23,75.23,0,0,1,79.46,332.78Z"/><path class="cls-3" d="M77.26,372.9a2.76,2.76,0,0,1,1-.1c-.42.08-.85.15-1.27.2v0C77.13,372.86,77.06,373,77.26,372.9Z"/><path class="cls-3" d="M77,374.62c0,1.21.27,3.11-.33,4.2s-1.51.95-2.66.95H69.62c-.83,0-.48.31-.87,1.05-.23.42-.76.65-1,1s-.06,1.49-.14,2c0,.3-.11,1.07-.39,1.28s-1.1-.06-1.54.07-1.1,1.18-1.76,1.55a1.49,1.49,0,0,1-1,.2H59.37v6.89c0,1.06.06,2.13,0,3.19,0,.42-.12,1.35-.57,1.57a4.45,4.45,0,0,1-1.41,0c-.92,0-2.69.25-3.09-.93a8.41,8.41,0,0,1,0-2.35v-4.38c0-.31.24-2.11,0-2.35s-.95.06-1.23-.08-.64-.92-1.08-1.09a5.05,5.05,0,0,0-1.6,0H49v6.93c0,.83,0,1.67,0,2.5-.05,1.32-.53,1.52-1.62,1.52-.88,0-2.61.41-3.08-.53a4,4,0,0,1-.26-2v-9.71c0-.69,0-.61-.63-.61H41.84c0-1.05.07-2.1.11-3.14-.66,0-1.35.05-2,0H39.8a.48.48,0,0,1-.28-.17c-.23-.36.19-1.38-.11-1.67-.1-.1-.65,0-.87,0H38l-2.63.06a2,2,0,0,1-.34,0H34c-1.06,0-1.41-.34-1.39-1.31v-.53c0-1.39-.07-2.78-.1-4.16v-.06c0-.16,0-.52,0-.58a.66.66,0,0,0-.32,0,2.52,2.52,0,0,0-.76-.12,3.79,3.79,0,0,1,0-1.56c.15-.26,2-.29,2.35-.33l2.29-.28q4.77-.57,9.56-.93a169.61,169.61,0,0,1,23.75-.27c1.84.12,3.69.28,5.53.53.23,0,.84,0,1,.15s.16,1.55.17,2c.3,0,.6-.06.9-.11A5.5,5.5,0,0,0,77,374.62Z"/><path class="cls-3" d="M59.79,283.41l.07,2.54c-2.43,0-4.87,0-7.3.1l-.07-2.43Z"/><path class="cls-3" d="M58.86,302.81c0,1.06,0,2.11,0,3.17-.68,0-1.36-.07-2-.12l-.87-.07v-4.63a6.62,6.62,0,0,1,.22-2.26,1.37,1.37,0,0,1,1.19-1.06,1.34,1.34,0,0,1,1.1.78,3.65,3.65,0,0,1,.38,1.59C58.89,301.07,58.86,301.94,58.86,302.81Z"/><path class="cls-3" d="M57.38,297.78v.06a1.37,1.37,0,0,0-1.19,1.06,6.62,6.62,0,0,0-.22,2.26v4.63a20.74,20.74,0,0,1-2.49-.36,15.08,15.08,0,0,1-1.78-.65c-1.67-.59-4.06.11-5.73.41-2.61.47-5.21,1.06-7.84,1.47A21.44,21.44,0,0,1,35,307a23.75,23.75,0,0,0-2.39-.11A25.33,25.33,0,0,0,25.49,309c-.93.38-1.85.78-2.75,1.22-.42-2-.82-4.07-1.22-6.1l-1.83.05a11.72,11.72,0,0,0-2.44.06,1.63,1.63,0,0,0-1.1.82h-.09c-.87,0-1.74.08-1.8,1-.07,1.21.05,2.46.08,3.68q.06,3,.11,6c.07,3.67,0,7.35.16,11,.06,1.82.38,4.16,1.54,5.67a22.19,22.19,0,0,0,2.27,2.17l2,1.91c.26.24,1,.74,1.15,1.09.05.15-.19.58-.5,1,0,0,0,0,0,0h0a6.17,6.17,0,0,0-.66.6h0a.56.56,0,0,1-.23.06c-.32,0-.92-.76-1.16-1-.91-.8-1.9-1.6-2.82-2.46l0,0L15,334.65a13.86,13.86,0,0,1-2.94-5.39,9.13,9.13,0,0,1-.37-2.91v-.14c0-.11,0-.21,0-.31v-1.06c0-3.42,0-6.85,0-10.27,0-1.23,0-2.47,0-3.7,0-.55,0-1.11,0-1.66,0-.13,0-.26,0-.39,0-.57,0-1.15,0-1.72a11.94,11.94,0,0,1,.59-4.24l0-.09a3.33,3.33,0,0,1,2.45-2.1h.38l-.23-.2a6.68,6.68,0,0,1-1.41-1.34,1,1,0,0,1-.11-.26h0Z"/><path class="cls-3" d="M52.49,283.62l.07,2.43q-6.09.18-12.17.6c-4.18.3-8.25.83-12.38,1.48-3.27.51-6.56,1-9.76,1.81-2.38.62-6,1.46-7.32,3.83a4.9,4.9,0,0,1,0-.65.22.22,0,0,0,0-.08c0-.2,0-.41,0-.61s0-.35,0-.53,0-.36,0-.53,0-.25,0-.37c0-.28,0-.57,0-.84a.49.49,0,0,1,0-.12A4.58,4.58,0,0,1,13.4,286c.6-.39,1.33-.65,1.91-1.06l0,0,.11-.06,0,0a.54.54,0,0,0,.24-.12h0Z"/><path class="cls-3" d="M48.39,292.48v.12c-5.77.24-11.53.69-17.28,1.42a106.11,106.11,0,0,0-10.79,1.83,30.15,30.15,0,0,0-4.46,1.35,5.6,5.6,0,0,0-2.53,1.64h0a3.15,3.15,0,0,1-.11-.65v-.05a4.41,4.41,0,0,0-.12-1.72c-.41-.89-1.61-1.41-2.05-2.28a.88.88,0,0,1-.1-.35Z"/><path class="cls-3" d="M48.19,257.61l-1.3.1Z"/><path class="cls-3" d="M46.89,257.71c-.94.09-1.87.18-2.8.29C45,257.89,46,257.79,46.89,257.71Z"/><path class="cls-3" d="M42.6,258.18c.5-.07,1-.13,1.49-.18-.86.1-1.73.21-2.59.33Z"/><path class="cls-3" d="M41.33,258.36l-1.28.2Z"/><path class="cls-3" d="M39.94,382.34c.66.05,1.35,0,2,0a10.2,10.2,0,0,1-2.14,0Z"/><path class="cls-3" d="M39.8,382.34c-.14,0-.19,0-.28-.11s-.06-1-.07-1.21c-.05-.73-.16-.54-.87-.52h0c.22,0,.77-.1.87,0,.3.29-.12,1.31.11,1.67A.48.48,0,0,0,39.8,382.34Z"/><path class="cls-3" d="M39.27,258.69l-.53.09Z"/><path class="cls-3" d="M35.39,380.57l2.63-.06C37.14,380.54,36.27,380.57,35.39,380.57Z"/><path class="cls-3" d="M38.71,258.79l-2,.37C37.4,259,38.05,258.9,38.71,258.79Z"/><path class="cls-3" d="M34,380.59h1.06c-.75.06-1.88.19-2.3-.35a1.31,1.31,0,0,1-.15-1C32.58,380.25,32.93,380.58,34,380.59Z"/><path class="cls-3" d="M32.6,378.75c0-.81,0-1.64-.06-2.46,0-.56,0-1.13,0-1.7C32.53,376,32.6,377.36,32.6,378.75Z"/><path class="cls-3" d="M32.49,374c.06.06,0,.42,0,.58,0-.51.09-.46-.26-.59l-.07,0A.66.66,0,0,1,32.49,374Z"/><path class="cls-3" d="M32.17,373.92h-.3c-.15,0-.3,0-.45,0a.28.28,0,0,0,0-.09A2.52,2.52,0,0,1,32.17,373.92Z"/><path class="cls-3" d="M31.41,373.8a.28.28,0,0,1,0,.09c-.43,0-.86-.05-1.28-.09l-.38,0C30.22,373.8,30.85,373.76,31.41,373.8Z"/><path class="cls-3" d="M30.56,260.63l-1.29.37Z"/><path class="cls-3" d="M29.27,261l-1.36.41c-.95.3-2,.54-3,.93a36.45,36.45,0,0,1,3.74-1.16Z"/><path class="cls-3" d="M27,330.69A4.06,4.06,0,0,1,27,333.5a3.18,3.18,0,0,1-.16.32h0a3.67,3.67,0,0,1-.93,1.07,2.77,2.77,0,0,0,.18-.61c.32-1.65-.2-3.26-.5-4.88q-1.78-9.43-3.54-18.85.33-.17.66-.3c.42,2.18.86,4.35,1.3,6.53C25,321.42,25.83,326.09,27,330.69Z"/><path class="cls-3" d="M26.67,373.35l.33.07Z"/><path class="cls-3" d="M26.57,373.33a8.19,8.19,0,0,1-3.81-1.67,12.26,12.26,0,0,1-2.88-4.46c1.06,2.28,2.24,4.46,4.63,5.5A10.44,10.44,0,0,0,26.57,373.33Z"/><path class="cls-3" d="M22.08,310.55q1.77,9.42,3.54,18.85c.3,1.62.82,3.23.5,4.88a2.77,2.77,0,0,1-.18.61,3.52,3.52,0,0,1-.56.39c-1,.6-2.1,1.09-3.15,1.64-.18.09-.44.3-.61.25s-.67-.7-.83-.86c-1.52-1.6-4.16-3.6-4.49-5.91a20.64,20.64,0,0,1-.09-2.61c0-.25-.19-1.27,0-1.49s.67-.1.93-.1a5.48,5.48,0,0,0,1.67,0c.56-.27.95-2.43,1.07-3a10.7,10.7,0,0,0-.27-5.33c-.15-.47-.51-1.86-1-2.13-.23-.13-.93,0-1.18,0l-1.38,0c-.07-2.95-.15-5.91-.22-8.86a3.34,3.34,0,0,1,.37-1.8h2.3a9.16,9.16,0,0,1,2.34,0c.34.11.15-.06.3.15a2.38,2.38,0,0,1,.14.76l.6,3.21C21.91,309.65,22,310.1,22.08,310.55Z"/><path class="cls-3" d="M25.38,335.28a3.52,3.52,0,0,0,.56-.39,1.86,1.86,0,0,1-.94,1,22.34,22.34,0,0,0-2.33,1.54c-.54.39-1.08.8-1.58,1.24.31-.38.55-.81.5-1-.11-.35-.89-.85-1.15-1.09l-2-1.91a22.19,22.19,0,0,1-2.27-2.17c-1.16-1.51-1.48-3.85-1.54-5.67-.12-3.66-.09-7.34-.16-11q0-3-.11-6c0-1.22-.15-2.47-.08-3.68.06-1,.93-1,1.8-1h.09a3.34,3.34,0,0,0-.37,1.8c.07,2.95.15,5.91.22,8.86l1.38,0c.25,0,.95-.15,1.18,0,.5.27.86,1.66,1,2.13a10.7,10.7,0,0,1,.27,5.33c-.12.59-.51,2.75-1.07,3a5.48,5.48,0,0,1-1.67,0c-.26,0-.8-.07-.93.1s0,1.24,0,1.49a20.64,20.64,0,0,0,.09,2.61c.33,2.31,3,4.31,4.49,5.91.16.16.59.8.83.86s.43-.16.61-.25C23.28,336.37,24.37,335.88,25.38,335.28Z"/><path class="cls-3" d="M24,262.79a6.23,6.23,0,0,1,.86-.42,6,6,0,0,0-1,.5Z"/><path class="cls-3" d="M21.52,304.15c.4,2,.8,4.07,1.22,6.1q-.33.13-.66.3c-.08-.45-.17-.9-.25-1.35l-.6-3.21a2.38,2.38,0,0,0-.14-.76c-.15-.21,0,0-.3-.15a9.16,9.16,0,0,0-2.34,0h-2.3a1.63,1.63,0,0,1,1.1-.82,11.72,11.72,0,0,1,2.44-.06Z"/><path class="cls-3" d="M23.86,262.88a13.19,13.19,0,0,0-2.61,2.28c-2.63,2.87-3.31,6.61-4,10.31.55-2.9,1-6.06,2.66-8.54A13.18,13.18,0,0,1,23.86,262.88Z"/><path class="cls-3" d="M20.41,339.26a6.17,6.17,0,0,1,.66-.6A2.71,2.71,0,0,1,20.41,339.26Z"/><path class="cls-3" d="M20.4,339.27l-.36.36c-.48.51-.81,1.1-1.29,1.6l-.92,1-.54.09c.53-1.19.79-2.63,1.66-3.52-.92-1-1.85-1.92-2.76-2.89.92.86,1.91,1.66,2.82,2.46.24.21.84.95,1.16,1A.56.56,0,0,0,20.4,339.27Z"/><path class="cls-3" d="M19.28,365.85l.27.63Q19.4,366.17,19.28,365.85Z"/><path class="cls-3" d="M18.9,364.9c.05.13.1.27.16.4A3.33,3.33,0,0,1,18.9,364.9Z"/><path class="cls-3" d="M18.32,363.3c.17.48.33.95.51,1.42C18.65,364.25,18.48,363.78,18.32,363.3Z"/><path class="cls-3" d="M17.29,342.31l.54-.09-1.1,1.14a3.12,3.12,0,0,1-.55.44A3.59,3.59,0,0,0,17.29,342.31Z"/><path class="cls-3" d="M17.29,359.6c-.07-.26-.13-.52-.19-.78S17,358.27,17,358A12.49,12.49,0,0,1,17.29,359.6Z"/><path class="cls-3" d="M17.05,276.26c-.17.83-.32,1.66-.47,2.49C16.72,277.92,16.88,277.09,17.05,276.26Z"/><path class="cls-3" d="M16.79,357.28a1.72,1.72,0,0,1,.2.67,1.47,1.47,0,0,0-.47-.79,1,1,0,0,0-.25-.12A.87.87,0,0,1,16.79,357.28Z"/><path class="cls-3" d="M16.58,278.76c-.14.79-.26,1.58-.38,2.38C16.31,280.35,16.44,279.55,16.58,278.76Z"/><path class="cls-3" d="M16.16,281.41c-.08.59-.16,1.17-.23,1.75C16,282.57,16.08,282,16.16,281.41Z"/><path class="cls-4" d="M15,334.65l1.14,1.21a14.73,14.73,0,0,1-2.15-2.4,14,14,0,0,1-2.28-5.38,10,10,0,0,1,0-1.73,9.13,9.13,0,0,0,.37,2.91A13.86,13.86,0,0,0,15,334.65Z"/><path class="cls-4" d="M16,343.91a.88.88,0,0,1-.21.12,9.84,9.84,0,0,0-1.12.58,3.33,3.33,0,0,1,.49-.29C15.44,344.17,15.72,344.05,16,343.91Z"/><path class="cls-3" d="M15.82,284.11c0-.32.07-.64.11-.95a5.64,5.64,0,0,1-.18,1.53h0a.54.54,0,0,1-.24.12C15.73,284.7,15.76,284.62,15.82,284.11Z"/><path class="cls-3" d="M16.21,357a.77.77,0,0,1-.46-.22,3.86,3.86,0,0,1-.35-1.2l0,0a4.53,4.53,0,0,1,.15.61,1.45,1.45,0,0,0,.17.51A1.07,1.07,0,0,0,16.21,357Z"/><path class="cls-3" d="M15.46,284.84l-.11.06,0,0Z"/><path class="cls-4" d="M15.34,355.43s0,.09.05.14a2.7,2.7,0,0,0-.48-.74A2,2,0,0,1,15.34,355.43Z"/><path class="cls-3" d="M15.16,285l.15-.07c-.58.41-1.31.67-1.91,1.06A4.58,4.58,0,0,0,11,290a4.11,4.11,0,0,1,1.2-3.21A13.06,13.06,0,0,1,15.16,285Z"/><path class="cls-3" d="M14.81,300.66h0Z"/><path class="cls-3" d="M14.83,354.74c-.17-.16-.36-.32-.55-.52a5.44,5.44,0,0,1-.58-.76c.06.07.1.14.15.2A10.25,10.25,0,0,0,14.83,354.74Z"/><path class="cls-3" d="M13.42,299.11a6.68,6.68,0,0,0,1.41,1.34c-.52-.43-1.29-1-1.51-1.5a2.07,2.07,0,0,1-.12-.75,3.15,3.15,0,0,0,.11.65A1,1,0,0,0,13.42,299.11Z"/><path class="cls-4" d="M13.19,352.65c.15.25.31.51.47.75a5.87,5.87,0,0,1-1-1.71,3.93,3.93,0,0,1,0-1.18c0,.16,0,.31,0,.46A2.41,2.41,0,0,0,13.19,352.65Z"/><path class="cls-3" d="M13,347.17a19.81,19.81,0,0,0-.27,3.07,2.32,2.32,0,0,1,0,.24,11.21,11.21,0,0,1,.54-4.35,3.47,3.47,0,0,1,1.42-1.51A3.86,3.86,0,0,0,13,347.17Z"/><path class="cls-3" d="M14.68,300.67a3.33,3.33,0,0,0-2.45,2.1A3,3,0,0,1,14.68,300.67Z"/><path class="cls-3" d="M11.79,304.13a6.25,6.25,0,0,1,.41-1.27,11.94,11.94,0,0,0-.59,4.24c0,.57,0,1.15,0,1.72A22.25,22.25,0,0,1,11.79,304.13Z"/><path class="cls-3" d="M11.71,325.33v.57c0,.1,0,.2,0,.31C11.7,325.92,11.71,325.63,11.71,325.33Z"/><path class="cls-3" d="M11.65,310.87c0,1.23,0,2.47,0,3.7C11.67,313.33,11.67,312.1,11.65,310.87Z"/><path class="cls-3" d="M11,290.55c0-.13,0-.26,0-.39,0,.27,0,.56,0,.84,0,.12,0,.25,0,.37C11,291.09,11,290.82,11,290.55Z"/><path class="cls-3" d="M11,292.43c0-.18,0-.36,0-.53C11,292.08,11,292.25,11,292.43Z"/><path class="cls-3" d="M10.93,293.78v0h0Z"/><path class="cls-5" d="M101.7,260.14a1.19,1.19,0,0,0-.09-.15"/><path class="cls-5" d="M102.05,260.71c-.1-.18-.21-.37-.33-.55"/><path class="cls-5" d="M102.37,261.31l-.21-.41"/><path class="cls-5" d="M101.68,274.33a17.11,17.11,0,0,0,1.25-2.92,13.51,13.51,0,0,0-.35-9.66"/><path class="cls-5" d="M101.35,274.88a1.23,1.23,0,0,0,.22-.35"/><path class="cls-5" d="M100.06,275.05a2.72,2.72,0,0,0,1.12,0,.12.12,0,0,0,.07,0"/><path class="cls-5" d="M39.81,382.34h.13c.66.05,1.35,0,2,0"/><path class="cls-5" d="M38.54,380.5h0c.71,0,.82-.21.87.52,0,.22-.07,1,.07,1.21s.14.11.28.11"/><path class="cls-5" d="M35.39,380.57l2.63-.06"/><path class="cls-5" d="M32.6,379.28a1.31,1.31,0,0,0,.15,1c.42.54,1.55.41,2.3.35"/><path class="cls-5" d="M32.5,374.59c0,1.38.1,2.77.1,4.16"/><path class="cls-5" d="M29.76,373.76c.46,0,1.09,0,1.65,0a2.52,2.52,0,0,1,.76.12l.07,0c.35.13.25.08.26.59"/><path class="cls-5" d="M26.67,373.35l.33.07"/><path class="cls-5" d="M19.88,367.2a12.26,12.26,0,0,0,2.88,4.46,8.19,8.19,0,0,0,3.81,1.67"/><path class="cls-5" d="M19.28,365.85l.27.63"/><path class="cls-5" d="M18.9,364.9c.05.13.1.27.16.4"/><path class="cls-5" d="M18.32,363.3c.17.48.33.95.51,1.42"/><path class="cls-5" d="M16.27,357a1,1,0,0,1,.25.12A1.47,1.47,0,0,1,17,358a12.49,12.49,0,0,1,.3,1.65"/><path class="cls-5" d="M15.4,355.6l0,0a4.53,4.53,0,0,1,.15.61,1.45,1.45,0,0,0,.17.51,1.07,1.07,0,0,0,.47.26"/><path class="cls-5" d="M14.91,354.83a2.7,2.7,0,0,1,.48.74"/><path class="cls-5" d="M13.7,353.46c.06.07.1.14.15.2a10.25,10.25,0,0,0,1,1.08"/><path class="cls-5" d="M12.67,350.51a3.93,3.93,0,0,0,0,1.18,5.87,5.87,0,0,0,1,1.71"/><path class="cls-5" d="M14.63,344.62A3.86,3.86,0,0,0,13,347.17a19.81,19.81,0,0,0-.27,3.07,2.32,2.32,0,0,1,0,.24"/><path class="cls-5" d="M16,343.91c-.26.14-.54.26-.84.41a3.33,3.33,0,0,0-.49.29"/><path class="cls-5" d="M11.7,326.35a10,10,0,0,0,0,1.73A14,14,0,0,0,14,333.46a14.73,14.73,0,0,0,2.15,2.4"/><path class="cls-5" d="M11.65,310.87c0,1.23,0,2.47,0,3.7"/><path class="cls-5" d="M12.2,302.86a11.94,11.94,0,0,0-.59,4.24c0,.57,0,1.15,0,1.72"/><path class="cls-5" d="M14.81,300.66h-.13a3,3,0,0,0-2.45,2.1"/><path class="cls-5" d="M13.31,298.85a1,1,0,0,0,.11.26,6.68,6.68,0,0,0,1.41,1.34"/><path class="cls-5" d="M11,293.12a2.82,2.82,0,0,0,0,.91c.2.59,1.17,1.31,1.59,1.77a1.78,1.78,0,0,1,.66,1.38c0,.28,0,.63,0,1"/><path class="cls-5" d="M11,290.16c0,.27,0,.56,0,.84,0,.12,0,.25,0,.37"/><path class="cls-5" d="M15.31,284.92l-.15.07a13.06,13.06,0,0,0-2.92,1.84A4.11,4.11,0,0,0,11,290"/><path class="cls-5" d="M15.46,284.84l-.11.06"/><path class="cls-5" d="M16.16,281.41c-.08.58-.16,1.16-.23,1.75,0,.31-.08.63-.11.95-.06.51-.09.59-.32.71"/><path class="cls-5" d="M16.58,278.76c-.14.79-.26,1.58-.38,2.38"/><path class="cls-5" d="M17.05,276.26c-.17.83-.32,1.66-.47,2.49"/><path class="cls-5" d="M23.86,262.88a13.18,13.18,0,0,0-4,4.05c-1.62,2.48-2.11,5.64-2.66,8.54"/><path class="cls-5" d="M24.85,262.37a6.23,6.23,0,0,0-.86.42l-.12.08"/><path class="cls-5" d="M30.56,260.63l-1.29.37-1.36.41c-.95.3-2,.54-3,.93"/><path class="cls-5" d="M34.66,259.6l-1.27.3"/><path class="cls-5" d="M38.71,258.79l-2,.37"/><path class="cls-5" d="M39.27,258.69l-.53.09"/><path class="cls-5" d="M41.33,258.36l-1.28.2"/><path class="cls-5" d="M48.19,257.61l-1.3.1c-.94.09-1.87.18-2.8.29s-1.73.21-2.59.33"/><path class="cls-5" d="M80.44,259.26,74,259a18.68,18.68,0,0,1-3.35-.23,79.6,79.6,0,0,0-21.86-1.23"/><path class="cls-5" d="M96.72,259.82l-12.28-.42-2.72-.1"/><path class="cls-5" d="M101.61,260h-.12"/><path class="cls-5" d="M87.76,282.59s-34.5-7.22-72,2.1"/><path class="cls-5" d="M86.5,275a24.44,24.44,0,0,1-5-.07,11.18,11.18,0,0,1-7.13-5.06"/><path class="cls-5" d="M10.93,293.8a.88.88,0,0,0,.1.35c.44.87,1.64,1.39,2.05,2.28a4.41,4.41,0,0,1,.12,1.72v.05a2.07,2.07,0,0,0,.12.75c.22.54,1,1.07,1.51,1.5l.23.2h-.38a3.33,3.33,0,0,0-2.45,2.1l0,.09a6.25,6.25,0,0,0-.41,1.27,22.25,22.25,0,0,0-.16,4.69c0,.13,0,.26,0,.39,0,.55,0,1.11,0,1.66,0,1.23,0,2.46,0,3.7,0,3.42,0,6.85,0,10.27v.49c0,.3,0,.59,0,.88v.14a9.13,9.13,0,0,0,.37,2.91A13.86,13.86,0,0,0,15,334.65l1.14,1.21,0,0c.91,1,1.84,1.93,2.76,2.89"/><path class="cls-5" d="M91.34,296.62a2.06,2.06,0,0,1,.12-1.56c.43-.63,1.7-.91,2-1.6a2.37,2.37,0,0,0,0-.75c0-.59-.06-1.18-.1-1.77v0c-.08-1.48,0-3-.2-4.49a3.09,3.09,0,0,0-1.31-1.86,10.22,10.22,0,0,0-2.1-1.21c-.49-.22-1.56-.41-1.9-.81l-.07-.11a5.87,5.87,0,0,1-.18-1.57c-.09-.74-.18-1.47-.28-2.2-.14-1-.13-2.82-.79-3.63h12l1.58,0h0c.27,0,.54,0,.8,0a1.23,1.23,0,0,0,.39,0l.1-.09.14-.22.08-.13a.56.56,0,0,0,.11-.2,14.83,14.83,0,0,0,2-7.71,12.32,12.32,0,0,0-1.1-4.87,3.55,3.55,0,0,0-.21-.44,3.17,3.17,0,0,0-.21-.41,1.18,1.18,0,0,0-.11-.19,2,2,0,0,0-.14-.25,3.39,3.39,0,0,0-.19-.3l0,0a.36.36,0,0,0-.21-.15,3.59,3.59,0,0,0-.42,0l-4.35-.15-15-.52-1.28,0c-3-.07-6,0-9-.31-2.43-.23-4.85-.86-7.3-1.11a91.13,91.13,0,0,0-15.41-.27l-.57,0-1.3.1c-.94.08-1.87.18-2.8.29-.5.05-1,.11-1.49.18l-1.1.15-.17,0-1.28.2-.78.13-.53.09h0c-.66.11-1.31.24-2,.37l-2.08.44-1.27.3c-1,.23-1.89.47-2.83.73l-1.29.37-.62.18a36.45,36.45,0,0,0-3.74,1.16l-.06,0a6,6,0,0,0-1,.5h0a13.19,13.19,0,0,0-2.61,2.28c-2.63,2.87-3.31,6.61-4,10.31l-.15.74s0,0,0,.05c-.17.83-.33,1.66-.47,2.49h0c-.14.79-.27,1.59-.38,2.38a2.51,2.51,0,0,0,0,.27c-.08.59-.16,1.17-.23,1.75a5.64,5.64,0,0,1-.18,1.53h0a.54.54,0,0,1-.24.12l0,0-.09,0,0,0,0,0c-.58.41-1.31.67-1.91,1.06A4.58,4.58,0,0,0,11,290a.49.49,0,0,0,0,.12c0,.13,0,.26,0,.39s0,.54,0,.82,0,.35,0,.53,0,.35,0,.53,0,.41,0,.61a.22.22,0,0,1,0,.08,4.9,4.9,0,0,0,0,.65"/><path class="cls-5" d="M78.32,372.8c.45,0,.91.08,1.25.07l4.05,0,9.47-.1,3.84,0h.23a5.38,5.38,0,0,0,1.71,0c.92-.37,1.45-2.69,1.65-3.51a17.05,17.05,0,0,0,.15-6.33,27.63,27.63,0,0,0-1.09-4.46c-.09-.29-.3-1.32-.56-1.43-.11-.06-.37,0-.49,0H90.3a4.81,4.81,0,0,1,.11-1.53.65.65,0,0,1,.34-.25c.26-.11.58-.16.79-.24s1.14-.21,1.3-.43.06-1.31.07-1.63a3.17,3.17,0,0,1,.06-1.07c.22-.4,1.11-.87,1.47-1.15s.5-.32.56-.68a2.08,2.08,0,0,0,0-.7,7.33,7.33,0,0,1-.11-.76c-.05-.78,0-1.68,0-2.55a3.82,3.82,0,0,0-1-2.73,4.64,4.64,0,0,0-2.42-1.08,7.69,7.69,0,0,1-1.53-.31,1.93,1.93,0,0,1-.71-.85h0c-.31-.57-.55-1.27-.76-1.68-.45-.87-.18-.84.47-1.6l2.73-3.16a11.57,11.57,0,0,0,2.75-4c.89-2.79.27-6.1.16-9-.12-3.3-.21-6.6-.29-9.9-.06-2.28-.12-4.56-.16-6.84,0-2.53-2.52-3.33-4.73-3.43a2.64,2.64,0,0,0,.25-.87c0-.42-.09-.3-.32-.54l.75-.42a2.93,2.93,0,0,0,1.3-1.37,2.27,2.27,0,0,0,0-1.19"/><path class="cls-5" d="M19,338.79c-.87.89-1.13,2.33-1.66,3.52a3.59,3.59,0,0,1-1.11,1.49l-.2.11a.88.88,0,0,1-.21.12,9.84,9.84,0,0,0-1.12.58h0a3.47,3.47,0,0,0-1.42,1.51,11.21,11.21,0,0,0-.54,4.35v0c0,.16,0,.31,0,.46a2.41,2.41,0,0,0,.53,1.68c.15.25.31.51.47.75a.21.21,0,0,0,0,.06,5.44,5.44,0,0,0,.58.76c.19.2.38.36.55.52a.34.34,0,0,1,.08.09,2,2,0,0,1,.43.6s0,.09.05.14a0,0,0,0,0,0,0,3.86,3.86,0,0,0,.35,1.2.77.77,0,0,0,.46.22l.06,0a.87.87,0,0,1,.52.24,1.72,1.72,0,0,1,.2.67c.05.32.07.67.11.87s.12.52.19.78c.29,1.25.63,2.48,1,3.7.16.48.33.95.51,1.42a1.34,1.34,0,0,0,.07.18,3.33,3.33,0,0,0,.16.4c.06.18.14.37.22.55s.17.42.27.63.19.44.29.65a.25.25,0,0,0,0,.07c1.06,2.28,2.24,4.46,4.63,5.5a10.44,10.44,0,0,0,2.06.63l.1,0,.33.07c.91.17,1.84.26,2.76.34l.38,0c.42,0,.85.07,1.28.09.15,0,.3,0,.45,0h.3a.66.66,0,0,1,.32,0c.06.06,0,.42,0,.58v.06c0,.57,0,1.14,0,1.7,0,.82.06,1.65.06,2.46v.53c0,1,.33,1.3,1.39,1.31h1.06a2,2,0,0,0,.34,0c.88,0,1.75,0,2.63-.06h.52c.22,0,.77-.1.87,0,.3.29-.12,1.31.11,1.67a.48.48,0,0,0,.28.17h0a10.2,10.2,0,0,0,2.14,0c0,1-.08,2.09-.11,3.14H43.4c.68,0,.63-.08.63.61v9.71a4,4,0,0,0,.26,2c.47.94,2.2.53,3.08.53,1.09,0,1.57-.2,1.62-1.52,0-.83,0-1.67,0-2.5v-6.93h1.4a5.05,5.05,0,0,1,1.6,0c.44.17.66.88,1.08,1.09s1-.11,1.23.08,0,2,0,2.35v4.38a8.41,8.41,0,0,0,0,2.35c.4,1.18,2.17.93,3.09.93a4.45,4.45,0,0,0,1.41,0c.45-.22.55-1.15.57-1.57.06-1.06,0-2.13,0-3.19v-6.89H63a1.49,1.49,0,0,0,1-.2c.66-.37,1.19-1.38,1.76-1.55s1.17.21,1.54-.07.35-1,.39-1.28c.08-.49-.1-1.57.14-2s.72-.56,1-1c.39-.74,0-1.05.87-1.05H74c1.15,0,2,.25,2.66-.95s.31-3,.33-4.2A5.5,5.5,0,0,1,77,373v0c.1-.12,0,0,.23-.08a2.76,2.76,0,0,1,1-.1"/><path class="cls-5" d="M90.73,355.1a346,346,0,0,0-59.87-.42c-5.06.38-10.11.87-15.14,1.54"/><path class="cls-5" d="M89.41,357.06c-.59,2.82-1.13,5.65-1.78,8.45a8.6,8.6,0,0,1-3.24,4.71,14.46,14.46,0,0,1-6.07,2.58h0c-.42.08-.85.15-1.27.2s-.6.08-.9.11c0-.45.15-1.76-.17-2s-.8-.12-1-.15c-1.84-.25-3.69-.41-5.53-.53a169.61,169.61,0,0,0-23.75.27q-4.78.36-9.56.93l-2.29.28c-.36,0-2.2.07-2.35.33a3.79,3.79,0,0,0,0,1.56.28.28,0,0,1,0,.09c0,.11,0,.2,0,.28"/><path class="cls-5" d="M95.05,349.27H95a416.57,416.57,0,0,0-65.8-.33c-5.51.38-11,.88-16.51,1.55h0"/><path class="cls-5" d="M89.17,341a226.87,226.87,0,0,0-28.66-1.76,290.75,290.75,0,0,0-29.36,1.29c-4.45.42-8.9.94-13.32,1.68l-.54.09h-.08"/><path class="cls-5" d="M94.69,346a286.49,286.49,0,0,0-65.51-.91c-5.43.52-10.84,1.2-16.22,2.12H12.9"/><path class="cls-5" d="M91.57,297a1.27,1.27,0,0,0-.23-.34c-.82-.92-2.86-1.29-3.8-1.54a67.79,67.79,0,0,0-9.18-1.6c-3.62-.44-7.3-.85-11-1-6.34-.18-12.68-.18-19,.08-5.77.24-11.53.69-17.28,1.42a106.11,106.11,0,0,0-10.79,1.83,30.15,30.15,0,0,0-4.46,1.35,5.6,5.6,0,0,0-2.53,1.64"/><path class="cls-5" d="M93.22,290.9c-1.29-1.5-4-2-5.82-2.48-7.62-1.94-15.69-2.32-23.53-2.44-1.34,0-2.67,0-4,0-2.43,0-4.87,0-7.3.1q-6.09.18-12.17.6c-4.18.3-8.25.83-12.38,1.48-3.27.51-6.56,1-9.76,1.81-2.38.62-6,1.46-7.32,3.83,0,0,0,0,0,0l0,0"/><path class="cls-5" d="M79.46,332.78a7.43,7.43,0,0,1,.3-2.3c.58-2.77,1.06-5.56,1.56-8.35q1.29-7.15,2.52-14.34l.57-3.28.06-.35h4a2,2,0,0,1,1.86,2c.12,2.86,0,5.75,0,8.62,0,.12.09.71,0,.8s-1.62,0-1.93,0c-.49,0-.51-.07-.78.24a4.88,4.88,0,0,0-.72,1.65,11,11,0,0,0,.2,7.06c.14.39.39,1.4.74,1.54a3.69,3.69,0,0,0,1,0c.34,0,1.35-.15,1.53.08s0,1.72,0,2.07c0,.59,0,1.18,0,1.76a6,6,0,0,1-2,3.61l-1.68,1.85A10.6,10.6,0,0,1,85.36,337c-.35.25-.27.19-.73,0l-2.23-1.09A5.46,5.46,0,0,1,79.88,334a2.63,2.63,0,0,1-.42-1.21"/><path class="cls-5" d="M26.88,333.82a3.18,3.18,0,0,0,.16-.32,4.06,4.06,0,0,0-.07-2.81c-1.14-4.6-2-9.27-2.93-13.91-.44-2.18-.88-4.35-1.3-6.53-.42-2-.82-4.07-1.22-6.1l-1.83.05a11.72,11.72,0,0,0-2.44.06,1.63,1.63,0,0,0-1.1.82,3.34,3.34,0,0,0-.37,1.8c.07,2.95.15,5.91.22,8.86l1.38,0c.25,0,.95-.15,1.18,0,.5.27.86,1.66,1,2.13a10.7,10.7,0,0,1,.27,5.33c-.12.59-.51,2.75-1.07,3a5.48,5.48,0,0,1-1.67,0c-.26,0-.8-.07-.93.1s0,1.24,0,1.49a20.64,20.64,0,0,0,.09,2.61c.33,2.31,3,4.31,4.49,5.91.16.16.59.8.83.86s.43-.16.61-.25c1.05-.55,2.14-1,3.15-1.64a3.52,3.52,0,0,0,.56-.39,3.67,3.67,0,0,0,.93-1.07"/><path class="cls-5" d="M79.51,332.79h-.05a75.23,75.23,0,0,0-13.31-1.22c-1.57,0-3.13,0-4.7,0a2.7,2.7,0,0,1-2.24-.78c-.63-.81-.33-2.51-.33-3.49,0-7.12,0-14.24,0-21.35,0-1.06,0-2.11,0-3.17,0-.87,0-1.74,0-2.6a3.65,3.65,0,0,0-.38-1.59,1.34,1.34,0,0,0-1.1-.78,1.37,1.37,0,0,0-1.19,1.06,6.62,6.62,0,0,0-.22,2.26v27.07a6.11,6.11,0,0,1-.13,1.86c-.58,1.76-2.51,1.36-4,1.39a161.12,161.12,0,0,0-19.14,1.35c-1.95.28-3.9.6-5.83,1"/><line class="cls-5" x1="26.87" y1="333.82" x2="26.88" y2="333.82"/><path class="cls-5" d="M112.13,372.88H98.35a3.35,3.35,0,0,1-1,0,.46.46,0,0,1-.19-.18,9.55,9.55,0,0,1-.67-2.35,25.82,25.82,0,0,1-.68-4.8,27.76,27.76,0,0,1,.21-5c.11-.75.24-1.5.41-2.23a14,14,0,0,1,.29-1.39.68.68,0,0,1,.21-.38c.35-.25,1.84,0,2.26,0h12.94"/><path class="cls-6" d="M21.33,310.91l.75-.36q.33-.17.66-.3"/><path class="cls-4" d="M197.33,346.09a7.8,7.8,0,0,1-.64,1.06A26.24,26.24,0,0,1,180,359.94a44.38,44.38,0,0,1-10.55.79H149.6c-2.16,0-4.33,0-6.49-.1A25.45,25.45,0,0,1,132,357.41a27.4,27.4,0,0,1-8.71-7.71,28.77,28.77,0,0,1-2-3.28,3.21,3.21,0,0,1-.19-.38c0-.11,0-.2.12-.42a9.44,9.44,0,0,1,2.12-2.16c5.4-4.79,12.38-6.55,19.41-7,4.07-.28,8.18-.1,12.25-.1H167.3a80.19,80.19,0,0,1,12.78.5,31.51,31.51,0,0,1,11.22,3.89,23.64,23.64,0,0,1,4.7,3.62c.31.31,1.34,1.1,1.37,1.55A.5.5,0,0,1,197.33,346.09Zm-33.68,7c2,0,1.82-2.24,1.76-3.61s-1-1.95-2.26-1.95h-7.21a6.05,6.05,0,0,0-2.4.17c-1.27.59-1.07,2.27-1,3.44.12,2.57,3.2,1.95,5,1.95Z"/><rect class="cls-3" x="119.6" y="392.68" width="4.68" height="6.02" rx="0.05" transform="translate(243.89 791.37) rotate(180)"/><rect class="cls-3" x="193.78" y="392.79" width="4.68" height="6.02" rx="0.05" transform="translate(392.25 791.59) rotate(180)"/><rect class="cls-3" x="112.41" y="354.53" width="4.09" height="20.09" transform="translate(228.91 729.15) rotate(-180)"/><path class="cls-5" d="M200.26,387.16h6.16V368.32a4.7,4.7,0,0,0,0-1.45c-.18-.32-.85-.16-1.3-.16h-3"/><path class="cls-5" d="M116.7,354.25h-3.13c-.5,0-1.25-.21-1.41.21a5,5,0,0,0,0,1.77,1.09,1.09,0,0,1,0,.18v3.35c0,4.26,0,8.53,0,12.79,0,.56,0,1.12,0,1.68s.18.47.9.47h3.64"/><path class="cls-5" d="M151.81,428l-.06.09c-.41.71.44,2.41.76,2.87a4.13,4.13,0,0,0,3.62,1.76h5.46a4.64,4.64,0,0,0,3-.73,4.33,4.33,0,0,0,1.81-3.61"/><path class="cls-5" d="M151.14,426.13c0,.38-.18,1.27,0,1.59a1,1,0,0,0,.61.36,11.81,11.81,0,0,0,2.08.29,20.52,20.52,0,0,0,3.57-.46,7.52,7.52,0,0,1,2.49.29,9,9,0,0,0,3.32.09c.51-.08,1-.22,1.54-.26a3.38,3.38,0,0,1,1.23.26,1.6,1.6,0,0,0,.45.07c1.11,0,.87-1.34.86-2.25v0"/><path class="cls-5" d="M116.08,363.56h0a268.42,268.42,0,0,0,31.27,2.91,296.83,296.83,0,0,0,39.78-1.11c5-.47,10-1.05,14.91-1.85"/><path class="cls-5" d="M193.51,402.28a25.29,25.29,0,0,1-.38,5,16.39,16.39,0,0,1-4.67,8.51,48.4,48.4,0,0,1-9.16,6.91,28,28,0,0,1-9.94,3.17c-.69.09-1.38.16-2.07.23a95.71,95.71,0,0,1-16.15,0l-.8-.06a29.36,29.36,0,0,1-8.62-2,37.28,37.28,0,0,1-9.93-6.5,20.17,20.17,0,0,1-4.6-4.89,18,18,0,0,1-2-4.79,24.5,24.5,0,0,1-.51-5.56c0-.38,0-.76,0-1.14"/><path class="cls-5" d="M193.52,401.19c0,.35,0,.71,0,1.07"/><path class="cls-5" d="M120.82,346.06l0,0a12.57,12.57,0,0,0-3.34,5.45,19.08,19.08,0,0,0-.73,2.71,45.87,45.87,0,0,0-.59,8.13c0,.4,0,.8,0,1.19,0,3.73.26,7.42.56,11.13l.24,2.9c.23,2.95.38,5.95.85,8.87l0,.22c.16,1,.29,2,.45,3a4,4,0,0,0,1,2.45,1,1,0,0,0,.2.16c1,.63,2.38.08,3.47.29,1.43.27,1.26,1.73,1.32,2.84l.18,3.44c0,.33,0,.66,0,1a18.79,18.79,0,0,0,.25,2.47,10.45,10.45,0,0,0,1.8,4.5,9.87,9.87,0,0,0,4.57,3.05c2,.85,4.07,1.59,6.15,2.25a76,76,0,0,0,17.35,3.47,71.3,71.3,0,0,0,32.72-5.77,9.66,9.66,0,0,0,4.49-3.09,10.88,10.88,0,0,0,1.76-4.46v0c0-.14.05-.28.07-.42a27.31,27.31,0,0,0,.25-2.87c.07-1.24.08-2.48.15-3.7s0-2.44,1.35-2.69c1.09-.2,2.54.36,3.51-.33.8-.57.95-1.8,1.09-2.7s.23-1.59.35-2.39c0-.16.05-.31.07-.47s0-.17,0-.26c.19-1.19.3-2.39.41-3.59.5-5.34,1.09-10.76,1.26-16.13,0-.24,0-.49,0-.73,0-.82,0-1.64,0-2.46,0-1.59-.08-3.18-.12-4.76-.12-4-1-8.27-3.5-11.48a7.68,7.68,0,0,0-1.13-1.22"/><path class="cls-5" d="M197,346c0-.11,0-.2-.12-.42a9.44,9.44,0,0,0-2.12-2.16c-5.4-4.79-12.38-6.55-19.41-7-4.07-.28-8.18-.1-12.25-.1H150.82a80.19,80.19,0,0,0-12.78.5,31.51,31.51,0,0,0-11.22,3.89,23.64,23.64,0,0,0-4.7,3.62c-.31.31-1.34,1.1-1.37,1.55a.5.5,0,0,0,0,.19,7.8,7.8,0,0,0,.64,1.06,26.24,26.24,0,0,0,16.67,12.79,44.38,44.38,0,0,0,10.55.79h19.87c2.16,0,4.33,0,6.49-.1a25.45,25.45,0,0,0,11.12-3.22,27.4,27.4,0,0,0,8.71-7.71,28.77,28.77,0,0,0,2-3.28A3.21,3.21,0,0,0,197,346Z"/><path class="cls-5" d="M154.47,353.11h6.14c1.79,0,4.87.62,5-1.95.05-1.17.25-2.85-1-3.44a6.05,6.05,0,0,0-2.4-.17H155c-1.28,0-2.2.55-2.26,1.95S152.5,353.11,154.47,353.11Z"/><path class="cls-5" d="M161.59,432.71h0v8c0,.28.19,1.52,0,1.73s-1.66,0-2,0h-1.72c-.2,0-.95.12-1.12,0s-.09-.75-.09-1v-8.71"/><path class="cls-5" d="M119.1,392.26c.55.4.34,1.78.34,2.37,0,1.12-.1,2.3,0,3.42s1,.83,1.87.83h2.92"/><path class="cls-5" d="M193.77,399h2.84c.84,0,1.85.24,2-.84s0-2.23,0-3.32c0-.63-.22-2,.34-2.47"/><line class="cls-5" x1="120.75" y1="346.06" x2="120.75" y2="346.09"/><g id="station-1-sign"><path class="cls-7" d="M243,383.49l-72.25.15a5.14,5.14,0,0,1-4.46-7.71l36.2-62.63a5.13,5.13,0,0,1,8.89,0l36.05,62.49A5.13,5.13,0,0,1,243,383.49Z"/><path class="cls-8" d="M212.11,370.16a5.32,5.32,0,1,1-5.31-5.31,5.32,5.32,0,0,1,5.31,5.31"/><path class="cls-8" d="M213.74,338.73c0,3.84-3.1,23-6.94,23s-7-19.16-7-23a7,7,0,1,1,13.9,0"/></g></svg>