<svg id="7542c4c3-b750-4683-8485-2516959996ba" data-name="playground-second" xmlns="http://www.w3.org/2000/svg" width="681.29" height="307.27" viewBox="0 0 681.29 307.27"><title>playground-act2-image-cow</title><g id="8a2cc5d6-fe27-4d62-9e1f-69017c298897" data-name="page-act2-gradients"><path d="M465.6,219.86c-.49-42.87,34.4-78,77.94-78.5s79.22,33.88,79.71,76.75q0,.87,0,1.75v1.45h29.32c-2.93-57.85-50-103.81-107.49-103.81s-104.56,46-107.49,103.81h28Z" style="fill:#bba0cc"/><path d="M544.08,141.46c-44.16,0-79.75,35.25-79.75,79v1.47h25a54.79,54.79,0,0,1,54.87-51.07c29.33,0,53.22,22.52,54.87,51.07h24.72v-1.47C623.83,176.73,588.24,141.46,544.08,141.46Z" style="fill:#9570b1"/><path d="M544.6,196.66a29,29,0,0,1,29,25.25h26.66c-1.67-28.69-25.82-51.32-55.48-51.32-29.49,0-53.65,22.63-55.48,51.32h26.32A29,29,0,0,1,544.6,196.66Z" style="fill:#7e55a3"/><path d="M544.77,195.55a30.47,30.47,0,0,0-30.51,26.35h61A30.47,30.47,0,0,0,544.77,195.55Z" style="fill:#6b469c"/></g><path id="c71636e3-6785-4917-a133-f05ded73db47" data-name="page-second-station-1-green-graph" d="M44.88,222.43c8.1,3.9,16.1,7.8,24.2,11.7,5.1,2.5,10.3,5,15.4,7.5,1.4.7,2.8,1.4,4.3,2.1a6.12,6.12,0,0,0,1.2.5c10.1,2.2,20.2,4.1,30.3,6.1l13.4,2.7a7.72,7.72,0,0,0,1.5.2,25.72,25.72,0,0,0,3.8-.8l34.2-6.9c2.5-.5,5.1-.8,7.6-1.5,3.2-.9,6.3-2.1,9.5-3.2l32.7-11.1a36.57,36.57,0,0,0,4.6-1.8c4.2-2.1,8.3-4.3,12.5-6.4,9.7-4.9,19.4-9.9,29-14.8a19,19,0,0,0,3.9-3.1c3.9-3.6,7.9-7.2,11.8-10.9,4.6-4.2,9.1-8.4,13.7-12.6,2.4-2.2,4.9-4.2,7.1-6.5,1-1,1.9-2.2,2.9-3.3,2-2.4,4.1-4.7,6.1-7.1.7-.9,1.5-1.7,2.2-2.6.1-.1.4-.6.6-.6a2.18,2.18,0,0,1,.8.5c.5.3,1.1.7,1.6,1,9.6,6.1,19.2,12.3,28.8,18.4,3.7,2.4,7.4,4.7,11.1,7.1a16,16,0,0,0,4.6,1.7c11.2,3.3,22.3,6.5,33.5,9.8l6.2,1.8a23.35,23.35,0,0,0,2.5.7,85.51,85.51,0,0,0,8.7.9l33.8,3.6a41.93,41.93,0,0,0,5,.3h40.9a15,15,0,0,1,3,0,11.46,11.46,0,0,1,2.3,1c2.2.9,4.3,1.9,6.5,2.8,5.8,2.5,11.5,5,17.3,7.5l9,3.9" style="fill:none;stroke:#ef4136;stroke-miterlimit:10"/><path id="22533541-ef5f-40eb-9fad-259991b63b30" data-name="page-second-station-1-red-graph" d="M196.38,271.53a12.1,12.1,0,0,0,1.6-1.6l3.6-3.6c3.4-3.5,6.8-7,10.1-10.5,4.7-4.8,9.3-9.6,13.9-14.5,3.6-3.8,7-7.7,10.6-11.5,6.7-7.3,13.5-14.6,20.2-21.9,4.8-5.2,9.6-10.5,14.4-15.7,3.9-4.3,7.4-9.1,11.1-13.6,1.7-2.1,3.6-4.2,5.2-6.5,1.1-1.5,1.9-3.2,2.9-4.7,4.8-7.9,9.6-15.7,14.5-23.6l11.7-19.2a2.84,2.84,0,0,1,.6-.9c.4-.1,1.5.5,1.9.6,3.4,1.1,6.8,2.3,10.2,3.4l27,9a48.83,48.83,0,0,1,5.4,1.8,19.92,19.92,0,0,1,1.9,1.2c1.6,1,3.2,1.9,4.7,2.9,4.2,2.6,8.5,5.2,12.7,7.8,2.8,1.7,5.6,3.7,8.5,5.3a10.7,10.7,0,0,0,3.2.7c3.3.7,6.7,1.3,10,2l29.1,5.7c6.8,1.3,13.5,2.7,20.3,4,1,.2,2,.2,3,.3,3.8.2,7.5.3,11.3.5l27.7,1.2c1.1,0,2.2.1,3.3.1a1.08,1.08,0,0,1,.8.2c2.4,1.4,4.6,3.2,6.9,4.8,7.8,5.4,15.5,10.9,23.3,16.3,1.6,1.1,3.2,2.2,4.8,3.4" style="fill:none"/><line id="8fff8e53-8c97-4363-b0b4-46f8d9782ca9" data-name="page-second-station-1-red-line" x1="285.68" y1="271.53" x2="285.68" y2="172.13" style="fill:none;stroke:#ef4136;stroke-miterlimit:10"/><line id="3a21ec14-d1d2-44c2-b91e-d11d3946bdb6" data-name="page-second-station-1-cow-trip" x1="43.38" y1="221.83" x2="707.98" y2="221.83" style="fill:none;stroke:#444949;stroke-miterlimit:10"/><circle cx="44.38" cy="222.43" r="2" style="fill:none"/><path d="M114.38,291.3V294a.16.16,0,0,1,0,.11.27.27,0,0,1-.13.08H113a.25.25,0,0,1-.13-.08.17.17,0,0,1,0-.11V291.3l-2-4.13a1.88,1.88,0,0,1-.14-.34.17.17,0,0,1,0-.18.43.43,0,0,1,.25-.08h.87a1,1,0,0,1,.25,0,.3.3,0,0,1,.14.08.7.7,0,0,1,.08.13l.84,1.86q.12.27.24.57l.24.63h0q.11-.32.23-.62l.23-.57.83-1.85a.46.46,0,0,1,.07-.15.31.31,0,0,1,.13-.09.84.84,0,0,1,.24,0h.92a.43.43,0,0,1,.25.08.17.17,0,0,1,0,.18,2.1,2.1,0,0,1-.14.33Z" style="fill:#b5b5b5"/><path d="M121.33,291.22a.57.57,0,0,1-.12.4.43.43,0,0,1-.33.13H117.7a2.17,2.17,0,0,0,.08.61,1.16,1.16,0,0,0,.25.46,1.1,1.1,0,0,0,.45.29,1.91,1.91,0,0,0,.65.1,3.68,3.68,0,0,0,.68-.06,4.52,4.52,0,0,0,.51-.12l.35-.12a.66.66,0,0,1,.23-.06H121a.15.15,0,0,1,.06.07.49.49,0,0,1,0,.15q0,.1,0,.24t0,.22a1.37,1.37,0,0,1,0,.16.37.37,0,0,1,0,.11l-.06.08a.71.71,0,0,1-.21.11,3.29,3.29,0,0,1-.43.14,5.93,5.93,0,0,1-.6.12,5,5,0,0,1-.73,0,3.85,3.85,0,0,1-1.22-.18,2.18,2.18,0,0,1-.88-.53,2.22,2.22,0,0,1-.52-.9,4.24,4.24,0,0,1-.17-1.28,4.06,4.06,0,0,1,.18-1.26,2.64,2.64,0,0,1,.53-1,2.27,2.27,0,0,1,.84-.59,2.89,2.89,0,0,1,1.12-.21,2.92,2.92,0,0,1,1.12.19,2,2,0,0,1,.76.54,2.16,2.16,0,0,1,.44.81,3.53,3.53,0,0,1,.14,1Zm-1.43-.42a1.52,1.52,0,0,0-.25-1,1,1,0,0,0-.82-.35,1.07,1.07,0,0,0-.49.11,1,1,0,0,0-.35.28,1.3,1.3,0,0,0-.21.42,2.1,2.1,0,0,0-.08.52Z" style="fill:#b5b5b5"/><path d="M126.22,292.5a1.76,1.76,0,0,1-.17.79,1.56,1.56,0,0,1-.47.57,2.13,2.13,0,0,1-.72.34,3.4,3.4,0,0,1-.9.11,3.44,3.44,0,0,1-.56,0,3.39,3.39,0,0,1-.48-.11,2.5,2.5,0,0,1-.35-.14.87.87,0,0,1-.21-.13.41.41,0,0,1-.1-.19,1.62,1.62,0,0,1,0-.39,2.52,2.52,0,0,1,0-.27.7.7,0,0,1,0-.16.15.15,0,0,1,.06-.08h.09a.44.44,0,0,1,.19.07l.31.16a3.33,3.33,0,0,0,.44.16,1.93,1.93,0,0,0,.57.08,1.39,1.39,0,0,0,.35,0,.89.89,0,0,0,.27-.12.5.5,0,0,0,.17-.19.59.59,0,0,0,.06-.27.45.45,0,0,0-.11-.3,1,1,0,0,0-.29-.22,3.3,3.3,0,0,0-.4-.18l-.46-.18a4.24,4.24,0,0,1-.46-.23,1.77,1.77,0,0,1-.4-.32,1.44,1.44,0,0,1-.29-.45,1.66,1.66,0,0,1-.11-.63,1.61,1.61,0,0,1,.15-.69,1.5,1.5,0,0,1,.42-.54,2,2,0,0,1,.67-.35,3,3,0,0,1,.89-.12,3.18,3.18,0,0,1,.48,0l.42.09.32.11.18.11a.29.29,0,0,1,.08.09.37.37,0,0,1,0,.11v.64a.67.67,0,0,1,0,.16.14.14,0,0,1-.06.08h-.08a.4.4,0,0,1-.16-.06l-.28-.13-.39-.13a1.86,1.86,0,0,0-.5-.06,1.29,1.29,0,0,0-.35,0,.66.66,0,0,0-.24.12.49.49,0,0,0-.14.18.52.52,0,0,0,0,.22.44.44,0,0,0,.11.3,1,1,0,0,0,.29.22,3.32,3.32,0,0,0,.41.18l.47.18a4.3,4.3,0,0,1,.47.23,1.77,1.77,0,0,1,.41.32,1.46,1.46,0,0,1,.29.45A1.57,1.57,0,0,1,126.22,292.5Z" style="fill:#b5b5b5"/><path d="M130.29,293.47a1.84,1.84,0,0,1,0,.4.43.43,0,0,1-.08.19.46.46,0,0,1-.16.1l-.24.08h-.63a2.34,2.34,0,0,1-.76-.11,1.27,1.27,0,0,1-.53-.34,1.43,1.43,0,0,1-.31-.58,3.07,3.07,0,0,1-.1-.83v-2.65h-.6q-.11,0-.17-.14a1.28,1.28,0,0,1-.06-.46,2.37,2.37,0,0,1,0-.29.69.69,0,0,1,0-.18.21.21,0,0,1,.07-.1h.72v-1.17a.18.18,0,0,1,0-.11.24.24,0,0,1,.12-.08h.94a.88.88,0,0,1,.23,0,.26.26,0,0,1,.12.08.17.17,0,0,1,0,.11v1.17h1.24a.21.21,0,0,1,.07.1.69.69,0,0,1,0,.18,2.37,2.37,0,0,1,0,.29,1.28,1.28,0,0,1-.06.46q-.06.14-.17.14h-1v2.46a1.22,1.22,0,0,0,.13.64.52.52,0,0,0,.48.21h.66a.14.14,0,0,1,0,.08,1.27,1.27,0,0,1,0,.17Z" style="fill:#b5b5b5"/><path d="M136,291.22a.57.57,0,0,1-.12.4.43.43,0,0,1-.33.13h-3.18a2.17,2.17,0,0,0,.08.61,1.16,1.16,0,0,0,.25.46,1.1,1.1,0,0,0,.45.29,1.91,1.91,0,0,0,.65.1,3.68,3.68,0,0,0,.68-.06A4.52,4.52,0,0,0,135,293l.35-.12a.66.66,0,0,1,.23-.06h.09a.15.15,0,0,1,.06.07.49.49,0,0,1,0,.15q0,.1,0,.24t0,.22a1.37,1.37,0,0,1,0,.16.37.37,0,0,1,0,.11l-.06.08a.71.71,0,0,1-.21.11,3.29,3.29,0,0,1-.43.14,5.93,5.93,0,0,1-.6.12,5,5,0,0,1-.73,0,3.85,3.85,0,0,1-1.22-.18,2.18,2.18,0,0,1-.88-.53,2.22,2.22,0,0,1-.52-.9,4.24,4.24,0,0,1-.17-1.28,4.06,4.06,0,0,1,.18-1.26,2.64,2.64,0,0,1,.53-1,2.27,2.27,0,0,1,.84-.59,2.89,2.89,0,0,1,1.12-.21,2.92,2.92,0,0,1,1.12.19,2,2,0,0,1,.76.54,2.16,2.16,0,0,1,.44.81,3.53,3.53,0,0,1,.14,1Zm-1.43-.42a1.52,1.52,0,0,0-.25-1,1,1,0,0,0-.82-.35,1.07,1.07,0,0,0-.49.11,1,1,0,0,0-.35.28,1.3,1.3,0,0,0-.21.42,2.1,2.1,0,0,0-.08.52Z" style="fill:#b5b5b5"/><path d="M140.61,289.24v.35a1.06,1.06,0,0,1,0,.21.21.21,0,0,1-.06.11.15.15,0,0,1-.1,0h-.57a.65.65,0,0,0-.25,0,1,1,0,0,0-.25.16,1.89,1.89,0,0,0-.28.28,4.58,4.58,0,0,0-.31.43V294a.16.16,0,0,1,0,.1.26.26,0,0,1-.12.07h-1.19a.26.26,0,0,1-.12-.07.16.16,0,0,1,0-.1v-5.31a.18.18,0,0,1,0-.1.21.21,0,0,1,.11-.07h1a.21.21,0,0,1,.1.07.18.18,0,0,1,0,.1v.65a4.17,4.17,0,0,1,.39-.48,2.19,2.19,0,0,1,.35-.3,1.09,1.09,0,0,1,.33-.16,1.26,1.26,0,0,1,.33,0h.5l.1.06a.18.18,0,0,1,0,.06.51.51,0,0,1,0,.1,1.45,1.45,0,0,1,0,.18A1.94,1.94,0,0,1,140.61,289.24Z" style="fill:#b5b5b5"/><path d="M146.33,294a.19.19,0,0,1,0,.11.21.21,0,0,1-.1.07h-1a.23.23,0,0,1-.11-.07.18.18,0,0,1,0-.11v-.58a3.36,3.36,0,0,1-.85.67,2.22,2.22,0,0,1-2,0,1.93,1.93,0,0,1-.67-.62,2.71,2.71,0,0,1-.38-.92,5,5,0,0,1-.12-1.1,4.84,4.84,0,0,1,.15-1.25,2.84,2.84,0,0,1,.44-1,1.94,1.94,0,0,1,.71-.6,2.2,2.2,0,0,1,1-.21,1.76,1.76,0,0,1,.8.18,2.83,2.83,0,0,1,.71.52v-2.83a.18.18,0,0,1,0-.11A.24.24,0,0,1,145,286h1.17a.26.26,0,0,1,.12.08.17.17,0,0,1,0,.11Zm-1.45-3.49a3.24,3.24,0,0,0-.61-.61,1,1,0,0,0-.61-.21.85.85,0,0,0-.5.14,1,1,0,0,0-.33.38,2,2,0,0,0-.19.54,3,3,0,0,0-.06.61,3.81,3.81,0,0,0,0,.64,2,2,0,0,0,.17.55,1,1,0,0,0,.32.39.83.83,0,0,0,.5.15,1,1,0,0,0,.3,0,1.13,1.13,0,0,0,.29-.14,2,2,0,0,0,.31-.26,4.67,4.67,0,0,0,.35-.4Z" style="fill:#b5b5b5"/><path d="M152.26,294a.16.16,0,0,1-.06.13.4.4,0,0,1-.18.07h-.75a.33.33,0,0,1-.17-.07.17.17,0,0,1,0-.13v-.42a2.38,2.38,0,0,1-.74.54,2.14,2.14,0,0,1-.92.19,2.57,2.57,0,0,1-.76-.11,1.72,1.72,0,0,1-.6-.32,1.45,1.45,0,0,1-.4-.53,1.8,1.8,0,0,1-.14-.74,1.67,1.67,0,0,1,.18-.79,1.45,1.45,0,0,1,.53-.56,2.65,2.65,0,0,1,.88-.33,6.3,6.3,0,0,1,1.22-.11h.53v-.32a1.66,1.66,0,0,0,0-.43.72.72,0,0,0-.16-.31.68.68,0,0,0-.3-.18,1.63,1.63,0,0,0-.47-.06,2.42,2.42,0,0,0-.66.08,3.78,3.78,0,0,0-.51.18l-.37.18a.54.54,0,0,1-.24.08.17.17,0,0,1-.11,0,.3.3,0,0,1-.08-.12.81.81,0,0,1,0-.19,1.58,1.58,0,0,1,0-.25,1.12,1.12,0,0,1,0-.29.44.44,0,0,1,.11-.19,1.1,1.1,0,0,1,.29-.19,3.37,3.37,0,0,1,.48-.19,4.45,4.45,0,0,1,2.32-.08,1.77,1.77,0,0,1,.72.37,1.43,1.43,0,0,1,.41.64,3,3,0,0,1,.13.93Zm-1.45-2.27h-.56a3,3,0,0,0-.61,0,1.17,1.17,0,0,0-.41.16.65.65,0,0,0-.23.25.77.77,0,0,0-.07.34.66.66,0,0,0,.21.52.83.83,0,0,0,.58.19,1.08,1.08,0,0,0,.57-.16,2.37,2.37,0,0,0,.53-.46Z" style="fill:#b5b5b5"/><path d="M156.54,294.18l-.66,1.85a.38.38,0,0,1-.29.21,2.75,2.75,0,0,1-.69.06h-.37a.52.52,0,0,1-.21-.07.15.15,0,0,1-.08-.12.38.38,0,0,1,0-.17l.7-1.75a.4.4,0,0,1-.14-.11.51.51,0,0,1-.09-.16l-1.8-4.8a1,1,0,0,1-.08-.31.21.21,0,0,1,.07-.17.46.46,0,0,1,.24-.08H154a.71.71,0,0,1,.23,0,.25.25,0,0,1,.12.11,1.09,1.09,0,0,1,.08.21l1.23,3.5h0l1.13-3.57a.4.4,0,0,1,.09-.2.38.38,0,0,1,.18-.07,2.92,2.92,0,0,1,.45,0h.39a.5.5,0,0,1,.25.09.21.21,0,0,1,.08.17.85.85,0,0,1,0,.25Z" style="fill:#b5b5b5"/><g id="2e6386e2-fd45-412c-bf85-884b098bf084" data-name="page-second-station-1-red-time"><path d="M279.21,290.36a8.4,8.4,0,0,1-.15,1.64,3.6,3.6,0,0,1-.48,1.25,2.23,2.23,0,0,1-.86.79,3.22,3.22,0,0,1-2.59,0,2,2,0,0,1-.81-.77,3.49,3.49,0,0,1-.42-1.22,10.07,10.07,0,0,1-.12-1.64,8.25,8.25,0,0,1,.1-1.68,3.64,3.64,0,0,1,.48-1.25,2.23,2.23,0,0,1,.86-.79,3.22,3.22,0,0,1,2.58,0,2,2,0,0,1,.81.77,3.45,3.45,0,0,1,.42,1.22A10.31,10.31,0,0,1,279.21,290.36Zm-1.55.08v-1a5.73,5.73,0,0,0-.09-.72,2.64,2.64,0,0,0-.15-.52,1,1,0,0,0-.22-.34.74.74,0,0,0-.29-.18,1.18,1.18,0,0,0-.36,0,.93.93,0,0,0-.57.17,1.11,1.11,0,0,0-.36.5,3.21,3.21,0,0,0-.18.83,11.18,11.18,0,0,0,0,1.16,11.44,11.44,0,0,0,.06,1.34,3.07,3.07,0,0,0,.2.84.91.91,0,0,0,.35.44,1.13,1.13,0,0,0,.92.06.85.85,0,0,0,.31-.22,1.21,1.21,0,0,0,.22-.37,2.87,2.87,0,0,0,.14-.52,5.08,5.08,0,0,0,.08-.66v-.76Z" style="fill:#ef4136"/><path d="M285.11,292a2.25,2.25,0,0,1-.22,1,2.09,2.09,0,0,1-.6.74,2.73,2.73,0,0,1-.93.45,4.24,4.24,0,0,1-1.18.16,4.5,4.5,0,0,1-.73-.06,4.37,4.37,0,0,1-.6-.14,2.75,2.75,0,0,1-.43-.17l-.22-.13a.31.31,0,0,1-.08-.11.86.86,0,0,1,0-.14,1.14,1.14,0,0,1,0-.2v-.29a1.1,1.1,0,0,1,0-.39.15.15,0,0,1,.14-.11.52.52,0,0,1,.2.08l.37.17a4.32,4.32,0,0,0,.52.17,2.66,2.66,0,0,0,.68.08,1.92,1.92,0,0,0,.57-.08,1.26,1.26,0,0,0,.42-.21.86.86,0,0,0,.26-.33,1.09,1.09,0,0,0,.08-.44,1.07,1.07,0,0,0-.1-.47,1,1,0,0,0-.3-.36,1.5,1.5,0,0,0-.51-.23,2.83,2.83,0,0,0-.72-.08h-.79a.18.18,0,0,1-.09-.08.52.52,0,0,1,0-.18,2.41,2.41,0,0,1,0-.3,2.14,2.14,0,0,1,0-.28.49.49,0,0,1,0-.17.18.18,0,0,1,.08-.08h.78a2.1,2.1,0,0,0,.6-.08,1.26,1.26,0,0,0,.44-.23,1,1,0,0,0,.27-.35,1.11,1.11,0,0,0,.09-.46,1,1,0,0,0-.06-.37.82.82,0,0,0-.19-.3.88.88,0,0,0-.33-.2,1.36,1.36,0,0,0-.47-.07,1.79,1.79,0,0,0-.57.09,3.65,3.65,0,0,0-.48.2l-.36.2a.5.5,0,0,1-.22.09h-.08a.15.15,0,0,1-.06-.08.67.67,0,0,1,0-.17,2.87,2.87,0,0,1,0-.29v-.24a.81.81,0,0,1,0-.16.49.49,0,0,1,0-.11l.08-.1.24-.17a2.8,2.8,0,0,1,.46-.22,4,4,0,0,1,.64-.18,3.93,3.93,0,0,1,.78-.07,3.36,3.36,0,0,1,1,.13,2,2,0,0,1,.71.37,1.56,1.56,0,0,1,.44.6,2,2,0,0,1,.15.8,2.27,2.27,0,0,1-.09.64,1.73,1.73,0,0,1-.26.53,1.56,1.56,0,0,1-.42.4,1.93,1.93,0,0,1-.59.25h0a2.19,2.19,0,0,1,.71.2,1.83,1.83,0,0,1,.54.39,1.67,1.67,0,0,1,.34.53A1.71,1.71,0,0,1,285.11,292Z" style="fill:#ef4136"/><path d="M288.21,289.55a1.73,1.73,0,0,1,0,.41.61.61,0,0,1-.14.27.53.53,0,0,1-.25.15,1.83,1.83,0,0,1-.8,0,.53.53,0,0,1-.25-.15.56.56,0,0,1-.13-.27,2,2,0,0,1,0-.41,2.14,2.14,0,0,1,0-.42.57.57,0,0,1,.13-.28.55.55,0,0,1,.25-.15,1.72,1.72,0,0,1,.8,0,.55.55,0,0,1,.25.15.61.61,0,0,1,.14.28A1.83,1.83,0,0,1,288.21,289.55Zm0,3.83a1.76,1.76,0,0,1,0,.41.61.61,0,0,1-.14.27.53.53,0,0,1-.25.15,1.83,1.83,0,0,1-.8,0,.53.53,0,0,1-.25-.15.57.57,0,0,1-.13-.27,2,2,0,0,1,0-.41,2.14,2.14,0,0,1,0-.42.57.57,0,0,1,.13-.28.53.53,0,0,1,.25-.15,1.83,1.83,0,0,1,.8,0,.53.53,0,0,1,.25.15.61.61,0,0,1,.14.28A1.84,1.84,0,0,1,288.21,293.38Z" style="fill:#ef4136"/><path d="M294.53,293.55a2.45,2.45,0,0,1,0,.29.84.84,0,0,1,0,.2.22.22,0,0,1-.08.11.18.18,0,0,1-.11,0h-4.58a.29.29,0,0,1-.15-.09.43.43,0,0,1-.08-.2,1.71,1.71,0,0,1,0-.33,2.66,2.66,0,0,1,0-.33.91.91,0,0,1,.06-.25,1.14,1.14,0,0,1,.12-.21,2.13,2.13,0,0,1,.19-.23l1.31-1.41a6.92,6.92,0,0,0,.63-.75,4.34,4.34,0,0,0,.38-.62,2.28,2.28,0,0,0,.18-.51,2.13,2.13,0,0,0,0-.45,1.08,1.08,0,0,0-.06-.37.86.86,0,0,0-.18-.3.83.83,0,0,0-.3-.2,1.14,1.14,0,0,0-.43-.07,2,2,0,0,0-.61.09,3,3,0,0,0-.47.2l-.34.2a.43.43,0,0,1-.21.09.13.13,0,0,1-.09,0,.25.25,0,0,1-.06-.12,1.35,1.35,0,0,1,0-.22,3.29,3.29,0,0,1,0-.34v-.23a1,1,0,0,1,0-.16.46.46,0,0,1,0-.12.61.61,0,0,1,.1-.12,1.39,1.39,0,0,1,.27-.18,3.32,3.32,0,0,1,.48-.21,4.62,4.62,0,0,1,.63-.17,3.61,3.61,0,0,1,.72-.07,3.24,3.24,0,0,1,1,.15,2.05,2.05,0,0,1,.74.42,1.67,1.67,0,0,1,.44.63,2.14,2.14,0,0,1,.14.79,3.77,3.77,0,0,1-.07.73,2.77,2.77,0,0,1-.29.77,6.11,6.11,0,0,1-.63.91,14.66,14.66,0,0,1-1.07,1.16l-.88.91h3a.18.18,0,0,1,.11,0,.27.27,0,0,1,.08.11.68.68,0,0,1,.05.19A2,2,0,0,1,294.53,293.55Z" style="fill:#ef4136"/><path d="M300.77,290.36a8.4,8.4,0,0,1-.15,1.64,3.6,3.6,0,0,1-.48,1.25,2.23,2.23,0,0,1-.86.79,3.22,3.22,0,0,1-2.59,0,2,2,0,0,1-.81-.77,3.49,3.49,0,0,1-.42-1.22,10.08,10.08,0,0,1-.12-1.64,8.25,8.25,0,0,1,.15-1.64,3.64,3.64,0,0,1,.48-1.25,2.23,2.23,0,0,1,.86-.79,3.22,3.22,0,0,1,2.58,0,2,2,0,0,1,.81.77,3.45,3.45,0,0,1,.42,1.22A10.32,10.32,0,0,1,300.77,290.36Zm-1.55.08v-1a5.73,5.73,0,0,0-.09-.72,2.64,2.64,0,0,0-.15-.52,1,1,0,0,0-.22-.34.74.74,0,0,0-.29-.18,1.18,1.18,0,0,0-.36,0,.93.93,0,0,0-.57.17,1.11,1.11,0,0,0-.36.5,3.21,3.21,0,0,0-.18.83,11.19,11.19,0,0,0-.05,1.16,11.42,11.42,0,0,0,.06,1.34,3.07,3.07,0,0,0,.2.84.91.91,0,0,0,.35.44,1.14,1.14,0,0,0,.92.06.85.85,0,0,0,.31-.22,1.21,1.21,0,0,0,.22-.37,2.87,2.87,0,0,0,.14-.52,5.08,5.08,0,0,0,.08-.66Q299.22,290.88,299.22,290.44Z" style="fill:#ef4136"/></g><path d="M460.46,290.36a8.4,8.4,0,0,1-.15,1.64,3.6,3.6,0,0,1-.48,1.25,2.23,2.23,0,0,1-.86.79,3.22,3.22,0,0,1-2.59,0,2,2,0,0,1-.81-.77,3.49,3.49,0,0,1-.42-1.22,10.08,10.08,0,0,1-.12-1.64,8.25,8.25,0,0,1,.15-1.64,3.64,3.64,0,0,1,.48-1.25,2.23,2.23,0,0,1,.86-.79,3.22,3.22,0,0,1,2.58,0,2,2,0,0,1,.81.77,3.45,3.45,0,0,1,.42,1.22A10.32,10.32,0,0,1,460.46,290.36Zm-1.55.08v-1a5.73,5.73,0,0,0-.09-.72,2.64,2.64,0,0,0-.15-.52,1,1,0,0,0-.22-.34.74.74,0,0,0-.29-.18,1.18,1.18,0,0,0-.36,0,.93.93,0,0,0-.57.17,1.11,1.11,0,0,0-.36.5,3.21,3.21,0,0,0-.18.83,11.19,11.19,0,0,0-.05,1.16,11.42,11.42,0,0,0,.06,1.34,3.07,3.07,0,0,0,.2.84.91.91,0,0,0,.35.44,1.14,1.14,0,0,0,.92.06.85.85,0,0,0,.31-.22,1.21,1.21,0,0,0,.22-.37,2.87,2.87,0,0,0,.14-.52,5.08,5.08,0,0,0,.08-.66,6.22,6.22,0,0,1,0-.76Z" style="fill:#444949"/><path d="M466.39,287.25v.48a1.31,1.31,0,0,1-.06.21l-.08.21-2.5,5.78a.35.35,0,0,1-.09.12.4.4,0,0,1-.16.07h-1.12a.81.81,0,0,1-.27-.06.14.14,0,0,1-.09-.11.34.34,0,0,1,0-.17l2.68-5.92h-3.19q-.12,0-.18-.16a1.55,1.55,0,0,1-.06-.51,2.24,2.24,0,0,1,0-.3.93.93,0,0,1,0-.21.28.28,0,0,1,.08-.12.16.16,0,0,1,.1,0h4.69a.19.19,0,0,1,.11.09.59.59,0,0,1,.06.2A2.26,2.26,0,0,1,466.39,287.25Z" style="fill:#444949"/><path d="M469.46,289.55a1.73,1.73,0,0,1,0,.41.61.61,0,0,1-.14.27.53.53,0,0,1-.25.15,1.83,1.83,0,0,1-.8,0,.53.53,0,0,1-.25-.15.56.56,0,0,1-.13-.27,2,2,0,0,1,0-.41,2.14,2.14,0,0,1,0-.42.57.57,0,0,1,.13-.28.55.55,0,0,1,.25-.15,1.72,1.72,0,0,1,.8,0,.55.55,0,0,1,.25.15.61.61,0,0,1,.14.28A1.83,1.83,0,0,1,469.46,289.55Zm0,3.83a1.76,1.76,0,0,1,0,.41.61.61,0,0,1-.14.27.53.53,0,0,1-.25.15,1.83,1.83,0,0,1-.8,0,.53.53,0,0,1-.25-.15.57.57,0,0,1-.13-.27,2,2,0,0,1,0-.41,2.14,2.14,0,0,1,0-.42.57.57,0,0,1,.13-.28.53.53,0,0,1,.25-.15,1.83,1.83,0,0,1,.8,0,.53.53,0,0,1,.25.15.61.61,0,0,1,.14.28A1.84,1.84,0,0,1,469.46,293.38Z" style="fill:#444949"/><path d="M475.78,293.55a2.45,2.45,0,0,1,0,.29.84.84,0,0,1,0,.2.22.22,0,0,1-.08.11.18.18,0,0,1-.11,0H471a.29.29,0,0,1-.15-.09.43.43,0,0,1-.08-.2,1.71,1.71,0,0,1,0-.33,2.66,2.66,0,0,1,0-.33.91.91,0,0,1,.06-.25,1.14,1.14,0,0,1,.12-.21,2.13,2.13,0,0,1,.19-.23l1.31-1.41a6.92,6.92,0,0,0,.63-.75,4.34,4.34,0,0,0,.38-.62,2.28,2.28,0,0,0,.18-.51,2.13,2.13,0,0,0,0-.45,1.08,1.08,0,0,0-.06-.37.86.86,0,0,0-.18-.3.83.83,0,0,0-.3-.2,1.14,1.14,0,0,0-.43-.07,2,2,0,0,0-.61.09,3,3,0,0,0-.47.2l-.34.2a.43.43,0,0,1-.21.09.13.13,0,0,1-.09,0,.25.25,0,0,1-.06-.12,1.35,1.35,0,0,1,0-.22,3.29,3.29,0,0,1,0-.34v-.23a1,1,0,0,1,0-.16.46.46,0,0,1,0-.12.61.61,0,0,1,.1-.12,1.39,1.39,0,0,1,.27-.18,3.32,3.32,0,0,1,.48-.21,4.62,4.62,0,0,1,.63-.17,3.61,3.61,0,0,1,.72-.07,3.24,3.24,0,0,1,1,.15,2.05,2.05,0,0,1,.74.42,1.67,1.67,0,0,1,.44.63,2.14,2.14,0,0,1,.14.79,3.77,3.77,0,0,1-.07.73,2.77,2.77,0,0,1-.29.77,6.11,6.11,0,0,1-.63.91,14.66,14.66,0,0,1-1.07,1.16l-.88.91h3a.18.18,0,0,1,.11,0,.27.27,0,0,1,.08.11.68.68,0,0,1,.05.19A2,2,0,0,1,475.78,293.55Z" style="fill:#444949"/><path d="M482,290.36a8.4,8.4,0,0,1-.15,1.64,3.6,3.6,0,0,1-.48,1.25,2.23,2.23,0,0,1-.86.79,3.22,3.22,0,0,1-2.59,0,2,2,0,0,1-.81-.77,3.49,3.49,0,0,1-.42-1.22,10.08,10.08,0,0,1-.12-1.64,8.25,8.25,0,0,1,.15-1.64,3.64,3.64,0,0,1,.48-1.25,2.23,2.23,0,0,1,.86-.79,3.22,3.22,0,0,1,2.58,0,2,2,0,0,1,.81.77,3.45,3.45,0,0,1,.41,1.23A10.32,10.32,0,0,1,482,290.36Zm-1.55.08v-1a5.73,5.73,0,0,0-.09-.72,2.64,2.64,0,0,0-.15-.52,1,1,0,0,0-.22-.34.74.74,0,0,0-.29-.18,1.18,1.18,0,0,0-.36,0,.93.93,0,0,0-.57.17,1.11,1.11,0,0,0-.36.5,3.21,3.21,0,0,0-.18.83,11.19,11.19,0,0,0-.05,1.16,11.42,11.42,0,0,0,.06,1.34,3.07,3.07,0,0,0,.2.84.91.91,0,0,0,.35.44,1.14,1.14,0,0,0,.92.06.85.85,0,0,0,.31-.22,1.21,1.21,0,0,0,.22-.37,2.87,2.87,0,0,0,.14-.52,5.08,5.08,0,0,0,.08-.66Q480.47,290.88,480.47,290.44Z" style="fill:#444949"/><path d="M12.21,272.11a1.21,1.21,0,0,1-.06.47.21.21,0,0,1-.21.13H9.5a.22.22,0,0,1-.21-.14,1.22,1.22,0,0,1-.06-.47,1.17,1.17,0,0,1,.06-.46.22.22,0,0,1,.21-.13h2.44a.14.14,0,0,1,.19.06h0a.59.59,0,0,1,0,.19A2.31,2.31,0,0,1,12.21,272.11Z" style="fill:#444949"/><path d="M18.09,274.47a1.86,1.86,0,0,1,0,.28.66.66,0,0,1,0,.18.25.25,0,0,1-.07.1H13.66a.25.25,0,0,1-.07-.1.66.66,0,0,1,0-.18,1.86,1.86,0,0,1,0-.28,2.28,2.28,0,0,1,0-.28.65.65,0,0,1,0-.18.27.27,0,0,1,.07-.1h1.5v-5l-1.22.67a.9.9,0,0,1-.22.08.14.14,0,0,1-.13,0,.3.3,0,0,1-.07-.17,2.6,2.6,0,0,1,0-.35v-.23a.56.56,0,0,1,0-.16.28.28,0,0,1,.06-.11l.11-.09,1.63-1h1.23a.11.11,0,0,1,.1.12h0V274h1.23a.16.16,0,0,1,.1,0,.26.26,0,0,1,.08.1.65.65,0,0,1,0,.18A2.31,2.31,0,0,1,18.09,274.47Z" style="fill:#444949"/><path d="M24.39,271.23a8.4,8.4,0,0,1-.15,1.64,3.6,3.6,0,0,1-.48,1.25,2.23,2.23,0,0,1-.86.79,3.22,3.22,0,0,1-2.59,0,2,2,0,0,1-.81-.77,3.49,3.49,0,0,1-.42-1.22,10.07,10.07,0,0,1-.12-1.64,8.25,8.25,0,0,1,.15-1.64,3.64,3.64,0,0,1,.48-1.25,2.23,2.23,0,0,1,.86-.79,3.22,3.22,0,0,1,2.58,0,2,2,0,0,1,.81.77,3.45,3.45,0,0,1,.42,1.22A10.32,10.32,0,0,1,24.39,271.23Zm-1.55.08v-1a5.72,5.72,0,0,0-.09-.72,2.64,2.64,0,0,0-.15-.52,1,1,0,0,0-.22-.34.74.74,0,0,0-.29-.18,1.18,1.18,0,0,0-.36,0,.93.93,0,0,0-.57.17,1.11,1.11,0,0,0-.36.5,3.21,3.21,0,0,0-.18.83,11.18,11.18,0,0,0,0,1.16,11.44,11.44,0,0,0,.06,1.34,3.07,3.07,0,0,0,.2.84.91.91,0,0,0,.35.44,1.14,1.14,0,0,0,.92.06.85.85,0,0,0,.31-.22,1.21,1.21,0,0,0,.22-.37,2.87,2.87,0,0,0,.14-.52,5.07,5.07,0,0,0,.08-.66v-.76Z" style="fill:#444949"/><path d="M30.47,271.23a8.4,8.4,0,0,1-.15,1.64,3.6,3.6,0,0,1-.48,1.25,2.23,2.23,0,0,1-.86.79,3.22,3.22,0,0,1-2.59,0,2,2,0,0,1-.81-.77,3.49,3.49,0,0,1-.42-1.22,10.07,10.07,0,0,1-.12-1.64,8.25,8.25,0,0,1,.15-1.64,3.64,3.64,0,0,1,.48-1.25,2.23,2.23,0,0,1,.86-.79,3.22,3.22,0,0,1,2.58,0,2,2,0,0,1,.81.77,3.45,3.45,0,0,1,.42,1.22A10.32,10.32,0,0,1,30.47,271.23Zm-1.55.08v-1a5.72,5.72,0,0,0-.09-.72,2.64,2.64,0,0,0-.15-.52,1,1,0,0,0-.22-.34.74.74,0,0,0-.29-.18,1.18,1.18,0,0,0-.36,0,.93.93,0,0,0-.57.17,1.11,1.11,0,0,0-.36.5,3.21,3.21,0,0,0-.18.83,11.18,11.18,0,0,0,0,1.16,11.44,11.44,0,0,0,.06,1.34,3.07,3.07,0,0,0,.2.84.91.91,0,0,0,.35.44,1.14,1.14,0,0,0,.92.06.85.85,0,0,0,.31-.22,1.21,1.21,0,0,0,.22-.37,2.87,2.87,0,0,0,.12-.57,5.07,5.07,0,0,0,.08-.66,5.25,5.25,0,0,1,0-.76Z" style="fill:#444949"/><path d="M22.55,221.2a8.4,8.4,0,0,1-.15,1.64,3.6,3.6,0,0,1-.48,1.25,2.23,2.23,0,0,1-.86.79,3.22,3.22,0,0,1-2.59,0,2,2,0,0,1-.81-.77,3.49,3.49,0,0,1-.42-1.22,10.07,10.07,0,0,1-.12-1.64,8.25,8.25,0,0,1,.15-1.64,3.64,3.64,0,0,1,.48-1.25,2.23,2.23,0,0,1,.86-.79,3.22,3.22,0,0,1,2.58,0,2,2,0,0,1,.81.77,3.45,3.45,0,0,1,.42,1.22A10.32,10.32,0,0,1,22.55,221.2Zm-1.55.08q0-.54,0-1a5.72,5.72,0,0,0-.09-.72,2.64,2.64,0,0,0-.15-.52,1,1,0,0,0-.22-.34.74.74,0,0,0-.29-.18,1.18,1.18,0,0,0-.36,0,.93.93,0,0,0-.57.17,1.11,1.11,0,0,0-.36.5,3.21,3.21,0,0,0-.18.83,11.18,11.18,0,0,0,0,1.16,11.44,11.44,0,0,0,.06,1.34,3.07,3.07,0,0,0,.2.84.91.91,0,0,0,.35.44,1.14,1.14,0,0,0,.92.06.85.85,0,0,0,.31-.22,1.21,1.21,0,0,0,.22-.37,2.87,2.87,0,0,0,0-.54,5.07,5.07,0,0,0,.08-.66,7,7,0,0,0,0-.8Z" style="fill:#444949"/><path d="M16.25,175a1.86,1.86,0,0,1,0,.28.66.66,0,0,1,0,.18.25.25,0,0,1-.07.1H11.79a.25.25,0,0,1-.07-.1.66.66,0,0,1,0-.18,1.86,1.86,0,0,1,0-.28,2.28,2.28,0,0,1,0-.28.65.65,0,0,1,0-.18.27.27,0,0,1,.07-.1h1.5v-4.93l-1.22.67a.9.9,0,0,1-.22.08.14.14,0,0,1-.13,0,.3.3,0,0,1-.07-.17,2.6,2.6,0,0,1,0-.35v-.23a.56.56,0,0,1,0-.16.28.28,0,0,1,.06-.11l.11-.09,1.63-1.05h1.23a.11.11,0,0,1,.1.12h0v6.29H16a.16.16,0,0,1,.1,0,.26.26,0,0,1,.08.1.65.65,0,0,1,0,.18A1.09,1.09,0,0,1,16.25,175Z" style="fill:#444949"/><path d="M22.55,171.73a8.4,8.4,0,0,1-.15,1.64,3.6,3.6,0,0,1-.48,1.25,2.23,2.23,0,0,1-.86.79,3.22,3.22,0,0,1-2.59,0,2,2,0,0,1-.81-.77,3.49,3.49,0,0,1-.42-1.22,10.07,10.07,0,0,1-.12-1.64,8.25,8.25,0,0,1,.15-1.64,3.64,3.64,0,0,1,.48-1.25,2.23,2.23,0,0,1,.86-.79,3.22,3.22,0,0,1,2.58,0,2,2,0,0,1,.81.77,3.45,3.45,0,0,1,.42,1.22A10.32,10.32,0,0,1,22.55,171.73Zm-1.55.08q0-.54,0-1a5.72,5.72,0,0,0-.09-.72,2.64,2.64,0,0,0-.15-.52,1,1,0,0,0-.22-.34.74.74,0,0,0-.29-.18,1.18,1.18,0,0,0-.36-.05.93.93,0,0,0-.57.17,1.11,1.11,0,0,0-.36.5,3.21,3.21,0,0,0-.18.83,11.18,11.18,0,0,0,0,1.16,11.44,11.44,0,0,0,.06,1.34,3.07,3.07,0,0,0,.2.84.91.91,0,0,0,.35.44,1.14,1.14,0,0,0,.92.06.85.85,0,0,0,.31-.22,1.21,1.21,0,0,0,.26-.39,2.87,2.87,0,0,0,.14-.52,5.07,5.07,0,0,0,.08-.66v-.75Z" style="fill:#444949"/><path d="M28.64,171.73a8.4,8.4,0,0,1-.15,1.64,3.6,3.6,0,0,1-.48,1.25,2.23,2.23,0,0,1-.86.79,3.22,3.22,0,0,1-2.59,0,2,2,0,0,1-.81-.77,3.49,3.49,0,0,1-.42-1.22,10.07,10.07,0,0,1-.12-1.64,8.25,8.25,0,0,1,.15-1.64,3.64,3.64,0,0,1,.48-1.25,2.23,2.23,0,0,1,.86-.79,3.22,3.22,0,0,1,2.58,0,2,2,0,0,1,.81.77,3.45,3.45,0,0,1,.42,1.22A10.32,10.32,0,0,1,28.64,171.73Zm-1.55.08v-1a5.72,5.72,0,0,0-.09-.72,2.64,2.64,0,0,0-.15-.52,1,1,0,0,0-.22-.34.74.74,0,0,0-.29-.18A1.18,1.18,0,0,0,26,169a.93.93,0,0,0-.57.17,1.11,1.11,0,0,0-.36.5,3.21,3.21,0,0,0-.18.83,11.18,11.18,0,0,0,0,1.16,11.44,11.44,0,0,0,.06,1.34,3.07,3.07,0,0,0,.2.84.91.91,0,0,0,.35.44,1.14,1.14,0,0,0,.92.06.85.85,0,0,0,.31-.22,1.21,1.21,0,0,0,.17-.39,2.87,2.87,0,0,0,.14-.52,5.07,5.07,0,0,0,.08-.66v-.75Z" style="fill:#444949"/><path d="M16.32,126.56a2.45,2.45,0,0,1,0,.29.84.84,0,0,1,0,.2.22.22,0,0,1-.08.11.18.18,0,0,1-.11,0H11.55a.29.29,0,0,1-.15-.09.43.43,0,0,1-.08-.2,1.72,1.72,0,0,1,0-.33,2.66,2.66,0,0,1,0-.33.91.91,0,0,1,.06-.25,1.14,1.14,0,0,1,.12-.21,2.13,2.13,0,0,1,.19-.23L13,124.11a6.92,6.92,0,0,0,.63-.75,4.34,4.34,0,0,0,.38-.62,2.28,2.28,0,0,0,.18-.51,2.14,2.14,0,0,0,0-.45,1.08,1.08,0,0,0-.06-.37.86.86,0,0,0-.18-.3.83.83,0,0,0-.3-.2,1.14,1.14,0,0,0-.43-.07,2,2,0,0,0-.61.09,3,3,0,0,0-.47.2l-.34.2a.43.43,0,0,1-.21.09.13.13,0,0,1-.09,0,.25.25,0,0,1-.06-.12,1.35,1.35,0,0,1,0-.22,3.26,3.26,0,0,1,0-.34v-.23a1,1,0,0,1,0-.16.46.46,0,0,1,0-.12.61.61,0,0,1,.1-.12,1.39,1.39,0,0,1,.27-.18,3.32,3.32,0,0,1,.48-.21,4.62,4.62,0,0,1,.63-.17,3.61,3.61,0,0,1,.72-.07,3.24,3.24,0,0,1,1,.15,2.05,2.05,0,0,1,.74.42,1.67,1.67,0,0,1,.44.63,2.14,2.14,0,0,1,.14.79,3.76,3.76,0,0,1-.07.73,2.77,2.77,0,0,1-.29.77,6.11,6.11,0,0,1-.63.91A14.65,14.65,0,0,1,13.9,125l-.88.91h3a.18.18,0,0,1,.11,0,.27.27,0,0,1,.08.11.68.68,0,0,1,0,.19A2,2,0,0,1,16.32,126.56Z" style="fill:#444949"/><path d="M22.55,123.37A8.4,8.4,0,0,1,22.4,125a3.6,3.6,0,0,1-.48,1.25,2.23,2.23,0,0,1-.86.79,3.22,3.22,0,0,1-2.59,0,2,2,0,0,1-.81-.77,3.49,3.49,0,0,1-.42-1.22,10.07,10.07,0,0,1-.12-1.64,8.25,8.25,0,0,1,.15-1.64,3.64,3.64,0,0,1,.48-1.25,2.23,2.23,0,0,1,.86-.79,3.22,3.22,0,0,1,2.58,0,2,2,0,0,1,.81.77,3.45,3.45,0,0,1,.42,1.22A10.32,10.32,0,0,1,22.55,123.37Zm-1.55.08q0-.54,0-1a5.72,5.72,0,0,0-.12-.72,2.64,2.64,0,0,0-.15-.52,1,1,0,0,0-.22-.34.74.74,0,0,0-.29-.18,1.18,1.18,0,0,0-.34,0,.93.93,0,0,0-.57.17,1.11,1.11,0,0,0-.36.5,3.21,3.21,0,0,0-.18.83,11.18,11.18,0,0,0,0,1.16,11.44,11.44,0,0,0,.11,1.38,3.07,3.07,0,0,0,.2.84.91.91,0,0,0,.35.44,1.14,1.14,0,0,0,.92.06.85.85,0,0,0,.31-.22,1.21,1.21,0,0,0,.22-.37A2.87,2.87,0,0,0,21,125a5.07,5.07,0,0,0,.08-.66v-.86Z" style="fill:#444949"/><path d="M28.64,123.37a8.4,8.4,0,0,1-.15,1.64,3.6,3.6,0,0,1-.48,1.25,2.23,2.23,0,0,1-.86.79,3.22,3.22,0,0,1-2.59,0,2,2,0,0,1-.81-.77,3.49,3.49,0,0,1-.42-1.22,10.07,10.07,0,0,1-.12-1.64,8.25,8.25,0,0,1,.15-1.64,3.64,3.64,0,0,1,.48-1.25,2.23,2.23,0,0,1,.86-.79,3.22,3.22,0,0,1,2.58,0,2,2,0,0,1,.81.77,3.45,3.45,0,0,1,.42,1.22A10.32,10.32,0,0,1,28.64,123.37Zm-1.55.08v-1a5.72,5.72,0,0,0-.09-.72,2.64,2.64,0,0,0-.15-.52,1,1,0,0,0-.22-.34.74.74,0,0,0-.29-.18,1.18,1.18,0,0,0-.36-.05.93.93,0,0,0-.57.17,1.11,1.11,0,0,0-.36.5,3.21,3.21,0,0,0-.18.83,11.18,11.18,0,0,0,0,1.16,11.43,11.43,0,0,0,0,1.43,3.07,3.07,0,0,0,.2.84.91.91,0,0,0,.35.44,1.14,1.14,0,0,0,.92.06.85.85,0,0,0,.31-.22,1.21,1.21,0,0,0,.22-.37A2.87,2.87,0,0,0,27,125a5.07,5.07,0,0,0,.08-.66v-.86Z" style="fill:#444949"/><path d="M16.28,76a2.25,2.25,0,0,1-.22,1,2.09,2.09,0,0,1-.6.74,2.73,2.73,0,0,1-.93.45,4.24,4.24,0,0,1-1.18.16,4.5,4.5,0,0,1-.73-.06,4.37,4.37,0,0,1-.6-.14,2.75,2.75,0,0,1-.43-.17l-.22-.13a.31.31,0,0,1-.08-.11.86.86,0,0,1,0-.14,1.15,1.15,0,0,1,0-.2v-.29a1.1,1.1,0,0,1,0-.39.15.15,0,0,1,.14-.11.52.52,0,0,1,.2.08l.37.17a4.32,4.32,0,0,0,.52.17,2.66,2.66,0,0,0,.68.08,1.92,1.92,0,0,0,.57-.08,1.26,1.26,0,0,0,.42-.21.86.86,0,0,0,.26-.33,1.09,1.09,0,0,0,.08-.44,1.07,1.07,0,0,0-.1-.47,1,1,0,0,0-.3-.36,1.5,1.5,0,0,0-.51-.23,2.83,2.83,0,0,0-.72-.08h-.79a.18.18,0,0,1-.09-.08.52.52,0,0,1,0-.18,2.41,2.41,0,0,1,0-.3,2.14,2.14,0,0,1,0-.28.49.49,0,0,1,0-.17.18.18,0,0,1,.08-.08h.78a2.1,2.1,0,0,0,.6-.08,1.26,1.26,0,0,0,.44-.23,1,1,0,0,0,.27-.35,1.11,1.11,0,0,0,.09-.46,1,1,0,0,0-.06-.37.82.82,0,0,0-.19-.3.88.88,0,0,0-.33-.2,1.36,1.36,0,0,0-.47-.07,1.79,1.79,0,0,0-.57.09,3.65,3.65,0,0,0-.48.2l-.36.2a.5.5,0,0,1-.22.09h-.08a.15.15,0,0,1-.06-.08.67.67,0,0,1,0-.17,2.84,2.84,0,0,1,0-.29v-.24a.81.81,0,0,1,0-.16.49.49,0,0,1,0-.11l.08-.1.24-.17a2.8,2.8,0,0,1,.46-.22,4,4,0,0,1,.64-.18,3.93,3.93,0,0,1,.78-.07,3.36,3.36,0,0,1,1,.13,2,2,0,0,1,.71.37,1.56,1.56,0,0,1,.44.6,2,2,0,0,1,.15.8,2.27,2.27,0,0,1-.09.64,1.73,1.73,0,0,1-.26.53,1.56,1.56,0,0,1-.42.4,1.93,1.93,0,0,1-.59.25h0a2.19,2.19,0,0,1,.71.2,1.83,1.83,0,0,1,.54.39,1.67,1.67,0,0,1,.34.53A1.71,1.71,0,0,1,16.28,76Z" style="fill:#444949"/><path d="M22.55,74.43a8.4,8.4,0,0,1-.15,1.64,3.6,3.6,0,0,1-.48,1.25,2.23,2.23,0,0,1-.86.79,3.22,3.22,0,0,1-2.59,0,2,2,0,0,1-.81-.77,3.49,3.49,0,0,1-.42-1.22,10.07,10.07,0,0,1-.12-1.64,8.25,8.25,0,0,1,.15-1.64,3.64,3.64,0,0,1,.48-1.25,2.23,2.23,0,0,1,.86-.79,3.22,3.22,0,0,1,2.58,0,2,2,0,0,1,.81.77,3.45,3.45,0,0,1,.42,1.22A10.32,10.32,0,0,1,22.55,74.43ZM21,74.51q0-.54,0-1a5.72,5.72,0,0,0-.09-.72,2.64,2.64,0,0,0-.15-.52,1,1,0,0,0-.22-.34.74.74,0,0,0-.29-.18,1.18,1.18,0,0,0-.37,0,.93.93,0,0,0-.57.17,1.11,1.11,0,0,0-.36.5,3.21,3.21,0,0,0-.18.83,11.18,11.18,0,0,0,0,1.16,11.43,11.43,0,0,0,.11,1.32,3.07,3.07,0,0,0,.2.84.91.91,0,0,0,.35.44,1.14,1.14,0,0,0,.92.06.85.85,0,0,0,.31-.22,1.21,1.21,0,0,0,.22-.37A2.87,2.87,0,0,0,21,76a5.07,5.07,0,0,0,.08-.66A6.07,6.07,0,0,1,21,74.51Z" style="fill:#444949"/><path d="M28.64,74.43a8.4,8.4,0,0,1-.15,1.64A3.6,3.6,0,0,1,28,77.32a2.23,2.23,0,0,1-.86.79,3.22,3.22,0,0,1-2.59,0,2,2,0,0,1-.81-.77,3.49,3.49,0,0,1-.42-1.22,10.07,10.07,0,0,1-.12-1.64,8.25,8.25,0,0,1,.15-1.64,3.64,3.64,0,0,1,.48-1.25,2.23,2.23,0,0,1,.86-.79,3.22,3.22,0,0,1,2.58,0,2,2,0,0,1,.81.77,3.45,3.45,0,0,1,.42,1.22A10.32,10.32,0,0,1,28.64,74.43Zm-1.55.08v-1a5.72,5.72,0,0,0-.09-.72,2.64,2.64,0,0,0-.15-.52,1,1,0,0,0-.22-.34.74.74,0,0,0-.29-.18A1.18,1.18,0,0,0,26,71.7a.93.93,0,0,0-.57.17,1.11,1.11,0,0,0-.36.5,3.21,3.21,0,0,0-.18.83,11.18,11.18,0,0,0,0,1.16,11.45,11.45,0,0,0,0,1.37,3.07,3.07,0,0,0,.2.84.91.91,0,0,0,.35.44,1.14,1.14,0,0,0,.92.06.85.85,0,0,0,.31-.22,1.21,1.21,0,0,0,.22-.37A2.87,2.87,0,0,0,27,76a5.07,5.07,0,0,0,.08-.66Z" style="fill:#444949"/><path d="M16.55,26.57a1.29,1.29,0,0,1-.06.45q-.06.16-.17.16h-.67v1.37a.16.16,0,0,1,0,.1.26.26,0,0,1-.12.07H14.35a.24.24,0,0,1-.12-.07.17.17,0,0,1,0-.1V27.18H11.18a.2.2,0,0,1-.11-.09.59.59,0,0,1-.06-.21,2.6,2.6,0,0,1,0-.37v-.33a2.14,2.14,0,0,1,0-.25,1.2,1.2,0,0,1,.06-.21,2,2,0,0,1,.1-.21l2.36-4.15a.24.24,0,0,1,.1-.09l.2-.06h1.66a.5.5,0,0,1,.18.08.14.14,0,0,1,.06.11V26h.67q.09,0,.16.14A1.22,1.22,0,0,1,16.55,26.57Zm-2.38-4.11h0l-2,3.49h2Z" style="fill:#444949"/><path d="M22.55,24.93a8.4,8.4,0,0,1-.15,1.64,3.6,3.6,0,0,1-.48,1.25,2.23,2.23,0,0,1-.86.79,3.22,3.22,0,0,1-2.59,0,2,2,0,0,1-.81-.77,3.49,3.49,0,0,1-.42-1.22A10.07,10.07,0,0,1,17.12,25a8.25,8.25,0,0,1,.15-1.64,3.64,3.64,0,0,1,.48-1.25,2.23,2.23,0,0,1,.86-.79,3.22,3.22,0,0,1,2.58,0,2,2,0,0,1,.81.77,3.45,3.45,0,0,1,.42,1.22A10.32,10.32,0,0,1,22.55,24.93ZM21,25q0-.54,0-1a5.72,5.72,0,0,0-.09-.72,2.64,2.64,0,0,0-.15-.52,1,1,0,0,0-.22-.34.74.74,0,0,0-.29-.18,1.18,1.18,0,0,0-.36-.05.93.93,0,0,0-.57.17,1.11,1.11,0,0,0-.36.5,3.21,3.21,0,0,0-.18.83,11.18,11.18,0,0,0,0,1.16,11.44,11.44,0,0,0,.06,1.34A3.07,3.07,0,0,0,19,27a.91.91,0,0,0,.35.44,1.14,1.14,0,0,0,.92.06.85.85,0,0,0,.31-.22,1.21,1.21,0,0,0,.22-.37,2.87,2.87,0,0,0,.14-.52,5.07,5.07,0,0,0,.08-.66A4.17,4.17,0,0,1,21,25Z" style="fill:#444949"/><path d="M28.64,24.93a8.4,8.4,0,0,1-.15,1.64A3.6,3.6,0,0,1,28,27.82a2.23,2.23,0,0,1-.86.79,3.22,3.22,0,0,1-2.59,0,2,2,0,0,1-.81-.77,3.49,3.49,0,0,1-.42-1.22A10.07,10.07,0,0,1,23.21,25a8.25,8.25,0,0,1,.15-1.64,3.64,3.64,0,0,1,.48-1.25,2.23,2.23,0,0,1,.86-.79,3.22,3.22,0,0,1,2.58,0,2,2,0,0,1,.81.77,3.45,3.45,0,0,1,.42,1.22A10.32,10.32,0,0,1,28.64,24.93ZM27.09,25V24a5.72,5.72,0,0,0-.09-.72,2.64,2.64,0,0,0-.12-.56,1,1,0,0,0-.22-.34.74.74,0,0,0-.29-.18,1.18,1.18,0,0,0-.36-.05.93.93,0,0,0-.57.17,1.11,1.11,0,0,0-.36.5,3.21,3.21,0,0,0-.2.9,11.18,11.18,0,0,0,0,1.16,11.44,11.44,0,0,0,.06,1.34,3.07,3.07,0,0,0,.2.84.91.91,0,0,0,.35.44,1.14,1.14,0,0,0,.92.06.85.85,0,0,0,.31-.22,1.21,1.21,0,0,0,.22-.37,2.87,2.87,0,0,0,.14-.52,5.07,5.07,0,0,0,.08-.66V25Z" style="fill:#444949"/><path d="M642.49,293.59a1.88,1.88,0,0,1,0,.28.66.66,0,0,1,0,.18.25.25,0,0,1-.07.1h-4.36a.25.25,0,0,1-.07-.1.66.66,0,0,1,0-.18,1.88,1.88,0,0,1,0-.28,2.28,2.28,0,0,1,0-.28.65.65,0,0,1,0-.18.27.27,0,0,1,.07-.1h1.5V288.1l-1.22.67a.9.9,0,0,1-.22.08.14.14,0,0,1-.13,0,.3.3,0,0,1-.07-.17,2.62,2.62,0,0,1,0-.35v-.23a.56.56,0,0,1,0-.16.28.28,0,0,1,.06-.11l.11-.09,1.63-1h1.23a.11.11,0,0,1,.1.12h0v6.29h1.24a.16.16,0,0,1,.1,0,.26.26,0,0,1,.08.1.65.65,0,0,1,0,.18A.62.62,0,0,1,642.49,293.59Z" style="fill:#444949"/><path d="M648.57,293.59a1.88,1.88,0,0,1,0,.28.66.66,0,0,1,0,.18.25.25,0,0,1-.07.1h-4.36a.25.25,0,0,1-.07-.1.66.66,0,0,1,0-.18,1.88,1.88,0,0,1,0-.28,2.28,2.28,0,0,1,0-.28.65.65,0,0,1,0-.18.27.27,0,0,1,.07-.1h1.5V288.1l-1.22.67a.9.9,0,0,1-.22.08.14.14,0,0,1-.13,0,.3.3,0,0,1-.07-.17,2.62,2.62,0,0,1,0-.35v-.23a.56.56,0,0,1,0-.16.28.28,0,0,1,.06-.11l.11-.09,1.63-1H647a.11.11,0,0,1,.1.12h0v6.29h1.24a.16.16,0,0,1,.1,0,.26.26,0,0,1,.08.1.65.65,0,0,1,0,.18A.62.62,0,0,1,648.57,293.59Z" style="fill:#444949"/><path d="M651.71,289.55a1.73,1.73,0,0,1,0,.41.61.61,0,0,1-.14.27.53.53,0,0,1-.25.15,1.83,1.83,0,0,1-.8,0,.53.53,0,0,1-.25-.15.56.56,0,0,1-.13-.27,2,2,0,0,1,0-.41,2.14,2.14,0,0,1,0-.42.57.57,0,0,1,.13-.28.55.55,0,0,1,.25-.15,1.72,1.72,0,0,1,.8,0,.55.55,0,0,1,.25.15.61.61,0,0,1,.14.28A1.83,1.83,0,0,1,651.71,289.55Zm0,3.83a1.76,1.76,0,0,1,0,.41.61.61,0,0,1-.14.27.53.53,0,0,1-.25.15,1.83,1.83,0,0,1-.8,0,.53.53,0,0,1-.25-.15.57.57,0,0,1-.13-.27,2,2,0,0,1,0-.41,2.14,2.14,0,0,1,0-.42.57.57,0,0,1,.13-.28.53.53,0,0,1,.25-.15,1.83,1.83,0,0,1,.8,0,.53.53,0,0,1,.25.15.61.61,0,0,1,.14.28A1.84,1.84,0,0,1,651.71,293.38Z" style="fill:#444949"/><path d="M658,293.55a2.45,2.45,0,0,1,0,.29.84.84,0,0,1,0,.2.22.22,0,0,1-.08.11.18.18,0,0,1-.11,0h-4.58a.29.29,0,0,1-.15-.09.43.43,0,0,1-.08-.2,1.71,1.71,0,0,1,0-.33,2.66,2.66,0,0,1,0-.33.91.91,0,0,1,.06-.25,1.14,1.14,0,0,1,.12-.21,2.13,2.13,0,0,1,.19-.23l1.31-1.41a6.92,6.92,0,0,0,.63-.75,4.34,4.34,0,0,0,.38-.62,2.28,2.28,0,0,0,.18-.51,2.13,2.13,0,0,0,0-.45,1.08,1.08,0,0,0-.06-.37.86.86,0,0,0-.18-.3.83.83,0,0,0-.3-.2,1.14,1.14,0,0,0-.43-.07,2,2,0,0,0-.61.09,3,3,0,0,0-.47.2l-.34.2a.43.43,0,0,1-.21.09.13.13,0,0,1-.09,0,.25.25,0,0,1-.06-.12,1.35,1.35,0,0,1,0-.22,3.29,3.29,0,0,1,0-.34v-.23a1,1,0,0,1,0-.16.46.46,0,0,1,0-.12.61.61,0,0,1,.1-.12,1.39,1.39,0,0,1,.27-.18,3.32,3.32,0,0,1,.48-.21,4.62,4.62,0,0,1,.63-.17,3.61,3.61,0,0,1,.72-.07,3.24,3.24,0,0,1,1,.15,2.05,2.05,0,0,1,.74.42,1.67,1.67,0,0,1,.44.63,2.14,2.14,0,0,1,.14.79,3.77,3.77,0,0,1-.07.73,2.77,2.77,0,0,1-.29.77,6.11,6.11,0,0,1-.63.91,14.66,14.66,0,0,1-1.07,1.16l-.88.91h3a.18.18,0,0,1,.11,0,.27.27,0,0,1,.08.11.68.68,0,0,1,.05.19A2,2,0,0,1,658,293.55Z" style="fill:#444949"/><path d="M664.27,290.36a8.4,8.4,0,0,1-.15,1.64,3.6,3.6,0,0,1-.48,1.25,2.23,2.23,0,0,1-.86.79,3.22,3.22,0,0,1-2.59,0,2,2,0,0,1-.81-.77A3.49,3.49,0,0,1,659,292a10.08,10.08,0,0,1-.12-1.64,8.25,8.25,0,0,1,.15-1.64,3.64,3.64,0,0,1,.48-1.25,2.23,2.23,0,0,1,.86-.79,3.22,3.22,0,0,1,2.58,0,2,2,0,0,1,.81.77,3.45,3.45,0,0,1,.42,1.22A10.32,10.32,0,0,1,664.27,290.36Zm-1.55.08v-1a5.73,5.73,0,0,0-.09-.72,2.64,2.64,0,0,0-.15-.52,1,1,0,0,0-.22-.34.74.74,0,0,0-.29-.18,1.18,1.18,0,0,0-.36,0,.93.93,0,0,0-.57.17,1.11,1.11,0,0,0-.36.5,3.21,3.21,0,0,0-.18.83,11.19,11.19,0,0,0-.05,1.16,11.42,11.42,0,0,0,.06,1.34,3.07,3.07,0,0,0,.2.84.91.91,0,0,0,.35.44,1.14,1.14,0,0,0,.92.06.85.85,0,0,0,.31-.22,1.21,1.21,0,0,0,.22-.37,2.87,2.87,0,0,0,.14-.52,5.08,5.08,0,0,0,.08-.66Q662.72,290.88,662.72,290.44Z" style="fill:#444949"/><path d="M535.42,290.36a8.4,8.4,0,0,1-.15,1.64,3.6,3.6,0,0,1-.48,1.25,2.23,2.23,0,0,1-.86.79,3.22,3.22,0,0,1-2.59,0,2,2,0,0,1-.81-.77,3.49,3.49,0,0,1-.42-1.22,10.08,10.08,0,0,1-.12-1.64,8.25,8.25,0,0,1,.15-1.64,3.64,3.64,0,0,1,.48-1.25,2.23,2.23,0,0,1,.86-.79,3.22,3.22,0,0,1,2.58,0,2,2,0,0,1,.81.77,3.45,3.45,0,0,1,.42,1.22A10.32,10.32,0,0,1,535.42,290.36Zm-1.55.08v-1a5.73,5.73,0,0,0-.09-.72,2.64,2.64,0,0,0-.15-.52,1,1,0,0,0-.22-.34.74.74,0,0,0-.29-.18,1.18,1.18,0,0,0-.36,0,.93.93,0,0,0-.57.17,1.11,1.11,0,0,0-.36.5,3.21,3.21,0,0,0-.18.83,11.19,11.19,0,0,0-.05,1.16,11.42,11.42,0,0,0,.06,1.34,3.07,3.07,0,0,0,.2.84.91.91,0,0,0,.35.44,1.14,1.14,0,0,0,.92.06.85.85,0,0,0,.31-.22,1.21,1.21,0,0,0,.22-.37,2.87,2.87,0,0,0,.14-.52,5.08,5.08,0,0,0,.08-.66v-.81Z" style="fill:#8e54b0"/><path d="M541.37,290v1a5.58,5.58,0,0,1-.18,1,4.32,4.32,0,0,1-.36.9,2.67,2.67,0,0,1-.6.75,2.74,2.74,0,0,1-.89.51,3.68,3.68,0,0,1-1.24.19,3.58,3.58,0,0,1-.5,0l-.45-.09-.35-.11a.68.68,0,0,1-.21-.12.36.36,0,0,1-.09-.18,1.42,1.42,0,0,1,0-.33v-.31a.62.62,0,0,1,0-.18.16.16,0,0,1,.06-.08h.29l.31.09.42.09a3,3,0,0,0,.52,0,1.79,1.79,0,0,0,.83-.18,1.51,1.51,0,0,0,.55-.47,2.07,2.07,0,0,0,.31-.69,3.75,3.75,0,0,0,.11-.83,3,3,0,0,1-.65.3,2.78,2.78,0,0,1-.87.13,2.93,2.93,0,0,1-1-.16,1.68,1.68,0,0,1-.69-.46,1.83,1.83,0,0,1-.38-.73,3.58,3.58,0,0,1-.12-1,3.1,3.1,0,0,1,.17-1,2.22,2.22,0,0,1,1.34-1.37,3.18,3.18,0,0,1,1.15-.19,3.12,3.12,0,0,1,.92.12,1.93,1.93,0,0,1,1.15.9,3,3,0,0,1,.3.72,5.13,5.13,0,0,1,.15.86Q541.37,289.54,541.37,290Zm-1.53-.21a6.54,6.54,0,0,0-.07-1,2.11,2.11,0,0,0-.21-.67.84.84,0,0,0-.35-.36,1.21,1.21,0,0,0-1,0,.9.9,0,0,0-.33.27,1.21,1.21,0,0,0-.2.42,2,2,0,0,0-.06.53,2.41,2.41,0,0,0,.06.55,1,1,0,0,0,.18.39.72.72,0,0,0,.31.23,1.28,1.28,0,0,0,.47.08,1.86,1.86,0,0,0,1.24-.44Z" style="fill:#8e54b0"/><path d="M544.42,289.55a1.73,1.73,0,0,1,0,.41.61.61,0,0,1-.14.27.53.53,0,0,1-.25.15,1.83,1.83,0,0,1-.8,0,.53.53,0,0,1-.25-.15.56.56,0,0,1-.13-.27,2,2,0,0,1,0-.41,2.14,2.14,0,0,1,0-.42.57.57,0,0,1,.13-.28.55.55,0,0,1,.25-.15,1.72,1.72,0,0,1,.8,0,.55.55,0,0,1,.25.15.61.61,0,0,1,.14.28A1.83,1.83,0,0,1,544.42,289.55Zm0,3.83a1.76,1.76,0,0,1,0,.41.61.61,0,0,1-.14.27.53.53,0,0,1-.25.15,1.83,1.83,0,0,1-.8,0,.53.53,0,0,1-.25-.15.57.57,0,0,1-.13-.27,2,2,0,0,1,0-.41,2.14,2.14,0,0,1,0-.42.57.57,0,0,1,.13-.28.53.53,0,0,1,.25-.15,1.83,1.83,0,0,1,.8,0,.53.53,0,0,1,.25.15.61.61,0,0,1,.14.28A1.84,1.84,0,0,1,544.42,293.38Z" style="fill:#8e54b0"/><path d="M550.88,290.36a8.4,8.4,0,0,1-.15,1.64,3.6,3.6,0,0,1-.48,1.25,2.23,2.23,0,0,1-.86.79,3.22,3.22,0,0,1-2.59,0,2,2,0,0,1-.81-.77,3.49,3.49,0,0,1-.42-1.22,10.08,10.08,0,0,1-.12-1.64,8.25,8.25,0,0,1,.15-1.64,3.64,3.64,0,0,1,.48-1.25,2.23,2.23,0,0,1,.86-.79,3.22,3.22,0,0,1,2.58,0,2,2,0,0,1,.81.77,3.45,3.45,0,0,1,.42,1.22A10.32,10.32,0,0,1,550.88,290.36Zm-1.55.08v-1a5.73,5.73,0,0,0-.09-.72,2.64,2.64,0,0,0-.15-.52,1,1,0,0,0-.22-.34.74.74,0,0,0-.29-.18,1.18,1.18,0,0,0-.36,0,.93.93,0,0,0-.57.17,1.11,1.11,0,0,0-.36.5,3.21,3.21,0,0,0-.18.83,11.19,11.19,0,0,0-.05,1.16,11.42,11.42,0,0,0,.06,1.34,3.07,3.07,0,0,0,.2.84.91.91,0,0,0,.35.44,1.14,1.14,0,0,0,.92.06.85.85,0,0,0,.31-.22,1.21,1.21,0,0,0,.22-.37,2.87,2.87,0,0,0,.14-.52,5.08,5.08,0,0,0,.08-.66v-.81Z" style="fill:#8e54b0"/><path d="M557,290.36a8.4,8.4,0,0,1-.15,1.64,3.6,3.6,0,0,1-.48,1.25,2.23,2.23,0,0,1-.86.79,3.22,3.22,0,0,1-2.59,0,2,2,0,0,1-.81-.77,3.49,3.49,0,0,1-.42-1.22,10.08,10.08,0,0,1-.12-1.64,8.25,8.25,0,0,1,.15-1.64,3.64,3.64,0,0,1,.48-1.25,2.23,2.23,0,0,1,.86-.79,3.22,3.22,0,0,1,2.58,0,2,2,0,0,1,.81.77,3.45,3.45,0,0,1,.45,1.23A10.33,10.33,0,0,1,557,290.36Zm-1.55.08v-1a5.73,5.73,0,0,0-.09-.72,2.64,2.64,0,0,0-.15-.52,1,1,0,0,0-.22-.34.74.74,0,0,0-.29-.18,1.18,1.18,0,0,0-.36,0,.93.93,0,0,0-.57.17,1.11,1.11,0,0,0-.36.5,3.21,3.21,0,0,0-.18.83,11.19,11.19,0,0,0-.05,1.16,11.42,11.42,0,0,0,.06,1.34,3.07,3.07,0,0,0,.2.84.91.91,0,0,0,.35.44,1.14,1.14,0,0,0,.92.06.85.85,0,0,0,.31-.22,1.21,1.21,0,0,0,.22-.37,2.87,2.87,0,0,0,.14-.52,5.08,5.08,0,0,0,.08-.66v-.81Z" style="fill:#8e54b0"/><circle cx="543.47" cy="271.5" r="3.2" style="fill:#8e54b0"/><circle id="3c3d51f3-320f-4408-a4b4-769fe260e2bc" data-name="page-second-station-1-red-dot" cx="285.68" cy="172.43" r="3.2" style="fill:#ef4136"/><circle cx="135.28" cy="270.23" r="3.2" style="fill:#b5b5b5"/><circle cx="44.38" cy="221.83" r="3.2" style="fill:#444949"/><circle cx="285.68" cy="170.53" r="3.2" style="fill:none"/><line x1="89.88" y1="218.03" x2="89.88" y2="225.63" style="fill:none;stroke:#b5b5b5;stroke-miterlimit:10"/><line x1="135.28" y1="218.03" x2="135.28" y2="225.63" style="fill:none;stroke:#b5b5b5;stroke-miterlimit:10"/><line x1="180.48" y1="218.03" x2="180.48" y2="225.63" style="fill:none;stroke:#b5b5b5;stroke-miterlimit:10"/><line x1="47.38" y1="100.23" x2="39.78" y2="100.23" style="fill:none;stroke:#b5b5b5;stroke-miterlimit:10"/><line x1="47.38" y1="51.73" x2="39.78" y2="51.73" style="fill:none;stroke:#b5b5b5;stroke-miterlimit:10"/><line x1="47.18" y1="149.53" x2="39.58" y2="149.53" style="fill:none;stroke:#b5b5b5;stroke-miterlimit:10"/><line x1="47.18" y1="197.63" x2="39.58" y2="197.63" style="fill:none;stroke:#b5b5b5;stroke-miterlimit:10"/><line x1="47.18" y1="247.53" x2="39.58" y2="247.53" style="fill:none;stroke:#b5b5b5;stroke-miterlimit:10"/><line x1="225.88" y1="218.03" x2="225.88" y2="225.63" style="fill:none;stroke:#b5b5b5;stroke-miterlimit:10"/><line x1="270.98" y1="218.03" x2="270.98" y2="225.63" style="fill:none;stroke:#b5b5b5;stroke-miterlimit:10"/><line x1="316.18" y1="218.03" x2="316.18" y2="225.63" style="fill:none;stroke:#b5b5b5;stroke-miterlimit:10"/><line x1="361.68" y1="218.03" x2="361.68" y2="225.63" style="fill:none;stroke:#b5b5b5;stroke-miterlimit:10"/><line x1="406.98" y1="218.03" x2="406.98" y2="225.63" style="fill:none;stroke:#b5b5b5;stroke-miterlimit:10"/><line x1="452.48" y1="218.03" x2="452.48" y2="225.63" style="fill:none;stroke:#b5b5b5;stroke-miterlimit:10"/><line x1="497.48" y1="218.03" x2="497.48" y2="225.63" style="fill:none;stroke:#b5b5b5;stroke-miterlimit:10"/><line x1="543.48" y1="100.23" x2="543.48" y2="270.53" style="fill:none;stroke:#8e54b0;stroke-miterlimit:10"/><g id="8a687ba8-7be4-4b56-a79b-291090e24946" data-name="page-second-station-1-purple-tooltip"><rect x="484.46" y="78.73" width="117.43" height="27.27" style="fill:#8e54b0"/><path d="M506.67,88.49a2.51,2.51,0,0,1,0,.3.66.66,0,0,1,0,.19.3.3,0,0,1-.07.11H504v2h2.42a.24.24,0,0,1,.07.1.65.65,0,0,1,0,.19,2.94,2.94,0,0,1,0,.59.74.74,0,0,1,0,.19.27.27,0,0,1-.07.11H504v2.82a.18.18,0,0,1,0,.11.26.26,0,0,1-.13.08h-1.22a.29.29,0,0,1-.13-.08.17.17,0,0,1,0-.11V88.22a.47.47,0,0,1,.13-.37.48.48,0,0,1,.33-.11h3.66a.27.27,0,0,1,.07.11.71.71,0,0,1,0,.2A2.58,2.58,0,0,1,506.67,88.49Z" style="fill:#fff"/><path d="M512.49,92.48a.57.57,0,0,1-.12.4A.43.43,0,0,1,512,93h-3.16a2.17,2.17,0,0,0,.08.61,1.16,1.16,0,0,0,.25.46,1.1,1.1,0,0,0,.45.29,1.91,1.91,0,0,0,.65.1,3.68,3.68,0,0,0,.68-.06,4.5,4.5,0,0,0,.51-.12l.35-.12a.66.66,0,0,1,.23-.06h.09a.15.15,0,0,1,.06.07.49.49,0,0,1,0,.15v.46a1.4,1.4,0,0,1,0,.16.37.37,0,0,1,0,.11l-.06.08a.71.71,0,0,1-.21.11,3.29,3.29,0,0,1-.43.14,5.93,5.93,0,0,1-.6.12,5,5,0,0,1-.73,0,3.85,3.85,0,0,1-1.22-.18,2.18,2.18,0,0,1-.88-.53,2.22,2.22,0,0,1-.52-.9,4.24,4.24,0,0,1-.17-1.28,4.06,4.06,0,0,1,.18-1.26,2.64,2.64,0,0,1,.53-.95,2.27,2.27,0,0,1,.84-.59,2.89,2.89,0,0,1,1.12-.21,2.92,2.92,0,0,1,1.12.19,2,2,0,0,1,.76.54,2.16,2.16,0,0,1,.44.81,3.53,3.53,0,0,1,.14,1Zm-1.43-.42a1.52,1.52,0,0,0-.25-1,1,1,0,0,0-.82-.35,1.07,1.07,0,0,0-.49.11,1,1,0,0,0-.35.28,1.3,1.3,0,0,0-.21.42,2.1,2.1,0,0,0-.08.52Z" style="fill:#fff"/><path d="M517.06,90.5v.35a1.06,1.06,0,0,1,0,.21.21.21,0,0,1-.06.11.15.15,0,0,1-.1,0h-.59a.65.65,0,0,0-.25,0,1,1,0,0,0-.25.16,1.89,1.89,0,0,0-.28.28,4.58,4.58,0,0,0-.31.43V95.3a.16.16,0,0,1,0,.1.26.26,0,0,1-.12.07h-1.22a.26.26,0,0,1-.12-.07.16.16,0,0,1,0-.1V90.07a.18.18,0,0,1,0-.1.21.21,0,0,1,.11-.07h1a.21.21,0,0,1,.1.07.18.18,0,0,1,0,.1v.66a4.17,4.17,0,0,1,.39-.48,2.2,2.2,0,0,1,.35-.3,1.09,1.09,0,0,1,.33-.16,1.26,1.26,0,0,1,.33,0h.5l.1.06a.18.18,0,0,1,0,.06.51.51,0,0,1,0,.1,1.43,1.43,0,0,1,0,.18A1,1,0,0,1,517.06,90.5Z" style="fill:#fff"/><path d="M523.07,89.82a.45.45,0,0,1,.34.11.44.44,0,0,1,.1.3v5a.16.16,0,0,1,0,.1.26.26,0,0,1-.12.07h-1.17a.26.26,0,0,1-.12-.07.16.16,0,0,1,0-.1V91h-2.35v2.46a1.22,1.22,0,0,0,.13.64.52.52,0,0,0,.48.21H521a.14.14,0,0,1,0,.08,1.27,1.27,0,0,1,0,.17,2,2,0,0,1,0,.27,1.93,1.93,0,0,1,0,.39.45.45,0,0,1-.08.19.41.41,0,0,1-.16.11l-.24.08h-.66a2.34,2.34,0,0,1-.76-.11,1.27,1.27,0,0,1-.53-.34,1.43,1.43,0,0,1-.31-.58,3.07,3.07,0,0,1-.1-.83V91.06h-.63q-.11,0-.17-.14a1.28,1.28,0,0,1-.06-.46,2.39,2.39,0,0,1,0-.29.69.69,0,0,1,0-.18.21.21,0,0,1,.07-.1h.72V88.73a.18.18,0,0,1,0-.11.24.24,0,0,1,.12-.08h.94a.88.88,0,0,1,.23,0,.26.26,0,0,1,.12.08.17.17,0,0,1,0,.11V89.9Zm.56-1.57a.83.83,0,0,1-.18.62,1.44,1.44,0,0,1-1.34,0,.8.8,0,0,1-.17-.59.85.85,0,0,1,.18-.62,1.42,1.42,0,0,1,1.34,0,.8.8,0,0,1,.16.59Z" style="fill:#fff"/><path d="M526.47,95.24a.16.16,0,0,1,0,.1.26.26,0,0,1-.12.07h-1.17a.26.26,0,0,1-.12-.07.16.16,0,0,1,0-.1V87.53a.17.17,0,0,1,0-.11.26.26,0,0,1,.12-.08h1.18a.26.26,0,0,1,.12.08.17.17,0,0,1,0,.11Z" style="fill:#fff"/><path d="M529.52,88.25a.83.83,0,0,1-.18.62,1.44,1.44,0,0,1-1.34,0,.8.8,0,0,1-.17-.59.85.85,0,0,1,.18-.62,1.42,1.42,0,0,1,1.34,0A.8.8,0,0,1,529.52,88.25Zm-.11,7a.16.16,0,0,1,0,.1.26.26,0,0,1-.12.07h-1.17a.26.26,0,0,1-.12-.07.16.16,0,0,1,0-.1V90a.16.16,0,0,1,0-.1.28.28,0,0,1,.12-.08h1.18a.28.28,0,0,1,.12.08.16.16,0,0,1,0,.1Z" style="fill:#fff"/><path d="M534,94.73a1.84,1.84,0,0,1,0,.4.43.43,0,0,1-.08.19.46.46,0,0,1-.16.1l-.24.08h-.62a2.34,2.34,0,0,1-.76-.11,1.27,1.27,0,0,1-.53-.34,1.43,1.43,0,0,1-.31-.58,3.07,3.07,0,0,1-.1-.83V91h-.63q-.11,0-.17-.14a1.28,1.28,0,0,1-.06-.46,2.39,2.39,0,0,1,0-.29.69.69,0,0,1,0-.18.21.21,0,0,1,.07-.1h.72V88.62a.18.18,0,0,1,0-.11.24.24,0,0,1,.12-.08h.94a.88.88,0,0,1,.23,0,.26.26,0,0,1,.12.08.17.17,0,0,1,0,.11v1.17h1.24a.21.21,0,0,1,.07.1.69.69,0,0,1,0,.18,2.39,2.39,0,0,1,0,.29,1.28,1.28,0,0,1-.06.46q-.06.14-.17.14h-1.14v2.46a1.22,1.22,0,0,0,.13.64.52.52,0,0,0,.48.21h.66a.14.14,0,0,1,0,.08,1.27,1.27,0,0,1,0,.17A2,2,0,0,1,534,94.73Z" style="fill:#fff"/><path d="M538.07,95.44l-.63,1.85a.38.38,0,0,1-.29.21,2.75,2.75,0,0,1-.69.06h-.37a.52.52,0,0,1-.21-.07.15.15,0,0,1-.08-.12.38.38,0,0,1,0-.17l.7-1.75a.4.4,0,0,1-.14-.11.51.51,0,0,1-.09-.16l-1.8-4.8a1,1,0,0,1-.08-.31.21.21,0,0,1,.07-.17.46.46,0,0,1,.24-.08h.84a.71.71,0,0,1,.23,0,.25.25,0,0,1,.12.11,1.09,1.09,0,0,1,.08.21l1.23,3.5h0l1.13-3.57a.4.4,0,0,1,.09-.2.38.38,0,0,1,.18-.07,2.92,2.92,0,0,1,.45,0h.42a.5.5,0,0,1,.25.09.21.21,0,0,1,.08.17.85.85,0,0,1,0,.25Z" style="fill:#fff"/><path d="M551.51,95a.65.65,0,0,1-.1.23.38.38,0,0,1-.18.13,1.24,1.24,0,0,1-.32.06h-1a1.18,1.18,0,0,1-.32-.06.33.33,0,0,1-.17-.13.7.7,0,0,1-.08-.23l-1.21-4.8h0L547,95a.7.7,0,0,1-.08.22.34.34,0,0,1-.17.13,1,1,0,0,1-.31.06h-1.06a1.18,1.18,0,0,1-.32-.06.33.33,0,0,1-.17-.13.8.8,0,0,1-.09-.23l-1.72-6.62a1.84,1.84,0,0,1-.06-.33.22.22,0,0,1,.07-.18.42.42,0,0,1,.24-.08h.9a.82.82,0,0,1,.24,0,.19.19,0,0,1,.11.09.65.65,0,0,1,0,.17l1.33,5.81h0l1.38-5.77a.68.68,0,0,1,.06-.18.25.25,0,0,1,.13-.11.87.87,0,0,1,.25-.05h.87a.84.84,0,0,1,.26,0,.26.26,0,0,1,.13.11.62.62,0,0,1,.06.19l1.43,5.77h0l1.33-5.79a.76.76,0,0,1,0-.16.21.21,0,0,1,.11-.11.75.75,0,0,1,.23-.05H553a.34.34,0,0,1,.21.08.23.23,0,0,1,.06.19,2.18,2.18,0,0,1-.06.34Z" style="fill:#fff"/><path d="M555.88,88.25a.83.83,0,0,1-.18.62,1.44,1.44,0,0,1-1.34,0,.8.8,0,0,1-.17-.59.85.85,0,0,1,.18-.62,1.42,1.42,0,0,1,1.34,0A.8.8,0,0,1,555.88,88.25Zm-.11,7a.16.16,0,0,1,0,.1.26.26,0,0,1-.12.07h-1.17a.26.26,0,0,1-.12-.07.16.16,0,0,1,0-.1V90a.16.16,0,0,1,0-.1.28.28,0,0,1,.12-.08h1.18a.28.28,0,0,1,.12.08.16.16,0,0,1,0,.1Z" style="fill:#fff"/><path d="M562.26,95.24a.16.16,0,0,1,0,.1.26.26,0,0,1-.12.07H561a.26.26,0,0,1-.12-.07.16.16,0,0,1,0-.1v-3a2.52,2.52,0,0,0-.06-.6,1.18,1.18,0,0,0-.16-.37.72.72,0,0,0-.27-.24.85.85,0,0,0-.39-.08,1,1,0,0,0-.57.21,3.07,3.07,0,0,0-.6.6v3.47a.16.16,0,0,1,0,.1.26.26,0,0,1-.12.07h-1.17a.26.26,0,0,1-.12-.07.16.16,0,0,1,0-.1V90a.18.18,0,0,1,0-.1.21.21,0,0,1,.11-.07h1a.21.21,0,0,1,.1.07.18.18,0,0,1,0,.1v.6a3.32,3.32,0,0,1,.88-.7,2,2,0,0,1,.93-.23,2.07,2.07,0,0,1,.9.18,1.57,1.57,0,0,1,.59.48,1.94,1.94,0,0,1,.33.71,4.12,4.12,0,0,1,.1,1Z" style="fill:#fff"/><path d="M568.66,95.24a.19.19,0,0,1,0,.11.21.21,0,0,1-.1.07h-1a.23.23,0,0,1-.11-.07.18.18,0,0,1,0-.11v-.58a3.36,3.36,0,0,1-.85.67,2.22,2.22,0,0,1-2,0,1.93,1.93,0,0,1-.67-.62,2.71,2.71,0,0,1-.38-.92,5.05,5.05,0,0,1-.12-1.1,4.84,4.84,0,0,1,.15-1.25,2.84,2.84,0,0,1,.44-.95,1.94,1.94,0,0,1,.71-.6,2.2,2.2,0,0,1,1-.21,1.76,1.76,0,0,1,.8.18,2.83,2.83,0,0,1,.71.52V87.55a.18.18,0,0,1,0-.11.24.24,0,0,1,.12-.08h1.17a.26.26,0,0,1,.12.08.17.17,0,0,1,0,.11Zm-1.46-3.49a3.24,3.24,0,0,0-.61-.61,1,1,0,0,0-.61-.21.85.85,0,0,0-.5.14,1,1,0,0,0-.33.38A2,2,0,0,0,565,92a3,3,0,0,0-.06.61,3.81,3.81,0,0,0,.05.64,2,2,0,0,0,.17.55,1.05,1.05,0,0,0,.32.39.83.83,0,0,0,.5.15,1,1,0,0,0,.3,0,1.13,1.13,0,0,0,.29-.14,2,2,0,0,0,.31-.26,4.65,4.65,0,0,0,.35-.4Z" style="fill:#fff"/><path d="M575.43,92.58a4,4,0,0,1-.18,1.22,2.57,2.57,0,0,1-.53.95,2.37,2.37,0,0,1-.9.62,3.36,3.36,0,0,1-1.26.22,3.45,3.45,0,0,1-1.21-.19,2.18,2.18,0,0,1-.86-.56,2.31,2.31,0,0,1-.5-.91,4.23,4.23,0,0,1-.16-1.23,4,4,0,0,1,.18-1.22,2.57,2.57,0,0,1,.54-.95,2.39,2.39,0,0,1,.89-.61,3.34,3.34,0,0,1,1.26-.22,3.52,3.52,0,0,1,1.22.19,2.13,2.13,0,0,1,.85.56,2.33,2.33,0,0,1,.5.91A4.25,4.25,0,0,1,575.43,92.58Zm-1.52.06a3.84,3.84,0,0,0-.06-.71,1.67,1.67,0,0,0-.21-.57,1,1,0,0,0-.39-.37,1.25,1.25,0,0,0-.61-.13,1.29,1.29,0,0,0-.57.12,1,1,0,0,0-.4.35,1.68,1.68,0,0,0-.24.56,3.15,3.15,0,0,0-.08.74,3.67,3.67,0,0,0,.06.71,1.76,1.76,0,0,0,.21.57,1,1,0,0,0,.39.37,1.28,1.28,0,0,0,.61.13,1.31,1.31,0,0,0,.58-.12,1,1,0,0,0,.4-.35,1.61,1.61,0,0,0,.23-.55,3.27,3.27,0,0,0,0-.75Z" style="fill:#fff"/><path d="M584.57,90a.88.88,0,0,1,0,.16,1,1,0,0,1-.06.27l-1.39,4.73a.49.49,0,0,1-.08.16.31.31,0,0,1-.14.1,1,1,0,0,1-.28,0h-.93a1.21,1.21,0,0,1-.28,0,.31.31,0,0,1-.15-.1.42.42,0,0,1-.07-.16L580.31,92h0l-.81,3.18a.46.46,0,0,1-.07.16.29.29,0,0,1-.15.1,1.18,1.18,0,0,1-.29,0H578a1.2,1.2,0,0,1-.28,0,.31.31,0,0,1-.15-.1.42.42,0,0,1-.07-.16l-1.38-4.73a2,2,0,0,1-.07-.27,1.09,1.09,0,0,1,0-.16.17.17,0,0,1,0-.1.22.22,0,0,1,.12-.07h1.2a.22.22,0,0,1,.11.08.4.4,0,0,1,0,.12l1,3.84h0l1-3.84a.32.32,0,0,1,.06-.12.25.25,0,0,1,.11-.08h1.13a.22.22,0,0,1,.11.07.33.33,0,0,1,0,.1l1,3.87h0l1-3.84a.29.29,0,0,1,0-.12.23.23,0,0,1,.12-.08h1.15a.2.2,0,0,1,.11.07.18.18,0,0,1,.24.08Z" style="fill:#fff"/></g><g id="d9cde3af-1c97-4968-ab30-da7bec2b47ac" data-name="page-second-station-1-red-tooltip"><rect x="226.98" y="135.83" width="117.4" height="27.3" style="fill:#ef4136"/><rect x="231.88" y="144.43" width="107.6" height="10.1" style="fill:none"/><path d="M246.74,152.37a.16.16,0,0,1,0,.11.27.27,0,0,1-.13.08H245.4a.27.27,0,0,1-.12-.08.16.16,0,0,1,0-.11v-3.06h-2.84v3.06a.17.17,0,0,1,0,.11.25.25,0,0,1-.12.08h-1.21a.27.27,0,0,1-.13-.08.16.16,0,0,1,0-.11v-7.16a.16.16,0,0,1,0-.11.27.27,0,0,1,.13-.08h1.22a.25.25,0,0,1,.12.08.17.17,0,0,1,0,.11V148h2.84v-2.78a.16.16,0,0,1,0-.11.27.27,0,0,1,.12-.08h1.21a.27.27,0,0,1,.13.08.16.16,0,0,1,0,.11Z" style="fill:#fff"/><path d="M253.13,149.62a.57.57,0,0,1-.12.4.43.43,0,0,1-.33.13H249.5a2.17,2.17,0,0,0,.08.61,1.16,1.16,0,0,0,.25.46,1.1,1.1,0,0,0,.45.29,1.91,1.91,0,0,0,.65.1,3.68,3.68,0,0,0,.68-.06,4.51,4.51,0,0,0,.51-.12l.35-.12a.66.66,0,0,1,.23-.06h.09a.15.15,0,0,1,.06.07.49.49,0,0,1,0,.15v.46a1.37,1.37,0,0,1,0,.16.37.37,0,0,1,0,.11l-.06.08a.71.71,0,0,1-.21.11,3.29,3.29,0,0,1-.43.14,5.93,5.93,0,0,1-.6.12,5,5,0,0,1-.73,0,3.85,3.85,0,0,1-1.22-.18,2.18,2.18,0,0,1-.88-.53,2.22,2.22,0,0,1-.52-.9,4.24,4.24,0,0,1-.17-1.28,4.06,4.06,0,0,1,.18-1.26,2.64,2.64,0,0,1,.53-.95,2.27,2.27,0,0,1,.84-.59,2.89,2.89,0,0,1,1.12-.21,2.92,2.92,0,0,1,1.12.19,2,2,0,0,1,.76.54,2.16,2.16,0,0,1,.44.81,3.53,3.53,0,0,1,.14,1Zm-1.43-.42a1.52,1.52,0,0,0-.25-1,1,1,0,0,0-.82-.35,1.07,1.07,0,0,0-.49.11,1,1,0,0,0-.35.28,1.3,1.3,0,0,0-.21.42,2.1,2.1,0,0,0-.08.52Z" style="fill:#fff"/><path d="M258.8,152.4a.16.16,0,0,1-.06.13.4.4,0,0,1-.18.07h-.75a.33.33,0,0,1-.17-.07.17.17,0,0,1,0-.13V152a2.38,2.38,0,0,1-.74.54,2.14,2.14,0,0,1-.92.19,2.57,2.57,0,0,1-.76-.11,1.72,1.72,0,0,1-.6-.32,1.45,1.45,0,0,1-.4-.53,1.8,1.8,0,0,1-.14-.74,1.67,1.67,0,0,1,.18-.79,1.45,1.45,0,0,1,.53-.56,2.65,2.65,0,0,1,.88-.33,6.3,6.3,0,0,1,1.22-.11h.51v-.32a1.66,1.66,0,0,0,0-.43.72.72,0,0,0-.16-.31.68.68,0,0,0-.3-.18,1.63,1.63,0,0,0-.47-.06,2.42,2.42,0,0,0-.66.08,3.78,3.78,0,0,0-.51.18l-.37.18a.54.54,0,0,1-.24.08.17.17,0,0,1-.11,0,.3.3,0,0,1-.08-.12.81.81,0,0,1,0-.19,1.58,1.58,0,0,1,0-.25,1.12,1.12,0,0,1,0-.29.44.44,0,0,1,.11-.19,1.1,1.1,0,0,1,.29-.19,3.37,3.37,0,0,1,.48-.19,4.45,4.45,0,0,1,2.32-.08,1.77,1.77,0,0,1,.72.37,1.43,1.43,0,0,1,.41.64,3,3,0,0,1,.13.93Zm-1.45-2.24h-.56a3,3,0,0,0-.61.05,1.17,1.17,0,0,0-.41.16.65.65,0,0,0-.23.25.77.77,0,0,0-.07.34.66.66,0,0,0,.21.52.83.83,0,0,0,.58.19,1.08,1.08,0,0,0,.57-.16,2.37,2.37,0,0,0,.53-.46Z" style="fill:#fff"/><path d="M263.25,151.87a1.84,1.84,0,0,1,0,.4.43.43,0,0,1-.08.19.46.46,0,0,1-.16.1l-.24.08h-.63a2.34,2.34,0,0,1-.76-.11,1.27,1.27,0,0,1-.53-.34,1.43,1.43,0,0,1-.31-.58,3.07,3.07,0,0,1-.1-.83V148.1h-.63q-.11,0-.17-.14a1.28,1.28,0,0,1-.06-.46,2.37,2.37,0,0,1,0-.29.69.69,0,0,1,0-.18.21.21,0,0,1,.07-.1h.72v-1.2a.18.18,0,0,1,0-.11.24.24,0,0,1,.12-.08h.94a.88.88,0,0,1,.23,0,.26.26,0,0,1,.12.08.17.17,0,0,1,0,.11v1.17H263a.21.21,0,0,1,.07.1.69.69,0,0,1,0,.18,2.37,2.37,0,0,1,0,.29,1.28,1.28,0,0,1-.06.46q-.06.14-.17.14h-1v2.46a1.22,1.22,0,0,0,.13.64.52.52,0,0,0,.48.21h.66a.14.14,0,0,1,0,.08,1.27,1.27,0,0,1,0,.17A2,2,0,0,1,263.25,151.87Z" style="fill:#fff"/><path d="M271.61,150.31a2.34,2.34,0,0,1-.22,1,2.17,2.17,0,0,1-.6.75,2.63,2.63,0,0,1-.89.45,3.79,3.79,0,0,1-1.09.15,3.88,3.88,0,0,1-.73-.06,4.14,4.14,0,0,1-.59-.16,2.6,2.6,0,0,1-.43-.19,1.24,1.24,0,0,1-.25-.18.44.44,0,0,1-.11-.22,2,2,0,0,1,0-.41v-.3a.88.88,0,0,1,0-.2.22.22,0,0,1,.07-.11.17.17,0,0,1,.1,0,.49.49,0,0,1,.23.1l.38.21a3.47,3.47,0,0,0,.56.21,2.65,2.65,0,0,0,.75.1,1.74,1.74,0,0,0,.5-.07,1.13,1.13,0,0,0,.38-.19.81.81,0,0,0,.24-.3,1,1,0,0,0,.08-.4.71.71,0,0,0-.14-.44,1.39,1.39,0,0,0-.37-.33,3.8,3.8,0,0,0-.51-.27l-.59-.27a5.41,5.41,0,0,1-.59-.32,2.4,2.4,0,0,1-.51-.43,2,2,0,0,1-.37-.59A2.51,2.51,0,0,1,267,146a2,2,0,0,1,.54-.69,2.32,2.32,0,0,1,.81-.41,3.54,3.54,0,0,1,1-.13,3.58,3.58,0,0,1,.54,0,3.68,3.68,0,0,1,.5.11,2.81,2.81,0,0,1,.42.16,1,1,0,0,1,.24.15.42.42,0,0,1,.08.1.47.47,0,0,1,0,.11,1.11,1.11,0,0,1,0,.17q0,.1,0,.25t0,.29a1.07,1.07,0,0,1,0,.19.23.23,0,0,1-.06.11.15.15,0,0,1-.1,0,.49.49,0,0,1-.21-.08l-.35-.18a3.29,3.29,0,0,0-.47-.18,2.1,2.1,0,0,0-.59-.08,1.41,1.41,0,0,0-.44.06.91.91,0,0,0-.31.17.67.67,0,0,0-.19.26.85.85,0,0,0-.06.32.71.71,0,0,0,.14.44,1.32,1.32,0,0,0,.37.33,4,4,0,0,0,.52.27l.6.27a5.87,5.87,0,0,1,.6.32,2.4,2.4,0,0,1,.52.43,2,2,0,0,1,.37.59A2.05,2.05,0,0,1,271.61,150.31Z" style="fill:#fff"/><path d="M274.29,145.39a.83.83,0,0,1-.18.62,1.44,1.44,0,0,1-1.34,0,.8.8,0,0,1-.17-.59.85.85,0,0,1,.18-.62,1.42,1.42,0,0,1,1.34,0A.8.8,0,0,1,274.29,145.39Zm-.11,7a.16.16,0,0,1,0,.1.26.26,0,0,1-.12.07h-1.18a.26.26,0,0,1-.12-.07.16.16,0,0,1,0-.1v-5.21a.16.16,0,0,1,0-.1.28.28,0,0,1,.12-.08h1.18a.28.28,0,0,1,.12.08.16.16,0,0,1,0,.1Z" style="fill:#fff"/><path d="M280.36,147.52a1,1,0,0,1-.06.42q-.06.13-.16.13h-.62a.84.84,0,0,1,.18.32,1.24,1.24,0,0,1,.06.37,2,2,0,0,1-.15.81,1.61,1.61,0,0,1-.44.6,1.93,1.93,0,0,1-.69.37,3,3,0,0,1-.89.13,1.84,1.84,0,0,1-.48-.06,1.22,1.22,0,0,1-.35-.14.85.85,0,0,0-.13.18.49.49,0,0,0-.06.23.33.33,0,0,0,.15.28.76.76,0,0,0,.42.12h1.27a3.09,3.09,0,0,1,.79.13,1.7,1.7,0,0,1,.59.3,1.32,1.32,0,0,1,.36.47,1.49,1.49,0,0,1,.13.63,1.62,1.62,0,0,1-.17.73,1.65,1.65,0,0,1-.51.59,2.64,2.64,0,0,1-.85.4,4.38,4.38,0,0,1-1.2.15,5.3,5.3,0,0,1-1.14-.11,2.5,2.5,0,0,1-.77-.29,1.15,1.15,0,0,1-.58-1,1.35,1.35,0,0,1,0-.37,1.39,1.39,0,0,1,.15-.34,1.73,1.73,0,0,1,.24-.31,2.56,2.56,0,0,1,.32-.28,1,1,0,0,1-.53-.87,1.27,1.27,0,0,1,.16-.63,2,2,0,0,1,.41-.51,1.55,1.55,0,0,1-.33-.49,1.82,1.82,0,0,1-.12-.71,2,2,0,0,1,.16-.82,1.73,1.73,0,0,1,.45-.61,2,2,0,0,1,.69-.38,2.79,2.79,0,0,1,.88-.13,3.66,3.66,0,0,1,.47,0l.42.08h1.66q.1,0,.16.13A1.09,1.09,0,0,1,280.36,147.52Zm-1.55,5.41a.46.46,0,0,0-.21-.4,1.1,1.1,0,0,0-.58-.15h-1a1.54,1.54,0,0,0-.24.21,1.31,1.31,0,0,0-.15.2.58.58,0,0,0-.07.18.92.92,0,0,0,0,.18.48.48,0,0,0,.3.45,1.86,1.86,0,0,0,.83.15,2,2,0,0,0,.56-.07,1.08,1.08,0,0,0,.37-.18.64.64,0,0,0,.2-.25.73.73,0,0,0,0-.32Zm-.35-4.17a.81.81,0,0,0-.72-.89h-.18a.93.93,0,0,0-.38.07.76.76,0,0,0-.27.2.82.82,0,0,0-.16.29,1.15,1.15,0,0,0,0,.35.85.85,0,0,0,.23.63.89.89,0,0,0,.65.23,1,1,0,0,0,.39-.07.75.75,0,0,0,.27-.19.84.84,0,0,0,.16-.28,1,1,0,0,0,.07-.37Z" style="fill:#fff"/><path d="M286.33,152.39a.16.16,0,0,1,0,.1.26.26,0,0,1-.12.07H285a.26.26,0,0,1-.12-.07.16.16,0,0,1,0-.1v-3a2.52,2.52,0,0,0-.06-.6,1.18,1.18,0,0,0-.16-.37.72.72,0,0,0-.27-.24.85.85,0,0,0-.39-.08,1,1,0,0,0-.57.21,3.07,3.07,0,0,0-.6.6v3.47a.16.16,0,0,1,0,.1.26.26,0,0,1-.12.07h-1.17a.26.26,0,0,1-.12-.07.16.16,0,0,1,0-.1v-5.23a.18.18,0,0,1,0-.1.21.21,0,0,1,.11-.07h1a.21.21,0,0,1,.1.07.18.18,0,0,1,0,.1v.6a3.32,3.32,0,0,1,.88-.7,2,2,0,0,1,.93-.23,2.07,2.07,0,0,1,.9.18,1.57,1.57,0,0,1,.59.48,1.94,1.94,0,0,1,.33.71,4.12,4.12,0,0,1,.1,1Z" style="fill:#fff"/><path d="M291.46,150.91a1.76,1.76,0,0,1-.17.79,1.56,1.56,0,0,1-.47.57,2.13,2.13,0,0,1-.72.34,3.4,3.4,0,0,1-.9.11,3.44,3.44,0,0,1-.56,0,3.39,3.39,0,0,1-.48-.11,2.5,2.5,0,0,1-.35-.14.87.87,0,0,1-.21-.13.41.41,0,0,1-.1-.19,1.62,1.62,0,0,1,0-.39,2.49,2.49,0,0,1,0-.27.7.7,0,0,1,0-.16.15.15,0,0,1,.06-.08h.09a.44.44,0,0,1,.19.07l.31.16a3.33,3.33,0,0,0,.44.16,1.93,1.93,0,0,0,.57.08,1.39,1.39,0,0,0,.35,0,.89.89,0,0,0,.27-.12.5.5,0,0,0,.17-.19.59.59,0,0,0,.06-.27.45.45,0,0,0-.11-.3,1,1,0,0,0-.29-.22,3.29,3.29,0,0,0-.4-.18l-.46-.18a4.24,4.24,0,0,1-.46-.23,1.77,1.77,0,0,1-.4-.32,1.44,1.44,0,0,1-.29-.45,1.66,1.66,0,0,1-.11-.63,1.61,1.61,0,0,1,.15-.69,1.5,1.5,0,0,1,.42-.54,2,2,0,0,1,.67-.35,3,3,0,0,1,.89-.12,3.18,3.18,0,0,1,.48,0l.42.09.32.11.18.11a.29.29,0,0,1,.08.09.37.37,0,0,1,0,.11v.64a.67.67,0,0,1,0,.16.14.14,0,0,1-.06.08H291a.4.4,0,0,1-.16-.06l-.28-.13-.39-.13a1.86,1.86,0,0,0-.5-.06,1.29,1.29,0,0,0-.35,0,.66.66,0,0,0-.24.12.49.49,0,0,0-.14.18.52.52,0,0,0,0,.22.44.44,0,0,0,.11.3,1,1,0,0,0,.29.22,3.32,3.32,0,0,0,.41.18l.47.18a4.3,4.3,0,0,1,.47.23,1.77,1.77,0,0,1,.41.32,1.46,1.46,0,0,1,.29.45A1.57,1.57,0,0,1,291.46,150.91Z" style="fill:#fff"/><path d="M299.88,150.31a2.34,2.34,0,0,1-.22,1,2.17,2.17,0,0,1-.6.75,2.63,2.63,0,0,1-.89.45,3.79,3.79,0,0,1-1.09.15,3.88,3.88,0,0,1-.73-.06,4.14,4.14,0,0,1-.59-.16,2.6,2.6,0,0,1-.43-.19,1.24,1.24,0,0,1-.25-.18.44.44,0,0,1-.11-.22,2,2,0,0,1,0-.41v-.3a.88.88,0,0,1,0-.2.22.22,0,0,1,.07-.11.17.17,0,0,1,.1,0,.49.49,0,0,1,.23.1l.38.21a3.47,3.47,0,0,0,.56.21,2.65,2.65,0,0,0,.75.1,1.74,1.74,0,0,0,.5-.07,1.13,1.13,0,0,0,.38-.19.81.81,0,0,0,.24-.3,1,1,0,0,0,.08-.4.71.71,0,0,0-.14-.44,1.39,1.39,0,0,0-.37-.33,3.8,3.8,0,0,0-.51-.27l-.59-.27a5.41,5.41,0,0,1-.59-.32,2.4,2.4,0,0,1-.51-.43,2,2,0,0,1-.37-.59,2.51,2.51,0,0,1,.06-1.81,2,2,0,0,1,.54-.69,2.32,2.32,0,0,1,.81-.41,3.54,3.54,0,0,1,1-.13,3.58,3.58,0,0,1,.54,0,3.68,3.68,0,0,1,.5.11,2.81,2.81,0,0,1,.42.16,1,1,0,0,1,.24.15.42.42,0,0,1,.08.1.47.47,0,0,1,0,.11,1.13,1.13,0,0,1,0,.17v.54a1.07,1.07,0,0,1,0,.19.23.23,0,0,1-.06.11.15.15,0,0,1-.1,0,.49.49,0,0,1-.21-.08l-.35-.18a3.29,3.29,0,0,0-.47-.18,2.1,2.1,0,0,0-.59-.08,1.41,1.41,0,0,0-.44.06.91.91,0,0,0-.31.17.67.67,0,0,0-.19.26.85.85,0,0,0-.06.32.71.71,0,0,0,.14.44,1.32,1.32,0,0,0,.37.33,4,4,0,0,0,.52.27l.6.27a5.84,5.84,0,0,1,.6.32,2.4,2.4,0,0,1,.52.43,2.18,2.18,0,0,1,.54,1.52Z" style="fill:#fff"/><path d="M304,151.87a1.84,1.84,0,0,1,0,.4.43.43,0,0,1-.08.19.46.46,0,0,1-.16.1l-.24.08h-.63a2.34,2.34,0,0,1-.76-.11,1.27,1.27,0,0,1-.53-.34,1.43,1.43,0,0,1-.31-.58,3.07,3.07,0,0,1-.1-.83V148.1h-.63q-.11,0-.17-.14a1.28,1.28,0,0,1-.06-.46,2.39,2.39,0,0,1,0-.29.69.69,0,0,1,0-.18.21.21,0,0,1,.07-.1h.72v-1.2a.18.18,0,0,1,0-.11.24.24,0,0,1,.12-.08h.94a.88.88,0,0,1,.23,0,.26.26,0,0,1,.12.08.17.17,0,0,1,0,.11v1.17h1.24a.21.21,0,0,1,.07.1.69.69,0,0,1,0,.18,2.39,2.39,0,0,1,0,.29,1.28,1.28,0,0,1-.06.46q-.06.14-.17.14h-1.14v2.46a1.22,1.22,0,0,0,.13.64.52.52,0,0,0,.48.21h.66a.14.14,0,0,1,0,.08,1.27,1.27,0,0,1,0,.17A2,2,0,0,1,304,151.87Z" style="fill:#fff"/><path d="M309.45,152.4a.16.16,0,0,1-.06.13.4.4,0,0,1-.18.07h-.75a.33.33,0,0,1-.17-.07.17.17,0,0,1,0-.13V152a2.38,2.38,0,0,1-.74.54,2.14,2.14,0,0,1-.92.19,2.57,2.57,0,0,1-.76-.11,1.72,1.72,0,0,1-.6-.32,1.45,1.45,0,0,1-.4-.53,1.8,1.8,0,0,1-.14-.74,1.67,1.67,0,0,1,.18-.79,1.45,1.45,0,0,1,.53-.56,2.65,2.65,0,0,1,.88-.33,6.3,6.3,0,0,1,1.22-.11H308v-.32a1.66,1.66,0,0,0,0-.43.72.72,0,0,0-.16-.31.68.68,0,0,0-.3-.18,1.63,1.63,0,0,0-.47-.06,2.42,2.42,0,0,0-.66.08,3.78,3.78,0,0,0-.51.18l-.37.18a.54.54,0,0,1-.24.08.17.17,0,0,1-.11,0,.3.3,0,0,1-.08-.12.81.81,0,0,1,0-.19,1.58,1.58,0,0,1,0-.25,1.12,1.12,0,0,1,0-.29.44.44,0,0,1,.11-.19,1.1,1.1,0,0,1,.29-.19A3.37,3.37,0,0,1,306,147a4.45,4.45,0,0,1,2.32-.08,1.77,1.77,0,0,1,.72.37,1.43,1.43,0,0,1,.41.64,3,3,0,0,1,.13.93ZM308,150.16h-.56a3,3,0,0,0-.61.05,1.17,1.17,0,0,0-.41.16.65.65,0,0,0-.23.25.77.77,0,0,0-.07.34.66.66,0,0,0,.21.52.83.83,0,0,0,.58.19,1.08,1.08,0,0,0,.57-.16A2.37,2.37,0,0,0,308,151Z" style="fill:#fff"/><path d="M314.27,147.65V148a1.06,1.06,0,0,1,0,.21.21.21,0,0,1-.06.11.15.15,0,0,1-.1,0h-.59a.65.65,0,0,0-.25,0,1,1,0,0,0-.25.16,1.89,1.89,0,0,0-.28.28,4.58,4.58,0,0,0-.31.43v3.26a.16.16,0,0,1,0,.1.26.26,0,0,1-.12.07h-1.17a.26.26,0,0,1-.12-.07.16.16,0,0,1,0-.1v-5.23a.18.18,0,0,1,0-.1.21.21,0,0,1,.11-.07h1a.21.21,0,0,1,.1.07.18.18,0,0,1,0,.1v.65a4.17,4.17,0,0,1,.39-.48,2.2,2.2,0,0,1,.35-.3,1.09,1.09,0,0,1,.33-.16,1.26,1.26,0,0,1,.33,0h.5l.1.06a.18.18,0,0,1,0,.06.51.51,0,0,1,0,.1,1.43,1.43,0,0,1,0,.18A1,1,0,0,1,314.27,147.65Z" style="fill:#fff"/><path d="M318.28,151.87a1.84,1.84,0,0,1,0,.4.43.43,0,0,1-.08.19.46.46,0,0,1-.16.1l-.24.08h-.63a2.34,2.34,0,0,1-.76-.11,1.27,1.27,0,0,1-.53-.34,1.43,1.43,0,0,1-.31-.58,3.07,3.07,0,0,1-.1-.83V148.1h-.59q-.11,0-.17-.14a1.28,1.28,0,0,1-.06-.46,2.39,2.39,0,0,1,0-.29.69.69,0,0,1,0-.18.21.21,0,0,1,.07-.1h.72v-1.2a.18.18,0,0,1,0-.11.24.24,0,0,1,.12-.08h.94a.88.88,0,0,1,.23,0,.26.26,0,0,1,.12.08.17.17,0,0,1,0,.11v1.17h1.24a.21.21,0,0,1,.07.1.69.69,0,0,1,0,.18,2.39,2.39,0,0,1,0,.29,1.28,1.28,0,0,1-.06.46q-.06.14-.17.14h-1v2.46a1.22,1.22,0,0,0,.13.64.52.52,0,0,0,.48.21h.66a.14.14,0,0,1,0,.08,1.27,1.27,0,0,1,0,.17Z" style="fill:#fff"/><path d="M324,149.62a.57.57,0,0,1-.12.4.43.43,0,0,1-.33.13h-3.18a2.17,2.17,0,0,0,.08.61,1.16,1.16,0,0,0,.25.46,1.1,1.1,0,0,0,.45.29,1.91,1.91,0,0,0,.65.1,3.68,3.68,0,0,0,.68-.06,4.5,4.5,0,0,0,.51-.12l.35-.12a.66.66,0,0,1,.23-.06h.09a.15.15,0,0,1,.06.07.49.49,0,0,1,0,.15v.46a1.4,1.4,0,0,1,0,.16.37.37,0,0,1,0,.11l-.06.08a.71.71,0,0,1-.21.11,3.29,3.29,0,0,1-.43.14,5.93,5.93,0,0,1-.6.12,5,5,0,0,1-.73,0,3.85,3.85,0,0,1-1.22-.18,2.18,2.18,0,0,1-.88-.53,2.22,2.22,0,0,1-.52-.9,4.24,4.24,0,0,1-.21-1.31,4.06,4.06,0,0,1,.18-1.26,2.64,2.64,0,0,1,.53-.95,2.27,2.27,0,0,1,.84-.59,2.89,2.89,0,0,1,1.12-.21,2.92,2.92,0,0,1,1.12.19,2,2,0,0,1,.76.54,2.16,2.16,0,0,1,.44.81,3.53,3.53,0,0,1,.14,1Zm-1.43-.42a1.52,1.52,0,0,0-.25-1,1,1,0,0,0-.82-.35,1.07,1.07,0,0,0-.49.11,1,1,0,0,0-.35.28,1.3,1.3,0,0,0-.21.42,2.1,2.1,0,0,0-.08.52Z" style="fill:#fff"/><path d="M330.19,152.39a.19.19,0,0,1,0,.11.21.21,0,0,1-.1.07h-1a.23.23,0,0,1-.11-.07.18.18,0,0,1,0-.11v-.58a3.36,3.36,0,0,1-.85.67,2.22,2.22,0,0,1-2,0,1.93,1.93,0,0,1-.67-.62,2.71,2.71,0,0,1-.38-.92,5.05,5.05,0,0,1-.12-1.1,4.84,4.84,0,0,1,.15-1.25,2.84,2.84,0,0,1,.44-.95,1.94,1.94,0,0,1,.71-.6,2.2,2.2,0,0,1,1-.21,1.76,1.76,0,0,1,.8.18,2.83,2.83,0,0,1,.71.52v-2.8a.18.18,0,0,1,0-.11.24.24,0,0,1,.12-.08h1.17a.26.26,0,0,1,.12.08.17.17,0,0,1,0,.11Zm-1.46-3.49a3.24,3.24,0,0,0-.61-.61,1,1,0,0,0-.61-.21.85.85,0,0,0-.5.14,1,1,0,0,0-.33.38,2,2,0,0,0-.19.54,3,3,0,0,0-.06.61,3.81,3.81,0,0,0,.05.64,2,2,0,0,0,.17.55,1.05,1.05,0,0,0,.32.39.83.83,0,0,0,.5.15,1,1,0,0,0,.3,0,1.13,1.13,0,0,0,.29-.14,2,2,0,0,0,.31-.26,4.65,4.65,0,0,0,.35-.4Z" style="fill:#fff"/></g><line x1="135.28" y1="270.23" x2="135.28" y2="51.73" style="fill:none;stroke:#b5b5b5;stroke-miterlimit:10"/><g id="4af9cc8f-d0bf-4d15-9898-5e0b7f8fecc4" data-name="page-second-station-1-cow"><path d="M72.38,206.23c1.2-.3,2.5,0,3.8-.4,4.8-1.4,6.9-6.7,7.6-11.1.3-2.3.3-4.6.5-6.9,1.4-13.6,6.5-17.5,6.5-17.5l5.5,2.7a19.32,19.32,0,0,0-8.3,8.1c0,.1-.1.1-.1.2a13.94,13.94,0,0,0-1.4,6.6c.1,5.9-.5,10.2-2,13.5-.2.6-2.8,8-8.2,9.2-3.3.7-4.3-.3-4.1.9S67.08,207.73,72.38,206.23Z" style="fill:#fff;stroke:#000;stroke-linejoin:round;stroke-width:0.5px"/><path d="M89.78,214.73h0c1.7,2.3,2,3.3,3.6,6.9,1.6,3.8,3.4,10.4,4.5,11.5,1.3,1.2,4.4.6,5,.5a21.16,21.16,0,0,0-1.2-2A8.5,8.5,0,0,0,104,233s-2-3.8-2.1-3.8a12.64,12.64,0,0,1-1.1-2.5c-.2-.5-.7-2-.7-2a37.78,37.78,0,0,1-1.2-7.7c-.1-5.4.5-4,.8-5.9a25.68,25.68,0,0,0,.5-7.6s-.8-2.9-5.1-3.6a4.9,4.9,0,0,0-5.6,3c1.6,5.1,1.1,3.6-.2,9.7C89.18,213.73,88.88,213.63,89.78,214.73Z" style="fill:#fff;stroke:#000;stroke-linejoin:round;stroke-width:0.5px"/><path d="M96.58,230.53c.4-.2.2,0,2.6,0a5.55,5.55,0,0,0,3.1-1" style="fill:#fff;stroke:#000;stroke-linejoin:round;stroke-width:0.5px"/><path d="M159.08,213.23h0c1.7,2.3,2,3.3,3.6,6.9,1.2,2.8,2,5.8,3,8.6a9.88,9.88,0,0,0,1.5,3.3c1.1,1.2,3.5.8,5.1-.1a14,14,0,0,0-1-1.6,3,3,0,0,0,1.9,1.1s-1.9-3.7-2-3.7a12.64,12.64,0,0,1-1.1-2.5c-.2-.5-.7-2-.7-2a37.78,37.78,0,0,1-1.2-7.7c-.1-5.4.5-4,.8-5.9a25.68,25.68,0,0,0,.5-7.6s-.8-2.9-5.1-3.6a4.9,4.9,0,0,0-5.6,3c1.6,5.1,1.1,3.6-.2,9.7C158.48,212.23,158.18,212.13,159.08,213.23Z" style="fill:#fff;stroke:#000;stroke-linejoin:round;stroke-width:0.5px"/><path d="M165.78,229s.6,0,2.5-.2a4.76,4.76,0,0,0,2.8-1.5" style="fill:#fff;stroke:#000;stroke-linejoin:round;stroke-width:0.5px"/><path d="M191.48,171.13h0a7.84,7.84,0,0,1,.1-2.7c.4-1.2,1.3-1.4,2.1-.9a7.24,7.24,0,0,0,2.7,1.4c.5.2.8.3,1.1.4" style="fill:#fff;stroke:#000;stroke-linejoin:round;stroke-width:0.5px"/><path d="M98.38,206.73a17,17,0,0,0,1.3,4c.3.9.6,1.6.8,2.1a5.18,5.18,0,0,1,.6,3.3s-.6,2.2,1.5,2c1-.1,1.1-1.5,1.8-2.2a4.85,4.85,0,0,0,2.7-.1,4.48,4.48,0,0,0,0,2.3.75.75,0,0,0,.3.3c1.2.4,1.7-1.4,2.1-2.8.3-1,2-1.4,2.8-1.8a10.14,10.14,0,0,0,3.6-2.5c2.5-3.1-2.1-5-4.4-5.9A13.38,13.38,0,0,0,98.38,206.73Z" style="fill:#fff;stroke:#000;stroke-linejoin:round;stroke-width:0.5px"/><path d="M87,219.13c0,.1.5,3.6.4,3.6.6,7,1.1,10.6,1.9,11.9a4.8,4.8,0,0,0,5.3,1,15.72,15.72,0,0,0-.9-2.3s1.3,1.6,1.8,1.5c0,0-4.7-11.6-.3-18.6a48.85,48.85,0,0,0,6-9.7c3.8-2.3,18.7,5.6,23.8,6,2,.6,10.6.4,12.9-.5a68.43,68.43,0,0,1,11.3-4.1c1.1-.3,2.5,1.7,5.6,1.8.6.3,1.2,3.6,2.1,6.8,1.1,3.9,2.5,7.9,2.5,11.1,0,1-1.1,5.8.9,8.1,1.3,1.5,4.6.7,5.5-.2l-1-1.8s.9,1.3,1.9,1.3c0,0-1-3.3-2.1-6.6v-.1h0c-.8-3.7-1.4-7.6.8-10.9.4-1.3,1.8-4.3,1.8-4.4.7-1.2,4.1-2.5,5.3-3.3,2.3-1.4,4.5-2.8,6.8-4.2s2.8-3.1,3.6-5.5c.7-2,1-2.9,2.9-3.9a6,6,0,0,0,2.6-1.1s1.9-.9,2.9-1.5c.3-.2,2.7-2.5,5.3-2.7h.2c3.9-.1,8.2,2.4,8.2,2.4,1.4,0,2.2,1.3,4.5.8a3.38,3.38,0,0,0,2.5-1l.5-.2c.7-.3,1.6-.8,1.8-1.5a3.54,3.54,0,0,0,.9-2.3c0-.2-.2-.4-.3-.6-1.8-2.5-5.2-4.2-6.5-7.1,0-.1-2.3-7.7-3.2-8.5,0,0-.4-.2-.4-.3-3.1-2.1-3.1-2.8-4.5-3.2a8.54,8.54,0,0,0-1.5-.1c-4.4,0-4.7,2.7-20.2,2.3a7.94,7.94,0,0,1-3.7-.7,19.81,19.81,0,0,0-7.3-1.6,42.32,42.32,0,0,0-8.5-.9c-11.6.8-10.2,3.2-24.7,1.8a73.89,73.89,0,0,1-8.6-.9c-.2,0-.5-.2-.6-.2-13.8-4.1-20.8.3-23.4-.2-5.7-1.1-5.8-1.3-8.9,0-5.7,2.4-6,8.2-5.8,13.8.3,12.7,2.9,19.8,1.4,21.8-1.8,2.2-2.5,4.1-3.3,4.6C83.88,210.23,86.48,215.73,87,219.13Z" style="fill:#fff;stroke:#000;stroke-linejoin:round;stroke-width:0.5px"/><path d="M156.48,197c.3-2-1-3.7-1.3-5.8-.4-3,3.2-5.1,5.9-4.8a3.84,3.84,0,0,1,3.4,3c.2,1.6-.9,3.2-.8,4.8,0,1.2.7,2.2.8,3.4.2,2.3-1.8,3.2-2.2,5.2-.5,2.5-1.6,5.7-4.1,2.1a40.48,40.48,0,0,1-2.3-3.4,2.22,2.22,0,0,1-.5-1.1c-.2-.8.4-1.6.8-2.3C156.28,197.83,156.38,197.43,156.48,197Z" style="fill:#fff;stroke:#000;stroke-linejoin:round;stroke-width:0.5px"/><path d="M144.78,170.43c-.3,2.5-2.6,4.2-3.4,6.5-1.4,4,2.9,5.4,4.8,7.9a3.77,3.77,0,0,1,.8,3.5c-.6,1.8-2.6,2.1-4.2,2.5a14.64,14.64,0,0,0-5.8,3c-3,2.4-5.8,5.3-9.7,5.9a4,4,0,0,1-3.2-.6c-1.7-1.3-1.3-4.1-3.3-5.1s-4.9.1-7.1.5c-1.3.2-2.8.1-3.6-.9-2.4-2.8,2-6.3-.4-9.1-2.2-2.6-5.9-3.4-8.7-5.2a4.27,4.27,0,0,1-1.9-2.3c-.3-1.5.8-2.5,1.2-3.8a7.87,7.87,0,0,0-.3-4.8" style="fill:none;stroke:#000;stroke-linejoin:round;stroke-width:0.5px"/><path d="M93.18,168.83a24.28,24.28,0,0,0,1.2,8.9c1,2.8,2.7,4.7,4.5,6.9a3.75,3.75,0,0,1,.7,1.2c.7,2.4-3,2.5-3.5,4.3a2.45,2.45,0,0,0,.5,2c.7,1,2.3,2.1,2,3.4a1.8,1.8,0,0,1-1.2,1.2,17.21,17.21,0,0,1-3.2.2c-2.1,0-3.7.1-5.4,1.4" style="fill:none;stroke:#000;stroke-linejoin:round;stroke-width:0.5px"/><path d="M196.78,172.63c-1.4-1.7-1.2-1.7-2.9-1.7a20.68,20.68,0,0,1-3.9-.2c-.9-.2-.7-.1-.7,1.2a8.63,8.63,0,0,0,1.7,4.6c.9,1,2.6,1.1,3.9,1a8.53,8.53,0,0,0,2.2-.5S198.18,174.33,196.78,172.63Z" style="fill:#fff;stroke:#000;stroke-linejoin:round;stroke-width:0.5px"/><path d="M191.58,173.23c-.3-1.8,2.5-.2,3,.1s1.3.8,1.3,1.5c0,.5-.1,1.6-.1,1.6a6.27,6.27,0,0,1-2.6-.5A3.85,3.85,0,0,1,191.58,173.23Z" style="fill:#fff;stroke:#000;stroke-linejoin:round;stroke-width:0.5px"/><path d="M204.58,179.13c.5.6.3,1.2.6,1.7.1.2-.9-.1-1-.1a2,2,0,0,1-1.7-1.7C202.48,178.63,204,178.43,204.58,179.13Z" style="fill:#fff;stroke:#000;stroke-linejoin:round;stroke-width:0.5px"/><circle cx="204.37" cy="179.79" r="0.2" transform="translate(-0.44 0.5) rotate(-0.14)" style="fill:#fff;stroke:#000;stroke-linejoin:round;stroke-width:0.5px"/><path d="M159.28,231.23c2.2.7,4.8,1.2,6.4,0" style="fill:#fff;stroke:#000;stroke-linejoin:round;stroke-width:0.5px"/><path d="M88.18,230.73c2.2.7,4.7,1.5,6.3.3" style="fill:#fff;stroke:#000;stroke-linejoin:round;stroke-width:0.5px"/><path d="M208.08,190.63c1.1-.5,2,.7,2.5-.2s-1.1-2.9,1.6-3.2a2.27,2.27,0,0,1,1.8.3c.9.5,1.5,1,1.5,1.7-.1,1.6-2.1,3.8-3.3,3.6-.6,1.5-4.4,1.4-4.9.1A2,2,0,0,1,208.08,190.63Z" style="fill:#fff;stroke:#000;stroke-linejoin:round;stroke-width:0.5px"/><path d="M212.58,188.43c.8,0,1.3.6.9,1.7s.4,1.1.2,1.3a3.71,3.71,0,0,1-1.5-.4,1.39,1.39,0,0,1,.4-2.6Z" style="fill:#fff;stroke:#000;stroke-linejoin:round;stroke-width:0.5px"/><path d="M205,179.83c0,.9-1.1,1-1.8.6" style="fill:#fff;stroke:#000;stroke-linejoin:round;stroke-width:0.5px"/><line x1="169.88" y1="207.23" x2="166.98" y2="213.93" style="fill:none;stroke:#000;stroke-linejoin:round;stroke-width:0.5px"/><path d="M102.58,200.73s-.3,4-1.4,6" style="fill:#fff;stroke:#000;stroke-linejoin:round;stroke-width:0.5px"/><line x1="154.18" y1="206.43" x2="155.58" y2="210.83" style="fill:none;stroke:#000;stroke-linejoin:round;stroke-width:0.5px"/><path d="M91.28,228.93H91a1.81,1.81,0,0,1-2-1.6h0l-.5-4.4a1.81,1.81,0,0,1,1.6-2h.3a1.81,1.81,0,0,1,2,1.6h0l.5,4.4a1.81,1.81,0,0,1-1.6,2Z" style="fill:#0095ce;stroke:#020202;stroke-miterlimit:10;stroke-width:0.18729999661445618px"/><polygon points="88.38 223.03 87.28 223.43 87.78 227.43 88.88 227.13 88.38 223.03" style="fill:#e7612e;stroke:#020202;stroke-miterlimit:10;stroke-width:0.18729999661445618px"/><polygon points="92.28 222.43 93.08 222.32 93.48 226.43 92.78 226.53 92.28 222.43" style="fill:#e7612e;stroke:#020202;stroke-miterlimit:10;stroke-width:0.18729999661445618px"/></g></svg>