<svg id="Layer_1" data-name="Layer 1" xmlns="http://www.w3.org/2000/svg" xmlns:xlink="http://www.w3.org/1999/xlink" width="371.17" height="342.04" viewBox="0 0 371.17 342.04"><defs><clipPath id="clip-path"><rect x="-34.98" y="-1549.73" width="1256.29" height="3501.14" style="fill:none"/></clipPath><clipPath id="clip-path-2"><rect x="-34.98" y="-1549.73" width="1256.29" height="3501.14" style="fill:none"/></clipPath><clipPath id="clip-path-3"><path d="M127,239.26c1,21-4.12,48-9.53,60.68l-.06.14q0,.36,0,.72a.1.1,0,0,0,0,.08l.13.13a.11.11,0,0,0,.11,0l.35,0,1.45-.14,1.16-.11.88-.09.71-.07,1.17-.12.76-.07,1.12-.11c.3,0,.61,0,.91-.09l.22-.44a9.44,9.44,0,0,0,.42-.91c7.09-15,11.45-36.23,10.12-61.65Z" style="fill:none"/></clipPath><clipPath id="clip-path-5"><rect x="159.59" y="12.63" width="111.53" height="111.53" style="fill:none"/></clipPath><clipPath id="clip-path-6"><rect x="166.44" y="19.48" width="97.83" height="97.83" style="fill:none"/></clipPath><clipPath id="clip-path-7"><rect x="173.14" y="26.18" width="84.42" height="84.43" style="fill:none"/></clipPath><clipPath id="clip-path-8"><rect x="179.38" y="32.42" width="71.95" height="71.95" style="fill:none"/></clipPath><clipPath id="clip-path-9"><rect x="239.29" y="136.81" width="63.65" height="63.65" style="fill:none"/></clipPath><clipPath id="clip-path-10"><rect x="243.2" y="140.72" width="55.84" height="55.83" style="fill:none"/></clipPath><clipPath id="clip-path-11"><rect x="247.02" y="144.55" width="48.18" height="48.18" style="fill:none"/></clipPath><clipPath id="clip-path-12"><rect x="250.58" y="148.11" width="41.06" height="41.06" style="fill:none"/></clipPath><clipPath id="clip-path-13"><rect x="136.26" y="147.98" width="46.65" height="46.65" style="fill:none"/></clipPath><clipPath id="clip-path-14"><rect x="139.13" y="150.85" width="40.92" height="40.91" style="fill:none"/></clipPath><clipPath id="clip-path-15"><rect x="141.93" y="153.65" width="35.31" height="35.31" style="fill:none"/></clipPath><clipPath id="clip-path-16"><rect x="144.54" y="156.26" width="30.09" height="30.09" style="fill:none"/></clipPath></defs><title>collar-mob-image-04</title><g style="clip-path:url(#clip-path)"><g style="clip-path:url(#clip-path-2)"><path d="M220.24,194.95s10.19,30.93,10.36,46.76c.11,10.17-1.41,20.41-3.14,30.41a79.18,79.18,0,0,1-2.07,10.2c-.88,2.81-2.22,5.48-3.29,8.22a3.38,3.38,0,0,0,2,4.34c.36.17,2.24-3.55,2.24-3.55s-.52,4.22.31,4.29a43.8,43.8,0,0,0,12.53-.56s3.13-16.36,3.79-27.86,5.67-26.83,6.67-35,2.67-15.67,2.5-20.08,0-7,0-7" style="fill:#fff"/><path d="M220.24,194.95s10.19,30.93,10.36,46.76c.11,10.17-1.41,20.41-3.14,30.41a79.18,79.18,0,0,1-2.07,10.2c-.88,2.81-2.22,5.48-3.29,8.22a3.38,3.38,0,0,0,2,4.34c.36.17,2.24-3.55,2.24-3.55s-.52,4.22.31,4.29a43.8,43.8,0,0,0,12.53-.56s3.13-16.36,3.79-27.86,5.67-26.83,6.67-35,2.67-15.67,2.5-20.08,0-7,0-7" style="fill:none;stroke:#000;stroke-linejoin:round;stroke-width:0.5px"/><path d="M272.35,188.48s-3.42,7-7,9.81-6.37,2.08-7.25,2.33l-2.25.63v1.63c0,.88-.25,1.38-1.62,2.13s-3.5-.37-4.5-.5a8.11,8.11,0,0,0-4.25,1c-1.37.78-.37,2.84-1,4.59s-1.75,2.88-2.75,2.61a1.82,1.82,0,0,1-1.37-2.49,21.33,21.33,0,0,0,0-5,37,37,0,0,0-6-3c-1.87-.5-3.75.75-5.37,2.13s-1.62,3.25-1.62,5-.25,2.38-2.12,2.75-1.87-1.5-2.25-2.5-.37-5.25-.87-5.87a28.91,28.91,0,0,0-7.87-4.62c-3.37-1.25-17.5-.72-17.5-.72l-18.52-1.19-14.79-11-7.25-26.86,43.25-26.75,41.5-8.25,37,21.25Z" style="fill:#fff"/><path d="M272.35,188.48s-3.42,7-7,9.81-6.37,2.08-7.25,2.33l-2.25.63v1.63c0,.88-.25,1.38-1.62,2.13s-3.5-.37-4.5-.5a8.11,8.11,0,0,0-4.25,1c-1.37.78-.37,2.84-1,4.59s-1.75,2.88-2.75,2.61a1.82,1.82,0,0,1-1.37-2.49,21.33,21.33,0,0,0,0-5,37,37,0,0,0-6-3c-1.87-.5-3.75.75-5.37,2.13s-1.62,3.25-1.62,5-.25,2.38-2.12,2.75-1.87-1.5-2.25-2.5-.37-5.25-.87-5.87a28.91,28.91,0,0,0-7.87-4.62c-3.37-1.25-17.5-.72-17.5-.72l-18.52-1.19-14.79-11-7.25-26.86,43.25-26.75,41.5-8.25,37,21.25Z" style="fill:none;stroke:#000;stroke-linejoin:round;stroke-width:0.5px"/><path d="M290.73,64.29c2.86,3.53,3.52,17,8.14,26.78s10,29.43,13,38.68,9.78,45.51,10.66,51.13-1.77,6.94-2.65,15.09-.23,10.58,2.84,20.57S325.9,229,325.9,229s5.18-8.92,6.4-18.62-2.63-18.51-4-26.91-5.43-27.31-6.08-36.34-20.28-80.44-20.28-80.44A43.49,43.49,0,0,0,299.54,58a14.08,14.08,0,0,0-5.86-7.26" style="fill:#fff"/><path d="M290.73,64.29c2.86,3.53,3.52,17,8.14,26.78s10,29.43,13,38.68,9.78,45.51,10.66,51.13-1.77,6.94-2.65,15.09-.23,10.58,2.84,20.57S325.9,229,325.9,229s5.18-8.92,6.4-18.62-2.63-18.51-4-26.91-5.43-27.31-6.08-36.34-20.28-80.44-20.28-80.44A43.49,43.49,0,0,0,299.54,58a14.08,14.08,0,0,0-5.86-7.26" style="fill:none;stroke:#000;stroke-linejoin:round;stroke-width:0.5px"/><path d="M186.6,185.54c-.33.67-6.33,7-9.5,14.17s-9.94,31.41-10,31.41-10.87,35.09-10.71,38.76,1.17,21.33,1.83,25.83.31,16.57-.35,17.74-8.94,3.31-14.56,1.38c-1.6-.55-1.69-3.19-1.69-3.19l-1.44,2.81s-1.29-9.41.21-15.57,2.83-7.5,3.83-11.5,1.83-16.17.67-19.33-4.83-13.3-4.5-17.48,6-24.68,6.33-31a21.2,21.2,0,0,0-1.67-10.17s-.62-1.16-3.5,1.17c-6,4.82-5.93,9.81-5.93,9.81l-28.16,55.47L82.63,229l9-65.22" style="fill:#fff"/><path d="M186.6,185.54c-.33.67-6.33,7-9.5,14.17s-9.94,31.41-10,31.41-10.87,35.09-10.71,38.76,1.17,21.33,1.83,25.83.31,16.57-.35,17.74-8.94,3.31-14.56,1.38c-1.6-.55-1.69-3.19-1.69-3.19l-1.44,2.81s-1.29-9.41.21-15.57,2.83-7.5,3.83-11.5,1.83-16.17.67-19.33-4.83-13.3-4.5-17.48,6-24.68,6.33-31a21.2,21.2,0,0,0-1.67-10.17s-.62-1.16-3.5,1.17c-6,4.82-5.93,9.81-5.93,9.81l-28.16,55.47L82.63,229l9-65.22" style="fill:none;stroke:#000;stroke-linejoin:round;stroke-width:0.5px"/><path d="M78.76,171.93a146.64,146.64,0,0,0-.83,28.44c1.17,14.33,2,38.33,2,46s1.3,20.5-1.18,29.5S71.27,292.7,71.1,298a59.31,59.31,0,0,1-1.17,9.83,2.66,2.66,0,0,0,1.65,1c1.18.24,1.83-3.41,1.83-3.41s-.17,4,1.5,4.44c6.19,1.75,13.23-.83,13.23-.83l1.47-15.65s.14-14.46,1.76-15.34,6.05,4.68,6.93.8-3.87-5.75-3.5-8.12,1.88-12.25-1-17.13-3.25-9.5-2.87-16.87-2.25-4.37,1.75-8.12,6.25-6.87,14.25-7.25,11.63-3.12,17,.75,7.12,3.75,6.5,8.63-4.37,7.13-4,12.38,4.49,4.74,4.12,7.43-4.87,15.69-8,21.94-5.37,9.88-4,12.5,3.13,2.75,3,4-.87,1.88-.62,3a23.94,23.94,0,0,1,.36,2.88" style="fill:#fff"/><path d="M78.76,171.93a146.64,146.64,0,0,0-.83,28.44c1.17,14.33,2,38.33,2,46s1.3,20.5-1.18,29.5S71.27,292.7,71.1,298a59.31,59.31,0,0,1-1.17,9.83,2.66,2.66,0,0,0,1.65,1c1.18.24,1.83-3.41,1.83-3.41s-.17,4,1.5,4.44c6.19,1.75,13.23-.83,13.23-.83l1.47-15.65s.14-14.46,1.76-15.34,6.05,4.68,6.93.8-3.87-5.75-3.5-8.12,1.88-12.25-1-17.13-3.25-9.5-2.87-16.87-2.25-4.37,1.75-8.12,6.25-6.87,14.25-7.25,11.63-3.12,17,.75,7.12,3.75,6.5,8.63-4.37,7.13-4,12.38,4.49,4.74,4.12,7.43-4.87,15.69-8,21.94-5.37,9.88-4,12.5,3.13,2.75,3,4-.87,1.88-.62,3a23.94,23.94,0,0,1,.36,2.88" style="fill:none;stroke:#000;stroke-linejoin:round;stroke-width:0.5px"/><path d="M85.64,218.81s-1.54-31.1-2-36.1-11.33-20.83-13.5-27-3.5-12.83-2-17.67,17-49.5,27.83-62.83,13-17,17.17-20.67,27.83-15.33,33.5-17.67,18.67-7.33,23.5-6.33,22.67,3.33,43.5,5,36.17.33,50.17,2,23.17,4.83,29.33,10.67,9.17,14.33,9.17,16.5,3,1.67,4.67,7.83-1.5,28.33-2.5,36.83-2.33,32.83-1.17,44.33-2.5,35-.83,42.5,4.12,13.36,5,18-2.64,12.32-2.31,20.49-3.17,39.83-2.67,44.67,1.5,18.67,1.17,20.17-10,3.17-12.17,2.5-1.67-5.67-1.67-5.67l-1.5,4.83-3.17-1.83s2.67-15.67,3.83-22.67,1.17-19.5.17-23.33-8.5-33.95-10.83-40.64-1.33-13.19-4-19.69-8.67-22.57-13-26.74c-8.79-8.48-12.54-24.48-12.54-24.48" style="fill:#fff"/><path d="M85.64,218.81s-1.54-31.1-2-36.1-11.33-20.83-13.5-27-3.5-12.83-2-17.67,17-49.5,27.83-62.83,13-17,17.17-20.67,27.83-15.33,33.5-17.67,18.67-7.33,23.5-6.33,22.67,3.33,43.5,5,36.17.33,50.17,2,23.17,4.83,29.33,10.67,9.17,14.33,9.17,16.5,3,1.67,4.67,7.83-1.5,28.33-2.5,36.83-2.33,32.83-1.17,44.33-2.5,35-.83,42.5,4.12,13.36,5,18-2.64,12.32-2.31,20.49-3.17,39.83-2.67,44.67,1.5,18.67,1.17,20.17-10,3.17-12.17,2.5-1.67-5.67-1.67-5.67l-1.5,4.83-3.17-1.83s2.67-15.67,3.83-22.67,1.17-19.5.17-23.33-8.5-33.95-10.83-40.64-1.33-13.19-4-19.69-8.67-22.57-13-26.74c-8.79-8.48-12.54-24.48-12.54-24.48" style="fill:none;stroke:#000;stroke-linejoin:round;stroke-width:0.5px"/><path d="M196.68,198.4A84.24,84.24,0,0,0,237,187.95c20-11.25,23.48-22.61,23.48-22.61" style="fill:#fff"/><path d="M196.68,198.4A84.24,84.24,0,0,0,237,187.95c20-11.25,23.48-22.61,23.48-22.61" style="fill:none;stroke:#000;stroke-linejoin:round;stroke-width:0.5px"/><path d="M84.24,220.26,78.87,220c.44-.46,6.47-17.63,25.16-17.63,23.62,0,30.54,16.82,31,17.29l-6.64.22c-.09-.08-10-9.06-24.14-8.65-11.62.35-20,8.89-20.06,9" style="fill:#16498e"/><path d="M86.84,221l-3.47-1.85c.39-.4,7-14.33,20.93-13.9,20.84.65,26.37,13.7,26.81,14.11l-5.28,1.34c-.08-.07-8.83-8-21.3-7.63C94.29,213.43,86.92,221,86.84,221Z" style="fill:none;stroke:#ef6623;stroke-miterlimit:10;stroke-width:2.1530001163482666px"/><path d="M91.87,222.15l-2.62-1.39A16.25,16.25,0,0,1,105,210.28c15.71,0,19.87,10.32,20.21,10.64l-4,1a24.82,24.82,0,0,0-16.05-5.75C97.48,216.41,91.92,222.09,91.87,222.15Z" style="fill:none;stroke:#ef6623;stroke-miterlimit:10;stroke-width:2.1530001163482666px"/><path d="M114.55,307.54c2.07-6.44.81-27.17.81-27.17l8.33,5.49,1.74,21.88s-11.72,2.39-10.89-.2" style="fill:#1c4075"/><path d="M119.83,296.58l.58-.08.32,0,.16,0,.56-.06.7-.06.6,0c.23,0,.46,0,.69,0s.59,0,.88,0l.87,0a4.7,4.7,0,0,1,.81.11c.29.07.59.14.87.24a3.07,3.07,0,0,1,1.05.64,4.89,4.89,0,0,1,.91,1.16,9,9,0,0,1,.46.9,4,4,0,0,1,.17.47,1.24,1.24,0,0,0,.06.17s0,.07,0,.1c.08.22.16.45.23.68l.09.33c0,.11.05.23.09.34s0,.12,0,.18.06.28.09.42a1.54,1.54,0,0,0,0,.16.92.92,0,0,1,0,.12c0,.11,0,.21.06.31s.06.34.09.52,0,.17,0,.25a.88.88,0,0,0,0,.2,1,1,0,0,1,0,.18c0,.12,0,.25,0,.37a.25.25,0,0,1,0,.05c0,.12,0,.24,0,.36a.45.45,0,0,1,0,.09c0,.05,0,.1,0,.15,0,.22,0,.44,0,.67a1.38,1.38,0,0,1,0,.25c0,.12,0,.24,0,.36a1.27,1.27,0,0,0,0,.2c0,.07,0,.15,0,.22a.36.36,0,0,0,0,.15.24.24,0,0,1,0,.11c0,.08,0,.16,0,.23l0,.1c0,.07,0,.14,0,.21s0,.05,0,.08a1,1,0,0,1,0,.21,1.75,1.75,0,0,1,0,.2c0,.12-.08.24-.1.36a.33.33,0,0,0-.06.15,2.65,2.65,0,0,1-.16.39l-.08.21a1,1,0,0,1-.08.15l-.09.14c-.05.1-.12.19-.17.28a2.94,2.94,0,0,1-.26.35c-.08.09-.16.19-.24.28l-.18.19-.3.28c-.09.09-.2.17-.3.25a3.87,3.87,0,0,1-.39.27l-.29.18c-.16.1-.32.17-.49.26l-.32.16-.19.09-.32.13L126,312l-.12,0-.18.06-.14.05-.35.1-.31.08a1,1,0,0,0-.19,0h0l-.29.05-.22,0-.19,0-.18,0-.23,0c-.12,0-.24,0-.35,0l-.37.05-.29,0-.26,0-.48,0-.34,0H121l-.5,0c-.22,0-.44,0-.66-.06s-.5-.07-.75-.12a5.4,5.4,0,0,1-.56-.13l-.39-.11-.57-.21-.35-.16-.24-.13a4.73,4.73,0,0,1-.49-.31l-.31-.23-.15-.14c-.12-.1-.23-.22-.35-.34a1,1,0,0,1-.12-.15c-.06-.08-.12-.15-.19-.23a2.57,2.57,0,0,1-.18-.26c-.07-.1-.12-.2-.18-.3s-.15-.27-.22-.41-.11-.26-.16-.39a7.19,7.19,0,0,1-.26-.78c-.06-.21-.09-.42-.15-.62a.69.69,0,0,1,0-.13c0-.05,0-.1,0-.16s0-.2,0-.31,0-.21,0-.32a.74.74,0,0,1,0-.19,1.15,1.15,0,0,0,0-.29c0-.31-.05-.62-.07-.93,0-.12,0-.25,0-.37s0-.08,0-.11a.66.66,0,0,1,0-.22.23.23,0,0,0,0-.13v0c0-.06,0-.11,0-.17a.32.32,0,0,0,0-.08.93.93,0,0,1,0-.26.31.31,0,0,0,0-.06.3.3,0,0,1,0-.13.09.09,0,0,0,0-.08.09.09,0,0,1,0-.07.13.13,0,0,0,0-.07s0-.08,0-.12a.62.62,0,0,0,0-.21c0-.06,0-.11,0-.17s0,0,0,0a1.51,1.51,0,0,1,0-.33c0-.11,0-.22,0-.33s0-.23,0-.35,0-.33.07-.5.07-.5.12-.74.09-.37.14-.55a7.11,7.11,0,0,1,.33-.88,4.06,4.06,0,0,1,.62-1,3.15,3.15,0,0,1,.68-.59c.15-.1.32-.18.48-.27s.47-.21.7-.32a3.07,3.07,0,0,1,.5-.16l.67-.16.72-.14.71-.11h.06Zm2,3h0l-.3,0-1,.1-1.59.15-1.38.13c-.05,0-.06,0-.05.06l.05.78a.1.1,0,0,0,0,.08l.13.12a.11.11,0,0,0,.1,0l.34,0,1.42-.14,1.14-.11.86-.09.69-.07,1.15-.11.74-.07,1.09-.11c.31,0,.62,0,.93-.09a.08.08,0,0,0,.06,0,1.21,1.21,0,0,1,.1-.17.21.21,0,0,0,0-.19l-.12-.61c0-.07,0-.07-.09-.07l-.88.09-1.07.1-1.05.1-1.3.12" style="fill:#0099d6"/><path d="M117.53,300.13l-.06.15q0,.36,0,.72a.11.11,0,0,0,0,.08l.13.12a.11.11,0,0,0,.1,0l.35,0,1.45-.14,1.16-.11.88-.09.71-.07,1.17-.12.76-.07,1.12-.11c.31,0,.61,0,.92-.09l.22-.44a9.42,9.42,0,0,0,.42-.91C134,284,138.38,262.82,137,237.4l-10,2c1,21-4.12,48-9.53,60.68" style="fill:#16498e"/><path d="M117.49,299.95c-.06,0-.06,0-.05.06s0,.05,0,.08l.06-.14h0" style="fill:#0099d6"/></g><g style="clip-path:url(#clip-path-3)"><path d="M122,199.79s3.45,13,6.35,31.31c3.5,22.15-.1,48.72-9.37,70.34" style="fill:none;stroke:#ef6623;stroke-miterlimit:10;stroke-width:2.1530001163482666px"/><path d="M127.87,199.27s18.42,53.31-4.25,103" style="fill:none;stroke:#ef6623;stroke-miterlimit:10;stroke-width:2.1530001163482666px"/></g><g style="clip-path:url(#clip-path-2)"><path d="M130.42,215.24c-6.49.69-8.49,2.06-8.8,6.32a56.21,56.21,0,0,0,1.67,11c.36,1.36,2.47,9.28,3.63,10.89.91,1.25,1.16,1.59,1.95,2,.59.31,5.14,1.66,8.57-1.06.82-.65,2.18-3.17,2.18-7.81a131.86,131.86,0,0,0-1.66-15.88c-1.25-6.57-7.53-5.45-7.53-5.45m-6,4.34,10.2-1.92.7,3.73-10.21,1.92Z" style="fill:#0099d6"/><line x1="117.31" y1="281.66" x2="117.67" y2="297" style="fill:none;stroke:#ef6623;stroke-miterlimit:10;stroke-width:2.1530001163482666px"/><path d="M252.74,36.75c.59,7.18,6.44,13.24,9.72,19.21,4.21,7.66.76,15.85.7,24,0,3.67,1,7.78,4.13,9.65,4.75,2.8,11.74.67,11.42,8.65-.18,4.52-2.4,8.53-2.26,13.13a24.37,24.37,0,0,0,4.13,12.84c1.92,2.83,4.42,5.22,6.35,8,3.39,5,2.48,10.54,3.21,16.21A55.07,55.07,0,0,0,294,163.31c1.06,2.44,1.36,8.85,9,8.62" style="fill:none;stroke:#000;stroke-linejoin:round;stroke-width:0.5px"/><path d="M124.45,47.51C122,52.09,115.23,62,119.17,65.69c5.38,5.11,11.8,10.83,8.66,19.1-.89,2.34-2.45,4.37-3.33,6.71a3.63,3.63,0,0,0-.28,2.14c.35,1.4,2,2,3.38,2.29,7.69,1.35,14.55-2.9,20.08-7.79,5-4.43,10.42-10.73,17.33-12a4.62,4.62,0,0,1,2.18,0A7.34,7.34,0,0,1,169.75,78c4.83,4.33,11.1,5.32,17.37,5.3,9.45,0,19.83-.06,29,2.61a52.77,52.77,0,0,1,9.75,4.25c2.64,1.38,6.1,3.43,9.21,2.63a4,4,0,0,0,2.62-3.67c.37-5.8-4.84-11.3-7.54-16-1.69-2.93-2.55-6.81-.6-9.56s5.36-3.1,8.16-4.25a12.38,12.38,0,0,0,7-7.11,22.44,22.44,0,0,0,0-14.66" style="fill:none;stroke:#000;stroke-linejoin:round;stroke-width:0.5px"/><path d="M118.81,213.12c6.27,2.72,15.33,7.15,26,8.49s24,3,27.67,4.67,5.67,6.33,1.33,9.67-12,10.67-18,10-8.67-3.67-13.33-6.67-7-3.33-7.67-.33c-.79,3.56.16,7.92.21,11.53.07,5.34-.12,10.41-2.22,15.41-1.27,3-2.71,5.75-3.31,9s-.71,6.62-1.28,9.9a55.29,55.29,0,0,1-3.11,10.33c-1.25,3.23-1.52,5.48-.29,8.83,2.33,6.33,3.5,8.67,2.33,11.17s-2.33,7.33-3.67,8.83-5.17,4.17-11.83,5.5-13.33-3.33-14.17-4.83-3.33-5.5-3-8.83,1.83-6.83,2.17-10.5a21.39,21.39,0,0,0-2.57-11.89,46.52,46.52,0,0,1-4.51-12.49,51.7,51.7,0,0,0-1.44-6.41c-1.48-4.32-5.75-6.62-7.34-10.94-1.67-4.53-1.36-9.56-1-14.28.73-8.8-.33-10.5-1-10.67s-1.17-1-2.67.83-2.86,8-10.68,9-15.65-.5-21.32-4.33-6-8.83-6-8.83-2.5-1.5,3-3.33,12.33-2.67,14.33-3.67a37.05,37.05,0,0,1,8-3c3.83-1,5.33-1,8-2s6.5-3.33,9.83-4.5,9.08-4.1,13.27-5.65c7.68-2.83,18.21-2.61,24.23,0" style="fill:#fff"/><path d="M118.81,213.12c6.27,2.72,15.33,7.15,26,8.49s24,3,27.67,4.67,5.67,6.33,1.33,9.67-12,10.67-18,10-8.67-3.67-13.33-6.67-7-3.33-7.67-.33c-.79,3.56.16,7.92.21,11.53.07,5.34-.12,10.41-2.22,15.41-1.27,3-2.71,5.75-3.31,9s-.71,6.62-1.28,9.9a55.29,55.29,0,0,1-3.11,10.33c-1.25,3.23-1.52,5.48-.29,8.83,2.33,6.33,3.5,8.67,2.33,11.17s-2.33,7.33-3.67,8.83-5.17,4.17-11.83,5.5-13.33-3.33-14.17-4.83-3.33-5.5-3-8.83,1.83-6.83,2.17-10.5a21.39,21.39,0,0,0-2.57-11.89,46.52,46.52,0,0,1-4.51-12.49,51.7,51.7,0,0,0-1.44-6.41c-1.48-4.32-5.75-6.62-7.34-10.94-1.67-4.53-1.36-9.56-1-14.28.73-8.8-.33-10.5-1-10.67s-1.17-1-2.67.83-2.86,8-10.68,9-15.65-.5-21.32-4.33-6-8.83-6-8.83-2.5-1.5,3-3.33,12.33-2.67,14.33-3.67a37.05,37.05,0,0,1,8-3c3.83-1,5.33-1,8-2s6.5-3.33,9.83-4.5,9.08-4.1,13.27-5.65C102.26,210.29,112.79,210.51,118.81,213.12Z" style="fill:none;stroke:#000;stroke-linejoin:round;stroke-width:0.5px"/><path d="M126,292.72s-4.47,8.08-6.09,7.19-1.69-17.88-2.55-21.76,3.9-5.74,3.53-8.11-1.83-12.26,1.06-17.12,3.28-9.49,2.93-16.86,2.27-4.37-1.72-8.13-6.23-6.9-14.22-7.3-11.61-3.17-17,.69-7.14,3.72-6.53,8.6,4.35,7.14,4,12.39-4.51,4.73-4.15,7.42,4.82,15.71,7.92,22,5.34,9.89,4,12.51-3.14,2.74-3,4,.87,1.88.61,3a23.92,23.92,0,0,0-.37,2.87" style="fill:none;stroke:#1d1d1b;stroke-miterlimit:10;stroke-width:0.5px"/><path d="M128.5,270.3a9.11,9.11,0,0,1,1.6-3.35c.55-.87,1.67-1.94,1.87-3a15.05,15.05,0,0,1-1.47,4.41,4,4,0,0,1-2,1.9" style="fill:#fff"/><path d="M128.5,270.3a9.11,9.11,0,0,1,1.6-3.35c.55-.87,1.67-1.94,1.87-3a15.05,15.05,0,0,1-1.47,4.41A4,4,0,0,1,128.5,270.3Z" style="fill:none;stroke:#000;stroke-linejoin:round;stroke-width:0.5px"/><path d="M87.47,270.3a9.11,9.11,0,0,0-1.6-3.35c-.55-.87-1.67-1.94-1.87-3a15.05,15.05,0,0,0,1.47,4.41,4,4,0,0,0,2,1.9" style="fill:#fff"/><path d="M87.47,270.3a9.11,9.11,0,0,0-1.6-3.35c-.55-.87-1.67-1.94-1.87-3a15.05,15.05,0,0,0,1.47,4.41A4,4,0,0,0,87.47,270.3Z" style="fill:none;stroke:#000;stroke-linejoin:round;stroke-width:0.5px"/><path d="M84.61,334.63s-1.69-4.81,1.1-3.38,2.78,1.12,2.78,1.12L91.4,319.8s4.4,12.93,4.46,14.44,10.61-27.14,10.38-42.34-.07,41.67-.07,41.67l6.45-6.92s1.32,3,2.68,6.9c1.51,4.38,6.09-17.25,6-20.89s2.21,19.7,1.68,22.15,14.18-12.05,17.22-12.16-12.09,11.07-6.88,12.1" style="fill:#fff"/><path d="M84.61,334.63s-1.69-4.81,1.1-3.38,2.78,1.12,2.78,1.12L91.4,319.8s4.4,12.93,4.46,14.44,10.61-27.14,10.38-42.34-.07,41.67-.07,41.67l6.45-6.92s1.32,3,2.68,6.9c1.51,4.38,6.09-17.25,6-20.89s2.21,19.7,1.68,22.15,14.18-12.05,17.22-12.16-12.09,11.07-6.88,12.1" style="fill:none;stroke:#000;stroke-linejoin:round;stroke-width:0.5px"/><path d="M182.16,279.72s-.71-2,.46-1.42,1.17.47,1.17.47l1.22-5.28s1.85,5.43,1.87,6.07,4.46-11.4,4.36-17.79,0,17.51,0,17.51l2.71-2.91s.56,1.26,1.13,2.9c.64,1.84,2.56-7.25,2.5-8.78a77.42,77.42,0,0,1,.71,9.31c-.22,1,6-5.06,7.24-5.11s-5.08,4.65-2.89,5.09" style="fill:#fff"/><path d="M182.16,279.72s-.71-2,.46-1.42,1.17.47,1.17.47l1.22-5.28s1.85,5.43,1.87,6.07,4.46-11.4,4.36-17.79,0,17.51,0,17.51l2.71-2.91s.56,1.26,1.13,2.9c.64,1.84,2.56-7.25,2.5-8.78a77.42,77.42,0,0,1,.71,9.31c-.22,1,6-5.06,7.24-5.11s-5.08,4.65-2.89,5.09" style="fill:none;stroke:#000;stroke-linejoin:round;stroke-width:0.5px"/><path d="M52.27,171.84a1.18,1.18,0,0,1-.35,2.1A28.29,28.29,0,0,0,32.7,209a1.18,1.18,0,0,1-2.27.66,30.66,30.66,0,0,1,20.83-38,1.18,1.18,0,0,1,1,.17" style="fill:#0096cf"/><path d="M56.3,177.82a1.17,1.17,0,0,1,.45.64,1.18,1.18,0,0,1-.8,1.46A23.48,23.48,0,0,0,40,209a1.18,1.18,0,1,1-2.27.66,25.84,25.84,0,0,1,17.56-32,1.18,1.18,0,0,1,1,.17" style="fill:#0096cf"/><path d="M59.79,183.88a1.2,1.2,0,0,1,.46.63,1.11,1.11,0,0,1-.77,1.42,17.64,17.64,0,0,0-12.18,22.4,1.12,1.12,0,0,1-.77,1.42,1.21,1.21,0,0,1-1.46-.81A19.87,19.87,0,0,1,58.79,183.7a1.2,1.2,0,0,1,1,.18" style="fill:#0096cf"/><g style="opacity:0.19999699294567108"><g style="clip-path:url(#clip-path-5)"><path d="M271.12,68.39a55.76,55.76,0,1,0-55.76,55.76,55.77,55.77,0,0,0,55.76-55.76" style="fill:#e7612e"/></g></g><g style="opacity:0.39999398589134216"><g style="clip-path:url(#clip-path-6)"><path d="M264.27,68.39a48.92,48.92,0,1,0-48.92,48.92,48.92,48.92,0,0,0,48.92-48.92" style="fill:#e7612e"/></g></g><g style="opacity:0.6000059843063354"><g style="clip-path:url(#clip-path-7)"><path d="M257.56,68.39a42.21,42.21,0,1,0-42.21,42.21,42.21,42.21,0,0,0,42.21-42.21" style="fill:#e7612e"/></g></g><g style="opacity:0.8000029921531677"><g style="clip-path:url(#clip-path-8)"><path d="M251.32,68.39a36,36,0,1,0-36,36,36,36,0,0,0,36-36" style="fill:#e7612e"/></g></g><g style="opacity:0.19999699294567108"><g style="clip-path:url(#clip-path-9)"><path d="M302.94,168.64a31.83,31.83,0,1,0-31.83,31.83,31.83,31.83,0,0,0,31.83-31.83" style="fill:#e7612e"/></g></g><g style="opacity:0.39999398589134216"><g style="clip-path:url(#clip-path-10)"><path d="M299,168.64a27.92,27.92,0,1,0-27.92,27.92A27.92,27.92,0,0,0,299,168.64" style="fill:#e7612e"/></g></g><g style="opacity:0.6000059843063354"><g style="clip-path:url(#clip-path-11)"><path d="M295.21,168.64a24.09,24.09,0,1,0-24.09,24.09,24.09,24.09,0,0,0,24.09-24.09" style="fill:#e7612e"/></g></g><g style="opacity:0.8000029921531677"><g style="clip-path:url(#clip-path-12)"><path d="M291.65,168.64a20.53,20.53,0,1,0-20.53,20.53,20.53,20.53,0,0,0,20.53-20.53" style="fill:#e7612e"/></g></g><g style="opacity:0.19999699294567108"><g style="clip-path:url(#clip-path-13)"><path d="M182.91,171.3a23.32,23.32,0,1,0-23.32,23.32,23.32,23.32,0,0,0,23.32-23.32" style="fill:#e7612e"/></g></g><g style="opacity:0.39999398589134216"><g style="clip-path:url(#clip-path-14)"><path d="M180,171.3a20.46,20.46,0,1,0-20.46,20.46A20.46,20.46,0,0,0,180,171.3" style="fill:#e7612e"/></g></g><g style="opacity:0.6000059843063354"><g style="clip-path:url(#clip-path-15)"><path d="M177.24,171.3A17.65,17.65,0,1,0,159.59,189a17.65,17.65,0,0,0,17.65-17.65" style="fill:#e7612e"/></g></g><g style="opacity:0.8000029921531677"><g style="clip-path:url(#clip-path-16)"><path d="M174.63,171.3a15,15,0,1,0-15,15,15,15,0,0,0,15-15" style="fill:#e7612e"/></g></g><path d="M216.62,45.87c1.87,0,4.39.36,4.45,2.4a20.69,20.69,0,0,1-.22,2.51c-.53,4.07-2.07,13.87-2.89,21.2H215.3c-.73-6.95-2.22-16.72-2.85-21.07a18.78,18.78,0,0,1-.33-2.67c0-1.89,2.53-2.38,4.5-2.38M216.68,86a4.55,4.55,0,0,1,0-9.1,4.55,4.55,0,0,1,0,9.1" style="fill:#fff"/><path d="M271.46,157.81c1,0,2.42.2,2.45,1.33a11.25,11.25,0,0,1-.12,1.38c-.29,2.24-1.14,7.65-1.59,11.7h-1.47c-.4-3.83-1.22-9.22-1.57-11.62a10.3,10.3,0,0,1-.18-1.47c0-1,1.4-1.31,2.48-1.31m0,22.16a2.51,2.51,0,0,1,0-5,2.51,2.51,0,0,1,0,5" style="fill:#fff"/><path d="M160,163.07c.82,0,1.93.16,2,1.06a9,9,0,0,1-.1,1.1c-.23,1.79-.91,6.09-1.27,9.31h-1.17c-.32-3.05-1-7.34-1.25-9.25a8.28,8.28,0,0,1-.15-1.17c0-.83,1.11-1,2-1m0,17.65a2,2,0,0,1,0-4,2,2,0,0,1,0,4" style="fill:#fff"/></g></g></svg>