<svg id="Layer_1" data-name="Layer 1" xmlns="http://www.w3.org/2000/svg" xmlns:xlink="http://www.w3.org/1999/xlink" width="436.78" height="398.72" viewBox="0 0 436.78 398.72"><defs><clipPath id="clip-path"><rect x="-682.79" y="-3107.39" width="1256.29" height="3501.14" style="fill:none"/></clipPath><clipPath id="clip-path-2"><rect x="-682.79" y="-3107.4" width="1256.29" height="3501.14" style="fill:none"/></clipPath><clipPath id="clip-path-3"><path d="M221.88,187.91a5.06,5.06,0,0,0,.26.48l.14.23c.17,0,.34,0,.5,0l.61,0h.41l.64,0h.39l.48,0,.64,0,.79,0h.19a.06.06,0,0,0,.06,0l.07-.07a.05.05,0,0,0,0,0c0-.13,0-.26,0-.39l0-.08c-3.38-6.75-7.1-21.26-7.27-32.76l-5.52-.77c.14,13.91,3.24,25.32,7.63,33.27" style="fill:none"/></clipPath><clipPath id="clip-path-5"><path d="M207.81,273.06c0,.11.15.3.28.53l.15.25c.18,0,.37,0,.55,0l.67,0h.45l.7,0H211l.53,0,.69,0,.87,0h.21a.07.07,0,0,0,.06,0l.08-.08a.06.06,0,0,0,0,0c0-.14,0-.29,0-.43l0-.08c-3.69-7.37-7.74-23.2-7.93-35.75l-6-.84c.16,15.18,3.54,27.63,8.32,36.31" style="fill:none"/></clipPath><clipPath id="clip-path-7"><rect x="268.52" y="11.45" width="24.17" height="54.32" style="fill:none"/></clipPath><clipPath id="clip-path-8"><rect x="281.32" y="51.42" width="21.73" height="48.83" style="fill:none"/></clipPath><clipPath id="clip-path-9"><rect x="297.21" y="20.18" width="19.34" height="43.46" style="fill:none"/></clipPath><clipPath id="clip-path-10"><rect x="297.12" y="20.18" width="19.43" height="23.49" style="fill:none"/></clipPath></defs><title>collar-mob-image-07</title><g style="clip-path:url(#clip-path)"><g style="clip-path:url(#clip-path-2)"><path d="M211,136.94a13,13,0,0,0-1.19,4.53,52.59,52.59,0,0,0,.59,10.29c.52,2,1.94,5.46,3,6.15-.19.28-3-.37-3.9-1.33.05-.18,2.11,2.88,2.54,3-.16-.05-6.7,2.24-8.71-2.88,0-1.33.17-2.66.2-3.54a21.07,21.07,0,0,0-.7-3.49,8.42,8.42,0,0,1,.51-4.28c.51-1.64-.61-11.44-.61-11.44Z" style="fill:#fff"/><path d="M208.75,160.37c-3.43,0-5-1.81-5.64-3.53l0-.11c0-.81.07-1.61.12-2.32,0-.46.07-.88.08-1.23a8.49,8.49,0,0,0-.37-2c-.11-.44-.23-.91-.33-1.39a8.67,8.67,0,0,1,.51-4.43c.41-1.3-.31-8.61-.62-11.32l-.05-.48,9,3.24-.15.3a12.84,12.84,0,0,0-1.16,4.41,51.84,51.84,0,0,0,.58,10.19c.53,2,1.93,5.36,2.9,6l.26.16-.17.25a.54.54,0,0,1-.42.19,6.94,6.94,0,0,1-2.42-.56,12.41,12.41,0,0,0,1.34,1.63l-.12.3v.26l-.23.05a13.49,13.49,0,0,1-3.14.41m-5.06-3.7c.77,1.91,2.75,3.9,7.79,2.77-.27-.31-.66-.81-1.22-1.56-.23-.31-.51-.68-.68-.89a2.2,2.2,0,0,1-.24-.22l-.11-.12.1-.34.19,0c.15,0,.23,0,.49.31a7.21,7.21,0,0,0,2.74,1.05,19.23,19.23,0,0,1-2.6-5.81,52.76,52.76,0,0,1-.6-10.38,13.19,13.19,0,0,1,1.08-4.34l-7.5-2.69c.22,2,1,9.6.55,11.09a8.16,8.16,0,0,0-.5,4.13c.09.47.21.93.32,1.36a8.76,8.76,0,0,1,.39,2.19c0,.36,0,.79-.08,1.26-.05.68-.11,1.44-.12,2.21"/><path d="M210.7,152.65a5.2,5.2,0,0,1-7.11.55" style="fill:#fff"/><path d="M206.83,154.68a5.65,5.65,0,0,1-3.42-1.24l.36-.48a4.87,4.87,0,0,0,6.71-.51l.44.4a6.06,6.06,0,0,1-4.09,1.83"/><path d="M102.11,81.45c-3.89,6.3-7.65,5.74-11.76,8.9-.57.44.22-1.3,2.46-2.48-3.73,1.12-4.68,2.6-4.68,2.6-1.19,1.29-.31-.2.72-1.63a5.19,5.19,0,0,0-1.56.93A5,5,0,0,1,88.9,88,7.8,7.8,0,0,0,85,92.43c-.64,1.52.54-5.4,5.68-6.17-2,.17-4,.53-5.26,2.13a.11.11,0,0,1-.19-.13,6.3,6.3,0,0,1,3.39-2.7,9.63,9.63,0,0,0-1.44.28c-.21.06-.27-.24-.11-.34,2.53-1.54,5.75-1,9.17-2.3a52.31,52.31,0,0,1-5.54.42c-.24,0-.32-.34-.07-.37,3.16-.42,6.47-.37,8.89-3.28,0,0-.4,1.12.24,1,.4-.09,1.79-1.51,2-1.4s-1.55,2.25-1.54,2.63,1.93-.8,1.88-.73" style="fill:#fff"/><path d="M84.85,92.85H84.8c-.07,0-.18-.07-.18-.3a8.68,8.68,0,0,1,4-5.8,5.14,5.14,0,0,0-3,1.76.31.31,0,0,1-.51-.36A6.38,6.38,0,0,1,87.12,86a.35.35,0,0,1-.33-.21.41.41,0,0,1,.15-.5A12.26,12.26,0,0,1,91.76,84c.66-.09,1.33-.19,2-.32l-1.6.08-1.48.07a.41.41,0,0,1-.43-.37.36.36,0,0,1,.32-.4l1.33-.16c2.78-.31,5.41-.61,7.44-3.05l.1-.12.29.15-.06.2c-.17.59-.07.69-.07.69a.15.15,0,0,0,.08,0,5.11,5.11,0,0,0,.91-.67c.76-.63,1-.82,1.24-.71a.26.26,0,0,1,.14.18c.06.25-.2.64-.86,1.54a11.46,11.46,0,0,0-.66,1,7.37,7.37,0,0,0,1.27-.64c.32-.18.39-.22.5-.11l.11.11-.08.13a15.3,15.3,0,0,1-7.71,6.61,21,21,0,0,0-4.1,2.34.36.36,0,0,1-.36.09.25.25,0,0,1-.13-.22,3.65,3.65,0,0,1,1.41-1.79,6.89,6.89,0,0,0-3.08,2c-.46.5-.67.69-.85.54s-.27-.22.83-1.8a6.19,6.19,0,0,0-.81.57.22.22,0,0,1-.3,0L87,89.8l.09-.14.32-.47a8.54,8.54,0,0,0-2.28,3.32c-.06.14-.14.34-.31.34m5.79-6.79,0,.39a7,7,0,0,0-5.08,4.3,7.34,7.34,0,0,1,3.2-2.91l.19.35a3.58,3.58,0,0,0-.86.73,3.07,3.07,0,0,1,.65-.28l.55-.16L89,89c-.27.37-.49.7-.68,1a10.78,10.78,0,0,1,4.42-2.26l.15.37a6.81,6.81,0,0,0-2.25,1.83,23,23,0,0,1,3.74-2.07A14.89,14.89,0,0,0,101.52,82c-.79.43-1.14.54-1.34.43a.29.29,0,0,1-.15-.25c0-.22.22-.55.79-1.33.21-.3.51-.69.67-1-.19.14-.44.34-.62.5a3.79,3.79,0,0,1-1.08.75.45.45,0,0,1-.45-.11.6.6,0,0,1-.14-.42C97.12,82.71,94.5,83,92,83.29l-1.32.16c.52,0,1-.07,1.52-.09a33.45,33.45,0,0,0,4-.34l.1.38a20.78,20.78,0,0,1-4.48,1,12.38,12.38,0,0,0-4.55,1.23,9.82,9.82,0,0,1,1.31-.24l1.81-.23-1.72.61a6.14,6.14,0,0,0-2.61,1.7,8.51,8.51,0,0,1,4.59-1.39"/><path d="M98.49,81l1,3.79a19.69,19.69,0,0,0,5.74-6.27s0,0,0,0c2.68-4.59,4.08-10.95,4.08-20.06a19.41,19.41,0,0,1,2.2-9,1.82,1.82,0,0,1,.13-.24c4-7.44,11.7-10.79,11.7-10.79l-8.8-4.62s-7.71,14.58-8.2,24.5c-.59,12.07-2.2,17.13-6.88,21.75-.52.52-.33.57-1,1" style="fill:#fff"/><path d="M99.32,85.26l-1.18-4.42.18-.12a1.58,1.58,0,0,0,.55-.49,3.4,3.4,0,0,1,.41-.48c4.63-4.56,6.22-9.6,6.79-21.56.49-9.88,8.16-24.48,8.23-24.63l.14-.26,9.61,5-.57.25c-.08,0-7.67,3.4-11.55,10.65a1.69,1.69,0,0,0-.12.21,19.18,19.18,0,0,0-2.17,8.94c0,8.86-1.35,15.47-4.12,20.21l-.08.12A19.89,19.89,0,0,1,99.67,85Zm-.49-4.15.84,3.17A19.25,19.25,0,0,0,105,78.35l.1-.15c2.68-4.64,4-11.12,4-19.8a19.72,19.72,0,0,1,2.23-9.18,2,2,0,0,1,.13-.25c3.37-6.29,9.45-9.72,11.3-10.65l-8-4.21c-1,2-7.59,15.1-8,24.12-.59,12.13-2.22,17.26-7,21.95a3,3,0,0,0-.34.4,1.9,1.9,0,0,1-.53.52"/><path d="M136,92.42a46.48,46.48,0,0,0-.66,9.14c.23,4.2.95,8,1.75,9.76a47.22,47.22,0,0,0,2.31,4.23s-1.47.39-3.61-1.54l1.68,3s-4,.72-6.16-.75c-.77-.6-2.4-1.55-1.82-5.67a11.88,11.88,0,0,0,.11-4.58,6.42,6.42,0,0,1,.08-3.89c.56-2.4-.08-8.66-.08-8.66" style="fill:#fff"/><path d="M135.18,117.49a7.43,7.43,0,0,1-4.09-1l-.16-.12c-.82-.62-2.36-1.79-1.79-5.84a11.62,11.62,0,0,0,.11-4.5c0-.31-.09-.55-.14-.76a6,6,0,0,1,.22-3.25c.54-2.33-.08-8.5-.09-8.56l.59-.06c0,.26.64,6.34.07,8.76a5.49,5.49,0,0,0-.22,3c0,.22.09.46.14.78a12.22,12.22,0,0,1-.11,4.68c-.52,3.7.78,4.69,1.56,5.28l.15.11c1.61,1.11,4.45.89,5.51.75l-1.44-2.58-.45-.4.64-.08c.07,0,.11,0,.21.1l0,0a5.06,5.06,0,0,0,2.9,1.48,42.92,42.92,0,0,1-2.07-3.83c-.85-1.89-1.55-5.77-1.77-9.87a47.27,47.27,0,0,1,.66-9.21l.59.11a46.34,46.34,0,0,0-.66,9.07c.22,4,.91,7.86,1.72,9.66a47.18,47.18,0,0,0,2.29,4.19l.21.34-.39.1a3.73,3.73,0,0,1-2.73-.73l1,1.76.2.36-.41.07a14.17,14.17,0,0,1-2.3.18"/><path d="M128.62,99.55c1.09.21,1.58-1.45,1.81-3.07a22.05,22.05,0,0,0,.16-2.95l-2.68-2.11a33.67,33.67,0,0,0-.42,3.94c-.08,2,.1,4,1.14,4.2" style="fill:#fff"/><path d="M128.81,99.86l-.24,0h0c-1-.21-1.49-1.68-1.38-4.5a34.17,34.17,0,0,1,.43-4l.09-.49,3.18,2.51v.14a22.15,22.15,0,0,1-.17,3c-.24,1.68-.64,2.7-1.24,3.13a1.15,1.15,0,0,1-.68.22m-.13-.61a.55.55,0,0,0,.46-.1c.31-.22.73-.87,1-2.72a21.89,21.89,0,0,0,.16-2.76L128.12,92a32.8,32.8,0,0,0-.34,3.4c-.1,2.34.23,3.76.9,3.89"/><path d="M132.37,92a31.11,31.11,0,0,0,1.3,4.57c.62,1.56,1.4,2.9,2.31,2.73,1.07-.2,1-1.86.59-3.43a23.18,23.18,0,0,0-.93-2.88Z" style="fill:#fff"/><path d="M135.82,99.63c-1.13,0-1.92-1.65-2.43-2.94a31.06,31.06,0,0,1-1.32-4.62l-.1-.48,3.88,1.18.05.13a23.2,23.2,0,0,1,.94,2.92c.37,1.57.36,2.67,0,3.27a1.16,1.16,0,0,1-.79.52l-.21,0m-3.06-7.19a29.69,29.69,0,0,0,1.18,4c.89,2.24,1.57,2.62,2,2.55a.57.57,0,0,0,.4-.26,4.25,4.25,0,0,0,0-2.81,23,23,0,0,0-.86-2.7Z"/><path d="M136,91.24A33,33,0,0,0,138.43,95c1.11,1.4,2.34,2.55,3.19,2.1,1-.54.26-2.26-.63-3.71a23.53,23.53,0,0,0-1.61-2.21Z" style="fill:#fff"/><path d="M141.21,97.51c-.79,0-1.78-.76-3-2.32a33.64,33.64,0,0,1-2.5-3.82l-.24-.43,4.05-.06.09.11a23.63,23.63,0,0,1,1.63,2.25c1,1.54,1.32,2.65,1.12,3.39a1.2,1.2,0,0,1-1.14.88m-4.74-6a31.68,31.68,0,0,0,2.2,3.3c1.26,1.6,2.27,2.31,2.81,2a.56.56,0,0,0,.3-.37c.15-.55-.22-1.58-1-2.92a23.74,23.74,0,0,0-1.5-2.07Z"/><path d="M140.9,93.74s-8.76,6.75-16.12-.6L123,87.76a4.72,4.72,0,0,1,2.34-5.7l4.55-2.31Z" style="fill:#fff"/><path d="M132.62,96.84a11.1,11.1,0,0,1-8.05-3.5l-.07-.12-1.79-5.37a5,5,0,0,1,2.49-6.06L130,79.38l11.36,14.41-.24.18a15.57,15.57,0,0,1-8.46,2.87M125,93c6.42,6.34,14,1.69,15.44.7L129.8,80.13l-4.33,2.2a4.45,4.45,0,0,0-2.2,5.34Z"/><path d="M237,138.78l-21,10s-1.37-5.11-2.62-6.87-1.86-3.13-6.22-4c-1.63-.3-6.58-1.29-9.85-4.73s-11.09-14.47-11.09-14.47-12.71-2.61-22.16-8.42-20.48-13.6-23.22-16.58-7.55-7-7.55-7-3.11-2-4.72-1.91-15.95-1.7-17-5.56C111.21,76.54,109.7,67,109.7,67a40.68,40.68,0,0,1-1-16.17c1.28-8.77,4.39-22,4.39-22s.23-4,5.14-3.67c1.11-.08,3.17-.49,6.28-3,2.71-1.54,5.35-3.17,7.43-3.1s6.37,3.89,6.37,3.89,8.38,8.68,15,13.39a77.39,77.39,0,0,0,18.91,9.2c5.36,2,20,7.38,29.76,12.65,9.28,5.39,12.72,7.12,14.95,11.1,2.1,3.54,8,24.92,8,24.92Z" style="fill:#fff"/><path d="M215.89,149.19l-.09-.34c0-.05-1.37-5.08-2.58-6.77l-.31-.44c-1.08-1.55-1.85-2.66-5.73-3.4-4.37-.81-7.74-2.43-10-4.82-3.08-3.24-10.28-13.32-11.05-14.41-1.3-.28-13.23-3-22.15-8.44-9.95-6.11-20.61-13.72-23.29-16.63s-7.47-7-7.52-7-3-2-4.51-1.84c-1.29.1-16.15-1.53-17.34-5.78-.4-2.7-1.9-12.16-1.92-12.26a41.29,41.29,0,0,1-1-16.26c1.26-8.69,4.36-21.9,4.39-22A4.38,4.38,0,0,1,114.2,26a5.32,5.32,0,0,1,4-1.12c1.8-.14,3.8-1.11,6.07-3l.76-.44c2.52-1.44,4.9-2.8,6.87-2.73,2.16.07,6.38,3.8,6.56,4s8.45,8.73,15,13.37a77.3,77.3,0,0,0,18.83,9.16l2.11.8c6.64,2.51,19,7.17,27.7,11.87l2.37,1.37c7.52,4.35,10.64,6.15,12.7,9.84,2.1,3.52,7.74,24.12,8,25l12.25,44.83-.22.11Zm-87.1-64.7c1.73,0,4.61,1.88,4.73,2s4.88,4.12,7.6,7.08,13.42,10.55,23.16,16.52c9.31,5.71,21.94,8.36,22.07,8.39l.11,0,.07.1c.08.11,7.85,11.05,11.07,14.44,2.18,2.29,5.44,3.85,9.69,4.64s5,2,6.11,3.65l.31.44c1.09,1.53,2.24,5.43,2.57,6.62l20.41-9.73L224.57,94.27c-.06-.21-5.86-21.39-7.92-24.85s-5.06-5.33-12.48-9.63l-2.36-1.37c-8.66-4.67-21-9.33-27.62-11.83l-2.1-.79a77.84,77.84,0,0,1-19-9.23c-6.59-4.68-15-13.35-15.06-13.43s-4.22-3.73-6.16-3.8-4.12,1.26-6.55,2.65l-.72.41c-2.33,1.91-4.44,2.93-6.4,3.08a4.84,4.84,0,0,0-3.64,1,3.85,3.85,0,0,0-1.22,2.42c0,.18-3.13,13.37-4.39,22a40.69,40.69,0,0,0,1,16c0,.14,1.53,9.6,1.92,12.27,1,3.52,15.09,5.46,16.71,5.31h.18"/><path d="M228.16,140.77c-6.56,1.31-7.25,5.84-7.26,5.89l-4.78-.65c0-.33,1.2-8,11.1-10a28.9,28.9,0,0,1,9.33-.18s.93,3,1.49,4.39" style="fill:#16498e"/><path d="M218.41,146.29l-1.2-.16a12.78,12.78,0,0,1,10.22-9.4,27.5,27.5,0,0,1,9.32-.26l.39,1.22a25.25,25.25,0,0,0-9.58.22,11.84,11.84,0,0,0-9.15,8.38" style="fill:#ef6623"/><path d="M222.59,145.16,221.4,145c0-.18.73-4.44,6.83-5.65s9.28-.54,9.28-.54l.38,1.06a31.82,31.82,0,0,0-9.42.66c-5.24,1-5.85,4.5-5.87,4.65" style="fill:#ef6623"/><polygon points="227.26 188.95 238.48 166.53 231.74 167.71 222.17 188.87 227.26 188.95" style="fill:#1c4075"/><polygon points="227.18 187.55 234.6 171.71 233.42 171.75 226.01 187.59 227.18 187.55" style="fill:#ef6623"/><polygon points="224.82 186.65 232.24 170.81 231.06 170.86 223.65 186.7 224.82 186.65" style="fill:#ef6623"/><path d="M225.65,186.42h0l.39,0,.4.05.37.07a1.75,1.75,0,0,1,.28.07l.39.15.27.13a1.69,1.69,0,0,1,.39.3,2.31,2.31,0,0,1,.2.24,2.44,2.44,0,0,1,.17.28,4,4,0,0,1,.21.47c0,.1.07.2.1.3s.06.27.09.4,0,.18.05.27,0,.13,0,.19l0,.18a.8.8,0,0,1,0,.18v0s0,.06,0,.09a.31.31,0,0,0,0,.11s0,0,0,.07a.07.07,0,0,0,0,0,0,0,0,0,1,0,0,.05.05,0,0,0,0,0,.16.16,0,0,1,0,.07.12.12,0,0,0,0,0,.51.51,0,0,1,0,.14.17.17,0,0,0,0,0s0,.06,0,.09h0a.12.12,0,0,0,0,.07.34.34,0,0,1,0,.12.62.62,0,0,1,0,.06c0,.07,0,.13,0,.2s0,.34,0,.51a.65.65,0,0,0,0,.16.42.42,0,0,1,0,.1c0,.06,0,.12,0,.18s0,.11,0,.17a.87.87,0,0,0,0,.09.4.4,0,0,1,0,.07c0,.11,0,.23-.06.34a3.82,3.82,0,0,1-.12.44c0,.07,0,.15-.08.22s-.07.16-.11.23l-.09.17a1.54,1.54,0,0,1-.09.15l-.09.13-.06.08c-.06.07-.11.14-.18.2l-.08.08-.16.14-.26.18-.13.08-.19.1-.3.13-.21.08-.3.09-.4.09-.36.05-.27,0h-1.83l-.16,0h0l-.11,0-.17,0-.19,0-.08,0-.1,0-.07,0-.19-.06-.18-.06-.11,0-.18-.07-.27-.13-.17-.08-.22-.14-.17-.12-.17-.14-.11-.1-.14-.14-.15-.18-.1-.15-.05-.08-.05-.08-.05-.11a1.61,1.61,0,0,1-.1-.21.18.18,0,0,0,0-.08c0-.07,0-.13-.07-.19a.83.83,0,0,1,0-.11.53.53,0,0,1,0-.11s0,0,0,0,0-.08,0-.12v-.06s0-.09,0-.13a.12.12,0,0,1,0-.06.24.24,0,0,0,0-.08,1.17,1.17,0,0,1,0-.12.75.75,0,0,0,0-.11c0-.07,0-.13,0-.2a.68.68,0,0,1,0-.13c0-.12,0-.24,0-.37s0-.05,0-.08a.21.21,0,0,1,0,0c0-.07,0-.13,0-.2a.13.13,0,0,1,0,0c0-.07,0-.14,0-.2a.56.56,0,0,1,0-.1.45.45,0,0,0,0-.11s0-.09,0-.14,0-.19,0-.28,0-.12,0-.17a.4.4,0,0,1,0-.07.83.83,0,0,0,0-.09c0-.08,0-.16,0-.23s0-.07,0-.1,0-.13,0-.19l0-.18c0-.13.06-.25.1-.38s0,0,0-.05l0-.1a2.15,2.15,0,0,1,.08-.26,5,5,0,0,1,.22-.51,2.63,2.63,0,0,1,.46-.67,1.68,1.68,0,0,1,.55-.39c.15-.07.31-.11.47-.16a2.42,2.42,0,0,1,.44-.09l.48,0,.48,0h1.67l.32,0ZM224,188.1l-.58,0-.58,0-.48,0s0,0,0,0l0,.34a.11.11,0,0,0,0,.1l.06.09,0,0c.17,0,.34,0,.51,0l.6,0h.41l.63,0h.38l.47,0,.62,0,.78,0h.19a.06.06,0,0,0,.05,0l.07-.07a.05.05,0,0,0,0,0c0-.14,0-.29,0-.43s0,0,0,0l-.76,0-.87,0-.57,0h-.16l-.71,0" style="fill:#0099d6"/><path d="M227,188.28l0,.08c0,.13,0,.26,0,.4a.06.06,0,0,1,0,0l-.07.07a.06.06,0,0,1-.06,0h-.19l-.79,0-.64,0-.48,0h-.39l-.64,0h-.41l-.61,0c-.17,0-.34,0-.5,0l-.14-.23a5.18,5.18,0,0,1-.26-.48c-4.38-7.95-7.48-19.36-7.63-33.27l5.52.77c.17,11.5,3.89,26,7.27,32.76" style="fill:#16498e"/><path d="M227,188.17s0,0,0,0v0l0-.08Z" style="fill:#0099d6"/></g><g style="clip-path:url(#clip-path-3)"><path d="M225.78,189.31l1-.53c-5.81-11.51-8.6-25.61-7.45-37.71.94-9.94,2.37-17.16,2.38-17.23l-1.15-.23c0,.07-1.45,7.35-2.4,17.35-1.16,12.32,1.67,26.66,7.57,38.35" style="fill:#ef6623"/><path d="M223.26,189.92l1-.55c-13.79-25.79-5.87-55.28-5.79-55.57l-1.14-.31c-.08.3-8.12,30.23,5.89,56.44" style="fill:#ef6623"/></g><g style="clip-path:url(#clip-path-2)"><path d="M213.18,145.66a72.15,72.15,0,0,0-.36,8.72c.16,2.53,1,3.85,1.46,4.18a5,5,0,0,0,4.71.29c.41-.26.54-.45,1-1.16.58-.92,1.46-5.31,1.61-6.06a30.74,30.74,0,0,0,.53-6c-.31-2.31-1.45-3-5-3.14a3.52,3.52,0,0,0-3.92,3.23m7.1,1-5.63-.7.26-2.06,5.63.7Z" style="fill:#0099d6"/><path d="M194.05,169.48l-1.68-3A5.19,5.19,0,0,0,196,168a19.42,19.42,0,0,1-2.86-5.77s-4.33-2.17-7.06.83a5.71,5.71,0,0,0-.1.72c-.7,6.62,5.82,5.91,8.09,5.69" style="fill:#616161"/><path d="M196,168s-3.32-1.37-4.15-2.8l.54,1.27A5.41,5.41,0,0,0,196,168" style="fill:#424242"/><path d="M194.05,169.48s-7.3-.86-8.09-5.69c-.7,6.62,5.82,5.91,8.09,5.69" style="fill:#424242"/><path d="M240.78,146.07s1.76-4,4.49-5,10.24-.36,10.34.84-4.44,6.16-13.36,5.35Z" style="fill:#fff"/><path d="M244.2,147.65c-.63,0-1.29,0-2-.09h-.09l-1.72-1.39.09-.21c.07-.17,1.84-4.13,4.66-5.16,2.56-.94,8.76-.5,10.29.48a.84.84,0,0,1,.45.62,3.31,3.31,0,0,1-1.23,2.05c-.94.93-4.29,3.71-10.47,3.71m-1.84-.68c7.15.63,10.91-2.48,11.89-3.45.8-.79,1.07-1.38,1-1.59,0,0,0-.08-.19-.18-1.43-.88-7.39-1.27-9.74-.41s-3.83,3.83-4.23,4.64Z"/><path d="M222.61,142.17c-.51.27-1,.44-1.51.68-2.52,1.24-4.54,2.76-5.19,4.6a6.39,6.39,0,0,0-.24.8c-1.79,6.31,1.28,14.64,5.52,20.26a20,20,0,0,1,2.52,4.43c1.55,3.61,1.84,6.78,3.35,8.95a0,0,0,0,0,0,0,5.24,5.24,0,0,0,.67.81,3.25,3.25,0,0,0,2.93.62,45.87,45.87,0,0,0,7.65-2.26,2.64,2.64,0,0,0,1.7-2.8,29,29,0,0,1,.47-9.81c.08-.36.18-.73.28-1.12a43.23,43.23,0,0,1,1.81-5.52,6.09,6.09,0,0,0,2.47-4.1,7.57,7.57,0,0,0-.08-3.66,17.34,17.34,0,0,0-.31-7.44c-.68-2.42-1.92-4.24-3.15-4.81-2.6-1.25-6.2-2.88-8.05-3-3.16-.25-7.88,1.86-10.85,3.39" style="fill:#fff"/><path d="M245.28,154.06a17.47,17.47,0,0,0-.33-7.49c-.68-2.43-1.94-4.19-3.26-4.89l-.29-.18a.73.73,0,0,1-.14.29l-.2.21a3.51,3.51,0,0,0,.38.24,7.44,7.44,0,0,1,2.94,4.49,16.9,16.9,0,0,1,.3,7.31v.07l0,.07a7.26,7.26,0,0,1,.07,3.51,5.83,5.83,0,0,1-2.32,3.9l-.1,0,0,.1a43.7,43.7,0,0,0-1.82,5.55l-.08.31c-.07.28-.14.55-.2.82a29.09,29.09,0,0,0-.48,9.92,2.34,2.34,0,0,1-1.51,2.48,45.16,45.16,0,0,1-7.6,2.24,3,3,0,0,1-2.67-.53,5,5,0,0,1-.63-.77l-.09-.13h0a16.34,16.34,0,0,1-1.75-4.43,38.52,38.52,0,0,0-1.49-4.35,20.24,20.24,0,0,0-2.56-4.49c-4-5.35-7.28-13.6-5.46-20a6.38,6.38,0,0,1,.23-.76c.56-1.58,2.26-3.07,5-4.44.57-.28,1-.49,1.49-.67l-.22-.55c-.48.19-1,.4-1.54.69-2.93,1.44-4.73,3-5.34,4.77a6.67,6.67,0,0,0-.25.82c-1.87,6.59,1.45,15.05,5.56,20.52a19.65,19.65,0,0,1,2.49,4.36,37.92,37.92,0,0,1,1.47,4.29,16.49,16.49,0,0,0,1.86,4.64v.21h.14a5.57,5.57,0,0,0,.61.73,3,3,0,0,0,2.2.79,6.1,6.1,0,0,0,1-.09,45.8,45.8,0,0,0,7.71-2.27,2.93,2.93,0,0,0,1.89-3.11,28.54,28.54,0,0,1,.47-9.71c.06-.26.13-.53.2-.8l.08-.31a43,43,0,0,1,1.76-5.38,6.56,6.56,0,0,0,2.53-4.25,7.92,7.92,0,0,0-.07-3.74"/><path d="M240.12,177.88a16.54,16.54,0,0,1-5.18,2c-2,.39-4.64-.74-6.31,1.24" style="fill:#fff"/><path d="M228.64,181.37a.29.29,0,0,1-.19-.07.3.3,0,0,1,0-.42c1.22-1.44,2.95-1.36,4.47-1.29a8.62,8.62,0,0,0,2-.05,16.42,16.42,0,0,0,5.08-1.91.3.3,0,0,1,.32.5,16.69,16.69,0,0,1-5.28,2,9.14,9.14,0,0,1-2.16.06c-1.52-.07-3-.14-4,1.08a.3.3,0,0,1-.23.1"/><path d="M191.24,149.63c0,.1.59.93,1.09,1.69a7,7,0,0,1,.8-2.85c2-3.14,1.19-4.08,1.19-7.73a46.43,46.43,0,0,1,1.11-6.75c-2.21-.31-3.89,3.25-4,5.66-.11,2.9-1.43,7.32-.21,10" style="fill:#3d3a39"/><path d="M224.6,154.86c.1-.75-.66-1.42-1.69-1.5-2.54-.19-7-.38-8.94.43-2.4,1-4.06,4.39-4.5,5.38a.37.37,0,0,0,.18.48c1.13.72,5.41,2.87,12-.68a5.37,5.37,0,0,0,3-3.9Z" style="fill:#fff"/><path d="M214.58,161.25a9.54,9.54,0,0,1-5.09-1.35.67.67,0,0,1-.29-.85c.46-1,2.17-4.5,4.66-5.54,2-.84,6.55-.64,9.07-.45a2.32,2.32,0,0,1,1.64.78,1.36,1.36,0,0,1,.32,1.06l0,.22a5.67,5.67,0,0,1-3.12,4.12,15,15,0,0,1-7.17,2m4.27-7.76a14.31,14.31,0,0,0-4.76.58c-2.29.95-3.9,4.24-4.34,5.23,0,0,0,0,.07.1,1.12.71,5.27,2.77,11.66-.68a5.08,5.08,0,0,0,2.81-3.68l0-.22a.78.78,0,0,0-.19-.6,1.76,1.76,0,0,0-1.23-.56c-1.09-.08-2.57-.17-4-.17"/><path d="M197.91,124.67s-.8.79-1.6,4.85-1.29,7.21-1.82,9.45.25,5-.05,6.29-1.57,3-1.84,4.53a31.42,31.42,0,0,0,.18,10.29A39.41,39.41,0,0,0,196,168a6.34,6.34,0,0,1-3.61-1.54l1.68,3s-3.25.79-5.54-.43a5,5,0,0,1-2.6-4.09c.09-1.57.39-3.12,0-4.27a6.5,6.5,0,0,1-.33-5,17,17,0,0,0,.6-8.83c-.62-3.72-.5-4.3.52-9,.18-2.47-.85-26.43-.85-26.43" style="fill:#fff"/><path d="M191.71,170a7.16,7.16,0,0,1-3.34-.72,5.41,5.41,0,0,1-2.76-4.34c0-.42.06-.8.09-1.18a7.68,7.68,0,0,0-.08-3l-.13-.37a6.39,6.39,0,0,1-.2-4.85,16.9,16.9,0,0,0,.59-8.68c-.63-3.79-.5-4.4.52-9.13.17-2.39-.85-26.12-.86-26.35l.59,0c0,1,1,24,.85,26.46-1,4.68-1.13,5.27-.52,9a17.49,17.49,0,0,1-.62,9,5.8,5.8,0,0,0,.2,4.44l.14.38a8,8,0,0,1,.11,3.26c0,.37-.07.75-.09,1.12a4.78,4.78,0,0,0,2.47,3.83,8.35,8.35,0,0,0,4.91.46l-2.42-4.33,1.4,1.32a5.83,5.83,0,0,0,2.88,1.38,38.12,38.12,0,0,1-3-7.49,31.28,31.28,0,0,1-.18-10.41,10.44,10.44,0,0,1,1-2.68,9.85,9.85,0,0,0,.79-1.86,8.39,8.39,0,0,0,0-2.23,13.23,13.23,0,0,1,.08-4.06c.31-1.3.61-2.95,1-4.86.25-1.37.53-2.9.86-4.58.8-4,1.59-4.92,1.68-5l.42.42s-.76.86-1.52,4.71c-.33,1.68-.61,3.2-.86,4.57-.35,1.92-.65,3.57-1,4.89a12.71,12.71,0,0,0-.07,3.87,8.61,8.61,0,0,1,0,2.42,10.25,10.25,0,0,1-.84,2,10,10,0,0,0-1,2.52,31.3,31.3,0,0,0,.18,10.17,39.35,39.35,0,0,0,3.18,7.86l.25.47-.53,0a6.84,6.84,0,0,1-2.68-.81l1.22,2.18-.38.09a11.09,11.09,0,0,1-2.41.26"/><path d="M193.34,162s-1.76,3.59-7.43,1" style="fill:#fff"/><path d="M189.59,164.24a9.3,9.3,0,0,1-3.8-.94l.24-.54c5.32,2.4,7-.76,7-.89l.53.26a4.43,4.43,0,0,1-4,2.11"/><path d="M136.5,109.77s.5,1.2-.54,1.67a6.07,6.07,0,0,1-4.14-.12c-1.73-.51-2.38-.73-2.38-.73" style="fill:#fff"/><path d="M134.37,112a9.52,9.52,0,0,1-2.63-.44c-1.72-.5-2.37-.73-2.39-.74l.2-.56s.66.23,2.36.73a5.81,5.81,0,0,0,3.93.13c.74-.34.42-1.19.39-1.28l.55-.23a1.53,1.53,0,0,1-.69,2.05,4.09,4.09,0,0,1-1.72.34"/><path d="M131.44,81.73s-2.05.13-3,3.78a17,17,0,0,1-3.66,7.63,28.62,28.62,0,0,0-3.14,4.07c-1.4,2.25-3.57,5.56-3.67,10.18A40,40,0,0,0,119,119.32a43.09,43.09,0,0,0,2.85,5.77,4,4,0,0,1-3.61-1.54l1.68,3s-5.29,1-7-1.46c-.7-1.1-1.45-2-.77-5.7a26.37,26.37,0,0,0-.27-5c-.05-.86.5-2.36.54-4.32s-.67-7.66-1-11.35.6-2.92,1.1-6.05.42-5.74-.66-11.85-1.88-12.22-1.88-12.22" style="fill:#fff"/><path d="M117.58,127.05c-1.71,0-3.86-.32-4.91-1.79l-.11-.18c-.68-1-1.37-2.13-.71-5.75a20.76,20.76,0,0,0-.18-4.13c0-.33-.08-.6-.09-.82a7,7,0,0,1,.2-1.59,16.07,16.07,0,0,0,.35-2.76c0-1.44-.36-5-.7-8.15-.12-1.12-.24-2.21-.34-3.16a6.13,6.13,0,0,1,.42-3.79,8.42,8.42,0,0,0,.69-2.34c.52-3.25.36-6-.66-11.75-1.07-6-1.88-12.17-1.89-12.23l.59-.08c0,.06.81,6.17,1.88,12.2,1,5.84,1.19,8.63.66,12a9,9,0,0,1-.73,2.49,5.58,5.58,0,0,0-.37,3.49c.1,1,.21,2,.34,3.15.36,3.32.74,6.75.71,8.23a16.59,16.59,0,0,1-.35,2.86,6.87,6.87,0,0,0-.19,1.44c0,.21,0,.47.09.79a21.22,21.22,0,0,1,.18,4.28c-.63,3.42,0,4.36.62,5.35l.11.17c1.34,1.87,5.07,1.56,6.32,1.39L118,123.7l.49-.33a3.73,3.73,0,0,0,2.88,1.46,46.11,46.11,0,0,1-2.63-5.39,40,40,0,0,1-1.08-12c.1-4.54,2.18-7.88,3.56-10.09l.15-.25a29.15,29.15,0,0,1,3.17-4.12,16.72,16.72,0,0,0,3.59-7.5c1-3.81,3.17-4,3.27-4l0,.59c-.08,0-1.86.19-2.73,3.55A17.43,17.43,0,0,1,125,93.32a29,29,0,0,0-3.12,4l-.15.25c-1.43,2.28-3.38,5.41-3.47,9.79a39.46,39.46,0,0,0,1.05,11.85,43.08,43.08,0,0,0,2.82,5.69l.23.37-.43.08a4.08,4.08,0,0,1-2.59-.52l1.07,1.91-.41.08a14.63,14.63,0,0,1-2.42.2"/><path d="M118.91,118.83s-.2,3.76-6.85,1.07" style="fill:#fff"/><path d="M116.09,121.17a11.5,11.5,0,0,1-4.14-1l.22-.55c3.24,1.31,4.82,1,5.57.55a1.85,1.85,0,0,0,.87-1.36l.59,0a2.45,2.45,0,0,1-1.13,1.82,3.62,3.62,0,0,1-2,.5"/><path d="M20.65,210.22c7.13.28,11.52-1.05,15.1-5.68,5.11-4.65,8-14.7,8.37-30.5a61.24,61.24,0,0,1,4-16l7.05-15.26,6.58,6.73L49.65,175.83c-.76.1-1.32,2.91-1.82,6.65.65,4.83-.79,10.68-3.12,17-1.43,5.39-4.54,10.42-9.27,15.1-3.78,4.26-8.82,5.73-15,4.78-.75.11-.86,1.61-1.08,1.84-.55.57-4-2.47-4-6.27C15.26,213.27,16.52,211.69,20.65,210.22Z" style="fill:none;stroke:#000;stroke-miterlimit:10;stroke-width:0.6039999723434448px"/><path d="M227.92,162.53s-.61,2.31.46,3,1.59.2,2.06,1.07a4.54,4.54,0,0,1,.1-1.23,3.09,3.09,0,0,0-.28-2.53,1.53,1.53,0,0,0-2.1-.44,1.29,1.29,0,0,0-.24.15" style="fill:#fff"/><path d="M230.75,167.55l-.48-.88a1,1,0,0,0-.84-.56,3.29,3.29,0,0,1-1.16-.44c-1.17-.73-.57-3.08-.54-3.18v-.06l0,0a1.47,1.47,0,0,1,.27-.17,1.72,1.72,0,0,1,2.34.49,3.2,3.2,0,0,1,.32,2.65l-.19,0,.18,0a4.32,4.32,0,0,0-.09,1.15Zm-2.67-4.91c-.16.65-.36,2.24.39,2.7a3,3,0,0,0,1,.4,1.58,1.58,0,0,1,.74.3c0-.22.06-.45.1-.69v-.06a2.87,2.87,0,0,0-.25-2.36,1.33,1.33,0,0,0-1.86-.39l-.16.09"/><path d="M228.15,162.35a1.88,1.88,0,0,0,.64,2.43,2,2,0,0,0,1.65.07,2.33,2.33,0,0,0-.27-2.13,1.6,1.6,0,0,0-2-.37" style="fill:#fff"/><path d="M229.67,165.17a2,2,0,0,1-1-.24,2.07,2.07,0,0,1-.73-2.66l0-.07.07,0a1.81,1.81,0,0,1,2.25.41,2.49,2.49,0,0,1,.32,2.27l0,.1-.11.06a2.48,2.48,0,0,1-.84.15m-1.37-2.69a1.66,1.66,0,0,0,.58,2.13,1.82,1.82,0,0,0,1.4.1,2,2,0,0,0-.25-1.87,1.4,1.4,0,0,0-1.73-.35"/><path d="M228.58,162.77a.86.86,0,1,0,1.18-.27.85.85,0,0,0-1.18.27"/><path d="M88.36,258.68,86,254.41a7.38,7.38,0,0,0,5.12,2.19A27.54,27.54,0,0,1,87,248.41s-6.31-2.53-10,1.18a8.49,8.49,0,0,0-.14,1c-1,9.39,8.26,8.38,11.47,8.08" style="fill:#fff"/><path d="M85.2,259.17c-2.34,0-5.11-.4-6.89-2.2-1.43-1.45-2-3.6-1.71-6.39a8.24,8.24,0,0,1,.14-1l0-.09.06-.06c3.8-3.8,10.07-1.35,10.34-1.24l.13.05,0,.13a27.29,27.29,0,0,0,4,8.12l.32.47H91.1A7.4,7.4,0,0,1,87,255.6l1.85,3.33-.61.06c-.79.07-1.86.18-3,.18m-7.9-9.43a7.88,7.88,0,0,0-.12.89c-.28,2.62.24,4.6,1.54,5.92,2.38,2.4,6.79,2.1,9.15,1.88l-3.11-5.58,1.42,1.35a7.2,7.2,0,0,0,4.34,2.08,27.28,27.28,0,0,1-3.72-7.63c-.89-.32-6.25-2.06-9.5,1.09"/><path d="M63.58,272.22l-2.38-4.27a7.38,7.38,0,0,0,5.12,2.19,27.55,27.55,0,0,1-4.06-8.19s-6.66-3.32-10,1.18a8.47,8.47,0,0,0-.14,1c-1,9.39,8.26,8.38,11.47,8.08" style="fill:#fff"/><path d="M60.42,272.7c-2.34,0-5.11-.4-6.89-2.2-1.43-1.45-2-3.6-1.71-6.39a8.82,8.82,0,0,1,.14-1l.05-.12c3.47-4.63,10.32-1.3,10.39-1.26l.11.05,0,.12a27.31,27.31,0,0,0,4,8.12l.32.47h-.57a7.41,7.41,0,0,1-4.11-1.3l1.85,3.33-.6.06c-.79.08-1.86.18-3,.18m-7.89-9.45a8,8,0,0,0-.12.91c-.28,2.62.24,4.61,1.54,5.92,2.38,2.4,6.79,2.1,9.15,1.88L60,266.38l1.42,1.35a7.2,7.2,0,0,0,4.34,2.08A27.22,27.22,0,0,1,62,262.16c-.86-.39-6.54-2.77-9.5,1.09"/><path d="M193.46,319.56l-2.38-4.27a7.38,7.38,0,0,0,5.12,2.19,27.54,27.54,0,0,1-4.06-8.19s-6.69-.52-10,1.18a8.28,8.28,0,0,0-.14,1c-1,9.39,8.26,8.38,11.47,8.08" style="fill:#fff"/><path d="M190.3,320c-2.34,0-5.11-.4-6.89-2.21-1.43-1.45-2-3.6-1.71-6.39a8.5,8.5,0,0,1,.14-1l0-.14.13-.07c3.36-1.72,9.9-1.23,10.17-1.21l.2,0,.06.19a27.36,27.36,0,0,0,4,8.12l.33.47h-.57a7.41,7.41,0,0,1-4.12-1.3l1.85,3.33-.61.06c-.79.07-1.86.18-3,.18m-7.91-9.38a7.85,7.85,0,0,0-.11.84c-.28,2.62.24,4.6,1.54,5.92,2.38,2.4,6.79,2.1,9.15,1.88l-3.11-5.58,1.42,1.35a7.2,7.2,0,0,0,4.33,2.08,27.15,27.15,0,0,1-3.7-7.58c-1.1-.06-6.59-.31-9.53,1.09"/><path d="M235,216.93s2.45-8.73,6.32-11,14.53-1,14.67,1.66-6.23,13.48-18.89,11.87Z" style="fill:#fff"/><path d="M239.6,220a20.45,20.45,0,0,1-2.58-.17h-.12L234.62,217l0-.15c.1-.36,2.53-8.87,6.46-11.14,3.19-1.84,10.68-1.4,13.74.26.88.48,1.34,1,1.38,1.65.07,1.29-1.32,4.58-4.51,7.55A17.51,17.51,0,0,1,239.6,220m-2.39-.74a17.09,17.09,0,0,0,14.11-4.48c2.92-2.72,4.39-5.86,4.33-7.09,0-.49-.6-.9-1.07-1.16-2.9-1.57-10.2-2-13.15-.26-3.45,2-5.8,9.49-6.14,10.64Z"/><path d="M241.34,211.74c1.71-1.55,3.56-3.67,9.69-3.33a1.12,1.12,0,0,1,.91,1.68c-1.37,2.18-4.29,6-8.34,6.58a2.83,2.83,0,0,1-2.26-4.93" style="fill:#fff"/><path d="M243.18,217a3,3,0,0,1-2.78-1.78,3.11,3.11,0,0,1,.75-3.69l.33-.31c1.65-1.53,3.71-3.43,9.57-3.1a1.43,1.43,0,0,1,1.2.77,1.36,1.36,0,0,1-.05,1.37c-1.41,2.25-4.39,6.12-8.55,6.71a3.38,3.38,0,0,1-.47,0m-1.64-5a2.53,2.53,0,0,0-.61,3,2.44,2.44,0,0,0,2.63,1.42c3.92-.56,6.77-4.28,8.13-6.44a.77.77,0,0,0,0-.78.84.84,0,0,0-.7-.46c-5.61-.3-7.56,1.5-9.13,2.95Z"/><path d="M77.93,202.65c.48,4.57.24,7.84-.72,9.16-1.87,2.6-1.53,4.18-.81,8.73,2.72,17.14.42,16.48.42,19.62s1.48,4.53.21,9.4c0,0,11.33,4.3,10-1.16-3.08-12.7-1.43-19.75.39-25.08,3.08-9,9.76-10.63,13.23-23.89a113.8,113.8,0,0,0,3-22.15c-2.19-13.66-15.67-19-24.09-17a2.29,2.29,0,0,0-.67.23c-3.74,1.52-6.11,8-6.11,8s0,.23.07.37c.67,3.9,1.43,8.47,2.17,13.18,1.15,7.22,2.24,14.72,2.86,20.58" style="fill:#fff"/><path d="M84.25,251.47a25.57,25.57,0,0,1-7.32-1.62l-.25-.1.07-.26a12.16,12.16,0,0,0,.15-6.41,13.87,13.87,0,0,1-.36-2.91,7.37,7.37,0,0,1,.33-2.08c.51-1.89,1.27-4.75-.75-17.49L76,220.1c-.66-4.14-.93-5.86.94-8.46.89-1.24,1.13-4.5.66-9-.7-6.59-1.94-14.82-2.86-20.57-.65-4.14-1.38-8.57-2.17-13.17,0-.14,0-.25-.07-.36l0-.08,0-.08c.1-.27,2.47-6.6,6.28-8.16a2.42,2.42,0,0,1,.72-.25c4.81-1.17,10.75.05,15.5,3.2a20.24,20.24,0,0,1,8.95,14A114.42,114.42,0,0,1,101,199.52a36.23,36.23,0,0,1-7.83,14.94,28.47,28.47,0,0,0-5.4,9c-2,5.71-3.35,12.67-.38,24.91a2.3,2.3,0,0,1-.53,2.43,3.87,3.87,0,0,1-2.55.7m-6.86-2.08c2.21.8,7.47,2.31,9,.94a1.73,1.73,0,0,0,.34-1.84c-3-12.39-1.59-19.45.4-25.24a29,29,0,0,1,5.5-9.15c2.84-3.56,5.77-7.24,7.72-14.71a114.44,114.44,0,0,0,3-22.09,19.65,19.65,0,0,0-8.68-13.57c-4.61-3.06-10.37-4.26-15-3.12a2,2,0,0,0-.6.2c-3.39,1.38-5.67,7-6,7.75,0,.09,0,.19.05.29.79,4.61,1.52,9,2.17,13.18.92,5.75,2.16,14,2.86,20.6h0c.35,3.3.5,7.6-.77,9.37-1.73,2.4-1.51,3.82-.84,8l.08.49c2,12.87,1.26,15.8.74,17.74a6.81,6.81,0,0,0-.31,1.93,13.12,13.12,0,0,0,.35,2.79,12.57,12.57,0,0,1-.09,6.42"/><path d="M200.53,247.62s-6.72,26-6.72,31.19,1.16,6.52-1.67,10.95,0,19.54,0,19.54-3.08,4.78-10,1.16c.59-3.45-1.33-4.8-1.33-7.68s2.76-2.4,1.81-13c-.45-5-2.6-9.62,0-13.52,2-3-.68-36.26-.68-36.26,8.89-2.54,14.92.35,18.63,7.65" style="fill:#fff"/><path d="M187,312.1a10.75,10.75,0,0,1-5-1.38l-.19-.1,0-.21a7.5,7.5,0,0,0-.6-4.36,8.87,8.87,0,0,1-.73-3.27,4.81,4.81,0,0,1,.68-2.37c.74-1.49,1.76-3.53,1.13-10.62-.12-1.38-.38-2.74-.63-4.06-.66-3.47-1.27-6.74.65-9.66,1.6-2.42,0-26.86-.73-36.07l0-.24.23-.07c8.69-2.49,15.08.14,19,7.8l.05.1,0,.11c-.07.26-6.71,26-6.71,31.11,0,1.3.08,2.35.14,3.29.19,2.76.31,4.43-1.86,7.82-2.74,4.28,0,19.18,0,19.33l0,.12-.06.1A6.66,6.66,0,0,1,187,312.1m-4.5-1.81c6,3,8.9-.44,9.37-1.06-.28-1.56-2.69-15.32.07-19.63,2.06-3.23,2-4.73,1.77-7.46-.07-.94-.14-2-.14-3.33,0-5,6.17-29.07,6.7-31.15-3.78-7.33-9.67-9.77-18-7.46.26,3.27,2.58,33.22.61,36.2-1.79,2.72-1.19,5.87-.56,9.22.25,1.33.51,2.71.64,4.11.65,7.26-.41,9.39-1.19,10.94a4.22,4.22,0,0,0-.62,2.1,8.25,8.25,0,0,0,.7,3.06,8.18,8.18,0,0,1,.67,4.46"/><path d="M75.87,233.91c1.55.3,2.24-2.05,2.56-4.36a31.25,31.25,0,0,0,.23-4.18l-3.81-3a47.75,47.75,0,0,0-.6,5.59c-.11,2.79.14,5.65,1.62,6" style="fill:#fff"/><path d="M76.14,234.23a1.76,1.76,0,0,1-.32,0h0c-1.39-.28-2-2.39-1.85-6.26a48.65,48.65,0,0,1,.6-5.62l.09-.49L79,225.22v.14a31.55,31.55,0,0,1-.23,4.22c-.33,2.35-.89,3.77-1.7,4.35a1.51,1.51,0,0,1-.89.29m-.21-.62a.91.91,0,0,0,.75-.16c.46-.33,1.08-1.28,1.46-3.95a31.11,31.11,0,0,0,.23-4l-3.3-2.6a47.4,47.4,0,0,0-.52,5.05c-.14,3.43.35,5.44,1.38,5.65"/><path d="M81.18,223.22A44.16,44.16,0,0,0,83,229.7c.88,2.22,2,4.11,3.28,3.88,1.52-.28,1.36-2.63.83-4.87a32.89,32.89,0,0,0-1.32-4.08Z" style="fill:#fff"/><path d="M86.09,233.9c-1.16,0-2.25-1.34-3.33-4.08a45,45,0,0,1-1.86-6.54l-.09-.49L86,224.39l.05.13a33.61,33.61,0,0,1,1.33,4.13c.52,2.19.51,3.72,0,4.54a1.52,1.52,0,0,1-1,.69l-.27,0m-4.51-10.25a42.84,42.84,0,0,0,1.73,5.95c1,2.58,2,3.86,2.95,3.69a.94.94,0,0,0,.65-.43c.44-.67.42-2.08-.05-4.08a32.49,32.49,0,0,0-1.25-3.91Z"/><path d="M87.8,221.47a46.7,46.7,0,0,0,3.51,5.35c1.57,2,3.32,3.62,4.52,3,1.45-.76.37-3.21-.9-5.26a33.11,33.11,0,0,0-2.28-3.14Z" style="fill:#fff"/><path d="M95.25,230.24c-1.08,0-2.46-1.07-4.17-3.24a47.46,47.46,0,0,1-3.53-5.39l-.24-.43,5.48-.08.09.11a33.88,33.88,0,0,1,2.31,3.17c1.32,2.13,1.84,3.71,1.57,4.71a1.57,1.57,0,0,1-1.51,1.15m-6.94-8.49a45.71,45.71,0,0,0,3.23,4.88c1.84,2.32,3.31,3.35,4.15,2.9a.92.92,0,0,0,.49-.6c.16-.57,0-1.77-1.5-4.24a33.54,33.54,0,0,0-2.17-3Z"/><path d="M168.67,333.1l-2.38-4.27a7.38,7.38,0,0,0,5.12,2.19,27.55,27.55,0,0,1-4.06-8.19s-6.14-3.08-10,1.18a8.47,8.47,0,0,0-.14,1c-1,9.39,8.26,8.38,11.47,8.08" style="fill:#fff"/><path d="M165.51,333.58c-2.34,0-5.11-.4-6.89-2.2-1.43-1.45-2-3.6-1.71-6.39a8.12,8.12,0,0,1,.14-1l0-.08.05-.06c4-4.37,10.3-1.27,10.37-1.24l.11.06,0,.12a27.32,27.32,0,0,0,4,8.12l.33.47h-.57a7.41,7.41,0,0,1-4.12-1.3l1.85,3.33-.6.06c-.79.07-1.86.17-3,.17m-7.89-9.44a7.81,7.81,0,0,0-.12.9c-.28,2.62.24,4.61,1.54,5.92,2.38,2.4,6.79,2.1,9.15,1.88l-3.11-5.58,1.42,1.35a7.2,7.2,0,0,0,4.33,2.08,27.24,27.24,0,0,1-3.72-7.65c-.82-.37-6.09-2.55-9.5,1.1"/><path d="M65.07,215.81c2.28,5.61,5,9.21,7.91,11.33,2.63-3.32,5.69-10.66,18.13-3.43,4.35,2.53-8.87-20.75-8.43-24.86-11.84-2.7-23.88,1.52-17.61,17" style="fill:#fff"/><path d="M73,227.54l-.23-.17c-3.16-2.31-5.86-6.16-8-11.46-2.45-6-2.3-10.89.42-14.09,3.19-3.76,9.91-5,17.53-3.27l.26.06,0,.26c-.19,1.8,2.55,7.88,5,13.24C91.43,219.84,92.87,223.3,92,224c-.25.22-.61.19-1.09-.08-10.84-6.3-14.31-1.43-16.84,2.13-.31.44-.61.86-.9,1.23Zm-7.7-11.85c2.06,5.06,4.61,8.77,7.58,11,.23-.3.46-.63.71-1,2.52-3.53,6.32-8.88,17.62-2.3.3.17.4.15.4.15.53-.62-2.24-6.75-4.26-11.24-2.46-5.46-5-11.09-5-13.28-7.3-1.61-13.68-.42-16.7,3.13-2.57,3-2.68,7.68-.32,13.48"/><path d="M48.06,182.07v.09l.07.28a20.44,20.44,0,0,0,.53,2.12c2.72,9.21,6,15.18,9.6,19.2.21.25.44.49.65.72a25,25,0,0,0,3.42,3c4.66,3.41,9.44,4.43,13.57,5.51,3.16.85,6,1.73,8,3.81,7.43,7.43,37.17,36.57,73.24,44.21l.53.12c1.24.25,2.52.48,3.76.69a14.19,14.19,0,0,0,.67,1.34A27.24,27.24,0,0,0,172,273.38a6.77,6.77,0,0,0,.69.37v0h0l0,0a21.57,21.57,0,0,0,10.11,2.42c5.79,0,9.48-3.07,13-7s7.06-9,12.37-12.3c0,0,.09-.07.14-.07a22.21,22.21,0,0,1,3.12-1.62.37.37,0,0,0,.14-.07,0,0,0,0,1,0,0v0a22.59,22.59,0,0,1,4.22-1.32c.6-.14,1.2-.25,1.85-.35s1.2-.16,1.82-.21a13.73,13.73,0,0,0,5-1.34c5.54-2.63,8.79-8.72,10.73-15.46a20.89,20.89,0,0,0,.62-3c1.78-11-2.61-24.92-3.07-26.35a1,1,0,0,0,0-.12,66.88,66.88,0,0,1-24.23-9.46,33.69,33.69,0,0,1-5-3.95,15.67,15.67,0,0,1-2.91-3.6,21.8,21.8,0,0,0-6.11-6.16c-8.75-6.53-24.6-13.78-40.52-20.24l-.55-.23L147,160.84c-6.3-2.47-12.44-4.75-18-6.81-1.34-.48-2.63-1-3.9-1.59a85.25,85.25,0,0,1-20.38-13c-4.5-3.76-8.35-7.55-11.65-10.8-5.08-5-8.79-8.68-11.4-8.86-3.18-.23-7,1.66-10.57,3.74-4,2.35-7.5,5-9.14,5-3,0-6.72-.88-8.49,6.55-.25,1-.6,2.35-1,4-.88,3.46-2,8.17-3,13.43-.35,1.85-.67,3.76-1,5.7-1.25,8.15-1.82,16.89-.37,24" style="fill:#fff"/><path d="M51.64,176a21.44,21.44,0,0,0-3.58,6.1c0,.12,0,.23.07.37.67,3.9,1.43,8.47,2.17,13.18,1.15,7.22,2.24,14.72,2.86,20.58.48,4.57.23,7.84-.72,9.16-1.87,2.61-1.52,4.18-.81,8.72,2.72,17.15.42,16.5.42,19.64s1.5,4.52.21,9.39c0,0,11.33,4.29,10-1.15-3.09-12.69-1.43-19.75.39-25.08,3.07-9,9.76-10.61,13.22-23.88a113.87,113.87,0,0,0,3-22.15,20.92,20.92,0,0,0-2-6.18,19.68,19.68,0,0,0-4.78-6.09" style="fill:#fff"/><path d="M59.48,265a25.6,25.6,0,0,1-7.32-1.62l-.25-.1L52,263a12,12,0,0,0,.15-6.41,13.61,13.61,0,0,1-.37-2.91,7.34,7.34,0,0,1,.34-2.08c.51-1.9,1.28-4.77-.75-17.51l-.09-.54c-.65-4.1-.92-5.8.95-8.4.89-1.24,1.13-4.5.66-9-.7-6.58-1.94-14.82-2.86-20.57-.65-4.13-1.38-8.56-2.17-13.17,0-.13,0-.25-.07-.36l0-.08,0-.08a21.52,21.52,0,0,1,3.64-6.19l.44.4a21.07,21.07,0,0,0-3.49,5.92c0,.09,0,.19.05.3.79,4.61,1.52,9.05,2.17,13.18.92,5.75,2.16,14,2.86,20.6.49,4.66.22,8-.77,9.37-1.72,2.4-1.5,3.8-.84,8l.09.54c2,12.87,1.26,15.81.73,17.75a6.75,6.75,0,0,0-.32,1.93,13,13,0,0,0,.36,2.79,12.43,12.43,0,0,1-.09,6.42c2.21.8,7.47,2.31,9,.94A1.73,1.73,0,0,0,62,262c-3-12.36-1.59-19.44.4-25.25,1.34-3.93,3.36-6.47,5.5-9.15,2.84-3.56,5.77-7.24,7.72-14.72a114.34,114.34,0,0,0,3-22.09,20.82,20.82,0,0,0-2-6,19.39,19.39,0,0,0-4.71-6l.39-.45a19.94,19.94,0,0,1,4.86,6.18,21.32,21.32,0,0,1,2,6.27,114.4,114.4,0,0,1-3.05,22.28A36.1,36.1,0,0,1,68.35,228a28.32,28.32,0,0,0-5.4,9c-2,5.73-3.36,12.71-.39,24.92a2.3,2.3,0,0,1-.53,2.42,3.88,3.88,0,0,1-2.55.7"/><path d="M71.07,123.48c-4,2.35-7.5,5-9.14,5-3,0-6.72-.88-8.49,6.55-.25,1-.6,2.35-1,4-.88,3.46-2,8.17-3,13.43-.35,1.85-.67,3.76-1,5.7-1.25,8.15-1.82,16.89-.37,24v.09l.07.28c.67,3.9,1.43,8.47,2.17,13.18,1.15,7.22,2.24,14.72,2.86,20.58a34.14,34.14,0,0,1,.21,5.12" style="fill:#fff"/><path d="M53.66,221.33l-.59,0a33.79,33.79,0,0,0-.21-5.08c-.7-6.59-1.94-14.82-2.86-20.57-.65-4.13-1.38-8.56-2.17-13.17l-.07-.42c-1.26-6.09-1.13-14.19.37-24,.31-2,.64-3.94,1-5.71,1-5.24,2.16-9.94,3.05-13.45.39-1.61.74-3,1-4,1.66-7,5-6.88,7.91-6.79l.87,0c1.11,0,3.31-1.39,5.87-3,1-.62,2-1.28,3.12-1.92l.3.51c-1.08.64-2.12,1.3-3.11,1.92-2.74,1.73-4.9,3.09-6.18,3.09l-.89,0c-2.83-.08-5.76-.16-7.32,6.34-.26,1-.6,2.36-1,4-.89,3.51-2,8.2-3,13.42-.33,1.76-.66,3.68-1,5.69-1.49,9.76-1.62,17.79-.37,23.87l0,.17,0,.18c.8,4.64,1.53,9.08,2.17,13.2.92,5.75,2.16,14,2.86,20.6a34.32,34.32,0,0,1,.21,5.17"/><path d="M157.11,253.5s.25,3.16.55,7.62c.67,10,1.52,26.56.14,28.66-2.58,3.9-.41,8.52,0,13.52.95,10.61-1.8,10.13-1.8,13s1.85,4.18,1.34,7.52c0,0,0,.11,0,.16a6.1,6.1,0,0,0,.81.35,7,7,0,0,0,.95.42,7.61,7.61,0,0,0,5.74,0s0,0,0,0a5.92,5.92,0,0,0,2.47-2s-2.84-15.09,0-19.52,1.68-5.79,1.68-11c0-2.7,1.85-11.15,3.6-18.57v0c1.59-6.69,3.12-12.58,3.12-12.58" style="fill:#fff"/><path d="M162.19,325.64a9.48,9.48,0,0,1-3.2-.6,7.35,7.35,0,0,1-1-.43l-.22-.08a3.86,3.86,0,0,1-.6-.27l-.15-.09V324a.75.75,0,0,1,0-.14,7.68,7.68,0,0,0-.61-4.29,8.92,8.92,0,0,1-.72-3.26,4.83,4.83,0,0,1,.68-2.37c.74-1.49,1.76-3.53,1.12-10.62-.12-1.39-.38-2.76-.63-4.09-.65-3.45-1.27-6.72.66-9.62,1-1.5.92-11.88-.19-28.48-.3-4.45-.55-7.61-.55-7.61l.59,0s.25,3.16.55,7.62c.8,12,1.47,26.75.09,28.84-1.79,2.7-1.2,5.85-.57,9.18a41.85,41.85,0,0,1,.64,4.15c.65,7.26-.41,9.38-1.18,10.93a4.26,4.26,0,0,0-.62,2.11,8.3,8.3,0,0,0,.69,3.05,8.25,8.25,0,0,1,.65,4.47l.33.14.27.1a6.77,6.77,0,0,0,.93.41,7.39,7.39,0,0,0,5.5.07l0,0h.07a5.8,5.8,0,0,0,2.23-1.74c-.29-1.56-2.7-15.3.07-19.61,2.07-3.25,2-4.75,1.78-7.49-.06-.94-.14-2-.14-3.31,0-2.23,1.21-8.5,3.61-18.64,1.58-6.64,3.1-12.55,3.12-12.61l.58.15c0,.06-1.54,6-3.11,12.57-2.35,10-3.59,16.38-3.59,18.53,0,1.29.07,2.34.14,3.27.19,2.77.31,4.44-1.87,7.85-2.74,4.28,0,19.16,0,19.31l0,.11-.06.1A6.17,6.17,0,0,1,165,325l0,0h-.07a7,7,0,0,1-2.73.54"/><path d="M207.72,243.91a18.45,18.45,0,0,0,3.88,11.24v0a21,21,0,0,0,13.59,8.08A33.75,33.75,0,0,1,237.88,268s0,0,0,0a43.78,43.78,0,0,1,5.61,4c2,1.66,12.16-9.35,14.54-16.48a58,58,0,0,1-6.16-10.13c-.69-1.48-1.32-3-2.08-4.71-3.32-7.43-4.61-13.38-7.18-19.87-.25-.65-.53-1.32-.83-2a63.27,63.27,0,0,0-4-7.85c-1.5-2.49-3.23-3.69-5.08-3.95-9.37-1.25-22.11,22.41-24.58,33.55a14.22,14.22,0,0,0-.44,3.23" style="fill:#fff"/><path d="M244,272.55a1.06,1.06,0,0,1-.71-.24,43.81,43.81,0,0,0-5.54-4h0l-.08,0a33,33,0,0,0-12.58-4.74,21.33,21.33,0,0,1-13.79-8.19l-.06-.1a18.71,18.71,0,0,1-3.88-11.34,14.53,14.53,0,0,1,.45-3.3c2.38-10.74,15.13-35.07,24.9-33.78,2,.28,3.83,1.66,5.29,4.09a64.15,64.15,0,0,1,4,7.88c.27.61.56,1.29.83,2,1.06,2.69,1.89,5.24,2.77,7.94a113.76,113.76,0,0,0,4.4,11.91l.48,1.1c.57,1.31,1.06,2.45,1.6,3.6a57.65,57.65,0,0,0,6.13,10.08l.09.12,0,.14C256.26,262,248,271.5,244.6,272.47a2,2,0,0,1-.55.08m-5.85-4.69a44.31,44.31,0,0,1,5.53,4,.79.79,0,0,0,.71,0c2.93-.83,11.09-9.84,13.3-16.24a57.74,57.74,0,0,1-6.1-10.06c-.54-1.16-1-2.3-1.6-3.62l-.48-1.1a114.12,114.12,0,0,1-4.42-12c-.87-2.69-1.7-5.23-2.76-7.91-.28-.7-.55-1.36-.83-2a63.49,63.49,0,0,0-4-7.82c-1.36-2.27-3-3.55-4.86-3.8-8.79-1.14-21.66,21.63-24.24,33.32a14,14,0,0,0-.43,3.17A18.13,18.13,0,0,0,211.83,255l.06.1A20.73,20.73,0,0,0,225.23,263,33.56,33.56,0,0,1,238,267.73h.21Z"/><path d="M195.79,269.23c3.62-4,7.06-9,12.37-12.3,0,0,.09-.07.14-.07a22,22,0,0,1,3.11-1.61.36.36,0,0,0,.14-.07,0,0,0,0,1,0,0,21,21,0,0,0,13.59,8.08A33.76,33.76,0,0,1,237.88,268s0,0,0,0a43.88,43.88,0,0,1,5.61,4c2,1.66,12.16-9.34,14.54-16.48a58,58,0,0,1-6.16-10.13c-.69-1.48-1.32-3-2.08-4.71A107,107,0,0,1,246,230.6c.35,1.85,1.91,11.88-2.24,9.76-2.28-1.15-3.9-2.84-6-4.18-1.27-.81-2.47-.67-3.85-1.15-2.58-.85-4-3.23-6.44-4.15-2.24-.88-3.62-1.48-3.09-4,.35-1.71.62-4.15,1.52-5.65,1.41-2.35,3.39-2.91,6-3,1.91-.09,2.19-.65,3.6-1.94a9.61,9.61,0,0,1,3-1.75c.3-.12.62-.21.92-.32,0,0,.12,0,.16,0-.51-1-1.08-2-1.71-3-1.5-2.49-3.23-3.69-5.08-3.95a.87.87,0,0,0,0-.12,66.89,66.89,0,0,1-24.23-9.46,33.68,33.68,0,0,1-5-3.95,15.68,15.68,0,0,1-2.91-3.6,21.78,21.78,0,0,0-6.11-6.16c-.18,0-.39.07-.6.12" style="fill:#fff"/><path d="M244,272.55a1.06,1.06,0,0,1-.71-.24,43.8,43.8,0,0,0-5.54-4h0l-.08,0a33,33,0,0,0-12.58-4.74,21.32,21.32,0,0,1-13.65-8,21.69,21.69,0,0,0-3,1.58l-.16.08c-4,2.53-7,6-9.82,9.38-.84,1-1.64,1.94-2.46,2.85l-.44-.4c.82-.91,1.61-1.85,2.45-2.84,2.87-3.4,5.84-6.92,10-9.51a.79.79,0,0,1,.18-.1A22.28,22.28,0,0,1,211.3,255l.07,0a.32.32,0,0,1,.44,0,20.77,20.77,0,0,0,13.42,8A33.57,33.57,0,0,1,238,267.73h.21l0,.14a44.3,44.3,0,0,1,5.53,4,.79.79,0,0,0,.71,0c2.93-.83,11.09-9.84,13.3-16.24a57.78,57.78,0,0,1-6.1-10.05c-.54-1.16-1-2.3-1.6-3.62l-.48-1.1c-1.15-2.57-2.07-5-2.85-7.23.26,2.6.3,6-1,7a1.88,1.88,0,0,1-2.08,0,22.31,22.31,0,0,1-3.61-2.43c-.77-.6-1.57-1.21-2.43-1.76a5.76,5.76,0,0,0-2.21-.74,10.32,10.32,0,0,1-1.58-.39,11,11,0,0,1-3.52-2.22,10.76,10.76,0,0,0-2.93-1.94c-2.16-.85-3.87-1.52-3.28-4.38.07-.34.14-.72.21-1.11A14.51,14.51,0,0,1,225.6,221c1.47-2.46,3.54-3,6.2-3.17a3.5,3.5,0,0,0,2.87-1.35l.55-.51a9.84,9.84,0,0,1,3.12-1.81l.47-.16.29-.1c-.5-.95-1.05-1.89-1.54-2.7-1.36-2.27-3-3.55-4.86-3.8l-.18,0,0-.12a67.89,67.89,0,0,1-24.18-9.48,33.94,33.94,0,0,1-5.07-4,15.91,15.91,0,0,1-3-3.67,21.25,21.25,0,0,0-5.93-6l-.46.09-.13-.58c.22,0,.44-.1.63-.12h.12l.09.07c3.05,2.25,5.14,4.36,6.2,6.26a15.32,15.32,0,0,0,2.85,3.53,33.34,33.34,0,0,0,5,3.91,67.1,67.1,0,0,0,24.11,9.42l.15,0,.06.12c2,.33,3.7,1.7,5.12,4.06.54.9,1.17,2,1.72,3l.14.27-.27.13a.56.56,0,0,1-.16,0l-.51.18-.45.16a9.24,9.24,0,0,0-2.93,1.7l-.54.5a4.07,4.07,0,0,1-3.25,1.51c-2.53.11-4.37.63-5.71,2.88a14.11,14.11,0,0,0-1.28,4.44c-.07.39-.14.77-.21,1.12-.47,2.27.61,2.8,2.91,3.7a11.41,11.41,0,0,1,3.09,2,10.48,10.48,0,0,0,3.33,2.11,9.84,9.84,0,0,0,1.5.36,6.33,6.33,0,0,1,2.42.82c.89.56,1.7,1.18,2.48,1.79a21.52,21.52,0,0,0,3.52,2.37c.63.32,1.1.35,1.46.08,1.38-1,1-6.26.36-9.52l.58-.15a107.43,107.43,0,0,0,3.84,10.15l.48,1.1c.57,1.31,1.06,2.44,1.6,3.6a57.69,57.69,0,0,0,6.13,10.08l.09.12,0,.14C256.26,262,248,271.5,244.6,272.47a2,2,0,0,1-.55.08"/><path d="M224.08,239.59s1,3.27,2.81,3.27,2.08-1,3.32-.25a6.51,6.51,0,0,1-.81-1.57c-.46-1.11-1-2.38-2.25-2.86a2.18,2.18,0,0,0-2.89,1.06,1.83,1.83,0,0,0-.18.35" style="fill:#fff"/><path d="M231.44,243.65l-1.38-.79a1.37,1.37,0,0,0-1.42,0,4.77,4.77,0,0,1-1.75.34c-2,0-3-3.33-3.09-3.48l0-.09,0-.09a2.09,2.09,0,0,1,.21-.42,2.48,2.48,0,0,1,3.24-1.18c1.4.52,1.93,1.83,2.41,3l-.24.19.27-.11a6.19,6.19,0,0,0,.75,1.45Zm-7-4c.3.91,1.25,3,2.49,3a4.17,4.17,0,0,0,1.55-.3,2.37,2.37,0,0,1,1.08-.21c-.13-.27-.26-.56-.38-.86l0-.08c-.45-1.1-.91-2.23-2.07-2.66a1.88,1.88,0,0,0-2.52.92,1.92,1.92,0,0,0-.12.23"/><path d="M224.26,239.24c.4,1.72,1.59,3,3,3A2.7,2.7,0,0,0,229.4,241c-.46-1.11-1-2.38-2.25-2.86a2.18,2.18,0,0,0-2.89,1.06" style="fill:#fff"/><path d="M227.25,242.52c-1.51,0-2.82-1.29-3.28-3.22l0-.11.05-.1a2.49,2.49,0,0,1,3.25-1.2c1.4.52,1.93,1.83,2.41,3l.06.15-.08.17a3,3,0,0,1-2.39,1.31m-2.67-3.24c.4,1.56,1.49,2.65,2.67,2.65a2.35,2.35,0,0,0,1.81-.94,3.93,3.93,0,0,0-2-2.54,1.86,1.86,0,0,0-2.46.83"/><path d="M225.37,239.46a.65.65,0,1,0,.65-.65.65.65,0,0,0-.65.65" style="fill:#fff"/><path d="M226,240.4a.95.95,0,1,1,.95-.95.95.95,0,0,1-.95.95m0-1.3a.35.35,0,1,0,.35.35.35.35,0,0,0-.35-.35"/><path d="M76,212.65l-.12.34c3.16.85,6,1.73,8,3.81,7.43,7.43,37.17,36.57,73.24,44.21" style="fill:#fff"/><path d="M157.08,261.3C125,254.5,97.31,230.63,83.69,217c-2-2-4.75-2.89-7.87-3.73l-.31-.08.11-.3.11-.33.57.18v0c3.08.84,5.8,1.74,7.83,3.8,13.57,13.57,41.12,37.36,73.09,44.13Z"/><path d="M211.59,255.15a.07.07,0,0,0,0,0,0,0,0,0,1,0,0Z" style="fill:#fff"/><polygon points="211.89 255.87 211.39 255.39 211.57 255.2 211.55 255.17 211.3 255.17 211.53 255.15 211.34 254.96 211.55 254.76 211.67 254.85 211.89 254.85 211.89 255.87"/><path d="M175.76,261.17l-3.12,12.58,0,0,0,0a21.57,21.57,0,0,0,10.11,2.42c11.77,0,14.91-12.76,25.36-19.29" style="fill:#fff"/><path d="M182.8,276.51a22,22,0,0,1-10.25-2.45l-.07-.05-.12-.12v-.21l3.11-12.58.58.14L173,273.61a21.28,21.28,0,0,0,9.81,2.31c7,0,10.81-4.52,15.22-9.75,2.86-3.39,5.83-6.91,10-9.5l.32.5c-4.07,2.54-7,6-9.84,9.38-4.32,5.12-8.4,10-15.68,10"/><path d="M200.13,220.61a14,14,0,0,1-5.37-1.41c-5.06-2.2-6.24-3.85-7.72-5.94a27,27,0,0,0-6.32-6.52,24.31,24.31,0,0,1-6.58-7.66c-1.78-3-3.18-5.3-8.86-7-8.3-2.55-8.41-6.77-8.53-11.65,0-1.21-.06-2.45-.21-3.74a16.48,16.48,0,0,1,2.38-11.08l.47.34a16.21,16.21,0,0,0-2.28,10.67c.15,1.32.19,2.58.22,3.8.12,4.85.22,8.67,8.12,11.1,5.89,1.81,7.42,4.36,9.19,7.3a23.81,23.81,0,0,0,6.44,7.5,27.47,27.47,0,0,1,6.44,6.65c1.49,2.09,2.56,3.61,7.48,5.74,3.16,1.37,5.36,1.7,6.94,1,2.2-.94,3.27-3.82,4.75-7.81.23-.63.48-1.29.74-2,3-7.91,1.2-11.77,1.18-11.8l.52-.26c.08.16,2,4.09-1.15,12.27-.26.68-.5,1.34-.74,2-1.53,4.13-2.63,7.11-5.06,8.15a5.11,5.11,0,0,1-2,.38"/><path d="M175,223.35a.79.79,0,0,1-.48-.49,17.79,17.79,0,0,1,11.25-22.48.79.79,0,0,1,.5,1.5A16.21,16.21,0,0,0,176,222.36a.79.79,0,0,1-.5,1,.78.78,0,0,1-.52,0" style="fill:#0096cf"/><path d="M179.37,224.05a.79.79,0,0,1-.48-.49,15,15,0,0,1,9.49-19,.79.79,0,1,1,.5,1.5,13.41,13.41,0,0,0-8.49,17,.79.79,0,0,1-1,1" style="fill:#0096cf"/><path d="M184.08,224.59a.8.8,0,0,1-.48-.49,12.23,12.23,0,0,1,7.74-15.46.79.79,0,0,1,.5,1.5,10.65,10.65,0,0,0-6.73,13.46.79.79,0,0,1-1,1" style="fill:#0096cf"/><path d="M198.24,141.46a.79.79,0,0,1-.48-.49A17.79,17.79,0,0,1,209,118.49a.79.79,0,0,1,.5,1.5,16.21,16.21,0,0,0-10.25,20.47.79.79,0,0,1-1,1" style="fill:#0096cf"/><path d="M202.65,142.16a.79.79,0,0,1-.48-.49,15,15,0,0,1,9.49-19,.79.79,0,0,1,.5,1.5,13.41,13.41,0,0,0-8.49,17,.79.79,0,0,1-1,1" style="fill:#0096cf"/><path d="M207.36,142.71a.79.79,0,0,1-.48-.49,12.23,12.23,0,0,1,7.74-15.46.79.79,0,1,1,.5,1.5,10.65,10.65,0,0,0-6.73,13.46.79.79,0,0,1-1,1" style="fill:#0096cf"/><path d="M207.65,228.43l-8.11-1a114.47,114.47,0,0,1,5.34-15.34c3.84-8.06,9.34-10.87,10.38-11.22l8.4,3.39c-1.84.64-8.78,3.11-12.17,10.56-1.82,4-3.12,10.8-3.83,13.58" style="fill:#16498e"/><path d="M202.56,227.71l-1.51-.18a116.13,116.13,0,0,1,5.41-15.47c3.69-7.75,8.71-9.89,10.47-10.49l1.62.65a20.43,20.43,0,0,0-10.77,10.46,111.2,111.2,0,0,0-5.22,15" style="fill:#ef6623"/><path d="M206.09,228.22l-1.72-.23.7-2.73A77.07,77.07,0,0,1,209,213.65,18.93,18.93,0,0,1,220.53,203l1.57.64a20.89,20.89,0,0,0-11.77,10.59,75.6,75.6,0,0,0-3.85,11.35Z" style="fill:#ef6623"/><polygon points="213.68 274.2 225.93 249.72 218.58 251.02 208.13 274.11 213.68 274.2" style="fill:#1c4075"/><polygon points="213.6 272.67 221.69 255.38 220.41 255.43 212.32 272.72 213.6 272.67" style="fill:#ef6623"/><polygon points="211.03 271.69 219.12 254.4 217.84 254.45 209.74 271.74 211.03 271.69" style="fill:#ef6623"/><path d="M211.93,271.44h0l.42,0,.44.06.4.07a1.73,1.73,0,0,1,.3.08c.14.05.29.1.43.16l.29.14a1.84,1.84,0,0,1,.43.33,2.41,2.41,0,0,1,.22.26,2.5,2.5,0,0,1,.19.31,4.09,4.09,0,0,1,.23.51c0,.11.08.21.11.32s.07.29.1.44,0,.19.06.29,0,.14,0,.21,0,.13,0,.2a1,1,0,0,1,0,.2v0s0,.07,0,.1a.35.35,0,0,0,0,.12s0,0,0,.07a.07.07,0,0,0,0,0,.05.05,0,0,1,0,0,.05.05,0,0,0,0,0,.17.17,0,0,1,0,.08.14.14,0,0,0,0,0,.56.56,0,0,1,0,.15.19.19,0,0,0,0,0s0,.07,0,.1h0a.15.15,0,0,0,0,.08.38.38,0,0,1,0,.13s0,0,0,.07,0,.15,0,.22,0,.37,0,.56a.65.65,0,0,0,0,.17.45.45,0,0,1,0,.12c0,.06,0,.13,0,.19s0,.12,0,.18,0,.06,0,.1a.4.4,0,0,1,0,.08c0,.12,0,.25-.07.38a4.12,4.12,0,0,1-.13.48c0,.08,0,.16-.08.24s-.07.17-.11.25l-.1.18a1.68,1.68,0,0,1-.1.16l-.1.14-.07.09c-.06.07-.12.15-.2.22l-.08.09-.18.15a2.71,2.71,0,0,1-.28.2l-.14.09-.21.11-.33.15-.23.08-.33.1-.44.1-.39.06-.3,0h-1.07l-.22,0h-.46l-.11,0h-.13l-.17,0h0l-.12,0-.19,0-.21,0-.09,0-.11,0-.08,0-.21-.06-.2-.07-.12,0-.2-.08-.3-.14-.18-.09-.24-.15-.19-.13-.19-.15-.12-.11-.16-.16a1.58,1.58,0,0,1-.16-.2l-.11-.16-.06-.08-.05-.09-.06-.12a1.57,1.57,0,0,1-.11-.22.19.19,0,0,0,0-.09c0-.07,0-.14-.07-.21a1,1,0,0,1,0-.12.67.67,0,0,1,0-.12s0,0,0,0,0-.08,0-.13l0-.06s0-.09,0-.14a.14.14,0,0,1,0-.06.22.22,0,0,0,0-.09s0-.09,0-.13a.89.89,0,0,0,0-.12c0-.07,0-.14,0-.21a.81.81,0,0,1,0-.15c0-.13,0-.27,0-.4s0-.06,0-.09a.23.23,0,0,1,0-.05c0-.07,0-.15,0-.22a.17.17,0,0,1,0,0c0-.07,0-.15,0-.22a.69.69,0,0,1,0-.11.48.48,0,0,0,0-.12c0-.05,0-.1,0-.15s0-.21,0-.31,0-.12,0-.19a.36.36,0,0,1,0-.07s0-.06,0-.1,0-.17,0-.25,0-.08,0-.11,0-.14,0-.21l0-.2c0-.14.07-.28.11-.42s0,0,0-.06a.76.76,0,0,0,0-.11,2.36,2.36,0,0,1,.08-.28,5.53,5.53,0,0,1,.24-.55,3,3,0,0,1,.5-.73,1.84,1.84,0,0,1,.6-.42c.17-.07.34-.12.51-.18a2.69,2.69,0,0,1,.48-.1l.52-.05.52,0H211l.34,0h.29l.35,0Zm-1.85,1.83-.63,0-.64,0-.53,0s0,0-.05,0l-.05.37a.12.12,0,0,0,0,.11l.07.1,0,0c.18,0,.37,0,.55,0l.65,0,.44,0,.69,0h.41l.52,0,.68,0,.85,0h.2a.07.07,0,0,0,.06,0l.07-.08a.06.06,0,0,0,0,0c0-.16,0-.31,0-.47s0,0,0,0l-.83,0-1,0-.62,0h-.18l-.78,0" style="fill:#0099d6"/><path d="M213.43,273.46l0,.08V274a.06.06,0,0,1,0,0l-.07.08a.07.07,0,0,1-.06,0h-.21l-.87,0-.69,0-.53,0h-.42l-.7,0-.45,0-.67,0c-.18,0-.37,0-.55,0l-.15-.25a5.58,5.58,0,0,1-.28-.53c-4.78-8.67-8.17-21.13-8.32-36.31l6,.84c.19,12.56,4.25,28.39,7.94,35.75" style="fill:#16498e"/><path d="M213.45,273.35s0,0,0,0v0l0-.08Z" style="fill:#0099d6"/></g><g style="clip-path:url(#clip-path-5)"><path d="M212.07,274.59l1.15-.58c-6.34-12.56-9.38-27.94-8.13-41.16,1-10.85,2.58-18.73,2.6-18.81l-1.26-.25c0,.08-1.59,8-2.62,18.94-1.27,13.45,1.82,29.09,8.27,41.86" style="fill:#ef6623"/><path d="M209.32,275.26l1.13-.6c-15-28.15-6.41-60.33-6.32-60.65l-1.24-.34c-.09.33-8.87,33,6.43,61.6" style="fill:#ef6623"/></g><g style="clip-path:url(#clip-path-2)"><path d="M198.31,227a78.64,78.64,0,0,0-.39,9.51c.17,2.76,1.07,4.21,1.59,4.56a5.49,5.49,0,0,0,5.14.31c.45-.28.59-.49,1.08-1.27.63-1,1.59-5.79,1.75-6.61a33.52,33.52,0,0,0,.58-6.6c-.34-2.52-1.58-3.26-5.47-3.43a3.84,3.84,0,0,0-4.28,3.52m7.75,1.09-6.14-.76.28-2.25,6.14.76Z" style="fill:#0099d6"/><path d="M259,138.37a.79.79,0,0,1-.44-.53,17.79,17.79,0,0,1,13.08-21.46.79.79,0,1,1,.37,1.54,16.21,16.21,0,0,0-11.92,19.55.79.79,0,0,1-1.1.9" style="fill:#0096cf"/><path d="M263.32,139.44a.79.79,0,0,1-.44-.53,15,15,0,0,1,11-18.11.79.79,0,0,1,.37,1.54,13.42,13.42,0,0,0-9.87,16.2.79.79,0,0,1-1.1.9" style="fill:#0096cf"/><path d="M268,140.37a.8.8,0,0,1-.44-.53,12.22,12.22,0,0,1,9-14.76.79.79,0,1,1,.37,1.54,10.65,10.65,0,0,0-7.83,12.85.79.79,0,0,1-1.1.9" style="fill:#0096cf"/><polygon points="123.96 295.59 123.96 303.63 373.65 173.03 358.17 173.1 123.96 295.59" style="fill:#e0e0e0"/><path d="M123.56,304.28v-8.92l.21-.11L358.06,172.71h.08l17.36-.18-1.67.87Zm.79-8.44V303L371.8,173.55l-13.53-.06Z"/><polygon points="123.96 363.23 123.96 371.26 364.41 242.21 358.17 235.99 123.96 363.23" style="fill:#e0e0e0"/><path d="M123.56,371.93V363l.21-.11L358.23,235.5l6.83,6.81-.47.25Zm.79-8.46v7.14l239.4-128.49-5.66-5.64Z"/><path d="M126.69,393h0a3.29,3.29,0,0,1-4.85-2.88l-1.07-126.91a3.83,3.83,0,1,1,7.65,0V390.05a3.29,3.29,0,0,1-1.73,2.9" style="fill:#e0e0e0"/><path d="M125.13,393.75a3.7,3.7,0,0,1-3.69-3.67l-1.07-126.9a4.22,4.22,0,1,1,8.44,0V390.05a3.7,3.7,0,0,1-3.69,3.69m-.54-134a3.45,3.45,0,0,0-3.42,3.47l1.07,126.91a2.9,2.9,0,0,0,5.79,0V263.14a3.37,3.37,0,0,0-1.86-3.05,3.44,3.44,0,0,0-1.57-.39"/><path d="M211.59,255.15a.07.07,0,0,0,0,0,0,0,0,0,1,0,0Z" style="fill:#fff"/><polygon points="211.89 255.87 211.39 255.39 211.57 255.2 211.55 255.17 211.3 255.17 211.53 255.15 211.34 254.96 211.55 254.76 211.67 254.85 211.89 254.85 211.89 255.87"/><path d="M208.16,240.68a14.23,14.23,0,0,0-.44,3.23,18.45,18.45,0,0,0,3.88,11.24v0a21,21,0,0,0,13.59,8.08A33.75,33.75,0,0,1,237.88,268s0,0,0,0a43.88,43.88,0,0,1,5.61,4c2,1.66,12.16-9.35,14.54-16.48a58,58,0,0,1-6.16-10.13c-.69-1.48-1.32-3-2.08-4.71-3.32-7.43-4.61-13.38-7.18-19.87-.25-.65-.53-1.32-.83-2a63.33,63.33,0,0,0-4-7.85c-1.5-2.49-3.23-3.69-5.08-3.95" style="fill:#fff"/><path d="M244,272.55a1.06,1.06,0,0,1-.71-.24,43.8,43.8,0,0,0-5.54-4h0l-.08,0a33,33,0,0,0-12.58-4.74,21.33,21.33,0,0,1-13.79-8.19l-.06-.1a18.7,18.7,0,0,1-3.88-11.34,14.52,14.52,0,0,1,.45-3.3l.58.14a13.94,13.94,0,0,0-.43,3.16A18.13,18.13,0,0,0,211.83,255l.06.1A20.72,20.72,0,0,0,225.23,263,33.57,33.57,0,0,1,238,267.73h.21l0,.14a44.3,44.3,0,0,1,5.53,4,.79.79,0,0,0,.71,0c2.93-.83,11.09-9.84,13.3-16.24a57.78,57.78,0,0,1-6.1-10.05c-.54-1.16-1-2.3-1.6-3.62l-.48-1.1a114.13,114.13,0,0,1-4.42-12c-.87-2.69-1.7-5.23-2.76-7.91-.28-.7-.55-1.36-.83-2a63.47,63.47,0,0,0-4-7.81c-1.36-2.27-3-3.55-4.86-3.8l.08-.59c2,.28,3.83,1.66,5.29,4.09a64.15,64.15,0,0,1,4,7.88c.28.61.56,1.29.83,2,1.06,2.69,1.89,5.24,2.77,7.94a113.79,113.79,0,0,0,4.4,11.91l.48,1.1c.57,1.31,1.06,2.44,1.6,3.6a57.69,57.69,0,0,0,6.13,10.08l.09.12,0,.14C256.26,262,248,271.5,244.6,272.47a2,2,0,0,1-.55.08"/><path d="M214.16,231.38a2.67,2.67,0,0,0-2.4-2.9c-3.6-.35-9.91-.68-12.67.91-3.3,1.91-5.61,8.26-6.3,10.37a1.11,1.11,0,0,0,.36,1.21c1.81,1.49,7.81,5.2,16.8-1.54a10.76,10.76,0,0,0,4.18-7.61Z" style="fill:#fff"/><path d="M199.93,243.61a11,11,0,0,1-7-2.42,1.41,1.41,0,0,1-.46-1.54c.83-2.53,3.11-8.61,6.44-10.53,2.85-1.64,9.27-1.3,12.85-.95a3,3,0,0,1,2.67,3.23l0,.43a11.05,11.05,0,0,1-4.3,7.82c-4,3-7.44,4-10.19,4m6.32-15.13c-2.72,0-5.46.27-7,1.17-3.24,1.87-5.54,8.28-6.17,10.2a.82.82,0,0,0,.27.89c6.35,5.23,14.18.13,16.43-1.55a10.45,10.45,0,0,0,4.06-7.4l0-.43a2.38,2.38,0,0,0-2.14-2.58c-1.49-.14-3.48-.29-5.48-.29"/><path d="M208.23,232.68c-4.31,1.59-7.61-1.67-12.13,5.56a1.11,1.11,0,0,0,.6,1.67c3.15.94,11,2.45,13.94-4.87a1.85,1.85,0,0,0-2.41-2.36" style="fill:#fff"/><path d="M201.88,241a18.93,18.93,0,0,1-5.26-.82,1.38,1.38,0,0,1-.9-.84,1.44,1.44,0,0,1,.13-1.28c3.18-5.08,5.77-5.12,8.52-5.16a10.74,10.74,0,0,0,3.75-.52,2.17,2.17,0,0,1,2.34.53,2.05,2.05,0,0,1,.46,2.22c-1.85,4.67-5.64,5.87-9,5.87m7-8.16a1.59,1.59,0,0,0-.56.1h0a11.22,11.22,0,0,1-4,.56c-2.58,0-5,.07-8,4.88a.84.84,0,0,0-.08.75.79.79,0,0,0,.51.48c3.15.94,10.78,2.37,13.58-4.7a1.45,1.45,0,0,0-.33-1.58,1.6,1.6,0,0,0-1.14-.49"/><path d="M224.08,239.59s1,3.27,2.81,3.27,2.08-1,3.32-.25a6.51,6.51,0,0,1-.81-1.57c-.46-1.11-1-2.38-2.25-2.86a2.18,2.18,0,0,0-2.89,1.06,1.83,1.83,0,0,0-.18.35" style="fill:#fff"/><path d="M231.44,243.65l-1.38-.79a1.37,1.37,0,0,0-1.42,0,4.77,4.77,0,0,1-1.75.34c-2,0-3-3.33-3.09-3.48l0-.09,0-.09a2.09,2.09,0,0,1,.21-.42,2.48,2.48,0,0,1,3.24-1.18c1.4.52,1.93,1.83,2.41,3l-.24.19.27-.11a6.19,6.19,0,0,0,.75,1.45Zm-7-4c.3.91,1.25,3,2.49,3a4.17,4.17,0,0,0,1.55-.3,2.37,2.37,0,0,1,1.08-.21c-.13-.27-.26-.56-.38-.86l0-.08c-.45-1.1-.91-2.23-2.07-2.66a1.88,1.88,0,0,0-2.52.92,1.92,1.92,0,0,0-.12.23"/><path d="M224.26,239.24c.4,1.72,1.59,3,3,3A2.7,2.7,0,0,0,229.4,241c-.46-1.11-1-2.38-2.25-2.86a2.18,2.18,0,0,0-2.89,1.06" style="fill:#fff"/><path d="M227.25,242.52c-1.51,0-2.82-1.29-3.28-3.22l0-.11.05-.1a2.49,2.49,0,0,1,3.25-1.2c1.4.52,1.93,1.83,2.41,3l.06.15-.08.17a3,3,0,0,1-2.39,1.31m-2.67-3.24c.4,1.56,1.49,2.65,2.67,2.65a2.35,2.35,0,0,0,1.81-.94,3.93,3.93,0,0,0-2-2.54,1.86,1.86,0,0,0-2.46.83"/><path d="M225.37,239.46a.65.65,0,1,0,.65-.65.65.65,0,0,0-.65.65" style="fill:#fff"/><path d="M226,240.4a.95.95,0,1,1,.95-.95.95.95,0,0,1-.95.95m0-1.3a.35.35,0,1,0,.35.35.35.35,0,0,0-.35-.35"/><path d="M242.65,271a8.47,8.47,0,0,0,7.34,4.27,13.4,13.4,0,0,0,6.37-2.05A11.92,11.92,0,0,0,261.3,268c2.24-4.89.37-10.57-3.23-12.41-3.25-1.66-2.35,1.55-6,4.43-1.39,1.11-6.58.32-8,1.5-2.72,2.24-2.86,7.11-1.36,9.48" style="fill:#fff"/><path d="M249.85,275.59a8.8,8.8,0,0,1-7.45-4.41c-1.64-2.59-1.37-7.58,1.42-9.87.8-.66,2.49-.75,4.27-.85,1.54-.08,3.13-.17,3.74-.66a10.9,10.9,0,0,0,2.72-3.22c.84-1.37,1.45-2.36,3.64-1.25,3.53,1.81,5.79,7.52,3.37,12.8a12.33,12.33,0,0,1-5.06,5.35,13.82,13.82,0,0,1-6.51,2.1Zm6.77-20.14c-.66,0-1,.54-1.55,1.45a11.59,11.59,0,0,1-2.86,3.37c-.75.6-2.37.69-4.08.78s-3.27.18-3.92.71c-2.5,2.05-2.8,6.72-1.3,9.1h0A8.12,8.12,0,0,0,250,275a13.23,13.23,0,0,0,6.22-2A11.58,11.58,0,0,0,261,267.9c2.28-5,.2-10.33-3.1-12a3.09,3.09,0,0,0-1.31-.43"/><path d="M252.08,267.81c1.81-2.43-3.65-.67-5.07-2.43s-2.26,2.65-.72,4.42c1,1.17,3.66.85,5.79-2" style="fill:#fff"/><path d="M247.87,270.74a2.32,2.32,0,0,1-1.8-.74,5,5,0,0,1-.67-4.39c.24-.68.6-.88.85-.92a1.08,1.08,0,0,1,1,.51c.55.68,2,.76,3.11.83s2,.11,2.32.68-.1.94-.36,1.28h0a6.07,6.07,0,0,1-4.32,2.75h-.12m-1.49-5.47h0c-.1,0-.26.17-.39.54a4.37,4.37,0,0,0,.56,3.8,1.75,1.75,0,0,0,1.45.53,5.56,5.56,0,0,0,3.87-2.51c.28-.37.33-.59.3-.67-.12-.25-1.1-.3-1.81-.34-1.33-.07-2.83-.16-3.55-1-.15-.19-.3-.3-.41-.3"/><path d="M257.31,264.67c-3-.44.79-2.45,1.25-4.77.74-3.7,5.45,5.74-1.25,4.77" style="fill:#fff"/><path d="M258.23,265a6.68,6.68,0,0,1-1-.07c-.48-.07-1.15-.22-1.35-.71s.29-1.21.94-2a6.24,6.24,0,0,0,1.41-2.39c.22-1.11.81-1.13,1-1.09,1,.18,2.08,2.38,1.79,4.14-.14.84-.71,2.14-2.87,2.14m1-5.7c-.16,0-.28.32-.34.62a6.66,6.66,0,0,1-1.53,2.64c-.44.55-.95,1.17-.85,1.43,0,.07.17.24.88.34,1.86.27,3-.27,3.17-1.58.25-1.52-.75-3.36-1.31-3.46h0"/><path d="M181.63,80.23a11,11,0,0,1-4-.82c-1.11-.43-2.67-.91-4.47-1.47-6.38-2-15.13-4.68-15.13-8.51,0-4-1.74-15.64-9.46-16.8-7.27-1.09-18.16-6.05-17.72-10.41.39-3.92,9.38-16.68,9.76-17.23l.48.33c-.09.13-9.28,13.18-9.66,16.95-.36,3.58,9.56,8.63,17.23,9.78,8.17,1.23,10,13,10,17.37,0,3.41,8.86,6.15,14.72,8,1.81.56,3.38,1,4.51,1.48,2.67,1,4.93,1,6.91,0,3-1.54,5.39-5.53,7.07-11.86,1.47-5.55,3.52-8.87,6.1-9.86a4.15,4.15,0,0,1,3.61.25l-.32.49a3.57,3.57,0,0,0-3.1-.19c-1.64.64-4,2.8-5.73,9.46-1.72,6.5-4.2,10.62-7.36,12.24a7.43,7.43,0,0,1-3.43.82"/><path d="M186.61,128l-.24-.53c1.38-.64,5.09-2.55,5.69-3.75a17.73,17.73,0,0,1,1.67-2.31c1.41-1.8,3.35-4.25,3.35-5.71,0-2.37-.42-4.22-2.66-7.2s-3-3-9.86-3c-4.73,0-5.5-.72-6.39-1.55a4.93,4.93,0,0,0-1.87-1.19c-2.38-.89-4.22-.63-5.49.77-2.15,2.39-2,7.54-1.14,9.31l-.52.26c-1-1.94-1.12-7.36,1.23-10,1-1.1,2.86-2.15,6.13-.93a5.52,5.52,0,0,1,2.07,1.31c.8.75,1.49,1.39,6,1.39,7,0,7.91,0,10.33,3.22s2.78,5.11,2.78,7.55c0,1.66-1.93,4.11-3.48,6.07a17.79,17.79,0,0,0-1.6,2.21c-.81,1.63-5.75,3.92-6,4"/><path d="M78.94,191.24s15-3.71,20.05,1.72,1.94,8.15,9.32,13.2,9.32,2.72,13.2,10.48,6.21,10.49,8.54,15.14l2.33,4.66,4.27,10.48.78,7.38" style="fill:#fff"/><path d="M137.14,254.34l-.77-7.34-4.26-10.45-2.32-4.64c-1-2-2-3.66-3.17-5.55-1.49-2.44-3.18-5.21-5.37-9.59-2.49-5-4.1-5.7-7-7a36.06,36.06,0,0,1-6.08-3.35c-4.31-2.95-5.12-5.15-6-7.48a14.91,14.91,0,0,0-3.39-5.76c-4.88-5.25-19.62-1.67-19.77-1.64l-.14-.57c.62-.15,15.23-3.69,20.33,1.81a15.41,15.41,0,0,1,3.51,6c.86,2.34,1.6,4.36,5.76,7.2a35.53,35.53,0,0,0,6,3.3c2.95,1.33,4.73,2.14,7.31,7.29,2.18,4.37,3.87,7.12,5.35,9.55,1.17,1.9,2.17,3.55,3.19,5.6l2.33,4.66,4.3,10.58.78,7.38Z"/><path d="M76.54,148.72a8.82,8.82,0,0,1-6.93-3c-5.64-6.45-6.09-10.12-6.57-14-.13-1-.26-2.08-.48-3.2l.57-.11c.23,1.15.36,2.21.49,3.24.49,4,.91,7.4,6.43,13.71,2.27,2.6,5.6,3.38,9.91,2.34a24.9,24.9,0,0,0,8.34-3.93l3.11-2.33a3.39,3.39,0,0,1,2.38-.89,3.77,3.77,0,0,1,2.68,1.73c2.16,2.87,10-1.21,10.12-1.25l.27.52c-.34.18-8.4,4.35-10.85,1.08a3.22,3.22,0,0,0-2.25-1.49,2.91,2.91,0,0,0-2,.75l-3.14,2.36c-2.23,1.67-7.31,4.5-12.1,4.5"/><path d="M273.9,47.87S265.23,43,261.84,46.5c-2,2.11-2.36,6.24-.57,8.33,2.6,3,9.37,1.42,13.35-1.29,3.63-2.47,3.09-4.59,6.89-6.89,2.64-1.6,8.17-3.78,10.77-1.15,2.62,1.79,2.41,7.76-.43,8.47-2.54,2-10.19,0-10.19,0Z" style="fill:#fff"/><g style="opacity:0.8000029921531677"><g style="clip-path:url(#clip-path-7)"><path d="M290.78,65.58,269.95,55.12A2.52,2.52,0,0,1,268.73,53l-.2-40.26a1.26,1.26,0,0,1,1.84-1.13L291.21,21a2.53,2.53,0,0,1,1.37,2.33l.12,41.19a1.26,1.26,0,0,1-1.91,1" style="fill:#0095ce"/></g></g><path d="M286.47,31.06c.15,6-4.54,8-8.51,5a9.83,9.83,0,0,1-3.65-8.77c.38-2.73,2.24-4.84,4.74-4.92,3.39-.11,7.29,3.48,7.42,8.66" style="fill:#fff"/><path d="M279.95,35.27a1.08,1.08,0,0,1-.29-.55c0-.14-.1-.31-.15-.49a3.53,3.53,0,0,0-.35-.94l-.07-.1c-.29-.42-.57-.83-.63-.95s-.11-.11-.23-.11a.53.53,0,0,1-.38-.09.71.71,0,0,1-.21-.3,1,1,0,0,0-.08-.15h0a1.56,1.56,0,0,1-.55-.22l-.14-.11a.82.82,0,0,0-.22-.15l0,0c-.06,0-.16-.07-.2-.05l-.06,0a.38.38,0,0,1-.28.06,1.24,1.24,0,0,1-.52-.34,1.26,1.26,0,0,1-.48-1.21s0-.07,0-.11a1.22,1.22,0,0,1,0-.3.89.89,0,0,1,.48-.5,1.1,1.1,0,0,0,.17-.12,2.07,2.07,0,0,0,.19-.24l.14-.18.24-.26.12-.21.13-.12a1,1,0,0,0,.25-.3.87.87,0,0,0,.06-.22l0-.13a1.45,1.45,0,0,1,.15-.36,1.27,1.27,0,0,1,.14-.18.68.68,0,0,0,.12-.17V26a1.43,1.43,0,0,1,.19-.68.3.3,0,0,1,.24-.1.44.44,0,0,1,.35.28l0,.05a.7.7,0,0,0,.16-.26,1.41,1.41,0,0,1,.13-.25,1.14,1.14,0,0,1,.23-.23l0-.16.14,0h.2v-.08h.06l.14,0A2.32,2.32,0,0,1,280,25a.76.76,0,0,1,.09.21l0,.07.07.07,0,.21h0l0,0,.2.16a1.2,1.2,0,0,0,.5-.52l0-.07a1,1,0,0,1,.2-.32,1.48,1.48,0,0,1,.71-.35l.13,0,.06.06,0,0a.59.59,0,0,1,.4.22,1.05,1.05,0,0,1,.14.85l-.18.55a1.84,1.84,0,0,1-.38.86.59.59,0,0,1-.36.17.44.44,0,0,0-.16,0,.49.49,0,0,0-.11.12v0h0a.63.63,0,0,1,.35,0,1.15,1.15,0,0,1,.49.28,1.6,1.6,0,0,0,.23.17l.14,0a.9.9,0,0,1,.19.06l.47.31.1,0a.81.81,0,0,1,.26.12l.26.08.73.32-.12.27-.72-.32-.26-.08-.06,0a.57.57,0,0,0-.18-.09l-.15-.05-.47-.32-.11,0a.72.72,0,0,1-.22-.07,1.77,1.77,0,0,1-.28-.2.92.92,0,0,0-.36-.22.36.36,0,0,0-.2,0,.64.64,0,0,1-.33,0l-.13-.06-.08,0v-.23l.06,0a.45.45,0,0,0,.1-.11.74.74,0,0,1,.19-.2.68.68,0,0,1,.27-.09.33.33,0,0,0,.2-.08,1.57,1.57,0,0,0,.31-.73l0-.16.15-.4a.78.78,0,0,0-.09-.59.29.29,0,0,0-.23-.11h0l0,0,0,0a1.17,1.17,0,0,0-.55.27.83.83,0,0,0-.14.23l0,.08c-.08.15-.44.73-.82.68h0l-.29-.23a.39.39,0,0,1-.08-.1v0l-.14,0,.07-.18a.64.64,0,0,1,.06-.12l0-.09a.54.54,0,0,0-.06-.14,2.79,2.79,0,0,0-.4-.3v.06l-.34,0,0,0h0l-.12.1a.87.87,0,0,0-.18.18,1.25,1.25,0,0,0-.1.2c-.08.18-.17.38-.39.44s-.28-.12-.33-.21-.08-.13-.11-.13a1,1,0,0,0-.13.5l0,.26a.77.77,0,0,1-.18.3,1,1,0,0,0-.11.14,1.18,1.18,0,0,0-.12.29l0,.12a1.11,1.11,0,0,1-.09.3,1.25,1.25,0,0,1-.32.38l-.1.09-.11.2-.26.28-.13.17a2.6,2.6,0,0,1-.22.27,1.21,1.21,0,0,1-.23.16c-.13.08-.31.19-.34.29a1.12,1.12,0,0,0,0,.25s0,.09,0,.13c0,.6.07.68.37,1a1.07,1.07,0,0,0,.4.29h0l.07,0,.11,0a.57.57,0,0,1,.41.07,1.08,1.08,0,0,1,.33.21l.12.1a1.28,1.28,0,0,0,.43.17.19.19,0,0,1,.15.06l0,0v0a1.34,1.34,0,0,1,.09.18.47.47,0,0,0,.12.19s.09,0,.18,0a.46.46,0,0,1,.51.27c.06.12.46.69.61.91l.07.1a3.71,3.71,0,0,1,.39,1c0,.17.1.33.15.48a1.45,1.45,0,0,0,.17.39Zm-1.82-9.73h0Z" style="fill:#0095ce"/><path d="M289.49,47l-.12,0-18.69-8.76a.29.29,0,1,1,.25-.53l18.69,8.76a.29.29,0,0,1-.12.56" style="fill:#fff"/><path d="M285,49.3l-.12,0-11.87-5.56a.29.29,0,0,1,.25-.53l11.87,5.56a.29.29,0,0,1-.12.56" style="fill:#fff"/><g style="opacity:0.8000029921531677"><g style="clip-path:url(#clip-path-8)"><path d="M301.32,100.09l-18.73-9.4a2.27,2.27,0,0,1-1.1-1.93l-.18-36.19a1.13,1.13,0,0,1,1.65-1L301.71,60a2.27,2.27,0,0,1,1.23,2.09l.11,37a1.14,1.14,0,0,1-1.72.94" style="fill:#ebecf1"/></g></g><path d="M287.9,61.17a3,3,0,0,0-1.52-2.62c-.85-.36-1.55.21-1.57,1.28a3,3,0,0,0,1.51,2.61c.85.37,1.56-.2,1.58-1.27" style="fill:#009bd9"/><path d="M287.77,68.79a3,3,0,0,0-1.51-2.61c-.85-.38-1.54.18-1.56,1.23a3,3,0,0,0,1.5,2.6c.84.38,1.55-.16,1.56-1.22" style="fill:#ef4136"/><path d="M287.65,76.3a3,3,0,0,0-1.5-2.6c-.84-.39-1.53.15-1.54,1.19a3,3,0,0,0,1.48,2.59c.84.39,1.54-.13,1.55-1.18" style="fill:#005978"/><path d="M287.52,83.71A3,3,0,0,0,286,81.11c-.83-.4-1.52.12-1.53,1.14A3,3,0,0,0,286,84.84c.83.4,1.52-.1,1.54-1.13" style="fill:#f1ab22"/><path d="M299.39,66.67a1,1,0,0,1-.21,0l-10.09-4.37a.53.53,0,1,1,.42-1l10.09,4.37s.39.43.27.69-.48.32-.48.32" style="fill:#005978"/><path d="M297.56,73.71a1,1,0,0,1-.22,0l-8.4-3.77a.53.53,0,0,1,.43-1l8.4,3.77s.38.43.26.69a.52.52,0,0,1-.48.31" style="fill:#005978"/><path d="M297.36,81.35a1,1,0,0,1-.22,0l-8.34-3.88a.53.53,0,0,1,.44-1l8.34,3.88a.52.52,0,0,1-.22,1" style="fill:#005978"/><path d="M297.16,88.87a.53.53,0,0,1-.23-.05l-8.27-4a.53.53,0,1,1,.46-.95l8.27,4a.53.53,0,0,1-.23,1" style="fill:#005978"/><path d="M296.86,92.53,285.67,87c-.41-.2-.74,0-.75.54l0,1.13a1.49,1.49,0,0,0,.72,1.26l11.16,5.54c.42.21.79-.54.79-.54l0-1.15c0-.51-.75-1.3-.75-1.3" style="fill:#b7b8b8"/><g style="opacity:0.8000029921531677"><g style="clip-path:url(#clip-path-9)"><path d="M315,63.49l-16.67-8.37a2,2,0,0,1-1-1.72l-.16-32.21a1,1,0,0,1,1.47-.9l16.67,7.55a2,2,0,0,1,1.09,1.86l.09,33a1,1,0,0,1-1.53.83" style="fill:#ebecf1"/></g></g><g style="opacity:0.8000029921531677"><g style="clip-path:url(#clip-path-10)"><path d="M297.19,33.86l-.07-12.66a1,1,0,0,1,1.47-.9l16.83,7.55a2,2,0,0,1,1.09,1.86l0,14Z" style="fill:#0095ce"/></g></g><path d="M310.12,31.76c.08,3.28-2.49,4.38-4.68,2.77a5.4,5.4,0,0,1-2-4.82A2.89,2.89,0,0,1,306,27c1.86-.06,4,1.91,4.08,4.75" style="fill:#fff"/><path d="M306.52,34.11s-.09-.05-.17-.32c0-.08-.05-.17-.08-.27a2,2,0,0,0-.19-.51l0,0c-.22-.33-.33-.49-.36-.55s0,0-.09,0a.32.32,0,0,1-.23-.06.42.42,0,0,1-.12-.18l0-.06a.9.9,0,0,1-.3-.12l-.08-.06a.43.43,0,0,0-.11-.08s-.1,0-.11,0h0a.26.26,0,0,1-.18,0,.71.71,0,0,1-.3-.2.73.73,0,0,1-.28-.69s0,0,0-.06a.75.75,0,0,1,0-.17.52.52,0,0,1,.28-.3l.09-.06.1-.13.08-.1.14-.15.06-.1.07-.07a.46.46,0,0,0,.13-.15.48.48,0,0,0,0-.11l0-.08a.85.85,0,0,1,.08-.21.73.73,0,0,1,.08-.11l.06-.08V29a.8.8,0,0,1,.11-.39.2.2,0,0,1,.16-.07.27.27,0,0,1,.22.16l0-.1a1,1,0,0,1,.08-.14.62.62,0,0,1,.12-.12v-.11H306v0h0v0h.11a1.24,1.24,0,0,1,.46.3.45.45,0,0,1,.06.13v0l0,0,0,.13.07.06a.7.7,0,0,0,.23-.26l0,0a.59.59,0,0,1,.12-.19.84.84,0,0,1,.4-.2l.06,0,.07,0h0a.36.36,0,0,1,.23.13.61.61,0,0,1,.09.49l-.1.3a1,1,0,0,1-.22.49.35.35,0,0,1-.21.1h.05a.68.68,0,0,1,.28.16l.12.09.07,0,.11,0,.26.18h0a.47.47,0,0,1,.15.07l.14,0,.41.18-.1.21-.39-.18-.14,0,0,0-.09,0-.09,0L308,30.2h0a.42.42,0,0,1-.13,0l-.16-.11a.48.48,0,0,0-.19-.11.15.15,0,0,0-.09,0,.39.39,0,0,1-.2,0l0,0-.1-.06v-.17l.05,0,0-.05a.41.41,0,0,1,.11-.12.45.45,0,0,1,.16-.06c.05,0,.07,0,.09,0a.85.85,0,0,0,.16-.39l.1-.31a.39.39,0,0,0,0-.29.12.12,0,0,0-.1,0h0l0,0a.57.57,0,0,0-.27.13.41.41,0,0,0-.07.12l0,0c-.06.11-.26.41-.49.4h0l-.17-.13,0-.06h-.11l.06-.14,0-.05v0a.24.24,0,0,0,0-.06l-.19-.14-.1,0H306l0,0a.45.45,0,0,0-.09.09.57.57,0,0,0-.05.1c0,.1-.1.23-.23.26s-.19-.08-.22-.13l0,0a.88.88,0,0,0,0,.23v.14a.45.45,0,0,1-.11.19l-.05.07a.57.57,0,0,0-.06.15v.06a.65.65,0,0,1,0,.17.73.73,0,0,1-.18.22l0,0-.06.1-.15.16-.07.09-.12.15a.73.73,0,0,1-.13.1c-.06,0-.16.1-.17.14a.54.54,0,0,0,0,.13s0,0,0,.07c0,.32,0,.35.19.51a.58.58,0,0,0,.21.15s0,0,0,0l.07,0a.35.35,0,0,1,.25,0,.61.61,0,0,1,.19.12l.06,0a.63.63,0,0,0,.22.09.12.12,0,0,1,.1,0l0,0v0l0,.09a.24.24,0,0,0,.05.09h.08a.29.29,0,0,1,.32.17s.14.22.34.52l0,0a2.09,2.09,0,0,1,.22.57c0,.09.05.18.08.26a.86.86,0,0,0,.08.2Zm.08-5.31h0" style="fill:#0095ce"/><polygon points="314.64 46.96 298.84 39.19 298.84 37.15 314.56 44.99 314.64 46.96" style="fill:#fff"/><polygon points="314.64 50.96 298.84 43.19 298.84 41.15 314.56 48.99 314.64 50.96" style="fill:#fff"/><polygon points="314.64 58.66 298.84 50.89 298.84 48.85 314.56 56.69 314.64 58.66" style="fill:#039bd7"/><path d="M300.37,46.37c0,.43-.32.72-.67.65a1,1,0,0,1-.66-1c0-.48.32-.81.71-.7a1,1,0,0,1,.62,1" style="fill:#616161"/><path d="M312.34,52.73l-.1,0L300.84,47.2a.24.24,0,0,1-.11-.31.23.23,0,0,1,.31-.11l11.39,5.51a.23.23,0,0,1-.1.44" style="fill:#616161"/><path d="M279.65,152.31s-2.8-2.19-2.85-2.7,3.22-6.07,3.31-7.4,4.64-.46,5,0,3.08,5.93,3.86,6.66,3.63,6.63,3.63,8.39A20.18,20.18,0,0,1,291,163c-.1,0-11.31-10.66-11.31-10.66" style="fill:#fff"/><path d="M291,163.25c-.28,0-1.26-.9-11.55-10.72-1.08-.85-2.9-2.35-2.95-2.9,0-.26.23-.8,1.24-2.78a24.37,24.37,0,0,0,2.07-4.67c0-.29.19-.67.87-.86,1.29-.36,4.25.18,4.63.71.1.15.37.64.87,1.58a41,41,0,0,0,2.95,5c.79.75,3.73,6.7,3.72,8.61,0,1.48-1.35,5.79-1.77,6l-.07,0m-9.24-21.47a3.08,3.08,0,0,0-1.07.15c-.29.11-.3.24-.3.29-.06.83-1.16,3-2.13,4.89a21.67,21.67,0,0,0-1.18,2.49,17.21,17.21,0,0,0,2.74,2.48l0,0c3.93,3.75,9.71,9.25,11,10.41a20,20,0,0,0,1.41-5.25c0-1.69-2.82-7.5-3.54-8.18a35.33,35.33,0,0,1-3.06-5.19c-.4-.75-.75-1.39-.84-1.52a7.81,7.81,0,0,0-3.06-.59"/><path d="M363,62.7s-2.27,11.76-1.18,15.44S369.45,89,373,90.73l-6.06,13.42s-24,6.77-24.25,6.86-15.16-5-15.16-5l2.22-9.63,2.72-9.54Z" style="fill:#fff"/><path d="M342.71,111.29c-.26,0-1.8-.41-15.3-5l-.25-.08,2.28-9.88,2.75-9.64.07-.06L363.44,62l-.15.77c0,.12-2.24,11.73-1.19,15.3s7.4,10.68,11,12.42l.26.12-6.23,13.8-.13,0c-8.22,2.32-23.86,6.73-24.23,6.85h-.05m-14.87-5.47c5.66,1.93,14,4.73,14.79,4.89,1.39-.42,19.9-5.63,24.06-6.8l5.89-13c-3.8-2-10-9.06-11-12.65-.95-3.2.55-12.12,1-14.81L332.7,87,330,96.47Z"/><path d="M285.29,144.65s7.12-5.48,13.09-5.61c0,0,7.07-18.7,9-22.32s13.5,3.86,13.5,3.86l.46,9.83s-4.45,13.18-5.1,15.8-3.35,6.71-7.17,8-19,1.3-19,1.3Z" style="fill:#fff"/><path d="M289.85,155.79l-4.91-11.23.18-.14c.29-.22,7.11-5.42,13.06-5.67.78-2.05,7.11-18.72,8.9-22.17a2,2,0,0,1,1.35-1c3.6-1,12.2,4.55,12.57,4.78l.13.08.47,10,0,.05c0,.13-4.46,13.2-5.09,15.78s-3.34,6.84-7.36,8.2c-3.81,1.29-18.47,1.31-19.09,1.31Zm-4.19-11,4.57,10.46c1.77,0,15.22-.1,18.72-1.29,3.81-1.28,6.37-5.32,7-7.79s4.74-14.74,5.09-15.77l-.45-9.62c-1.09-.68-8.85-5.46-12-4.63a1.46,1.46,0,0,0-1,.74c-1.85,3.57-8.87,22.11-8.94,22.29l-.07.18h-.2c-5.28.12-11.59,4.58-12.74,5.42"/><path d="M289.85,155.79l-3.34-7.64.53-.23,3.19,7.29c1.77,0,15.22-.1,18.72-1.29,3.81-1.28,6.37-5.32,7-7.79s4.74-14.74,5.09-15.77l-.45-9.62a47.78,47.78,0,0,0-7.67-3.93l.2-.54a49.19,49.19,0,0,1,7.91,4.06l.13.08.47,10,0,.05c0,.13-4.46,13.2-5.09,15.78s-3.34,6.84-7.35,8.2c-3.81,1.29-18.47,1.31-19.1,1.31Z"/><path d="M327,77.13s-12.72,3.43-16.19,16.15a139.1,139.1,0,0,0-4.28,23.35s7.63,7.17,13.18,7.17S327,77.13,327,77.13" style="fill:#fff"/><path d="M319.74,124.08c-5.6,0-13.06-7-13.38-7.25l-.1-.1v-.14a141,141,0,0,1,4.29-23.41c3.47-12.73,16.26-16.31,16.39-16.35l.38-.1v.4c-.18,4.8-1.91,46.94-7.58,46.94m-12.88-7.58c.92.84,7.85,7,12.88,7,1.2,0,3.49-3,5.43-23.07,1-10.31,1.45-20.73,1.54-22.9-2.14.7-12.55,4.65-15.6,15.82a141.22,141.22,0,0,0-4.26,23.16"/><path d="M330.4,348.91s.51,12.43-4.19,14.83-16.32,10.82-16.4,17.59c-.06,5.17,7.19,5.82,14.49,3.3,5.41-1.87,12.72-10.5,19.32-11.9s15-4.7,16.07-7.8-1.34-22-1.34-22Z" style="fill:#fff"/><path d="M316.64,386.36a9.14,9.14,0,0,1-5.31-1.36,4.23,4.23,0,0,1-1.8-3.68c.08-7.12,12.34-15.7,16.55-17.85,4.48-2.29,4-14.43,4-14.56v-.25l28.51-6.08,0,.31c.1.77,2.43,19,1.32,22.13-1.2,3.38-10.24,6.7-16.29,8-3.62.77-7.44,3.74-11.14,6.61-2.93,2.28-5.7,4.43-8.14,5.27a24.39,24.39,0,0,1-7.77,1.45m14.06-37.22c0,1.82.14,12.56-4.36,14.85a49.16,49.16,0,0,0-9.87,7.11c-2.89,2.68-6.33,6.63-6.37,10.22a3.68,3.68,0,0,0,1.56,3.2c2.37,1.71,7.3,1.64,12.55-.18,2.34-.81,5.08-2.94,8-5.18,3.75-2.92,7.63-5.93,11.38-6.73,6.84-1.45,14.85-4.77,15.86-7.61s-1-19.07-1.31-21.55Z"/><path d="M359.7,364.94c-1.1,3.1-9.47,6.4-16.07,7.8s-13.91,10-19.32,11.9c-6.91,2.39-13.76,1.93-14.44-2.5a6.25,6.25,0,0,0-.06.75c-.06,5.17,7.19,5.82,14.49,3.3,5.41-1.87,12.72-10.5,19.32-11.9,1.41-.3,2.91-.69,4.4-1.14v1.51c9-2.43,11.68-5.58,11.68-5.58v-2.58a5,5,0,0,0,.1-2,2.45,2.45,0,0,1-.1.44" style="fill:#fff"/><path d="M316.64,387.92a9.13,9.13,0,0,1-5.31-1.36,4.23,4.23,0,0,1-1.8-3.68,6.42,6.42,0,0,1,.06-.79l.27-2,.31,2a3.64,3.64,0,0,0,1.82,2.65c2.49,1.51,7.18,1.36,12.23-.38,2.35-.81,5.08-2.94,8-5.18,3.75-2.91,7.63-5.93,11.38-6.73,6.84-1.45,14.85-4.77,15.86-7.61a2.08,2.08,0,0,0,.09-.38l.35-2.36.23,2.38a5.41,5.41,0,0,1-.1,2.07v2.64l-.07.08c-.11.13-2.81,3.25-11.82,5.68l-.37.1v-1.5c-1.38.41-2.74.76-4,1-3.62.77-7.44,3.74-11.14,6.61-2.93,2.28-5.71,4.43-8.14,5.27a24.33,24.33,0,0,1-7.77,1.46m-6.45-4.1a3.57,3.57,0,0,0,1.48,2.27c2.37,1.71,7.3,1.64,12.55-.18,2.35-.81,5.08-2.93,8-5.18,3.75-2.91,7.63-5.93,11.38-6.72,1.41-.3,2.88-.68,4.37-1.13l.38-.12v1.52c7.77-2.15,10.63-4.84,11.09-5.31l0-2.57a2.25,2.25,0,0,0,.11-.54c-2.2,3.09-10.29,6-15.85,7.17-3.62.77-7.44,3.74-11.14,6.61-2.93,2.28-5.7,4.43-8.14,5.28-5.21,1.8-10.08,1.93-12.72.33a4.47,4.47,0,0,1-1.5-1.43"/><path d="M354.06,237.21s-4.45,35.31-3,40.07,7.15,22,7.27,30.85c.07,5,.07,13.63,0,25.29,0,9,0,9.53,0,9.53s-6.85,9.5-28,6c0,0,0,2.19,0-6.34s.81-18.34-.06-24.67c-1.9-13.82-7.09-33-8.88-42.87s-4.17-38.47-3.45-55.38,2.62-36.92,2.62-36.92,2.5,7,15.36,13.1a28.61,28.61,0,0,0,5.76,2.06l11,29.61Z" style="fill:#fff"/><path d="M339.23,350a53.48,53.48,0,0,1-8.56-.73c0,.2-.1.2-.26.2s-.27-.13-.29-.31h0v0c0-.06,0-.13,0-.2v-.34h0c0-.75,0-2.42,0-6,0-2.67.1-5.46.18-8.16.19-6.23.36-12.11-.24-16.47-1.18-8.53-3.59-19-5.71-28.28-1.28-5.55-2.48-10.8-3.16-14.58-1.85-10.23-4.17-38.65-3.46-55.44s2.6-36.74,2.62-36.94l.12-1.3.44,1.23c0,.07,2.63,7,15.21,12.94a28.38,28.38,0,0,0,5.7,2l.15,0,.06.15,11,29.61,1.25,9.82v0c0,.35-4.42,35.3-3,39.95.17.57.41,1.33.68,2.23,2.11,6.79,6.49,20.91,6.59,28.7.07,5,.07,13.69,0,25.29,0,8.8,0,9.49,0,9.52v.1l-.06.08c-.06.08-5.15,6.86-19.38,6.86m-8.52-1.32c19.49,3.18,26.67-5,27.37-5.82,0-.39,0-2.1,0-9.43,0-11.6,0-20.33,0-25.28-.1-7.71-4.47-21.78-6.57-28.54-.28-.9-.51-1.66-.69-2.23-1.42-4.73,2.76-38.25,3-40.15l-1.22-9.69-11-29.4a28.83,28.83,0,0,1-5.66-2c-10.13-4.78-13.87-10.11-15-12.27-.4,4.36-1.91,21.34-2.52,35.84-.71,16.76,1.6,45.11,3.45,55.32.68,3.77,1.88,9,3.16,14.55,2.13,9.27,4.54,19.78,5.72,28.33.61,4.41.43,10.32.25,16.57-.08,2.7-.16,5.49-.18,8.15,0,2.82,0,4.47,0,5.41,0,.28,0,.5,0,.68"/><path d="M402.32,307.91s-2.13,11.67-3.52,15.56-12.78,16.4-3.89,18.16,17-2.78,21.4-8.52,2.22-18.25,3.34-23,1.76-11,0-13.53-7.13-3.31-7.13-3.31Z" style="fill:#fff"/><path d="M398.89,342.32a20.73,20.73,0,0,1-4-.4,4.15,4.15,0,0,1-3.31-2.25c-1.29-3,2-8.07,4.56-12.12a27.14,27.14,0,0,0,2.42-4.17c1.37-3.83,3.49-15.4,3.51-15.52l0-.11L412.37,293l.18,0c.23,0,5.52.86,7.33,3.43s1.21,8.8,0,13.76a35.29,35.29,0,0,0-.38,6.74c0,5.54,0,12.44-3,16.34-3.37,4.45-9.77,9-17.65,9M402.59,308c-.19,1-2.18,11.78-3.52,15.55a27.28,27.28,0,0,1-2.48,4.3c-2.4,3.73-5.68,8.83-4.52,11.57a3.56,3.56,0,0,0,2.89,1.9c9.45,1.87,17.28-3.36,21.11-8.41,2.84-3.74,2.86-10.53,2.89-16a35.43,35.43,0,0,1,.4-6.87c1.09-4.62,1.75-10.87,0-13.29-1.49-2.12-5.83-3-6.76-3.16Z"/><path d="M422.73,300.56l-1.41-1.69a4.35,4.35,0,0,0-.42-.8,4.61,4.61,0,0,0-1-1c1.4,2.76.76,8.6-.29,13-1.11,4.72,1,17.23-3.33,23s-12.51,10.28-21.4,8.52a5.5,5.5,0,0,1-1.87-.69c.41,1,1.36,1.81,3.12,2.15,8.89,1.76,17-2.78,21.4-8.52,3.93-5.19,2.57-15.9,3.1-21.4l.94.27c2.35-11.78,1.14-12.87,1.14-12.87" style="fill:#fff"/><path d="M400.14,343.77a20.88,20.88,0,0,1-4-.4,4.1,4.1,0,0,1-3.33-2.33l-.32-.82.75.46a5.27,5.27,0,0,0,1.77.66c9.45,1.87,17.28-3.36,21.11-8.41,2.84-3.74,2.86-10.53,2.89-16a35.44,35.44,0,0,1,.4-6.87c1-4.24,1.68-10.14.31-12.84l-.58-1.15,1,.79a4.87,4.87,0,0,1,1,1,4.54,4.54,0,0,1,.44.81l1.38,1.65c.26.29,1.13,2.13-1.07,13.12l-.06.31-.9-.25c-.11,1.38-.11,3.07-.12,4.86,0,5.54,0,12.44-3,16.34-3.37,4.45-9.77,9-17.65,9m-6.34-2.15a4.24,4.24,0,0,0,2.41,1.18c9.45,1.87,17.28-3.36,21.11-8.41,2.84-3.75,2.86-10.54,2.89-16,0-2,0-3.8.15-5.26l0-.35,1,.27c2.13-10.79,1.19-12.26,1.14-12.31h0L421,299a4.1,4.1,0,0,0-.39-.75h0c.8,3.09.2,8-.72,12a35.29,35.29,0,0,0-.38,6.74c0,5.54,0,12.44-3,16.34-3.93,5.18-12,10.56-21.69,8.63a6.8,6.8,0,0,1-1-.29"/><path d="M416.77,294.7A64.34,64.34,0,0,1,406,277.76c-4.29-10-17.15-11.43-17.15-11.43s-3.45-31.44-4.76-52.52-4.88-25.25-4.88-25.25c-11.33,8.88-25.45,12.33-37.35,9.32,0,0-.78,17,6.88,38.15,0,0,14.64,41,17.38,46.5s12.57,9.11,18.7,13.22,15.92,16.9,15.92,16.9Z" style="fill:#fff"/><path d="M400.44,312.82c-.1-.13-9.83-12.8-15.85-16.84-1.85-1.24-4-2.42-6.29-3.67-5.19-2.84-10.56-5.77-12.51-9.67-2.72-5.43-17.24-46.12-17.39-46.53-7.59-21-6.9-38.09-6.89-38.26l0-.36.35.09c12,3,25.84-.44,37.1-9.27l.22-.17.18.21c.15.17,3.65,4.48,5,25.42,1.24,19.9,4.42,49.4,4.74,52.28,1.77.26,13.17,2.28,17.15,11.58A64.59,64.59,0,0,0,417,294.5l-.42.4a65.22,65.22,0,0,1-10.87-17c-4.17-9.73-16.79-11.25-16.92-11.26l-.23,0,0-.23c0-.31-3.47-31.69-4.77-52.54-1.13-18.12-4-23.72-4.66-24.85-11.25,8.71-25,12.17-37,9.27A111.34,111.34,0,0,0,349,235.92c.15.41,14.66,41.07,17.36,46.47,1.87,3.73,7.15,6.62,12.27,9.42,2.29,1.25,4.46,2.44,6.33,3.69,6.1,4.09,15.89,16.84,16,17Z"/><polygon points="368.6 203.48 383.69 221.03 370.38 201.06 368.6 203.48" style="fill:#fff"/><path d="M383.47,221.22l-15.24-17.73,2.16-2.94,13.54,20.32ZM369,203.46l11.83,13.77-10.44-15.67Z"/><path d="M391.24,197.61c-1.8,2.51-5.63,5.85-6.06,6.8s-5.42,11.35-5.42,11.35l-10.37-11.93s9.77-8.84,11.56-11.09,8.91-21,11.46-26.27S399,151,399,151l-14.8-18,16.5-14.67s18.39,28.27,17.64,35.18-20.94,35.5-27.1,44.1" style="fill:#fff"/><path d="M379.83,216.28,369,203.8l.21-.19c.1-.09,9.77-8.85,11.52-11.06,1.06-1.33,4.15-8.86,6.88-15.5,1.82-4.43,3.54-8.61,4.55-10.71,2.34-4.88,6-14,6.52-15.34l-14.87-18,17-15.08.18.29c.75,1.16,18.43,28.44,17.69,35.37-.72,6.73-19.23,33.18-27.15,44.24a41.26,41.26,0,0,1-3.8,4.25,17.33,17.33,0,0,0-2.22,2.5c-.42.95-5.22,10.93-5.43,11.36Zm-10-12.43,9.89,11.38c.92-1.92,4.86-10.11,5.23-10.94a15.68,15.68,0,0,1,2.34-2.67,41.55,41.55,0,0,0,3.75-4.19c6.16-8.6,26.32-37.19,27-44,.68-6.36-15.49-31.72-17.41-34.7L384.6,133l14.73,17.88-.06.16c0,.1-4.07,10.27-6.6,15.53-1,2.09-2.72,6.26-4.53,10.68-2.88,7-5.85,14.25-7,15.64-1.66,2.08-9.91,9.6-11.38,10.93"/><path d="M394.68,110.06C391.14,104.21,373,90.73,373,90.73s-18.77,19.72-32,15.1-3.6-17.55-3.6-17.55l-8.84-11.15c-9,9.39-12.11,29.93-11.7,41.2S319.92,134,319.92,134s3.13,29.24,2.31,35.09-3.13,21.22-3.13,21.22-1.34,16.43,20.75,20.93c15.95,3.25,24.91-2.74,27.77-5.6l14-14a102.15,102.15,0,0,1-5.48-17.84c-1.63-8.7,6.94-24.21,10.34-31.56s11.78-26.37,8.24-32.22" style="fill:#fff"/><path d="M348.76,212.47a44.81,44.81,0,0,1-9-1c-22.09-4.5-21-21.07-21-21.24s2.32-15.46,3.13-21.24c.78-5.62-2.14-33.43-2.31-35-.34-.58-2.75-5.09-3.14-15.75A84.38,84.38,0,0,1,318.84,97c1.49-6.19,4.33-14.68,9.44-20l.23-.24,9.19,11.59-.14.18c0,.06-4.59,6.22-3,11.38.79,2.57,3,4.49,6.47,5.71,12.94,4.51,31.55-14.83,31.73-15l.18-.19.21.15c.74.55,18.26,13.59,21.78,19.42,3.19,5.28-2.71,20.58-8.23,32.49-.5,1.09-1.12,2.35-1.8,3.75-3.94,8.09-9.89,20.31-8.52,27.63a102.52,102.52,0,0,0,5.47,17.78l.08.18-14.09,14.09c-1.29,1.29-7.34,6.62-19.08,6.62M328.48,77.57c-8.54,9.22-11.8,29.31-11.39,40.74.4,11,3.06,15.48,3.09,15.52l0,.12c.13,1.2,3.12,29.35,2.31,35.17s-3.11,21.07-3.13,21.22-1,16.21,20.52,20.6c17.39,3.54,26-4,27.51-5.52l13.81-13.81a102.58,102.58,0,0,1-5.43-17.72c-1.41-7.51,4.59-19.84,8.56-28,.68-1.39,1.29-2.65,1.79-3.74,7.71-16.65,10.64-28,8.26-31.95-3.27-5.4-19.42-17.59-21.43-19.1a79.24,79.24,0,0,1-10.91,9.14c-8.39,5.75-15.74,7.77-21.26,5.85-3.69-1.29-6-3.34-6.84-6.09-1.53-5,2.19-10.62,3-11.72Z"/><path d="M370.72,202.55l10.86-10.86a102.2,102.2,0,0,1-5.48-17.84c-1.63-8.7,6.94-24.21,10.34-31.56a101.72,101.72,0,0,0,6.28-20.71l-12.27,5.1Z" style="fill:#fff"/><path d="M370.93,202.75l-.41-.41,10.73-10.73a102.71,102.71,0,0,1-5.43-17.72c-1.41-7.51,4.59-19.84,8.56-28,.68-1.39,1.29-2.65,1.79-3.74A101.14,101.14,0,0,0,392.33,122l-11.77,4.9-.22-.54,12.77-5.31-.1.53a101.9,101.9,0,0,1-6.3,20.78c-.5,1.09-1.12,2.35-1.8,3.75-3.94,8.09-9.89,20.31-8.52,27.63a102.53,102.53,0,0,0,5.47,17.78l.08.18Z"/><path d="M413.26,137.32s-8.9,9.25-20.58,13.87c0,0-10.4-11.68-13.41-18s2.7-19.77,5.59-21.85,6.48-5,12.12.7,16.28,25.32,16.28,25.32" style="fill:#fff"/><path d="M392.6,151.53l-.14-.15c-.1-.12-10.46-11.78-13.45-18.11-3.07-6.49,2.66-20,5.68-22.21l.25-.18c2.78-2,6.59-4.77,12.25.91s15.89,24.58,16.33,25.38l.1.19-.15.15c-.09.09-9.08,9.35-20.68,13.94ZM390.68,109c-2.1,0-3.8,1.24-5.4,2.39l-.25.18c-2.84,2-8.39,15.36-5.49,21.49,2.77,5.86,12,16.42,13.23,17.81,10.58-4.25,18.93-12.37,20.14-13.58-1.11-2-10.87-19.79-16.12-25.06-2.39-2.4-4.38-3.24-6.1-3.24"/><path d="M357.28,75.88s-4.29,8.2-10.93,12.22-11.13,3.75-13.58,3.62-3.86-1.36-4.4-2.91-2.13-7.22-2.13-7.22-2-.18-1.82-1.73.36-3.68.36-3.68a17.65,17.65,0,0,1-1.18-9.31,9,9,0,0,1-1.54-4.49,39.64,39.64,0,0,1,3.09-14.71c2.23-5.08,15.87-17.29,29.29-10.9,4.86,2.32,12.08,7.9,10.85,19.34a41.55,41.55,0,0,1-8,19.76" style="fill:#fff"/><path d="M334.54,92.06c-.68,0-1.27,0-1.77-.06-2.34-.13-4-1.26-4.69-3.1-.49-1.4-1.8-6-2.09-7.05a2,2,0,0,1-1.88-2c.12-1.37.31-3.21.36-3.61a17.77,17.77,0,0,1-1.19-9.29,9.08,9.08,0,0,1-1.53-4.56,39.79,39.79,0,0,1,3.11-14.83c1.31-3,6.67-8.72,14-11.44a19.73,19.73,0,0,1,15.7.4c4.66,2.22,12.29,7.73,11,19.64a42.24,42.24,0,0,1-8,19.89c-.28.51-4.57,8.4-11,12.3-5.33,3.22-9.31,3.72-12,3.72m11.92-56.83a21.16,21.16,0,0,0-7.41,1.41c-6.84,2.55-12.33,8.1-13.65,11.13a39.16,39.16,0,0,0-3.06,14.6,8.73,8.73,0,0,0,1.49,4.33l.07.1,0,.12A17.48,17.48,0,0,0,325,76.06l0,.07v.08s-.23,2.13-.36,3.67c-.11,1.23,1.48,1.4,1.55,1.41l.2,0,.05.19c0,.06,1.59,5.68,2.13,7.2a4.27,4.27,0,0,0,4.15,2.71c2.42.13,6.87.38,13.41-3.58S357,75.82,357,75.74l0,0A41.59,41.59,0,0,0,365,56.08c1.24-11.55-6.17-16.89-10.69-19a18,18,0,0,0-7.83-1.79"/><path d="M360.24,38.63c-7.13-7-20.07-7.4-28.43-1.91s-9.44,11.9-9,14.26,1.86,5.95,5.72,6.9,11.63-.36,13.67-.36,4.81,3.68,5.18,4.9S350,64.49,350.61,65c1.18.86,2.27,4.13,2.81,5.31s1.73-.22,2.5-1.26a32.3,32.3,0,0,1,2.89-3l.65.86,1.73,1.73,3.18-4.77c3.27-8.44,3-18.21-4.13-25.2" style="fill:#fff"/><path d="M354,71h-.09a.93.93,0,0,1-.74-.61c-.12-.27-.27-.63-.44-1.05-.57-1.4-1.42-3.52-2.28-4.14a7.12,7.12,0,0,0-.72-.42c-1-.53-2.31-1.25-2.61-2.28s-3-4.7-4.9-4.7c-.56,0-1.57.1-2.85.23-3.21.33-8.07.82-10.89.12-4.33-1.07-5.59-5.34-5.94-7.13-.51-2.63.75-9.06,9.12-14.56,8.85-5.82,21.76-4.95,28.79,1.94,6.48,6.36,8,15.66,4.2,25.51l-3.4,5.12-2-2-.48-.64a28.58,28.58,0,0,0-2.62,2.74c-.94,1.28-1.6,1.83-2.17,1.83M342.21,57.23c2.26,0,5.1,3.91,5.46,5.11.23.79,1.5,1.48,2.33,1.93a7.63,7.63,0,0,1,.79.46c1,.72,1.84,2.84,2.47,4.39.17.41.31.77.43,1s.17.27.27.28.67-.16,1.73-1.59a31.82,31.82,0,0,1,2.93-3l.24-.22.85,1.12,1.45,1.45,3-4.47c3.7-9.57,2.21-18.64-4.09-24.83C353.19,32.13,340.61,31.29,332,37c-2.85,1.88-10,8-8.86,14,.4,2.08,1.65,5.72,5.51,6.67,2.72.67,7.52.19,10.69-.14,1.29-.13,2.32-.23,2.91-.23"/><path d="M322.78,65.41a9.73,9.73,0,0,0,.81,1.46,17.63,17.63,0,0,0,1.18,9.31,57.75,57.75,0,0,0,2.24-7c.15-1.17-2.5-2.82-4.23-3.8" style="fill:#fff"/><path d="M324.8,76.94l-.29-.64a17.77,17.77,0,0,1-1.22-9.36,10.53,10.53,0,0,1-.77-1.41l-.36-.8.77.43c4.58,2.55,4.43,3.71,4.38,4.09a56.7,56.7,0,0,1-2.26,7Zm-1.31-10.79c.2.35.34.55.34.55l.07.1,0,.12a17.19,17.19,0,0,0,.89,8.45,47.31,47.31,0,0,0,2-6.2c0-.32-.22-1.21-3.24-3"/><path d="M357.28,68.42c.22-1.35,1.69-4.18,4-3.72a3.19,3.19,0,0,1,2.45,4.63c-.86,2.18-4.37,6.9-6.5,6.95s-.23-6.4,0-7.86" style="fill:#fff"/><path d="M357.26,76.56a1.05,1.05,0,0,1-.84-.39c-.84-1-.3-3.86.34-6.67.11-.48.2-.88.24-1.13a5.82,5.82,0,0,1,2.11-3.45,2.9,2.9,0,0,1,2.28-.51,3.63,3.63,0,0,1,2.6,1.74,3.82,3.82,0,0,1,.07,3.28c-.81,2-4.37,7.08-6.77,7.13Zm3.57-11.63a2.39,2.39,0,0,0-1.39.46,5.25,5.25,0,0,0-1.87,3.06c0,.26-.13.67-.24,1.17-.39,1.71-1.19,5.28-.45,6.18a.48.48,0,0,0,.41.18c1.93,0,5.36-4.56,6.23-6.76a3.25,3.25,0,0,0,0-2.79,3,3,0,0,0-2.2-1.45,2.35,2.35,0,0,0-.45,0"/><path d="M308.59,169.12l-18.49-29.85a3.9,3.9,0,0,0-1.79-1.41l-12.07-4c-.36-.12-.59-.08-.66.09l-1.15,1.36h0c-.1.11-.08.33.1.63L293,165.8a3.89,3.89,0,0,0,1.79,1.41l12.07,4c.32.1.53.08.63,0l1.16-1.39c.13-.11.12-.34-.08-.65" style="fill:#fff"/><path d="M307.23,171.56a1.47,1.47,0,0,1-.45-.08l-12.07-4a4.17,4.17,0,0,1-1.95-1.54L274.27,136.1a1,1,0,0,1-.19-.74l0,0,1.28-1.52c.08-.15.33-.42,1-.21l12.07,4a4.17,4.17,0,0,1,2,1.54L308.83,169c.39.63.14.93,0,1l-1.12,1.36a.6.6,0,0,1-.5.21m-32.59-36a1.16,1.16,0,0,0,.13.28l18.49,29.85a3.61,3.61,0,0,0,1.64,1.29l12.07,4c.24.08.32,0,.32,0l1.15-1.38s0-.1-.1-.31l-18.49-29.85a3.61,3.61,0,0,0-1.64-1.29l-12.07-4a.57.57,0,0,0-.32,0l-1,1.23h0Z"/><path d="M307.39,170.55c.35.57.12.86-.51.65l-12.07-4A3.89,3.89,0,0,1,293,165.8L274.52,136c-.35-.57-.12-.86.51-.65l12.07,4a3.89,3.89,0,0,1,1.79,1.41Z" style="fill:#0095ce"/><path d="M307.23,171.56a1.45,1.45,0,0,1-.45-.08l-12.07-4a4.16,4.16,0,0,1-2-1.54L274.27,136.1c-.32-.52-.2-.82-.1-.95s.36-.32.95-.13l12.07,4a4.16,4.16,0,0,1,1.95,1.54l18.49,29.85c.32.52.2.82.09,1a.6.6,0,0,1-.5.21m-32.6-36a2,2,0,0,0,.13.27l18.49,29.85a3.6,3.6,0,0,0,1.64,1.29l12.07,4a.71.71,0,0,0,.31.05,2,2,0,0,0-.13-.27l-18.49-29.85a3.62,3.62,0,0,0-1.64-1.29l-12.07-4a.67.67,0,0,0-.31-.05"/><path d="M276.51,150.38c.34-1.52,2-3.48,3.87-3.31s14.44,2.24,16.21,3.31c2.63,1.6.46,3.6,0,4.07s1.74.46,1.39,2,1.36,4.32.26,6.47c-.85,1.67-1.12,2.56-4.38,3.15-3.78.68-5.09.18-8.43-1.17s-9.86-10.3-8.92-14.56" style="fill:#fff"/><path d="M291,166.71c-2,0-3.34-.55-5.67-1.49-3.48-1.4-10-10.58-9.09-14.89.35-1.57,2-3.72,4.18-3.54,1.74.15,14.46,2.21,16.34,3.35a2.59,2.59,0,0,1,1.41,1.84,3.46,3.46,0,0,1-1.25,2.58l.17.09a1.67,1.67,0,0,1,1.19,1.92,5.74,5.74,0,0,0,.26,2.23c.32,1.37.68,2.93,0,4.31l-.14.27c-.77,1.53-1.23,2.45-4.45,3a16.69,16.69,0,0,1-2.93.3m-10.83-19.35c-1.66,0-3.06,1.76-3.36,3.09-.89,4,5.49,12.92,8.74,14.23s4.52,1.82,8.27,1.15c2.93-.52,3.3-1.26,4-2.72l.14-.28c.61-1.19.27-2.63,0-3.91a6.05,6.05,0,0,1-.26-2.49c.15-.69-.29-1-.88-1.27-.29-.14-.54-.27-.58-.52a.45.45,0,0,1,.15-.4l.05-.05c.34-.34,1.25-1.23,1.14-2.16a2,2,0,0,0-1.13-1.41c-1.69-1-14.29-3.11-16.09-3.27h-.2"/><path d="M364.62,279.19c.62,1.53,1.11,2.68,1.44,3.33,2.74,5.48,12.56,9.11,18.7,13.22s15.92,16.9,15.92,16.9,2.14-.93,6.26-7.55c5.43-8.73,2.74-15.82,3.4-19Z" style="fill:#fff"/><path d="M400.58,313l-.14-.18c-.1-.13-9.83-12.8-15.85-16.84-1.85-1.24-4-2.42-6.29-3.67-5.19-2.84-10.56-5.77-12.51-9.67-.32-.63-.8-1.76-1.45-3.35l.54-.22c.64,1.58,1.12,2.69,1.43,3.31,1.87,3.73,7.16,6.62,12.27,9.42,2.29,1.25,4.46,2.44,6.33,3.69,5.68,3.8,14.55,15.1,15.83,16.76.6-.4,2.63-2,5.93-7.32,3.89-6.25,3.55-11.74,3.33-15.37a14.67,14.67,0,0,1,0-3.56l.57.12a14.59,14.59,0,0,0,0,3.4c.23,3.71.57,9.31-3.42,15.72-4.12,6.62-6.3,7.62-6.39,7.66Z"/><path d="M70.91,123.55c4.29-1.8,6.38-3.42,9.84-3.68,1.78-.54,4.67,1.47,8.45,5.55,6.06,5.69,12.41,11.6,19.55,17.86,8.26,6.42,21.7,12.05,37.17,17.38C166.38,168,182.75,176,195.26,184.6" style="fill:none;stroke:#000;stroke-miterlimit:10;stroke-width:0.6039999723434448px"/><path d="M241.36,141.83c-5.48-3.78-9.3-3.18-11.91-2.63s-7,3.05-7,3.05" style="fill:none;stroke:#000;stroke-miterlimit:10;stroke-width:0.6039999723434448px"/></g></g></svg>