<svg id="Layer_1" data-name="Layer 1" xmlns="http://www.w3.org/2000/svg" xmlns:xlink="http://www.w3.org/1999/xlink" width="541.21" height="329.81" viewBox="0 0 541.21 329.81"><defs><clipPath id="clip-path"><rect x="-715.08" width="1256.29" height="3501.14" style="fill:none"/></clipPath><clipPath id="clip-path-2"><rect x="-715.08" width="1256.29" height="3501.14" style="fill:none"/></clipPath><clipPath id="clip-path-3"><path d="M108.61,50.14l9,1.67c.36-2.15,2.77-15.69,3-17.82L113,31.23c-.36,3.34-3.64,15.36-4.4,18.91" style="fill:none"/></clipPath><clipPath id="clip-path-4"><path d="M78.61,102.85l-.09.08-.2.54a.08.08,0,0,0,0,.07l.06.13a.09.09,0,0,0,.07.06l.26.09,1.1.37.89.3.67.23.54.18.89.3.58.2.85.28c.23.08.46.18.7.24l.31-.25a7.6,7.6,0,0,0,.6-.52c10.12-8.63,20.28-22.67,27.68-41.66l-8-1.79c-6.19,15.68-18.8,33.65-26.93,41.15" style="fill:none"/></clipPath><clipPath id="clip-path-7"><path d="M143.87,106.63l9.6-1.11c-.3-2.28-2.07-16.7-2.46-18.93l-8.56-.42c.67,3.49,1.08,16.64,1.42,20.46" style="fill:none"/></clipPath><clipPath id="clip-path-8"><path d="M144.35,119.25C143,137,135.79,159.06,129.9,169.16l-.07.11c0,.2,0,.41,0,.61a.09.09,0,0,0,0,.07l.1.12a.1.1,0,0,0,.08,0h.29l1.23,0,1,0,.75,0,.6,0,1,0,.64,0,.95,0c.26,0,.52,0,.78,0l.23-.34a7.81,7.81,0,0,0,.45-.72c7.55-11.85,13.46-29.18,15-50.65Z" style="fill:none"/></clipPath></defs><title>collar-mob-image-01</title><g style="clip-path:url(#clip-path)"><g style="clip-path:url(#clip-path-2)"><path d="M418.83,52.2c3.93,10.76,4.88,22.36,3.82,34.53-1.49,17.84-2.36,34.7.48,45.67,4.58,12.87,11.58,36.54,7.88,43.45-4,6.8-4.76,14.35-3.26,22.44-3.87-4.13-6.32-10.87-5.89-22.92-1.67-5.8-.58-11.58,1.91-17.35,1.74-7.41-.74-13.4-3-20.05a270.33,270.33,0,0,1-2.86-64.77l-8.59-16.39Z" style="fill:none;stroke:#000;stroke-miterlimit:10;stroke-width:0.43700000643730164px"/><path d="M193.76,232.67c-.87,6-3,5.57-5.89,9.1.49-4.27-1.18-8.62-1.18-12.48-.28-6.69,0-13.66.33-20.66a29.61,29.61,0,0,1,1.91-8.76c2.57,8.33,5.87,24.24,4.83,32.81m225-180.43c-3.52-8.29-9.55-15.41-19.6-20.55l0,0a49,49,0,0,0-19.16-6c-3.77-.28-6.1,1.74-9.28,2-2.91.29-5.08-1.34-17.39-1.36s-30.76,3.36-42.94,5.67C289,35.55,268.09,36.44,246.62,37c-14.5.59-28.42-1.18-42.64-1.21-9.7,0-19.41.79-28.87.83h-3.68l-3.55,0,.09-.35a10.78,10.78,0,0,0-2.64-.08,4.49,4.49,0,0,0-2.25-.55,17.88,17.88,0,0,0-1.84,0,5.61,5.61,0,0,0-2.13-.38c-2-.06-4.56.32-6.11.38l-2.25.1-4,.19-19.13.9c-.88-.09-1.77-.17-2.65-.22-1-.63-2.34-.47-3.51-.75q-2.3-1-4.57-2c-1.13-.26-2.35.07-3.45-.3a10.75,10.75,0,0,0-1.16-.3,32.89,32.89,0,0,0-6.39-.35c-1.94,0-3.3-.47-5.08-.56a9.79,9.79,0,0,0-1.14,0c-.31-.11-.23,0-.52-.14v-.69c1.24-1,1.74-2.78,3-3.85,1.65-1.36,3.9-1.16,5.34-3,2.47-3.16,2.84-6.5,3.71-10.55.46-1.42.89-2.81,1.36-4.23.74-4.8-1-9.3-5.39-9.12-.31-.21-.59-.42-.88-.65-2.85,1-5.64,1.92-7.85,4.36a14.55,14.55,0,0,0-2.23,4.17c-1.29,2.77-4.93,7.68-7.81,7.8L85,14.68c-.48-.28-1.08-1.4-1.62-1.39.18-.55.59-1.75,1.2-1.78,0-.45.1-.33-.3-.32-.77-1.16-1.08-2.57-2-3.54S73.8,2.94,72.63,3v.33l-.31,0c.11.46.19.91.31,1.37l-1.79.07c-1-.47-2.43-.23-3.59-.17l0,.33.31,0c.23.24.28.34.6.32C66.67,6.66,65,7.62,63.78,9.41c-1.76,2.55-2.16,6.82-5.38,8-2.32.84-3.17-4-6.79-3.66a2.49,2.49,0,0,0-2,.85c-1.37,1.57-1.7,5.5-1.58,7.89l.08,3.29c-.43,1.61-2.93,3.75-3.83,5.43a15.26,15.26,0,0,0-1.59,4.44c-.29,1.68-.23,3.61-.94,5.11-1.4,3-3.83,4.69-5.94,7l-1.64,3.06-3.61,4c-1.82,2.25-3.23,4.62-5.24,6.75s-9.39,5.85-10,9.2V71c-.22,1.6.45,3.35.67,4.84,1.3,8.43,3.69,9,10.23,11.05,2.5.75,5.24,1.57,8.17,1.18,1.68-.27,2.77-1.54,4.18-2.32s3.62-.81,5.49-.85c2.34-.09,4.21.77,6.36,1.16a24,24,0,0,0,7.45-.26c.44-.09,1.22-.55,1.22,0,1.68,1,2.23,2.86,4.27,3.29,3,.68,6.41-3.29,9-.58,1,1.07,7.34,5.32,9.24,6.61h0l.33.22c3.1,2.12,5.07,7.52,7.19,10.81l.14.23.24.35c1.64,2.42,3.46,4.67,5.21,7a57,57,0,0,1,5.08,7.45c1.09,2.21,6.35,12.71,7.06,14.67,8,13.88,42.59,31.17,54.93,29.4a1.9,1.9,0,0,0,0,.2c1.43,6.4,6.34,18.68,6.05,25.08,0,5.53,2.61,10.47,3.47,16,1.72,10.49,3.18,36.14-9.61,40.74-3.36,2.54-8.36,10.6-7.85,11.92s14.21,2.07,19.72.91c4.94-.89,4.36-2.92,6.11-7a13.18,13.18,0,0,1,2.62-3.51,1.72,1.72,0,0,0-.24,1.24c.74,1.74,5.2,1.5,6.45,1.75,4.45.51,10.44,1,14.89-1.48,4.71-2.48,3.22-11.44,3.73-11.45s1.49,1,2,1,1.66-2.6,1.71-4.85c.11-7.8-4.93-13.32-5.53-27.85-.53-12.27.72-37.92,1.21-46.36,11.56,7.17,48.28,25.78,84.37,16.76,13.87-3.47,29.41-13,34.67-20.08A21.27,21.27,0,0,0,333.8,164c-.58,3.19-1.25,14.53,1.43,14.54s4.09-9,4.94-12.78c.58-.31,2,0,2.62,0,.88,2.61-.31,13.6,2.88,13.6s2.55-11.93,3.28-12.76a3.52,3.52,0,0,1,4-.31c.49.35.76,2.64,1.16,5.14-.12,2.43-.31,4.83-.31,6.85,0,6.4,0,12.51-.32,18.92A86.45,86.45,0,0,1,350,219.87c-2.34,8.13-6.11,10.73-11.62,16.86-1.74,1.74-10.17,13.36-8.71,16s17.68,2,20.31.59c4.92-2.62,4.7-11,7.25-11.61s3.77-.91,4.37-5.55c.57-2.93-.3-6.12.58-9,2-9,7.55-18.34,10.45-27.35,3-8.27,5.8-17.81,11.49-25.22l-1.16-2.5c9,19.15,16.63,32.26,10,64.41-.34,1.58-2,1.44-4.36,4.35-1.46,2.34-10.18,12.58-10.18,15.13s15.66,2.63,21.73.31c5.24-1.73,7.87-13.39,7.87-13.39,1.16-1.74,2.86-1.1,3.44-3.14.88-2,0-6.76-.82-8.49-4.63-11.35,1.18-26.78,1.49-39V181.2c.29-3.79,2-6.7,2.63-10.18.86-4.94-2-7.58-4.06-11.36l-.43-.1c-7.87-10-10.2-19.39-8.24-32.5,2.5-16,12.66-34.33,15.93-51.9h0c.08-.39.15-.75.21-1.14-.09.59-.17,1.31-.24,2.14" style="fill:#fff"/><path d="M193.76,232.67c-.87,6-3,5.57-5.89,9.1.49-4.27-1.18-8.62-1.18-12.48-.28-6.69,0-13.66.33-20.66a29.61,29.61,0,0,1,1.91-8.76c2.57,8.33,5.87,24.24,4.83,32.81m225-180.43c-3.52-8.29-9.55-15.41-19.6-20.55l0,0a49,49,0,0,0-19.16-6c-3.77-.28-6.1,1.74-9.28,2-2.91.29-5.08-1.34-17.39-1.36s-30.76,3.36-42.94,5.67C289,35.55,268.09,36.44,246.62,37c-14.5.59-28.42-1.18-42.64-1.21-9.7,0-19.41.79-28.87.83h-3.68l-3.55,0,.09-.35a10.78,10.78,0,0,0-2.64-.08,4.49,4.49,0,0,0-2.25-.55,17.88,17.88,0,0,0-1.84,0,5.61,5.61,0,0,0-2.13-.38c-2-.06-4.56.32-6.11.38l-2.25.1-4,.19-19.13.9c-.88-.09-1.77-.17-2.65-.22-1-.63-2.34-.47-3.51-.75q-2.3-1-4.57-2c-1.13-.26-2.35.07-3.45-.3a10.75,10.75,0,0,0-1.16-.3,32.89,32.89,0,0,0-6.39-.35c-1.94,0-3.3-.47-5.08-.56a9.79,9.79,0,0,0-1.14,0c-.31-.11-.23,0-.52-.14v-.69c1.24-1,1.74-2.78,3-3.85,1.65-1.36,3.9-1.16,5.34-3,2.47-3.16,2.84-6.5,3.71-10.55.46-1.42.89-2.81,1.36-4.23.74-4.8-1-9.3-5.39-9.12-.31-.21-.59-.42-.88-.65-2.85,1-5.64,1.92-7.85,4.36a14.55,14.55,0,0,0-2.23,4.17c-1.29,2.77-4.93,7.68-7.81,7.8L85,14.68c-.48-.28-1.08-1.4-1.62-1.39.18-.55.59-1.75,1.2-1.78,0-.45.1-.33-.3-.32-.77-1.16-1.08-2.57-2-3.54S73.8,2.94,72.63,3v.33l-.31,0c.11.46.19.91.31,1.37l-1.79.07c-1-.47-2.43-.23-3.59-.17l0,.33.31,0c.23.24.28.34.6.32C66.67,6.66,65,7.62,63.78,9.41c-1.76,2.55-2.16,6.82-5.38,8-2.32.84-3.17-4-6.79-3.66a2.49,2.49,0,0,0-2,.85c-1.37,1.57-1.7,5.5-1.58,7.89l.08,3.29c-.43,1.61-2.93,3.75-3.83,5.43a15.26,15.26,0,0,0-1.59,4.44c-.29,1.68-.23,3.61-.94,5.11-1.4,3-3.83,4.69-5.94,7l-1.64,3.06-3.61,4c-1.82,2.25-3.23,4.62-5.24,6.75s-9.39,5.85-10,9.2V71c-.22,1.6.45,3.35.67,4.84,1.3,8.43,3.69,9,10.23,11.05,2.5.75,5.24,1.57,8.17,1.18,1.68-.27,2.77-1.54,4.18-2.32s3.62-.81,5.49-.85c2.34-.09,4.21.77,6.36,1.16a24,24,0,0,0,7.45-.26c.44-.09,1.22-.55,1.22,0,1.68,1,2.23,2.86,4.27,3.29,3,.68,6.41-3.29,9-.58,1,1.07,7.34,5.32,9.24,6.61h0l.33.22c3.1,2.12,5.07,7.52,7.19,10.81l.14.23.24.35c1.64,2.42,3.46,4.67,5.21,7a57,57,0,0,1,5.08,7.45c1.09,2.21,6.35,12.71,7.06,14.67,8,13.88,42.59,31.17,54.93,29.4a1.9,1.9,0,0,0,0,.2c1.43,6.4,6.34,18.68,6.05,25.08,0,5.53,2.61,10.47,3.47,16,1.72,10.49,3.18,36.14-9.61,40.74-3.36,2.54-8.36,10.6-7.85,11.92s14.21,2.07,19.72.91c4.94-.89,4.36-2.92,6.11-7a13.18,13.18,0,0,1,2.62-3.51,1.72,1.72,0,0,0-.24,1.24c.74,1.74,5.2,1.5,6.45,1.75,4.45.51,10.44,1,14.89-1.48,4.71-2.48,3.22-11.44,3.73-11.45s1.49,1,2,1,1.66-2.6,1.71-4.85c.11-7.8-4.93-13.32-5.53-27.85-.53-12.27.72-37.92,1.21-46.36,11.56,7.17,48.28,25.78,84.37,16.76,13.87-3.47,29.41-13,34.67-20.08A21.27,21.27,0,0,0,333.8,164c-.58,3.19-1.25,14.53,1.43,14.54s4.09-9,4.94-12.78c.58-.31,2,0,2.62,0,.88,2.61-.31,13.6,2.88,13.6s2.55-11.93,3.28-12.76a3.52,3.52,0,0,1,4-.31c.49.35.76,2.64,1.16,5.14-.12,2.43-.31,4.83-.31,6.85,0,6.4,0,12.51-.32,18.92A86.45,86.45,0,0,1,350,219.87c-2.34,8.13-6.11,10.73-11.62,16.86-1.74,1.74-10.17,13.36-8.71,16s17.68,2,20.31.59c4.92-2.62,4.7-11,7.25-11.61s3.77-.91,4.37-5.55c.57-2.93-.3-6.12.58-9,2-9,7.55-18.34,10.45-27.35,3-8.27,5.8-17.81,11.49-25.22l-1.16-2.5c9,19.15,16.63,32.26,10,64.41-.34,1.58-2,1.44-4.36,4.35-1.46,2.34-10.18,12.58-10.18,15.13s15.66,2.63,21.73.31c5.24-1.73,7.87-13.39,7.87-13.39,1.16-1.74,2.86-1.1,3.44-3.14.88-2,0-6.76-.82-8.49-4.63-11.35,1.18-26.78,1.49-39V181.2c.29-3.79,2-6.7,2.63-10.18.86-4.94-2-7.58-4.06-11.36l-.43-.1c-7.87-10-10.2-19.39-8.24-32.5,2.5-16,12.66-34.33,15.93-51.9h0c.08-.39.15-.75.21-1.14-.09.59-.17,1.31-.24,2.14" style="fill:none;stroke:#000;stroke-linejoin:round;stroke-width:0.43700000643730164px"/><path d="M39.7,77.37c-3.63-1.81-6.76,2.5-8.29-.54s3.65-9.66-5.32-10.9c-2.53-.35-3.82-.45-6.1.85-3,1.74-5.14,3.28-5,5.56.26,5.39,7.17,12.63,11,12.21,2,5.19,14.81,4.56,16.46.43a6.4,6.4,0,0,0-2.74-7.61" style="fill:#fff"/><path d="M39.7,77.37c-3.63-1.81-6.76,2.5-8.29-.54s3.65-9.66-5.32-10.9c-2.53-.35-3.82-.45-6.1.85-3,1.74-5.14,3.28-5,5.56.26,5.39,7.17,12.63,11,12.21,2,5.19,14.81,4.56,16.46.43A6.4,6.4,0,0,0,39.7,77.37Z" style="fill:none;stroke:#000;stroke-linejoin:round;stroke-width:0.5730000138282776px"/><path d="M24.52,69.9c-2.53-.13-4.5,1.89-3,5.61S20.08,79.25,21,80c1.3-.1,4-.52,5-1.28,4.12-3.2,2.3-8.62-1.53-8.81" style="fill:#fff"/><path d="M24.52,69.9c-2.53-.13-4.5,1.89-3,5.61S20.08,79.25,21,80c1.3-.1,4-.52,5-1.28C30.17,75.51,28.35,70.09,24.52,69.9Z" style="fill:none;stroke:#000;stroke-linejoin:round;stroke-width:0.5730000138282776px"/><path d="M74,107.42c3.63-4,6.25-12,6.25-12l5.67,5.41-4,10.33S72.5,109,74,107.42" style="fill:#231f20"/><path d="M81.42,101.16l.45.14.25.08.12,0,.43.14.53.19.45.17.52.2.65.28.63.31A3.7,3.7,0,0,1,86,103c.19.15.38.29.56.46a2.44,2.44,0,0,1,.55.82,3.91,3.91,0,0,1,.28,1.15,7.28,7.28,0,0,1,0,.81,3.27,3.27,0,0,1,0,.4,1,1,0,0,0,0,.15s0,.05,0,.08c0,.19,0,.38-.06.57s0,.18,0,.27,0,.18,0,.28,0,.1,0,.15,0,.22-.08.34,0,.08,0,.13a.63.63,0,0,1,0,.1c0,.08,0,.16-.06.25l-.11.41c0,.06,0,.13-.05.2a.65.65,0,0,0,0,.16.94.94,0,0,1,0,.14c0,.1-.07.19-.09.28v0c0,.09-.06.19-.09.28l0,.06s0,.08,0,.12l-.19.5a1,1,0,0,1-.07.19c-.05.08-.07.18-.12.26a1.09,1.09,0,0,0-.07.14l-.08.16a.28.28,0,0,0-.05.1.2.2,0,0,1,0,.07c0,.05-.06.11-.09.16l0,.07-.09.15s0,0,0,0-.07.09-.1.14a1.26,1.26,0,0,1-.1.13c-.06.08-.14.15-.19.24a.26.26,0,0,0-.09.09,2.29,2.29,0,0,1-.24.23l-.13.13-.11.08-.11.08-.22.15a2.24,2.24,0,0,1-.3.17l-.27.13-.2.08-.31.1-.3.08-.37.07-.27,0-.44,0h-.74l-.29,0h-.11l-.15,0h-.12l-.29,0-.25,0a.91.91,0,0,0-.16,0h0l-.23-.06-.17,0-.15,0-.14,0-.18-.05L78.6,114l-.29-.09-.22-.08-.2-.06-.36-.13-.25-.1-.19-.09-.12,0-.36-.18c-.16-.08-.31-.17-.47-.26l-.51-.33a4.54,4.54,0,0,1-.37-.28l-.25-.21-.35-.34-.21-.24-.13-.18a4,4,0,0,1-.26-.39l-.15-.27s0-.1-.07-.15-.1-.24-.14-.36a.89.89,0,0,1,0-.15,2.31,2.31,0,0,0-.06-.23,2.21,2.21,0,0,1,0-.25c0-.09,0-.19,0-.28s0-.25,0-.37,0-.23,0-.34a5.81,5.81,0,0,1,.07-.66c0-.17.07-.33.09-.5a.6.6,0,0,1,0-.1s0-.08,0-.13,0-.16.07-.24l.08-.25a.63.63,0,0,1,0-.15.89.89,0,0,0,.08-.21c.07-.24.17-.47.25-.71s.08-.18.12-.27l0-.09a.51.51,0,0,1,.07-.16.19.19,0,0,0,0-.1v0s0-.08.06-.12l0-.06a.8.8,0,0,1,.08-.19.15.15,0,0,0,0,0,.22.22,0,0,1,0-.09.07.07,0,0,0,0-.06.07.07,0,0,1,0-.06s0,0,0-.05l0-.08a.48.48,0,0,0,.07-.15c0-.05,0-.08.06-.12l0,0a1.31,1.31,0,0,1,.13-.24l.13-.24c0-.08.09-.17.14-.24l.21-.34c.11-.17.21-.34.33-.5s.19-.24.29-.35a5.92,5.92,0,0,1,.53-.53,3.52,3.52,0,0,1,.38-.3,3.08,3.08,0,0,1,.4-.23,2.46,2.46,0,0,1,.69-.21l.43,0c.21,0,.41,0,.61,0a2.39,2.39,0,0,1,.41,0l.54.1.58.14.55.15h0Zm.47,2.83h0l-.23-.07-.8-.27-1.21-.41-1.05-.36s0,0-.06,0l-.22.59a.08.08,0,0,0,0,.07l.06.13a.09.09,0,0,0,.06.06l.26.09,1.08.36.87.29.66.22.53.18.87.29.57.19.83.28c.24.08.46.18.71.24a.06.06,0,0,0,.06,0l.13-.09a.17.17,0,0,0,.09-.13l.11-.49c0-.06,0-.06,0-.08l-.67-.23-.81-.28-.8-.27-1-.34" style="fill:#059ad6"/><path d="M117.61,51.81c.36-2.15,2.77-15.69,3-17.82L113,31.23c-.36,3.34-3.64,15.36-4.39,18.91Z" style="fill:#094791"/><path d="M78.57,103l-.09.08-.2.54a.08.08,0,0,0,0,.07l.06.13a.09.09,0,0,0,.06.06l.26.09,1.1.37.88.3.67.23.54.18.89.3.58.2.85.28c.23.08.46.18.7.24l.31-.24a7.77,7.77,0,0,0,.61-.53c10.12-8.63,20.28-22.67,27.68-41.66l-8-1.79C99.31,77.52,86.7,95.49,78.57,103" style="fill:#094791"/><path d="M78.6,102.84s0,0-.06,0l0,.06.09-.08h0" style="fill:#059ad6"/></g><g style="clip-path:url(#clip-path-3)"><path d="M114.79,31.36S113,42,109.11,56.3c-4.73,17.32-16.11,35.53-30,48.26" style="fill:none;stroke:#f16522;stroke-miterlimit:10;stroke-width:0.5490000247955322px"/><path d="M119.27,32.92s-4.1,45-37,73.77" style="fill:none;stroke:#f16522;stroke-miterlimit:10;stroke-width:0.5490000247955322px"/></g><g style="clip-path:url(#clip-path-4)"><path d="M114.83,31.22s-1.76,10.63-5.67,24.94c-4.73,17.32-16.11,35.53-30,48.26" style="fill:none;stroke:#f16522;stroke-miterlimit:10;stroke-width:0.5490000247955322px"/><path d="M119.32,32.78s-4.1,45-37,73.77" style="fill:none;stroke:#f16522;stroke-miterlimit:10;stroke-width:0.5490000247955322px"/></g><g style="clip-path:url(#clip-path-2)"><path d="M115.92,45.28C111,43.64,109,44,107.42,47a45.06,45.06,0,0,0-2.4,8.57c-.19,1.11-1.25,7.58-.93,9.14a4.15,4.15,0,0,0,.76,2.1,7.36,7.36,0,0,0,6.6,2c.82-.21,2.63-1.6,4.16-5a105.79,105.79,0,0,0,4-12.14,5.15,5.15,0,0,0-3.71-6.46m-5.83,1.19,8.08,2-.72,3-8.08-2Z" style="fill:#059ad6"/><path d="M174.89,121.75c-1-6.74,3.36-12.4,4.28-19.42,1.33-10.2-10.77-17.06-19.69-16-5.43.65-10.6,4.76-11.33,10.18s2.87,10.64,2.67,16.12c-.14,3.88-2.19,7.47-2.56,11.34-.73,7.56,6.05,10.83,7.4,17.52,1.71,8.47,5.3,19.13,13.63,7.16l7.85-11.28a9.46,9.46,0,0,0,1.78-3.53c.52-2.78-1.45-5.32-2.69-7.87a14.49,14.49,0,0,1-1.34-4.24" style="fill:#fff"/><path d="M174.89,121.75c-1-6.74,3.36-12.4,4.28-19.42,1.33-10.2-10.77-17.06-19.69-16-5.43.65-10.6,4.76-11.33,10.18s2.87,10.64,2.67,16.12c-.14,3.88-2.19,7.47-2.56,11.34-.73,7.56,6.05,10.83,7.4,17.52,1.71,8.47,5.3,19.13,13.63,7.16l7.85-11.28a9.46,9.46,0,0,0,1.78-3.53c.52-2.78-1.45-5.32-2.69-7.87A14.49,14.49,0,0,1,174.89,121.75Z" style="fill:none;stroke:#000;stroke-linejoin:round;stroke-width:0.43700000643730164px"/><path d="M213.19,36.16c1,8.45,8.9,13.91,11.82,21.57,5.08,13.33-9.39,18.15-15.7,26.73-2.49,3.39-3.84,7.91-2.45,11.88,2.08,6,9,6.9,14.28,8.05,7.41,1.62,13.69,5.21,19.65,9.84,10.13,7.88,19.66,17.58,33,19.25,3.71.46,7.77.16,10.72-2.14,5.72-4.46,4.17-13.71,10.88-17.29,7.07-3.77,16.62.17,23.9,1.29,4.31.66,9.28,0,12.07-3.32,7.82-9.38-7.16-21,.68-30.55,7.37-9,19.76-11.62,29-18,2.78-1.93,5.55-4.37,6.24-7.69,1-4.89-2.73-8.36-4.17-12.62-1.76-5.24-.76-11.07.76-16.23" style="fill:none;stroke:#000;stroke-linejoin:round;stroke-width:0.43700000643730164px"/><path d="M387.32,27.07c.49,10.07-.54,20.33-4,29.84-3.41,9.25-9.19,15.69-15.26,23.25a13,13,0,0,0-2.48,4.16C363,92.43,375.6,92.57,377.37,98.8c.64,2.25-.32,4.67-1.7,6.55-2.33,3.2-7.77,6.91-6.64,11.54a6,6,0,0,0,4.18,4c3.29,1,7.24.48,10.64.54,7.09.11,12.28.25,18.26,4.74" style="fill:none;stroke:#000;stroke-linejoin:round;stroke-width:0.43700000643730164px"/><path d="M51,43c-1.77,2.12-1.15,4.19-1.86,5.81-.3.69,3-.3,3.51-.37,4.12-.6,5.79-4,5.57-5.84-.13-1.08-5.2-2-7.22.4" style="fill:#fff"/><path d="M51,43c-1.77,2.12-1.15,4.19-1.86,5.81-.3.69,3-.3,3.51-.37,4.12-.6,5.79-4,5.57-5.84C58.06,41.55,53,40.61,51,43Z" style="fill:none;stroke:#000;stroke-linejoin:round;stroke-width:0.43700000643730164px"/><path d="M49.84,45.27c-.1,3.14,3.67,3.21,6,1.95" style="fill:#fff"/><path d="M49.84,45.27c-.1,3.14,3.67,3.21,6,1.95" style="fill:none;stroke:#000;stroke-linejoin:round;stroke-width:0.43700000643730164px"/><path d="M162.1,246.74c-.05,1.74,2.06,2.58,3.76,2.94l14.05,2.93" style="fill:none;stroke:#000;stroke-linejoin:round;stroke-width:0.43700000643730164px"/><path d="M190.69,239.45c6.11-.21,14.81-1.74,20-5" style="fill:none;stroke:#000;stroke-linejoin:round;stroke-width:0.43700000643730164px"/><path d="M187.87,241.77s-4.86,5.72-5.52,7.87" style="fill:none;stroke:#000;stroke-linejoin:round;stroke-width:0.43700000643730164px"/><path d="M334.95,241.13c2.15,2.6,6,2.24,9.33,2.33,4.45.11,12.44-3.59,16.66-5" style="fill:none;stroke:#000;stroke-linejoin:round;stroke-width:0.43700000643730164px"/><path d="M385.56,244.58c4.43,1.07,9-.75,13.17-2.59s8.64-3.8,13.13-3" style="fill:none;stroke:#000;stroke-linejoin:round;stroke-width:0.43700000643730164px"/></g><g style="clip-path:url(#clip-path-2)"><path d="M155.18,50A1.8,1.8,0,0,0,156.54,53a43.12,43.12,0,0,1,42.34,43.8,1.8,1.8,0,0,0,3.6.06A46.72,46.72,0,0,0,156.6,49.39a1.8,1.8,0,0,0-1.42.65" style="fill:#0096cf"/><path d="M151.66,60.46A1.8,1.8,0,0,0,153,63.4a35.79,35.79,0,0,1,35.14,36.35,1.8,1.8,0,0,0,3.6.06,39.39,39.39,0,0,0-38.68-40,1.8,1.8,0,0,0-1.42.65" style="fill:#0096cf"/><path d="M149,70.77a1.83,1.83,0,0,0-.42,1.11,1.7,1.7,0,0,0,1.7,1.78,26.88,26.88,0,0,1,26.9,28,1.7,1.7,0,0,0,1.7,1.78,1.84,1.84,0,0,0,1.82-1.78A30.28,30.28,0,0,0,150.36,70.1a1.82,1.82,0,0,0-1.4.67" style="fill:#0096cf"/><path d="M129.89,169.16s0,0-.05,0,0,0,0,.07l.07-.11Z" style="fill:#059ad6"/><path d="M523.8,202.75c-4-1.16-8.42,0-12.56-1.2-16-4.64-23.16-22.19-25.33-37.1-1.12-7.65-.85-15.43-1.64-23.11-4.71-45.28-21.75-58.48-21.75-58.48l-18.41,9s18.57,8.63,27.81,27a4.3,4.3,0,0,1,.3.6A47.25,47.25,0,0,1,477,141.63c-.49,19.63,1.82,34.07,6.68,45,.74,2.16,9.5,26.7,27.39,30.81,10.9,2.5,14.38-1,13.83,3.14s16.63-12.72-1.1-17.81" style="fill:#fff"/><path d="M523.8,202.75c-4-1.16-8.42,0-12.56-1.2-16-4.64-23.16-22.19-25.33-37.1-1.12-7.65-.85-15.43-1.64-23.11-4.71-45.28-21.75-58.48-21.75-58.48l-18.41,9s18.57,8.63,27.81,27a4.3,4.3,0,0,1,.3.6A47.25,47.25,0,0,1,477,141.63c-.49,19.63,1.82,34.07,6.68,45,.74,2.16,9.5,26.7,27.39,30.81,10.9,2.5,14.38-1,13.83,3.14S541.53,207.84,523.8,202.75Z" style="fill:none;stroke:#000;stroke-linejoin:round;stroke-width:0.4350000023841858px"/><path d="M465.66,231.17l.08-.06c-5.9,7.79-6.85,11.12-12,23.22-5.42,12.6-11.28,34.76-15.18,38.45-4.23,4-14.58,2-16.82,1.51-.45-.1,4-6.61,4-6.61s-4.41,3.54-7.65,4.73c0,0,6.82-12.59,6.93-12.61a30.69,30.69,0,0,0,3.61-8.26c.58-1.82,2.2-6.58,2.2-6.6,1.19-3.82,3.87-19.11,4.11-25.76.24-18.06-1.53-13.31-2.75-19.82-2.87-17-1.69-25.39-1.69-25.39s2.64-9.6,17-12A16.61,16.61,0,0,1,466.33,192c-5.26,17-3.74,12,.74,32.51.75,3.37,1.76,3-1.41,6.65" style="fill:#fff"/><path d="M465.66,231.17l.08-.06c-5.9,7.79-6.85,11.12-12,23.22-5.42,12.6-11.28,34.76-15.18,38.45-4.23,4-14.58,2-16.82,1.51-.45-.1,4-6.61,4-6.61s-4.41,3.54-7.65,4.73c0,0,6.82-12.59,6.93-12.61a30.69,30.69,0,0,0,3.61-8.26c.58-1.82,2.2-6.58,2.2-6.6,1.19-3.82,3.87-19.11,4.11-25.76.24-18.06-1.53-13.31-2.75-19.82-2.87-17-1.69-25.39-1.69-25.39s2.64-9.6,17-12A16.61,16.61,0,0,1,466.33,192c-5.26,17-3.74,12,.74,32.51C467.82,227.89,468.83,227.55,465.66,231.17Z" style="fill:none;stroke:#000;stroke-linejoin:round;stroke-width:0.4350000023841858px"/><path d="M443.24,283.75c-1.23-.71-.67-.15-8.52,0a17.77,17.77,0,0,1-10.24-3.22" style="fill:#fff"/><path d="M443.24,283.75c-1.23-.71-.67-.15-8.52,0a17.77,17.77,0,0,1-10.24-3.22" style="fill:none;stroke:#000;stroke-linejoin:round;stroke-width:0.4350000023841858px"/><path d="M234.43,226.27l.08-.06c-5.9,7.79-6.85,11.12-12,23.22-4,9.33-6.59,19.24-9.92,28.81-1.28,3.67-2.4,8.07-5.1,11-3.83,4.15-11.61,2.54-16.87-.3-.23-.13,3.18-5.26,3.18-5.26s-3,3.72-6.51,3.68c0,0,6.43-12.43,6.53-12.45a30.67,30.67,0,0,0,3.61-8.26c.58-1.82,2.2-6.58,2.2-6.6,1.18-3.82,3.87-19.1,4.11-25.76.24-18.06-1.53-13.31-2.74-19.82-2.87-17-1.69-25.39-1.69-25.39s2.64-9.6,17-12a16.6,16.6,0,0,1,18.85,10.05c-5.25,17.07-3.75,12,.74,32.51.75,3.37,1.76,3-1.41,6.65" style="fill:#fff"/><path d="M234.43,226.27l.08-.06c-5.9,7.79-6.85,11.12-12,23.22-4,9.33-6.59,19.24-9.92,28.81-1.28,3.67-2.4,8.07-5.1,11-3.83,4.15-11.61,2.54-16.87-.3-.23-.13,3.18-5.26,3.18-5.26s-3,3.72-6.51,3.68c0,0,6.43-12.43,6.53-12.45a30.67,30.67,0,0,0,3.61-8.26c.58-1.82,2.2-6.58,2.2-6.6,1.18-3.82,3.87-19.1,4.11-25.76.24-18.06-1.53-13.31-2.74-19.82-2.87-17-1.69-25.39-1.69-25.39s2.64-9.6,17-12a16.6,16.6,0,0,1,18.85,10.05c-5.25,17.07-3.75,12,.74,32.51C236.59,223,237.6,222.66,234.43,226.27Z" style="fill:none;stroke:#000;stroke-linejoin:round;stroke-width:0.4350000023841858px"/><path d="M212.32,278.91a56.47,56.47,0,0,1-8.23-.67,15.38,15.38,0,0,1-9.22-4.85" style="fill:#fff"/><path d="M212.32,278.91a56.47,56.47,0,0,1-8.23-.67,15.38,15.38,0,0,1-9.22-4.85" style="fill:none;stroke:#000;stroke-linejoin:round;stroke-width:0.4350000023841858px"/><path d="M126.24,85.65l.33,0a28.08,28.08,0,0,0-.83-8.92c-1.3-4.14-4.19-4.64-6.9-3.11s-3.4,2.94-8.86,4.77a29,29,0,0,0-3.52,1.31" style="fill:#fff"/><path d="M126.24,85.65l.33,0a28.08,28.08,0,0,0-.83-8.92c-1.3-4.14-4.19-4.64-6.9-3.11s-3.4,2.94-8.86,4.77a29,29,0,0,0-3.52,1.31" style="fill:none;stroke:#000;stroke-linejoin:round;stroke-width:0.4350000023841858px"/><path d="M437.09,204.47c-.62,5.45-3.44,10.57-4.3,13.22-1,3.05-2,5.26-2.78,7.06-1.83,4.13-2.83,6.11-2.06,11.13,0,0,1.95,7.4-4.88,6.68-3.38-.36-3.83-5-5.92-7.25-4.25,1.34-9-.26-9.05-.28.34,2,.94,5.88-.14,7.64a2.14,2.14,0,0,1-.94.86c-3.94,1.19-5.52-4.67-7.06-9.33-1.08-3.28-6.63-4.59-9.36-5.85-4.39-2-9.1-4.67-12.18-8.51-8.23-10.27,7-16.59,14.73-19.73,14.73-6,30.81-5,43.95,4.35" style="fill:#fff"/><path d="M437.09,204.47c-.62,5.45-3.44,10.57-4.3,13.22-1,3.05-2,5.26-2.78,7.06-1.83,4.13-2.83,6.11-2.06,11.13,0,0,1.95,7.4-4.88,6.68-3.38-.36-3.83-5-5.92-7.25-4.25,1.34-9-.26-9.05-.28.34,2,.94,5.88-.14,7.64a2.14,2.14,0,0,1-.94.86c-3.94,1.19-5.52-4.67-7.06-9.33-1.08-3.28-6.63-4.59-9.36-5.85-4.39-2-9.1-4.67-12.18-8.51-8.23-10.27,7-16.59,14.73-19.73C407.88,194.1,424,195.09,437.09,204.47Z" style="fill:none;stroke:#000;stroke-linejoin:round;stroke-width:0.4350000023841858px"/><path d="M475.05,245.87c-.05.3-1.62,12-1.39,12.16-1.87,23.28-3.72,35.46-6.47,39.65-2.19,3.34-11.4,6.53-17.84,3.23-.43-.22,3-7.74,3-7.74s-4.35,5.5-6.09,5c0,0,15.55-38.76,1-62.17-12.15-14.08-19.28-31.64-19.86-32.48-12.58-7.58-62.33,18.73-79.5,20.09-6.63,2.09-35.21,1.47-42.92-1.7-5.22-2.15-15.9-7.87-37.79-13.56-3.68-1-8.19,5.54-18.83,5.86-1.84.84-3.88,12.05-6.93,22.64-3.71,12.91-8.31,26.34-8.35,37.13,0,3.29,3.61,19.49-3.15,27-4.42,4.91-15.49,2.26-18.41-.5-.12-.11,3.18-6.1,3.18-6.1s-2.93,4.26-6.34,4.38c-.05,0,3.43-10.91,7.12-21.87a1.36,1.36,0,0,0,.07-.21.43.43,0,0,0,0-.12c2.78-12.44,4.69-25.36-2.53-36.34-1.44-4.47-5.88-14.4-6.08-14.76-2.28-4.12-13.59-8.4-17.64-10.93l-22.62-14.1c-7.42-4.62-9.35-10.28-12-18.23-2.21-6.72-3.49-9.68-9.84-12.87-3.14-.21-6.27-2.1-8.66-3.69a104.51,104.51,0,0,1-9.65-5.08c-1.05-.64-9.07-8.44-17.63-9.08-.28,0-.55,0-.83,0-12.93-.22-27.25,8-27.37,8-4.84-.1-7.42,4.2-15,2.63a11,11,0,0,1-8.49-3.42c-.07,0-1.64-.7-1.71-.73-2.2-1-5.29-2.77-6-5.09a11.6,11.6,0,0,1-2.9-7.75,4.2,4.2,0,0,1,1-1.94c6.07-8.41,17.35-14,21.7-23.74.13-.31,7.7-25.59,10.73-28.21.07-.06,1.21-.81,1.29-.87,10.48-7.09,10.32-9.46,15-10.67a19.56,19.56,0,0,1,4.89-.33c14.66,0,15.77,8.94,67.39,7.78,5.11-.14,5.73.08,12.44-2.42,6.17-2.33,12.91-4.89,24.48-5.34,2.49-.92,20.59-3.45,28.46-2.92,38.56,2.56,34.18,10.56,82.29,6,1.4,0,22.16-1.28,28.75-3,.51-.12,1.51-.58,1.94-.7,46-13.8,69.32.93,78.25-.76,19.16-3.6,19.34-4.19,29.54.08,19.17,7.88,20,27.41,19.4,45.94-1.15,42.52-9.84,66.06-4.51,72.71,5.88,7.26,8.44,13.65,10.9,15.44,5.14,4-3.69,22.47-5.36,33.77" style="fill:#fff"/><path d="M475.05,245.87c-.05.3-1.62,12-1.39,12.16-1.87,23.28-3.72,35.46-6.47,39.65-2.19,3.34-11.4,6.53-17.84,3.23-.43-.22,3-7.74,3-7.74s-4.35,5.5-6.09,5c0,0,15.55-38.76,1-62.17-12.15-14.08-19.28-31.64-19.86-32.48-12.58-7.58-62.33,18.73-79.5,20.09-6.63,2.09-35.21,1.47-42.92-1.7-5.22-2.15-15.9-7.87-37.79-13.56-3.68-1-8.19,5.54-18.83,5.86-1.84.84-3.88,12.05-6.93,22.64-3.71,12.91-8.31,26.34-8.35,37.13,0,3.29,3.61,19.49-3.15,27-4.42,4.91-15.49,2.26-18.41-.5-.12-.11,3.18-6.1,3.18-6.1s-2.93,4.26-6.34,4.38c-.05,0,3.43-10.91,7.12-21.87a1.36,1.36,0,0,0,.07-.21.43.43,0,0,0,0-.12c2.78-12.44,4.69-25.36-2.53-36.34-1.44-4.47-5.88-14.4-6.08-14.76-2.28-4.12-13.59-8.4-17.64-10.93l-22.62-14.1c-7.42-4.62-9.35-10.28-12-18.23-2.21-6.72-3.49-9.68-9.84-12.87-3.14-.21-6.27-2.1-8.66-3.69a104.51,104.51,0,0,1-9.65-5.08c-1.05-.64-9.07-8.44-17.63-9.08-.28,0-.55,0-.83,0-12.93-.22-27.25,8-27.37,8-4.84-.1-7.42,4.2-15,2.63a11,11,0,0,1-8.49-3.42c-.07,0-1.64-.7-1.71-.73-2.2-1-5.29-2.77-6-5.09a11.6,11.6,0,0,1-2.9-7.75,4.2,4.2,0,0,1,1-1.94c6.07-8.41,17.35-14,21.7-23.74.13-.31,7.7-25.59,10.73-28.21.07-.06,1.21-.81,1.29-.87,10.48-7.09,10.32-9.46,15-10.67a19.56,19.56,0,0,1,4.89-.33c14.66,0,15.77,8.94,67.39,7.78,5.11-.14,5.73.08,12.44-2.42,6.17-2.33,12.91-4.89,24.48-5.34,2.49-.92,20.59-3.45,28.46-2.92,38.56,2.56,34.18,10.56,82.29,6,1.4,0,22.16-1.28,28.75-3,.51-.12,1.51-.58,1.94-.7,46-13.8,69.32.93,78.25-.76,19.16-3.6,19.34-4.19,29.54.08,19.17,7.88,20,27.41,19.4,45.94-1.15,42.52-9.84,66.06-4.51,72.71,5.88,7.26,8.44,13.65,10.9,15.44C485.55,216.08,476.72,234.57,475.05,245.87Z" style="fill:none;stroke:#000;stroke-linejoin:round;stroke-width:0.4350000023841858px"/><path d="M243.24,172.17c-1-6.7,3.34-12.33,4.26-19.3,1.33-10.13-10.71-17-19.57-15.89-5.39.65-10.54,4.73-11.27,10.11s2.86,10.58,2.65,16c-.14,3.86-2.17,7.43-2.54,11.27-.72,7.51,6,10.76,7.36,17.41,1.7,8.42,5.27,19,13.55,7.12l7.8-11.21a9.43,9.43,0,0,0,1.77-3.51c.52-2.76-1.44-5.29-2.67-7.82a14.41,14.41,0,0,1-1.33-4.21" style="fill:#fff"/><path d="M243.24,172.17c-1-6.7,3.34-12.33,4.26-19.3,1.33-10.13-10.71-17-19.57-15.89-5.39.65-10.54,4.73-11.27,10.11s2.86,10.58,2.65,16c-.14,3.86-2.17,7.43-2.54,11.27-.72,7.51,6,10.76,7.36,17.41,1.7,8.42,5.27,19,13.55,7.12l7.8-11.21a9.43,9.43,0,0,0,1.77-3.51c.52-2.76-1.44-5.29-2.67-7.82A14.41,14.41,0,0,1,243.24,172.17Z" style="fill:none;stroke:#000;stroke-linejoin:round;stroke-width:0.4350000023841858px"/><path d="M282.12,83.34c.89,8.42,8.6,14,11.36,21.65,4.81,13.34-9.66,17.86-16.08,26.29-2.54,3.32-4,7.79-2.65,11.76,2,6,8.82,7,14,8.26,7.33,1.74,13.51,5.42,19.35,10.13,9.93,8,19.22,17.82,32.49,19.73,3.68.53,7.72.3,10.69-1.94,5.76-4.33,4.39-13.55,11.13-17,7.09-3.61,16.51.46,23.73,1.71,4.28.74,9.22.2,12.06-3.08,7.93-9.18-6.74-20.95,1.22-30.35,7.48-8.83,19.85-11.19,29.16-17.4,2.8-1.87,5.6-4.25,6.34-7.53,1.09-4.84-2.56-8.35-3.91-12.62-1.65-5.23-.56-11,1-16.11" style="fill:none;stroke:#000;stroke-linejoin:round;stroke-width:0.4350000023841858px"/><path d="M454.38,78.07c.48,10-.53,20.21-4,29.66-3.39,9.2-9.13,15.6-15.17,23.11a12.92,12.92,0,0,0-2.47,4.14c-2.49,8.06,10,8.2,11.76,14.39.64,2.23-.32,4.64-1.69,6.51-2.32,3.17-7.72,6.87-6.59,11.47a5.93,5.93,0,0,0,4.15,3.94c3.27,1,7.19.48,10.58.53,7,.11,12.2.25,18.15,4.72" style="fill:none;stroke:#000;stroke-linejoin:round;stroke-width:0.4350000023841858px"/><path d="M108.83,90.61c4.62-5.81,4-5.6,9.72-5.65s10.1,0,13.15-.61,2.4-.41,2.34,3.94-2.71,12-5.58,15.31-8.73,3.64-12.86,3.37a24.92,24.92,0,0,1-7.48-1.71s-3.92-8.84.71-14.65" style="fill:#fff"/><path d="M108.83,90.61c4.62-5.81,4-5.6,9.72-5.65s10.1,0,13.15-.61,2.4-.41,2.34,3.94-2.71,12-5.58,15.31-8.73,3.64-12.86,3.37a24.92,24.92,0,0,1-7.48-1.71S104.21,96.42,108.83,90.61Z" style="fill:none;stroke:#000;stroke-linejoin:round;stroke-width:0.4350000023841858px"/><path d="M126.1,92.69c.87-6.14-8.32-.54-10,.37s-4.25,2.62-4.32,4.9a46.1,46.1,0,0,0,.45,5.29s6.18.08,8.69-1.67a13.9,13.9,0,0,0,5.2-8.89" style="fill:#fff"/><path d="M126.1,92.69c.87-6.14-8.32-.54-10,.37s-4.25,2.62-4.32,4.9a46.1,46.1,0,0,0,.45,5.29s6.18.08,8.69-1.67A13.9,13.9,0,0,0,126.1,92.69Z" style="fill:none;stroke:#000;stroke-linejoin:round;stroke-width:0.4350000023841858px"/><path d="M82.62,112.34c-1.76,2.11-1.14,4.17-1.85,5.77-.3.68,3-.3,3.49-.37,4.1-.59,5.76-4,5.53-5.8-.13-1.08-5.17-2-7.18.4" style="fill:#fff"/><path d="M82.62,112.34c-1.76,2.11-1.14,4.17-1.85,5.77-.3.68,3-.3,3.49-.37,4.1-.59,5.76-4,5.53-5.8C89.66,110.87,84.63,109.94,82.62,112.34Z" style="fill:none;stroke:#000;stroke-linejoin:round;stroke-width:0.4350000023841858px"/><path d="M233.85,286.32c-7.39,2.2-15.88,3.93-21.45.1" style="fill:#fff"/><path d="M233.85,286.32c-7.39,2.2-15.88,3.93-21.45.1" style="fill:none;stroke:#000;stroke-linejoin:round;stroke-width:0.4350000023841858px"/><path d="M471.15,284.48c-7.39,2.2-15.52,5-21.09,1.15" style="fill:#fff"/><path d="M471.15,284.48c-7.39,2.2-15.52,5-21.09,1.15" style="fill:none;stroke:#000;stroke-linejoin:round;stroke-width:0.4350000023841858px"/><path d="M71,150.91c-3.61-1.8-6.72,2.49-8.24-.54s3.63-9.6-5.29-10.84c-2.51-.35-3.8-.45-6.06.85-3,1.73-5.11,3.26-5,5.52.26,5.35,7.13,12.55,11,12.13,2,5.16,14.72,4.54,16.36.43A6.37,6.37,0,0,0,71,150.91" style="fill:#fff"/><path d="M71,150.91c-3.61-1.8-6.72,2.49-8.24-.54s3.63-9.6-5.29-10.84c-2.51-.35-3.8-.45-6.06.85-3,1.73-5.11,3.26-5,5.52.26,5.35,7.13,12.55,11,12.13,2,5.16,14.72,4.54,16.36.43A6.37,6.37,0,0,0,71,150.91Z" style="fill:none;stroke:#000;stroke-linejoin:round;stroke-width:0.4350000023841858px"/><path d="M55.9,143.49c-2.52-.12-4.47,1.88-2.93,5.57s-1.48,3.72-.53,4.46c1.3-.1,4-.52,5-1.27,4.09-3.18,2.28-8.57-1.52-8.76" style="fill:#fff"/><path d="M55.9,143.49c-2.52-.12-4.47,1.88-2.93,5.57s-1.48,3.72-.53,4.46c1.3-.1,4-.52,5-1.27C61.51,149.06,59.7,143.68,55.9,143.49Z" style="fill:none;stroke:#000;stroke-linejoin:round;stroke-width:0.4350000023841858px"/><path d="M81.49,114.57c-.1,3.12,3.65,3.19,5.95,1.94" style="fill:#fff"/><path d="M81.49,114.57c-.1,3.12,3.65,3.19,5.95,1.94" style="fill:none;stroke:#000;stroke-linejoin:round;stroke-width:0.4350000023841858px"/><line x1="198.54" y1="206.19" x2="208.31" y2="228.58" style="fill:#fff"/><line x1="198.54" y1="206.19" x2="208.31" y2="228.58" style="fill:none;stroke:#000;stroke-linejoin:round;stroke-width:0.4350000023841858px"/><path d="M423.22,184.46s1.14,13.3,4.64,20" style="fill:#fff"/><path d="M423.22,184.46s1.14,13.3,4.64,20" style="fill:none;stroke:#000;stroke-linejoin:round;stroke-width:0.4350000023841858px"/><line x1="250.76" y1="203.63" x2="246.37" y2="218.24" style="fill:#fff"/><line x1="250.76" y1="203.63" x2="246.37" y2="218.24" style="fill:none;stroke:#000;stroke-linejoin:round;stroke-width:0.4350000023841858px"/><path d="M126.62,175.22c2.42-5.18,2.59-14.06,2.59-14.06l7.4,3.7-.88,11.68s-10.09.76-9.11-1.33" style="fill:#231f20"/><path d="M132.21,166.58h1.38l.6,0,.51,0c.2,0,.39,0,.58,0l.74.08.73.12a3.84,3.84,0,0,1,.67.18c.24.09.48.18.7.29a2.59,2.59,0,0,1,.81.65,4.13,4.13,0,0,1,.64,1.07,8,8,0,0,1,.29.8,3.53,3.53,0,0,1,.09.41,1.16,1.16,0,0,0,0,.15s0,.06,0,.09c0,.2.09.4.12.6l0,.28c0,.1,0,.2,0,.3s0,.1,0,.16,0,.24,0,.36,0,.09,0,.14a.62.62,0,0,1,0,.1c0,.09,0,.18,0,.27s0,.29,0,.44,0,.14,0,.21a.7.7,0,0,0,0,.17,1,1,0,0,1,0,.16c0,.1,0,.21,0,.31a.23.23,0,0,1,0,0c0,.1,0,.2,0,.31a.33.33,0,0,1,0,.07s0,.08,0,.13,0,.38,0,.56a1,1,0,0,1,0,.21c0,.1,0,.2,0,.3a1.41,1.41,0,0,0,0,.16c0,.06,0,.12,0,.18a.3.3,0,0,0,0,.12.2.2,0,0,1,0,.09c0,.06,0,.13,0,.19l0,.09c0,.06,0,.12,0,.18s0,0,0,.06a.9.9,0,0,1-.05.17,1.49,1.49,0,0,1-.06.16c0,.1-.09.19-.12.3a.28.28,0,0,0-.07.12,2.28,2.28,0,0,1-.17.31l-.09.17-.09.12-.09.11c-.05.08-.12.14-.18.22a2.3,2.3,0,0,1-.25.26l-.23.21-.17.14-.28.2c-.09.07-.18.12-.28.17a3.12,3.12,0,0,1-.35.19l-.27.11c-.14.07-.29.11-.43.17l-.29.1-.17.05-.29.07-.3.07-.11,0-.15,0-.12,0-.3,0-.27,0a.85.85,0,0,0-.17,0h-2.06l-.41,0-.29,0-.22,0h-.13l-.42-.07c-.19,0-.37-.08-.55-.12l-.61-.18a4.31,4.31,0,0,1-.46-.17l-.32-.14-.46-.24-.28-.18-.19-.14a4.15,4.15,0,0,1-.38-.31l-.24-.23-.11-.13a3.94,3.94,0,0,1-.26-.32l-.09-.14c0-.07-.09-.14-.13-.21a2.25,2.25,0,0,1-.12-.23c0-.09-.08-.18-.12-.27s-.09-.24-.14-.37-.06-.23-.1-.34a5.87,5.87,0,0,1-.14-.68c0-.18,0-.36-.06-.54a.68.68,0,0,1,0-.11s0-.09,0-.14,0-.17,0-.26,0-.18,0-.27a.69.69,0,0,1,0-.16,1,1,0,0,0,0-.24c0-.26,0-.53,0-.79,0-.1,0-.21,0-.31s0-.06,0-.1a.58.58,0,0,1,0-.18.18.18,0,0,0,0-.11s0,0,0,0,0-.1,0-.14a.33.33,0,0,0,0-.07.79.79,0,0,1,0-.22.28.28,0,0,0,0-.05.25.25,0,0,1,0-.11.07.07,0,0,0,0-.07.07.07,0,0,1,0-.06.13.13,0,0,0,0-.06s0-.07,0-.1a.49.49,0,0,0,0-.18c0-.05,0-.09,0-.14s0,0,0,0a1.32,1.32,0,0,1,.05-.28c0-.09,0-.18.05-.28s0-.2.07-.29.07-.27.11-.41.11-.41.18-.61.11-.3.18-.45a6.07,6.07,0,0,1,.37-.7,3.48,3.48,0,0,1,.29-.42,3.72,3.72,0,0,1,.33-.35,2.65,2.65,0,0,1,.63-.42l.43-.17c.2-.08.41-.13.62-.19a2.55,2.55,0,0,1,.43-.08l.58-.06.62,0,.6,0h0Zm1.35,2.72h-.25l-.89,0-1.35,0-1.17,0s0,0-.05,0c0,.22,0,.44,0,.66a.08.08,0,0,0,0,.07l.1.12a.09.09,0,0,0,.08,0h.29l1.2,0,1,0,.73,0,.59,0,1,0,.63,0,.93,0c.26,0,.52,0,.79,0a.06.06,0,0,0,.06,0l.1-.13a.18.18,0,0,0,0-.16c0-.18,0-.35,0-.53s0-.06-.07-.07l-.75,0-.91,0-.89,0-1.1,0" style="fill:#059ad6"/><path d="M153.47,105.52c-.31-2.28-2.07-16.7-2.46-18.93l-8.56-.42c.67,3.49,1.08,16.64,1.42,20.46Z" style="fill:#094791"/><path d="M129.91,169.31l-.07.11c0,.2,0,.41,0,.61a.09.09,0,0,0,0,.07l.1.12a.1.1,0,0,0,.08,0h.29l1.23,0,1,0,.75,0,.6,0,1,0,.64,0,.95,0c.26,0,.52,0,.78,0l.23-.34a8.11,8.11,0,0,0,.45-.72c7.55-11.85,13.46-29.18,15-50.65l-8.6.65c-1.39,17.76-8.56,39.81-14.44,49.91" style="fill:#094791"/></g><g style="clip-path:url(#clip-path-7)"><path d="M144.29,85.75s1.51,11.28,2,27c.59,19-5.26,40.87-15.34,58" style="fill:none;stroke:#f16522;stroke-miterlimit:10;stroke-width:0.5799999833106995px"/><path d="M149.31,85.94s9.79,46.69-14.51,86" style="fill:none;stroke:#f16522;stroke-miterlimit:10;stroke-width:0.5799999833106995px"/></g><g style="clip-path:url(#clip-path-8)"><path d="M144.29,85.59s1.51,11.28,2,27c.59,19-5.26,40.87-15.34,58" style="fill:none;stroke:#f16522;stroke-miterlimit:10;stroke-width:0.5799999833106995px"/><path d="M149.31,85.78s9.79,46.69-14.51,86" style="fill:none;stroke:#f16522;stroke-miterlimit:10;stroke-width:0.5799999833106995px"/></g><g style="clip-path:url(#clip-path-2)"><path d="M149.74,99.46c-5.52-.11-7.35.83-8.06,4.36a47.61,47.61,0,0,0,.23,9.4c.15,1.18,1.08,8,1.89,9.52a4.39,4.39,0,0,0,1.42,1.89c.46.33,4.14,1.94,7.3,0,.76-.46,2.17-2.43,2.66-6.32a111.47,111.47,0,0,0,.3-13.5,5.44,5.44,0,0,0-5.74-5.37m-5.52,3,8.77-.52.19,3.21-8.77.52Z" style="fill:#059ad6"/></g></g></svg>