<?xml version="1.0" encoding="utf-8"?>
<!-- Generator: Adobe Illustrator 21.1.0, SVG Export Plug-In . SVG Version: 6.00 Build 0)  -->
<svg version="1.1" id="Layer_1" xmlns="http://www.w3.org/2000/svg" xmlns:xlink="http://www.w3.org/1999/xlink" x="0px" y="0px"
	 width="491px" height="346.4px" viewBox="0 0 491 346.4" style="enable-background:new 0 0 491 346.4;" xml:space="preserve">
<g>
	<path style="fill:#FFFFFF;stroke:#000000;stroke-width:0.5;stroke-linejoin:round;stroke-miterlimit:10;" d="M334.9,109.1
		c0,0-5.1,8.1-7.2,11.4s-1.8,2.3-3.8,8c-0.6,1.9-1.1,5.5-2,7.3c-1.3,2.6-0.8,5.6-0.9,8.5c0,1.4,0.1,2.7,0.2,4.1c0,0.4,0.2,3,0.2,3
		c-0.9-0.6-1.8-4.8-1.8-4.8l0.4,4.7c0,0-6.3,0.6-8.4-0.9c-0.8-0.5,1.5-7.5,1.5-7.5s0.5-3,0.7-7.5s1.1-8.3,0.4-10.2
		c-0.7-1.9-1.4-3.3-1.4-3.3s0.8-2.6,1.6-4.5c0.8-1.9,0.6-5.6,0.6-5.6"/>
	
		<line style="fill:none;stroke:#000000;stroke-width:0.5;stroke-linejoin:round;stroke-miterlimit:10;" x1="462" y1="61.4" x2="462" y2="61.4"/>
	<path style="fill:#FFFFFF;stroke:#000000;stroke-width:0.5;stroke-linejoin:round;stroke-miterlimit:10;" d="M451.3,24.6
		c-7.3-0.1-15.5-0.1-18.5-1.5c-3.3-1.5-4.8-3.2-4.8-3.2s-6.2-4.2-11.1-4.9c-4.9-0.7-8.8,1.9-12.7,2.3c-3.9,0.4-6,0-12,0.9
		c-6,0.9-14.1,3.9-18.3,5.1c-4.2,1.2-34.7-0.4-39,0.2c-4.2,0.5-9.3,0.4-12.9,2.3c-3.5,1.9-6,1.4-6,1.4s-6.7,1.4-8.1,1.2
		c-1.4-0.2-3.2,3.4-6.9,5.8c-3.7,2.5-4.6,4.4-4.9,8.3c-0.4,3.9-1.2,16.7-0.1,21.9c1.1,5.1-0.7,11.4,0,13.9c0.7,2.5,2.6,8.6-0.7,13.4
		c-3,4.2-9.7,9-9,10.4c0.7,1.4,2.5,19.9,2.5,19.9s0.4,1.2,1,3.2l0,0c0.7,2.5,1.5,6.3,2,10.9c0,0,0,0.1,0,0.1c0,0.1,0,0.1,0,0.2
		c0.1,0.5,0.1,1,0.2,1.5c0.1,1.2,0.2,2.2,0.3,3c0.1,1.2,0.2,2.2,0.2,3c0.1,2,0,2.5,0,2.5s-0.2,2.2-0.1,4.1c0.1,1,0.2,1.9,0.6,2.3
		c1.6,1.7,9.1,0.2,9.1,0.2l-0.4-5c0-0.1,0-0.2,0-0.2"/>
	<path style="fill:#FFFFFF;stroke:#000000;stroke-width:0.5;stroke-linejoin:round;stroke-miterlimit:10;" d="M438.6,74
		C438.6,74,438.6,74,438.6,74c0,0-3.1,2.2-5,6.9c-1.9,4.8-1.7,3-2.6,7.7c-0.9,4.7-2.8,6.6-4,9c-1.7,3.4-2.2,12.2-2.7,14.8
		c-0.4,2.6-0.2,9.7-0.7,12.8c-0.5,3.2-1.4,12.5-0.7,17.5c0.3,1.8,0.6,3.4,0.9,4.8c0.5,2.1,1.1,3.7,1.4,5c0,0,0,0,0,0
		c0.1,0.3,0.2,0.5,0.2,0.8c0.2,0.8,0.5,2.2,0.8,3.6c0.4,2.3,0.7,4.7,0.7,4.7c-1.1-0.1-2-2.4-2.5-3.7c-0.2-0.6-0.3-0.9-0.3-0.9l0.2,1
		l1,4.1c0,0-0.7,0.2-4.5,0.5c-2,0.1-3.7-0.1-4.8-0.3c-0.9-0.2-1.4-0.4-1.4-0.4s0.8-7.3,0.9-9.9c0-0.3,0-0.6,0-0.8
		c-0.1-1.5,0.2-9.5,0.1-11.4s-0.1-5.3-0.6-7.5c-0.5-2.2-3.5-5.5-3.5-6.3c0-0.8,0.7-3.4,0.8-9.1c0.1-3.1-0.2-17.7-0.2-17.7
		s-1.6,1.1-6,1.1c-2.9,0-4.8,0-5.4,0c-0.2,0-0.2,0-0.2,0s0,0.2,0,0.4c0,0,0,0.1,0,0.1c0,1,0,3.3,0,5.6c0.1,3,1.4,14.5,1.1,18.3
		c-0.1,1.1-0.4,3.1-0.6,5.4c-0.3,2.2-0.5,4.8-0.8,7.3c-0.3,3.4-0.4,6.7-0.1,8.6c0.7,4.7,2.2,10.6,2.2,10.6l0.3,2.3l0.6,4.6l0,0
		c-0.9-0.6-1.8-2.9-2.1-3.8c-0.1-0.2-0.1-0.4-0.1-0.4l0,0.4l0.4,4.3c0,0-4.3,1-7.4,0.7c-0.9-0.1-1.5-0.1-2-0.2
		c-1.4-0.1-1.7-0.4-1.7-2.3c0.1-2.6,0.3-7.1,0.3-7.1s1.2-6.4,1.2-9.1c0-1,0-2.8,0.1-4.8c0.1-3.5,0.2-7.5,0.1-9
		c-0.1-1.7-2.5-5.4-3.6-7c-0.4-0.5-0.6-0.8-0.6-0.8l-3.2-22l-0.1-0.4c0,0,0,0-0.1,0c-0.1,0-0.4,0-0.8,0.1c-0.9,0.1-2.4,0.2-3.9,0.6
		c-2.6,0.6-8.3,1.4-12.2,1.6c-1.2,0.1-3.6,0.1-6.2,0c-5.5,0-12.2-0.2-12.2-0.2s-2.1,0-3.8,0.2c-0.1,0-0.2,0-0.3,0
		c-0.6,0.1-1.1,0.2-1.4,0.3c-1.2,0.5-2.6,2.3-3.4,3.8c-0.8,1.6-0.7,2.6-0.8,2.9c-0.1,0.3-0.3,0.4-0.8,0.4c-0.5,0-0.4-1.1-0.4-1.1
		s0.2-2.8-0.8-2.9c-0.7,0-1.4,0.3-2.6,0.9c-0.6,0.3-1.3,0.7-2.2,1.2c-2.5,1.4-5.1,1.5-5.1,1.5l0,3.7c0,0,0.2,0.5-0.6,0.5
		c-0.8,0-1.1-0.5-1.1-0.5v-3.7c0,0-0.2,0.3-2.2,0.4c-2,0.1-3.8,0.2-3.8,0.2v2.9c0,0-0.1,0.8-0.8,0.8c-0.7,0-0.9-0.8-0.9-0.8v-2.9
		c0,0-1.2,0-3-0.7c-0.9-0.3-1.9-0.9-3-1.7c-4.7-3.5-6-8.6-6-8.6s-2.6,2.1-3.7,3.5c-1.1,1.4-2.9,5.7-3.1,6.2
		c-0.2,0.5-0.9,7.1-0.7,11.6c0,0.1,0,0.3,0,0.4v0c0.1,2,0.6,4.9,1.1,7.8c0.3,1.8,0.7,3.5,1,5.1c0,0.1,0,0.2,0.1,0.2
		c0,0.1,0,0.2,0,0.2c0.3,1.7,0.6,3.1,0.8,3.9c0.2,0.9,0.4,2,0.7,3.1c0,0,0,0,0,0c0.1,0.5,0.2,1,0.4,1.5c0.4,1.7,0.8,3.1,0.8,3.1
		l0.1,4.3c-1.1-0.6-1.6-3.8-1.7-4.6"/>
	<path style="fill:#FFFFFF;stroke:#000000;stroke-width:0.5;stroke-linejoin:round;stroke-miterlimit:10;" d="M305.9,101.4
		c0,0,4.9-1.9,8.5-8.1s8.1-12.4,8.1-12.4"/>
	<path style="fill:#FFFFFF;stroke:#000000;stroke-width:0.5;stroke-linejoin:round;stroke-miterlimit:10;" d="M384.6,102.9
		c0,0-0.4-4.2-3.6-8.3c-3.2-4.1-4.3-6.1-5.3-13.3c-1.1-7.5-1.2-9.1-1.2-9.1"/>
	<path style="fill:#FFFFFF;stroke:#000000;stroke-width:0.5;stroke-linejoin:round;stroke-miterlimit:10;" d="M403.7,82
		c-2.1,3-3.6,9-3.5,11.9c0.2,2.8,0.3,8.1,0.3,8.1"/>
	<path style="fill:none;stroke:#000000;stroke-width:0.5;stroke-linejoin:round;stroke-miterlimit:10;" d="M327,24.4
		c-3.1,3.7-6.6,7.4-8.4,12c-0.7,1.8-1.8,5.6-0.5,7.4c1.5,2.2,3.5,0.9,5.6,0.6c2.5-0.4,3.9,0,5.7,2.1c2.4,2.7,4.6,5.6,6,8.9
		c1.8,4,1.3,8.4,0.9,12.6c-0.3,2.8-1.5,9.6,1.3,11.6c1.3,1,3.2-0.2,4-1.6c1.5-2.4,2.8-3.3,5.4-4.1c2.6-0.9,4.4-2.2,6.3-4.1
		c2.1-2.1,2.3-8.9,6.3-8.9c1.7,0,2.8,1.7,3.3,3.2c0.5,1.6,0.8,3.3,2,4.5c2.1,2.1,5.1,0.9,6.8-1.1c2.9-3.5,3.8-8.9,4.5-13.2
		c0.6-4.3-1-5.6-3.3-8.7c-0.6-0.9-0.9-2-1-3.1c-1.4-12.5,9.5-17,17.3-23.9"/>
	<path style="fill:#FFFFFF;stroke:#000000;stroke-width:0.5;stroke-linejoin:round;stroke-miterlimit:10;" d="M437,28.4
		c0,0,5.3,5,5.3,9.3s0.5,3.8,0.6,7.5s-1.8,8.5-1.8,9.8s0.4,1.9-0.1,3.1s-2,3.8-2.7,6.7c-0.7,2.8-2,5.2-2,5.2"/>
	<path style="fill:#FFFFFF;stroke:#000000;stroke-width:0.5;stroke-linejoin:round;stroke-miterlimit:10;" d="M345.3,104.7
		c0,0-8.9,1.4-22.1-3c-13.2-4.4-11.8-4.5-11.8-4.5"/>
	<path style="fill:#FFFFFF;stroke:#000000;stroke-width:0.5;stroke-linejoin:round;stroke-miterlimit:10;" d="M292.6,143.8
		c0,0,1.8,1.1,4.2,0.9s5.3-1.2,5.3-1.2"/>
	<path style="fill:#FFFFFF;stroke:#000000;stroke-width:0.5;stroke-linejoin:round;stroke-miterlimit:10;" d="M313.1,142.9
		c0,0,0.7,0.6,3.3,0.7s4.7-0.4,4.7-0.4"/>
	<path style="fill:#FFFFFF;stroke:#000000;stroke-width:0.5;stroke-linejoin:round;stroke-miterlimit:10;" d="M390.7,155.4
		c0.5,0.2,1.7,0.8,5.6,0.4s5.3-1.2,5.3-1.2"/>
	<path style="fill:#FFFFFF;stroke:#000000;stroke-width:0.5;stroke-linejoin:round;stroke-miterlimit:10;" d="M415.7,153.5
		c0,0,0.5,0.5,3.4,0.5c3,0,6.1-1.4,6.1-1.4"/>
	
		<rect x="290.3" y="127.3" transform="matrix(0.9856 -0.1692 0.1692 0.9856 -17.8182 51.7562)" style="fill:#E7612E;stroke:#1D1D1B;stroke-width:0.4193;stroke-miterlimit:10;" width="9.1" height="6.3"/>
	<g>
		<path style="fill:#0095CE;stroke:#1D1D1B;stroke-width:0.3454;stroke-miterlimit:10;" d="M297.3,135.3l-3.3,0.4
			c-0.8,0.1-1.5-0.5-1.6-1.2l-1-7.9c-0.1-0.8,0.5-1.5,1.2-1.6l3.3-0.4c0.8-0.1,1.5,0.5,1.6,1.2l1,7.9
			C298.6,134.5,298.1,135.2,297.3,135.3z"/>
	</g>
</g>
<g>
	<g>
		<path style="fill:#FFFFFF;stroke:#000000;stroke-width:0.5;stroke-linejoin:round;stroke-miterlimit:10;" d="M246.7,200.3
			c2.5,0.3,5.1,0.7,7.6,1.3c1.5,0.4,3.1,1.1,3.7,2.6c0.7,1.7-0.2,3.4-1.7,4.3c-0.8,0.5-1.7,0.8-2.7,0.8c-0.3,0-1.1,0-1.4-0.3
			c-0.1-0.1-0.1-0.4-0.1-0.5c-0.1-0.6-0.2-1.1-0.4-1.6c-0.4-1.3-1-2.7-2.1-3.5c-0.7-0.5-1.7-0.7-2.5-0.9c-1.4-0.3-2.8-0.6-4.2-0.9
			c-4.5-0.9-9.2-1.5-13.6-3c-3.9-1.3-7.5-3.1-10.9-5.4c-6.9-4.9-12.1-12.4-12.8-20.9c-0.4-5.6,1.2-11,4-15.8c1.4-2.3,3-4.5,4.7-6.6
			c1.3-1.5,3-4.1,5.1-4.3"/>
		<g>
			<path style="fill:#FFFFFF;stroke:#000000;stroke-width:0.5;stroke-linejoin:round;stroke-miterlimit:10;" d="M380.4,177.5
				c0.4-10.5-0.7-21.6-7.8-29.9c-3.2-3.7-7.4-6.5-11.8-8.5c-6.7-3.1-15.1-2.7-22.3-1.5c-1.5,0.3-3.1,0.6-4.6,0.9
				c-1.5,0.3-2.9-0.1-4.4-0.3c-3.4-0.4-6.8-0.3-10.2-0.3c-3.4,0-6.6-0.4-9.9-0.9c-3.7-0.5-7.4-0.8-11-1c-6-0.2-12,0.3-18,0.7
				c-1.3,0.1-2.7,0.2-4,0c-1.4-0.2-2.9-0.6-4.3-0.9c-3.4-0.7-6.9-1.3-10.3-1.7c-3.1-0.4-6.3-0.7-9.4-0.2c-2.9,0.5-5.6,1.4-8.3,2.5
				c-1.5,0.6-3,1.5-4.5,2.1c-2.2,0.9-4.7,1.4-7,2c-3.8,0.9-8.2,0.9-11.3,3.6c-1.4,1.3-2.5,2.9-3.5,4.6c-1.6,2.8-3,5.7-4.3,8.7
				c-0.5,1.1-1.7,2-2.3,3.1c-0.7,1.2-1.3,2.4-1.7,3.7c-0.8,2.4-1.3,5-1.1,7.6c0.2,2.6,1.5,4.7,2.7,6.9c1.6,2.9,3.2,5.8,5.2,8.5
				c1.7,2.4,3.7,4.6,6.3,6.2c1.1,0.7,2.6,0.9,3.8,1.2c5.8,1.7,11.7,3.4,17.6,4.8c2.8,0.7,5.3,1,8.2,0.1c1.9-0.6,3.7-1.4,5.7-1.5
				c4.1-0.3,8.3-0.4,12.5-0.3c2.3,0.1,4.5,0.2,6.8,0.6c0.8,0.1,1.6,0.3,2.4,0.6c0.9,0.3,1.2,1,1.7,1.7c0.5,0.7,0.9,1.1,1.8,1.2
				c0.9,0.1,1.9-0.1,2.8-0.2c2.1-0.4,4.2-1,6.3-1.7c0.5-0.1,1.1-0.2,1.6-0.5c0.9-0.6-0.1-1.6-0.3-2.3c2.1,0.1,4.1,0.2,6.2,0.2
				c0.9,0,2-0.1,2.9,0.1c0.5,0.1,1,0.5,1.6,0.7c1.1,0.5,2.2,0.9,3.4,1.1c2.3,0.5,4.7,0.6,7.1,0.7c2.5,0.1,4.9,0.5,7.3,1
				c2.5,0.4,5,0.9,7.6,1.1c2.8,0.2,5.6,0.1,8.4,0.1c2.7-0.1,5.4-0.2,8.1-0.3c2.3-0.1,4.6-0.2,6.9-0.7c1.1-0.2,2.2-0.6,3.2-1.1
				c0.2-0.1,0.5-0.4,0.7-0.4c0.2,0,0.7,0.4,0.9,0.5c0.6,0.3,1.3,0.5,1.9,0.7c2.1,0.5,4.3,0.3,6.3-0.4c0.9-0.3,1.7-0.7,2.5-1.2
				c0.3-0.2,0.7-0.5,1-0.7c0.3-0.2,0.2-0.2,0.5-0.1c0.1,0,0.3,0.3,0.4,0.3c1.2,0.8,2.8,1,4.2,1c2.7,0,5.4-0.6,8-1.4
				c0.5-0.1,0.4-0.1,0.7-0.5c0.7-1.2,1.1-2.8,1.5-4.2c0.6-2.4,0.9-4.9,0.7-7.4C385,183.2,383.6,179.4,380.4,177.5z"/>
			<g>
				<path style="fill:#FFFFFF;stroke:#000000;stroke-width:0.5;stroke-linejoin:round;stroke-miterlimit:10;" d="M337.1,149.8
					c-0.1,1.3,0.1,2.8-1,3.7c-1,0.8-2.3,0.9-3.3,1.7c-1.2,1-1.3,2.6-1.9,3.9c-0.8,1.6-2.1,2.2-3.8,2.5c-1.7,0.3-3.2,0.9-4.8,1.3
					c-1.8,0.5-3.4-0.2-5-0.9c-1.8-0.7-3.7-1.2-5.6-1.2c-2-0.1-3.7,0.5-5.5,1.2c-1.7,0.6-3.6,1.2-5.4,0.5c-1.4-0.6-2.5-2.1-4-2.4
					c-1.5-0.2-2.7,1-3.9,1.7c-1.6,0.9-3.3,0.7-4.8-0.1c-1.3-0.7-2.3-1.9-3.5-2.6c-1.6-0.9-3.5-0.8-5.2-1.3c-1.6-0.5-2.8-1.5-3-3.2
					c-0.2-1.5,0.2-3.2,0.6-4.7c0.4-1.6,1.1-3.2,2-4.7c1-1.6,2.4-2.5,3.9-3.5c1.2-0.8,1.7-1.4,2.2-2.7c0.1-0.2,0.8-2.4,0.2-2.4
					c4.3-0.4,8.6-0.6,12.9-0.5c2.6,0,5.2,0.2,7.8,0.4c2.8,0.3,5.6,0.8,8.4,1.1c5.1,0.5,10.2-0.2,15.2,0.3c1.5,0.2,2.9,0.6,4.4,0.5
					c1.1-0.1,2.1-0.3,3.1-0.6c1.3-0.3,3.6-1.1,4.1,0.7c0.5,1.7-0.2,3.8-0.8,5.4C339.3,145.9,337.2,147.5,337.1,149.8z"/>
			</g>
			<g>
				<path style="fill:#FFFFFF;stroke:#000000;stroke-width:0.5;stroke-linejoin:round;stroke-miterlimit:10;" d="M274.7,198.1
					c2.4,0,4.8-1,6.9-2c1.9-0.9,5.9-2.5,5.8-5.2c3.4,3.5,6.8,6.9,10.2,10.4c-0.4,0-0.8-0.1-1.2-0.2c-0.4-0.1-0.7-0.2-1-0.4
					c-0.2-0.1-0.9-0.8-0.9-0.7c0,0,0.6,1.4,0.6,1.5c0.3,0.7,0.6,1.1-0.3,1.3c-3,0.5-6.1,0.9-9.1,0.7c-1.3-0.1-2.7-0.3-4-0.7
					c-1.2-0.4-1.9-1.3-2.8-2C277.7,199.6,276.2,198.7,274.7,198.1z"/>
			</g>
		</g>
		<g id="page-second-station-4-head-02">
			<path style="fill:#FFFFFF;stroke:#000000;stroke-width:0.5;stroke-linejoin:round;stroke-miterlimit:10;" d="M382,136
				c-0.1-1.5-0.8-2.8-1.6-3.8c-1.8-2.4-1.2-6.1-3.8-9.2c-1.6-1.9-3.5-2.1-5.1-3c-2.3-2.7-2.5-1.4-4.6-1.7c-4-2.1-3.8,1.2-6,1.2
				c-3,0-6.1,2.5-7.1,5.4c-1,5-2,4.7-3.4,7.2c-2.2,4-2.2,8.2,0.2,11.2c1.3,1.6,0.5,4.7,1.2,6.2c2.9,6.6,3.2,6,3,9.7
				c0,2.6,1,4.5,3,5.8c4,2.8,10.7,2.9,14.4,0.3c1.2-0.8,1.9-2.2,2.3-3.6c1-3.9,3.8-9.8,4.1-10.6c1.1-4,0.6-6.4,1.4-7.7
				C382,140.1,382.2,137.9,382,136z"/>
			<g>
				<path style="fill:#FFFFFF;stroke:#000000;stroke-width:0.5;stroke-linejoin:round;stroke-miterlimit:10;" d="M399.5,129.4
					c-2-1.9-4.6-2.3-9.4-3.4c-0.7-0.2-1.3-0.3-1.9-0.3c-2.8-0.1-5,3.7-8.2,4.7c-0.9-2.2-1.4-5-3.3-7.4c0,0,0,0,0,0
					c3.2,4-2.2,9.2-5,14.1c-1.5,2.6-1.7,11.8-0.8,14.7c0.3,1,2.5,2,2.9,5.8c0.2,1.7,0.3,3.2-0.1,4.4c-0.5,2-1.7,3.4-1.6,3.4
					c1.2-0.8,2-1.9,2.4-3.3c1-3.9,4-10.1,4.2-10.9c1.1-4,0.4-6.3,1.2-7.6c1-1.5,1.6-2.8,2-3.9c2.6,1.5,5.3,4.2,11.1,1.7
					c4.3-0.9,7.1-3.4,7.3-3.5C402.5,136.2,403.3,131.3,399.5,129.4z"/>
				<path style="fill:#FFFFFF;stroke:#000000;stroke-width:0.5;stroke-linejoin:round;stroke-miterlimit:10;" d="M354.3,123.9
					c-2.5,3,3.1,8.7,4.4,13.1c1.2,4.1,1.2,12.5,0.7,13.9c-0.3,0.7-1.3,1.5-2.2,2.8c-0.8,1.2-1.5,2.9-1.5,5.4c0,3.9,0.7,4.6,1.9,5.8
					c-1.9-1.3-3.2-3.3-3.2-5.9c0.1-3.7-0.1-3.1-3.1-9.7c-0.6-1.5,0.4-4.5-0.9-6.1c-0.9-1.1-1.5-2.4-1.8-3.7
					c-1.8-0.3-4.1-0.5-6.9-0.1c-2,0.3-5.7,0.5-6.9-1.3c-3.5-1.5-2.7-4.2-3.3-6c-0.1-0.2-1.3-2.4-1.7-3.2c-0.1-0.6-0.1-1.3,0.1-2
					c0.4-1.2,1.6-2,3.3-2.5c4.7-1.2,6.4-1.3,6.4-1.3c5.2-1.5,6.5,3.1,11.9,6.6c0.7-1,1.4-2.1,2-5c1-2.9,3.7-5.7,6.7-5.7
					c2.3,0,2.6-3.4,6.6-1.3c2.2,0.3,2.3-1,4.6,1.7c1.6,0.9,3.3,1.4,4.9,3.3"/>
				<path style="fill:#FFFFFF;stroke:#000000;stroke-width:0.5;stroke-linejoin:round;stroke-miterlimit:10;" d="M376.5,122.9
					C376.5,122.9,376.6,122.9,376.5,122.9C376.6,122.9,376.6,122.9,376.5,122.9L376.5,122.9z"/>
			</g>
			<g>
				<path style="fill:#FFFFFF;stroke:#000000;stroke-width:0.5;stroke-linejoin:round;stroke-miterlimit:10;" d="M358.7,161.6
					c0.5-0.9-2.8-3.6-0.4-7c0.7-1,2.1-1.7,3.4-1.5c1.1,0.1,7.2,0.1,8.3,0.6c1.9,1,3,4,2,5.8c-1.2,2-1.1,1.6-1.2,2.2
					c-0.1,0.7,0.1,2.8-5,3.2C361.3,165.2,357.9,163,358.7,161.6z"/>
				<path style="fill:#FFFFFF;stroke:#000000;stroke-width:0.5;stroke-linejoin:round;stroke-miterlimit:10;" d="M370.5,156.1
					c-0.2,0.3-0.4,0.6-0.9,0.9c-0.7,0.4-1.9,1.2-0.7,2.1c0.8,0.6,1.6-0.4,1.9-1.4C371.1,156.6,370.6,156,370.5,156.1z"/>
				<path style="fill:#FFFFFF;stroke:#000000;stroke-width:0.5;stroke-linejoin:round;stroke-miterlimit:10;" d="M359.1,155.8
					c-0.1,0-0.7,0.4-0.3,1.6c0.3,1,1,1.3,1.6,1.2c0.6-0.2,1.1-0.7,0.4-1.2C359.3,156.2,359.3,155.7,359.1,155.8z"/>
			</g>
			<g>
				<path style="fill:#FFFFFF;stroke:#000000;stroke-width:0.5;stroke-linejoin:round;stroke-miterlimit:10;" d="M374.3,140.9
					c-0.4-0.2,0.1-2.3,1.2-3.2c1.2-1,2.3-0.7,3.5-0.4c0.7,0.2-0.1,0.4-0.1,0.8c0,0.6-0.3,1.3-1.1,2c-0.5,0.5-1.7,0.6-2.4,0.6
					C374.9,140.6,374.7,141.1,374.3,140.9z"/>
			</g>
			<g>
				<path style="fill:#FFFFFF;stroke:#000000;stroke-width:0.5;stroke-linejoin:round;stroke-miterlimit:10;" d="M356.4,140.9
					c0.4-0.1,0.4-2.2-0.6-3.2c-1.1-1.1-2.2-1.2-3.5-1c-0.7,0.1-0.2,0.5-0.2,0.9c-0.1,0.6,0.2,1.3,0.8,2.1c0.5,0.5,1.6,0.8,2.3,0.9
					C355.8,140.6,355.9,141,356.4,140.9z"/>
			</g>
		</g>
	</g>
	<path style="fill:#FFFFFF;stroke:#000000;stroke-width:0.5;stroke-linejoin:round;stroke-miterlimit:10;" d="M287.5,191.2
		c0-0.5-0.7-1-1-1.3c-1.1-0.8-2.4-1.1-3.7-1.5c-1.4-0.5-2.6-1.1-4-1.2c-3.1-0.2-6.2,0.7-9.3,1.1c-3.7,0.5-7.3,0.9-11,1.1
		c-2.8,0.1-5.8,0.4-8.6-0.1"/>
	<path style="fill:#FFFFFF;stroke:#000000;stroke-width:0.5;stroke-linejoin:round;stroke-miterlimit:10;" d="M356.6,200
		c1.6-1.5,1.8-4,1.6-6c-0.1-2.5-0.8-5-2-7.2c-0.5-0.9-1.1-1.8-1.9-2.5c-1.1-0.9-2.6-1.4-3.9-2c-3.2-1.5-6.2-3.1-9.2-4.9
		c-2.5-1.5-4.9-3.2-7.3-4.8"/>
	<path style="fill:#FFFFFF;stroke:#000000;stroke-width:0.5;stroke-linejoin:round;stroke-miterlimit:10;" d="M336.9,193.1
		c0.6,0.3,1.1,0.3,1.8,1.1"/>
	<path style="fill:#FFFFFF;stroke:#000000;stroke-width:0.5;stroke-linejoin:round;stroke-miterlimit:10;" d="M302.9,171.2
		c-0.3,0.2-0.4,0.8-0.5,1.1c-0.3,0.9-0.6,1.7-0.8,2.6c-0.7,2.5-1.3,5.1-1.6,7.7c-0.3,2.8-0.2,5.3,0.4,8c0.4,1.5,0.7,3.1,1.1,4.6
		c0.3,1,0.6,2.1,1.4,2.9c0.8,0.9,1.8,0.9,2.9,0.9c1.7-0.1,3.4-0.3,5.1-0.6c2.2-0.4,4.3-1,6.4-1.9c1.4-0.6,2.8-1.3,4.2-1.8
		c1.5-0.5,3.1-0.6,4.7-0.7c3.1-0.3,6.1-0.6,9.2-0.8c1.5-0.1,3-0.7,4.5-0.6"/>
	<path style="fill:#FFFFFF;stroke:#000000;stroke-width:0.5;stroke-linejoin:round;stroke-miterlimit:10;" d="M380.5,177.5
		c-0.1,1.3-0.8,2.6-1.3,3.8c-1,2.5-1.7,5.2-2.8,7.6c-1.6,3.6-4,6.9-6.7,9.8"/>
	<path style="fill:#FFFFFF;stroke:#000000;stroke-width:0.5;stroke-linejoin:round;stroke-miterlimit:10;" d="M335.7,170.3
		c0.5,1.8,1.6,3.6,2.9,4.9c1,1,2.2,2.3,3.5,2.9"/>
	<polygon style="fill:#E7612E;stroke:#1D1D1B;stroke-width:0.3728;stroke-miterlimit:10;" points="262.9,197.9 257.8,198.3 
		256.6,189.5 262.1,189.3 	"/>
	<g>
		<path style="fill:#0095CE;stroke:#1D1D1B;stroke-width:0.3728;stroke-miterlimit:10;" d="M254.3,196.2c-0.1-1.1-0.2-2.1-0.3-3.2
			c-0.1-1.1,0.4-2,1.6-2.1c2.4-0.2,4.7-0.4,7.1-0.6c0.9-0.1,2-0.3,2.6,0.6c0.3,0.4,0.2,0.9,0.3,1.4c0.1,0.6,0.1,1.3,0.2,1.9
			c0.1,1.1,0.1,2.3-1.4,2.5c-0.9,0.1-1.9,0.2-2.8,0.2c-1.5,0.1-2.9,0.3-4.4,0.4C256.1,197.6,254.4,197.9,254.3,196.2z"/>
	</g>
</g>
<g>
	
		<path id="page-second-station-4-tail-01" style="fill:#FFFFFF;stroke:#000000;stroke-width:0.5;stroke-linejoin:round;stroke-miterlimit:10;" d="
		M62.3,102.8c4.4-4.7,20.4-8.8,21.8-9.1c-2.2-0.3-7-0.7-12.5,0.8c-4.5,1.1-9.4,3.3-13.6,7.6c-4.7,5.9-7.3,10.5-8.6,14.8
		c-2,6.6-1.1,12.7-0.3,22c0.5,5.2,0.5,10.2,0.3,14.8c-0.2,4.6-0.5,9.5-0.6,14.2c0,1.9-1.8,13.3,2.4,12.5c3.4-0.6,1.9-7.9,2.3-10.2
		c0.6-4.2,0.7-8.2,0.3-12.4c-0.7-8.4-5.4-26.4,0.1-42.2C55.4,111.2,58.7,106.6,62.3,102.8z"/>
	<g>
		<g>
			<path style="fill:#FFFFFF;stroke:#000000;stroke-width:0.5;stroke-linejoin:round;stroke-miterlimit:10;" d="M71.3,200.1
				c2.6-12.9,2.5-20.6,3.9-29.9c1.4-9.3,8.2-29.8,4.5-30.7c-4.2-1-8.3,1.4-12,1c-2.5-0.3-4.7-0.9-7-2.1c-0.1-0.1-0.2,0-0.3,0
				c-0.8,0.7,1.3,10.1,0.9,18.8c-0.5,9.8-4.6,19.4-4.6,19.7c-1.3,2.6-2.5,1.4-2.1,4.6c0.9,6.8,9.6,4.6,8.2,31.8
				c-0.1,1.9,1.6,6.3,1.8,9.3c0.1,1.4,10.4,0.2,8.9-1.6C72.7,219.7,70.3,205.2,71.3,200.1z"/>
		</g>
	</g>
	<g>
		<g>
			<path style="fill:#FFFFFF;stroke:#000000;stroke-width:0.5;stroke-linejoin:round;stroke-miterlimit:10;" d="M195.5,207
				c-2.2-10.8-3.2-19.6-2.4-24c0.8-4.4,2.5-12.8-3.3-14.4c-5-1.4-10.1-0.7-12.4,2.6c-2.6,3.8,0,13.5,2,17.7c0.1,2.2,0.5,1.5,1.3,5.4
				c1,5.1-1.1,5.1,1.7,8.3c1.8,2.1,1.9,2.8,2.8,5.8c1.1,3.6,0.5,11.8,1.6,14.3c0.7,1.6,1.2,4.2,1.6,6.2c0.5,2.1,15.7-1.5,15.1-2.3
				C200.4,221.9,196.8,213.1,195.5,207z"/>
		</g>
		<g>
			<path style="fill:#FFFFFF;stroke:#000000;stroke-width:0.5;stroke-linejoin:round;stroke-miterlimit:10;" d="M188,232.5
				c2.4,0.1,12.6-0.3,12.6-0.3s-1.5-4.7-1.2-4.1c1.2,2.3,2.3,3.9,2.3,3.9l4-0.2c-1.3-4.1-2.8-7.2-3.9-8.6c-1.1-1.5-0.7-1.5-3.6-1.5
				c-4.7-0.1-11.2,1.2-11.2,1.2L188,232.5z"/>
		</g>
	</g>
	<g>
		<path style="fill:#FFFFFF;stroke:#000000;stroke-width:0.5;stroke-linejoin:round;stroke-miterlimit:10;" d="M71.5,174.6
			c0.4,3.1,2.5,5.9,3.2,7.4c0.8,1.7,1.5,2.9,2,3.9c1.3,2.3,2.1,3.4,1.5,6.2c0,0-1.5,4.1,3.6,3.7c2.5-0.2,2.9-2.8,4.4-4.1
			c3.2,0.7,6.7-0.2,6.7-0.2c-0.3,1.1-0.7,3.3,0.1,4.3c0.3,0.4,0.7,0.5,0.7,0.5c0.5,0.1,1,0.2,1.6,0c1.7-0.6,2.7-2.9,3.7-5.2
			c1.2-2.7,5.4-2.8,7.7-3.6c3.2-1.2,6.2-2.9,8.8-5.1c0.9-0.8,1.9-1.8,1.9-3c0-4.3-8.4-5.7-11.5-6.8c-8.7-3-18.2-3.7-27.1-1.1
			C76.4,172.3,73.9,173.4,71.5,174.6z"/>
	</g>
	<g>
		<path style="fill:#FFFFFF;stroke:#000000;stroke-width:0.5;stroke-linejoin:round;stroke-miterlimit:10;" d="M216.2,122.9
			c-2.6-8.2-9.2-16-12.6-17.1c-3.9-2.4-3.9-3-5.3-3.4h0c-4.5-1.2-16.6,1.9-38.1-6.1c-6-2.2-11.6,0.2-17.3-1.4
			c-18.3-5.1-37.9,1.8-47.6,0.7c-4.3-0.5-24.8-8-34.6,6.9c-3.5,5.2-7.1,15.9-4,26.1c0.4,1.4,10.8,31.8,11.7,35.6
			c1.1,4.3,0.2,9.4-0.8,13.7c-0.3,1.2-0.8,2.7-1.2,4.3c0,0,0,0,0,0c-0.7,2.5-1.3,5.2-0.9,7.5c0,0,14,26.4,15.3,38.8
			c0,0,14.3-0.6,12.7-4.7c-3-7.5-13.2-22.9-5.4-34.8c2.8-4.2,5.2-11.2,5.7-13.7c3.7,3.5,21.3,4.9,23.6,5.6
			c13.5,4.1,29.1,1.3,38.2-1.1c4.4-1.2,7.4-2.2,7.8-2.3c-0.1,0.7-0.7,7.2-0.9,14.4c0,0,0,0,0,0c-0.2,6.1-0.1,12.7,0.7,16.7
			c0.4,2-2.4,10.8-3.2,14.4c-0.3,1.2,1.5,2.9,2.7,2.9c0.2,0.7,0.3,4.1,1.3,4.8c2.7,1.9,10.3,1.8,11.8,0.7c2.9-2.2-2.6-6-1.9-15.5
			c0.1-1,6.7-34.1,7-34.2c0,0,0,0,0,0c0.1,0,12.2,2.4,14.7,1.7c7.9,5.5,15.5,1.9,23.3-1.9c4.1-2,10.1-6.9,11.7-11
			C235.8,157.1,217.1,125.8,216.2,122.9z"/>
		<g>
			<path style="fill:none;stroke:#000000;stroke-width:0.5;stroke-linejoin:round;stroke-miterlimit:10;" d="M99.9,95.7
				c-0.4,4.7-4.2,7.9-6.4,11.9c-2.8,5-0.5,10.4-0.5,15.8c0,2.4-0.6,5.1-2.7,6.3c-3.1,1.8-7.7,0.4-7.5,5.7c0.1,3,1.6,5.6,1.5,8.6
				c-0.1,3-1,6-2.7,8.5c-1.3,1.9-2.9,3.4-4.2,5.3c-2.2,3.3-1.6,6.9-2.1,10.7c-0.4,3.3-1.2,6.7-2.5,9.7c-0.7,1.6-4.2,8.3-6.5,4.6"/>
			<path style="fill:none;stroke:#000000;stroke-width:0.5;stroke-linejoin:round;stroke-miterlimit:10;" d="M184.3,102
				c1.6,3,6.1,9.5,3.5,12c-3.5,3.4-7.8,7.1-5.7,12.6c0.6,1.5,1.6,2.9,2.2,4.4c0.2,0.5,0.3,0.9,0.2,1.4c-0.2,0.9-1.3,1.3-2.2,1.5
				c-5.1,0.9-9.6-1.9-13.2-5.1c-3.3-2.9-6.9-7.1-11.4-7.9c-0.5-0.1-1-0.1-1.4,0c-0.7,0.2-1.2,0.7-1.7,1.2c-3.2,2.8-7.3,3.5-11.4,3.5
				c-6.2,0-13.1,0-19.1,1.7c-2.3,0.7-4.3,1.7-6.4,2.8c-1.7,0.9-4,2.3-6.1,1.7c-1-0.3-1.7-1.4-1.7-2.4c-0.2-3.8,3.2-7.4,5-10.5
				c1.1-1.9,1.7-4.5,0.4-6.3c-1.2-1.7-3.5-2-5.4-2.8c-2.1-0.9-3.7-2.5-4.6-4.7c-1.2-3-1-6.6,0-9.6"/>
		</g>
		<g>
			<path style="fill:#FFFFFF;stroke:#000000;stroke-width:0.5;stroke-linejoin:round;stroke-miterlimit:10;" d="M163.7,235.8
				c2.2,0.1,11.2-0.3,11.2-0.3s-1.4-4.7-1.1-4.1c1.1,2.3,2,3.9,2,3.9l3.5-0.2c-1.2-4.1-2.5-7.2-3.5-8.6c-1-1.5-0.6-1.5-3.2-1.5
				c-4.2-0.1-10,1.2-10,1.2L163.7,235.8z"/>
		</g>
		<g>
			<path style="fill:#FFFFFF;stroke:#000000;stroke-width:0.5;stroke-linejoin:round;stroke-miterlimit:10;" d="M81.1,234.4
				c2.4,0.1,12.2-0.3,12.2-0.3s-1.5-4.7-1.2-4.1c1.2,2.3,2.2,3.9,2.2,3.9l3.8-0.2c-1.3-4.1-2.8-7.2-3.8-8.6
				c-1.1-1.5-0.6-1.5-3.5-1.5c-4.6-0.1-10.9,1.2-10.9,1.2L81.1,234.4z"/>
		</g>
	</g>
	<g>
		<path style="fill:#FFFFFF;stroke:#000000;stroke-width:0.5;stroke-linejoin:round;stroke-miterlimit:10;" d="M261.6,175.6
			c-3.5-5-16.1-3-18.5-3.9c-1.7-0.6-3.7-3.7-8.5-2.3c-0.7-0.3-0.7-2.9-6.5-4.2c-12.5-2.8-13.7,4.2-18.7,4.8c-2.7,0.3-4.9,0.4-7.3,2
			c-5.7,3.9-4,7.1-9.1,10c-5.1,2.9-5.4,5.2-5.1,6.2c0,0,3.7,5.3,14.9,1.2h0c2.2-0.2,6.4-3.4,6.6-3.6c0,0.1-0.5,0.8-0.8,1.8
			c-0.3,0.8-0.5,1.8-0.5,2.9c0,3.6,2,3.2,1.7,6.4c-0.4,3.4,0.3,3.6,2,7.5c0.7,1.6,1.3,3,1.5,6.9c0.1,3,0.1,5.3,0.9,7.2
			c0.5,1.1,1.1,2.1,2.3,3c0.8,0.7,1.5,0.8,1.5,0.8c2.3,2,8.2,1.6,9.3,0.2c0.7-0.1,1.3-0.3,1.8-0.5c2.4-0.8,2.9-2.4,3-4.7
			c0,0,0,0,0,0c0.2-3.4-0.2-8.3,3.4-15c1.8-3.3,2-9.7,2-9.8c0.1-0.5,0.8-2,1.2-2.9c0.1-0.2,0.1-0.4,0.1-0.5c0.1-1.2-0.8-2.8-0.9-4
			c-0.6-3.5,8-1.1,9-0.8c6.4,1.8,5.5-1.6,10.5-3.7C259.7,180.1,263.4,178.2,261.6,175.6z"/>
		<g>
			<path style="fill:#FFFFFF;stroke:#000000;stroke-width:0.5;stroke-linejoin:round;stroke-miterlimit:10;" d="M214.9,216.2
				c1.6-3.2,4.7,0.8,7.8,0.9c3.2,0.1,5.4-2.3,7-2.2c1.5,0,1.6,1.3,1.9,5.5c0.1,1.7-2.5,2.1-4.2,2.7c-2.8,0.9-10.5,1-12.8-2.3
				C213.9,219.6,214.1,217.8,214.9,216.2z"/>
			<path style="fill:#FFFFFF;stroke:#000000;stroke-width:0.5;stroke-linejoin:round;stroke-miterlimit:10;" d="M218,219.7
				c1.9,0.1,0.9,2.5,1.7,3.6c0,0-1-0.4-1.8-1C216.9,221.7,216.7,219.7,218,219.7z"/>
			<path style="fill:#FFFFFF;stroke:#000000;stroke-width:0.5;stroke-linejoin:round;stroke-miterlimit:10;" d="M228.5,219.8
				c-1.6-0.4-0.9,3-1.8,3.4c0,0,1.2-0.4,1.7-0.6C229.6,222,230,220.1,228.5,219.8z"/>
		</g>
		<g>
			<path style="fill:#FFFFFF;stroke:#000000;stroke-width:0.5;stroke-linejoin:round;stroke-miterlimit:10;" d="M230.7,194.5
				c0,0,0,1.8,2.5,1.7c1,0,1.6-0.6,1.9-1.2c0.5-0.9,1-1.4,0.5-2.4c-0.3,1.1-0.4,1.3-1.7,1.9C232.7,195.1,231.5,195,230.7,194.5z"/>
		</g>
		<g>
			<path style="fill:#FFFFFF;stroke:#000000;stroke-width:0.5;stroke-linejoin:round;stroke-miterlimit:10;" d="M211.2,193
				c0.2,0.3,0.6,1.2,0.8,1.3c0.8,0.8,1.7,1.3,2.5,1.2c0.5,0,1.2-0.2,1.4-0.9c0.1-0.2,0.1-0.4,0.1-0.6
				C213.6,194.7,211.2,193,211.2,193z"/>
		</g>
	</g>
	<g>
		<path style="fill:#FFFFFF;stroke:#000000;stroke-width:0.5;stroke-linejoin:round;stroke-miterlimit:10;" d="M65.8,231.8
			c2.2,0.1,7.9-0.3,7.9-0.3s-1.4-4.7-1.1-4.1c1.1,2.3,2,3.9,2,3.9l3.5-0.2c-1.2-4.1-2.5-7.2-3.5-8.6c-1-1.5-0.6-1.5-3.2-1.5
			c-4.2-0.1-6.7,1.2-6.7,1.2L65.8,231.8z"/>
	</g>
	<polygon style="fill:#E7612E;stroke:#1D1D1B;stroke-width:0.3332;stroke-miterlimit:10;" points="71.6,207.7 62.7,207.8 
		62.7,203.9 71.6,203.7 	"/>
	<g>
		<path style="fill:#0095CE;stroke:#1D1D1B;stroke-width:0.3332;stroke-miterlimit:10;" d="M68.7,211h-3.2c-0.7,0-1.3-0.6-1.3-1.3
			v-7.7c0-0.7,0.6-1.3,1.3-1.3h3.2c0.7,0,1.3,0.6,1.3,1.3v7.7C70,210.4,69.4,211,68.7,211z"/>
	</g>
</g>
<g>
	<g id="page-second-station-4-tail-02">
		<path style="fill:#FFFFFF;stroke:#000000;stroke-width:0.5;stroke-linejoin:round;stroke-miterlimit:10;" d="M88,205.4
			c0.1,6.1-1.2,15-1.4,21.2c-0.1,4.1-1.4,8-2.2,12c-0.7,3.7-1,7.5-1.2,11.3c-0.1,3.3-2.4,10.3-0.4,13.1c1.6,2.2,3.3,4.4,1.7,7.4
			c-1.4,2.7-1.3,0.6-4.1,1.7c-0.4,0.1-0.8,0.3-1.2,0.2c-0.6-0.1-1-0.7-1.2-1.2c-0.5-1-0.7-2.2-0.8-3.3c-1-8.3,1.4-16.1,3.4-24
			c0.6-2.5,1.2-5,1.6-7.6c4.3-27.3-2.5-56.3,5.2-69.5c5.5-9.4,16.6-8.4,17.3-7.6C108.5,162.9,87.1,157.6,88,205.4z"/>
		<path style="fill:#FFFFFF;stroke:#000000;stroke-width:0.5;stroke-linejoin:round;stroke-miterlimit:10;" d="M93.3,163.2
			c-8.4,5.2-9.2,22.7-8.1,32c0.8-6.3,1.9-26.4,12-34.1L93.3,163.2z"/>
	</g>
	<g>
		<g>
			<path style="fill:#FFFFFF;stroke:#000000;stroke-width:0.5;stroke-linejoin:round;stroke-miterlimit:10;" d="M133.4,281.7
				c1.2,5.5,1.6,9.8,1.2,16.7c-0.7,13.1-2.3,13.5-1,19.8l0.4,5c1.6,1,4.8-3.7,7.2-3.8c2.1,0,2.4,4.6,4.3,3.5
				c0.4-4.8,1.1-3.9,0.8-12.6c-0.5-6.1-1.7-2.6-2-15.9c1.3-10.1,2.9-34.4,2.8-34.5c0.1-1.3-3-1.9-4.3-2.1c-2.9-0.5-8.8-1.3-11.5,0.4
				C130.1,258.2,131.9,274.5,133.4,281.7z"/>
		</g>
		<g>
			<path style="fill:#FFFFFF;stroke:#000000;stroke-width:0.5;stroke-linejoin:round;stroke-miterlimit:10;" d="M134.1,325.2
				c0,0,5.1,0.5,6.8,0.3c0.4-0.1,1.1-4.1,1.1-4.1l0.6,3.9c0,0,4.1,0.6,4.2-0.2c0.2-2.9-0.2-7.3-0.2-7.3s-2.7-1.4-6.9-1.2
				c-4.1,0.2-6.1,1.1-6.1,1.1s0,2.1,0.1,4.3C133.9,324.1,134.1,325.2,134.1,325.2z"/>
		</g>
	</g>
	<g>
		<g>
			<path style="fill:#FFFFFF;stroke:#000000;stroke-width:0.5;stroke-linejoin:round;stroke-miterlimit:10;" d="M97.6,270.3
				c4.4,19.6,3.5,14,2.4,23.2c1.2,6.2-0.3,9-1.6,18l-0.1,6.1c2.5,2.6,10.5,2.5,11.6,1.3c1-1.1,1.4-0.9,1.5-4.2
				c0.3-9.5,2.2-9.4-1.1-17.7c-1.1-10.2-0.9-14.2-0.7-16.1c0.3-2.9,0.1-5.7,0-8.6c-0.1-2.7,0.5-11.6,0.6-13.3c0.2-2.5,0-5.8-2.8-6.9
				c-1.7-0.7-12.2-4.1-12.3-3.9C94.1,250.7,95.6,261.4,97.6,270.3z"/>
		</g>
		<g>
			<path style="fill:#FFFFFF;stroke:#000000;stroke-width:0.5;stroke-linejoin:round;stroke-miterlimit:10;" d="M98.1,319.3
				c0,0,6.2,2.2,7.9,1.9c0.4-0.1,1-4.3,1-4.3l0.5,4.4c0,0,3.9-0.6,3.9-1.3c0.2-2.8-0.1-7.4-0.1-7.4s-3.2-0.4-7.4-0.2
				c-4.1,0.2-5.7-0.7-5.7-0.7L98.1,319.3z"/>
		</g>
	</g>
	<g>
		<path style="fill:#FFFFFF;stroke:#000000;stroke-width:0.5;stroke-linejoin:round;stroke-miterlimit:10;" d="M73.1,213.9
			c0.2,2.2,0.6,4.7,1.2,7.1c0.8,3.4,1.8,6.5,2.6,8.1c3.2,7,18.9,23.3,27.7,25c2.7,1.4,2.9,2.3,3,4.8c0.1,4.8,1.6,7.2,3.2,10.2
			c0,0.1,0,0.2-0.1,0.2c1.3,2.5,2.6,4.9,2.9,7.7c0.5,4.7,1.4,8.7,1.9,10.4c0.3,0.8,2.5,26.8,1.4,33.4c-0.6,3.2,13.5,2.8,13.5,2.8
			c0-0.5,0.9-1.1,0.7-1.9c-1-4.6-1-6.4-2.5-12.2c-0.9-3.5-1.1-4.4-1.7-8.1c-1.3-8-2.4-34.6-1.5-41.2c1.1,1.3,7.8,2.2,10.3,2.1
			c3.3,0,9.8-1.3,10.8-1.9c0.4,3.2-0.4,33.2-0.1,34.4c0.8,2.9-0.3,4.3-0.7,9.2c0.9,6-0.7,12.6-1.1,18.5c1,4.8,0.3,0.6,2.4,3.9
			c1.7,0.7,13.3,5.4,13.9,1.7c0.2-1.2,0.7-1.6,0.4-2.8c-1.2-6.8-8-36.8,2.9-66c2.4-7.1,2.8-9.1,5.1-19.6c3.7-6.7,5.9-6.1,8.8-14.8
			c2.1-6.7,2.1-14.4,1.3-21.2c-2.5-21.1-8.1-11.6-4.4-28c1.3-5.8-2.4-9.1-7.4-16.1c-0.4-0.4-2.3-8.1-5.4-8.1c-0.7-1.8-1.4-2.9-3.4-3
			c-0.1,0-0.6-1.7-5-1.2c0,0-0.1,0-0.1,0c-1.2-0.5-2.2-0.7-3.4,0.1c-1.7,1-2.6,1-5.2,1.7c-2.2,0.6-4.7,0.7-7,0.7
			c-2,0-4.1-0.2-6.1-0.8c-1.9-0.6-3.4-1.9-5.3-2.5c-3.8-1.2-7.7,0.1-11.1,1.9c-3.7,1.9-7.6,3.3-11.7,4c-1.5,0.2-3,0.4-4.4,0.8
			c-3.7,1.1-7,3.8-9.3,6.8c-2.8,3.7-3.3,8.7-5.4,12.7c-1.4,2.7-3.5,5.1-4.9,7.8c-1.9,3.6-3.5,7.4-4.7,11.3
			C73.6,197.9,72.5,205.3,73.1,213.9z"/>
		<g>
			<path style="fill:#FFFFFF;stroke:#000000;stroke-width:0.5;stroke-linejoin:round;stroke-miterlimit:10;" d="M83.3,193
				c-1.2-3.2-1.4-7.2,1-9.6c1.7-1.7,4.5-2.2,6.1-4c2.4-2.7,1.6-6.7,2.3-9.9c0.5-2.7,1.7-5.7,4.8-6.3c3.4-0.7,7.5,0.6,10.1,2.7
				c2.6,2.1,4.1,5.3,4.9,8.5c0.9,3.2,1.2,6.6,2,9.8c0.4,1.6,0.9,3.3,1.9,4.6c2.3,2.9,4,5.1,3,9.1c-0.7,3.2-2.8,5.6-4.7,8.2
				c-2.2,3-4.3,6-6.5,9c-0.9,1.3-2,2.7-3.5,3.2c-1.5,0.6-3.2,0.1-4.8-0.3c-1.7-0.5-3.5-0.9-5.2-1.4c-1.7-0.5-3.5-1-4.9-2.1
				c-1.4-1.2-2.2-3-2.5-4.8c-0.4-2.2,0-4.4-0.3-6.5C86.6,199.6,84.6,196.4,83.3,193C83.4,193,83.4,193,83.3,193z"/>
		</g>
		<g>
			<path style="fill:#FFFFFF;stroke:#000000;stroke-width:0.5;stroke-linejoin:round;stroke-miterlimit:10;" d="M116.4,328.6
				c0,0,5.2,0.9,7,0.6c0.4-0.1,0.9-4.8,0.9-4.8l0.6,4.8c0,0,7.6-0.2,7.5-1c-0.5-2.9-1.3-7.1-1.6-8c-0.4-0.9-3-1-7.2-0.9
				c-4.1,0.2-6.3,0.1-6.5,1.1C116.8,321.3,116.4,328.6,116.4,328.6z"/>
		</g>
		<g>
			<path style="fill:#FFFFFF;stroke:#000000;stroke-width:0.5;stroke-linejoin:round;stroke-miterlimit:10;" d="M162.6,332.4
				c0,0-4.1,0.5-4.4-0.5c-0.3-1-1.4-6-1.4-6s0.7,5.7-0.1,6.3c-0.7,0.6-11.5,0.5-11.5-0.2c-0.2-2.8-1.2-8.8-0.6-9.2
				c1.2-0.9,6.6-0.5,10.7-0.3c4.1,0.2,5.2-0.3,5.4,0C161.3,323.7,162.6,332.4,162.6,332.4z"/>
		</g>
	</g>
	<g id="page-second-station-4-head-03">
		<path style="fill:#FFFFFF;" d="M114.7,167.2c0.5,0.9,2.8,2.2,4.2,2.6c4.2,1.3,2,1,5.9,5.3c3.4,3.8,9.5-2.8,12.5-2.1
			c0.4,0.1,1.2,0.8,1.4,1.2c3,4.8,0.1,11.3,1.1,15.6c0.9,3.6,2,6.5,2.7,8.6c0.6,1.8,0.2,3.9,0,6.9c-0.2,2.6,2.2,4.9,3,5.8
			c2.3,2.7,17,5.8,22.5-0.7c0.9-1.1,2-2.5,2.4-4.3c1.1-5.4-0.9-8.9-0.3-10.9c0.7-2,4.5-5,4-10.1c-0.5-5,1-10.4,3.2-11.8
			c0,0,0,0,0.1,0c1-0.5,2.4,0.5,3.4,1.3c1.2,0.3,3.7,2.4,5.8,0.8c2.9-2.2,5.7-2.6,8.2-4c3.4-2,6.5-3.8,7.6-7.2
			c1.1-3.7-2.2-6.5-5.2-8.2c-3.1-1.8-6.9-2.9-9.7-2.3c-2.2,0.5-11.6,7.7-15.4,4.5c-1-2.5-2.4-3.6-3.9-5.6c-1.2-1.6-1-3.7-1.8-5.4
			c-0.9-1.8-2.8-3-4.5-3.8c-3-1.3-6.5-2.6-9.4-0.4c-2.5,1.9-5.1,3.7-7.6,5.6c-2.2,1.6-4.4,3.5-5.7,6c-0.7,1.4-0.7,5.9-11.6,1.7
			c-4.5-1.7-10.5,0.9-12.6,4.9C113.4,163.6,112.6,165.5,114.7,167.2z"/>
		<g>
			<path style="fill:#FFFFFF;stroke:#000000;stroke-width:0.5;stroke-linejoin:round;stroke-miterlimit:10;" d="M165.3,206.2
				c-0.3-1.3,3.4-3.8,0.2-8.7c-1-1.5-3.1-2.8-4.9-2.3c-1.8,0.5-4.3,1-6.8,0.3c-2.4-0.7-3.3-1-4.6,0.1c-1.6,1.3-4.4,5.5-3,8.1
				c1.7,2.9,1.5,1.6,1.6,2.5c0.1,0.9-1.7,4.7,6.8,5.4C161.6,212,165.8,209.1,165.3,206.2z"/>
			<path style="fill:#FFFFFF;stroke:#000000;stroke-width:0.5;stroke-linejoin:round;stroke-miterlimit:10;" d="M148.6,198.9
				c0.3,0.3,0.5,0.7,1,1.1c0.8,0.5,2.2,1.5,0.7,2.5c-1,0.7-1.9-0.6-2.2-1.7C147.8,199.4,148.5,198.7,148.6,198.9z"/>
			<path style="fill:#FFFFFF;stroke:#000000;stroke-width:0.5;stroke-linejoin:round;stroke-miterlimit:10;" d="M164,198.9
				c0.2,0,1,0.6,0.3,2.3c-0.5,1.4-1.5,1.9-2.4,1.6c-0.9-0.2-1.6-1.1-0.5-1.8C163.8,199.5,163.7,198.8,164,198.9z"/>
		</g>
		<path style="fill:none;stroke:#000000;stroke-width:0.5;stroke-linejoin:round;stroke-miterlimit:10;" d="M114.2,167.4
			c0.5,0.9,3.2,2.4,4.6,2.8c4.2,1.3,1.6,1,5.5,5.3c3.9,4.3,11.7-4.8,13.9-1.3c3,4.8,0,11.4,1.1,15.6c0.7,2.7,1.7,5.2,2.5,7.1
			c0.2,0.4,0.6,1.6,0.7,2c0.4,1.5-0.3,6.2,0.1,7.3c0,0.7,0.7,3,2,4.7c2.1,2.8,10.3,3.9,15.5,3.2c0.1,0,0.2,0,0.3,0
			c3.2-0.4,6-1.5,7.8-3.4c1-1,2.2-2.2,2.6-4c1.1-5.4-1-9.5-0.3-11.4c0.6-1.9,4.5-5,4-10c0,0,0-0.1,0-0.1c-0.5-5,0.7-10.5,2.9-11.8
			c1-0.6,2.4,0.4,3.5,1.2c1.2,0.3,3.7,2.4,5.8,0.7c2.9-2.2,5.7-2.6,8.2-4c3.4-2.1,6.5-3.8,7.6-7.2c1.1-3.7-2.3-6.5-5.2-8.2
			c-3.1-1.8-6.9-2.9-9.7-2.3c-2.2,0.5-11.6,7.7-15.4,4.5c-1-2.5-2.4-3.6-3.9-5.6c-0.5-0.7-0.7-1.6-0.8-2.4c-0.2-1.2-0.6-2.3-1.2-3.3
			c-1.1-1.8-2.9-2.7-4.8-3.5c-1.8-0.8-3.8-1.6-5.8-1.4c-1.4,0.1-2.6,0.8-3.8,1.6c-3,1.9-5.7,4-8.4,6.2c-1.7,1.4-3.2,3.1-4.1,5
			c-0.7,1.4-0.5,5.5-11.5,1.3c-4.5-1.7-10.9,0.8-13,4.8C113.1,163.1,112.1,165.6,114.2,167.4z"/>
		<g>
			<g>
				<path style="fill:#FFFFFF;stroke:#000000;stroke-width:0.5;stroke-linejoin:round;stroke-miterlimit:10;" d="M144.8,175
					c0-0.2-0.2-0.7-0.3-0.9c-0.2-0.5,0.1-1.1-0.4-2c-1-2-2.7-2.5-4.7-1.5c0.3,0,0.2,2.7,2,3.3c0.9,0.3,1.6,0.2,2.1,0.3
					C143.9,174.4,144.7,175.6,144.8,175z"/>
			</g>
		</g>
		<g>
			<g>
				<path style="fill:#FFFFFF;stroke:#000000;stroke-width:0.5;stroke-linejoin:round;stroke-miterlimit:10;" d="M168.7,174.2
					c-0.1,0.3-0.2,0.5-0.1,0.7c0.1,0.6,0.7-0.4,1.2-0.5c0.5-0.1,1.6-0.1,2.3-0.4c1.7-0.8,1.8-3.8,2.1-3.8c-2.2-1.1-4.1-0.5-5.1,1.8
					C168.6,173,168.9,173.7,168.7,174.2z"/>
			</g>
		</g>
	</g>
	
		<rect x="100.9" y="285.8" style="fill:#E7612E;stroke:#1D1D1B;stroke-width:0.3892;stroke-miterlimit:10;" width="8.5" height="5.8"/>
	<g>
		<path style="fill:#0095CE;stroke:#1D1D1B;stroke-width:0.3597;stroke-miterlimit:10;" d="M106.7,294.1h-3.5
			c-0.8,0-1.5-0.7-1.5-1.5v-8.3c0-0.8,0.7-1.5,1.5-1.5h3.5c0.8,0,1.5,0.7,1.5,1.5v8.3C108.2,293.5,107.5,294.1,106.7,294.1z"/>
	</g>
</g>
<g>
	<g>
		<polyline style="fill:#F0ECEC;stroke:#000000;stroke-width:0.5;stroke-linejoin:round;stroke-miterlimit:10;" points="
			128.9,224.7 128.9,234.2 4.2,169.4 4.1,159.9 128.9,224.7 		"/>
	</g>
	<g>
		<polyline style="fill:#F0ECEC;stroke:#000000;stroke-width:0.5;stroke-linejoin:round;stroke-miterlimit:10;" points="
			128.9,305.1 128.9,314.7 3.3,248.2 3.7,237.5 128.9,305.1 		"/>
	</g>
	<g>
		<path style="fill:#F0ECEC;stroke:#000000;stroke-width:0.5;stroke-linejoin:round;stroke-miterlimit:10;" d="M2.3,294.9L2.3,294.9
			c2.6,1.4,5.8-0.5,5.8-3.4l1.3-150.9c0-1.5-0.7-2.9-1.9-3.7h0c-3-2.2-7.2,0-7.2,3.7l0,150.9C0.2,292.9,1,294.3,2.3,294.9z"/>
	</g>
</g>
<g>
	<g>
		<path style="fill:#F0ECEC;stroke:#000000;stroke-width:0.5;stroke-linejoin:round;stroke-miterlimit:10;" d="M481.3,41.7
			l-39.8,20.9l-3.1,1.6l-2.1,1.1l-32.7,17.1l-0.3,0.2h0L381.7,94l-0.8,0.4l-19.6,10.3l-20.5,10.8l0,0l-14.8,7.8l-11.6,6.1l-12.9,6.7
			l-0.4,0.2l-0.4,0.2l-1.2,0.6h0l-0.8,0.4l0,0l-6.2,3.3l-15.4,8.1l-38.7,20.3h0l-5.5,2.9l-4.8,2.5l-15,7.9l-3.2,1.7l-4.3,2.3l0,0
			l-8.7,4.6h0l-3.5,1.8l-12.4,6.5l-1.9,1l-2.2,1.2l-5.7,3l-0.4,0.2l-3.7,1.9l-1.7,0.9l-2,1.1l-5.7,3c0,0,0,0,0,0l-3.8,2l-0.9,0.5h0
			l-0.3,0.2h0l-18.4,9.6l-1,0.5v9.6l1-0.5l26.9-14.1l13.6-7.1l5.2-2.8l4.8-2.5l9.9-5.2l14.6-7.7l6.3-3.3l2.4-1.2l18.7-9.8L251,172
			l27.7-14.5l13.7-7.2l10-5.3l6.2-3.3h0l4.8-2.5l2.4-1.2l0.7-0.3h0l5.7-3l8.2-4.3h0l13.2-6.9l39.8-20.9l0.7-0.4l0.1-0.1l15.8-8.3
			l1.7-0.9l36.7-19.3L462,61.4v0l19.4-10.2"/>
	</g>
	<g>
		<polyline style="fill:#F0ECEC;stroke:#000000;stroke-width:0.5;stroke-linejoin:round;stroke-miterlimit:10;" points="
			133.1,304.7 133.1,314.3 488.1,123.9 487.7,113.2 133.1,304.7 		"/>
	</g>
	<g>
		<path style="fill:#F0ECEC;stroke:#000000;stroke-width:0.5;stroke-linejoin:round;stroke-miterlimit:10;" d="M132.1,345.7
			L132.1,345.7c-2.6,1.4-5.8-0.5-5.8-3.4L125,191.3c0-1.5,0.7-2.9,1.9-3.7h0c3-2.2,7.2,0,7.2,3.7v150.9
			C134.1,343.7,133.3,345,132.1,345.7z"/>
	</g>
	<g>
		<path style="fill:#F0ECEC;stroke:#000000;stroke-width:0.5;stroke-linejoin:round;stroke-miterlimit:10;" d="M488,159.2L488,159.2
			c-2.6,1.4-5.8-0.5-5.8-3.4L481,4.8c0-1.5,0.7-2.9,1.9-3.7v0c3-2.2,7.2,0,7.2,3.7v150.9C490.1,157.2,489.3,158.5,488,159.2z"/>
	</g>
</g>
<g id="wave-07">
	<path style="fill:#0096CF;" d="M289.9,103c0.1,0.1,0.2,0.3,0.3,0.5c0.1,0.5-0.3,1-0.8,1c-12,1.7-20.4,12.8-18.7,24.7
		c0.1,0.5-0.3,1-0.8,1c-0.5,0.1-1-0.3-1-0.8c-1.8-13,7.3-25,20.3-26.8C289.4,102.8,289.7,102.9,289.9,103z"/>
	<path style="fill:#0096CF;" d="M292.3,108.1c0.1,0.1,0.2,0.3,0.3,0.5c0.1,0.5-0.3,1-0.8,1c-9.9,1.4-16.9,10.6-15.5,20.5
		c0.1,0.5-0.3,1-0.8,1c-0.5,0.1-1-0.3-1-0.8c-1.5-10.9,6.1-21.1,17.1-22.6C291.9,107.8,292.1,107.9,292.3,108.1z"/>
	<path style="fill:#0096CF;" d="M294.3,113.1c0.1,0.1,0.2,0.3,0.3,0.5c0.1,0.5-0.3,0.9-0.8,1c-7.8,0.9-13.1,8-11.9,15.8
		c0.1,0.5-0.3,0.9-0.8,1c-0.5,0.1-1-0.3-1-0.8c-1.4-8.8,4.6-16.8,13.4-17.8C293.8,112.9,294.1,113,294.3,113.1z"/>
</g>
<g id="wave-06">
	<path style="fill:#0096CF;" d="M102.8,243.2c0.1,0.1,0.2,0.3,0.3,0.5c0.1,0.5-0.3,1-0.8,1c-12,1.7-20.4,12.8-18.7,24.7
		c0.1,0.5-0.3,1-0.8,1c-0.5,0.1-1-0.3-1-0.8c-1.8-13,7.3-25,20.3-26.8C102.3,242.9,102.6,243,102.8,243.2z"/>
	<path style="fill:#0096CF;" d="M105.2,248.2c0.1,0.1,0.2,0.3,0.3,0.5c0.1,0.5-0.3,1-0.8,1c-9.9,1.4-16.9,10.6-15.5,20.5
		c0.1,0.5-0.3,1-0.8,1s-1-0.3-1-0.8c-1.5-10.9,6.1-21.1,17.1-22.6C104.7,247.9,105,248,105.2,248.2z"/>
	<path style="fill:#0096CF;" d="M107.2,253.3c0.1,0.1,0.2,0.3,0.3,0.5c0.1,0.5-0.3,0.9-0.8,1c-7.8,0.9-13.1,8-11.9,15.8
		c0.1,0.5-0.3,0.9-0.8,1c-0.5,0.1-1-0.3-1-0.8c-1.4-8.8,4.6-16.8,13.4-17.8C106.7,253,107,253.1,107.2,253.3z"/>
</g>
<g id="page-second-station-4-head-01">
	<path style="fill:#FFFFFF;stroke:#000000;stroke-width:0.5;stroke-linejoin:round;stroke-miterlimit:10;" d="M438.6,74
		c1.5,3.3,5.5,4.4,8.8,4.5c2.2,0,4.4-0.2,6.4-0.8c0.9-0.3,1.8-0.7,2.7-0.9c0.9-0.3,1.8-0.5,2.4-1.1c1.2-1.3,2.1-3.3,2.7-5
		c0.7-2.1,1-4.4,0.8-6.6c-0.1-1-0.5-2.1-0.5-3.1c-0.1-1.1,0.4-2.3,0.8-3.3c0.8-2.1,1.7-4.1,2.4-6.3c0.4-1.1,0.7-2.2,1-3.3
		c0.1-0.4,0.2-1.7,0.5-2c0.4-0.4,1.4,0,1.9,0.1c0.9,0.2,1.8,0.7,2.6,1.2c1.9,1,3.6,1.3,5.7,1c2.1-0.3,4.1-0.9,6.1-1.6
		c1.9-0.7,3.8-1.6,5.5-2.7c1.3-0.9,2.8-1.6,2.3-3.5c-1.1-4-5.4-4.9-9-5c-2.2-0.1-4.4,0.2-6.5,0.8c-1.9,0.6-4,1.6-6,1.5
		c-0.9,0-1.4-0.5-1.8-1.3c-0.4-0.9-1.1-1.7-1.7-2.4c-1.3-1.6-2.3-3.4-3.5-5c-2.2-2.9-5.8-4.1-9.3-4.4c-3.6-0.3-7.7-0.4-11.1,0.8
		c-2,0.7-3.7,1.9-5.2,3.4c-0.6,0.6-1.1,1.4-1.8,1.7c-0.8,0.4-1.6,0-2.3-0.4c-3.8-1.8-7-5.3-11.2-6.2c-2-0.4-4.2-0.1-6.2,0.3
		c-1.9,0.3-4.3,0.6-6,1.5c-3.1,1.7,1.6,7.8,2.7,9.6c1.9,3.3,4.5,7.2,8.7,7.5c2.2,0.2,4.4-0.3,6.6-0.6c1.7-0.2,3.3-0.2,4.4,1.3
		c1,1.5,1.9,4,1.7,5.8c-0.2,2.3-0.8,4.6-1.1,6.9c-0.2,2.2-0.4,4.5,0.4,6.6c0.7,2,1.7,3.9,2.9,5.7C436.3,70.4,437.7,72.1,438.6,74z"
		/>
	<path style="fill:#FFFFFF;stroke:#000000;stroke-width:0.5;stroke-linejoin:round;stroke-miterlimit:10;" d="M437,28.4
		c2.5,2.4,5.1,5.6,5.3,9.2c0.2,3.9,0.8,7.6,0.1,11.5c-0.3,1.8-1,3.5-1.3,5.3c-0.1,0.9,0.1,1.8,0.1,2.7c0,1-0.5,1.8-0.9,2.7
		c-1.6,3.3-2.2,7.1-4,10.3"/>
	<path style="fill:#FFFFFF;stroke:#000000;stroke-width:0.5;stroke-linejoin:round;stroke-miterlimit:10;" d="M462.6,29.4
		c-0.7,0.5-1.2,2.2-0.8,3c0.5,0.8,1.9,0.9,2.1,1.9c0.2,0.9-1.1,1.8-1.6,2.4c-1,1.1-1.1,2.6-1.5,3.9c-0.9,3.4-2,6.7-1.8,10.2
		c0.2,3.5,1.6,6.8,2.8,10.1"/>
	<g>
		<path style="fill:#FFFFFF;stroke:#000000;stroke-width:0.5;stroke-linejoin:round;stroke-miterlimit:10;" d="M442.1,71.5
			c0.4-0.7-0.6-2-0.9-2.6c-0.4-0.9-0.8-1.9-0.8-2.9c-0.1-1.8,0.7-3.6,2.1-4.7c1.7-1.4,3.9-1.2,5.9-1.1c2.4,0.2,4.9,0,7.3,0.4
			c1.8,0.3,3.2,1.3,4,2.9c1.1,2.2,0.8,4.2-0.4,6.1c-0.6,1-0.8,1.8-1.1,2.9c-0.2,0.9-0.8,1.6-1.6,2.2c-1.8,1.1-4.2,1.4-6.3,1.3
			c-2,0-4-0.4-5.8-1.3C443.4,74.2,441.3,73,442.1,71.5z"/>
		<path style="fill:#FFFFFF;stroke:#000000;stroke-width:0.5;stroke-linejoin:round;stroke-miterlimit:10;" d="M457.9,64.1
			c-0.4,0.5-0.8,0.9-1.4,1.3c-0.4,0.3-0.8,0.5-1,0.9c-0.4,0.8,0.1,1.7,1,1.8c0.9,0,1.5-0.9,1.7-1.7c0.2-0.5,0.3-1.1,0.2-1.6
			C458.4,64.8,458.1,63.9,457.9,64.1z"/>
		<path style="fill:#FFFFFF;stroke:#000000;stroke-width:0.5;stroke-linejoin:round;stroke-miterlimit:10;" d="M442.7,63.7
			c-1.6,0.2,0.1,3.7,1.2,3.9c1.1,0.2,2.1-0.8,1.2-1.7c-0.4-0.4-1-0.7-1.4-1.1C443.4,64.4,443,63.6,442.7,63.7z"/>
	</g>
	<path style="fill:#FFFFFF;stroke:#000000;stroke-width:0.5;stroke-linejoin:round;stroke-miterlimit:10;" d="M461,47
		c-0.6-0.3,0.5-2.2,0.7-2.5c0.4-0.6,1.1-1.1,1.9-1.1c0.5-0.1,1.6,0,2,0.3c0.4,0.3,0.1,0.3-0.1,0.7c-0.3,0.7-0.3,1.3-1,1.9
		c-0.5,0.4-1.1,0.5-1.7,0.5c-0.3,0-0.6,0-1,0.1C461.4,47,461.3,47.2,461,47z"/>
	<path style="fill:#FFFFFF;stroke:#000000;stroke-width:0.5;stroke-linejoin:round;stroke-miterlimit:10;" d="M437.7,43.6
		c0.7-0.2,0-2.3-0.3-2.7c-0.7-1.1-2.2-1.7-3.4-1.4c-0.6,0.2-0.5,0.5-0.4,1.1c0.1,0.6,0.3,1.3,0.8,1.7c0.4,0.4,1.1,0.6,1.7,0.7
		c0.3,0.1,0.6,0.1,1,0.2C437.3,43.5,437.4,43.7,437.7,43.6z"/>
	<path style="fill:#FFFFFF;stroke:#000000;stroke-width:0.5;stroke-linejoin:round;stroke-miterlimit:10;" d="M480.8,39.7
		c1.5,0,3-0.2,4.5,0c0.9,0.1,3.1,0.3,3.5,1.4c0.3,1.1-1.9,2.1-2.6,2.6c-1.3,0.7-2.6,1.3-4,1.7c-2.7,0.8-5.7,1.3-8.5,0.7
		c-1.5-0.3-3.3-0.9-4.6-1.8"/>
</g>
</svg>
