<svg id="Layer_1" data-name="Layer 1" xmlns="http://www.w3.org/2000/svg" width="165" height="91" viewBox="0 0 143.11 78.44"><defs><style>.cls-1,.cls-11,.cls-12,.cls-13,.cls-4,.cls-8,.cls-9{fill:none;}.cls-1{stroke:#231f20;}.cls-1,.cls-12,.cls-4,.cls-9{stroke-linecap:round;stroke-linejoin:round;}.cls-1,.cls-8{stroke-width:0.88px;}.cls-2{fill:#231f20;}.cls-3{fill:#fff;}.cls-4{stroke:#045a79;}.cls-5{fill:#069ad7;}.cls-6{fill:#8cc242;}.cls-7{fill:#454a4a;}.cls-8{stroke:#454a4a;}.cls-11,.cls-8{stroke-miterlimit:10;}.cls-9{stroke:#8cc242;}.cls-12,.cls-9{stroke-width:2px;}.cls-10{fill:#e7622e;}.cls-11{stroke:#069ad7;stroke-width:0.11px;}.cls-12{stroke:#e7622e;}</style></defs><title>cows-01</title><path class="cls-1" d="M18.57,29.82s.26.33.56.65"/><path class="cls-2" d="M8,10.64a6.47,6.47,0,0,0,.46,1.62"/><path class="cls-1" d="M8,10.64a6.47,6.47,0,0,0,.46,1.62"/><path class="cls-3" d="M42.29,57.33c.24-2-.53-5.73-1.13-7.68a6.88,6.88,0,0,0-.45,2.05c-.07,1.64-.14,3.27-.08,4.84a22.42,22.42,0,0,1,.28,2.92c.69-.82,1.18-.73,1.38-2.13M97.62,39.9a7.07,7.07,0,0,1,.07,4.43,7.76,7.76,0,0,0-.62,5c-1.73-2.88-1-3-1.52-5.91-.34-1.57.75-2.94.82-4.58s-1-2.8-1.46-7.08a65.24,65.24,0,0,1-.08-11.61c-.72,4.19-3.19,8.58-3.79,12.42A9,9,0,0,0,93,40.22l.1,0c.48.88,1.16,1.5,1,2.66-.13.81-.54,1.5-.61,2.38v2.59c-.07,2.86-1.44,6.48-.35,9.13a3.3,3.3,0,0,1,.19,2c-.13.48-.53.33-.8.74,0,0-.62,2.73-1.85,3.13-1.42.54-5.08.52-5.08-.07s2-3,2.38-3.54c.54-.69.94-.65,1-1,1.57-7.53-.22-10.6-2.32-15.09l.27.59a21.78,21.78,0,0,0-2.69,5.9c-.68,2.11-2,4.3-2.45,6.41-.21.68,0,1.43-.14,2.11-.14,1.09-.42,1.14-1,1.3s-.55,2.1-1.7,2.72c-.61.34-4.41.47-4.75-.14s1.63-3.34,2-3.75c1.29-1.43,2.17-2,2.72-3.94A20.48,20.48,0,0,0,79.69,49c.07-1.5.07-2.93.07-4.43,0-.47,0-1,.07-1.61a3.59,3.59,0,0,0-.27-1.2.82.82,0,0,0-.93.07c-.18.2,0,3-.77,3s-.47-2.57-.68-3.18a1.78,1.78,0,0,0-.61,0c-.2.88-.53,3-1.16,3s-.47-2.65-.33-3.4a7.09,7.09,0,0,1-3.4-2.09l0,0h0c-1.74,1.31-5.12,1.51-7,1.85a59.51,59.51,0,0,1-9.17.54c-3.46.06-6.86-.66-10.32-.24-.11,2-.32,7.36-.2,10.23.14,3.4,1.32,4.69,1.29,6.52,0,.53-.28,1.13-.39,1.13s-.35-.23-.47-.23.23,2.1-.87,2.68a6,6,0,0,1-3.49.35c-.29-.06-1.33,0-1.51-.41a.38.38,0,0,1,.06-.29,3.11,3.11,0,0,0-.62.82c-.41.95-.27,1.43-1.43,1.64s-4.5.09-4.61-.22,1-2.19,1.83-2.79c3-1.07,2.66-7.08,2.25-9.54-.2-1.29-.81-2.45-.81-3.74.07-1.5-1.08-4.38-1.42-5.88v-.05c-2.89.42-11-3.63-12.87-6.88-.16-.46-1.39-2.91-1.65-3.43C19.61,30,18.62,29,17.83,27.78c-.51-.76-1-2.07-1.72-2.58-.31-.21-2-1.33-2.24-1.6-.61-.64-8.5-.18-8.89-.12a4.51,4.51,0,0,1-1.92-.27C1.53,22.72,1,22.59.67,20.62a3.91,3.91,0,0,1-.16-1.13v-.08c.15-.79,1.86-1.65,2.35-2.16s.8-1.06,1.23-1.58l.84-.93L5.32,14a6.46,6.46,0,0,0,1.39-1.63,5.1,5.1,0,0,0,.22-1.2,3.34,3.34,0,0,1,.37-1c.21-.4.8-.9.9-1.28l0-.77a3.18,3.18,0,0,1,.37-1.85A.59.59,0,0,1,9,6.07c.85-.07,1,1,1.59.85.75-.27.85-1.26,1.26-1.86a6.14,6.14,0,0,1,1-1c-.07,0-.08,0-.14-.08h-.07V3.94a2,2,0,0,1,.84,0h.42c0-.11,0-.22-.07-.33h.07V3.56A8.3,8.3,0,0,1,16.2,4.65a5.83,5.83,0,0,1,.46.82c.09,0,.07,0,.07.08s-.24.29-.28.42c.13,0,.26.26.38.32l.81.44c.67,0,1.53-1.18,1.83-1.82a3.41,3.41,0,0,1,.52-1,4.24,4.24,0,0,1,1.83-1l.21.16c1-.05,1.44,1,1.26,2.13-.11.34-.21.66-.31,1a5.75,5.75,0,0,1-.87,2.48c-.34.43-.87.38-1.25.7s-.43.67-.72.9v.17l.21.07c.56,0,.85-.45,1.4-.44.72,0,1.13.49,1.74.68a7.17,7.17,0,0,0,.81.07l1.07.46a2.51,2.51,0,0,1,.82.18l.62.05,5.94-.28c.51,0,9.56,0,11.94,0,3.32,0,6.58.42,10,.28a109,109,0,0,0,14.94-1.14A63.63,63.63,0,0,1,79.66,9c2.88,0,3.39.39,4.07.32S85,8.82,85.9,8.89a11.44,11.44,0,0,1,4.49,1.39h0c7.87,4,5.21,13.27,5.2,20.42,0,3.41,1.29,6,2,9.2"/><path class="cls-4" d="M42.29,57.33c.24-2-.53-5.73-1.13-7.68a6.88,6.88,0,0,0-.45,2.05c-.07,1.64-.14,3.27-.08,4.84a22.42,22.42,0,0,1,.28,2.92c.69-.82,1.18-.73,1.38-2.13M97.62,39.9a7.07,7.07,0,0,1,.07,4.43,7.76,7.76,0,0,0-.62,5c-1.73-2.88-1-3-1.52-5.91-.34-1.57.75-2.94.82-4.58s-1-2.8-1.46-7.08a65.24,65.24,0,0,1-.08-11.61c-.72,4.19-3.19,8.58-3.79,12.42A9,9,0,0,0,93,40.22l.1,0c.48.88,1.16,1.5,1,2.66-.13.81-.54,1.5-.61,2.38v2.59c-.07,2.86-1.44,6.48-.35,9.13a3.3,3.3,0,0,1,.19,2c-.13.48-.53.33-.8.74,0,0-.62,2.73-1.85,3.13-1.42.54-5.08.52-5.08-.07s2-3,2.38-3.54c.54-.69.94-.65,1-1,1.57-7.53-.22-10.6-2.32-15.09l.27.59a21.78,21.78,0,0,0-2.69,5.9c-.68,2.11-2,4.3-2.45,6.41-.21.68,0,1.43-.14,2.11-.14,1.09-.42,1.14-1,1.3s-.55,2.1-1.7,2.72c-.61.34-4.41.47-4.75-.14s1.63-3.34,2-3.75c1.29-1.43,2.17-2,2.72-3.94A20.48,20.48,0,0,0,79.69,49c.07-1.5.07-2.93.07-4.43,0-.47,0-1,.07-1.61a3.59,3.59,0,0,0-.27-1.2.82.82,0,0,0-.93.07c-.18.2,0,3-.77,3s-.47-2.57-.68-3.18a1.78,1.78,0,0,0-.61,0c-.2.88-.53,3-1.16,3s-.47-2.65-.33-3.4a7.09,7.09,0,0,1-3.4-2.09l0,0h0c-1.74,1.31-5.12,1.51-7,1.85a59.51,59.51,0,0,1-9.17.54c-3.46.06-6.86-.66-10.32-.24-.11,2-.32,7.36-.2,10.23.14,3.4,1.32,4.69,1.29,6.52,0,.53-.28,1.13-.39,1.13s-.35-.23-.47-.23.23,2.1-.87,2.68a6,6,0,0,1-3.49.35c-.29-.06-1.33,0-1.51-.41a.38.38,0,0,1,.06-.29,3.11,3.11,0,0,0-.62.82c-.41.95-.27,1.43-1.43,1.64s-4.5.09-4.61-.22,1-2.19,1.83-2.79c3-1.07,2.66-7.08,2.25-9.54-.2-1.29-.81-2.45-.81-3.74.07-1.5-1.08-4.38-1.42-5.88v-.05c-2.89.42-11-3.63-12.87-6.88-.16-.46-1.39-2.91-1.65-3.43C19.61,30,18.62,29,17.83,27.78c-.51-.76-1-2.07-1.72-2.58-.31-.21-2-1.33-2.24-1.6-.61-.64-8.5-.18-8.89-.12a4.51,4.51,0,0,1-1.92-.27C1.53,22.72,1,22.59.67,20.62a3.91,3.91,0,0,1-.16-1.13v-.08c.15-.79,1.86-1.65,2.35-2.16s.8-1.06,1.23-1.58l.84-.93L5.32,14a6.46,6.46,0,0,0,1.39-1.63,5.1,5.1,0,0,0,.22-1.2,3.34,3.34,0,0,1,.37-1c.21-.4.8-.9.9-1.28l0-.77a3.18,3.18,0,0,1,.37-1.85A.59.59,0,0,1,9,6.07c.85-.07,1,1,1.59.85.75-.27.85-1.26,1.26-1.86a6.14,6.14,0,0,1,1-1c-.07,0-.08,0-.14-.08h-.07V3.94a2,2,0,0,1,.84,0h.42c0-.11,0-.22-.07-.33h.07V3.56A8.3,8.3,0,0,1,16.2,4.65a5.83,5.83,0,0,1,.46.82c.09,0,.07,0,.07.08s-.24.29-.28.42c.13,0,.26.26.38.32l.81.44c.67,0,1.53-1.18,1.83-1.82a3.41,3.41,0,0,1,.52-1,4.24,4.24,0,0,1,1.83-1l.21.16c1-.05,1.44,1,1.26,2.13-.11.34-.21.66-.31,1a5.75,5.75,0,0,1-.87,2.48c-.34.43-.87.38-1.25.7s-.43.67-.72.9v.17l.21.07c.56,0,.85-.45,1.4-.44.72,0,1.13.49,1.74.68a7.17,7.17,0,0,0,.81.07l1.07.46a2.51,2.51,0,0,1,.82.18l.62.05,5.94-.28c.51,0,9.56,0,11.94,0,3.32,0,6.58.42,10,.28a109,109,0,0,0,14.94-1.14A63.63,63.63,0,0,1,79.66,9c2.88,0,3.39.39,4.07.32S85,8.82,85.9,8.89a11.44,11.44,0,0,1,4.49,1.39h0c7.87,4,5.21,13.27,5.2,20.42,0,3.41,1.29,6,2,9.2"/><path class="cls-5" d="M18.83,30.84c2.27-2.6,3.86-6.86,3.86-12.55a23.73,23.73,0,0,0-1.58-8.93l2.91,1a22.72,22.72,0,0,1,1.39,7.48c0,8.88-2.18,13.35-7,15.15"/><path class="cls-2" d="M18.57,29.82s.26.33.56.65"/><path class="cls-6" d="M21.3,14.45a.54.54,0,0,1,.52-.58l3.77-.25a.53.53,0,0,1,.59.49l.2,2.76a.52.52,0,0,1-.51.57l-3.78.26a.54.54,0,0,1-.59-.5Z"/><path class="cls-7" d="M20.73,30.46a1.15,1.15,0,0,1,1.17,1.17v2.8a1.15,1.15,0,0,1-1.17,1.17H18.91a1.15,1.15,0,0,1-1.17-1.17v-2.8a1.15,1.15,0,0,1,1.17-1.17Z"/><path class="cls-8" d="M20.73,30.46a1.15,1.15,0,0,1,1.17,1.17v2.8a1.15,1.15,0,0,1-1.17,1.17H18.91a1.15,1.15,0,0,1-1.17-1.17v-2.8a1.15,1.15,0,0,1,1.17-1.17Z"/><path class="cls-9" d="M28.81,9.07a4.81,4.81,0,0,1,2.72,1.46,4.75,4.75,0,0,1,1.26,2.72M41,12.54a12.35,12.35,0,0,0-3.39-7.63A12.28,12.28,0,0,0,30.18,1m6.6,11.68a9.13,9.13,0,0,0-7-7.53"/><path class="cls-3" d="M75.59,71.14c-.21,1.4-.7,1.3-1.38,2.13a24.1,24.1,0,0,0-.28-2.92c-.07-1.57,0-3.2.07-4.84a7.2,7.2,0,0,1,.45-2.05,23.81,23.81,0,0,1,1.14,7.68m55.33-17.43c-.74-3.21-2-5.8-2-9.21,0-7.15,2.66-16.39-5.21-20.42h0a11.5,11.5,0,0,0-4.49-1.4c-.88-.07-1.43.41-2.17.48s-1.19-.32-4.07-.32a63.6,63.6,0,0,0-10.06,1.33A110.37,110.37,0,0,1,88,25.32c-3.39.14-6.65-.28-10-.28C75.6,25,66.56,25,66,25l-5.93.27-.63-.05a2.66,2.66,0,0,0-.82-.17l-1.07-.46c-.26-.06-.55,0-.8-.07-.61-.2-1-.66-1.75-.68-.54,0-.83.41-1.39.43l-.21-.07v-.16c.29-.23.41-.65.71-.9s.91-.28,1.25-.71A5.42,5.42,0,0,0,56.27,20c.11-.33.21-.66.32-1,.17-1.13-.23-2.18-1.26-2.14l-.21-.15a4.15,4.15,0,0,0-1.84,1,3.69,3.69,0,0,0-.52,1c-.3.65-1.15,1.8-1.83,1.83l-.81-.44c-.11-.07-.25-.33-.38-.33,0-.13.14-.41.28-.41s0-.08-.07-.08a6.59,6.59,0,0,0-.46-.83,8.28,8.28,0,0,0-2.27-1.08v.08h-.07c0,.11.05.21.07.32l-.42,0a1.94,1.94,0,0,0-.84-.05v.08H46c0,.06.06.08.14.08a6.2,6.2,0,0,0-1,1c-.41.59-.5,1.59-1.26,1.86-.54.2-.74-.93-1.59-.86a.61.61,0,0,0-.46.2,3.26,3.26,0,0,0-.37,1.85l0,.77c-.1.38-.69.88-.89,1.27a3.59,3.59,0,0,0-.38,1A4.72,4.72,0,0,1,40,26.2a6.46,6.46,0,0,1-1.39,1.63c-.13.23-.25.47-.38.71l-.85.93c-.42.53-.75,1.09-1.23,1.59S34,32.43,33.81,33.21v.08A3.92,3.92,0,0,0,34,34.43c.31,2,.87,2.1,2.4,2.58a4.44,4.44,0,0,0,1.91.28c.4-.06,8.28-.52,8.89.11.27.27,1.93,1.39,2.24,1.61.75.5,1.21,1.81,1.72,2.58.79,1.19,1.78,2.21,2.47,3.46.25.51,1.48,3,1.65,3.43,1.87,3.25,10,7.3,12.86,6.88,0,0,0,0,0,0,.34,1.5,1.48,4.37,1.42,5.87,0,1.3.61,2.46.81,3.75.4,2.46.74,8.46-2.25,9.54-.79.59-2,2.48-1.84,2.79s3.33.48,4.62.21,1-.68,1.43-1.63a3.29,3.29,0,0,1,.61-.83.45.45,0,0,0,0,.3c.17.4,1.21.35,1.51.41a6.11,6.11,0,0,0,3.49-.35c1.1-.58.75-2.68.87-2.68s.35.23.46.23.39-.61.4-1.13c0-1.83-1.16-3.12-1.3-6.52-.12-2.88.09-8.26.2-10.23,3.46-.42,6.86.3,10.33.23A58.16,58.16,0,0,0,98,54.84c1.87-.34,5.25-.54,7-1.86h0a7.09,7.09,0,0,0,3.4,2.08c-.13.75-.29,3.41.34,3.41s1-2.12,1.16-3c.13-.07.47,0,.61,0,.2.61-.07,3.19.67,3.19s.6-2.8.77-3a.81.81,0,0,1,.93-.07,3.43,3.43,0,0,1,.28,1.2c0,.57-.08,1.13-.08,1.6,0,1.5,0,2.93-.07,4.43a20.47,20.47,0,0,1-.81,5.32c-.55,1.9-1.43,2.52-2.73,4-.4.41-2.38,3.13-2,3.75s4.14.47,4.76.13c1.15-.61,1.1-2.57,1.7-2.72s.88-.21,1-1.29c.13-.69-.07-1.43.13-2.12.48-2.11,1.77-4.29,2.45-6.4a21.78,21.78,0,0,1,2.69-5.9l-.27-.59c2.11,4.48,3.9,7.55,2.33,15.08-.08.37-.47.34-1,1-.34.55-2.38,3-2.38,3.54s3.67.62,5.09.08c1.23-.41,1.84-3.14,1.84-3.14.27-.41.67-.26.81-.73a3.29,3.29,0,0,0-.2-2c-1.08-2.66.28-6.27.35-9.13V59.09a20.68,20.68,0,0,1,.61-2.38c.2-1.16-.47-1.78-.95-2.66l-.1,0a9,9,0,0,1-1.93-7.61c.6-3.83,3.07-8.22,3.78-12.42a64.49,64.49,0,0,0,.09,11.61c.47,4.29,1.52,5.45,1.46,7.08s-1.16,3-.83,4.59c.55,2.86-.2,3,1.53,5.91a7.69,7.69,0,0,1,.62-5,7.14,7.14,0,0,0-.07-4.43"/><path class="cls-4" d="M75.59,71.14c-.21,1.4-.7,1.3-1.38,2.13a24.1,24.1,0,0,0-.28-2.92c-.07-1.57,0-3.2.07-4.84a7.2,7.2,0,0,1,.45-2.05,23.81,23.81,0,0,1,1.14,7.68m55.33-17.43c-.74-3.21-2-5.8-2-9.21,0-7.15,2.66-16.39-5.21-20.42h0a11.5,11.5,0,0,0-4.49-1.4c-.88-.07-1.43.41-2.17.48s-1.19-.32-4.07-.32a63.6,63.6,0,0,0-10.06,1.33A110.37,110.37,0,0,1,88,25.32c-3.39.14-6.65-.28-10-.28C75.6,25,66.56,25,66,25l-5.93.27-.63-.05a2.66,2.66,0,0,0-.82-.17l-1.07-.46c-.26-.06-.55,0-.8-.07-.61-.2-1-.66-1.75-.68-.54,0-.83.41-1.39.43l-.21-.07v-.16c.29-.23.41-.65.71-.9s.91-.28,1.25-.71A5.42,5.42,0,0,0,56.27,20c.11-.33.21-.66.32-1,.17-1.13-.23-2.18-1.26-2.14l-.21-.15a4.15,4.15,0,0,0-1.84,1,3.69,3.69,0,0,0-.52,1c-.3.65-1.15,1.8-1.83,1.83l-.81-.44c-.11-.07-.25-.33-.38-.33,0-.13.14-.41.28-.41s0-.08-.07-.08a6.59,6.59,0,0,0-.46-.83,8.28,8.28,0,0,0-2.27-1.08v.08h-.07c0,.11.05.21.07.32l-.42,0a1.94,1.94,0,0,0-.84-.05v.08H46c0,.06.06.08.14.08a6.2,6.2,0,0,0-1,1c-.41.59-.5,1.59-1.26,1.86-.54.2-.74-.93-1.59-.86a.61.61,0,0,0-.46.2,3.26,3.26,0,0,0-.37,1.85l0,.77c-.1.38-.69.88-.89,1.27a3.59,3.59,0,0,0-.38,1A4.72,4.72,0,0,1,40,26.2a6.46,6.46,0,0,1-1.39,1.63c-.13.23-.25.47-.38.71l-.85.93c-.42.53-.75,1.09-1.23,1.59S34,32.43,33.81,33.21v.08A3.92,3.92,0,0,0,34,34.43c.31,2,.87,2.1,2.4,2.58a4.44,4.44,0,0,0,1.91.28c.4-.06,8.28-.52,8.89.11.27.27,1.93,1.39,2.24,1.61.75.5,1.21,1.81,1.72,2.58.79,1.19,1.78,2.21,2.47,3.46.25.51,1.48,3,1.65,3.43,1.87,3.25,10,7.3,12.86,6.88,0,0,0,0,0,0,.34,1.5,1.48,4.37,1.42,5.87,0,1.3.61,2.46.81,3.75.4,2.46.74,8.46-2.25,9.54-.79.59-2,2.48-1.84,2.79s3.33.48,4.62.21,1-.68,1.43-1.63a3.29,3.29,0,0,1,.61-.83.45.45,0,0,0,0,.3c.17.4,1.21.35,1.51.41a6.11,6.11,0,0,0,3.49-.35c1.1-.58.75-2.68.87-2.68s.35.23.46.23.39-.61.4-1.13c0-1.83-1.16-3.12-1.3-6.52-.12-2.88.09-8.26.2-10.23,3.46-.42,6.86.3,10.33.23A58.16,58.16,0,0,0,98,54.84c1.87-.34,5.25-.54,7-1.86h0a7.09,7.09,0,0,0,3.4,2.08c-.13.75-.29,3.41.34,3.41s1-2.12,1.16-3c.13-.07.47,0,.61,0,.2.61-.07,3.19.67,3.19s.6-2.8.77-3a.81.81,0,0,1,.93-.07,3.43,3.43,0,0,1,.28,1.2c0,.57-.08,1.13-.08,1.6,0,1.5,0,2.93-.07,4.43a20.47,20.47,0,0,1-.81,5.32c-.55,1.9-1.43,2.52-2.73,4-.4.41-2.38,3.13-2,3.75s4.14.47,4.76.13c1.15-.61,1.1-2.57,1.7-2.72s.88-.21,1-1.29c.13-.69-.07-1.43.13-2.12.48-2.11,1.77-4.29,2.45-6.4a21.78,21.78,0,0,1,2.69-5.9l-.27-.59c2.11,4.48,3.9,7.55,2.33,15.08-.08.37-.47.34-1,1-.34.55-2.38,3-2.38,3.54s3.67.62,5.09.08c1.23-.41,1.84-3.14,1.84-3.14.27-.41.67-.26.81-.73a3.29,3.29,0,0,0-.2-2c-1.08-2.66.28-6.27.35-9.13V59.09a20.68,20.68,0,0,1,.61-2.38c.2-1.16-.47-1.78-.95-2.66l-.1,0a9,9,0,0,1-1.93-7.61c.6-3.83,3.07-8.22,3.78-12.42a64.49,64.49,0,0,0,.09,11.61c.47,4.29,1.52,5.45,1.46,7.08s-1.16,3-.83,4.59c.55,2.86-.2,3,1.53,5.91a7.69,7.69,0,0,1,.62-5,7.14,7.14,0,0,0-.07-4.43"/><path class="cls-10" d="M125.91,69.62h-1.06V67h1.23a.4.4,0,0,1,.39.4v1.63a.56.56,0,0,1-.56.56"/><path class="cls-5" d="M124.19,65.86h-2.26a.67.67,0,0,0-.66.66v3.67a.66.66,0,0,0,.66.66h2.26a.65.65,0,0,0,.66-.66V66.52a.66.66,0,0,0-.66-.66"/><rect class="cls-11" x="121.27" y="65.86" width="3.58" height="4.99" rx="0.66" ry="0.66"/><path class="cls-12" d="M132.88,66.62a4.83,4.83,0,0,1,.06,5.78m6.44,5a12.77,12.77,0,0,0,0-15.78m-3.14,13a9.14,9.14,0,0,0,0-10.3"/><rect class="cls-13" width="143.11" height="78.44"/></svg>