<svg
  id="visual"
  viewBox="0 0 900 600"
  xmlns="http://www.w3.org/2000/svg"
  version="1.1"
>
  <rect x="0" y="0" width="900" height="600" fill="transparent" />

  <!-- Right side -->
  <g transform="translate(900, 0) scale(0.5, 1)">
    <path
      d="M0 486.7C-67.5 483.9 -134.9 481.1 -186.3 449.7C-237.6 418.3 -272.8 358.5 -309 309C-345.2 259.5 -382.3 220.4 -412.1 170.5C-441.8 120.9 -464.3 60.5 -486.7 0L0 0Z"
      fill="#18b772"
    />
  </g>

  <!-- Left side -->
  <g transform="translate(0, 600) scale(0.5, 1)">
    <path
      d="M0 -486.7C64.5 -481.5 129.1 -476.2 186.3 -449.7C243.4 -423.2 293.2 -375.6 323.9 -323.9C354.5 -272.1 365.9 -216.2 389.9 -161.5C413.8 -106.8 450.3 -53.4 486.7 0L0 0Z"
      fill="#18b772"
    />
  </g>
</svg>
