<svg id="Layer_1" data-name="Layer 1" xmlns="http://www.w3.org/2000/svg" width="134" height="104" viewBox="0 0 98.02 68.68"><defs><style>.cls-1{fill:#fff;}.cls-2{fill:none;stroke:#005978;stroke-linecap:round;stroke-linejoin:round;stroke-width:0.95px;}.cls-3{fill:#edf0f5;}.cls-4{fill:#8dc341;}.cls-5{fill:#009bd9;}</style></defs><title>Phone</title><path class="cls-1" d="M2,6.2S2.75,1.14,9,.72C15.47.29,39.21.5,40.74.81c2,.41,5.74.84,6.47,5.3.77,4.65,2.1,29.71-.71,41-.8,2.43-1.15,6-6.07,6.48l-.36,1.89s.18,1.26-1.79,1.71a23.7,23.7,0,0,1-3.57.54l-1-3.15s-7.5,1.35-19-.09L14,57.7l-4.28-.81a2.24,2.24,0,0,1-1.25-1.71l-.27-1.35S2.45,51.09,1.85,46.9A142.25,142.25,0,0,1,2,6.2"/><path class="cls-2" d="M2,6.2S2.75,1.14,9,.72C15.47.29,39.21.5,40.74.81c2,.41,5.74.84,6.47,5.3.77,4.65,2.1,29.71-.71,41-.8,2.43-1.15,6-6.07,6.48l-.36,1.89s.18,1.26-1.79,1.71a23.7,23.7,0,0,1-3.57.54l-1-3.15s-7.5,1.35-19-.09L14,57.7l-4.28-.81a2.24,2.24,0,0,1-1.25-1.71l-.27-1.35S2.45,51.09,1.85,46.9A142.25,142.25,0,0,1,2,6.2Z"/><path class="cls-1" d="M39.22,42.53c0,3.36-3.56,6.09-8,6.09s-8-2.73-8-6.09,3.57-6.1,8-6.1,8,2.73,8,6.1"/><path class="cls-2" d="M39.22,42.53c0,3.36-3.56,6.09-8,6.09s-8-2.73-8-6.09,3.57-6.1,8-6.1S39.22,39.16,39.22,42.53Z"/><path class="cls-3" d="M15.17,9.5,15,13.19a.9.9,0,0,0,.91,1H32.73a.9.9,0,0,0,1-.93c0-1-.07-3.81-.07-3.81s.13-.66-.78-.66H16.15s-.92-.07-1,.72M7.42,7.38s-.19-1.7,2.09-1.79A303.6,303.6,0,0,1,40,5.59a1.78,1.78,0,0,1,1.84,1.79S43.31,30,41.34,37.54A4,4,0,0,0,41.47,40c.51.95,1.9,6.78-4.38,9.88s-12.87,1.14-16-3.55c-1.3-1.94-4.17-3.22-6.27-3.92-2.92-1-6.14-.86-7.53-4a7.34,7.34,0,0,1-.53-3.11c.06-5.57-1.08-9.77.63-27.82"/><path class="cls-1" d="M31.91,33.55a10.54,10.54,0,0,1,6.66,2.39c1.44-.71,1.09-3.82,1.09-3.82A1.75,1.75,0,0,0,38,30.56H33.22a1.65,1.65,0,0,0-1.32,1.5Zm-2.5,0v-1.7c0-.72-.09-1.31-1.43-1.31H21.91c-1,0-1.71.41-1.71,1.33,0,0,0,2.32,0,2.8.07,1.65,1.09,2.19,2.69,2.59a9.19,9.19,0,0,1,6.48-3.71M21.08,39.8A6.65,6.65,0,0,1,18,36.51a6.28,6.28,0,0,1-.2-1.78,15.93,15.93,0,0,0-.06-2.85,1.68,1.68,0,0,0-.69-1.11,2.35,2.35,0,0,0-1.29-.24H11.72A1.49,1.49,0,0,0,10.23,32l0,4.67a2.9,2.9,0,0,0,2.19,2.61l8.17,2.6a5.84,5.84,0,0,1,.51-2.11"/><path class="cls-2" d="M31.91,33.55a10.54,10.54,0,0,1,6.66,2.39c1.44-.71,1.09-3.82,1.09-3.82A1.75,1.75,0,0,0,38,30.56H33.22a1.65,1.65,0,0,0-1.32,1.5Zm-2.5,0v-1.7c0-.72-.09-1.31-1.43-1.31H21.91c-1,0-1.71.41-1.71,1.33,0,0,0,2.32,0,2.8.07,1.65,1.09,2.19,2.69,2.59A9.19,9.19,0,0,1,29.41,33.57ZM21.08,39.8A6.65,6.65,0,0,1,18,36.51a6.28,6.28,0,0,1-.2-1.78,15.93,15.93,0,0,0-.06-2.85,1.68,1.68,0,0,0-.69-1.11,2.35,2.35,0,0,0-1.29-.24H11.72A1.49,1.49,0,0,0,10.23,32l0,4.67a2.9,2.9,0,0,0,2.19,2.61l8.17,2.6A5.84,5.84,0,0,1,21.08,39.8Z"/><path class="cls-1" d="M36.77,27.63H31.05a.56.56,0,0,1-.56-.56V25.82a.57.57,0,0,1,.56-.57h5.72a.57.57,0,0,1,.56.57v1.25a.56.56,0,0,1-.56.56m-9.39,0H21.66a.56.56,0,0,1-.56-.56V25.82a.57.57,0,0,1,.56-.57h5.72a.57.57,0,0,1,.56.57v1.25a.56.56,0,0,1-.56.56m-9.39,0H12.27a.57.57,0,0,1-.57-.56V25.82a.58.58,0,0,1,.57-.57H18a.57.57,0,0,1,.56.57v1.25a.56.56,0,0,1-.56.56m18.77-4.08H31a.56.56,0,0,1-.56-.56V21.73a.56.56,0,0,1,.56-.56h5.72a.56.56,0,0,1,.56.56V23a.56.56,0,0,1-.56.56m-9.39,0H21.65a.57.57,0,0,1-.57-.56V21.73a.57.57,0,0,1,.57-.56h5.72a.56.56,0,0,1,.56.56V23a.56.56,0,0,1-.56.56m-9.39,0H12.26a.56.56,0,0,1-.57-.56V21.73a.56.56,0,0,1,.57-.56H18a.56.56,0,0,1,.56.56V23a.56.56,0,0,1-.56.56m18.78-4.11H31a.56.56,0,0,1-.56-.56V17.62a.56.56,0,0,1,.56-.56h5.72a.56.56,0,0,1,.56.56v1.26a.56.56,0,0,1-.56.56m-9.39,0H21.65a.57.57,0,0,1-.57-.56V17.62a.57.57,0,0,1,.57-.56h5.72a.56.56,0,0,1,.56.56v1.26a.56.56,0,0,1-.56.56m-9.39,0H12.26a.56.56,0,0,1-.57-.56V17.62a.56.56,0,0,1,.57-.56H18a.56.56,0,0,1,.56.56v1.26a.56.56,0,0,1-.56.56"/><path class="cls-2" d="M36.77,27.63H31.05a.56.56,0,0,1-.56-.56V25.82a.57.57,0,0,1,.56-.57h5.72a.57.57,0,0,1,.56.57v1.25A.56.56,0,0,1,36.77,27.63Zm-9.39,0H21.66a.56.56,0,0,1-.56-.56V25.82a.57.57,0,0,1,.56-.57h5.72a.57.57,0,0,1,.56.57v1.25A.56.56,0,0,1,27.38,27.63Zm-9.39,0H12.27a.57.57,0,0,1-.57-.56V25.82a.58.58,0,0,1,.57-.57H18a.57.57,0,0,1,.56.57v1.25A.56.56,0,0,1,18,27.63Zm18.77-4.08H31a.56.56,0,0,1-.56-.56V21.73a.56.56,0,0,1,.56-.56h5.72a.56.56,0,0,1,.56.56V23A.56.56,0,0,1,36.76,23.55Zm-9.39,0H21.65a.57.57,0,0,1-.57-.56V21.73a.57.57,0,0,1,.57-.56h5.72a.56.56,0,0,1,.56.56V23A.56.56,0,0,1,27.37,23.55Zm-9.39,0H12.26a.56.56,0,0,1-.57-.56V21.73a.56.56,0,0,1,.57-.56H18a.56.56,0,0,1,.56.56V23A.56.56,0,0,1,18,23.55Zm18.78-4.11H31a.56.56,0,0,1-.56-.56V17.62a.56.56,0,0,1,.56-.56h5.72a.56.56,0,0,1,.56.56v1.26A.56.56,0,0,1,36.76,19.44Zm-9.39,0H21.65a.57.57,0,0,1-.57-.56V17.62a.57.57,0,0,1,.57-.56h5.72a.56.56,0,0,1,.56.56v1.26A.56.56,0,0,1,27.37,19.44Zm-9.39,0H12.26a.56.56,0,0,1-.57-.56V17.62a.56.56,0,0,1,.57-.56H18a.56.56,0,0,1,.56.56v1.26A.56.56,0,0,1,18,19.44Z"/><path class="cls-4" d="M31.32,48.54c4.26,0,7.71-2.71,7.71-6s-3.45-6-7.71-6-7.71,2.71-7.71,6,3.46,6,7.71,6"/><polygon class="cls-2" points="46.18 42.37 46.18 47.83 47.99 51.08 62.07 56.5 77.96 53.97 81.94 49.28 82.3 47.11 82.61 44.23 46.18 42.37"/><path class="cls-1" d="M41.68,28.3l-2.15.17-.17,1.13-8,0s-1.21,3.32-.54,5.31a14.35,14.35,0,0,1,.77,3.37l7.68-.2s-.14.87.28,1.16,3.06-.28,3.06.12c0,2,1,2.38,1,2.8s-.19,3.29.31,3.29,1.84-.07,1.84.43.88,6.71,2.86,8.41,6.07,4.48,9.05,5.19,12,.06,14.73-1.1,9.6-4.26,10.31-7.94C83.08,48.5,83.79,42,83.79,42c.74-.71,1.32.39,1.76-.74,1.89-4.87.88-20.46.88-20.46s-.34-8.7-22.71-8.59c-18.22.08-20.89,6.6-20.89,6.6"/><path class="cls-3" d="M64.43,29.72C48.33,30,41.6,26.63,41.6,26.63s.17,15.18,2,15.18a4.06,4.06,0,0,1,2.3.55l.36,6.83A45,45,0,0,0,64.74,54c11,.36,17.34-4.7,17.34-4.7s.32-6.9.83-7.41a13.23,13.23,0,0,1,2.44,0l1.44-15.1S79,29.43,64.43,29.72"/><path class="cls-5" d="M45.47,16.56c.49-.36,2.94-2,3.7-2.39.51-.25,2.21-1,2.56-1.1a15.64,15.64,0,0,1,2.55-.55c1.26-.19,19.38,0,21.21.14a15.49,15.49,0,0,1,2.8.4,23.63,23.63,0,0,1,4.11,2.39,16.41,16.41,0,0,1,1.44,1.71c.06.09.1.19.15.28.18.32-1.15,2.69-1.81,3.38a28.62,28.62,0,0,1-4.71,3.34,13.29,13.29,0,0,1-5.78,1.19c-1.4,0-8,.07-9.53.06a74.21,74.21,0,0,1-8.39-.57c-3.62-.57-7.56-4.43-8-5a8.46,8.46,0,0,1-1.16-2.41,8.2,8.2,0,0,1,.85-.88"/><path class="cls-2" d="M84.44,17.57h0M46.08,45.36H43.9a.34.34,0,0,1-.34-.34V42.34c0-.36-.18-.46-.18-.46m41.94,0s-.19.1-.18.45V45a.34.34,0,0,1-.34.34H82.61M63,63.09v5.12h2.57V63.09m1.18-41.82H61.81a.93.93,0,0,1-.93-.93V19.28a.93.93,0,0,1,.93-.93h4.92a.93.93,0,0,1,.92.93v1.06A.93.93,0,0,1,66.73,21.27Zm1.92-8.81q1.75,0,3.51,0l1.31,0a17.83,17.83,0,0,1,1.79.21,16.83,16.83,0,0,1,2.64.6,15,15,0,0,1,3.59,1.6,12.62,12.62,0,0,1,1.8,1.35,9.51,9.51,0,0,1,.84.84l.21.23s.1.1.1.14A16.84,16.84,0,0,1,83.3,19.4,16,16,0,0,1,82,21a7.84,7.84,0,0,1-.65.64,8.93,8.93,0,0,1-.74.64l-1,.71c-.29.19-.61.35-.91.53s-.47.25-.72.37-.67.32-1,.45-.72.23-1.07.35-.48.15-.73.2l-1.31.25a7.36,7.36,0,0,1-.81.06q-1.08.06-2.16.06h-13q-1.08,0-2.16-.06a7,7,0,0,1-.8-.06l-1.32-.25c-.25,0-.48-.13-.72-.2s-.73-.21-1.08-.35-.67-.3-1-.45-.49-.23-.73-.37-.61-.34-.9-.53-.66-.47-1-.71a9.06,9.06,0,0,1-.75-.64,7.84,7.84,0,0,1-.65-.64,16,16,0,0,1-1.35-1.61,16.84,16.84,0,0,1-1.14-1.93s.08-.1.1-.14l.21-.23c.27-.3.55-.57.84-.84a13.21,13.21,0,0,1,1.8-1.35,15.2,15.2,0,0,1,3.59-1.6,17.09,17.09,0,0,1,2.64-.6c.59-.09,2.67-.24,3.1-.25,1.17,0,2.34,0,3.52,0Zm15.76,5.11s2.26,1.76,2.43,6.67L86.9,28s-.62,9.31-.91,10.87-.17,3-1.29,3.08H83.41s-.7.07-.73.7L82.5,46s0,3.48-2.44,4.65a40.25,40.25,0,0,1-15.72,3.55,39.91,39.91,0,0,1-15.79-3.55C46.07,49.47,46.11,46,46.11,46l-.18-3.3c0-.63-.73-.7-.73-.7H43.91c-1.12-.06-1-1.51-1.29-3.08S41.71,28,41.71,28l.06-3.8c.17-4.91,2.44-6.67,2.44-6.67m2,29s.08,2.7.17,3.07a8.94,8.94,0,0,0,2.74,4.83c2.14,1.78,4.47,4,8.47,4.84a30,30,0,0,0,6,.49H65a30.11,30.11,0,0,0,6-.49c4-.81,6.32-3.06,8.46-4.84a8.86,8.86,0,0,0,2.74-4.83c.09-.37.17-3.07.17-3.07M86.9,26.76c-4.38,1.2-9.88,2.9-22.47,2.9-14.68,0-19-1.25-22.72-2.92M68.47,59.63v.85a4.31,4.31,0,0,1-2.32.27,5,5,0,0,0-1.48-.2c-.29,0-1.08.27-1.62.29a11.87,11.87,0,0,1-1.73-.21,1,1,0,0,0-.68.16.61.61,0,0,1-.65-.24V59.6m8.13,1a.46.46,0,0,1,0,.2,2.29,2.29,0,0,1-1.76,2.28H62.21a2.3,2.3,0,0,1-1.77-2.28M86.57,21.87H89V32.61H86.57m-43.9,6.55H39.44V28.42h2.25M89,22.91h7.81a13,13,0,0,1,.78,4.54,13.42,13.42,0,0,1-.6,4H89M39.44,38.07H31.63a13,13,0,0,1-.79-4.54,13.42,13.42,0,0,1,.6-4h8"/></svg>