<svg id="Layer_1" data-name="Layer 1" xmlns="http://www.w3.org/2000/svg" width="116" height="104" viewBox="0 0 192.23 168.01"><defs><style>.cls-1,.cls-12,.cls-17,.cls-5{fill:#fff;}.cls-1,.cls-17{stroke:#005978;stroke-width:2px;}.cls-1{stroke-linecap:round;stroke-linejoin:round;}.cls-2{fill:#005978;}.cls-3{fill:#edf0f5;}.cls-4{fill:#009bd9;}.cls-6{fill:#e6e6e5;}.cls-7{opacity:0.7;}.cls-8{fill:#0e0f1c;}.cls-9{fill:#f3ad24;}.cls-10{fill:#e86230;}.cls-11{fill:#8dc63f;}.cls-12{stroke:#e6e6e5;stroke-width:0.19px;}.cls-12,.cls-17{stroke-miterlimit:10;}.cls-13{fill:#f3f3f3;}.cls-14{opacity:0.3;}.cls-15{opacity:0.5;}.cls-16{fill:#444949;}.cls-18{fill:#ef4136;}.cls-19{fill:#b7b8b8;}</style></defs><title>Phone-02</title><path class="cls-1" d="M73.34,121.59h32.24M173.09,1H5.83A4.83,4.83,0,0,0,1,5.83V116.76a4.83,4.83,0,0,0,4.83,4.83h63a6.12,6.12,0,0,1-2.22,4.93c-1.2,1.18-2.73,1.61-4.12,3.15s-2.19,4-2.19,9v.89h58.25v-.89c0-4.95-.81-7.42-2.18-9s-2.92-2-4.12-3.15a6.12,6.12,0,0,1-2.22-4.93h63a4.83,4.83,0,0,0,4.82-4.83h0V5.83A4.84,4.84,0,0,0,173.09,1Z"/><polyline class="cls-1" points="8.08 113.84 8.08 8.75 170.84 8.75 170.84 113.18 170.84 113.84 8.08 113.84"/><path class="cls-1" d="M18.7,155.17Zm0-2.81Zm141.52,0h0a.38.38,0,0,0-.06-.19c-3.1-4.79-6.83-9.57-9.92-14.36-.39-.59-2.13-1.07-3.9-1.07H32.58c-1.77,0-3.51.48-3.9,1.07-3.1,4.79-6.82,9.57-9.92,14.36a.3.3,0,0,0-.06.19v2.81c0,.49,1.29.87,3.13.87H157.09c1.84,0,3.13-.37,3.13-.87h0v-2.81Z"/><path class="cls-2" d="M87.72,5a1.74,1.74,0,1,1,1.74,1.73A1.74,1.74,0,0,1,87.72,5Z"/><rect id="_Path_" data-name="&lt;Path&gt;" class="cls-3" x="9.09" y="16.08" width="160.74" height="96.91"/><rect id="_Rectangle_" data-name="&lt;Rectangle&gt;" class="cls-4" x="85.08" y="-66.33" width="8.75" height="160.74" transform="translate(103.49 -75.42) rotate(90)"/><g id="_Group_" data-name="&lt;Group&gt;"><rect id="_Rectangle_2" data-name="&lt;Rectangle&gt;" class="cls-5" x="16.65" y="74.79" width="39.03" height="33.04" rx="1.3" ry="1.3"/><path id="_Compound_Path_" data-name="&lt;Compound Path&gt;" class="cls-6" d="M54.38,107.91H18a1.39,1.39,0,0,1-1.39-1.39V76.09A1.38,1.38,0,0,1,18,74.71H54.38a1.38,1.38,0,0,1,1.38,1.38v30.43A1.38,1.38,0,0,1,54.38,107.91ZM18,74.87a1.23,1.23,0,0,0-1.23,1.22v30.43A1.22,1.22,0,0,0,18,107.74H54.38a1.22,1.22,0,0,0,1.22-1.22V76.09a1.22,1.22,0,0,0-1.22-1.22Z"/></g><g id="_Group_2" data-name="&lt;Group&gt;" class="cls-7"><path id="_Compound_Path_2" data-name="&lt;Compound Path&gt;" class="cls-8" d="M47.05,80.62h.09a.25.25,0,0,0,.13,0,.22.22,0,0,0,.09-.07.2.2,0,0,0,0-.11.21.21,0,0,0-.06-.16.25.25,0,0,0-.16,0,.24.24,0,0,0-.17.06.2.2,0,0,0-.06.15h-.09a.28.28,0,0,1,0-.15.35.35,0,0,1,.11-.1.47.47,0,0,1,.17,0,.31.31,0,0,1,.22.08.25.25,0,0,1,.08.21.17.17,0,0,1,0,.14.22.22,0,0,1-.13.1.27.27,0,0,1,.15.09.24.24,0,0,1,.05.16.29.29,0,0,1-.09.22.32.32,0,0,1-.23.08.33.33,0,0,1-.17,0,.29.29,0,0,1-.12-.1.3.3,0,0,1-.05-.16h.09a.22.22,0,0,0,.07.17.28.28,0,0,0,.18.06.24.24,0,0,0,.17-.06.22.22,0,0,0,.07-.16.24.24,0,0,0-.07-.17.37.37,0,0,0-.2,0h-.09Z"/><path id="_Compound_Path_3" data-name="&lt;Compound Path&gt;" class="cls-8" d="M48.31,80.75a.63.63,0,0,1-.08.34.28.28,0,0,1-.24.11.3.3,0,0,1-.24-.11.62.62,0,0,1-.08-.33v-.19a.52.52,0,0,1,.08-.33.26.26,0,0,1,.24-.12.3.3,0,0,1,.24.11.59.59,0,0,1,.08.33Zm-.08-.19a.49.49,0,0,0-.06-.27.23.23,0,0,0-.36,0,.48.48,0,0,0-.06.26v.21a.49.49,0,0,0,.06.27.19.19,0,0,0,.18.1.2.2,0,0,0,.18-.09.9.9,0,0,0,.06-.28Z"/><path id="_Compound_Path_4" data-name="&lt;Compound Path&gt;" class="cls-8" d="M48.48,80.34a.3.3,0,0,1,.05-.16.22.22,0,0,1,.3,0,.25.25,0,0,1,.06.16v.06a.21.21,0,0,1-.21.21.17.17,0,0,1-.14-.06.21.21,0,0,1-.06-.16Zm.07,0a.21.21,0,0,0,0,.12.18.18,0,0,0,.1,0,.15.15,0,0,0,.1,0,.16.16,0,0,0,0-.12v0a.18.18,0,0,0,0-.11.13.13,0,0,0-.2,0,.2.2,0,0,0,0,.11Zm.16.71-.05,0,.51-.82,0,0Zm.29-.17a.25.25,0,0,1,.06-.16.22.22,0,0,1,.3,0,.24.24,0,0,1,0,.16V81a.2.2,0,0,1,0,.15.22.22,0,0,1-.3,0A.21.21,0,0,1,49,81Zm.07.06a.21.21,0,0,0,0,.11.15.15,0,0,0,.2,0,.21.21,0,0,0,0-.12v0a.18.18,0,0,0,0-.11.14.14,0,0,0-.2,0,.18.18,0,0,0,0,.11Z"/></g><g id="_Group_3" data-name="&lt;Group&gt;"><g id="_Group_4" data-name="&lt;Group&gt;"><g id="_Group_5" data-name="&lt;Group&gt;" class="cls-7"><path id="_Compound_Path_5" data-name="&lt;Compound Path&gt;" class="cls-8" d="M25.06,103.28h.09V104a.29.29,0,0,1-.09.23.37.37,0,0,1-.47,0,.29.29,0,0,1-.08-.22h.09a.22.22,0,0,0,.06.17.24.24,0,0,0,.17.06.19.19,0,0,0,.16-.07.25.25,0,0,0,.07-.18Z"/><path id="_Compound_Path_6" data-name="&lt;Compound Path&gt;" class="cls-8" d="M25.69,104.34a.36.36,0,0,1-.31-.18.45.45,0,0,1,0-.2v0a.45.45,0,0,1,0-.2.33.33,0,0,1,.12-.14.26.26,0,0,1,.17,0,.3.3,0,0,1,.23.09.46.46,0,0,1,.08.27v0h-.56a.33.33,0,0,0,.08.22.23.23,0,0,0,.19.09l.12,0a.28.28,0,0,0,.1-.09l.05,0A.3.3,0,0,1,25.69,104.34Zm0-.73a.2.2,0,0,0-.16.07.3.3,0,0,0-.08.19h.46a.28.28,0,0,0-.06-.18A.19.19,0,0,0,25.67,103.61Z"/><path id="_Compound_Path_7" data-name="&lt;Compound Path&gt;" class="cls-8" d="M26.64,104.33a.31.31,0,0,1,0-.11.31.31,0,0,1-.11.09.4.4,0,0,1-.15,0,.24.24,0,0,1-.18-.06.19.19,0,0,1-.07-.16.23.23,0,0,1,.09-.18.48.48,0,0,1,.26-.06h.16v-.09a.17.17,0,0,0-.2-.18.24.24,0,0,0-.15,0,.16.16,0,0,0-.06.12h-.09a.21.21,0,0,1,.09-.16.37.37,0,0,1,.21-.06.33.33,0,0,1,.21.06.22.22,0,0,1,.08.18v.37a.39.39,0,0,0,0,.17h-.09Zm-.27-.06a.33.33,0,0,0,.15,0,.23.23,0,0,0,.1-.12v-.17h-.15a.34.34,0,0,0-.2,0,.14.14,0,0,0-.08.13.12.12,0,0,0,0,.1A.19.19,0,0,0,26.37,104.27Z"/><path id="_Compound_Path_8" data-name="&lt;Compound Path&gt;" class="cls-8" d="M27,103.55v.13a.57.57,0,0,1,.11-.11.33.33,0,0,1,.15,0,.21.21,0,0,1,.18.07.29.29,0,0,1,.06.21v.51h-.08v-.51a.25.25,0,0,0-.05-.16.17.17,0,0,0-.14,0,.24.24,0,0,0-.14,0,.28.28,0,0,0-.09.14v.53h-.08v-.78Z"/></g><rect id="_Rectangle_3" data-name="&lt;Rectangle&gt;" class="cls-9" x="20.96" y="102.99" width="1.75" height="1.75"/></g><g id="_Group_6" data-name="&lt;Group&gt;"><g id="_Group_7" data-name="&lt;Group&gt;" class="cls-7"><path id="_Compound_Path_9" data-name="&lt;Compound Path&gt;" class="cls-8" d="M36.4,103.94v.43h-.09v-1.05h.36a.35.35,0,0,1,.26.08.34.34,0,0,1,0,.46.4.4,0,0,1-.26.08Zm0-.08h.27a.3.3,0,0,0,.2-.06.24.24,0,0,0,0-.34.25.25,0,0,0-.19-.07H36.4Z"/><path id="_Compound_Path_10" data-name="&lt;Compound Path&gt;" class="cls-8" d="M37.49,104.38a.41.41,0,0,1-.18,0,.33.33,0,0,1-.12-.14.38.38,0,0,1,0-.19v0a.46.46,0,0,1,0-.21.41.41,0,0,1,.12-.14.34.34,0,0,1,.17-.05.26.26,0,0,1,.22.1.36.36,0,0,1,.09.26v0h-.56v0a.33.33,0,0,0,.08.22.23.23,0,0,0,.19.09.24.24,0,0,0,.12,0,.25.25,0,0,0,.1-.08l.05,0A.31.31,0,0,1,37.49,104.38Zm0-.74a.23.23,0,0,0-.17.08.33.33,0,0,0-.08.19h.47a.24.24,0,0,0-.06-.18A.21.21,0,0,0,37.48,103.64Z"/><path id="_Compound_Path_11" data-name="&lt;Compound Path&gt;" class="cls-8" d="M38.09,103.39v.2h.16v.07h-.16v.52a.2.2,0,0,0,0,.09.1.1,0,0,0,.08,0h.07v.07h-.09a.17.17,0,0,1-.13,0,.33.33,0,0,1,0-.15v-.52h-.14v-.07H38v-.2Z"/><path id="_Compound_Path_12" data-name="&lt;Compound Path&gt;" class="cls-8" d="M38.73,104.38a.35.35,0,0,1-.18,0,.33.33,0,0,1-.12-.14.38.38,0,0,1,0-.19v0a.65.65,0,0,1,0-.21.35.35,0,0,1,.13-.14.3.3,0,0,1,.16-.05.28.28,0,0,1,.23.1.35.35,0,0,1,.08.26v0h-.55v0a.32.32,0,0,0,.07.22.25.25,0,0,0,.19.09.28.28,0,0,0,.13,0,.32.32,0,0,0,.09-.08l.06,0A.34.34,0,0,1,38.73,104.38Zm0-.74a.23.23,0,0,0-.16.08.33.33,0,0,0-.08.19h.47a.3.3,0,0,0-.07-.18A.19.19,0,0,0,38.71,103.64Z"/><path id="_Compound_Path_13" data-name="&lt;Compound Path&gt;" class="cls-8" d="M39.55,103.66h-.06a.19.19,0,0,0-.13,0,.2.2,0,0,0-.08.13v.54h-.09v-.78h.08v.12a.23.23,0,0,1,.22-.14h0Z"/></g><rect id="_Rectangle_4" data-name="&lt;Rectangle&gt;" class="cls-10" x="32.68" y="103.02" width="1.75" height="1.75"/></g><g id="_Group_8" data-name="&lt;Group&gt;"><g id="_Group_9" data-name="&lt;Group&gt;" class="cls-7"><path id="_Compound_Path_14" data-name="&lt;Compound Path&gt;" class="cls-8" d="M48.72,103.28h.09V104a.29.29,0,0,1-.09.23.3.3,0,0,1-.23.09.28.28,0,0,1-.23-.08.27.27,0,0,1-.09-.22h.09a.22.22,0,0,0,.06.17.24.24,0,0,0,.17.06.19.19,0,0,0,.16-.07.21.21,0,0,0,.07-.18Z"/><path id="_Compound_Path_15" data-name="&lt;Compound Path&gt;" class="cls-8" d="M49,103.93a.42.42,0,0,1,0-.2.29.29,0,0,1,.13-.14.27.27,0,0,1,.18,0,.33.33,0,0,1,.25.1.46.46,0,0,1,.09.29v0a.49.49,0,0,1,0,.21.3.3,0,0,1-.12.13.29.29,0,0,1-.18,0,.28.28,0,0,1-.25-.11A.37.37,0,0,1,49,104Zm.08,0a.36.36,0,0,0,.08.23.23.23,0,0,0,.19.09.25.25,0,0,0,.19-.09.43.43,0,0,0,.07-.24h0a.47.47,0,0,0,0-.17.52.52,0,0,0-.1-.11.2.2,0,0,0-.13,0,.23.23,0,0,0-.19.09.36.36,0,0,0-.08.24Z"/><path id="_Compound_Path_16" data-name="&lt;Compound Path&gt;" class="cls-8" d="M50,103.68a.38.38,0,0,1,.11-.11.32.32,0,0,1,.14,0,.24.24,0,0,1,.19.07.29.29,0,0,1,.06.21v.51h-.09v-.51a.25.25,0,0,0,0-.16.2.2,0,0,0-.14,0,.24.24,0,0,0-.14,0,.28.28,0,0,0-.09.14v.53h-.09v-1.11H50Z"/><path id="_Compound_Path_17" data-name="&lt;Compound Path&gt;" class="cls-8" d="M50.76,103.55v.13a.38.38,0,0,1,.11-.11.32.32,0,0,1,.14,0,.24.24,0,0,1,.19.07.29.29,0,0,1,.06.21v.51h-.09v-.51a.25.25,0,0,0,0-.16.2.2,0,0,0-.14,0,.24.24,0,0,0-.14,0,.28.28,0,0,0-.09.14v.53h-.09v-.78Z"/></g><rect id="_Rectangle_5" data-name="&lt;Rectangle&gt;" class="cls-11" x="44.62" y="102.99" width="1.75" height="1.75"/></g></g><g id="_Group_10" data-name="&lt;Group&gt;"><path id="_Path_2" data-name="&lt;Path&gt;" class="cls-10" d="M28.12,94.3a9.62,9.62,0,0,1,2.1-12.76L33,85a5.22,5.22,0,0,0-1.14,6.93Z"/></g><g id="_Group_11" data-name="&lt;Group&gt;"><path id="_Path_3" data-name="&lt;Path&gt;" class="cls-9" d="M36.2,98.7a9.6,9.6,0,0,1-8.08-4.4l3.7-2.39a5.22,5.22,0,0,0,6.78,1.81l2,3.9A9.53,9.53,0,0,1,36.2,98.7Z"/></g><g id="_Group_12" data-name="&lt;Group&gt;"><path id="_Path_4" data-name="&lt;Path&gt;" class="cls-9" d="M40.62,97.62l-2-3.9a5.22,5.22,0,0,0,2.82-4.64h4.41A9.59,9.59,0,0,1,40.62,97.62Z"/></g><g id="_Group_13" data-name="&lt;Group&gt;"><path id="_Path_5" data-name="&lt;Path&gt;" class="cls-11" d="M45.83,89.08H41.42a5.22,5.22,0,0,0-5.22-5.23A5.15,5.15,0,0,0,33,85l-2.74-3.44a9.62,9.62,0,0,1,15.61,7.54Z"/></g><g id="_Group_14" data-name="&lt;Group&gt;"><polygon id="_Path_6" data-name="&lt;Path&gt;" class="cls-11" points="41.33 85.2 41.1 84.97 44.14 81.94 49.48 81.94 49.48 82.26 44.27 82.26 41.33 85.2"/></g><g id="_Group_15" data-name="&lt;Group&gt;" class="cls-7"><path id="_Compound_Path_18" data-name="&lt;Compound Path&gt;" class="cls-8" d="M21.07,85.76h-.66V85.7l.36-.41a.91.91,0,0,0,.12-.17.24.24,0,0,0,0-.13.21.21,0,0,0-.22-.22.24.24,0,0,0-.17.07.27.27,0,0,0-.07.18h-.08a.27.27,0,0,1,0-.16.25.25,0,0,1,.11-.12.33.33,0,0,1,.17,0,.26.26,0,0,1,.22.08A.24.24,0,0,1,21,85a.37.37,0,0,1-.05.16,1.06,1.06,0,0,1-.16.22l-.29.33h.55Z"/><path id="_Compound_Path_19" data-name="&lt;Compound Path&gt;" class="cls-8" d="M21.86,85.33a.59.59,0,0,1-.08.33.3.3,0,0,1-.48,0,.56.56,0,0,1-.08-.32v-.19a.55.55,0,0,1,.08-.34.28.28,0,0,1,.24-.11.3.3,0,0,1,.24.11.56.56,0,0,1,.08.32Zm-.09-.19a.62.62,0,0,0-.05-.27.19.19,0,0,0-.18-.1.2.2,0,0,0-.18.09.49.49,0,0,0-.06.27v.2a.53.53,0,0,0,.06.28.2.2,0,0,0,.18.09.19.19,0,0,0,.17-.09.49.49,0,0,0,.06-.27Z"/><path id="_Compound_Path_20" data-name="&lt;Compound Path&gt;" class="cls-8" d="M22,84.92a.21.21,0,0,1,0-.16.22.22,0,0,1,.3,0,.21.21,0,0,1,.06.16v0a.2.2,0,0,1-.06.15.18.18,0,0,1-.15.07.2.2,0,0,1-.15-.06A.22.22,0,0,1,22,85Zm.07,0a.18.18,0,0,0,0,.11.13.13,0,0,0,.1,0,.12.12,0,0,0,.1,0,.21.21,0,0,0,0-.11v0a.21.21,0,0,0,0-.12.14.14,0,0,0-.2,0,.21.21,0,0,0,0,.12Zm.16.71-.05,0,.51-.82.05,0Zm.29-.17a.21.21,0,0,1,.06-.16.2.2,0,0,1,.15-.06.17.17,0,0,1,.14.06.21.21,0,0,1,.06.16v0a.28.28,0,0,1-.05.16.22.22,0,0,1-.3,0,.23.23,0,0,1-.06-.16Zm.07,0a.14.14,0,0,0,0,.11.12.12,0,0,0,.1,0,.14.14,0,0,0,.1,0,.2.2,0,0,0,0-.11V85.5a.2.2,0,0,0,0-.11.18.18,0,0,0-.1,0,.15.15,0,0,0-.1,0,.16.16,0,0,0,0,.12Z"/></g><g id="_Group_16" data-name="&lt;Group&gt;"><polygon id="_Path_7" data-name="&lt;Path&gt;" class="cls-10" points="28.46 89.9 25.52 86.96 20.31 86.96 20.31 86.64 25.66 86.64 28.69 89.67 28.46 89.9"/></g><g id="_Group_17" data-name="&lt;Group&gt;" class="cls-7"><path id="_Compound_Path_21" data-name="&lt;Compound Path&gt;" class="cls-8" d="M46.92,95l0-.52h.53v.08h-.45l0,.36a.32.32,0,0,1,.2-.06.28.28,0,0,1,.22.09.35.35,0,0,1,.09.25.37.37,0,0,1-.09.26.29.29,0,0,1-.23.09.33.33,0,0,1-.22-.08.3.3,0,0,1-.1-.21H47a.26.26,0,0,0,.07.16.21.21,0,0,0,.16,0,.19.19,0,0,0,.17-.07.28.28,0,0,0,.06-.2.29.29,0,0,0-.06-.19.24.24,0,0,0-.18-.07h-.11L47,95Z"/><path id="_Compound_Path_22" data-name="&lt;Compound Path&gt;" class="cls-8" d="M48.31,95.07a.59.59,0,0,1-.08.33.26.26,0,0,1-.24.12.29.29,0,0,1-.24-.12.56.56,0,0,1-.08-.32v-.19a.55.55,0,0,1,.08-.34.28.28,0,0,1,.24-.11.3.3,0,0,1,.24.11.56.56,0,0,1,.08.32Zm-.08-.19a.49.49,0,0,0-.06-.27.19.19,0,0,0-.18-.1.2.2,0,0,0-.18.09.49.49,0,0,0-.06.27v.21a.51.51,0,0,0,.06.27.22.22,0,0,0,.36,0,.77.77,0,0,0,.06-.27Z"/><path id="_Compound_Path_23" data-name="&lt;Compound Path&gt;" class="cls-8" d="M48.48,94.66a.25.25,0,0,1,.05-.16.22.22,0,0,1,.3,0,.23.23,0,0,1,.06.16v0a.25.25,0,0,1-.06.16.2.2,0,0,1-.15.06.17.17,0,0,1-.14-.06.23.23,0,0,1-.06-.16Zm.07,0a.18.18,0,0,0,0,.11.13.13,0,0,0,.1,0,.12.12,0,0,0,.1,0,.15.15,0,0,0,0-.11v0a.21.21,0,0,0,0-.12.14.14,0,0,0-.2,0,.21.21,0,0,0,0,.12Zm.16.71-.05,0,.51-.82,0,0Zm.29-.17a.21.21,0,0,1,.06-.16.22.22,0,0,1,.3,0,.21.21,0,0,1,0,.16v0a.22.22,0,0,1,0,.16.22.22,0,0,1-.3,0A.23.23,0,0,1,49,95.3Zm.07,0a.18.18,0,0,0,0,.11.13.13,0,0,0,.2,0,.18.18,0,0,0,0-.11v0a.21.21,0,0,0,0-.12.14.14,0,0,0-.2,0,.21.21,0,0,0,0,.12Z"/></g><g id="_Group_18" data-name="&lt;Group&gt;"><polygon id="_Path_8" data-name="&lt;Path&gt;" class="cls-9" points="49.48 96.58 44.11 96.58 42.21 93.27 42.5 93.11 44.3 96.25 49.48 96.25 49.48 96.58"/></g><path id="_Path_9" data-name="&lt;Path&gt;" class="cls-12" d="M161.42,24H18.06a1.49,1.49,0,0,0-1.49,1.49V70.9a.93.93,0,0,0,.93.93h132a.92.92,0,0,0,.93-.93V40h11a.93.93,0,0,0,.93-.93V24.93A.93.93,0,0,0,161.42,24Z"/><rect id="_Rectangle_6" data-name="&lt;Rectangle&gt;" class="cls-9" x="153.92" y="28.06" width="4.96" height="4.96"/><rect id="_Rectangle_7" data-name="&lt;Rectangle&gt;" class="cls-10" x="153.92" y="43.96" width="4.96" height="4.96"/><rect id="_Rectangle_8" data-name="&lt;Rectangle&gt;" class="cls-11" x="153.92" y="59.86" width="4.96" height="4.96"/><g id="_Group_19" data-name="&lt;Group&gt;" class="cls-7"><path id="_Compound_Path_24" data-name="&lt;Compound Path&gt;" class="cls-8" d="M155.27,34.68h.1v.84a.36.36,0,0,1-.1.27.33.33,0,0,1-.26.1.37.37,0,0,1-.27-.09.36.36,0,0,1-.09-.26h.1a.24.24,0,0,0,.07.2.27.27,0,0,0,.19.07.26.26,0,0,0,.19-.08.33.33,0,0,0,.07-.21Z"/><path id="_Compound_Path_25" data-name="&lt;Compound Path&gt;" class="cls-8" d="M156,35.89a.37.37,0,0,1-.21-.06.29.29,0,0,1-.14-.15.54.54,0,0,1,0-.22v0a.56.56,0,0,1,0-.23.36.36,0,0,1,.14-.16A.33.33,0,0,1,156,35a.35.35,0,0,1,.26.11.45.45,0,0,1,.09.3v.06h-.63v0a.41.41,0,0,0,.08.25.3.3,0,0,0,.22.1.32.32,0,0,0,.14,0,.31.31,0,0,0,.11-.09l.06,0A.34.34,0,0,1,156,35.89Zm0-.84a.27.27,0,0,0-.19.08.4.4,0,0,0-.09.22h.53a.31.31,0,0,0-.07-.21A.25.25,0,0,0,156,35.05Z"/><path id="_Compound_Path_26" data-name="&lt;Compound Path&gt;" class="cls-8" d="M157.07,35.87a.38.38,0,0,1,0-.12.28.28,0,0,1-.14.1.33.33,0,0,1-.17,0,.27.27,0,0,1-.2-.07.22.22,0,0,1-.08-.18.24.24,0,0,1,.1-.21.57.57,0,0,1,.31-.07h.17v-.1a.21.21,0,0,0-.05-.15.24.24,0,0,0-.18-.06.34.34,0,0,0-.17.05.18.18,0,0,0-.06.13h-.1a.21.21,0,0,1,.1-.18.41.41,0,0,1,.47,0,.26.26,0,0,1,.09.21v.42a.44.44,0,0,0,0,.19h-.11Zm-.3-.07a.33.33,0,0,0,.17,0,.33.33,0,0,0,.11-.13v-.2h-.17a.37.37,0,0,0-.23.06.14.14,0,0,0-.08.14.13.13,0,0,0,.05.12A.2.2,0,0,0,156.77,35.8Z"/><path id="_Compound_Path_27" data-name="&lt;Compound Path&gt;" class="cls-8" d="M157.51,35v.15a.33.33,0,0,1,.13-.13.29.29,0,0,1,.16,0,.26.26,0,0,1,.21.08.33.33,0,0,1,.07.24v.58H158v-.58a.3.3,0,0,0-.05-.18.21.21,0,0,0-.16-.06.23.23,0,0,0-.16.06.31.31,0,0,0-.11.16v.6h-.1V35Z"/></g><g id="_Group_20" data-name="&lt;Group&gt;" class="cls-7"><path id="_Compound_Path_28" data-name="&lt;Compound Path&gt;" class="cls-8" d="M154.72,51.29v.49h-.1v-1.2h.4a.4.4,0,0,1,.3.1.36.36,0,0,1,0,.52.45.45,0,0,1-.3.09Zm0-.09h.3a.32.32,0,0,0,.23-.07.24.24,0,0,0,.07-.19.27.27,0,0,0-.07-.2.31.31,0,0,0-.22-.07h-.31Z"/><path id="_Compound_Path_29" data-name="&lt;Compound Path&gt;" class="cls-8" d="M156,51.79a.46.46,0,0,1-.2,0,.46.46,0,0,1-.15-.16.54.54,0,0,1-.05-.22v0a.59.59,0,0,1,.05-.23.44.44,0,0,1,.14-.16.35.35,0,0,1,.19-.06.33.33,0,0,1,.26.11.49.49,0,0,1,.1.3v.06h-.64v0a.37.37,0,0,0,.09.25.27.27,0,0,0,.22.1.32.32,0,0,0,.14,0,.44.44,0,0,0,.11-.09l.06,0A.38.38,0,0,1,156,51.79Zm0-.84a.23.23,0,0,0-.18.09.41.41,0,0,0-.1.21h.54a.32.32,0,0,0-.07-.2A.23.23,0,0,0,155.94,51Z"/><path id="_Compound_Path_30" data-name="&lt;Compound Path&gt;" class="cls-8" d="M156.64,50.66v.23h.18V51h-.18v.59a.16.16,0,0,0,0,.11s0,0,.09,0h.08v.08h-.11a.17.17,0,0,1-.14-.06.25.25,0,0,1-.05-.17V51h-.16v-.08h.16v-.23Z"/><path id="_Compound_Path_31" data-name="&lt;Compound Path&gt;" class="cls-8" d="M157.37,51.79a.46.46,0,0,1-.2,0,.36.36,0,0,1-.14-.16.43.43,0,0,1-.06-.22v0a.59.59,0,0,1,.05-.23.44.44,0,0,1,.14-.16.35.35,0,0,1,.19-.06.33.33,0,0,1,.26.11.49.49,0,0,1,.1.3v.06h-.64v0a.37.37,0,0,0,.09.25.27.27,0,0,0,.22.1.32.32,0,0,0,.14,0,.44.44,0,0,0,.11-.09l.06,0A.38.38,0,0,1,157.37,51.79Zm0-.84a.23.23,0,0,0-.18.09.34.34,0,0,0-.09.21h.53a.32.32,0,0,0-.07-.2A.23.23,0,0,0,157.35,51Z"/><path id="_Compound_Path_32" data-name="&lt;Compound Path&gt;" class="cls-8" d="M158.31,51h-.07a.24.24,0,0,0-.24.2v.61h-.1v-.89H158V51a.25.25,0,0,1,.25-.16h.06Z"/></g><g id="_Group_21" data-name="&lt;Group&gt;" class="cls-7"><path id="_Compound_Path_33" data-name="&lt;Compound Path&gt;" class="cls-8" d="M155.22,66.48h.1v.84a.36.36,0,0,1-.36.38.36.36,0,0,1-.27-.1.33.33,0,0,1-.09-.25h.1a.22.22,0,0,0,.07.19.24.24,0,0,0,.19.07.26.26,0,0,0,.26-.28Z"/><path id="_Compound_Path_34" data-name="&lt;Compound Path&gt;" class="cls-8" d="M155.54,67.22a.59.59,0,0,1,.05-.23.36.36,0,0,1,.14-.16.37.37,0,0,1,.21-.06.39.39,0,0,1,.29.13.49.49,0,0,1,.11.33v0a.59.59,0,0,1-.05.23.44.44,0,0,1-.14.16.37.37,0,0,1-.21.06.39.39,0,0,1-.29-.13.49.49,0,0,1-.11-.33Zm.1,0a.45.45,0,0,0,.08.26.29.29,0,0,0,.44,0,.46.46,0,0,0,.08-.27v0a.41.41,0,0,0,0-.19.35.35,0,0,0-.11-.13.24.24,0,0,0-.15,0,.27.27,0,0,0-.22.1.46.46,0,0,0-.08.27Z"/><path id="_Compound_Path_35" data-name="&lt;Compound Path&gt;" class="cls-8" d="M156.64,66.94a.34.34,0,0,1,.12-.12.34.34,0,0,1,.17,0,.29.29,0,0,1,.21.08.44.44,0,0,1,.07.25v.58h-.1v-.59a.29.29,0,0,0-.05-.17.2.2,0,0,0-.16-.06.25.25,0,0,0-.16.06.27.27,0,0,0-.1.15v.61h-.1V66.42h.1Z"/><path id="_Compound_Path_36" data-name="&lt;Compound Path&gt;" class="cls-8" d="M157.56,66.79v.15a.34.34,0,0,1,.12-.12.34.34,0,0,1,.17,0,.27.27,0,0,1,.21.08.37.37,0,0,1,.07.25v.58H158v-.59a.23.23,0,0,0-.05-.17.18.18,0,0,0-.15-.06.25.25,0,0,0-.17.06.33.33,0,0,0-.1.15v.61h-.1v-.89Z"/></g><g id="_Group_22" data-name="&lt;Group&gt;"><g id="_Group_23" data-name="&lt;Group&gt;"><rect id="_Path_10" data-name="&lt;Path&gt;" class="cls-13" x="25.28" y="32.57" width="0.19" height="30.69"/></g><g id="_Group_24" data-name="&lt;Group&gt;"><rect id="_Path_11" data-name="&lt;Path&gt;" class="cls-13" x="34.97" y="32.57" width="0.19" height="30.69"/></g><g id="_Group_25" data-name="&lt;Group&gt;"><rect id="_Path_12" data-name="&lt;Path&gt;" class="cls-13" x="44.66" y="32.57" width="0.19" height="30.69"/></g><g id="_Group_26" data-name="&lt;Group&gt;"><rect id="_Path_13" data-name="&lt;Path&gt;" class="cls-13" x="54.35" y="32.57" width="0.19" height="30.69"/></g><g id="_Group_27" data-name="&lt;Group&gt;"><rect id="_Path_14" data-name="&lt;Path&gt;" class="cls-13" x="64.04" y="32.57" width="0.19" height="30.69"/></g><g id="_Group_28" data-name="&lt;Group&gt;"><rect id="_Path_15" data-name="&lt;Path&gt;" class="cls-13" x="73.73" y="32.57" width="0.19" height="30.69"/></g><g id="_Group_29" data-name="&lt;Group&gt;"><rect id="_Path_16" data-name="&lt;Path&gt;" class="cls-13" x="83.42" y="32.57" width="0.19" height="30.69"/></g><g id="_Group_30" data-name="&lt;Group&gt;"><rect id="_Path_17" data-name="&lt;Path&gt;" class="cls-13" x="93.11" y="32.57" width="0.19" height="30.69"/></g><g id="_Group_31" data-name="&lt;Group&gt;"><rect id="_Path_18" data-name="&lt;Path&gt;" class="cls-13" x="102.8" y="32.57" width="0.19" height="30.69"/></g><g id="_Group_32" data-name="&lt;Group&gt;"><rect id="_Path_19" data-name="&lt;Path&gt;" class="cls-13" x="112.49" y="32.57" width="0.19" height="30.69"/></g><g id="_Group_33" data-name="&lt;Group&gt;"><rect id="_Path_20" data-name="&lt;Path&gt;" class="cls-13" x="122.18" y="32.57" width="0.19" height="30.69"/></g><g id="_Group_34" data-name="&lt;Group&gt;"><rect id="_Path_21" data-name="&lt;Path&gt;" class="cls-13" x="131.87" y="32.57" width="0.19" height="30.69"/></g><g id="_Group_35" data-name="&lt;Group&gt;"><rect id="_Path_22" data-name="&lt;Path&gt;" class="cls-13" x="141.55" y="32.57" width="0.19" height="30.69"/></g></g><g id="_Group_36" data-name="&lt;Group&gt;" class="cls-14"><path id="_Compound_Path_37" data-name="&lt;Compound Path&gt;" class="cls-8" d="M30.52,65.44a.37.37,0,0,1-.08.22.45.45,0,0,1-.19.14.52.52,0,0,1,.22.16.36.36,0,0,1,.09.24.42.42,0,0,1-.14.33.55.55,0,0,1-.37.12.53.53,0,0,1-.37-.12.42.42,0,0,1-.14-.33.41.41,0,0,1,.08-.24.52.52,0,0,1,.22-.16.45.45,0,0,1-.19-.14.36.36,0,0,1-.07-.22.39.39,0,0,1,.13-.32.47.47,0,0,1,.34-.12.49.49,0,0,1,.34.12A.44.44,0,0,1,30.52,65.44Zm-.09.76a.3.3,0,0,0-.11-.24.36.36,0,0,0-.27-.1.4.4,0,0,0-.27.09.34.34,0,0,0-.11.25.3.3,0,0,0,.1.24.37.37,0,0,0,.28.1.4.4,0,0,0,.27-.09A.33.33,0,0,0,30.43,66.2Zm-.05-.76a.3.3,0,0,0-.09-.23.34.34,0,0,0-.24-.09.36.36,0,0,0-.25.08.32.32,0,0,0-.09.24.28.28,0,0,0,.09.22.37.37,0,0,0,.25.09.32.32,0,0,0,.24-.09A.29.29,0,0,0,30.38,65.44Z"/></g><g id="_Group_37" data-name="&lt;Group&gt;" class="cls-14"><path id="_Compound_Path_38" data-name="&lt;Compound Path&gt;" class="cls-8" d="M40.35,65.79a.55.55,0,0,1-.18.16.44.44,0,0,1-.23.06.48.48,0,0,1-.24-.07.46.46,0,0,1-.16-.2.59.59,0,0,1,0-.27.72.72,0,0,1,.06-.29.47.47,0,0,1,.17-.2.41.41,0,0,1,.25-.07.45.45,0,0,1,.37.17.74.74,0,0,1,.14.48v.12a1,1,0,0,1-.19.65.7.7,0,0,1-.56.21h0v-.11h0a.61.61,0,0,0,.44-.16A.74.74,0,0,0,40.35,65.79Zm-.39.1a.35.35,0,0,0,.24-.08.43.43,0,0,0,.15-.2v-.07a.66.66,0,0,0-.1-.38A.34.34,0,0,0,40,65a.31.31,0,0,0-.25.13.47.47,0,0,0-.1.32.49.49,0,0,0,.09.3A.32.32,0,0,0,40,65.89Z"/></g><g id="_Group_38" data-name="&lt;Group&gt;" class="cls-14"><path id="_Compound_Path_39" data-name="&lt;Compound Path&gt;" class="cls-8" d="M49.31,66.62h-.13V65.18l-.44.16v-.12l.55-.2h0Z"/><path id="_Compound_Path_40" data-name="&lt;Compound Path&gt;" class="cls-8" d="M50.91,66a.91.91,0,0,1-.13.51.4.4,0,0,1-.36.18.43.43,0,0,1-.37-.18.94.94,0,0,1-.13-.5v-.28a.8.8,0,0,1,.13-.51.4.4,0,0,1,.36-.18.45.45,0,0,1,.37.17.92.92,0,0,1,.13.49Zm-.14-.29a.87.87,0,0,0-.08-.41.34.34,0,0,0-.54,0,.85.85,0,0,0-.1.41V66a.73.73,0,0,0,.1.42.29.29,0,0,0,.27.15.29.29,0,0,0,.26-.15.76.76,0,0,0,.09-.41Z"/></g><g id="_Group_39" data-name="&lt;Group&gt;" class="cls-14"><path id="_Compound_Path_41" data-name="&lt;Compound Path&gt;" class="cls-8" d="M59,66.62h-.13V65.18l-.44.16v-.12L59,65h0Z"/><path id="_Compound_Path_42" data-name="&lt;Compound Path&gt;" class="cls-8" d="M60.22,66.62h-.13V65.18l-.43.16v-.12l.54-.2h0Z"/></g><g id="_Group_40" data-name="&lt;Group&gt;" class="cls-14"><path id="_Compound_Path_43" data-name="&lt;Compound Path&gt;" class="cls-8" d="M68.65,66.62h-.13V65.18l-.44.16v-.12l.55-.2h0Z"/><path id="_Compound_Path_44" data-name="&lt;Compound Path&gt;" class="cls-8" d="M70.28,66.62h-1v-.1l.55-.62a1.11,1.11,0,0,0,.19-.26.37.37,0,0,0,0-.2A.32.32,0,0,0,70,65.2a.32.32,0,0,0-.24-.08.33.33,0,0,0-.26.1.36.36,0,0,0-.1.27h-.13a.51.51,0,0,1,.06-.25.49.49,0,0,1,.43-.24.45.45,0,0,1,.34.12.42.42,0,0,1,.13.31.63.63,0,0,1-.07.25,1.78,1.78,0,0,1-.25.33l-.45.5h.84Z"/></g><g id="_Group_41" data-name="&lt;Group&gt;" class="cls-14"><path id="_Compound_Path_45" data-name="&lt;Compound Path&gt;" class="cls-8" d="M78.32,66.62h-.13V65.18l-.44.16v-.12l.55-.2h0Z"/><path id="_Compound_Path_46" data-name="&lt;Compound Path&gt;" class="cls-8" d="M79.25,65.75h.13a.42.42,0,0,0,.2,0,.24.24,0,0,0,.13-.11.27.27,0,0,0,0-.16.36.36,0,0,0-.08-.24.33.33,0,0,0-.25-.08.33.33,0,0,0-.25.09.29.29,0,0,0-.1.23h-.13a.43.43,0,0,1,.06-.22.44.44,0,0,1,.17-.16.54.54,0,0,1,.25-.06.47.47,0,0,1,.34.12.45.45,0,0,1,.13.33.37.37,0,0,1-.08.21.43.43,0,0,1-.2.14.42.42,0,0,1,.23.15.4.4,0,0,1,.07.24.42.42,0,0,1-.13.33.53.53,0,0,1-.36.13.58.58,0,0,1-.26-.06.4.4,0,0,1-.18-.16.4.4,0,0,1-.07-.24H79a.33.33,0,0,0,.11.25.41.41,0,0,0,.27.1.38.38,0,0,0,.27-.09.34.34,0,0,0,.09-.26.3.3,0,0,0-.1-.24.45.45,0,0,0-.3-.08h-.13Z"/></g><g id="_Group_42" data-name="&lt;Group&gt;" class="cls-14"><path id="_Compound_Path_47" data-name="&lt;Compound Path&gt;" class="cls-8" d="M88,66.62h-.13V65.18l-.44.16v-.12L88,65h0Z"/><path id="_Compound_Path_48" data-name="&lt;Compound Path&gt;" class="cls-8" d="M89.43,66.11h.25v.11h-.25v.4H89.3v-.4h-.75v-.07L89.29,65h.14Zm-.72,0h.59V65.2l-.06.1Z"/></g><g id="_Group_43" data-name="&lt;Group&gt;" class="cls-14"><path id="_Compound_Path_49" data-name="&lt;Compound Path&gt;" class="cls-8" d="M97.66,66.62h-.13V65.18l-.44.16v-.12l.55-.2h0Z"/><path id="_Compound_Path_50" data-name="&lt;Compound Path&gt;" class="cls-8" d="M98.38,65.8l.08-.77h.8v.12h-.68l-.06.54a.51.51,0,0,1,.3-.09.48.48,0,0,1,.35.14.55.55,0,0,1,.12.37.62.62,0,0,1-.12.4.45.45,0,0,1-.35.14.46.46,0,0,1-.49-.45h.13a.37.37,0,0,0,.11.25.33.33,0,0,0,.25.09.3.3,0,0,0,.25-.11.5.5,0,0,0,.09-.31.39.39,0,0,0-.1-.29.33.33,0,0,0-.26-.11l-.17,0-.14.09Z"/></g><g id="_Group_44" data-name="&lt;Group&gt;" class="cls-14"><path id="_Compound_Path_51" data-name="&lt;Compound Path&gt;" class="cls-8" d="M107.33,66.62h-.13V65.18l-.44.16v-.12l.55-.2h0Z"/><path id="_Compound_Path_52" data-name="&lt;Compound Path&gt;" class="cls-8" d="M108.74,65v.12h0a.58.58,0,0,0-.46.17.69.69,0,0,0-.18.47.49.49,0,0,1,.17-.15.56.56,0,0,1,.23-.05.4.4,0,0,1,.33.15.53.53,0,0,1,.13.38.64.64,0,0,1-.06.28.42.42,0,0,1-.17.2.48.48,0,0,1-.62-.1.65.65,0,0,1-.14-.43v-.13a1,1,0,0,1,.19-.67.75.75,0,0,1,.56-.24Zm-.27.68a.42.42,0,0,0-.24.07.33.33,0,0,0-.14.19v.11a.53.53,0,0,0,.11.34.33.33,0,0,0,.28.13.29.29,0,0,0,.24-.12.44.44,0,0,0,.1-.3.45.45,0,0,0-.1-.31A.31.31,0,0,0,108.47,65.69Z"/></g><g id="_Group_45" data-name="&lt;Group&gt;" class="cls-14"><path id="_Compound_Path_53" data-name="&lt;Compound Path&gt;" class="cls-8" d="M117,66.62h-.13V65.18l-.44.16v-.12L117,65h0Z"/><path id="_Compound_Path_54" data-name="&lt;Compound Path&gt;" class="cls-8" d="M118.62,65.1l-.68,1.52h-.14l.68-1.48h-.91V65h1.05Z"/></g><g id="_Group_46" data-name="&lt;Group&gt;" class="cls-14"><path id="_Compound_Path_55" data-name="&lt;Compound Path&gt;" class="cls-8" d="M126.67,66.62h-.13V65.18l-.43.16v-.12l.54-.2h0Z"/><path id="_Compound_Path_56" data-name="&lt;Compound Path&gt;" class="cls-8" d="M128.25,65.44a.36.36,0,0,1-.07.22.52.52,0,0,1-.19.14.6.6,0,0,1,.22.16.41.41,0,0,1,.08.24.42.42,0,0,1-.14.33.53.53,0,0,1-.37.12.55.55,0,0,1-.37-.12.42.42,0,0,1-.14-.33.41.41,0,0,1,.08-.24.6.6,0,0,1,.22-.16.45.45,0,0,1-.19-.14.44.44,0,0,1-.07-.22.43.43,0,0,1,.13-.32.54.54,0,0,1,.68,0A.41.41,0,0,1,128.25,65.44Zm-.09.76a.3.3,0,0,0-.11-.24.36.36,0,0,0-.27-.1.4.4,0,0,0-.27.09.34.34,0,0,0-.11.25.3.3,0,0,0,.11.24.35.35,0,0,0,.27.1.41.41,0,0,0,.28-.09A.36.36,0,0,0,128.16,66.2Zm0-.76a.28.28,0,0,0-.1-.23.32.32,0,0,0-.24-.09.32.32,0,0,0-.24.08.32.32,0,0,0-.09.24.28.28,0,0,0,.09.22.36.36,0,0,0,.48,0A.27.27,0,0,0,128.12,65.44Z"/></g><g id="_Group_47" data-name="&lt;Group&gt;" class="cls-14"><path id="_Compound_Path_57" data-name="&lt;Compound Path&gt;" class="cls-8" d="M136.34,66.62h-.13V65.18l-.43.16v-.12l.54-.2h0Z"/><path id="_Compound_Path_58" data-name="&lt;Compound Path&gt;" class="cls-8" d="M137.8,65.88a.46.46,0,0,1-.18.16.43.43,0,0,1-.22.06.4.4,0,0,1-.24-.07.42.42,0,0,1-.16-.19.67.67,0,0,1-.06-.28.64.64,0,0,1,.06-.28.42.42,0,0,1,.17-.2.44.44,0,0,1,.25-.08.47.47,0,0,1,.38.17.74.74,0,0,1,.13.48v.12a1,1,0,0,1-.18.65.74.74,0,0,1-.57.22h0v-.12h.05a.54.54,0,0,0,.43-.16A.72.72,0,0,0,137.8,65.88Zm-.39.11a.41.41,0,0,0,.39-.29v-.07a.61.61,0,0,0-.1-.38.33.33,0,0,0-.28-.13.3.3,0,0,0-.25.12.55.55,0,0,0,0,.62A.3.3,0,0,0,137.41,66Z"/></g><g id="_Group_48" data-name="&lt;Group&gt;"><path id="_Path_23" data-name="&lt;Path&gt;" class="cls-10" d="M25.85,53.57l-.6-.45c2.64-3.47,5.34-5.22,8-5.17a6.44,6.44,0,0,1,3.15,1,3.85,3.85,0,0,0,2.56.7c2-.25,3.26-2.05,4.48-3.78s2.29-3.26,4-3.1a3.17,3.17,0,0,1,2,1.17,3.37,3.37,0,0,0,2.28,1.25,3,3,0,0,0,1.68-.4,4.24,4.24,0,0,1,2-.54h0a4.53,4.53,0,0,1,3.14,1.39,3.22,3.22,0,0,0,2.05,1c1.24,0,2.08-.92,3-2a7.07,7.07,0,0,1,4-2.8,3.74,3.74,0,0,1,3.12.91,5,5,0,0,0,2.74,1.13c2.24.18,3.66-1.07,5.16-2.39s2.87-2.51,5-2.4,3.4,1.58,4.59,3,2.43,2.88,4.64,3.13A6,6,0,0,0,97,44a6.2,6.2,0,0,1,4.53-1.26c2.37.37,3.6,2,4.69,3.5s1.85,2.5,3.38,2.64c2,.17,3.45-1.54,5-3.36s3.58-4.16,6.4-4.18H121c2.07,0,3.37,1.16,4.63,2.28a6.89,6.89,0,0,0,4,2.19c3.38.3,7.21-2.93,11.37-9.6l.63.4c-4.32,6.92-8.38,10.26-12.07,9.94a7.6,7.6,0,0,1-4.44-2.37C124,43.05,122.81,42,121,42c-2.49,0-4.19,2-5.84,3.93s-3.28,3.82-5.64,3.61c-1.86-.17-2.9-1.58-3.91-2.94s-2.13-2.88-4.2-3.2a5.53,5.53,0,0,0-4,1.15A6.74,6.74,0,0,1,92.78,46c-2.51-.28-3.9-1.93-5.13-3.39s-2.22-2.65-4.06-2.75-3.1,1-4.46,2.22c-1.55,1.36-3.16,2.77-5.7,2.57a5.77,5.77,0,0,1-3.12-1.26,3,3,0,0,0-2.55-.79,6.41,6.41,0,0,0-3.53,2.56c-1,1.2-2,2.33-3.62,2.29a4,4,0,0,1-2.51-1.21A3.79,3.79,0,0,0,55.44,45h0a3.34,3.34,0,0,0-1.68.46,3.69,3.69,0,0,1-2.07.47,4.1,4.1,0,0,1-2.74-1.46,2.58,2.58,0,0,0-1.54-1c-1.26-.12-2.2,1.23-3.3,2.78-1.25,1.79-2.67,3.81-5,4.1a4.65,4.65,0,0,1-3-.78,5.56,5.56,0,0,0-2.8-.89h-.09C30.77,48.7,28.3,50.34,25.85,53.57Z"/></g><g id="_Group_49" data-name="&lt;Group&gt;"><path id="_Path_24" data-name="&lt;Path&gt;" class="cls-10" d="M68.49,42.14A1.12,1.12,0,1,1,67.37,41,1.12,1.12,0,0,1,68.49,42.14Z"/><path id="_Compound_Path_59" data-name="&lt;Compound Path&gt;" class="cls-10" d="M67.37,43.62a1.49,1.49,0,0,1,0-3,1.49,1.49,0,1,1,0,3Zm0-2.22a.74.74,0,1,0,.74.74A.74.74,0,0,0,67.37,41.4Z"/></g><g id="_Group_50" data-name="&lt;Group&gt;"><rect id="_Rectangle_9" data-name="&lt;Rectangle&gt;" class="cls-5" x="59.75" y="74.79" width="90.62" height="32.96" rx="1.34" ry="1.34"/><path id="_Compound_Path_60" data-name="&lt;Compound Path&gt;" class="cls-6" d="M149,107.83H61.16a1.43,1.43,0,0,1-1.5-1.35V76.06a1.43,1.43,0,0,1,1.5-1.35H149a1.43,1.43,0,0,1,1.5,1.35v30.42A1.43,1.43,0,0,1,149,107.83Zm-87.79-33a1.27,1.27,0,0,0-1.33,1.19v30.42a1.27,1.27,0,0,0,1.33,1.19H149a1.27,1.27,0,0,0,1.33-1.19V76.06A1.27,1.27,0,0,0,149,74.87Z"/></g><rect id="_Rectangle_10" data-name="&lt;Rectangle&gt;" class="cls-6" x="71.98" y="87.47" width="71.96" height="0.48"/><rect id="_Rectangle_11" data-name="&lt;Rectangle&gt;" class="cls-6" x="71.98" y="94.15" width="71.96" height="0.48"/><rect id="_Rectangle_12" data-name="&lt;Rectangle&gt;" class="cls-6" x="71.98" y="100.65" width="71.96" height="0.48"/><g id="_Group_51" data-name="&lt;Group&gt;" class="cls-15"><rect id="_Rectangle_13" data-name="&lt;Rectangle&gt;" class="cls-16" x="65" y="86.44" width="2.53" height="2.53"/><path id="_Compound_Path_61" data-name="&lt;Compound Path&gt;" class="cls-16" d="M67.6,89.05H64.91V86.36H67.6Zm-2.52-.16h2.36V86.53H65.08Z"/></g><rect id="_Rectangle_14" data-name="&lt;Rectangle&gt;" class="cls-6" x="71.98" y="81.3" width="71.96" height="0.48"/><g id="_Group_52" data-name="&lt;Group&gt;" class="cls-15"><rect id="_Rectangle_15" data-name="&lt;Rectangle&gt;" class="cls-16" x="65" y="80.27" width="2.53" height="2.53"/><path id="_Compound_Path_62" data-name="&lt;Compound Path&gt;" class="cls-16" d="M67.6,82.88H64.91V80.19H67.6Zm-2.52-.16h2.36V80.35H65.08Z"/></g><g id="_Group_53" data-name="&lt;Group&gt;" class="cls-15"><rect id="_Rectangle_16" data-name="&lt;Rectangle&gt;" class="cls-16" x="65" y="93.13" width="2.53" height="2.53"/><path id="_Compound_Path_63" data-name="&lt;Compound Path&gt;" class="cls-16" d="M67.6,95.74H64.91V93.05H67.6Zm-2.52-.16h2.36V93.21H65.08Z"/></g><g id="_Group_54" data-name="&lt;Group&gt;" class="cls-15"><rect id="_Rectangle_17" data-name="&lt;Rectangle&gt;" class="cls-16" x="65" y="99.81" width="2.53" height="2.53"/><path id="_Compound_Path_64" data-name="&lt;Compound Path&gt;" class="cls-16" d="M67.6,102.42H64.91V99.73H67.6Zm-2.52-.16h2.36V99.9H65.08Z"/></g><rect class="cls-17" x="133.47" y="48.8" width="57.76" height="118.22" rx="10.93" ry="10.93"/><path class="cls-17" d="M144.83,61.31a2.53,2.53,0,1,0-2.52-2.52A2.52,2.52,0,0,0,144.83,61.31Z"/><path class="cls-17" d="M159.33,60.55h6a1.79,1.79,0,1,0,0-3.53h-6a1.79,1.79,0,1,0,0,3.53Z"/><rect class="cls-17" x="137.25" y="64.86" width="50.2" height="85.15"/><path class="cls-17" d="M163,153.46h-2.39a2.92,2.92,0,0,0-2.94,2.89V159a2.62,2.62,0,0,0,2.64,2.6H163a2.92,2.92,0,0,0,2.94-2.89v-2.35A2.92,2.92,0,0,0,163,153.46Z"/><circle class="cls-4" cx="146.39" cy="79.4" r="4.08"/><circle class="cls-18" cx="146.39" cy="95.46" r="4.08"/><circle class="cls-2" cx="146.39" cy="111.51" r="4.08"/><circle class="cls-9" cx="146.39" cy="127.57" r="4.08"/><line class="cls-1" x1="154.14" y1="79.4" x2="179.97" y2="79.4"/><line class="cls-1" x1="154.14" y1="95.46" x2="175.88" y2="95.46"/><line class="cls-1" x1="154.14" y1="111.51" x2="175.88" y2="111.51"/><line class="cls-1" x1="154.14" y1="127.57" x2="175.88" y2="127.57"/><rect class="cls-19" x="143.64" y="136.81" width="33.75" height="6.5" rx="2" ry="2"/></svg>