<svg id="visual" viewBox="0 0 900 600" width="900" height="600" xmlns="http://www.w3.org/2000/svg" xmlns:xlink="http://www.w3.org/1999/xlink" version="1.1"><rect x="0" y="0" width="900" height="600" fill="transparent"></rect><path d="M0 415L21.5 410.2C43 405.3 86 395.7 128.8 408.2C171.7 420.7 214.3 455.3 257.2 472.5C300 489.7 343 489.3 385.8 487.3C428.7 485.3 471.3 481.7 514.2 481C557 480.3 600 482.7 642.8 473C685.7 463.3 728.3 441.7 771.2 445.2C814 448.7 857 477.3 878.5 491.7L900 506L900 601L878.5 601C857 601 814 601 771.2 601C728.3 601 685.7 601 642.8 601C600 601 557 601 514.2 601C471.3 601 428.7 601 385.8 601C343 601 300 601 257.2 601C214.3 601 171.7 601 128.8 601C86 601 43 601 21.5 601L0 601Z" fill="#18B772" stroke-linecap="round" stroke-linejoin="miter"></path></svg>
